<svg width="40" height="40" viewBox="0 0 40 40" fill="none" xmlns="http://www.w3.org/2000/svg">
<path d="M36.6333 26.1167C36.5666 26.0167 36.4833 25.9167 36.3999 25.8334C35.0499 24.2834 33.0499 23.3334 30.8333 23.3334C28.7333 23.3334 26.8166 24.2 25.4499 25.6C24.1333 26.95 23.3333 28.8 23.3333 30.8334C23.3333 32.2334 23.7333 33.5667 24.4166 34.7C24.7999 35.3334 25.2833 35.9167 25.8499 36.4C25.9333 36.4834 26.0166 36.55 26.1166 36.6334C26.1166 36.6334 26.1166 36.6334 26.1333 36.6334C27.3999 37.7 29.0333 38.3334 30.8333 38.3334C33.5666 38.3334 35.9499 36.8667 37.2499 34.7C37.6333 34.05 37.9333 33.3334 38.1166 32.5834C38.2666 32.0167 38.3333 31.4334 38.3333 30.8334C38.3333 29.05 37.6999 27.4 36.6333 26.1167ZM33.7166 33.6834C33.4666 33.9334 33.1499 34.05 32.8333 34.05C32.5166 34.05 32.1999 33.9334 31.9499 33.6834L30.8499 32.5834L29.6999 33.7334C29.4499 33.9834 29.1333 34.1 28.8166 34.1C28.4999 34.1 28.1833 33.9834 27.9333 33.7334C27.4499 33.25 27.4499 32.45 27.9333 31.9667L29.0833 30.8167L27.9833 29.7167C27.4999 29.2334 27.4999 28.4334 27.9833 27.95C28.4666 27.4667 29.2666 27.4667 29.7499 27.95L30.8499 29.05L31.8999 28C32.3833 27.5167 33.1833 27.5167 33.6666 28C34.1499 28.4834 34.1499 29.2834 33.6666 29.7667L32.6166 30.8167L33.7166 31.9167C34.2166 32.4 34.2166 33.1834 33.7166 33.6834Z" fill="#FF4E78"/>
<path d="M24.5499 9.76671V4.16671C24.5499 3.70004 24.1833 3.33337 23.7166 3.33337H16.2833C15.8166 3.33337 15.45 3.70004 15.45 4.16671V9.76671C15.45 10.2334 15.8166 10.6 16.2833 10.6H23.7166C24.1833 10.6 24.5499 10.2334 24.5499 9.76671Z" fill="#FF4E78"/>
<path d="M12.0834 3.36669C7.81671 3.63336 4.90005 5.83336 3.81671 9.50002C3.65005 10.05 4.05005 10.6 4.61671 10.6H12.1167C12.5834 10.6 12.95 10.2334 12.95 9.76669V4.20002C12.95 3.73336 12.55 3.33336 12.0834 3.36669Z" fill="#FF4E78"/>
<path d="M27.9167 3.34997C32.1834 3.61663 35.1 5.81663 36.1834 9.4833C36.35 10.0333 35.9501 10.5833 35.3834 10.5833H27.8834C27.4167 10.5833 27.05 10.2166 27.05 9.74997V4.1833C27.05 3.71663 27.45 3.31663 27.9167 3.34997Z" fill="#FF4E78"/>
<path d="M36.6666 13.9333V21.2333C36.6666 21.85 36.0166 22.25 35.4666 21.9666C34.0666 21.2333 32.4666 20.8333 30.8333 20.8333C28.1499 20.8333 25.5333 21.9333 23.6666 23.85C21.8333 25.7166 20.8333 28.2 20.8333 30.8333C20.8333 32.1833 21.3666 33.9166 22.0333 35.3666C22.2999 35.95 21.8999 36.6666 21.2499 36.6666H13.0166C7.66659 36.6666 3.33325 32.3333 3.33325 26.9833V13.9333C3.33325 13.4666 3.69992 13.1 4.16659 13.1H35.8333C36.2999 13.1 36.6666 13.4666 36.6666 13.9333Z" fill="#FF4E78"/>
</svg>
