<svg width="800" height="900" viewBox="0 0 800 900" fill="none" xmlns="http://www.w3.org/2000/svg">
<g clip-path="url(#clip0_120_1248)">
<path d="M0 48C0 21.4903 21.4903 0 48 0H800V900H48C21.4903 900 0 878.51 0 852V48Z" fill="#F3F5F9"/>
<path d="M88.3854 68.4703C86.9129 68.4703 85.622 68.3182 84.5126 68.0141C83.4032 67.6883 82.4753 67.2214 81.729 66.6132C81.0028 66.005 80.4481 65.2774 80.0648 64.4303C79.7018 63.5615 79.5001 62.5949 79.4597 61.5306H84.9059C84.9866 61.9433 85.1076 62.3017 85.269 62.6058C85.4505 62.9099 85.6825 63.1597 85.9649 63.3551C86.2473 63.5506 86.5801 63.6918 86.9634 63.7787C87.3668 63.8656 87.8408 63.909 88.3854 63.909C88.9704 63.909 89.4747 63.8656 89.8983 63.7787C90.342 63.6918 90.7051 63.5615 90.9875 63.3877C91.2901 63.214 91.5119 62.9968 91.6531 62.7361C91.7943 62.4755 91.8649 62.1714 91.8649 61.8239C91.8649 61.3677 91.754 60.9985 91.5321 60.7161C91.3102 60.412 90.9875 60.1514 90.5639 59.9342C90.1403 59.6953 89.6159 59.4889 88.9906 59.3152C88.3653 59.1414 87.6391 58.9568 86.8121 58.7613C85.7632 58.5007 84.8151 58.1857 83.968 57.8165C83.1409 57.4472 82.435 56.9911 81.85 56.4481C81.2852 55.8834 80.8414 55.21 80.5187 54.4281C80.2161 53.6245 80.0648 52.6688 80.0648 51.561C80.0648 50.4967 80.2565 49.5519 80.6397 48.7265C81.023 47.8795 81.5777 47.1735 82.3038 46.6088C83.03 46.0224 83.9074 45.5771 84.9362 45.273C85.9649 44.9689 87.1146 44.8169 88.3854 44.8169C89.7772 44.8169 90.9875 44.9689 92.0162 45.273C93.0449 45.5554 93.9022 45.9789 94.588 46.5437C95.294 47.1084 95.8286 47.8034 96.1916 48.6288C96.5749 49.4542 96.7968 50.3881 96.8573 51.4307H91.4111C91.3506 51.0832 91.2497 50.7791 91.1085 50.5185C90.9673 50.2578 90.7757 50.0515 90.5336 49.8994C90.2916 49.7257 89.989 49.5954 89.6259 49.5085C89.283 49.4216 88.8695 49.3782 88.3854 49.3782C87.8408 49.3782 87.387 49.4325 87.0239 49.5411C86.6608 49.6279 86.3683 49.7583 86.1464 49.932C85.9245 50.1058 85.7632 50.3121 85.6623 50.551C85.5615 50.79 85.511 51.0615 85.511 51.3656C85.511 51.7565 85.6119 52.0932 85.8136 52.3755C86.0153 52.6579 86.3078 52.9077 86.6911 53.1249C87.0743 53.3204 87.5483 53.4941 88.1131 53.6462C88.6779 53.7982 89.3234 53.9611 90.0495 54.1349C91.1388 54.3738 92.1272 54.667 93.0147 55.0146C93.9224 55.3404 94.6889 55.7856 95.3142 56.3504C95.9597 56.8934 96.4539 57.5667 96.7968 58.3703C97.1397 59.1523 97.3111 60.1188 97.3111 61.27C97.3111 62.3995 97.1094 63.4094 96.706 64.3C96.3026 65.1905 95.7176 65.9507 94.9511 66.5806C94.1846 67.1888 93.2467 67.6558 92.1372 67.9816C91.0278 68.3074 89.7772 68.4703 88.3854 68.4703Z" fill="#031C3D"/>
<path d="M100.032 74.5628V50.7791H104.328V53.1249C104.53 52.7774 104.782 52.4407 105.085 52.1149C105.407 51.7674 105.781 51.4633 106.204 51.2027C106.628 50.942 107.102 50.7357 107.626 50.5836C108.151 50.4316 108.716 50.3556 109.321 50.3556C110.45 50.3556 111.439 50.5402 112.286 50.9094C113.153 51.257 113.879 51.7891 114.464 52.5059C115.049 53.2226 115.483 54.1132 115.765 55.1775C116.068 56.2418 116.219 57.4907 116.219 58.9242V59.5758C116.219 61.0311 116.058 62.3234 115.735 63.4529C115.412 64.5606 114.948 65.4837 114.343 66.2222C113.738 66.9607 113.012 67.5254 112.165 67.9164C111.318 68.2856 110.37 68.4703 109.321 68.4703C108.413 68.4703 107.546 68.2531 106.719 67.8187C105.912 67.3625 105.236 66.7109 104.691 65.8638V74.5628H100.032ZM108.201 64.3326C108.665 64.3326 109.089 64.2348 109.472 64.0393C109.875 63.8221 110.218 63.518 110.501 63.1271C110.803 62.7361 111.035 62.2474 111.197 61.661C111.358 61.0528 111.439 60.3577 111.439 59.5758V58.9242C111.439 58.164 111.358 57.5124 111.197 56.9694C111.055 56.4047 110.833 55.9485 110.531 55.601C110.249 55.2318 109.906 54.9603 109.502 54.7865C109.119 54.591 108.685 54.4933 108.201 54.4933C107.717 54.4933 107.253 54.5802 106.809 54.7539C106.386 54.906 106.013 55.1557 105.69 55.5033C105.387 55.8291 105.145 56.2418 104.964 56.7413C104.782 57.2192 104.691 57.7839 104.691 58.4355V60.0645C104.691 60.7379 104.782 61.346 104.964 61.889C105.145 62.4103 105.387 62.8556 105.69 63.2248C106.013 63.5941 106.386 63.8764 106.809 64.0719C107.253 64.2457 107.717 64.3326 108.201 64.3326Z" fill="#031C3D"/>
<path d="M126.362 68.4703C125.192 68.4703 124.093 68.2965 123.064 67.949C122.056 67.5797 121.178 67.0259 120.432 66.2874C119.686 65.5489 119.101 64.6258 118.677 63.518C118.253 62.3886 118.042 61.0745 118.042 59.5758V58.9242C118.042 57.4907 118.243 56.2418 118.647 55.1775C119.07 54.1132 119.635 53.2226 120.341 52.5059C121.067 51.7891 121.914 51.257 122.883 50.9094C123.871 50.5402 124.93 50.3556 126.06 50.3556C128.702 50.3556 130.699 51.0941 132.05 52.571C133.402 54.0263 134.078 56.144 134.078 58.9242V60.7161H122.822C122.842 61.3895 122.953 61.965 123.155 62.4429C123.357 62.899 123.619 63.2791 123.942 63.5832C124.264 63.8873 124.638 64.1154 125.061 64.2674C125.485 64.3977 125.918 64.4629 126.362 64.4629C127.27 64.4629 127.976 64.3217 128.48 64.0393C128.984 63.7352 129.317 63.3334 129.479 62.8339H133.775C133.614 63.7678 133.331 64.5932 132.928 65.31C132.524 66.005 132.01 66.5915 131.385 67.0693C130.76 67.5472 130.023 67.8947 129.176 68.1119C128.329 68.3508 127.391 68.4703 126.362 68.4703ZM122.852 57.4255H129.509C129.509 56.8173 129.418 56.3178 129.237 55.9268C129.075 55.5358 128.843 55.2209 128.541 54.982C128.238 54.7431 127.885 54.5802 127.482 54.4933C127.078 54.3847 126.655 54.3304 126.211 54.3304C125.787 54.3304 125.374 54.3847 124.97 54.4933C124.587 54.6019 124.234 54.7865 123.911 55.0471C123.609 55.2861 123.357 55.601 123.155 55.992C122.973 56.3829 122.873 56.8608 122.852 57.4255Z" fill="#031C3D"/>
<path d="M144.209 68.4703C143.039 68.4703 141.94 68.2965 140.911 67.949C139.902 67.5797 139.025 67.0259 138.279 66.2874C137.532 65.5489 136.947 64.6258 136.524 63.518C136.1 62.3886 135.888 61.0745 135.888 59.5758V58.9242C135.888 57.4907 136.09 56.2418 136.493 55.1775C136.917 54.1132 137.482 53.2226 138.188 52.5059C138.914 51.7891 139.761 51.257 140.729 50.9094C141.718 50.5402 142.777 50.3556 143.906 50.3556C146.549 50.3556 148.546 51.0941 149.897 52.571C151.249 54.0263 151.924 56.144 151.924 58.9242V60.7161H140.669C140.689 61.3895 140.8 61.965 141.002 62.4429C141.203 62.899 141.466 63.2791 141.788 63.5832C142.111 63.8873 142.484 64.1154 142.908 64.2674C143.331 64.3977 143.765 64.4629 144.209 64.4629C145.117 64.4629 145.823 64.3217 146.327 64.0393C146.831 63.7352 147.164 63.3334 147.325 62.8339H151.622C151.46 63.7678 151.178 64.5932 150.775 65.31C150.371 66.005 149.857 66.5915 149.231 67.0693C148.606 67.5472 147.87 67.8947 147.023 68.1119C146.176 68.3508 145.238 68.4703 144.209 68.4703ZM140.699 57.4255H147.356C147.356 56.8173 147.265 56.3178 147.083 55.9268C146.922 55.5358 146.69 55.2209 146.387 54.982C146.085 54.7431 145.732 54.5802 145.328 54.4933C144.925 54.3847 144.501 54.3304 144.058 54.3304C143.634 54.3304 143.221 54.3847 142.817 54.4933C142.434 54.6019 142.081 54.7865 141.758 55.0471C141.456 55.2861 141.203 55.601 141.002 55.992C140.82 56.3829 140.719 56.8608 140.699 57.4255Z" fill="#031C3D"/>
<path d="M161.904 68.4703C160.714 68.4703 159.615 68.2856 158.606 67.9164C157.618 67.5472 156.761 66.9933 156.035 66.2548C155.308 65.5163 154.744 64.5932 154.34 63.4855C153.937 62.3777 153.735 61.0745 153.735 59.5758V58.9242C153.735 57.5558 153.947 56.3395 154.37 55.2752C154.814 54.2109 155.399 53.3204 156.125 52.6036C156.872 51.8651 157.739 51.3113 158.727 50.942C159.736 50.551 160.795 50.3556 161.904 50.3556C163.115 50.3556 164.174 50.5293 165.081 50.8769C166.009 51.2244 166.786 51.7022 167.411 52.3104C168.036 52.8968 168.52 53.5919 168.863 54.3955C169.206 55.1992 169.408 56.0571 169.468 56.9694H164.688C164.607 56.5784 164.496 56.2309 164.355 55.9268C164.214 55.6227 164.022 55.3729 163.78 55.1775C163.558 54.9603 163.296 54.7974 162.994 54.6888C162.691 54.5802 162.328 54.5259 161.904 54.5259C161.42 54.5259 160.966 54.6236 160.543 54.8191C160.139 54.9928 159.786 55.2643 159.484 55.6336C159.181 55.9811 158.939 56.4372 158.758 57.002C158.596 57.545 158.516 58.1857 158.516 58.9242V59.5758C158.516 60.3795 158.596 61.0745 158.758 61.661C158.919 62.2474 159.141 62.7361 159.423 63.1271C159.726 63.518 160.089 63.8113 160.512 64.0068C160.936 64.1805 161.4 64.2674 161.904 64.2674C162.61 64.2674 163.205 64.0719 163.689 63.6809C164.194 63.2683 164.527 62.6601 164.688 61.8564H169.468C169.408 62.8773 169.186 63.8004 168.803 64.6258C168.42 65.4294 167.895 66.1245 167.229 66.7109C166.584 67.2757 165.807 67.7101 164.9 68.0141C164.012 68.3182 163.014 68.4703 161.904 68.4703Z" fill="#031C3D"/>
<path d="M171.744 68.0467V45.2404H176.403V52.962C176.564 52.6796 176.786 52.3864 177.069 52.0823C177.351 51.7782 177.694 51.4959 178.097 51.2352C178.521 50.9746 179.005 50.7682 179.55 50.6162C180.094 50.4424 180.7 50.3556 181.365 50.3556C183.302 50.3556 184.754 50.9203 185.722 52.0497C186.69 53.1575 187.174 54.7322 187.174 56.7739V68.0467H182.515V57.9468C182.515 56.8173 182.283 55.9703 181.819 55.4055C181.375 54.8191 180.639 54.5259 179.61 54.5259C179.046 54.5259 178.561 54.6127 178.158 54.7865C177.755 54.9603 177.422 55.1992 177.16 55.5033C176.897 55.8074 176.706 56.1657 176.585 56.5784C176.464 56.9911 176.403 57.4472 176.403 57.9468V68.0467H171.744Z" fill="#031C3D"/>
<path d="M206.242 68.4703C204.83 68.4703 203.549 68.2748 202.399 67.8838C201.27 67.4711 200.302 66.8738 199.495 66.0919C198.708 65.2882 198.093 64.2891 197.649 63.0945C197.226 61.8999 197.014 60.5098 197.014 58.9242V45.2404H202.46V58.24C202.46 59.1088 202.521 59.8799 202.642 60.5532C202.783 61.2266 203.005 61.7913 203.307 62.2474C203.61 62.6818 204.003 63.0185 204.487 63.2574C204.971 63.4746 205.556 63.5832 206.242 63.5832C206.968 63.5832 207.573 63.4746 208.057 63.2574C208.542 63.0185 208.925 62.6818 209.207 62.2474C209.51 61.7913 209.722 61.2374 209.843 60.5858C209.964 59.9125 210.024 59.1414 210.024 58.2726V45.2404H215.47V58.9242C215.47 60.5098 215.259 61.8999 214.835 63.0945C214.411 64.2891 213.796 65.2882 212.989 66.0919C212.203 66.8738 211.234 67.4711 210.085 67.8838C208.955 68.2748 207.674 68.4703 206.242 68.4703Z" fill="#031C3D"/>
<path d="M218.813 74.5628V50.7791H223.109V53.1249C223.311 52.7774 223.563 52.4407 223.866 52.1149C224.188 51.7674 224.562 51.4633 224.985 51.2027C225.409 50.942 225.883 50.7357 226.407 50.5836C226.932 50.4316 227.496 50.3556 228.102 50.3556C229.231 50.3556 230.219 50.5402 231.067 50.9094C231.934 51.257 232.66 51.7891 233.245 52.5059C233.83 53.2226 234.264 54.1132 234.546 55.1775C234.849 56.2418 235 57.4907 235 58.9242V59.5758C235 61.0311 234.839 62.3234 234.516 63.4529C234.193 64.5606 233.729 65.4837 233.124 66.2222C232.519 66.9607 231.793 67.5254 230.946 67.9164C230.098 68.2856 229.15 68.4703 228.102 68.4703C227.194 68.4703 226.326 68.2531 225.499 67.8187C224.693 67.3625 224.017 66.7109 223.472 65.8638V74.5628H218.813ZM226.982 64.3326C227.446 64.3326 227.87 64.2348 228.253 64.0393C228.656 63.8221 228.999 63.518 229.282 63.1271C229.584 62.7361 229.816 62.2474 229.977 61.661C230.139 61.0528 230.219 60.3577 230.219 59.5758V58.9242C230.219 58.164 230.139 57.5124 229.977 56.9694C229.836 56.4047 229.614 55.9485 229.312 55.601C229.029 55.2318 228.686 54.9603 228.283 54.7865C227.9 54.591 227.466 54.4933 226.982 54.4933C226.498 54.4933 226.034 54.5802 225.59 54.7539C225.167 54.906 224.793 55.1557 224.471 55.5033C224.168 55.8291 223.926 56.2418 223.745 56.7413C223.563 57.2192 223.472 57.7839 223.472 58.4355V60.0645C223.472 60.7379 223.563 61.346 223.745 61.889C223.926 62.4103 224.168 62.8556 224.471 63.2248C224.793 63.5941 225.167 63.8764 225.59 64.0719C226.034 64.2457 226.498 64.3326 226.982 64.3326Z" fill="#031C3D"/>
<path d="M65.6896 50.1526C69.4558 52.7087 69.4558 58.6214 65.6896 61.1776L49.278 72.3161C45.2483 75.0509 40 71.9326 40 66.8036L40 44.5266C40 39.3975 45.2484 36.2792 49.278 39.0141L65.6896 50.1526Z" fill="url(#paint0_linear_120_1248)"/>
<rect width="2.31422" height="5.5446" rx="1.15711" transform="matrix(-1 0 0 1 45.3892 52.9111)" fill="white"/>
<rect width="2.31422" height="18.8143" rx="1.15711" transform="matrix(-1 0 0 1 49.2537 46.2759)" fill="white"/>
<rect width="2.31422" height="10.84" rx="1.15711" transform="matrix(-1 0 0 1 53.1182 50.2632)" fill="white"/>
<rect width="2.31422" height="15.3878" rx="1.15711" transform="matrix(-1 0 0 1 56.9822 47.9893)" fill="white"/>
<rect width="2.25636" height="5.5446" rx="1.12818" transform="matrix(-1 0 0 1 60.7891 52.9111)" fill="white"/>
<path d="M68.9182 678.454C117.459 632.067 170.263 578.457 232.956 536.418C249.055 525.62 257.963 512.123 259.18 494.2C260.609 473.175 262.221 451.504 258.803 430.936C248.179 367.013 273.695 320.753 324.07 284.432C350.787 265.169 377.096 245.372 411.107 241.594C426.347 239.901 441.958 238.575 457.15 239.912C508.43 244.434 560.068 247.523 610.662 256.352C653.497 263.832 689.914 286.124 712.365 325.866C739.46 373.834 728.276 438.393 685.863 479.644C656.557 508.15 624.837 534.519 598.097 565.237C551.91 618.296 518.039 679.205 492.98 745.202C474.697 793.349 455.437 841.304 425.771 884.03C365.575 970.727 285.695 1020.55 177.081 1014.42C135.885 1012.09 95.5533 1000.09 63.8057 975.09C24.1313 943.85 -0.0943538 900.747 1.14 847.36C2.566 785.641 24.9724 732.004 68.9182 678.454Z" fill="#D4DFF4"/>
<path d="M243.159 385.167C248.116 391.547 257.309 392.698 263.686 387.739C270.065 382.781 271.214 373.59 266.256 367.213C261.299 360.834 252.106 359.682 245.729 364.641C239.352 369.599 238.201 378.79 243.159 385.167ZM303.878 402.557C281.642 419.843 249.606 415.829 232.32 393.595C215.033 371.361 219.048 339.322 241.282 322.036C260.301 307.253 286.482 308.061 304.478 322.514L304.495 322.504L315.682 313.807L332.293 318.985L330.392 302.372L344.407 291.476L361.018 296.654L359.117 280.041L371.166 270.674L381.288 273.83L380.131 263.706L387.142 258.253L403.046 259.823L405.182 284.262L321.837 349.054C326.994 368.276 320.576 389.576 303.878 402.557Z" fill="#2477F4"/>
<path d="M210.019 170.753C206.669 173.488 206.17 178.423 208.908 181.771C211.644 185.122 216.579 185.62 219.929 182.882C223.278 180.146 223.776 175.211 221.04 171.863C218.302 168.512 213.367 168.015 210.019 170.753ZM201.499 203.477C191.959 191.801 193.69 174.599 205.366 165.059C217.045 155.519 234.245 157.252 243.787 168.929C251.947 178.917 251.852 192.941 244.349 202.761L244.356 202.77L249.155 208.645L246.6 217.605L255.467 216.369L261.482 223.732L258.925 232.692L267.793 231.456L272.963 237.786L271.406 243.245L276.811 242.492L279.818 246.177L279.185 254.708L266.131 256.169L230.368 212.396C220.147 215.408 208.663 212.247 201.499 203.477Z" fill="#2477F4"/>
<path d="M128.775 796.705L75.406 874.313L56.3306 874.761L91.3101 794.962L128.775 796.705Z" fill="#17282F"/>
<path d="M691.839 800.674L719.955 873.959H705.897L656.79 800.995L691.839 800.674Z" fill="#17282F"/>
<path d="M703.881 534.346L701.819 629.173C701.528 642.585 690.729 653.39 677.318 653.688L146.553 665.502C132.496 665.817 120.93 654.505 120.93 640.444V526.203C120.93 492.476 145.798 463.908 179.21 459.314C276.37 445.954 476.775 425.408 638.729 454.603C677.106 461.524 704.728 495.358 703.881 534.346Z" fill="#FFB800"/>
<path d="M706.267 567.482C706.267 567.482 749.994 547.247 758.938 567.482C767.881 587.72 757.944 612.564 748.006 626.477C738.068 640.393 738.229 811.326 738.229 811.326L75.1237 804.239L67.2675 639.804C67.2675 639.804 35.4658 600.64 37.4536 583.744C39.4391 566.851 66.2737 542.278 97.0794 567.482C127.887 592.689 135.836 645.36 135.836 645.36L664.529 649.336C664.529 649.336 662.778 575.315 706.267 567.482Z" fill="#FFB800"/>
<path d="M142.592 678.201C142.592 678.509 260.063 678.759 404.938 678.759C549.86 678.759 667.307 678.509 667.307 678.201C667.307 677.89 549.86 677.638 404.938 677.638C260.063 677.638 142.592 677.89 142.592 678.201Z" fill="#17282F"/>
<path d="M667.307 750.574C667.326 750.574 667.347 750.397 667.368 750.054C667.387 749.642 667.409 749.142 667.435 748.528C667.486 747.185 667.53 745.203 667.549 742.653C667.562 737.456 667.581 730.104 667.603 721.06C667.629 702.827 667.475 677.633 668.305 649.84C668.812 635.964 669.311 622.666 671.338 610.854C671.724 609.427 672.103 608.019 672.479 606.627C673.021 605.275 673.544 603.927 674.113 602.625C675.252 600.023 676.415 597.518 677.687 595.172C680.187 590.459 682.92 586.29 685.759 582.759C688.593 579.223 691.534 576.345 694.324 574.072C697.151 571.847 699.803 570.215 702.072 569.086C706.631 566.85 709.439 566.303 709.387 566.143C709.382 566.124 709.21 566.158 708.875 566.238C708.477 566.343 707.991 566.471 707.395 566.63C706.085 566.945 704.21 567.631 701.881 568.693C699.557 569.774 696.838 571.371 693.935 573.579C691.072 575.832 688.05 578.71 685.142 582.258C682.229 585.801 679.427 589.994 676.867 594.732C675.565 597.093 674.373 599.613 673.208 602.231C672.625 603.544 672.09 604.895 671.535 606.262C671.137 607.705 670.734 609.168 670.324 610.649C668.213 622.613 667.694 635.897 667.183 649.805C666.353 677.633 666.633 702.83 666.81 721.064C666.937 730.106 667.04 737.457 667.112 742.655C667.153 745.133 667.185 747.09 667.208 748.526C667.227 749.14 667.241 749.641 667.254 750.052C667.27 750.397 667.287 750.574 667.307 750.574Z" fill="#17282F"/>
<path d="M711.437 605.646C711.46 605.602 710.879 605.234 709.672 605.098C708.487 604.962 706.626 605.199 704.811 606.454C703.919 607.084 703.035 607.963 702.437 609.138C701.844 610.311 701.563 611.775 701.807 613.239C702.234 616.125 704.522 619.165 708.001 619.851C711.495 620.439 714.704 618.443 716.19 615.946C716.973 614.692 717.281 613.247 717.239 611.943C717.184 610.634 716.789 609.464 716.277 608.504C715.228 606.57 713.727 605.486 712.643 605.003C711.541 604.507 710.862 604.496 710.855 604.55C710.829 604.645 711.465 604.807 712.439 605.387C713.4 605.958 714.703 607.062 715.569 608.864C716.441 610.617 716.741 613.215 715.309 615.403C713.978 617.559 711.112 619.256 708.203 618.747C705.308 618.197 703.237 615.563 702.828 613.075C702.33 610.503 703.708 608.254 705.28 607.094C706.86 605.883 708.541 605.536 709.654 605.538C710.783 605.531 711.406 605.745 711.437 605.646Z" fill="#17282F"/>
<path d="M708.431 648.204C708.515 648.29 709.908 647.132 711.431 644.666C712.952 642.234 714.469 638.368 714.522 633.906C714.576 629.439 713.15 625.538 711.688 623.07C710.223 620.569 708.861 619.377 708.775 619.465C708.629 619.582 709.756 620.942 710.987 623.443C712.223 625.924 713.45 629.661 713.4 633.89C713.349 638.12 712.034 641.828 710.739 644.275C709.449 646.748 708.289 648.081 708.431 648.204Z" fill="#17282F"/>
<path d="M715.364 584.195C715.195 584.27 715.663 585.451 716.024 587.418C716.394 589.377 716.537 592.161 715.914 595.134C715.275 598.102 714.013 600.59 712.877 602.229C711.747 603.878 710.84 604.766 710.965 604.906C711.041 605.003 712.157 604.313 713.511 602.707C714.865 601.118 716.336 598.523 717.012 595.366C717.676 592.21 717.388 589.242 716.798 587.237C716.213 585.221 715.474 584.139 715.364 584.195Z" fill="#17282F"/>
<path d="M728.279 608.044C728.032 607.819 726.027 609.846 722.97 611.413C719.932 613.022 717.122 613.509 717.166 613.836C717.163 614.125 720.226 614.127 723.489 612.409C726.765 610.719 728.518 608.205 728.279 608.044Z" fill="#17282F"/>
<path d="M72.5595 750.574C72.5595 750.885 222.134 751.135 406.598 751.135C591.128 751.135 740.668 750.885 740.668 750.574C740.668 750.262 591.128 750.012 406.598 750.012C222.134 750.012 72.5595 750.262 72.5595 750.574Z" fill="#17282F"/>
<path d="M144.895 645.903C144.585 645.903 144.335 669.322 144.335 698.201C144.335 727.092 144.585 750.507 144.895 750.507C145.205 750.507 145.456 727.092 145.456 698.201C145.456 669.322 145.205 645.903 144.895 645.903Z" fill="#17282F"/>
<path d="M366.338 465.012C366.338 465.012 366.685 465.055 367.364 465.09C368.091 465.118 369.091 465.152 370.378 465.202C373.08 465.277 376.975 465.387 381.968 465.525C392.086 465.762 406.641 466.099 424.601 466.513C460.646 467.237 510.355 468.237 565.261 469.341C578.995 469.673 592.423 469.632 605.321 470.484C618.199 471.335 630.645 473.138 641.804 477.143C652.999 480.983 662.646 487.395 669.542 495.324C672.972 499.289 675.865 503.508 678.034 507.884C680.357 512.188 681.903 516.64 683.312 520.887C685.869 529.487 687.019 537.571 687.675 544.668C688.335 551.779 688.413 557.938 688.445 562.966C688.467 567.998 688.36 571.904 688.3 574.554C688.273 575.839 688.252 576.841 688.236 577.568C688.227 578.247 688.252 578.596 688.252 578.596C688.252 578.596 688.305 578.251 688.351 577.574C688.393 576.848 688.451 575.847 688.526 574.56C688.658 571.915 688.837 568.006 688.882 562.968C688.917 557.934 688.903 551.757 688.3 544.617C687.7 537.485 686.602 529.349 684.071 520.656C682.676 516.364 681.137 511.856 678.805 507.488C676.629 503.047 673.713 498.752 670.242 494.71C663.272 486.627 653.47 480.08 642.153 476.169C630.867 472.09 618.327 470.26 605.396 469.384C592.434 468.515 579.014 468.552 565.283 468.218C510.374 467.243 460.661 466.36 424.616 465.719C406.651 465.454 392.097 465.238 381.977 465.09C376.982 465.042 373.086 465.001 370.382 464.975C369.095 464.973 368.093 464.973 367.366 464.973C366.685 464.98 366.338 465.012 366.338 465.012Z" fill="#17282F"/>
<path d="M536.084 538.86C536.045 538.957 536.797 539.225 537.91 540.057C539.009 540.878 540.445 542.402 541.251 544.727C542.075 546.992 542.079 550.213 540.055 552.74C538.153 555.239 534.486 557 530.907 556.179C527.343 555.301 524.864 552.072 524.293 548.984C523.625 545.815 525.082 542.944 526.837 541.292C528.605 539.583 530.575 538.869 531.927 538.632C533.294 538.39 534.087 538.492 534.096 538.386C534.109 538.341 533.324 538.082 531.867 538.201C530.431 538.313 528.279 538.942 526.296 540.712C525.321 541.596 524.39 542.76 523.786 544.22C523.196 545.675 522.943 547.424 523.275 549.172C523.866 552.628 526.548 556.241 530.648 557.272C534.771 558.201 538.793 556.183 540.876 553.365C541.963 551.957 542.525 550.282 542.655 548.715C542.773 547.143 542.469 545.684 541.997 544.455C541.025 541.98 539.389 540.447 538.157 539.699C536.909 538.936 536.092 538.813 536.084 538.86Z" fill="#17282F"/>
<path d="M545.171 594.722C545.298 594.752 546.085 592.359 546.807 588.347C547.495 584.367 548.118 578.574 546.471 572.439C544.785 566.286 540.743 561.704 537.177 559.63C535.394 558.568 533.792 558.018 532.663 557.8C531.535 557.574 530.897 557.572 530.888 557.634C530.826 557.863 533.43 558.08 536.748 560.299C540.047 562.446 543.781 566.879 545.387 572.736C546.971 578.613 546.506 584.262 546.023 588.229C545.51 592.223 544.999 594.681 545.171 594.722Z" fill="#17282F"/>
<path d="M537.319 505.562C537.164 505.707 538.867 507.192 540.495 510.316C542.124 513.369 543.481 518.31 542.308 523.521C541.103 528.725 537.737 532.589 534.945 534.632C532.123 536.737 529.944 537.34 530.019 537.539C530.038 537.601 530.595 537.519 531.558 537.202C532.524 536.892 533.878 536.286 535.402 535.281C538.429 533.322 542.116 529.327 543.401 523.769C544.653 518.207 543.067 513.007 541.189 509.93C540.253 508.361 539.294 507.229 538.561 506.53C537.828 505.827 537.364 505.511 537.319 505.562Z" fill="#17282F"/>
<path d="M539.294 548.717C539.274 549.066 544.725 549.213 550.985 551.351C557.27 553.43 561.7 556.605 561.894 556.314C562.09 556.125 557.832 552.438 551.343 550.286C544.875 548.083 539.253 548.447 539.294 548.717Z" fill="#17282F"/>
<path d="M526.791 807.576C536.103 807.576 546.615 806.384 551.285 798.526C554.82 792.579 553.475 785.06 552.022 778.295C550.071 769.225 548.122 760.155 546.171 751.083C519.811 751.103 491.588 751.117 462.062 751.126C463.929 755.962 465.613 760.894 467.379 765.713C472.641 780.084 479.918 795.074 493.483 802.158C503.053 807.156 514.306 807.415 525.103 807.565C525.662 807.572 526.224 807.576 526.791 807.576ZM392.519 753.024C394.688 753.024 396.898 752.743 399 752.355C400.861 752.012 402.708 751.605 404.539 751.135C397.793 751.135 391.086 751.132 384.441 751.132C386.839 752.529 389.643 753.024 392.519 753.024ZM545.951 750.063C542.527 734.129 539.102 718.195 535.676 702.262C538.177 702.443 540.682 702.532 543.187 702.532C566.755 702.532 590.295 694.588 608.951 680.167L607.128 678.556C560.57 678.677 491.008 678.754 412.845 678.759C403.825 692.755 394.805 706.749 385.784 720.745C382.831 725.329 379.819 730.048 378.724 735.39C377.654 740.598 378.804 746.607 382.848 750.014C390.691 750.011 398.616 750.011 406.597 750.011C407.229 750.011 407.859 750.011 408.488 750.011C423.191 745.437 436.623 736.767 446.749 725.158C453.667 732.068 458.018 740.838 461.631 750.02C491.234 750.029 519.522 750.042 545.951 750.063ZM606.315 677.84L604.542 676.275C601.046 675.413 597.546 674.572 594.039 673.753C590.35 675.18 586.346 675.965 582.405 675.965C576.704 675.965 571.136 674.32 566.857 670.586C565.701 669.579 564.681 668.466 563.765 667.276C526.798 660.078 489.348 655.359 451.751 653.17C449.713 653.052 447.65 652.946 445.593 652.946C441.42 652.946 437.282 653.384 433.488 655.042C426.272 658.2 421.6 665.177 417.332 671.799C416.077 673.744 414.822 675.693 413.568 677.638C490.975 677.642 559.91 677.72 606.315 677.84Z" fill="#B98708"/>
<path d="M412.846 678.759C491.008 678.755 560.57 678.677 607.128 678.557L606.315 677.841C559.911 677.72 490.976 677.643 413.568 677.638C413.326 678.013 413.087 678.386 412.846 678.759Z" fill="#0F191D"/>
<path d="M404.539 751.135C405.865 750.792 407.182 750.419 408.489 750.012C407.859 750.012 407.23 750.012 406.598 750.012C398.617 750.012 390.692 750.012 382.849 750.014C382.952 750.1 383.056 750.184 383.161 750.266C383.573 750.588 384 750.877 384.442 751.133C391.086 751.133 397.793 751.135 404.539 751.135ZM462.063 751.127C491.588 751.118 519.811 751.103 546.171 751.084C546.098 750.743 546.025 750.404 545.952 750.064C519.522 750.042 491.235 750.029 461.632 750.02C461.776 750.389 461.921 750.758 462.063 751.127Z" fill="#0F191D"/>
<path d="M491.648 440.366C477.829 438.313 463.895 436.843 450 435.541L440.329 437.55C440.611 438.298 440.913 439.036 441.23 439.758C443.726 439.747 446.229 439.741 448.732 439.741C462.961 439.741 477.3 439.939 491.648 440.366Z" fill="#A7A9A8"/>
<path d="M622.428 649.018C633.778 635.201 644.131 620.28 649.501 603.276C659.562 571.421 650.341 535.406 630.156 508.79C617.951 492.696 602.168 479.775 584.602 469.697C578.241 469.572 571.786 469.498 565.262 469.341C529.2 468.617 495.376 467.935 466.196 467.349C484.694 480.565 507.066 491.064 517.474 510.928C522.659 520.822 524.205 531.722 524.41 542.989C524.951 542.09 525.613 541.333 526.296 540.712C528.28 538.942 530.431 538.313 531.867 538.2C532.134 538.179 532.38 538.17 532.6 538.17C533.587 538.17 534.107 538.349 534.096 538.386C534.088 538.492 533.294 538.39 531.927 538.632C530.576 538.869 528.605 539.582 526.837 541.292C525.813 542.256 524.891 543.638 524.431 545.25C524.436 546.647 524.423 548.049 524.395 549.454C525.119 552.393 527.523 555.344 530.908 556.179C531.514 556.317 532.121 556.383 532.723 556.383C535.677 556.383 538.475 554.816 540.055 552.74C540.935 551.643 541.431 550.412 541.644 549.187C540.172 548.967 539.286 548.859 539.294 548.717C539.279 548.622 539.982 548.514 541.185 548.514C541.357 548.514 541.541 548.516 541.732 548.521C541.858 547.156 541.653 545.828 541.252 544.726C540.445 542.402 539.01 540.878 537.91 540.057C536.798 539.225 536.045 538.957 536.084 538.86C536.084 538.854 536.097 538.852 536.121 538.852C536.291 538.852 537.056 539.026 538.158 539.699C539.389 540.447 541.025 541.98 541.998 544.455C542.453 545.643 542.754 547.046 542.666 548.562C544.891 548.695 548.004 549.148 551.344 550.287C557.833 552.438 562.091 556.125 561.895 556.314C561.886 556.327 561.871 556.334 561.847 556.334C561.315 556.334 557.001 553.339 550.986 551.352C547.756 550.248 544.742 549.674 542.582 549.331C542.371 550.713 541.823 552.141 540.877 553.365C539.143 555.711 536.067 557.5 532.708 557.5C532.029 557.5 531.341 557.427 530.649 557.272C527.756 556.545 525.568 554.531 524.324 552.194C523.642 574.129 520.294 596.783 530.554 615.628C536.864 627.22 547.7 635.874 553.866 647.546C554.034 647.863 554.2 648.184 554.362 648.507L622.428 649.018ZM531.11 557.597C531.388 557.597 531.919 557.651 532.663 557.8C533.792 558.018 535.394 558.567 537.177 559.63C540.743 561.704 544.785 566.285 546.471 572.438C548.118 578.574 547.495 584.367 546.807 588.347C546.09 592.335 545.309 594.722 545.173 594.722C545.171 594.722 545.171 594.722 545.171 594.722C544.999 594.681 545.51 592.223 546.023 588.228C546.506 584.261 546.971 578.613 545.387 572.736C543.781 566.878 540.047 562.446 536.748 560.299C533.43 558.08 530.826 557.862 530.888 557.634C530.89 557.612 530.966 557.597 531.11 557.597ZM537.334 505.556C537.429 505.556 537.88 505.875 538.561 506.53C539.294 507.229 540.254 508.361 541.189 509.93C543.067 513.007 544.654 518.207 543.401 523.769C542.116 529.327 538.43 533.322 535.403 535.281C533.879 536.286 532.525 536.892 531.559 537.202C530.791 537.455 530.282 537.558 530.097 537.558C530.05 537.558 530.024 537.552 530.019 537.539C529.944 537.34 532.124 536.737 534.946 534.632C537.738 532.589 541.103 528.725 542.308 523.521C543.481 518.31 542.125 513.369 540.495 510.316C538.867 507.192 537.164 505.707 537.319 505.562C537.322 505.558 537.326 505.556 537.334 505.556ZM582.555 468.539C571.663 462.472 560.125 457.479 548.358 453.48C529.942 447.223 510.905 443.229 491.649 440.366C477.301 439.939 462.962 439.74 448.733 439.74C446.23 439.74 443.727 439.747 441.231 439.758C446.107 450.884 454.88 459.111 464.931 466.435C494.4 466.959 528.689 467.569 565.284 468.218C571.1 468.36 576.861 468.433 582.555 468.539Z" fill="#B98708"/>
<path d="M594.04 673.753C594.748 673.48 595.443 673.182 596.125 672.863C605.501 668.465 612.719 660.579 619.395 652.66C620.411 651.455 621.424 650.241 622.427 649.019L554.362 648.508C557.509 654.781 559.577 661.844 563.766 667.277C573.894 669.25 583.989 671.41 594.04 673.753Z" fill="#B98708"/>
<path d="M584.602 469.696C583.923 469.306 583.239 468.92 582.555 468.539C576.861 468.433 571.1 468.36 565.283 468.217C528.689 467.568 494.399 466.958 464.93 466.434C465.351 466.741 465.771 467.045 466.196 467.349C495.376 467.935 529.2 468.616 565.262 469.341C571.786 469.498 578.241 469.571 584.602 469.696Z" fill="#0F191D"/>
<path d="M532.707 557.5C536.066 557.5 539.142 555.71 540.876 553.365C541.822 552.14 542.37 550.713 542.581 549.331C542.247 549.277 541.934 549.23 541.643 549.187C541.43 550.411 540.934 551.642 540.054 552.74C538.474 554.816 535.676 556.383 532.722 556.383C532.121 556.383 531.513 556.316 530.907 556.178C527.522 555.344 525.118 552.392 524.394 549.454C524.377 550.364 524.353 551.28 524.323 552.194C525.567 554.531 527.755 556.545 530.648 557.271C531.34 557.426 532.028 557.5 532.707 557.5ZM542.665 548.561C542.753 547.046 542.452 545.642 541.997 544.454C541.024 541.979 539.388 540.447 538.157 539.698C537.055 539.026 536.29 538.851 536.12 538.851C536.096 538.851 536.083 538.853 536.083 538.86C536.044 538.957 536.797 539.224 537.909 540.056C539.009 540.878 540.444 542.402 541.251 544.726C541.652 545.828 541.857 547.156 541.732 548.52C542.02 548.527 542.333 548.54 542.665 548.561ZM524.43 545.25C524.89 543.637 525.812 542.255 526.836 541.292C528.604 539.582 530.575 538.868 531.926 538.631C533.293 538.39 534.087 538.491 534.095 538.386C534.106 538.349 533.587 538.17 532.599 538.17C532.379 538.17 532.133 538.179 531.866 538.2C530.43 538.312 528.279 538.942 526.295 540.712C525.612 541.333 524.95 542.089 524.409 542.988C524.422 543.741 524.428 544.493 524.43 545.25Z" fill="#0F191D"/>
<path d="M545.173 594.722C545.309 594.722 546.09 592.335 546.807 588.347C547.495 584.367 548.118 578.574 546.471 572.438C544.785 566.285 540.743 561.704 537.177 559.63C535.394 558.567 533.792 558.017 532.663 557.8C531.919 557.651 531.388 557.597 531.11 557.597C530.966 557.597 530.89 557.612 530.888 557.634C530.826 557.862 533.43 558.08 536.748 560.298C540.047 562.446 543.781 566.878 545.387 572.736C546.971 578.613 546.506 584.261 546.023 588.228C545.51 592.223 544.999 594.681 545.171 594.722C545.171 594.722 545.171 594.722 545.173 594.722Z" fill="#0F191D"/>
<path d="M530.097 537.558C530.282 537.558 530.791 537.455 531.558 537.202C532.524 536.892 533.878 536.286 535.402 535.281C538.429 533.322 542.116 529.327 543.401 523.769C544.653 518.207 543.067 513.007 541.189 509.93C540.253 508.361 539.294 507.229 538.561 506.53C537.879 505.875 537.429 505.556 537.334 505.556C537.325 505.556 537.321 505.558 537.319 505.562C537.164 505.707 538.867 507.192 540.495 510.316C542.124 513.369 543.481 518.31 542.308 523.521C541.103 528.725 537.737 532.589 534.945 534.633C532.123 536.737 529.944 537.34 530.019 537.539C530.023 537.552 530.049 537.558 530.097 537.558Z" fill="#0F191D"/>
<path d="M561.847 556.333C561.87 556.333 561.886 556.327 561.894 556.314C562.09 556.124 557.832 552.438 551.343 550.286C548.004 549.148 544.891 548.695 542.666 548.561C542.334 548.54 542.021 548.527 541.732 548.52C541.54 548.516 541.357 548.514 541.185 548.514C539.982 548.514 539.279 548.622 539.294 548.717C539.285 548.859 540.171 548.967 541.644 549.187C541.935 549.23 542.247 549.277 542.582 549.331C544.742 549.674 547.756 550.247 550.985 551.351C557 553.339 561.314 556.333 561.847 556.333Z" fill="#0F191D"/>
<path d="M582.406 675.965C586.346 675.965 590.351 675.181 594.04 673.753C583.989 671.41 573.894 669.25 563.766 667.277C564.682 668.467 565.702 669.58 566.857 670.586C571.137 674.32 576.705 675.965 582.406 675.965Z" fill="#7A1A2B"/>
<path d="M593.619 348.878C588.667 341.5 582.208 334.972 574.285 330.951C566.362 326.931 556.886 325.596 548.442 328.356C539.995 331.113 532.863 338.266 531.141 346.985C529.778 353.892 531.617 361.615 528.049 367.686C523.942 374.673 514.046 376.885 510.573 384.207C508.482 388.618 509.318 393.977 511.615 398.283C513.911 402.59 517.498 406.046 521.085 409.357C518.914 410.897 516.707 412.492 515.178 414.67C513.65 416.847 512.897 419.76 513.921 422.215C515.006 424.811 517.724 426.288 520.314 427.387C532.257 432.449 545.777 433.719 558.456 430.97C561.862 430.233 565.758 429.304 568.563 431.371" fill="#17282F"/>
<path d="M507.307 374.453L514.279 395.576L467.134 422.32L514.529 423.855L510.985 462.284L419.697 439.878C419.697 439.878 414.219 402.65 507.307 374.453L513.854 372.913C516.228 372.355 518.175 370.667 519.065 368.397C519.766 366.605 521.094 365.13 522.797 364.24L530.573 360.183L530.52 366.351L526.244 371.376L526.928 383.3C527.292 388.572 523.787 393.332 518.643 394.546L514.279 395.576" fill="#F8AC97"/>
<path d="M610.562 450.781C612.427 450.781 629.837 455.006 639.786 467.687C649.735 480.368 664.154 527.908 664.154 527.908L627.468 534.249L611.648 573.999C611.648 573.999 517.985 561.724 522.958 556.793C527.934 551.86 538.166 544.252 538.166 544.252L516.57 472.448L490.648 458.479L499.366 422.601L551.489 429.646L610.562 450.781Z" fill="#FAFAF9"/>
<path d="M521.001 489.005C521.001 489.316 550.205 489.568 586.219 489.568C622.248 489.568 651.446 489.316 651.446 489.005C651.446 488.695 622.248 488.445 586.219 488.445C550.205 488.445 521.001 488.695 521.001 489.005Z" fill="#FFB800"/>
<path d="M526.846 510.114C526.846 510.422 556.05 510.676 592.065 510.676C628.094 510.676 657.29 510.422 657.29 510.114C657.29 509.803 628.094 509.551 592.065 509.551C556.05 509.551 526.846 509.803 526.846 510.114Z" fill="#FFB800"/>
<path d="M526.846 532.91C526.846 533.22 548.963 533.47 576.243 533.47C603.532 533.47 625.647 533.22 625.647 532.91C625.647 532.599 603.532 532.347 576.243 532.347C548.963 532.347 526.846 532.599 526.846 532.91Z" fill="#FFB800"/>
<path d="M519.263 554.861C519.263 555.172 541.383 555.422 568.664 555.422C595.952 555.422 618.067 555.172 618.067 554.861C618.067 554.551 595.952 554.301 568.664 554.301C541.383 554.301 519.263 554.551 519.263 554.861Z" fill="#FFB800"/>
<path d="M495.878 460.62C495.878 460.931 510.491 461.183 528.51 461.183C546.535 461.183 561.144 460.931 561.144 460.62C561.144 460.31 546.535 460.06 528.51 460.06C510.491 460.06 495.878 460.31 495.878 460.62Z" fill="#FFB800"/>
<path d="M493.507 438.237C493.501 438.548 508.053 439.138 526.01 439.559C543.97 439.979 558.534 440.067 558.54 439.757C558.549 439.449 543.998 438.856 526.035 438.435C508.081 438.015 493.514 437.927 493.507 438.237Z" fill="#FFB800"/>
<path d="M619.857 499.966C619.555 500.035 621.124 507.932 623.361 517.601C625.598 527.272 627.656 535.055 627.958 534.984C628.259 534.915 626.691 527.02 624.455 517.346C622.218 507.677 620.16 499.894 619.857 499.966Z" fill="#17282F"/>
<path d="M517.892 769.141L545.195 855.235L512.283 858.538L481.369 783.746L517.892 769.141Z" fill="#F8AC97"/>
<path d="M493.811 825.046L509.488 863.919C509.488 863.919 475.242 892.91 477.441 900.375L553.904 872.687L531.961 811.115L493.811 825.046Z" fill="#33535F"/>
<path d="M531.933 852.043C533.559 851.913 535.184 853.206 535.383 854.826C535.581 856.444 534.279 858.109 532.656 858.269C531.032 858.428 529.034 856.936 529.019 855.304C529.003 853.672 530.638 851.803 532.252 852.036" fill="#DADBD8"/>
<path d="M553.904 872.687L551.451 866.566L479.056 895.404C479.056 895.404 476.188 898.118 477.441 900.375L553.904 872.687Z" fill="#DADBD8"/>
<path d="M508.109 863.979C508.257 864.348 510.185 863.842 512.457 864.376C514.742 864.853 516.275 866.129 516.566 865.855C516.883 865.659 515.519 863.626 512.755 863.027C510.002 862.403 507.904 863.667 508.109 863.979Z" fill="#17282F"/>
<path d="M501.292 870.201C501.337 870.594 503.185 870.642 505.024 871.764C506.895 872.829 507.835 874.42 508.199 874.269C508.572 874.202 508.038 871.919 505.724 870.572C503.422 869.202 501.169 869.841 501.292 870.201Z" fill="#17282F"/>
<path d="M500.211 881.449C500.58 881.407 500.423 879.351 498.724 877.655C497.036 875.944 494.983 875.774 494.938 876.143C494.839 876.529 496.369 877.214 497.745 878.629C499.148 880.011 499.828 881.548 500.211 881.449Z" fill="#17282F"/>
<path d="M505.519 854.723C505.797 855.006 507.326 853.872 509.488 853.251C511.637 852.585 513.535 852.699 513.614 852.307C513.733 851.959 511.629 851.158 509.091 851.927C506.552 852.673 505.23 854.498 505.519 854.723Z" fill="#17282F"/>
<path d="M502.501 846.825C502.553 846.98 504.111 846.673 506.323 845.417C507.423 844.787 508.667 843.904 509.883 842.735C510.491 842.151 511.092 841.495 511.661 840.771C511.931 840.417 512.265 840.038 512.491 839.454C512.763 838.915 512.64 837.839 511.944 837.403C511.338 836.957 510.553 836.955 509.997 837.143C509.428 837.328 509.012 837.609 508.632 837.86C507.856 838.378 507.16 838.947 506.547 839.542C505.327 840.732 504.445 842.004 503.857 843.138C502.678 845.421 502.576 847.035 502.731 847.062C502.945 847.124 503.385 845.643 504.7 843.632C505.353 842.631 506.252 841.519 507.416 840.471C508.003 839.951 508.654 839.451 509.37 838.999C510.103 838.49 510.79 838.236 511.129 838.52C511.254 838.633 511.282 838.681 511.2 838.981C511.103 839.264 510.853 839.596 510.588 839.945C510.07 840.631 509.529 841.26 508.981 841.834C507.888 842.979 506.778 843.893 505.795 844.593C503.825 845.999 502.421 846.624 502.501 846.825Z" fill="#17282F"/>
<path d="M503.182 847.183C503.333 847.191 503.59 845.585 502.852 843.118C502.482 841.894 501.831 840.486 500.811 839.112C500.298 838.431 499.692 837.761 498.993 837.142C498.271 836.549 497.359 835.734 495.85 836.094C495.085 836.338 494.669 837.158 494.638 837.741C494.572 838.349 494.684 838.811 494.753 839.285C494.936 840.231 495.27 841.101 495.684 841.868C496.514 843.407 497.672 844.52 498.752 845.229C500.964 846.669 502.684 846.553 502.669 846.414C502.727 846.184 501.164 845.932 499.33 844.442C498.426 843.707 497.478 842.653 496.816 841.283C496.486 840.602 496.223 839.846 496.087 839.044C495.91 838.19 495.977 837.422 496.314 837.394C496.691 837.252 497.56 837.629 498.107 838.164C498.748 838.71 499.315 839.296 499.806 839.897C500.787 841.105 501.475 842.353 501.932 843.45C502.85 845.658 502.958 847.197 503.182 847.183Z" fill="#17282F"/>
<path d="M414.305 688.098L373.561 758.916L340.233 737.533L381.148 665.64L414.305 688.098Z" fill="#F8AC97"/>
<path d="M351.73 717.298L330.684 753.55C330.684 753.55 286.77 744.331 282.23 750.65L351.049 793.981L386.157 738.849L351.73 717.298Z" fill="#33535F"/>
<path d="M353.843 763.965C354.945 765.171 354.921 767.244 353.765 768.398C352.61 769.549 350.497 769.542 349.372 768.359C348.248 767.177 348.199 764.683 349.477 763.667C350.756 762.654 353.235 762.794 354.044 764.213" fill="#DADBD8"/>
<path d="M351.047 793.981L354.369 788.286L287.144 748.871C287.144 748.871 283.242 748.276 282.231 750.65L351.047 793.981Z" fill="#DADBD8"/>
<path d="M329.788 752.497C329.59 752.84 331.174 754.049 332.146 756.17C333.177 758.266 333.11 760.258 333.505 760.32C333.854 760.45 334.619 758.126 333.395 755.578C332.196 753.021 329.911 752.143 329.788 752.497Z" fill="#17282F"/>
<path d="M320.691 750.937C320.409 751.215 321.504 752.701 321.752 754.842C322.06 756.976 321.381 758.694 321.724 758.888C322.006 759.143 323.479 757.319 323.121 754.662C322.787 752.006 320.898 750.62 320.691 750.937Z" fill="#17282F"/>
<path d="M311.151 756.995C311.412 757.26 312.936 755.874 313.234 753.492C313.544 751.108 312.419 749.385 312.1 749.575C311.736 749.731 312.135 751.362 311.861 753.315C311.634 755.274 310.839 756.752 311.151 756.995Z" fill="#17282F"/>
<path d="M335.503 744.769C335.449 745.161 337.283 745.67 339.103 746.996C340.946 748.283 342.024 749.85 342.38 749.673C342.727 749.55 342.067 747.399 339.905 745.868C337.753 744.325 335.503 744.401 335.503 744.769Z" fill="#17282F"/>
<path d="M339.881 737.531C339.791 737.669 340.989 738.713 343.339 739.685C344.512 740.168 345.974 740.606 347.645 740.848C348.479 740.968 349.363 741.039 350.283 741.044C350.73 741.039 351.236 741.072 351.836 740.888C352.429 740.772 353.2 740.016 353.116 739.198C353.095 738.447 352.616 737.827 352.127 737.503C351.629 737.165 351.154 737.01 350.721 736.868C349.837 736.57 348.96 736.372 348.115 736.253C346.424 736.022 344.879 736.106 343.624 736.337C341.097 736.811 339.76 737.723 339.834 737.861C339.918 738.066 341.358 737.503 343.749 737.307C344.943 737.21 346.373 737.234 347.914 737.51C348.684 737.654 349.479 737.861 350.277 738.146C351.126 738.413 351.749 738.799 351.732 739.241C351.724 739.408 351.702 739.463 351.415 739.579C351.133 739.677 350.717 739.683 350.277 739.69C349.417 739.702 348.589 739.662 347.8 739.584C346.224 739.424 344.82 739.108 343.665 738.762C341.347 738.073 339.991 737.346 339.881 737.531Z" fill="#17282F"/>
<path d="M340.017 738.289C340.103 738.415 341.528 737.632 343.02 735.532C343.759 734.488 344.471 733.109 344.928 731.464C345.15 730.641 345.31 729.75 345.368 728.817C345.392 727.885 345.473 726.662 344.264 725.695C343.6 725.24 342.699 725.414 342.22 725.749C341.698 726.072 341.401 726.443 341.071 726.79C340.437 727.515 339.957 728.312 339.605 729.11C338.9 730.71 338.734 732.305 338.838 733.596C339.06 736.227 340.209 737.509 340.308 737.414C340.526 737.317 339.762 735.931 339.814 733.568C339.838 732.404 340.088 731.007 340.763 729.644C341.095 728.966 341.532 728.295 342.08 727.693C342.647 727.027 343.294 726.611 343.52 726.859C343.865 727.068 344.1 727.985 344.014 728.745C343.979 729.586 343.863 730.395 343.693 731.151C343.341 732.667 342.779 733.977 342.194 735.011C341.017 737.091 339.866 738.123 340.017 738.289Z" fill="#17282F"/>
<path d="M535.583 678.112L455.575 623.703L405.106 721.95L359.213 697.116C359.213 697.116 412.065 568.251 431.037 564.09C441.665 561.758 563.552 585.039 563.552 585.039L577.17 578.192L611.648 573.999L613.851 579.574C626.031 610.403 624.641 644.945 610.02 674.697L608.344 678.112H535.583Z" fill="#17282F"/>
<path d="M563.675 610.064C563.08 612.763 496.939 674.698 496.939 674.698L535.102 802.943L478.146 813.84L420.952 659.343L525.491 556.793L573.232 576.888L563.675 610.064Z" fill="#17282F"/>
<path d="M455.575 623.704C455.401 623.961 473.172 636.351 495.261 651.371C517.359 666.397 535.409 678.369 535.583 678.113C535.758 677.856 517.991 665.468 495.893 650.444C473.804 635.421 455.75 623.448 455.575 623.704Z" fill="#33535F"/>
<path d="M414.505 703.651C414.572 703.69 415.258 702.633 416.437 700.684C417.629 698.746 419.27 695.89 421.273 692.345C425.253 685.246 430.558 675.333 436.172 664.262C441.797 653.19 446.721 643.083 450.196 635.727C451.936 632.049 453.318 629.061 454.243 626.983C455.17 624.904 455.644 623.738 455.575 623.703C455.504 623.671 454.898 624.773 453.849 626.793C452.73 628.992 451.261 631.885 449.483 635.378C445.738 642.807 440.719 652.754 435.172 663.754C429.56 674.816 424.373 684.776 420.576 691.966C418.738 695.426 417.215 698.291 416.056 700.471C414.995 702.48 414.439 703.614 414.505 703.651Z" fill="#33535F"/>
<path d="M484.978 651.8C484.702 651.944 487.444 658.097 491.099 665.543C494.755 672.99 497.946 678.921 498.228 678.789C498.511 678.662 495.771 672.509 492.106 665.048C488.445 657.586 485.252 651.655 484.978 651.8Z" fill="#33535F"/>
<path d="M664.154 527.908L677.008 575.685C678.671 581.864 677.906 588.448 674.871 594.082C669.515 604.029 658.162 609.162 647.155 606.618L544.643 581.364L555.36 560.074L636.118 567.077L627.468 534.249L664.154 527.908Z" fill="#F8AC97"/>
<path d="M618.681 600.429L617.343 593.487L561.793 583.505L545.649 497.851L442.463 485.56L459.803 576.994L618.681 600.429Z" fill="#33535F"/>
<path d="M499.317 543.972C502.021 543.45 503.726 540.501 503.124 537.379C502.523 534.262 499.843 532.153 497.14 532.677C494.434 533.199 492.731 536.148 493.332 539.268C493.932 542.387 496.614 544.494 499.317 543.972Z" fill="#E7E8E5"/>
<path d="M603.583 354.793L603.389 360.987L601.067 453.708C600.797 464.471 591.328 472.812 579.803 472.434C568.166 472.055 558.815 462.933 558.908 452.057C559.007 440.639 558.9 428.618 558.9 428.618C558.9 428.618 544.22 426.003 541.396 406.779C539.992 397.217 540.652 381.576 541.607 368.796C542.467 357.292 552.721 348.815 564.179 350.162L603.583 354.793Z" fill="#F8AC97"/>
<path d="M549.042 379.487C548.982 380.785 550.03 381.909 551.386 381.997C552.74 382.085 553.889 381.107 553.949 379.807C554.01 378.509 552.96 377.383 551.608 377.295C550.252 377.206 549.103 378.187 549.042 379.487Z" fill="#17282F"/>
<path d="M544.907 376.973C545.209 377.299 547.089 375.941 549.737 375.98C552.382 375.98 554.312 377.364 554.603 377.042C554.745 376.9 554.441 376.318 553.602 375.691C552.774 375.068 551.362 374.455 549.713 374.442C548.062 374.432 546.667 375.025 545.863 375.637C545.041 376.251 544.759 376.829 544.907 376.973Z" fill="#17282F"/>
<path d="M575.183 380.441C575.121 381.738 576.172 382.862 577.527 382.95C578.88 383.038 580.029 382.062 580.09 380.762C580.151 379.462 579.102 378.339 577.749 378.25C576.393 378.162 575.244 379.141 575.183 380.441Z" fill="#17282F"/>
<path d="M570.934 377.771C571.236 378.097 573.118 376.738 575.764 376.775C578.41 376.775 580.338 378.161 580.63 377.838C580.771 377.698 580.471 377.113 579.629 376.488C578.802 375.865 577.388 375.253 575.739 375.24C574.09 375.229 572.695 375.82 571.889 376.434C571.07 377.049 570.785 377.627 570.934 377.771Z" fill="#17282F"/>
<path d="M561.094 397.299C561.107 397.148 559.464 396.846 556.802 396.473C556.127 396.396 555.487 396.254 555.379 395.792C555.226 395.301 555.517 394.574 555.853 393.792C556.509 392.162 557.194 390.454 557.914 388.665C560.775 381.367 562.855 375.361 562.562 375.249C562.267 375.134 559.706 380.962 556.845 388.26C556.155 390.06 555.495 391.776 554.868 393.419C554.605 394.184 554.154 395.051 554.486 396.068C554.663 396.575 555.155 396.948 555.588 397.071C556.019 397.207 556.401 397.219 556.733 397.243C559.417 397.418 561.081 397.45 561.094 397.299Z" fill="#17282F"/>
<path d="M558.9 428.618C558.9 428.618 571.801 429.599 584.68 422.06C584.68 422.06 578.292 435.17 559.107 433.152L558.9 428.618Z" fill="#B85549"/>
<path d="M569.869 373.41C570.162 374.117 572.788 373.653 575.909 373.884C579.036 374.054 581.58 374.846 581.962 374.182C582.132 373.865 581.664 373.207 580.62 372.558C579.585 371.909 577.954 371.323 576.081 371.202C574.208 371.084 572.516 371.459 571.408 371.972C570.287 372.483 569.741 373.074 569.869 373.41Z" fill="#17282F"/>
<path d="M546.016 367.785C546.475 368.393 548.305 367.789 550.5 367.785C552.693 367.705 554.547 368.238 554.982 367.613C555.172 367.311 554.887 366.703 554.081 366.125C553.29 365.547 551.958 365.068 550.448 365.097C548.941 365.127 547.626 365.657 546.857 366.265C546.076 366.873 545.813 367.49 546.016 367.785Z" fill="#17282F"/>
<path d="M561.386 406.891C562.134 407.113 562.938 406.846 563.69 406.654C564.445 406.432 565.154 406.238 565.751 406.04C566.351 405.843 567.036 405.574 567.771 405.302C568.491 405.007 569.296 404.742 569.761 404.114C570.218 403.517 570.126 402.478 569.091 401.557C568.101 400.65 566.105 400.014 563.986 400.712C561.871 401.417 560.648 403.12 560.396 404.438C560.116 405.796 560.661 406.682 561.386 406.891Z" fill="#B85549"/>
<path d="M561.02 406.658C561.277 406.837 562.564 404.194 565.66 403.396C568.76 402.609 571.16 404.308 571.298 404.03C571.388 403.924 570.946 403.327 569.898 402.786C568.872 402.247 567.176 401.855 565.384 402.309C563.592 402.771 562.292 403.928 561.652 404.894C560.99 405.871 560.891 406.608 561.02 406.658Z" fill="#17282F"/>
<path d="M581.387 342.287C575.25 351.426 576.807 364.933 584.863 372.435C589.452 376.706 596.28 380.039 596.745 386.291C597.262 393.218 589.242 398.397 589.23 405.341C589.218 412.481 597.455 417.03 599.057 423.987C600.347 429.586 597 435.205 593.121 439.445C589.242 443.682 584.577 447.446 582.25 452.702C579.681 458.493 580.408 465.342 582.904 471.167C585.4 476.993 589.505 481.968 593.741 486.681C599.465 484.622 605.45 483.29 611.506 482.727C611.126 480.438 610.746 478.148 610.367 475.856C610.235 478.523 612.469 480.849 615.002 481.684C617.534 482.522 620.29 482.199 622.926 481.783C631.002 480.513 638.957 478.467 646.646 475.686C643.364 472.398 640.022 469.029 637.979 464.857C635.935 460.683 635.386 455.49 637.74 451.484C639.632 448.263 643.126 446.191 644.868 442.888C647.483 437.932 645.33 431.632 641.615 427.437C637.901 423.246 632.873 420.488 628.456 417.041C624.041 413.592 619.983 408.928 619.627 403.338C619.166 396.084 625.034 389.474 624.315 382.238C623.498 374.001 614.783 368.964 611.363 361.425C608.888 355.969 609.221 349.238 605.422 344.605C602.609 341.175 597.936 339.629 593.505 339.86C589.076 340.093 584.861 341.906 581.081 344.228" fill="#17282F"/>
<path d="M557.296 430.679C560.762 432.594 560.562 437.856 558.451 441.206C556.338 444.557 552.945 446.945 550.86 450.313C547.141 456.317 548.748 465.033 554.366 469.315L546.085 472.448L544.278 471.428L539.195 468.55L541.579 474.422L536.28 474.42C530.705 474.487 525.22 471.197 522.652 466.245C520.087 461.295 520.561 454.916 523.827 450.399C526.009 447.381 529.396 444.979 530.129 441.329C531.015 436.929 527.693 432.936 526.063 428.754C523.342 421.767 525.83 413.106 531.847 408.633" fill="#17282F"/>
<path d="M254.818 132.931L254.402 132L253.841 132.851C253.395 133.535 252.761 134.076 252.013 134.408L251.082 134.826L251.935 135.385C252.619 135.831 253.158 136.465 253.494 137.213L253.91 138.142L254.468 137.291C254.917 136.607 255.551 136.066 256.295 135.732L257.226 135.316L256.374 134.757C255.691 134.309 255.15 133.675 254.818 132.931Z" fill="#FFB800"/>
<path d="M203.024 822.51C203.007 822.497 203.13 822.199 203.39 821.626C203.684 821.003 204.076 820.166 204.576 819.102C205.583 816.87 206.889 813.491 208.056 808.993C210.36 800.004 211.162 786.269 207.76 769.951C206.178 761.783 203.632 753.021 200.519 743.731C197.453 734.424 193.894 724.55 190.985 713.874C188.111 703.228 185.844 691.668 186.281 679.552C186.721 667.408 190.315 655.289 194.269 643.225C198.214 631.143 202.295 619.331 203.518 607.452C204.9 595.592 202.362 583.953 196.957 574.415C191.725 564.774 185.141 556.529 180.214 547.988C175.213 539.476 172.082 530.721 170.153 522.585C166.414 506.172 167.723 492.342 169.515 483.227C171.457 474.064 173.622 469.327 173.622 469.327C173.641 469.336 173.559 469.649 173.378 470.252C173.173 470.91 172.897 471.792 172.548 472.917C171.824 475.258 170.886 478.755 169.995 483.319C168.357 492.415 167.201 506.15 171.015 522.38C172.984 530.432 176.127 539.069 181.111 547.464C186.029 555.902 192.639 564.112 197.975 573.865C203.49 583.511 206.143 595.53 204.738 607.575C203.509 619.654 199.398 631.546 195.463 643.615C191.509 655.664 187.956 667.66 187.508 679.597C187.059 691.528 189.271 702.978 192.102 713.574C194.961 724.197 198.479 734.072 201.506 743.405C204.58 752.724 207.096 761.559 208.629 769.783C211.943 786.219 210.999 800.095 208.53 809.113C207.282 813.628 205.891 817 204.807 819.207C204.257 820.253 203.828 821.074 203.505 821.686C203.205 822.24 203.043 822.521 203.024 822.51Z" fill="#17282F"/>
<path d="M186.907 556.414C186.907 556.414 176.904 524.424 194.85 505.692C195.479 505.034 196.589 505.347 196.751 506.242C197.71 511.524 198.907 527.617 186.907 556.414Z" fill="#FFB800"/>
<path d="M192.9 516.351C193.07 516.385 192.783 518.636 192.227 522.256C191.569 526.32 190.798 531.091 189.944 536.364C189.107 541.637 188.351 546.408 187.706 550.475C187.156 554.086 186.829 556.326 186.645 556.313C186.484 556.302 186.499 554.023 186.824 550.367C187.156 546.71 187.801 541.683 188.709 536.164C189.61 530.642 190.573 525.673 191.354 522.092C192.136 518.511 192.731 516.319 192.9 516.351Z" fill="#17282F"/>
<path d="M198.658 631.864C198.658 631.864 204.777 598.909 229.399 590.744C230.264 590.458 231.098 591.253 230.822 592.122C229.199 597.238 222.731 612.021 198.658 631.864Z" fill="#FFB800"/>
<path d="M222.69 599.256C222.826 599.366 221.522 601.222 219.338 604.158C216.852 607.444 213.939 611.301 210.721 615.563C207.513 619.832 204.615 623.695 202.142 626.987C199.967 629.924 198.63 631.752 198.475 631.653C198.339 631.566 199.417 629.561 201.414 626.481C203.417 623.406 206.34 619.263 209.72 614.806C213.099 610.35 216.276 606.407 218.644 603.609C221.007 600.808 222.559 599.148 222.69 599.256Z" fill="#17282F"/>
<path d="M192.005 714.541C192.005 714.541 188.289 681.228 209.479 666.266C210.221 665.74 211.251 666.257 211.24 667.167C211.174 672.537 209.279 688.56 192.005 714.541Z" fill="#FFB800"/>
<path d="M205.531 676.357C205.693 676.422 204.984 678.575 203.744 682.021C202.323 685.888 200.655 690.426 198.811 695.436C196.985 700.453 195.33 704.991 193.922 708.859C192.695 712.302 191.945 714.439 191.768 714.389C191.611 714.346 192.061 712.115 193.079 708.586C194.101 705.063 195.694 700.248 197.634 695.004C199.575 689.758 201.47 685.063 202.921 681.697C204.369 678.33 205.372 676.292 205.531 676.357Z" fill="#17282F"/>
<path d="M210.552 797.698C210.552 797.698 208.032 764.275 229.742 750.079C230.505 749.583 231.514 750.137 231.471 751.047C231.212 756.409 228.744 772.354 210.552 797.698Z" fill="#FFB800"/>
<path d="M225.439 760.026C225.594 760.095 224.81 762.223 223.449 765.621C221.89 769.434 220.06 773.908 218.038 778.851C216.035 783.8 214.218 788.277 212.672 792.093C211.322 795.489 210.497 797.598 210.32 797.541C210.167 797.494 210.697 795.277 211.837 791.789C212.987 788.303 214.75 783.55 216.88 778.376C219.006 773.203 221.067 768.581 222.636 765.267C224.208 761.956 225.282 759.955 225.439 760.026Z" fill="#17282F"/>
<path d="M172.531 528.307C172.531 528.307 142.82 512.791 142.236 486.857C142.215 485.947 143.219 485.38 143.97 485.898C148.385 488.951 160.62 499.471 172.531 528.307Z" fill="#FFB800"/>
<path d="M148.404 495.768C148.55 495.671 149.939 497.463 152.105 500.412C154.52 503.75 157.353 507.667 160.483 511.994C163.624 516.312 166.466 520.218 168.887 523.545C171.058 526.488 172.412 528.301 172.274 528.42C172.149 528.527 170.551 526.906 168.191 524.093C165.836 521.279 162.732 517.269 159.466 512.729C156.197 508.191 153.358 503.997 151.377 500.914C149.393 497.834 148.261 495.863 148.404 495.768Z" fill="#17282F"/>
<path d="M204.434 597.009C204.434 597.009 173.835 583.327 171.677 557.478C171.604 556.57 172.57 555.945 173.35 556.415C177.944 559.194 190.796 568.952 204.434 597.009Z" fill="#FFB800"/>
<path d="M178.378 565.995C178.516 565.889 180.014 567.594 182.356 570.408C184.966 573.59 188.032 577.33 191.419 581.459C194.817 585.579 197.891 589.304 200.508 592.48C202.854 595.283 204.316 597.009 204.184 597.139C204.068 597.253 202.373 595.733 199.846 593.066C197.326 590.399 193.985 586.588 190.447 582.254C186.909 577.923 183.822 573.911 181.657 570.953C179.49 567.995 178.24 566.1 178.378 565.995Z" fill="#17282F"/>
<path d="M186.829 673.643C186.829 673.643 165.82 647.527 175.672 623.531C176.019 622.691 177.164 622.574 177.645 623.348C180.469 627.914 187.467 642.454 186.829 673.643Z" fill="#FFB800"/>
<path d="M177.757 634.166C177.929 634.134 178.485 636.335 179.289 639.905C180.163 643.928 181.189 648.654 182.323 653.871C183.472 659.086 184.511 663.805 185.399 667.824C186.21 671.388 186.723 673.591 186.546 673.645C186.393 673.694 185.576 671.569 184.539 668.046C183.511 664.523 182.271 659.608 181.098 654.138C179.921 648.669 178.998 643.693 178.416 640.073C177.836 636.453 177.588 634.196 177.757 634.166Z" fill="#17282F"/>
<path d="M207.637 763.828C207.637 763.828 177.273 749.633 175.551 723.751C175.49 722.842 176.469 722.234 177.239 722.716C181.786 725.573 194.473 735.544 207.637 763.828Z" fill="#FFB800"/>
<path d="M182.105 732.376C182.247 732.275 183.713 734.004 186.009 736.857C188.566 740.086 191.57 743.874 194.885 748.06C198.214 752.235 201.224 756.012 203.791 759.233C206.087 762.072 207.519 763.825 207.387 763.952C207.269 764.064 205.6 762.514 203.117 759.808C200.644 757.098 197.365 753.229 193.902 748.837C190.438 744.448 187.417 740.383 185.302 737.391C183.185 734.399 181.967 732.48 182.105 732.376Z" fill="#17282F"/>
<path d="M268.119 632.043C268.147 632.045 268.158 632.297 268.156 632.782C268.143 633.367 268.126 634.072 268.104 634.925C268.013 636.939 267.893 639.66 267.744 643.053C267.352 650.198 266.806 660.16 266.155 672.078L266.153 672.104L266.146 672.145C263.978 684.274 257.801 697.716 249.503 710.77C243.417 720.386 237.037 729.125 231.536 737.256C225.997 745.361 221.323 752.871 218.063 759.524C214.784 766.168 212.876 771.877 211.759 775.866C211.227 777.868 210.826 779.431 210.593 780.498C210.345 781.564 210.194 782.12 210.151 782.113C210.108 782.104 210.177 781.533 210.347 780.449C210.498 779.361 210.824 777.777 211.287 775.744C212.264 771.696 214.06 765.888 217.266 759.14C220.448 752.379 225.081 744.771 230.578 736.609C236.041 728.422 242.388 719.667 248.442 710.102C256.697 697.115 262.841 683.875 265.088 671.94L265.081 672.011C265.916 660.104 266.616 650.152 267.119 643.012C267.393 639.627 267.61 636.913 267.774 634.906C267.86 634.054 267.929 633.354 267.988 632.772C268.048 632.291 268.089 632.043 268.119 632.043Z" fill="#17282F"/>
<path d="M250.038 708.275C250.038 708.275 262.898 677.321 246.722 657.043C246.153 656.331 245.021 656.54 244.779 657.418C243.346 662.592 240.696 678.509 250.038 708.275Z" fill="#FFB800"/>
<path d="M247.697 667.835C247.869 667.816 248.264 670.054 248.717 673.693C249.171 677.328 249.68 682.364 250.081 687.944C250.482 693.523 250.67 698.589 250.668 702.261C250.661 705.932 250.472 708.201 250.308 708.198C250.124 708.196 249.999 705.935 249.782 702.289C249.508 698.18 249.187 693.359 248.829 688.032C248.458 682.703 248.119 677.882 247.835 673.775C247.606 670.121 247.524 667.855 247.697 667.835Z" fill="#17282F"/>
<path d="M250.038 708.275C250.038 708.275 250.094 708.14 250.195 707.881C250.066 707.142 249.952 705.138 249.781 702.289C249.507 698.18 249.186 693.358 248.828 688.032C248.458 682.702 248.119 677.882 247.834 673.775C247.606 670.12 247.524 667.855 247.696 667.835H247.699C247.873 667.835 248.266 670.069 248.716 673.693C249.171 677.328 249.68 682.364 250.081 687.943C250.482 693.523 250.669 698.589 250.667 702.261C250.663 704.365 250.6 706.008 250.516 707.025C251.739 703.666 254.889 693.937 254.884 682.886C254.88 674.277 252.961 664.866 246.722 657.043C246.489 656.752 246.161 656.614 245.84 656.614C245.375 656.614 244.922 656.9 244.78 657.418C244.156 659.666 243.305 663.944 243.305 670.506C243.307 679.042 244.756 691.444 250.038 708.275Z" fill="#B98708"/>
<path d="M250.196 707.882C250.275 707.675 250.385 707.387 250.517 707.025C250.601 706.008 250.663 704.365 250.668 702.261C250.67 698.59 250.482 693.523 250.081 687.944C249.68 682.364 249.171 677.328 248.717 673.693C248.266 670.069 247.874 667.836 247.699 667.836H247.697C247.524 667.855 247.606 670.121 247.835 673.775C248.119 677.882 248.458 682.703 248.829 688.032C249.187 693.359 249.508 698.18 249.782 702.289C249.952 705.139 250.066 707.142 250.196 707.882Z" fill="#0F191D"/>
<path d="M210.207 782.868C210.207 782.868 220.517 750.973 202.748 732.072C202.125 731.409 201.012 731.709 200.842 732.603C199.833 737.876 198.483 753.955 210.207 782.868Z" fill="#FFB800"/>
<path d="M204.596 742.751C204.766 742.716 205.339 744.915 206.085 748.505C206.836 752.093 207.752 757.072 208.601 762.598C209.455 768.128 210.052 773.162 210.348 776.821C210.639 780.479 210.634 782.758 210.473 782.769C210.289 782.78 209.981 780.535 209.468 776.92C208.86 772.848 208.149 768.07 207.362 762.788C206.56 757.508 205.831 752.729 205.212 748.658C204.691 745.036 204.425 742.784 204.596 742.751Z" fill="#17282F"/>
<path d="M210.207 782.868C210.207 782.868 210.253 782.728 210.332 782.461C210.145 781.731 209.869 779.744 209.468 776.92C208.86 772.848 208.148 768.07 207.361 762.788C206.559 757.508 205.831 752.729 205.212 748.658C204.69 745.036 204.425 742.784 204.595 742.751C204.598 742.751 204.598 742.751 204.6 742.751C204.774 742.751 205.343 744.944 206.085 748.505C206.835 752.093 207.752 757.072 208.601 762.598C209.455 768.128 210.052 773.162 210.347 776.821C210.513 778.919 210.584 780.563 210.582 781.585C211.38 778.677 213.182 771.129 213.182 762.219C213.182 752.353 210.973 740.821 202.748 732.072C202.517 731.827 202.22 731.713 201.926 731.713C201.428 731.713 200.95 732.04 200.842 732.603C200.538 734.189 200.204 736.753 200.204 740.349C200.204 748.71 202.01 762.652 210.207 782.868Z" fill="#B98708"/>
<path d="M210.332 782.461C210.395 782.249 210.481 781.954 210.582 781.585C210.585 780.564 210.513 778.919 210.347 776.821C210.052 773.163 209.455 768.128 208.601 762.598C207.752 757.073 206.835 752.093 206.085 748.505C205.344 744.944 204.774 742.751 204.6 742.751C204.598 742.751 204.598 742.751 204.596 742.751C204.425 742.784 204.69 745.037 205.212 748.659C205.831 752.729 206.56 757.508 207.362 762.788C208.148 768.07 208.86 772.848 209.468 776.92C209.869 779.744 210.145 781.732 210.332 782.461Z" fill="#0F191D"/>
<path d="M266.416 670.446C266.416 670.446 293.874 651.224 291.103 625.433C291.006 624.527 289.939 624.096 289.262 624.706C285.278 628.304 274.503 640.315 266.416 670.446Z" fill="#FFB800"/>
<path d="M266.416 670.446C266.416 670.446 283.667 658.371 289.441 640.518C289.463 640.455 289.482 640.39 289.501 640.328C290.629 636.79 291.301 633.028 291.299 629.089C291.299 627.886 291.235 626.668 291.103 625.433C291.036 624.818 290.523 624.422 289.991 624.422C289.736 624.422 289.48 624.51 289.262 624.706C285.278 628.304 274.503 640.315 266.416 670.446Z" fill="#B98708"/>
<path d="M286.137 635.063C286.29 635.141 285.423 637.241 283.856 640.552C282.288 643.866 280.014 648.391 277.36 653.311C274.704 658.235 272.145 662.611 270.174 665.707C268.2 668.801 266.82 670.614 266.686 670.526C266.531 670.424 267.639 668.45 269.411 665.255C271.384 661.641 273.699 657.401 276.256 652.714C278.8 648.02 281.103 643.769 283.065 640.147C284.835 636.943 285.981 634.986 286.137 635.063Z" fill="#17282F"/>
<path d="M221.28 751.246C221.28 751.246 254.399 746.084 263.271 721.707C263.581 720.853 262.814 719.993 261.938 720.245C256.775 721.72 241.811 727.756 221.28 751.246Z" fill="#FFB800"/>
<path d="M221.28 751.246C221.28 751.246 221.323 751.239 221.407 751.225C221.614 751.192 222.065 751.112 222.718 750.978C229.173 749.656 255.505 743.04 263.271 721.707C263.318 721.576 263.34 721.444 263.342 721.315C263.342 720.713 262.852 720.201 262.247 720.201C262.147 720.201 262.042 720.215 261.938 720.245C256.775 721.72 241.811 727.756 221.28 751.246Z" fill="#B98708"/>
<path d="M254.57 728.163C254.673 728.304 252.97 729.804 250.102 732.089C247.237 734.373 243.204 737.432 238.652 740.681C234.099 743.934 229.876 746.737 226.741 748.647C223.604 750.555 221.571 751.577 221.487 751.435C221.394 751.277 223.257 749.992 226.258 747.908C229.617 745.529 233.562 742.742 237.924 739.661C242.277 736.567 246.218 733.765 249.572 731.378C252.573 729.28 254.464 728.028 254.57 728.163Z" fill="#17282F"/>
<path d="M182.094 812.194L191.593 874.504L229.531 874.44L242.311 812.194H182.094Z" fill="#33535F"/>
<path d="M216.718 832.197C215.748 830.724 215.069 828.941 214.961 826.986C214.819 825.078 215.567 822.761 217.535 821.629C219.495 820.497 222.026 820.906 223.891 822.153C225.84 823.418 226.98 825.634 227.526 827.874C228.071 830.151 228.132 832.52 227.996 834.914C227.843 837.306 227.401 839.765 226.458 842.11C225.54 844.454 224.061 846.672 222.06 848.381C220.071 850.084 217.516 851.305 214.761 851.432C212.001 851.555 209.369 850.602 207.165 849.229C204.951 847.836 203.071 846.076 201.5 844.106C199.947 842.136 198.777 839.779 198.63 837.261C198.512 834.788 199.383 832.214 201.323 830.66C203.291 829.06 206.081 829.176 208.047 830.25C210.069 831.27 211.572 833.206 211.923 835.327C212.654 839.604 210.16 843.459 207.129 845.193C204.022 846.965 200.648 847.016 197.97 846.516C195.25 845.988 193.102 844.917 191.442 843.962C189.784 842.989 188.588 842.099 187.79 841.489C186.995 840.87 186.598 840.519 186.617 840.491C186.641 840.46 187.081 840.758 187.913 841.318C188.747 841.872 189.974 842.703 191.641 843.608C193.307 844.497 195.442 845.488 198.072 845.943C200.667 846.376 203.89 846.253 206.754 844.559C209.539 842.935 211.781 839.285 211.078 835.496C210.753 833.633 209.429 831.962 207.631 831.065C205.867 830.129 203.535 830.082 201.92 831.412C200.297 832.712 199.501 834.997 199.624 837.209C199.76 839.439 200.825 841.616 202.302 843.477C203.796 845.341 205.624 847.042 207.711 848.349C209.796 849.645 212.225 850.504 214.711 850.392C217.19 850.279 219.536 849.175 221.388 847.594C223.251 846.006 224.635 843.951 225.512 841.728C226.411 839.512 226.847 837.16 227.004 834.849C227.146 832.535 227.09 830.225 226.592 828.101C226.096 825.996 225.061 824.013 223.382 822.914C221.741 821.797 219.553 821.465 217.964 822.379C216.343 823.291 215.664 825.199 215.763 826.954C215.841 828.728 216.449 830.416 217.333 831.796C219.2 834.542 221.912 836.233 224.406 837.095C226.924 837.981 229.281 838.091 231.148 837.899C234.923 837.471 236.701 836.082 236.753 836.233C236.762 836.25 236.654 836.325 236.434 836.466C236.212 836.593 235.893 836.817 235.438 837.035C234.53 837.479 233.114 838.035 231.195 838.3C229.285 838.561 226.851 838.511 224.219 837.647C221.61 836.798 218.755 835.109 216.718 832.197Z" fill="#17282F"/>
</g>
<defs>
<linearGradient id="paint0_linear_120_1248" x1="71.1391" y1="69.7461" x2="24.8173" y2="40.0876" gradientUnits="userSpaceOnUse">
<stop stop-color="#51ACFF"/>
<stop offset="1" stop-color="#0055D5"/>
</linearGradient>
<clipPath id="clip0_120_1248">
<path d="M0 48C0 21.4903 21.4903 0 48 0H800V900H48C21.4903 900 0 878.51 0 852V48Z" fill="white"/>
</clipPath>
</defs>
</svg>
