<svg width="90" height="90" viewBox="0 0 90 90" fill="none" xmlns="http://www.w3.org/2000/svg">
<mask id="mask0_2321_5189" style="mask-type:alpha" maskUnits="userSpaceOnUse" x="0" y="0" width="90" height="90">
<circle cx="45" cy="45" r="45" fill="#2477F4"/>
</mask>
<g mask="url(#mask0_2321_5189)">
<circle cx="45" cy="45" r="45" fill="#2477F4"/>
<path opacity="0.4" d="M45 28.25V68.3251C45.425 68.3251 45.875 68.25 46.225 68.05L46.3251 68.0001C51.1251 65.3751 59.4999 62.6251 64.9249 61.9001L65.65 61.8C68.05 61.5 70 59.25 70 56.85V26.65C70 23.675 67.5751 21.425 64.6001 21.675C59.3501 22.1 51.4001 24.7501 46.9501 27.5251L46.3251 27.9C45.9501 28.125 45.475 28.25 45 28.25Z" fill="white"/>
<path d="M20 26.6749V56.8499C20 59.2499 21.95 61.4999 24.35 61.7999L25.175 61.9C30.625 62.625 39.0251 65.3999 43.8251 68.0499C44.1501 68.2499 44.55 68.325 45 68.325V28.2499C44.525 28.2499 44.0499 28.1249 43.6749 27.8999L43.25 27.6249C38.8 24.8249 30.825 22.15 25.575 21.7H25.425C22.45 21.45 20 23.6749 20 26.6749Z" fill="white"/>
<path d="M62.5 21.9501V32.675C62.5 33.675 61.3999 34.275 60.5499 33.725L57.5 31.7L54.4501 33.725C53.6251 34.275 52.5 33.675 52.5 32.675V24.8C55.775 23.5 59.425 22.4501 62.5 21.9501Z" fill="white"/>
</g>
</svg>
