<svg width="90" height="90" viewBox="0 0 90 90" fill="none" xmlns="http://www.w3.org/2000/svg">
<mask id="mask0_2321_5173" style="mask-type:alpha" maskUnits="userSpaceOnUse" x="0" y="0" width="90" height="90">
<circle cx="45" cy="45" r="45" fill="#2477F4"/>
</mask>
<g mask="url(#mask0_2321_5173)">
<circle cx="45" cy="45" r="45" fill="#2477F4"/>
<path opacity="0.4" d="M50 27.5V40H47.5C43.375 40 40 43.375 40 47.5V50H27.5C23.35 50 20 46.65 20 42.5V27.5C20 23.35 23.35 20 27.5 20H42.5C46.65 20 50 23.35 50 27.5Z" fill="white"/>
<path d="M27.9998 31.5751C27.4248 31.5751 26.8248 31.3001 26.4748 30.7751C25.8748 29.9251 26.0748 28.7501 26.9248 28.1501C28.8748 26.7751 31.4998 26.7501 33.4748 28.1001C34.3248 28.6751 34.5498 29.8502 33.9748 30.7002C33.3998 31.5502 32.2248 31.775 31.3748 31.2C30.6998 30.75 29.7998 30.7501 29.1248 31.2251C28.7498 31.4751 28.3748 31.5751 27.9998 31.5751Z" fill="white"/>
<path d="M37.9998 31.5751C37.4248 31.5751 36.8248 31.3001 36.4748 30.7751C35.8748 29.9251 36.0748 28.7501 36.9248 28.1501C38.8748 26.7751 41.4998 26.7501 43.4748 28.1001C44.3248 28.6751 44.5498 29.8502 43.9748 30.7002C43.3998 31.5502 42.2248 31.775 41.3748 31.2C40.6998 30.75 39.7998 30.7501 39.1248 31.2251C38.7498 31.4751 38.3748 31.5751 37.9998 31.5751Z" fill="white"/>
<path d="M35.4 45.4249H29.6C27.825 45.4249 26.375 43.975 26.375 42.2C26.375 37.45 30.25 33.575 35 33.575C36.95 33.575 38.875 34.25 40.4 35.475C41.2 36.125 41.35 37.2999 40.7 38.0999C40.05 38.8999 38.875 39.0499 38.075 38.3999C37.2 37.6999 36.15 37.325 35.025 37.325C32.525 37.325 30.45 39.2249 30.175 41.6749H35.425C36.45 41.6749 37.3 42.5249 37.3 43.5499C37.3 44.5749 36.425 45.4249 35.4 45.4249Z" fill="white"/>
<path d="M60.5498 56.6999C60.3748 56.4999 60.1248 56.3999 59.8498 56.3999H50.1498C49.8748 56.3999 49.6248 56.4999 49.4498 56.6999C49.2748 56.8999 49.1748 57.1748 49.2248 57.4248C49.5498 60.3748 52.0248 62.6249 54.9998 62.6249C57.9748 62.6249 60.4498 60.3998 60.7748 57.4248C60.7998 57.1498 60.7248 56.8999 60.5498 56.6999Z" fill="white"/>
<path d="M62.5 40H47.5C43.375 40 40 43.375 40 47.5V62.5C40 66.625 43.375 70 47.5 70H62.5C66.625 70 70 66.625 70 62.5V47.5C70 43.375 66.625 40 62.5 40ZM46.475 47.925C47.075 47.075 48.25 46.875 49.1 47.475C49.775 47.95 50.675 47.95 51.35 47.5C52.2 46.9 53.375 47.125 53.95 48C54.525 48.85 54.325 50.025 53.45 50.6C52.475 51.25 51.35 51.6 50.225 51.6C49.05 51.6 47.9 51.2499 46.925 50.5499C46.075 49.9249 45.875 48.75 46.475 47.925ZM55 65.425C50.25 65.425 46.375 61.5499 46.375 56.7999C46.375 55.0249 47.825 53.575 49.6 53.575H60.4C62.175 53.575 63.625 55.0249 63.625 56.7999C63.625 61.5499 59.75 65.425 55 65.425ZM63.45 50.575C62.475 51.225 61.35 51.575 60.225 51.575C59.05 51.575 57.9 51.2251 56.925 50.5251C56.075 49.9251 55.875 48.7499 56.475 47.8999C57.075 47.0499 58.25 46.85 59.1 47.45C59.775 47.925 60.675 47.925 61.35 47.475C62.2 46.875 63.375 47.1 63.95 47.975C64.525 48.85 64.3 50 63.45 50.575Z" fill="white"/>
</g>
</svg>
