<svg width="90" height="90" viewBox="0 0 90 90" fill="none" xmlns="http://www.w3.org/2000/svg">
<mask id="mask0_2321_5150" style="mask-type:alpha" maskUnits="userSpaceOnUse" x="0" y="0" width="90" height="90">
<circle cx="45" cy="45" r="45" fill="#2477F4"/>
</mask>
<g mask="url(#mask0_2321_5150)">
<circle cx="45" cy="45" r="45" fill="#2477F4"/>
<path opacity="0.4" d="M58.8246 34.425C58.6496 34.4 58.4746 34.4 58.2996 34.425C54.4246 34.3 51.3496 31.125 51.3496 27.225C51.3496 23.25 54.5746 20 58.5746 20C62.5496 20 65.7996 23.225 65.7996 27.225C65.7746 31.125 62.6996 34.3 58.8246 34.425Z" fill="white"/>
<path opacity="0.4" d="M66.975 51.75C64.175 53.625 60.25 54.325 56.625 53.85C57.575 51.8 58.075 49.525 58.1 47.125C58.1 44.625 57.55 42.25 56.5 40.175C60.2 39.675 64.125 40.375 66.95 42.25C70.9 44.85 70.9 49.125 66.975 51.75Z" fill="white"/>
<path opacity="0.4" d="M31.1 34.425C31.275 34.4 31.45 34.4 31.625 34.425C35.5 34.3 38.575 31.125 38.575 27.225C38.575 23.25 35.35 20 31.35 20C27.375 20 24.125 23.225 24.125 27.225C24.15 31.125 27.225 34.3 31.1 34.425Z" fill="white"/>
<path opacity="0.4" d="M31.3748 47.125C31.3748 49.55 31.8998 51.85 32.8498 53.925C29.3248 54.3 25.6498 53.55 22.9498 51.775C18.9998 49.15 18.9998 44.875 22.9498 42.25C25.6248 40.45 29.3998 39.725 32.9498 40.125C31.9248 42.225 31.3748 44.6 31.3748 47.125Z" fill="white"/>
<path d="M45.3 54.675C45.1 54.65 44.875 54.65 44.65 54.675C40.05 54.525 36.375 50.75 36.375 46.1C36.375 41.35 40.2 37.5 44.975 37.5C49.725 37.5 53.575 41.35 53.575 46.1C53.575 50.75 49.925 54.525 45.3 54.675Z" fill="white"/>
<path d="M37.175 59.8501C33.4 62.3751 33.4 66.5251 37.175 69.0251C41.475 71.9001 48.525 71.9001 52.825 69.0251C56.6 66.5001 56.6 62.3501 52.825 59.8501C48.55 56.9751 41.5 56.9751 37.175 59.8501Z" fill="white"/>
</g>
</svg>
