<svg width="90" height="90" viewBox="0 0 90 90" fill="none" xmlns="http://www.w3.org/2000/svg">
<mask id="mask0_2321_5141" style="mask-type:alpha" maskUnits="userSpaceOnUse" x="0" y="0" width="90" height="90">
<circle cx="45" cy="45" r="45" fill="#2477F4"/>
</mask>
<g mask="url(#mask0_2321_5141)">
<circle cx="45" cy="45" r="45" fill="#2477F4"/>
<path d="M67.7246 32.45C65.5996 30.1 62.0496 28.925 56.8996 28.925H56.2996V28.825C56.2996 24.625 56.2996 19.425 46.8996 19.425H43.0996C33.6996 19.425 33.6996 24.65 33.6996 28.825V28.95H33.0996C27.9246 28.95 24.3996 30.125 22.2746 32.475C19.7996 35.225 19.8746 38.925 20.1246 41.45L20.1496 41.625L20.3996 44.25C20.4246 44.275 20.4746 44.325 20.5246 44.35C21.3496 44.9 22.1996 45.4501 23.0996 45.9501C23.4496 46.1751 23.8246 46.3751 24.1996 46.5751C28.4746 48.9251 33.1746 50.5 37.9496 51.275C38.1746 53.625 39.1996 56.375 44.6746 56.375C50.1496 56.375 51.2246 53.65 51.3996 51.225C56.4996 50.4 61.4246 48.625 65.8746 46.025C66.0246 45.95 66.1246 45.875 66.2496 45.8C67.3996 45.15 68.4746 44.4501 69.5246 43.6751C69.5746 43.6501 69.6246 43.6 69.6496 43.55L69.7496 42.6501L69.8746 41.475C69.8996 41.325 69.8996 41.2 69.9246 41.025C70.1246 38.5 70.0746 35.05 67.7246 32.45ZM47.7246 49.575C47.7246 52.225 47.7246 52.6251 44.6496 52.6251C41.5746 52.6251 41.5746 52.15 41.5746 49.6V46.45H47.7246V49.575ZM37.2746 28.925V28.825C37.2746 24.575 37.2746 23 43.0996 23H46.8996C52.7246 23 52.7246 24.6 52.7246 28.825V28.95H37.2746V28.925Z" fill="white"/>
<path opacity="0.4" d="M66.2504 45.75C66.1254 45.825 66.0004 45.9 65.8754 45.975C61.4254 48.575 56.5004 50.325 51.4004 51.175C51.2004 53.575 50.1504 56.325 44.6754 56.325C39.2004 56.325 38.1504 53.6 37.9504 51.225C33.1754 50.475 28.4754 48.9 24.2004 46.525C23.8254 46.325 23.4504 46.125 23.1004 45.9C22.2004 45.4 21.3504 44.85 20.5254 44.3C20.4754 44.275 20.4254 44.225 20.4004 44.2L21.9254 60.475C22.4504 65.45 24.5004 70.575 35.5004 70.575H54.5504C65.5504 70.575 67.6004 65.45 68.1254 60.45L69.7004 43.5C69.6754 43.55 69.6254 43.6 69.5754 43.625C68.5004 44.4 67.4004 45.125 66.2504 45.75Z" fill="white"/>
</g>
</svg>
