<svg width="90" height="90" viewBox="0 0 90 90" fill="none" xmlns="http://www.w3.org/2000/svg">
<mask id="mask0_2321_5132" style="mask-type:alpha" maskUnits="userSpaceOnUse" x="0" y="0" width="90" height="90">
<circle cx="45" cy="45" r="45" fill="#2477F4"/>
</mask>
<g mask="url(#mask0_2321_5132)">
<circle cx="45" cy="45" r="45" fill="#2477F4"/>
<path d="M55.0995 70H35.8995C25.4245 70 23.3495 63.675 26.7495 55.975L30.3495 47.8C30.3495 47.8 37.9995 47.5 45.4995 50C52.9995 52.5 60.0745 47.775 60.0745 47.775L60.5495 47.475L64.2745 56C67.6245 63.7 65.4245 70 55.0995 70Z" fill="white"/>
<path opacity="0.4" d="M60.5496 47.475L60.0746 47.775C60.0746 47.775 52.9996 52.5 45.4996 50C37.9996 47.5 30.3496 47.8 30.3496 47.8L37.3496 31.85H36.5996C34.9746 31.85 33.4746 31.2 32.3996 30.125C31.3246 29.05 30.6746 27.55 30.6746 25.925C30.6746 22.675 33.3246 20 36.5996 20H54.3746C56.0246 20 57.4996 20.675 58.5746 21.75C59.9746 23.15 60.6996 25.2 60.1496 27.375C59.4996 30.075 56.8996 31.85 54.0996 31.85H53.6996L60.5496 47.475Z" fill="white"/>
</g>
</svg>
