<svg width="20" height="20" viewBox="0 0 20 20" fill="none" xmlns="http://www.w3.org/2000/svg">
<g id="add-square">
<g id="vuesax/bold/add-square">
<g id="add-square_2">
<path id="Vector" d="M13.4915 1.66663H6.50817C3.47484 1.66663 1.6665 3.47496 1.6665 6.50829V13.4833C1.6665 16.525 3.47484 18.3333 6.50817 18.3333H13.4832C16.5165 18.3333 18.3248 16.525 18.3248 13.4916V6.50829C18.3332 3.47496 16.5248 1.66663 13.4915 1.66663ZM13.3332 10.625H10.6248V13.3333C10.6248 13.675 10.3415 13.9583 9.99984 13.9583C9.65817 13.9583 9.37484 13.675 9.37484 13.3333V10.625H6.6665C6.32484 10.625 6.0415 10.3416 6.0415 9.99996C6.0415 9.65829 6.32484 9.37496 6.6665 9.37496H9.37484V6.66663C9.37484 6.32496 9.65817 6.04163 9.99984 6.04163C10.3415 6.04163 10.6248 6.32496 10.6248 6.66663V9.37496H13.3332C13.6748 9.37496 13.9582 9.65829 13.9582 9.99996C13.9582 10.3416 13.6748 10.625 13.3332 10.625Z" fill="white"/>
</g>
</g>
</g>
</svg>
