<svg width="16" height="16" viewBox="0 0 16 16" fill="none" xmlns="http://www.w3.org/2000/svg">
<path d="M14.5067 10.6133L10.24 2.93325C9.66665 1.89992 8.87332 1.33325 7.99998 1.33325C7.12665 1.33325 6.33332 1.89992 5.75998 2.93325L1.49332 10.6133C0.953318 11.5933 0.893318 12.5333 1.32665 13.2733C1.75999 14.0133 2.61332 14.4199 3.73332 14.4199H12.2667C13.3867 14.4199 14.24 14.0133 14.6733 13.2733C15.1067 12.5333 15.0467 11.5866 14.5067 10.6133ZM7.49998 5.99992C7.49998 5.72659 7.72665 5.49992 7.99998 5.49992C8.27332 5.49992 8.49998 5.72659 8.49998 5.99992V9.33325C8.49998 9.60659 8.27332 9.83325 7.99998 9.83325C7.72665 9.83325 7.49998 9.60659 7.49998 9.33325V5.99992ZM8.47332 11.8066C8.43998 11.8333 8.40665 11.8599 8.37332 11.8866C8.33332 11.9133 8.29332 11.9333 8.25332 11.9466C8.21332 11.9666 8.17332 11.9799 8.12665 11.9866C8.08665 11.9933 8.03998 11.9999 7.99998 11.9999C7.95998 11.9999 7.91332 11.9933 7.86665 11.9866C7.82665 11.9799 7.78665 11.9666 7.74665 11.9466C7.70665 11.9333 7.66665 11.9133 7.62665 11.8866C7.59332 11.8599 7.55998 11.8333 7.52665 11.8066C7.40665 11.6799 7.33332 11.5066 7.33332 11.3333C7.33332 11.1599 7.40665 10.9866 7.52665 10.8599C7.55998 10.8333 7.59332 10.8066 7.62665 10.7799C7.66665 10.7533 7.70665 10.7333 7.74665 10.7199C7.78665 10.6999 7.82665 10.6866 7.86665 10.6799C7.95332 10.6599 8.04665 10.6599 8.12665 10.6799C8.17332 10.6866 8.21332 10.6999 8.25332 10.7199C8.29332 10.7333 8.33332 10.7533 8.37332 10.7799C8.40665 10.8066 8.43998 10.8333 8.47332 10.8599C8.59332 10.9866 8.66665 11.1599 8.66665 11.3333C8.66665 11.5066 8.59332 11.6799 8.47332 11.8066Z" fill="currentColor"/>
</svg>
