<svg width="25" height="24" viewBox="0 0 25 24" fill="none" xmlns="http://www.w3.org/2000/svg">
<path d="M21.5 22H3.5C3.09 22 2.75 21.66 2.75 21.25C2.75 20.84 3.09 20.5 3.5 20.5H21.5C21.91 20.5 22.25 20.84 22.25 21.25C22.25 21.66 21.91 22 21.5 22Z" fill="white"/>
<path d="M19.5196 3.48016C17.5796 1.54016 15.6796 1.49016 13.6896 3.48016L12.4796 4.69016C12.3796 4.79016 12.3396 4.95016 12.3796 5.09016C13.1396 7.74016 15.2596 9.86016 17.9096 10.6202C17.9496 10.6302 17.9896 10.6402 18.0296 10.6402C18.1396 10.6402 18.2396 10.6002 18.3196 10.5202L19.5196 9.31016C20.5096 8.33016 20.9896 7.38016 20.9896 6.42016C20.9996 5.43016 20.5196 4.47016 19.5196 3.48016Z" fill="white"/>
<path d="M16.1103 11.5298C15.8203 11.3898 15.5403 11.2498 15.2703 11.0898C15.0503 10.9598 14.8403 10.8198 14.6303 10.6698C14.4603 10.5598 14.2603 10.3998 14.0703 10.2398C14.0503 10.2298 13.9803 10.1698 13.9003 10.0898C13.5703 9.8098 13.2003 9.4498 12.8703 9.0498C12.8403 9.0298 12.7903 8.9598 12.7203 8.8698C12.6203 8.7498 12.4503 8.5498 12.3003 8.3198C12.1803 8.1698 12.0403 7.9498 11.9103 7.7298C11.7503 7.4598 11.6103 7.1898 11.4703 6.9098C11.4491 6.86441 11.4286 6.81924 11.4088 6.77434C11.2612 6.44102 10.8265 6.34358 10.5688 6.60133L4.84032 12.3298C4.71032 12.4598 4.59032 12.7098 4.56032 12.8798L4.02032 16.7098C3.92032 17.3898 4.11032 18.0298 4.53032 18.4598C4.89032 18.8098 5.39032 18.9998 5.93032 18.9998C6.05032 18.9998 6.17032 18.9898 6.29032 18.9698L10.1303 18.4298C10.3103 18.3998 10.5603 18.2798 10.6803 18.1498L16.4016 12.4285C16.6612 12.1689 16.5633 11.7235 16.2257 11.5794C16.1877 11.5632 16.1492 11.5467 16.1103 11.5298Z" fill="white"/>
</svg>
