<svg width="25" height="25" viewBox="0 0 25 25" fill="none" xmlns="http://www.w3.org/2000/svg">
<path d="M13.178 20.4775C13.4528 20.5414 13.4779 20.9012 13.2103 20.9904L11.6303 21.5104C7.66034 22.7904 5.57034 21.7204 4.28034 17.7504L3.00034 13.8004C1.72034 9.83043 2.78034 7.73043 6.75034 6.45043L7.27434 6.2769C7.6772 6.14348 8.06927 6.54754 7.95487 6.95621C7.89817 7.15879 7.84362 7.37019 7.79034 7.59043L6.81034 11.7804C5.71034 16.4904 7.32034 19.0904 12.0303 20.2104L13.178 20.4775Z" fill="#37476A"/>
<path d="M17.6702 3.73052L16.0002 3.34052C12.6602 2.55052 10.6702 3.20052 9.50018 5.62052C9.20018 6.23052 8.96018 6.97052 8.76018 7.82052L7.78018 12.0105C6.80018 16.1905 8.09018 18.2505 12.2602 19.2405L13.9402 19.6405C14.5202 19.7805 15.0602 19.8705 15.5602 19.9105C18.6802 20.2105 20.3402 18.7505 21.1802 15.1405L22.1602 10.9605C23.1402 6.78052 21.8602 4.71052 17.6702 3.73052ZM15.7902 13.8505C15.7002 14.1905 15.4002 14.4105 15.0602 14.4105C15.0002 14.4105 14.9402 14.4005 14.8702 14.3905L11.9602 13.6505C11.5602 13.5505 11.3202 13.1405 11.4202 12.7405C11.5202 12.3405 11.9302 12.1005 12.3302 12.2005L15.2402 12.9405C15.6502 13.0405 15.8902 13.4505 15.7902 13.8505ZM18.7202 10.4705C18.6302 10.8105 18.3302 11.0305 17.9902 11.0305C17.9302 11.0305 17.8702 11.0205 17.8002 11.0105L12.9502 9.78052C12.5502 9.68052 12.3102 9.27052 12.4102 8.87052C12.5102 8.47052 12.9202 8.23052 13.3202 8.33052L18.1702 9.56052C18.5802 9.65052 18.8202 10.0605 18.7202 10.4705Z" fill="#37476A"/>
</svg>
