<svg width="968" height="265" viewBox="0 0 968 265" fill="none" xmlns="http://www.w3.org/2000/svg">
<path d="M385.719 263.691L438.402 263.117L434.232 243.877L387.155 240.304L385.719 263.691Z" fill="#C0776A"/>
<path d="M412.817 239.363L436.852 241.023C436.852 241.023 446.529 215.895 451 215.748L449.612 264.861L412.06 263.889L412.817 239.363Z" fill="#2477F4"/>
<path d="M433.884 255.316C434.093 256.191 435.037 256.822 435.907 256.645C436.778 256.47 437.415 255.5 437.222 254.621C437.028 253.741 435.918 252.949 435.073 253.222C434.228 253.495 433.54 254.678 433.935 255.484" fill="#D4DFF4"/>
<path d="M449.462 264.861L445.273 264.607L448.314 217.639C448.314 217.639 449.384 215.481 451 215.775L449.462 264.861Z" fill="#D4DFF4"/>
<path d="M436.304 240.306C436.491 240.321 436.549 241.555 437.126 242.789C437.676 244.045 438.476 244.7 438.396 244.924C438.355 245.149 437.241 244.739 436.563 243.228C435.875 241.725 436.133 240.245 436.304 240.306Z" fill="#17282F"/>
<path d="M438.499 235.628C438.714 235.594 439.06 236.328 439.968 236.916C440.852 237.525 441.853 237.691 441.837 237.858C441.865 238.016 440.573 238.102 439.461 237.353C438.342 236.612 438.288 235.627 438.499 235.628Z" fill="#17282F"/>
<path d="M444.127 233.022C444.165 233.245 443.149 233.548 442.059 232.883C440.966 232.226 440.559 231.061 440.73 230.964C440.899 230.833 441.473 231.595 442.374 232.123C443.265 232.678 444.114 232.78 444.127 233.022Z" fill="#17282F"/>
<path d="M430.183 240.313C430.401 240.411 430.033 241.406 430.085 242.647C430.11 243.887 430.539 244.862 430.326 244.971C430.146 245.093 429.28 244.129 429.242 242.666C429.19 241.208 429.995 240.2 430.183 240.313Z" fill="#17282F"/>
<path d="M425.656 240.304C425.735 240.304 425.829 241.208 425.587 242.64C425.466 243.353 425.249 244.19 424.899 245.064C424.724 245.501 424.516 245.946 424.27 246.385C424.15 246.597 424.027 246.847 423.794 247.073C423.59 247.32 423.081 247.446 422.778 247.142C422.485 246.892 422.367 246.466 422.368 246.129C422.368 245.786 422.432 245.507 422.491 245.256C422.609 244.739 422.766 244.258 422.944 243.817C423.304 242.938 423.751 242.228 424.179 241.705C425.044 240.651 425.764 240.307 425.799 240.387C425.859 240.492 425.251 240.997 424.531 242.074C424.174 242.612 423.801 243.301 423.498 244.125C423.349 244.536 423.219 244.982 423.12 245.453C422.998 245.944 422.986 246.365 423.166 246.498C423.235 246.546 423.263 246.553 423.386 246.455C423.5 246.351 423.614 246.155 423.734 245.948C423.969 245.542 424.175 245.134 424.355 244.734C424.712 243.932 424.961 243.161 425.134 242.5C425.479 241.174 425.553 240.296 425.656 240.304Z" fill="#17282F"/>
<path d="M425.803 240.791C425.832 240.892 425.058 241.423 423.679 241.471C422.995 241.493 422.169 241.366 421.299 240.981C420.865 240.788 420.424 240.526 419.991 240.191C419.568 239.836 419.001 239.397 418.932 238.299C418.928 237.727 419.276 237.263 419.567 237.112C419.866 236.932 420.12 236.904 420.373 236.845C420.885 236.759 421.383 236.792 421.842 236.902C422.765 237.121 423.525 237.657 424.068 238.231C425.172 239.405 425.4 240.594 425.326 240.615C425.218 240.706 424.829 239.704 423.764 238.797C423.238 238.348 422.543 237.941 421.735 237.798C421.333 237.725 420.904 237.716 420.473 237.803C420.008 237.874 419.63 238.088 419.671 238.321C419.662 238.608 420 239.112 420.363 239.365C420.747 239.677 421.141 239.929 421.53 240.129C422.309 240.522 423.059 240.711 423.694 240.776C424.971 240.906 425.773 240.635 425.803 240.791Z" fill="#17282F"/>
<path d="M61.6021 248.49L57.6627 263.691L13.5 263.284C13.5 263.284 19.538 258.687 41.7297 259.02L43.8825 248.49H61.6021Z" fill="#C0776A"/>
<path d="M107.774 36.835C106.532 34.1742 105.282 31.4888 104.566 28.6253C103.849 25.7619 103.693 22.6697 104.634 19.8772C105.575 17.0846 107.735 14.6468 110.491 13.9273C112.193 13.4829 114.043 13.687 115.656 12.9675C117.524 12.1366 118.708 10.2503 120.119 8.72879C122.321 6.35174 125.282 4.75209 128.416 4.24396C130.061 3.97904 131.799 4.01812 133.321 4.72023C134.844 5.42089 136.111 6.87289 136.315 8.59415C138.222 7.81386 140.156 7.02634 142.192 6.78748C144.227 6.54862 146.412 6.91921 148.011 8.2525C149.612 9.58579 150.447 12.0121 149.619 13.965C151.242 12.8705 153.625 13.5277 154.734 15.1781C155.842 16.8255 155.724 19.1736 154.687 20.8731C153.651 22.5727 151.126 24.1723 149.227 24.5444C147.329 24.9164 145.114 25.2277 143.253 24.6834" fill="#17282F"/>
<path d="M129.519 98.6946C137.49 97.6733 143.175 90.1821 142.243 81.9184C141.722 77.301 141.259 73.4431 141.259 73.4431C141.259 73.4431 152.502 71.0228 152.068 59.2761C151.631 47.5293 148.347 20.6743 148.347 20.6743C134.942 15.5262 119.898 18.2926 109.027 27.9109L107.414 29.3384L113.193 85.2785C114.061 93.6909 121.415 99.7345 129.519 98.6946Z" fill="#C0776A"/>
<path d="M141.6 73.247C141.6 73.247 134.597 74.2519 126.884 69.5771C126.884 69.5771 130.72 78.0659 141.772 76.369L141.6 73.247Z" fill="#B85549"/>
<path d="M109.878 41.7515C109.687 41.6776 102.25 39.8621 102.869 47.5206C103.487 55.1778 110.854 52.9617 110.85 52.7416C110.844 52.5201 109.878 41.7515 109.878 41.7515Z" fill="#C0776A"/>
<path d="M108.548 50.1069C108.504 50.0824 108.392 50.2162 108.122 50.3443C107.858 50.4695 107.395 50.5759 106.883 50.4536C105.845 50.2119 104.865 48.9198 104.676 47.4695C104.58 46.7372 104.693 46.0264 104.943 45.4264C105.177 44.8164 105.587 44.3732 106.087 44.261C106.582 44.1272 106.966 44.3588 107.105 44.5775C107.255 44.7933 107.209 44.9588 107.262 44.9689C107.29 44.9876 107.453 44.8207 107.344 44.4926C107.288 44.3358 107.158 44.1531 106.919 44.0135C106.675 43.8725 106.331 43.8164 105.98 43.8725C105.251 43.9675 104.644 44.5862 104.368 45.2437C104.053 45.9084 103.905 46.7084 104.013 47.5314C104.233 49.1515 105.365 50.6018 106.777 50.8407C107.461 50.9428 108.004 50.7313 108.275 50.5227C108.549 50.3011 108.582 50.1184 108.548 50.1069Z" fill="#B85549"/>
<path d="M146.347 40.216C146.426 40.8586 145.722 41.4346 144.776 41.5053C143.832 41.5749 143.002 41.1133 142.923 40.4697C142.845 39.8282 143.549 39.2511 144.493 39.1804C145.439 39.1108 146.269 39.5734 146.347 40.216Z" fill="#17282F"/>
<path d="M147.475 37.6003C147.272 37.8768 145.911 36.8208 144.048 36.9366C142.186 37.0213 140.867 38.2259 140.654 37.9684C140.549 37.8578 140.748 37.3687 141.321 36.8243C141.885 36.2851 142.863 35.7338 144.024 35.6715C145.184 35.6093 146.182 36.0518 146.766 36.5305C147.361 37.0109 147.576 37.4776 147.475 37.6003Z" fill="#17282F"/>
<path d="M129.168 40.7373C129.246 41.701 128.543 42.5665 127.597 42.671C126.653 42.777 125.823 42.0815 125.744 41.1194C125.666 40.1557 126.37 39.2902 127.314 39.1842C128.26 39.0782 129.09 39.7752 129.168 40.7373Z" fill="#17282F"/>
<path d="M130.296 38.7717C130.093 39.0483 128.73 37.9887 126.868 38.1062C125.007 38.1927 123.688 39.394 123.474 39.1382C123.371 39.0275 123.566 38.5384 124.141 37.9939C124.706 37.4546 125.684 36.9032 126.844 36.841C128.005 36.7787 129.003 37.2212 129.586 37.6983C130.18 38.1806 130.396 38.6455 130.296 38.7717Z" fill="#17282F"/>
<path d="M137.544 51.9887C137.53 51.8845 138.568 51.6329 140.252 51.3033C140.68 51.231 141.083 51.1167 141.14 50.7943C141.225 50.453 141.022 49.9599 140.788 49.4307C140.331 48.326 139.853 47.1692 139.351 45.9546C137.348 41.0035 135.877 36.923 136.062 36.8362C136.246 36.7523 138.018 40.6955 140.021 45.6466C140.504 46.8684 140.966 48.0324 141.406 49.1473C141.593 49.6664 141.901 50.252 141.714 50.962C141.615 51.3163 141.311 51.5867 141.039 51.6821C140.768 51.7877 140.526 51.8065 140.315 51.831C138.612 52.0248 137.554 52.0913 137.544 51.9887Z" fill="#17282F"/>
<path d="M131.738 53.2062C132.06 53.1766 132.174 55.017 134.096 56.2439C136.016 57.4762 138.303 57.1694 138.334 57.4264C138.372 57.5407 137.844 57.8058 136.875 57.8703C135.926 57.9403 134.521 57.7385 133.343 56.9892C132.171 56.2358 131.623 55.1878 131.504 54.4345C131.376 53.669 131.589 53.2008 131.738 53.2062Z" fill="#17282F"/>
<path d="M146.318 34.1414C146.043 34.6346 144.876 34.2159 143.494 34.2804C142.111 34.2854 140.958 34.7621 140.668 34.2821C140.541 34.0487 140.706 33.562 141.199 33.0803C141.683 32.602 142.51 32.1816 143.461 32.1584C144.41 32.1352 145.25 32.5142 145.75 32.9678C146.258 33.423 146.438 33.903 146.318 34.1414Z" fill="#17282F"/>
<path d="M127.963 31.9052C127.779 32.1228 127.331 32.0606 126.748 31.9782C126.163 31.889 125.421 31.7945 124.594 31.8039C123.767 31.8228 123.029 31.9444 122.447 32.0539C121.867 32.1565 121.422 32.2349 121.23 32.0241C121.05 31.8309 121.191 31.3351 121.771 30.8176C122.338 30.3015 123.367 29.8408 124.558 29.8192C125.748 29.7989 126.793 30.2245 127.379 30.719C127.977 31.2148 128.136 31.7066 127.963 31.9052Z" fill="#17282F"/>
<path d="M149.789 24.6268C149.789 24.6268 142.259 27.6479 133.05 24.6268C127.007 22.6445 120.252 22.2665 118.981 23.6406C117.711 25.0162 118.289 30.9589 112.983 33.5452C112.983 33.5452 115.05 44.7344 110.588 45.0172C106.127 45.3 106.269 27.4504 106.269 27.4504L116.235 20.4177L127.647 16.3294L138.656 14.6171L149.371 16.2328L149.789 24.6268Z" fill="#17282F"/>
<path d="M166.595 96.8385L200.609 129.487L254.378 91.7948L271.19 111.65L219.486 154.113C214.297 158.861 207.667 161.622 200.719 161.928C191.195 162.349 182.039 158.124 176.029 150.534L157.806 134.758L166.595 96.8385Z" fill="#2477F4"/>
<path d="M134.16 82.44L165.862 96.5444L164.801 105.568L179.553 165.679L195.601 177.714L182.311 197.76C179.326 202.263 175.418 206.038 170.861 208.823L139.234 228.149C133.077 230.476 126.22 227.483 123.573 221.315L95.6059 156.117L67.5032 245.682C65.6842 251.478 60.0593 255.08 54.1937 254.206L43.0614 252.545C39.2756 251.98 36.8034 248.166 37.7557 244.359L69.1783 118.805C70.8583 112.192 73.574 106.037 77.1634 100.477C83.9623 89.9448 95.4203 83.5758 107.716 83.2143L134.16 82.44Z" fill="#2477F4"/>
<path d="M146.034 84.1741L144.844 77.7186L110.874 75.4238L110.849 84.0068C111.081 86.4436 115.039 85.7209 118.745 87.2536L135.374 90.5847C139.46 90.9067 148.121 89.3726 146.034 84.1741Z" fill="#2477F4"/>
<path d="M180.705 166.634C180.655 166.649 180.329 165.828 179.783 164.329C179.235 162.832 178.485 160.649 177.594 157.939C175.813 152.525 173.521 144.986 171.305 136.58C169.091 128.169 167.376 120.488 166.26 114.905C165.703 112.114 165.281 109.849 165.022 108.279C164.759 106.71 164.638 105.837 164.69 105.827C164.741 105.819 164.962 106.671 165.313 108.224C165.689 109.898 166.188 112.114 166.79 114.798C168.039 120.346 169.837 127.997 172.046 136.394C174.259 144.788 176.464 152.336 178.112 157.786C178.91 160.421 179.57 162.596 180.067 164.24C180.526 165.766 180.755 166.617 180.705 166.634Z" fill="#17282F"/>
<path d="M106.258 126.876C106.352 126.912 105.819 128.63 104.903 131.386C103.898 134.341 102.64 138.038 101.249 142.126C99.8532 146.214 98.5909 149.909 97.5834 152.86C96.6524 155.608 96.0744 157.311 95.9735 157.279C95.8817 157.253 96.2862 155.495 97.0933 152.699C97.9032 149.903 99.1214 146.073 100.562 141.878C102.001 137.685 103.378 133.916 104.42 131.204C105.461 128.494 106.163 126.841 106.258 126.876Z" fill="#17282F"/>
<path d="M105.123 178.328C104.625 177.619 104.273 176.8 103.93 175.994C101.273 169.756 98.6175 163.518 95.9607 157.281C95.9612 157.28 95.9612 157.28 95.9618 157.28L96.3419 158.161C96.3636 158.081 96.3847 158.002 96.406 157.923L105.123 178.328Z" fill="#C3C5C2"/>
<path d="M107.583 179.497C106.687 179.497 105.801 179.009 105.173 178.335C105.014 178.163 104.867 177.979 104.731 177.789L95.9607 157.542C96.7449 154.675 97.5291 151.808 98.3134 148.941C99.0475 146.807 99.8617 144.439 100.727 141.922C102.071 137.999 103.291 134.437 104.279 131.553C105.123 131.62 105.685 132.625 105.998 133.487C110.688 146.4 111.182 160.48 110.705 174.24C110.633 176.338 110.124 178.975 108.111 179.438C107.936 179.479 107.759 179.497 107.583 179.497Z" fill="#2477F4"/>
<path d="M95.993 157.279C95.9823 157.253 95.9713 157.226 95.9607 157.199L95.993 157.278V157.279ZM101.61 138.378C102.029 136.75 102.449 135.121 102.868 133.492C103.061 132.743 103.375 131.874 103.978 131.553C103.293 133.451 102.479 135.785 101.61 138.378Z" fill="#2477F4"/>
<path d="M96.0235 157.279C96.0026 157.232 95.981 157.183 95.9607 157.135C95.9607 157.135 95.9607 157.135 95.9607 157.134L96.0247 157.278C96.0241 157.278 96.0241 157.278 96.0235 157.279ZM98.9307 149.199C99.9369 145.603 100.943 142.007 101.949 138.411C102.881 135.853 103.754 133.55 104.488 131.677C104.608 131.618 104.739 131.579 104.882 131.562C104.932 131.556 104.982 131.553 105.031 131.553C105.062 131.553 105.092 131.554 105.123 131.556C104.097 134.482 102.831 138.096 101.436 142.077C100.538 144.631 99.6926 147.034 98.9307 149.199Z" fill="#111D23"/>
<path d="M182.799 158.449L181.857 157.279C182.233 157.63 182.615 157.963 183.003 158.282C182.938 158.343 182.871 158.397 182.799 158.449Z" fill="#C3C5C2"/>
<path d="M183.823 157.279C183.287 156.972 182.759 156.651 182.241 156.312L176.366 151.226L170.405 129.215C176.024 135.741 180.691 142.979 184.232 150.669C184.762 151.817 185.275 153.013 185.293 154.264C185.309 155.412 184.82 156.631 183.823 157.279Z" fill="#2477F4"/>
<path d="M176.131 151.433L175.824 151.125C174.681 146.795 173.4 141.771 172.117 136.393C171.432 133.517 170.791 130.729 170.199 128.088C170.425 128.383 170.649 128.679 170.871 128.978L176.131 151.433ZM169.306 127.061L169.259 126.876C169.263 126.88 169.267 126.886 169.271 126.892C169.283 126.948 169.295 127.004 169.306 127.061Z" fill="#2477F4"/>
<path d="M176.131 151.433L175.802 151.113L169.296 127.047C169.284 126.99 169.272 126.933 169.259 126.876C169.587 127.276 169.912 127.681 170.233 128.088C170.854 130.764 171.525 133.59 172.243 136.504C173.59 141.954 174.933 147.045 176.131 151.433Z" fill="#111D23"/>
<path d="M77.6513 146.755C77.5498 146.751 77.9731 138.631 78.5974 128.622C79.2219 118.61 79.8103 110.5 79.9118 110.505C80.0133 110.509 79.5893 118.625 78.9655 128.637C78.3412 138.646 77.752 146.758 77.6513 146.755Z" fill="#D4DFF4"/>
<path d="M84.4087 118.69C84.4286 118.689 84.4545 118.938 84.482 119.388C84.5155 119.841 84.5184 120.496 84.4798 121.307C84.4076 122.922 84.0775 125.161 83.2777 127.498C82.4708 129.834 81.3624 131.785 80.4328 133.084C79.9693 133.734 79.5665 134.242 79.2659 134.568C78.9688 134.9 78.7981 135.076 78.7833 135.061C78.7425 135.024 79.3871 134.281 80.2638 132.96C81.1417 131.639 82.2051 129.701 83.0009 127.396C83.7896 125.089 84.1479 122.89 84.2728 121.291C84.4006 119.69 84.3543 118.692 84.4087 118.69Z" fill="#D4DFF4"/>
<path d="M73.0693 119.86C73.1174 119.855 73.1822 120.733 73.4267 122.121C73.6697 123.508 74.137 125.4 74.9342 127.366C75.7373 129.331 76.7086 130.974 77.4863 132.094C78.2634 133.219 78.8146 133.853 78.7798 133.891C78.7659 133.906 78.6172 133.759 78.3593 133.479C78.0976 133.205 77.7448 132.779 77.3334 132.229C76.5086 131.132 75.4964 129.485 74.6825 127.491C73.8738 125.498 73.4299 123.568 73.2345 122.159C73.1356 121.452 73.0812 120.88 73.0682 120.48C73.0506 120.082 73.0501 119.861 73.0693 119.86Z" fill="#D4DFF4"/>
<path d="M83.3163 114.013C83.3408 114.013 83.356 114.203 83.3605 114.548C83.3698 114.894 83.3487 115.392 83.2927 116.008C83.1825 117.237 82.874 118.935 82.2392 120.744C81.5992 122.553 80.76 124.116 80.0553 125.196C79.7046 125.737 79.4 126.164 79.1693 126.45C78.9406 126.735 78.8055 126.887 78.7851 126.875C78.7363 126.851 79.1945 126.197 79.8351 125.099C80.4772 124.002 81.2695 122.448 81.9023 120.658C82.5292 118.871 82.8727 117.201 83.0455 115.986C83.2188 114.771 83.2596 114.012 83.3163 114.013Z" fill="#D4DFF4"/>
<path d="M75.5266 115.182C75.574 115.186 75.5132 116.003 75.5443 117.324C75.5735 118.643 75.7343 120.465 76.1856 122.426C76.6425 124.385 77.2989 126.091 77.8527 127.287C78.405 128.483 78.8192 129.191 78.7786 129.214C78.7619 129.224 78.6444 129.057 78.4445 128.744C78.242 128.433 77.9771 127.965 77.6762 127.373C77.0725 126.189 76.3776 124.472 75.9149 122.488C75.4585 120.504 75.3267 118.655 75.3475 117.327C75.3575 116.661 75.3892 116.121 75.4345 115.754C75.4761 115.383 75.5074 115.181 75.5266 115.182Z" fill="#D4DFF4"/>
<path d="M77.9774 111.675C78.0063 111.691 77.8962 112.205 77.835 113.063C77.7697 113.919 77.782 115.128 77.9431 116.421C78.2908 119.002 78.8481 120.984 78.775 121.029C78.7529 121.044 78.607 120.56 78.401 119.755C78.1981 118.948 77.9302 117.813 77.7653 116.484C77.6001 115.156 77.6076 113.904 77.7085 113.031C77.8047 112.152 77.96 111.66 77.9774 111.675Z" fill="#D4DFF4"/>
<path d="M74.2041 130.385C74.2792 130.339 75.0433 132.133 76.3123 134.066C77.5721 136.009 78.8346 137.319 78.7796 137.398C78.757 137.432 78.4124 137.144 77.906 136.602C77.3991 136.062 76.7402 135.256 76.0982 134.275C75.4577 133.292 74.9611 132.327 74.6432 131.604C74.3248 130.879 74.1733 130.406 74.2041 130.385Z" fill="#D4DFF4"/>
<path d="M84.5057 132.724C84.5341 132.745 84.2915 133.136 83.8433 133.729C83.396 134.323 82.7352 135.114 81.939 135.927C81.1428 136.739 80.3639 137.418 79.7784 137.881C79.1924 138.342 78.804 138.594 78.7827 138.567C78.7584 138.535 79.1038 138.232 79.6543 137.736C80.2049 137.242 80.9554 136.547 81.7455 135.742C82.5335 134.936 83.2112 134.172 83.6938 133.612C84.1775 133.051 84.4738 132.701 84.5057 132.724Z" fill="#D4DFF4"/>
<path d="M54.738 239.135C54.6872 239.13 54.8993 230.75 55.2111 220.419C55.5232 210.085 55.8178 201.712 55.8682 201.715C55.919 201.72 55.7073 210.1 55.3951 220.435C55.083 230.765 54.7888 239.139 54.738 239.135Z" fill="#D4DFF4"/>
<path d="M60.3578 209.901C60.3786 209.899 60.4034 210.148 60.431 210.601C60.4646 211.051 60.4672 211.709 60.4288 212.517C60.3566 214.134 60.0264 216.37 59.2268 218.709C58.4199 221.044 57.3114 222.994 56.3823 224.293C55.9184 224.944 55.5167 225.451 55.2156 225.778C54.9184 226.109 54.7478 226.284 54.7323 226.271C54.6916 226.233 55.3366 225.49 56.2128 224.169C57.0906 222.849 58.1546 220.912 58.9505 218.606C59.7397 216.299 60.0974 214.1 60.2218 212.503C60.3495 210.902 60.3038 209.902 60.3578 209.901Z" fill="#D4DFF4"/>
<path d="M49.0211 211.07C49.0789 211.066 49.1566 211.944 49.4513 213.331C49.7422 214.718 50.3029 216.609 51.2591 218.577C52.2227 220.543 53.3883 222.185 54.3221 223.305C55.2547 224.429 55.9155 225.065 55.8738 225.101C55.8577 225.117 55.6787 224.969 55.3696 224.693C55.0557 224.416 54.6316 223.989 54.1387 223.44C53.1483 222.342 51.9336 220.695 50.957 218.702C49.9872 216.707 49.455 214.778 49.2201 213.368C49.1007 212.663 49.0353 212.089 49.0199 211.69C48.9987 211.291 48.9981 211.071 49.0211 211.07Z" fill="#D4DFF4"/>
<path d="M59.2771 205.223C59.2953 205.225 59.3062 205.415 59.3102 205.759C59.3166 206.105 59.3012 206.604 59.2587 207.219C59.1767 208.449 58.9454 210.145 58.4688 211.955C57.9893 213.763 57.3599 215.324 56.8315 216.404C56.568 216.945 56.3396 217.374 56.1666 217.658C55.996 217.943 55.8941 218.096 55.8783 218.086C55.8423 218.059 56.1859 217.405 56.6664 216.309C57.1479 215.211 57.7421 213.656 58.2162 211.869C58.6873 210.08 58.9439 208.413 59.0734 207.198C59.2039 205.982 59.234 205.222 59.2771 205.223Z" fill="#D4DFF4"/>
<path d="M52.6199 206.393C52.6678 206.397 52.6069 207.283 52.6377 208.713C52.6667 210.141 52.8277 212.114 53.2795 214.238C53.7361 216.361 54.3937 218.208 54.9471 219.504C55.5 220.8 55.9139 221.566 55.8727 221.594C55.8566 221.602 55.7384 221.421 55.5395 221.082C55.3366 220.746 55.0715 220.239 54.7701 219.598C54.1661 218.316 53.4712 216.455 53.0094 214.307C52.5517 212.156 52.4206 210.153 52.4419 208.714C52.4507 207.993 52.4831 207.41 52.5282 207.01C52.5694 206.611 52.6011 206.391 52.6199 206.393Z" fill="#D4DFF4"/>
<path d="M54.2679 204.054C54.325 204.07 54.1061 204.519 53.9824 205.27C53.8518 206.019 53.8762 207.076 54.1986 208.208C54.8956 210.467 56.0087 212.2 55.8625 212.239C55.8184 212.253 55.5273 211.83 55.1146 211.125C54.7092 210.42 54.1726 209.425 53.8429 208.263C53.5123 207.102 53.528 206.005 53.7294 205.241C53.9225 204.472 54.2325 204.041 54.2679 204.054Z" fill="#D4DFF4"/>
<path d="M50.1531 222.764C50.2285 222.723 50.9923 224.219 52.2613 225.832C53.5211 227.45 54.784 228.544 54.7286 228.608C54.7059 228.635 54.3613 228.396 53.8549 227.945C53.3486 227.495 52.6891 226.823 52.0471 226.004C51.4072 225.185 50.9106 224.382 50.5922 223.778C50.2738 223.175 50.1223 222.78 50.1531 222.764Z" fill="#D4DFF4"/>
<path d="M60.4547 223.934C60.4829 223.959 60.2409 224.428 59.7926 225.141C59.3449 225.854 58.6839 226.803 57.8882 227.78C57.0914 228.753 56.3135 229.569 55.727 230.123C55.1409 230.676 54.7535 230.98 54.7317 230.947C54.7073 230.91 55.0523 230.546 55.6029 229.95C56.154 229.356 56.9041 228.522 57.6943 227.556C58.4824 226.588 59.1605 225.673 59.6438 225C60.1269 224.328 60.4232 223.907 60.4547 223.934Z" fill="#D4DFF4"/>
<path d="M106.276 121.029C106.225 121.025 106.437 112.906 106.749 102.897C107.061 92.8851 107.355 84.7748 107.406 84.779C107.457 84.7819 107.245 92.8991 106.933 102.913C106.621 112.92 106.327 121.034 106.276 121.029Z" fill="#D4DFF4"/>
<path d="M111.897 92.9643C111.916 92.9629 111.941 93.1926 111.969 93.6124C112.002 94.0322 112.005 94.6423 111.967 95.3936C111.895 96.8936 111.565 98.971 110.765 101.142C109.958 103.312 108.85 105.123 107.92 106.328C107.456 106.934 107.054 107.403 106.753 107.707C106.456 108.016 106.286 108.179 106.27 108.165C106.229 108.131 106.874 107.441 107.75 106.213C108.628 104.987 109.692 103.188 110.489 101.048C111.277 98.9058 111.636 96.8637 111.76 95.3787C111.888 93.8936 111.842 92.9643 111.897 92.9643Z" fill="#D4DFF4"/>
<path d="M100.556 94.1336C100.605 94.1296 100.669 94.9342 100.914 96.2063C101.157 97.477 101.624 99.2112 102.422 101.015C103.224 102.817 104.196 104.322 104.974 105.35C105.751 106.38 106.302 106.963 106.267 106.995C106.253 107.01 106.104 106.876 105.846 106.621C105.585 106.368 105.232 105.977 104.82 105.474C103.996 104.467 102.983 102.958 102.17 101.131C101.361 99.3025 100.918 97.5321 100.722 96.2412C100.623 95.5951 100.568 95.0672 100.555 94.7018C100.538 94.3378 100.537 94.1349 100.556 94.1336Z" fill="#D4DFF4"/>
<path d="M110.814 88.2869C110.833 88.2883 110.843 88.4782 110.848 88.8237C110.855 89.1692 110.839 89.6674 110.796 90.2827C110.714 91.5118 110.482 93.2092 110.006 95.018C109.526 96.8267 108.897 98.3885 108.369 99.4692C108.106 100.009 107.876 100.437 107.703 100.721C107.533 101.008 107.432 101.159 107.416 101.149C107.38 101.124 107.723 100.47 108.203 99.3721C108.685 98.2757 109.279 96.7211 109.754 94.9337C110.224 93.145 110.482 91.4761 110.611 90.2613C110.742 89.0464 110.772 88.2869 110.814 88.2869Z" fill="#D4DFF4"/>
<path d="M103.013 88.2871C103.061 88.2914 103 89.1782 103.031 90.6086C103.06 92.0361 103.221 94.0088 103.672 96.1327C104.129 98.2551 104.786 100.104 105.339 101.398C105.892 102.695 106.307 103.461 106.266 103.488C106.249 103.499 106.132 103.317 105.932 102.977C105.729 102.641 105.464 102.134 105.163 101.492C104.56 100.21 103.865 98.351 103.402 96.201C102.945 94.0539 102.813 92.0507 102.835 90.6101C102.845 89.8876 102.876 89.3046 102.921 88.9063C102.962 88.5051 102.994 88.2856 103.013 88.2871Z" fill="#D4DFF4"/>
<path d="M105.805 85.9486C105.863 85.9664 105.642 86.4798 105.521 87.3385C105.39 88.1956 105.414 89.4025 105.736 90.6957C106.432 93.2761 107.547 95.2568 107.401 95.3029C107.355 95.3178 107.065 94.8341 106.653 94.0291C106.246 93.2225 105.711 92.0871 105.381 90.7582C105.05 89.4308 105.066 88.1793 105.267 87.3057C105.46 86.4278 105.77 85.9352 105.805 85.9486Z" fill="#D4DFF4"/>
<path d="M101.691 104.659C101.766 104.619 102.53 106.116 103.8 107.726C105.059 109.346 106.322 110.439 106.267 110.503C106.245 110.53 105.899 110.292 105.393 109.841C104.887 109.39 104.227 108.717 103.585 107.9C102.945 107.079 102.448 106.276 102.13 105.673C101.811 105.07 101.66 104.675 101.691 104.659Z" fill="#D4DFF4"/>
<path d="M111.992 106.998C112.021 107.02 111.778 107.409 111.331 108.004C110.883 108.598 110.222 109.388 109.426 110.202C108.629 111.014 107.851 111.693 107.265 112.154C106.679 112.616 106.291 112.869 106.269 112.842C106.246 112.811 106.591 112.506 107.141 112.01C107.692 111.515 108.442 110.82 109.232 110.017C110.021 109.21 110.698 108.447 111.181 107.886C111.664 107.326 111.961 106.975 111.992 106.998Z" fill="#D4DFF4"/>
<path d="M136.053 114.013C136.002 114.008 136.215 105.89 136.527 95.8812C136.839 85.8696 137.133 77.7582 137.184 77.7624C137.234 77.7667 137.022 85.8822 136.711 95.8953C136.398 105.904 136.104 114.017 136.053 114.013Z" fill="#D4DFF4"/>
<path d="M141.693 85.9483C141.709 85.9483 141.73 86.1955 141.752 86.6462C141.778 87.0983 141.781 87.7553 141.75 88.5644C141.692 90.1813 141.427 92.4185 140.788 94.7567C140.143 97.0934 139.256 99.0424 138.512 100.342C138.141 100.993 137.82 101.499 137.579 101.825C137.341 102.158 137.205 102.333 137.193 102.318C137.16 102.282 137.676 101.539 138.377 100.217C139.079 98.899 139.93 96.9588 140.567 94.6543C141.198 92.3468 141.484 90.1476 141.584 88.5484C141.686 86.9491 141.649 85.9512 141.693 85.9483Z" fill="#D4DFF4"/>
<path d="M130.336 87.1176C130.394 87.1132 130.472 87.9894 130.766 89.3784C131.058 90.7646 131.618 92.6577 132.575 94.6241C133.538 96.589 134.704 98.2301 135.637 99.351C136.569 100.476 137.231 101.111 137.189 101.149C137.172 101.164 136.994 101.017 136.684 100.737C136.371 100.462 135.947 100.035 135.454 99.4858C134.464 98.3883 133.249 96.7414 132.272 94.7501C131.303 92.7544 130.769 90.8261 130.535 89.4151C130.416 88.7103 130.351 88.1359 130.335 87.7359C130.314 87.3388 130.314 87.119 130.336 87.1176Z" fill="#D4DFF4"/>
<path d="M140.593 81.2708C140.611 81.2722 140.622 81.4621 140.625 81.8076C140.632 82.1516 140.617 82.6513 140.574 83.2651C140.492 84.4971 140.261 86.1917 139.784 88.0018C139.305 89.8092 138.675 91.3724 138.147 92.4516C137.884 92.9927 137.655 93.421 137.482 93.7051C137.312 93.9906 137.209 94.1433 137.194 94.1333C137.157 94.1062 137.501 93.4524 137.982 92.3545C138.464 91.2596 139.058 89.7035 139.532 87.9162C140.002 86.1274 140.26 84.4586 140.389 83.2452C140.519 82.0303 140.55 81.2708 140.593 81.2708Z" fill="#D4DFF4"/>
<path d="M133.935 82.4399C133.983 82.4443 133.922 83.331 133.953 84.7615C133.982 86.189 134.143 88.1631 134.595 90.2869C135.052 92.4093 135.709 94.257 136.263 95.5522C136.814 96.8489 137.229 97.615 137.188 97.6412C137.172 97.6514 137.054 97.4697 136.855 97.1309C136.652 96.7937 136.386 96.2878 136.086 95.6453C135.482 94.3631 134.787 92.5038 134.324 90.3567C133.867 88.2067 133.736 86.2035 133.757 84.7629C133.766 84.0419 133.798 83.4589 133.843 83.0592C133.885 82.6594 133.916 82.4384 133.935 82.4399Z" fill="#D4DFF4"/>
<path d="M135.584 80.1018C135.641 80.1174 135.421 80.5654 135.298 81.3168C135.168 82.0683 135.192 83.1231 135.514 84.2548C136.211 86.5143 137.324 88.2477 137.178 88.2868C137.134 88.3011 136.842 87.8778 136.43 87.1733C136.025 86.4675 135.489 85.4725 135.159 84.3108C134.828 83.1505 134.843 82.0526 135.045 81.2882C135.238 80.5198 135.548 80.0901 135.584 80.1018Z" fill="#D4DFF4"/>
<path d="M131.469 97.643C131.543 97.5949 132.308 99.3906 133.577 101.323C134.837 103.266 136.099 104.579 136.044 104.656C136.021 104.688 135.677 104.401 135.17 103.861C134.664 103.32 134.005 102.512 133.362 101.531C132.722 100.548 132.226 99.5829 131.908 98.8599C131.589 98.1368 131.438 97.6622 131.469 97.643Z" fill="#D4DFF4"/>
<path d="M142.915 99.9816C142.949 100.008 142.658 100.478 142.12 101.19C141.583 101.902 140.79 102.852 139.835 103.826C138.879 104.802 137.944 105.615 137.242 106.17C136.538 106.724 136.074 107.027 136.047 106.994C136.018 106.959 136.432 106.593 137.093 105.998C137.754 105.403 138.654 104.572 139.602 103.605C140.548 102.636 141.361 101.72 141.941 101.048C142.521 100.375 142.877 99.9554 142.915 99.9816Z" fill="#D4DFF4"/>
<path d="M148.652 143.247C148.601 143.243 148.812 135.124 149.125 125.116C149.437 115.104 149.731 106.993 149.782 106.997C149.832 107.001 149.621 115.118 149.309 125.131C148.997 135.139 148.702 143.252 148.652 143.247Z" fill="#D4DFF4"/>
<path d="M154.271 115.182C154.292 115.181 154.317 115.412 154.344 115.831C154.378 116.25 154.381 116.86 154.343 117.611C154.27 119.112 153.94 121.19 153.141 123.36C152.334 125.529 151.225 127.34 150.296 128.546C149.831 129.151 149.43 129.621 149.129 129.925C148.831 130.232 148.661 130.395 148.646 130.383C148.605 130.348 149.25 129.658 150.126 128.431C151.004 127.206 152.067 125.407 152.863 123.266C153.652 121.123 154.01 119.081 154.136 117.596C154.263 116.113 154.217 115.185 154.271 115.182Z" fill="#D4DFF4"/>
<path d="M142.932 116.351C142.98 116.347 143.045 117.151 143.289 118.424C143.532 119.695 144 121.429 144.797 123.233C145.6 125.034 146.571 126.539 147.349 127.565C148.126 128.597 148.677 129.18 148.642 129.213C148.628 129.227 148.48 129.091 148.222 128.838C147.96 128.584 147.607 128.193 147.196 127.689C146.371 126.683 145.359 125.173 144.545 123.348C143.737 121.519 143.293 119.75 143.097 118.457C142.998 117.813 142.944 117.285 142.931 116.92C142.913 116.554 142.913 116.353 142.932 116.351Z" fill="#D4DFF4"/>
<path d="M153.191 110.505C153.209 110.506 153.22 110.696 153.224 111.041C153.23 111.386 153.215 111.885 153.173 112.5C153.091 113.731 152.858 115.426 152.383 117.236C151.902 119.044 151.273 120.606 150.746 121.686C150.482 122.227 150.253 122.655 150.08 122.939C149.91 123.224 149.807 123.379 149.792 123.367C149.755 123.34 150.099 122.686 150.58 121.59C151.062 120.493 151.656 118.937 152.13 117.15C152.6 115.361 152.858 113.692 152.987 112.479C153.117 111.264 153.148 110.505 153.191 110.505Z" fill="#D4DFF4"/>
<path d="M145.388 110.505C145.436 110.508 145.375 111.396 145.406 112.825C145.435 114.254 145.596 116.227 146.047 118.35C146.504 120.473 147.161 122.321 147.715 123.616C148.267 124.914 148.682 125.678 148.641 125.706C148.624 125.715 148.507 125.533 148.308 125.195C148.105 124.858 147.84 124.351 147.538 123.71C146.935 122.428 146.239 120.567 145.777 118.42C145.32 116.27 145.188 114.267 145.21 112.826C145.219 112.105 145.251 111.524 145.297 111.123C145.338 110.723 145.37 110.503 145.388 110.505Z" fill="#D4DFF4"/>
<path d="M148.182 108.166C148.239 108.184 148.019 108.698 147.896 109.557C147.766 110.414 147.79 111.619 148.113 112.914C148.808 115.495 149.922 117.476 149.776 117.521C149.732 117.537 149.44 117.053 149.028 116.248C148.623 115.441 148.087 114.304 147.757 112.978C147.427 111.651 147.442 110.396 147.643 109.522C147.836 108.644 148.147 108.152 148.182 108.166Z" fill="#D4DFF4"/>
<path d="M144.067 126.877C144.142 126.836 144.906 128.332 146.175 129.942C147.435 131.561 148.697 132.655 148.642 132.721C148.62 132.746 148.275 132.507 147.769 132.057C147.262 131.608 146.603 130.934 145.961 130.116C145.32 129.297 144.824 128.494 144.506 127.89C144.187 127.287 144.036 126.892 144.067 126.877Z" fill="#D4DFF4"/>
<path d="M154.368 129.216C154.397 129.236 154.154 129.627 153.707 130.222C153.259 130.816 152.598 131.607 151.802 132.42C151.006 133.233 150.226 133.911 149.641 134.373C149.055 134.834 148.667 135.088 148.645 135.059C148.621 135.03 148.966 134.725 149.517 134.229C150.068 133.734 150.818 133.039 151.609 132.234C152.396 131.427 153.074 130.665 153.556 130.104C154.041 129.544 154.337 129.193 154.368 129.216Z" fill="#D4DFF4"/>
<path d="M191.018 154.94C190.947 154.966 188.583 147.133 185.737 137.447C182.891 127.758 180.643 119.885 180.714 119.86C180.783 119.834 183.147 127.666 185.993 137.354C188.839 147.04 191.089 154.915 191.018 154.94Z" fill="#D4DFF4"/>
<path d="M187.586 125.707C187.597 125.698 187.66 125.923 187.765 126.337C187.874 126.752 188.006 127.371 188.147 128.148C188.43 129.7 188.696 131.933 188.727 134.437C188.753 136.941 188.539 139.193 188.291 140.766C188.169 141.553 188.05 142.181 187.952 142.601C187.856 143.024 187.798 143.253 187.788 143.247C187.757 143.226 187.961 142.285 188.174 140.711C188.389 139.138 188.582 136.914 188.556 134.444C188.526 131.973 188.282 129.765 188.031 128.21C187.782 126.654 187.557 125.728 187.586 125.707Z" fill="#D4DFF4"/>
<path d="M177.279 131.554C177.325 131.531 177.682 132.301 178.39 133.462C179.093 134.625 180.186 136.159 181.628 137.635C183.075 139.106 184.577 140.222 185.715 140.941C186.852 141.663 187.605 142.027 187.583 142.075C187.575 142.092 187.379 142.017 187.034 141.863C186.686 141.714 186.197 141.461 185.611 141.121C184.434 140.441 182.89 139.336 181.424 137.843C179.963 136.347 178.88 134.771 178.214 133.57C177.879 132.97 177.633 132.47 177.487 132.115C177.336 131.761 177.261 131.564 177.279 131.554Z" fill="#D4DFF4"/>
<path d="M184.152 122.199C184.166 122.192 184.223 122.359 184.313 122.667C184.405 122.975 184.52 123.43 184.644 123.999C184.893 125.135 185.148 126.747 185.249 128.556C185.347 130.366 185.269 132.011 185.146 133.185C185.085 133.773 185.021 134.245 184.964 134.568C184.908 134.889 184.871 135.066 184.856 135.061C184.822 135.053 184.914 134.333 184.998 133.163C185.082 131.992 185.134 130.366 185.039 128.577C184.939 126.79 184.71 125.191 184.5 124.051C184.29 122.909 184.12 122.214 184.152 122.199Z" fill="#D4DFF4"/>
<path d="M177.281 125.707C177.334 125.691 177.6 126.539 178.166 127.854C178.731 129.168 179.64 130.94 180.916 132.738C182.197 134.533 183.59 135.996 184.667 136.984C185.741 137.976 186.471 138.528 186.437 138.568C186.424 138.585 186.23 138.461 185.889 138.223C185.547 137.989 185.074 137.619 184.512 137.14C183.387 136.182 181.949 134.722 180.652 132.906C179.36 131.086 178.472 129.278 177.957 127.93C177.698 127.258 177.515 126.704 177.414 126.316C177.309 125.928 177.26 125.712 177.281 125.707Z" fill="#D4DFF4"/>
<path d="M178.468 122.198C178.519 122.197 178.525 122.738 178.729 123.57C178.927 124.405 179.368 125.514 180.075 126.616C181.526 128.795 183.096 130.296 182.998 130.382C182.967 130.41 182.57 130.05 181.963 129.428C181.362 128.803 180.541 127.912 179.817 126.78C179.092 125.652 178.666 124.487 178.517 123.617C178.362 122.745 178.434 122.195 178.468 122.198Z" fill="#D4DFF4"/>
<path d="M181.859 140.912C181.91 140.835 183.03 142.208 184.615 143.492C186.194 144.788 187.61 145.48 187.584 145.578C187.573 145.619 187.205 145.5 186.633 145.207C186.062 144.915 185.29 144.438 184.488 143.783C183.688 143.13 183.011 142.428 182.552 141.879C182.091 141.33 181.837 140.944 181.859 140.912Z" fill="#D4DFF4"/>
<path d="M192.157 138.57C192.193 138.579 192.101 139.073 191.885 139.854C191.669 140.634 191.318 141.699 190.842 142.837C190.365 143.975 189.856 144.971 189.453 145.668C189.051 146.367 188.764 146.774 188.733 146.754C188.697 146.733 188.921 146.288 189.277 145.57C189.632 144.85 190.108 143.851 190.581 142.721C191.053 141.594 191.43 140.55 191.694 139.791C191.958 139.032 192.116 138.559 192.157 138.57Z" fill="#D4DFF4"/>
<path d="M236.83 114.013C236.894 114.066 231.816 120.652 225.493 128.725C219.165 136.8 213.988 143.301 213.926 143.247C213.863 143.194 218.939 136.607 225.265 128.534C231.589 120.462 236.769 113.959 236.83 114.013Z" fill="#D4DFF4"/>
<path d="M215.072 133.891C215.056 133.88 215.177 133.673 215.41 133.307C215.638 132.938 216.006 132.427 216.495 131.823C217.466 130.615 218.994 129.077 220.954 127.741C222.917 126.409 224.903 125.554 226.38 125.098C227.117 124.868 227.724 124.715 228.15 124.638C228.574 124.557 228.81 124.523 228.814 124.543C228.825 124.597 227.892 124.789 226.444 125.295C224.998 125.797 223.054 126.669 221.117 127.983C219.183 129.302 217.654 130.794 216.651 131.957C215.645 133.12 215.117 133.923 215.072 133.891Z" fill="#D4DFF4"/>
<path d="M225.381 139.738C225.337 139.711 225.782 138.953 226.365 137.661C226.948 136.372 227.629 134.522 228.068 132.392C228.5 130.261 228.604 128.281 228.577 126.853C228.553 125.424 228.443 124.544 228.494 124.537C228.515 124.534 228.557 124.75 228.621 125.149C228.687 125.545 228.747 126.126 228.785 126.846C228.867 128.285 228.793 130.297 228.354 132.456C227.909 134.615 227.188 136.479 226.551 137.756C226.234 138.398 225.953 138.901 225.735 139.234C225.524 139.57 225.398 139.75 225.381 139.738Z" fill="#D4DFF4"/>
<path d="M213.927 138.568C213.912 138.555 214.011 138.392 214.204 138.109C214.395 137.824 214.693 137.427 215.081 136.956C215.854 136.009 217.023 134.783 218.471 133.631C219.922 132.482 221.364 131.636 222.441 131.112C222.98 130.851 223.423 130.657 223.737 130.542C224.05 130.425 224.226 130.369 224.233 130.387C224.249 130.433 223.576 130.735 222.531 131.304C221.484 131.871 220.078 132.736 218.644 133.87C217.213 135.009 216.037 136.196 215.23 137.098C214.424 137.999 213.964 138.598 213.927 138.568Z" fill="#D4DFF4"/>
<path d="M220.799 142.077C220.762 142.043 221.3 141.382 222.062 140.238C222.825 139.093 223.78 137.437 224.579 135.479C225.375 133.518 225.856 131.647 226.116 130.277C226.38 128.906 226.462 128.041 226.511 128.045C226.531 128.047 226.527 128.266 226.502 128.658C226.482 129.05 226.42 129.619 226.312 130.314C226.1 131.706 225.643 133.61 224.839 135.596C224.028 137.578 223.033 139.238 222.222 140.361C221.817 140.921 221.471 141.36 221.214 141.648C220.96 141.936 220.812 142.09 220.799 142.077Z" fill="#D4DFF4"/>
<path d="M217.362 143.245C217.339 143.201 217.691 142.906 218.149 142.287C218.609 141.676 219.148 140.711 219.568 139.53C220.377 137.143 220.691 135.026 220.79 135.062C220.821 135.072 220.755 135.597 220.605 136.44C220.452 137.278 220.218 138.443 219.786 139.655C219.354 140.868 218.773 141.851 218.268 142.44C217.764 143.039 217.374 143.273 217.362 143.245Z" fill="#D4DFF4"/>
<path d="M223.088 122.192C223.076 122.165 223.562 122.021 224.37 121.842C225.181 121.662 226.316 121.454 227.591 121.296C228.866 121.14 230.033 121.064 230.88 121.039C231.726 121.016 232.25 121.035 232.25 121.065C232.251 121.097 231.732 121.132 230.896 121.197C230.06 121.26 228.906 121.36 227.643 121.515C226.379 121.671 225.246 121.853 224.427 121.993C223.608 122.133 223.101 122.223 223.088 122.192Z" fill="#D4DFF4"/>
<path d="M144.036 214.578C143.941 214.58 143.62 206.467 143.318 196.457C143.016 186.445 142.849 178.33 142.944 178.328C143.038 178.325 143.36 186.437 143.661 196.45C143.963 206.459 144.131 214.575 144.036 214.578Z" fill="#D4DFF4"/>
<path d="M148.383 186.513C148.403 186.51 148.445 186.75 148.504 187.189C148.568 187.625 148.617 188.265 148.637 189.054C148.681 190.635 148.517 192.839 147.904 195.175C147.284 197.513 146.343 199.496 145.531 200.83C145.125 201.501 144.769 202.025 144.5 202.366C144.234 202.712 144.081 202.897 144.065 202.884C144.022 202.851 144.597 202.078 145.357 200.721C146.118 199.371 147.016 197.403 147.628 195.098C148.233 192.791 148.426 190.621 148.434 189.055C148.446 187.489 148.33 186.519 148.383 186.513Z" fill="#D4DFF4"/>
<path d="M137.199 187.683C137.248 187.674 137.376 188.576 137.726 189.993C138.073 191.407 138.687 193.324 139.646 195.293C140.61 197.258 141.725 198.872 142.605 199.967C143.483 201.064 144.095 201.672 144.062 201.714C144.049 201.73 143.886 201.591 143.6 201.327C143.312 201.064 142.918 200.651 142.456 200.119C141.531 199.054 140.373 197.436 139.395 195.444C138.423 193.449 137.831 191.49 137.531 190.048C137.379 189.326 137.283 188.736 137.241 188.325C137.196 187.913 137.18 187.687 137.199 187.683Z" fill="#D4DFF4"/>
<path d="M146.204 181.836C146.227 181.834 146.258 182.019 146.293 182.357C146.332 182.692 146.354 183.183 146.353 183.788C146.352 184.998 146.2 186.675 145.74 188.485C145.277 190.294 144.598 191.875 144.009 192.975C143.714 193.527 143.456 193.963 143.256 194.256C143.061 194.55 142.942 194.707 142.922 194.698C142.872 194.676 143.259 194.007 143.785 192.893C144.314 191.782 144.948 190.21 145.406 188.423C145.861 186.635 146.049 184.981 146.111 183.782C146.175 182.584 146.148 181.837 146.204 181.836Z" fill="#D4DFF4"/>
<path d="M139.527 183.005C139.565 183.007 139.566 183.844 139.668 185.184C139.768 186.524 140.002 188.366 140.473 190.328C140.949 192.285 141.567 193.971 142.073 195.145C142.579 196.322 142.947 197.008 142.916 197.037C142.903 197.049 142.801 196.888 142.625 196.583C142.447 196.282 142.211 195.826 141.939 195.247C141.393 194.089 140.745 192.395 140.264 190.413C139.787 188.428 139.575 186.557 139.513 185.201C139.481 184.523 139.475 183.974 139.488 183.594C139.499 183.215 139.512 183.005 139.527 183.005Z" fill="#D4DFF4"/>
<path d="M140.998 180.667C141.044 180.679 140.906 181.146 140.869 181.913C140.825 182.677 140.929 183.743 141.273 184.871C142.003 187.114 143.021 188.803 142.909 188.852C142.875 188.868 142.611 188.457 142.229 187.767C141.852 187.078 141.35 186.101 140.997 184.946C140.644 183.792 140.568 182.681 140.666 181.897C140.758 181.109 140.969 180.656 140.998 180.667Z" fill="#D4DFF4"/>
<path d="M138.339 199.377C138.404 199.329 139.205 200.858 140.474 202.466C141.734 204.086 142.963 205.145 142.916 205.221C142.898 205.25 142.567 205.024 142.073 204.585C141.58 204.149 140.931 203.486 140.29 202.669C139.649 201.85 139.141 201.034 138.809 200.42C138.477 199.805 138.312 199.397 138.339 199.377Z" fill="#D4DFF4"/>
<path d="M148.641 200.546C148.667 200.564 148.483 200.945 148.133 201.531C147.785 202.115 147.264 202.897 146.627 203.712C145.99 204.525 145.36 205.211 144.882 205.682C144.404 206.154 144.084 206.416 144.064 206.391C144.04 206.364 144.32 206.056 144.765 205.557C145.21 205.057 145.815 204.357 146.447 203.551C147.077 202.745 147.615 201.987 147.996 201.432C148.378 200.876 148.612 200.528 148.641 200.546Z" fill="#D4DFF4"/>
<path d="M173.839 186.513C173.769 186.539 171.405 178.704 168.559 169.018C165.713 159.33 163.465 151.458 163.534 151.432C163.605 151.406 165.969 159.239 168.815 168.927C171.661 178.613 173.91 186.488 173.839 186.513Z" fill="#D4DFF4"/>
<path d="M170.41 157.28C170.431 157.271 170.558 157.482 170.768 157.87C170.985 158.256 171.249 158.833 171.53 159.559C172.096 161.006 172.63 163.092 172.691 165.429C172.743 167.766 172.313 169.868 171.819 171.336C171.574 172.07 171.338 172.656 171.141 173.049C170.948 173.443 170.833 173.657 170.812 173.65C170.751 173.632 171.159 172.754 171.586 171.284C172.016 169.817 172.4 167.741 172.349 165.434C172.288 163.128 171.801 161.067 171.298 159.617C170.801 158.165 170.351 157.3 170.41 157.28Z" fill="#D4DFF4"/>
<path d="M160.1 161.957C160.145 161.936 160.503 162.706 161.209 163.867C161.914 165.028 163.007 166.562 164.449 168.038C165.896 169.511 167.398 170.627 168.535 171.346C169.673 172.066 170.425 172.431 170.404 172.478C170.396 172.497 170.2 172.42 169.855 172.267C169.507 172.117 169.018 171.866 168.431 171.524C167.255 170.845 165.711 169.741 164.245 168.248C162.784 166.751 161.7 165.175 161.035 163.974C160.7 163.374 160.453 162.875 160.306 162.52C160.156 162.166 160.082 161.966 160.1 161.957Z" fill="#D4DFF4"/>
<path d="M166.976 152.602C167.005 152.595 167.118 152.776 167.299 153.113C167.483 153.448 167.712 153.945 167.96 154.566C168.459 155.806 168.969 157.564 169.171 159.537C169.366 161.511 169.211 163.306 168.965 164.587C168.843 165.229 168.715 165.742 168.601 166.096C168.489 166.446 168.414 166.639 168.386 166.634C168.316 166.624 168.501 165.84 168.668 164.562C168.835 163.286 168.941 161.511 168.748 159.559C168.55 157.61 168.093 155.866 167.672 154.623C167.253 153.376 166.913 152.619 166.976 152.602Z" fill="#D4DFF4"/>
<path d="M161.247 156.11C161.293 156.096 161.524 156.943 162.021 158.259C162.516 159.573 163.31 161.345 164.427 163.143C165.548 164.938 166.767 166.4 167.707 167.388C168.649 168.38 169.288 168.932 169.258 168.972C169.246 168.988 169.077 168.865 168.779 168.627C168.478 168.391 168.064 168.023 167.573 167.544C166.588 166.585 165.33 165.127 164.196 163.31C163.066 161.491 162.288 159.681 161.838 158.336C161.611 157.663 161.451 157.11 161.363 156.72C161.269 156.333 161.228 156.117 161.247 156.11Z" fill="#D4DFF4"/>
<path d="M162.421 153.771C162.461 153.769 162.465 154.234 162.618 154.947C162.765 155.663 163.097 156.612 163.627 157.558C164.716 159.427 165.894 160.714 165.82 160.786C165.797 160.811 165.499 160.503 165.044 159.969C164.593 159.433 163.977 158.668 163.434 157.7C162.891 156.731 162.571 155.733 162.46 154.986C162.343 154.241 162.397 153.768 162.421 153.771Z" fill="#D4DFF4"/>
<path d="M164.679 172.484C164.74 172.425 166.086 173.455 167.988 174.417C169.883 175.389 171.581 175.908 171.549 175.984C171.538 176.013 171.096 175.924 170.41 175.703C169.724 175.485 168.798 175.126 167.835 174.637C166.875 174.147 166.063 173.621 165.511 173.209C164.958 172.797 164.654 172.508 164.679 172.484Z" fill="#D4DFF4"/>
<path d="M174.979 170.143C175.013 170.153 174.923 170.646 174.707 171.427C174.49 172.207 174.139 173.273 173.663 174.411C173.186 175.549 172.676 176.544 172.274 177.241C171.872 177.941 171.585 178.347 171.553 178.327C171.518 178.305 171.742 177.862 172.098 177.142C172.452 176.423 172.929 175.424 173.402 174.294C173.872 173.166 174.251 172.123 174.515 171.364C174.779 170.604 174.938 170.13 174.979 170.143Z" fill="#D4DFF4"/>
<path d="M79.925 197.038C79.8465 197.064 77.2193 189.231 74.059 179.546C70.8959 169.856 68.3972 161.984 68.4757 161.957C68.5542 161.932 71.1808 169.764 74.3427 179.453C77.504 189.139 80.0033 197.013 79.925 197.038Z" fill="#D4DFF4"/>
<path d="M75.3506 168.973C75.3723 168.967 75.4987 169.176 75.7091 169.563C75.9254 169.951 76.1909 170.527 76.4712 171.252C77.0376 172.702 77.57 174.786 77.6316 177.124C77.6848 179.46 77.255 181.562 76.7599 183.029C76.5154 183.763 76.2788 184.349 76.0812 184.742C75.8901 185.137 75.7746 185.351 75.7521 185.344C75.693 185.326 76.0991 184.447 76.5257 182.979C76.9568 181.511 77.3422 179.435 77.2897 177.129C77.2281 174.823 76.7418 172.763 76.2397 171.311C75.7411 169.857 75.2921 168.994 75.3506 168.973Z" fill="#D4DFF4"/>
<path d="M65.0406 173.651C65.0867 173.628 65.4443 174.397 66.1515 175.56C66.8554 176.722 67.9485 178.257 69.39 179.733C70.8367 181.204 72.339 182.32 73.477 183.039C74.6139 183.761 75.3672 184.125 75.345 184.172C75.3368 184.191 75.1423 184.115 74.7964 183.961C74.4481 183.812 73.9592 183.559 73.3718 183.218C72.1964 182.539 70.652 181.434 69.1862 179.941C67.7247 178.445 66.6414 176.867 65.9759 175.667C65.6416 175.068 65.395 174.567 65.2481 174.211C65.0969 173.858 65.0221 173.659 65.0406 173.651Z" fill="#D4DFF4"/>
<path d="M73.059 164.296C73.0728 164.29 73.1288 164.473 73.2194 164.807C73.3116 165.143 73.4264 165.64 73.5506 166.26C73.7998 167.5 74.0555 169.259 74.1557 171.231C74.2538 173.205 74.1763 175.001 74.0532 176.28C73.992 176.921 73.9284 177.437 73.8701 177.787C73.8148 178.139 73.7767 178.332 73.7624 178.328C73.7286 178.317 73.8212 177.533 73.9038 176.256C73.988 174.978 74.0413 173.205 73.9447 171.255C73.8454 169.305 73.6158 167.561 73.4057 166.316C73.1959 165.071 73.0263 164.314 73.059 164.296Z" fill="#D4DFF4"/>
<path d="M66.1876 167.804C66.2335 167.789 66.4662 168.637 66.9619 169.95C67.4555 171.266 68.2507 173.038 69.3675 174.836C70.4888 176.629 71.7077 178.093 72.6496 179.081C73.5909 180.073 74.2285 180.625 74.1994 180.665C74.1874 180.681 74.0177 180.558 73.7198 180.32C73.4198 180.086 73.0065 179.716 72.5144 179.237C71.5303 178.279 70.2712 176.819 69.1363 175.003C68.0066 173.184 67.2291 171.375 66.7788 170.029C66.5522 169.356 66.3915 168.803 66.3028 168.414C66.2111 168.026 66.1693 167.809 66.1876 167.804Z" fill="#D4DFF4"/>
<path d="M67.3742 164.295C67.4247 164.294 67.4316 164.835 67.6361 165.667C67.8325 166.501 68.2747 167.611 68.9811 168.713C70.4338 170.892 72.0044 172.394 71.9053 172.48C71.8755 172.506 71.4768 172.148 70.8702 171.526C70.2682 170.9 69.4485 170.009 68.7239 168.878C67.9986 167.75 67.5719 166.582 67.4247 165.714C67.2695 164.843 67.3411 164.292 67.3742 164.295Z" fill="#D4DFF4"/>
<path d="M69.6207 184.177C69.681 184.119 71.0264 185.149 72.9282 186.112C74.8235 187.084 76.5217 187.602 76.4904 187.677C76.4787 187.707 76.0377 187.617 75.3512 187.397C74.6656 187.18 73.7394 186.822 72.7765 186.331C71.8145 185.841 71.0041 185.314 70.4525 184.902C69.8987 184.49 69.5944 184.201 69.6207 184.177Z" fill="#D4DFF4"/>
<path d="M81.0647 181.836C81.1 181.845 81.0092 182.34 80.7929 183.12C80.5765 183.9 80.2257 184.964 79.7494 186.102C79.273 187.242 78.763 188.237 78.3604 188.934C77.9577 189.633 77.6714 190.04 77.64 190.021C77.6041 190 77.829 189.555 78.1837 188.836C78.5387 188.116 79.0151 187.117 79.4877 185.987C79.9598 184.86 80.3378 183.816 80.6011 183.057C80.865 182.298 81.0241 181.824 81.0647 181.836Z" fill="#D4DFF4"/>
<path d="M120.027 168.973C119.925 168.969 120.349 160.851 120.973 150.842C121.597 140.83 122.185 132.719 122.287 132.723C122.388 132.727 121.964 140.843 121.34 150.856C120.717 160.864 120.129 168.977 120.027 168.973Z" fill="#D4DFF4"/>
<path d="M125.659 140.908C125.675 140.908 125.695 141.157 125.717 141.608C125.744 142.06 125.746 142.716 125.716 143.525C125.658 145.143 125.393 147.379 124.754 149.717C124.109 152.053 123.222 154.002 122.478 155.301C122.107 155.953 121.786 156.459 121.544 156.787C121.306 157.117 121.17 157.293 121.158 157.278C121.125 157.242 121.641 156.5 122.343 155.178C123.045 153.859 123.896 151.918 124.532 149.614C125.164 147.307 125.45 145.108 125.551 143.51C125.652 141.911 125.615 140.912 125.659 140.908Z" fill="#D4DFF4"/>
<path d="M114.302 142.078C114.36 142.073 114.437 142.95 114.732 144.338C115.024 145.725 115.584 147.618 116.541 149.584C117.504 151.549 118.67 153.192 119.604 154.312C120.536 155.436 121.198 156.071 121.155 156.109C121.139 156.123 120.961 155.977 120.651 155.697C120.337 155.423 119.914 154.995 119.42 154.446C118.43 153.348 117.215 151.701 116.239 149.71C115.269 147.715 114.736 145.786 114.501 144.375C114.381 143.67 114.316 143.096 114.301 142.696C114.28 142.299 114.28 142.079 114.302 142.078Z" fill="#D4DFF4"/>
<path d="M124.559 136.231C124.576 136.231 124.588 136.42 124.591 136.766C124.598 137.11 124.583 137.609 124.54 138.225C124.458 139.456 124.227 141.15 123.75 142.961C123.271 144.768 122.641 146.332 122.113 147.411C121.85 147.952 121.62 148.381 121.447 148.665C121.277 148.951 121.175 149.103 121.16 149.093C121.123 149.068 121.467 148.412 121.948 147.315C122.429 146.219 123.024 144.663 123.498 142.875C123.968 141.086 124.225 139.419 124.354 138.203C124.485 136.989 124.515 136.229 124.559 136.231Z" fill="#D4DFF4"/>
<path d="M117.902 137.4C117.949 137.405 117.889 138.224 117.92 139.543C117.949 140.861 118.11 142.684 118.561 144.644C119.018 146.604 119.675 148.308 120.229 149.504C120.781 150.701 121.195 151.408 121.154 151.432C121.138 151.443 121.02 151.274 120.821 150.963C120.618 150.65 120.353 150.182 120.052 149.59C119.448 148.408 118.753 146.69 118.291 144.708C117.834 142.723 117.702 140.874 117.723 139.545C117.733 138.879 117.765 138.342 117.81 137.972C117.851 137.603 117.883 137.399 117.902 137.4Z" fill="#D4DFF4"/>
<path d="M119.55 133.892C119.607 133.91 119.387 134.422 119.264 135.283C119.133 136.14 119.158 137.345 119.48 138.639C120.177 141.221 121.29 143.202 121.144 143.247C121.1 143.263 120.808 142.78 120.396 141.974C119.991 141.169 119.454 140.03 119.125 138.703C118.794 137.377 118.809 136.122 119.011 135.248C119.204 134.37 119.514 133.879 119.55 133.892Z" fill="#D4DFF4"/>
<path d="M115.435 152.603C115.51 152.555 116.274 154.351 117.543 156.283C118.802 158.225 120.065 159.538 120.01 159.615C119.988 159.649 119.643 159.362 119.136 158.82C118.63 158.28 117.97 157.472 117.329 156.491C116.688 155.508 116.192 154.543 115.874 153.82C115.555 153.097 115.404 152.622 115.435 152.603Z" fill="#D4DFF4"/>
<path d="M126.881 154.942C126.915 154.962 126.624 155.354 126.086 155.947C125.548 156.542 124.755 157.332 123.8 158.145C122.844 158.958 121.91 159.637 121.208 160.099C120.504 160.56 120.039 160.814 120.013 160.785C119.983 160.756 120.397 160.451 121.059 159.956C121.719 159.459 122.62 158.766 123.568 157.96C124.514 157.153 125.327 156.389 125.907 155.83C126.487 155.27 126.842 154.918 126.881 154.942Z" fill="#D4DFF4"/>
<path d="M136.812 95.3032C136.567 95.3032 136.321 95.2994 136.077 95.2929C135.981 95.1474 135.881 94.9917 135.778 94.8269C135.116 93.7763 134.339 92.3149 133.755 90.6309C133.84 90.6322 133.926 90.6322 134.013 90.6322C134.269 90.6322 134.534 90.6296 134.804 90.6258H134.808C135.23 90.6502 135.692 90.6631 136.183 90.6631C136.507 90.6631 136.845 90.6579 137.191 90.6464C137.087 92.118 136.979 93.681 136.87 95.3032C136.85 95.3032 136.831 95.3032 136.812 95.3032Z" fill="#0848A8"/>
<path d="M137.191 95.3032C137.215 94.7918 137.238 94.2845 137.26 93.7841C137.31 93.7195 137.391 93.5972 137.499 93.4253C137.674 93.1517 137.905 92.7393 138.172 92.2183C138.465 91.6491 138.788 90.9411 139.101 90.1314C140.007 89.9857 140.925 89.7644 141.772 89.4564C141.612 90.8408 141.287 92.5496 140.699 94.3258C140.668 94.4193 140.636 94.5114 140.604 94.6021C140.054 94.8358 139.482 95.009 138.907 95.1204C138.338 95.2304 137.765 95.2881 137.191 95.3032Z" fill="#0848A8"/>
<path d="M139.482 90.6255C139.502 90.5476 139.523 90.4698 139.544 90.3886C140.384 90.1669 141.166 89.8589 141.772 89.4561C141.765 89.5661 141.756 89.6795 141.747 89.7946C141.029 90.1737 140.25 90.4461 139.482 90.6255Z" fill="#0848A8"/>
<path d="M136.046 95.3032C135.092 95.253 134.138 95.12 133.193 94.9314C133.092 94.7347 132.993 94.5338 132.897 94.3289C132.192 92.82 131.729 91.3572 131.443 90.1698C131.831 90.22 132.223 90.2675 132.624 90.3123C133.026 90.3571 133.518 90.3856 134.068 90.3965C134.556 92.2229 135.236 93.7984 135.831 94.9097C135.905 95.0481 135.977 95.1797 136.046 95.3032ZM132.828 94.8568C131.926 94.6641 131.032 94.4239 130.154 94.1647C124.056 92.3667 118.278 89.5741 113.14 85.9483C114.273 86.1763 115.654 86.3459 117.066 86.7353C117.518 86.8873 117.966 87.0352 118.411 87.1804C122.465 88.4953 126.348 89.5022 131.198 90.1386C131.446 91.3612 131.897 92.881 132.628 94.4456C132.693 94.584 132.76 94.7211 132.828 94.8568Z" fill="#0848A8"/>
<path d="M118.866 87.1177H118.867ZM117.51 86.6773C116.087 86.292 114.697 86.1242 113.555 85.8986C113.028 85.5348 112.508 85.1616 111.995 84.7789C113.946 85.4623 115.755 86.096 117.51 86.6773Z" fill="#0848A8"/>
<path d="M140.627 94.1338C140.63 94.1252 140.634 94.1167 140.638 94.1081C141.313 92.4668 141.654 90.8841 141.79 89.6191C142.859 89.2855 143.809 88.8455 144.495 88.287C144.529 88.298 144.564 88.309 144.599 88.3236C145.278 88.5998 145.301 89.4297 145.092 90.0518C144.464 91.918 142.71 93.3382 140.627 94.1338Z" fill="#0848A8"/>
<path d="M141.772 89.4561C141.784 89.3802 141.795 89.3055 141.805 89.2328C142.131 89.1424 142.421 89.0448 142.665 88.9399C143.318 88.6574 144.069 88.2867 144.814 88.2867C144.946 88.2867 145.077 88.2981 145.208 88.3241C144.337 88.7987 143.13 89.1725 141.772 89.4561Z" fill="#0848A8"/>
<path d="M137.191 94.1338C137.23 92.9736 137.267 91.8494 137.301 90.7721C137.636 90.7431 137.984 90.6948 138.336 90.6257C138.13 91.377 137.923 92.04 137.737 92.5841C137.482 93.3382 137.278 93.8755 137.191 94.1338Z" fill="#0848A8"/>
<path d="M140.627 95.3032C140.653 95.2072 140.679 95.1097 140.704 95.0108C141.18 93.1312 141.443 91.3229 141.574 89.8579C141.583 89.759 141.591 89.6615 141.598 89.567C141.658 89.5306 141.716 89.4942 141.772 89.4564C141.767 89.5582 141.76 89.663 141.754 89.7692C141.654 91.2749 141.403 93.1589 140.908 95.1127C140.905 95.1228 140.902 95.133 140.9 95.1432C140.81 95.1999 140.719 95.2523 140.627 95.3032Z" fill="#8F9192"/>
<path d="M132.61 95.3032C132.54 95.2794 132.47 95.2556 132.4 95.2304C132.362 95.098 132.323 94.9642 132.286 94.8291C131.866 93.3022 131.607 91.819 131.465 90.6258C131.511 90.6364 131.559 90.647 131.606 90.6562C131.769 91.815 132.035 93.2426 132.44 94.7152C132.495 94.9152 132.552 95.1112 132.61 95.3032Z" fill="#8F9192"/>
<path d="M137.197 94.1338C137.195 94.1338 137.195 94.1338 137.194 94.1338C137.182 94.1239 137.207 94.0546 137.263 93.9293C137.4 93.6209 137.721 92.9793 138.122 92.0787C138.414 91.4289 138.741 90.6373 139.065 89.74C139.092 89.6675 139.118 89.5932 139.145 89.5174C139.258 89.4976 139.37 89.4778 139.482 89.4563C139.453 89.5355 139.425 89.6114 139.397 89.6872C139.033 90.6587 138.657 91.5081 138.317 92.1909C138.006 92.816 137.737 93.3108 137.534 93.639C137.408 93.8452 137.314 93.9919 137.256 94.0695C137.226 94.1123 137.205 94.1338 137.197 94.1338Z" fill="#8F9192"/>
<path d="M136.046 95.3032C135.971 95.3006 135.895 95.2968 135.82 95.2929C135.748 95.1754 135.673 95.0503 135.596 94.9186C134.974 93.8615 134.264 92.363 133.755 90.6258C133.86 90.6284 133.966 90.6296 134.074 90.6296C134.57 92.3179 135.23 93.7828 135.792 94.836C135.88 95.0012 135.965 95.1574 136.046 95.3032Z" fill="#8F9192"/>
<path d="M164.143 142.078C164.166 142.071 164.244 142.31 164.37 142.773C164.486 143.238 164.699 143.917 164.865 144.817C165.255 146.6 165.652 149.23 165.781 152.506C166.077 159.012 164.878 168.346 160.194 177.186C155.503 186.025 148.553 192.054 143.106 195.261C140.373 196.892 138.024 197.942 136.366 198.55C135.548 198.882 134.883 199.055 134.443 199.201C133.999 199.336 133.763 199.396 133.755 199.371C133.737 199.311 134.65 198.971 136.266 198.28C137.882 197.594 140.178 196.479 142.848 194.807C148.174 191.519 154.955 185.519 159.569 176.827C164.176 168.132 165.441 158.964 165.277 152.519C165.213 149.277 164.897 146.66 164.593 144.871C164.294 143.08 164.083 142.094 164.143 142.078Z" fill="#17282F"/>
<path d="M145.368 190.021C145.258 190.021 145.15 190.017 145.043 190.011C145.189 189.502 145.327 188.962 145.447 188.402C145.834 186.583 145.961 184.895 145.962 183.679C145.963 183.07 145.944 182.578 145.912 182.24C145.882 181.902 145.856 181.716 145.837 181.716C145.837 181.716 145.837 181.716 145.837 181.716C145.79 181.717 145.813 182.468 145.759 183.673C145.706 184.878 145.548 186.542 145.166 188.34C145.043 188.913 144.905 189.464 144.761 189.985C144.105 189.903 143.494 189.678 142.985 189.257C142.904 186.453 142.827 184.034 142.762 182.216C143.935 179.358 145.778 176.788 148.099 174.789C151.057 172.244 154.712 170.656 157.683 168.128C158.807 167.17 159.815 166.079 160.693 164.886C161.172 165.727 161.846 166.735 162.703 167.763C161.817 170.818 160.586 173.959 158.921 177.041C156.465 181.581 153.396 185.376 150.259 188.425C149.687 188.745 149.098 189.038 148.492 189.3C148.293 189.386 148.088 189.466 147.878 189.541C147.88 189.32 147.878 189.107 147.872 188.905C147.852 188.127 147.803 187.497 147.738 187.067C147.679 186.637 147.637 186.401 147.618 186.401C147.617 186.401 147.617 186.401 147.617 186.401C147.564 186.407 147.68 187.362 147.669 188.906C147.668 189.131 147.662 189.369 147.652 189.618C146.91 189.863 146.122 190.021 145.368 190.021ZM142.718 189.009C142.707 188.997 142.697 188.986 142.687 188.975C142.661 188.947 142.636 188.919 142.611 188.89C142.481 188.567 142.174 187.926 141.826 187.08C141.663 185.974 141.888 184.739 142.236 183.656C142.348 183.311 142.468 182.969 142.597 182.63C142.624 184.338 142.665 186.516 142.718 189.009ZM162.797 167.435C161.973 166.448 161.313 165.491 160.827 164.701C161.372 163.945 161.864 163.15 162.301 162.325C162.623 162.926 162.987 163.547 163.396 164.169C163.449 164.248 163.5 164.326 163.552 164.403C163.337 165.4 163.086 166.412 162.797 167.435ZM163.636 164.007L163.635 164.006C163.194 163.334 162.801 162.667 162.456 162.028C162.907 161.139 163.296 160.215 163.617 159.27C163.847 159.566 164.076 159.838 164.293 160.082C164.132 161.352 163.916 162.665 163.636 164.007ZM164.336 159.74C164.14 159.493 163.934 159.224 163.726 158.938C163.973 158.168 164.174 157.383 164.33 156.589C164.405 156.834 164.483 157.086 164.563 157.344C164.508 158.121 164.434 158.921 164.336 159.74ZM164.601 156.77C164.534 156.566 164.47 156.368 164.406 156.175C164.544 155.381 164.635 154.578 164.676 153.771C164.685 154.721 164.661 155.722 164.601 156.77Z" fill="#2477F4"/>
<path d="M147.703 188.852C147.743 188.671 147.766 188.498 147.77 188.334C147.817 187.212 147.336 186.517 147.558 186.513C147.558 186.513 147.558 186.513 147.56 186.513C147.64 186.513 147.815 186.685 148.06 186.998C148.328 187.31 148.532 187.768 148.617 188.333C148.64 188.481 148.649 188.635 148.642 188.796C148.33 188.815 148.017 188.835 147.703 188.852Z" fill="#CA9B24"/>
<path d="M145.477 190.021C145.386 190.014 145.297 190.006 145.208 189.995C145.346 189.481 145.478 188.938 145.594 188.372C145.959 186.598 146.109 184.956 146.159 183.767C146.211 182.578 146.189 181.837 146.234 181.836C146.234 181.836 146.234 181.836 146.234 181.836C146.252 181.836 146.277 182.019 146.305 182.353C146.336 182.686 146.354 183.172 146.353 183.773C146.352 184.973 146.231 186.638 145.862 188.433C145.747 188.986 145.617 189.518 145.477 190.021Z" fill="#CA9B24"/>
<path d="M142.918 188.852C142.27 188.189 141.917 187.381 141.772 186.513C142.279 187.606 142.727 188.434 142.918 188.852Z" fill="#CA9B24"/>
<path d="M163.431 167.804C162.498 166.626 161.763 165.47 161.242 164.507C161.292 164.436 161.34 164.367 161.388 164.296C161.917 165.201 162.636 166.297 163.533 167.427C163.5 167.552 163.465 167.68 163.431 167.804Z" fill="#CA9B24"/>
<path d="M164.534 164.295C164.444 164.22 164.356 164.143 164.266 164.066C163.563 163.453 162.939 162.841 162.387 162.249C162.477 162.152 162.565 162.054 162.652 161.957C163.244 162.586 163.918 163.243 164.676 163.905L164.678 163.906C164.631 164.037 164.583 164.165 164.534 164.295Z" fill="#CA9B24"/>
<path d="M164.61 159.618C164.265 159.368 163.9 159.091 163.533 158.788C163.592 158.675 163.649 158.562 163.706 158.449C164.038 158.741 164.366 159.016 164.678 159.269C164.656 159.384 164.632 159.502 164.61 159.618Z" fill="#CA9B24"/>
<path d="M153.225 186.513C155.664 183.924 157.978 180.887 159.918 177.406C161.474 174.61 162.656 171.762 163.533 168.973C163.113 170.756 162.593 172.513 161.94 174.231C160.142 178.964 157.202 183.429 153.225 186.513Z" fill="#2477F4"/>
<path d="M150.935 187.683C154.124 184.647 157.244 180.869 159.741 176.35C161.433 173.282 162.685 170.155 163.586 167.114C163.618 167.006 163.65 166.895 163.681 166.787C163.975 165.769 164.231 164.761 164.449 163.768C164.479 163.637 164.507 163.507 164.535 163.375C164.819 162.039 165.038 160.731 165.202 159.468C165.216 159.354 165.232 159.239 165.246 159.127C165.345 158.311 165.421 157.515 165.477 156.741C165.491 156.549 165.504 156.358 165.515 156.17C165.577 155.126 165.6 154.13 165.592 153.185C165.623 152.602 165.626 152.017 165.603 151.432L165.823 153.281C165.516 158.296 165.118 163.365 163.977 168.242C163.105 171.04 161.928 173.897 160.38 176.702C158.45 180.194 156.148 183.24 153.721 185.838C152.843 186.524 151.913 187.144 150.935 187.683Z" fill="#111D23"/>
<path d="M200.039 146.753C199.942 146.839 198.99 142.992 199.038 137.966C199.061 132.936 200.069 129.128 200.165 129.216C200.305 129.282 199.517 133.094 199.498 137.975C199.448 142.852 200.18 146.694 200.039 146.753Z" fill="#17282F"/>
<path d="M204.747 144.413C204.601 144.54 201.956 141.348 200.803 136.624C199.604 131.91 200.476 127.988 200.667 128.046C200.929 128.061 200.452 131.9 201.616 136.457C202.724 141.022 204.976 144.296 204.747 144.413Z" fill="#17282F"/>
<path d="M273.477 104.653C273.417 104.709 272.994 104.317 272.104 103.931C271.236 103.553 269.806 103.218 268.267 103.614L267.544 103.799L267.909 103.201C268.384 102.42 268.743 101.483 268.91 100.466C269.278 98.2913 268.689 96.279 267.973 94.9968C267.281 93.6843 266.522 93.0439 266.617 92.9671C266.649 92.9222 267.549 93.4641 268.393 94.794C269.257 96.0863 269.973 98.2247 269.576 100.559C269.4 101.647 268.994 102.653 268.454 103.482L268.098 103.068C269.862 102.667 271.409 103.134 272.286 103.627C273.188 104.133 273.52 104.624 273.477 104.653Z" fill="#B85549"/>
<path d="M282.472 98.555C283.768 95.3107 296.794 89.5904 295.087 87.557C292.86 84.9089 281.754 94.1538 280.76 94.8639C279.793 95.554 278.759 94.1069 279.691 93.5163C281.028 92.6654 294.869 83.375 292.707 80.7511C291.51 79.2969 289.187 81.8083 289.187 81.8083C289.187 81.8083 276.842 91.4915 275.861 90.2165C274.865 88.9231 281.933 82.9851 284.45 81.1566C286.936 79.3509 287.135 77.3901 285.464 76.9106C284.324 76.5847 276.491 81.9933 274.041 83.8617C271.592 85.7286 264.96 90.9764 266.238 85.6318C267.515 80.2872 266.571 75.6954 265.487 74.6467C264.401 73.598 262.594 74.8046 262.897 76.478C263.143 77.8312 262.879 80.2246 262.611 82.0161C262.39 83.4917 261.798 84.8577 261.259 86.2422C260.684 87.7193 259.012 91.0732 255.156 94.0044L268.915 110.505L270.679 109.288C277.474 104.583 283.863 102.773 287.547 100.607C294.402 96.5771 294.071 95.9339 293.493 95.1855C291.938 93.1734 281.18 101.799 282.472 98.555Z" fill="#C0776A"/>
<path d="M287.31 92.4243L289.351 81.5804C289.351 81.5804 295.292 81.4817 294.839 86.3532C294.386 91.2248 287.31 92.4243 287.31 92.4243ZM264.318 71.9333L268.746 101.15L286.097 100.861L286.903 95.4034C286.903 95.4034 296.727 95.3681 297.483 86.9318C298.241 78.4941 289.816 78.3756 289.816 78.3756L291.096 70.7465L264.318 71.9333Z" fill="#7C8EB5"/>
<path d="M276.476 32.1598C276.495 32.1413 276.605 32.2325 276.802 32.4233C276.997 32.6185 277.249 32.9432 277.494 33.4104C277.985 34.3434 278.275 35.9216 277.928 37.7662C277.655 39.6364 276.601 41.6448 275.576 43.7942C275.074 44.8781 274.596 46.0376 274.357 47.2796C274.111 48.5189 274.187 49.8364 274.664 51.0856C275.627 53.6125 277.601 55.4798 279.2 57.2931C280.826 59.0949 282.139 61.0093 282.495 62.9009C282.877 64.7654 282.461 66.3465 281.91 67.2396C281.645 67.6968 281.351 67.9902 281.147 68.174C280.931 68.3449 280.81 68.4247 280.794 68.4047C280.737 68.3492 281.222 68.003 281.653 67.1014C282.094 66.224 282.398 64.7426 281.979 63.0134C281.59 61.2842 280.318 59.4995 278.688 57.7489C277.091 55.9812 275.021 54.0911 273.962 51.342C273.439 49.9803 273.36 48.4776 273.638 47.1429C273.909 45.8011 274.426 44.6004 274.953 43.505C276.037 41.3172 277.084 39.4398 277.408 37.6665C277.804 35.9173 277.611 34.4431 277.231 33.5301C276.842 32.6113 276.419 32.2068 276.476 32.1598Z" fill="#17282F"/>
<path d="M271.895 32.1595C271.914 32.1424 272.024 32.2321 272.222 32.4244C272.415 32.6196 272.669 32.9429 272.915 33.4101C273.405 34.3445 273.695 35.9227 273.346 37.7672C273.075 39.6374 272.02 41.6443 270.996 43.7936C270.492 44.879 270.016 46.0384 269.775 47.2805C269.532 48.5197 269.606 49.8372 270.082 51.0863C271.046 53.6131 273.021 55.4791 274.62 57.2937C276.245 59.0955 277.56 61.0084 277.914 62.9014C278.295 64.7644 277.879 66.3454 277.33 67.2371C277.063 67.6972 276.771 67.9906 276.567 68.1729C276.349 68.3452 276.23 68.4236 276.213 68.4051C276.156 68.3481 276.642 68.0034 277.073 67.1018C277.512 66.2244 277.818 64.7416 277.398 63.0139C277.009 61.2847 275.737 59.4986 274.106 57.748C272.512 55.9818 270.441 54.0917 269.382 51.3413C268.857 49.9796 268.779 48.4784 269.057 47.1437C269.328 45.802 269.844 44.6012 270.372 43.5031C271.458 41.3181 272.504 39.4408 272.827 37.6675C273.223 35.9184 273.029 34.4442 272.649 33.5283C272.261 32.6125 271.839 32.2079 271.895 32.1595Z" fill="#17282F"/>
<path d="M265.47 84.0804C265.437 84.0742 265.511 83.609 266.05 83.1047C266.578 82.6176 267.609 82.2213 268.818 82.5769C270.03 82.9371 271.142 84.0569 272.231 85.241C273.305 86.3827 274.66 87.6936 276.283 87.4415C277.892 87.1972 279.243 85.9144 280.666 85.194C281.379 84.8197 282.125 84.5612 282.855 84.5268C283.583 84.5127 284.249 84.6959 284.802 84.981C285.914 85.5605 286.574 86.4548 286.89 87.1189C287.21 87.7923 287.249 88.2199 287.213 88.2309C287.156 88.2544 287.027 87.8691 286.658 87.2927C286.295 86.721 285.629 85.9693 284.609 85.5135C284.101 85.2895 283.508 85.1642 282.883 85.2034C282.262 85.2598 281.604 85.5057 280.945 85.8737C279.616 86.5644 278.29 87.9286 276.363 88.2528C275.405 88.3969 274.442 88.0727 273.699 87.5542C272.942 87.0421 272.332 86.3968 271.782 85.7876C270.705 84.5581 269.713 83.5103 268.677 83.1297C267.647 82.7554 266.715 83.0123 266.207 83.3662C265.686 83.7296 265.523 84.1196 265.47 84.0804Z" fill="#FAFAF9"/>
<path d="M264.324 80.5689C264.293 80.563 264.376 80.096 264.972 79.5934C265.555 79.1071 266.691 78.7127 268.021 79.07C269.354 79.4347 270.581 80.56 271.783 81.7536C272.97 82.9026 274.473 84.2325 276.28 83.979C278.068 83.7284 279.562 82.4341 281.132 81.7091C281.919 81.331 282.738 81.0716 283.544 81.0375C284.345 81.0226 285.078 81.2065 285.687 81.4911C286.912 82.0708 287.644 82.9678 287.994 83.6321C288.35 84.3081 288.395 84.7381 288.359 84.747C288.299 84.7707 288.16 84.3793 287.753 83.7966C287.353 83.2199 286.619 82.4563 285.487 81.9952C284.925 81.7684 284.266 81.6394 283.572 81.6779C282.88 81.7328 282.151 81.9819 281.422 82.3526C279.949 83.0494 278.483 84.4208 276.364 84.744C275.31 84.8893 274.252 84.5646 273.433 84.0442C272.599 83.5312 271.925 82.8833 271.317 82.2695C270.127 81.0315 269.026 79.9744 267.875 79.5949C266.73 79.2183 265.696 79.4792 265.135 79.841C264.559 80.2116 264.382 80.606 264.324 80.5689Z" fill="#FAFAF9"/>
<path d="M134.901 228.875L158.809 263.691L421.223 263.559L421.078 232.829L288.372 219.796L178.119 202.885L134.901 228.875Z" fill="#17282F"/>
<path d="M177.276 204.229L195.98 177.805L248.677 111.226C256.042 103.104 266.721 99.0084 277.49 100.177C290.679 101.609 301.884 110.678 306.282 123.48L341.052 232.119L294.954 224.719L271.519 157.509L234.591 210.278L177.276 204.229Z" fill="#17282F"/>
<path d="M341.052 225.092C341.051 225.106 340.912 225.106 340.643 225.095C340.334 225.076 339.939 225.055 339.448 225.025C338.346 224.946 336.81 224.835 334.857 224.694C330.82 224.368 325.069 223.905 317.984 223.335C303.698 222.113 284.047 220.432 262.34 218.574C251.476 217.613 241.13 216.698 231.711 215.866C227.004 215.424 222.534 215.084 218.347 214.618C214.164 214.129 210.286 213.478 206.795 212.637C203.314 211.798 200.182 210.779 197.677 209.353C195.173 207.942 193.246 206.319 191.913 204.786C190.565 203.261 189.773 201.87 189.324 200.9C188.868 199.93 188.729 199.378 188.729 199.378C188.843 199.303 189.407 201.608 192.121 204.593C193.465 206.074 195.385 207.636 197.869 208.99C200.349 210.36 203.44 211.328 206.912 212.128C210.383 212.933 214.246 213.551 218.412 214.013C222.581 214.45 227.069 214.771 231.772 215.191C241.192 216.006 251.54 216.902 262.405 217.842C284.104 219.782 303.747 221.539 318.028 222.818C325.104 223.484 330.847 224.028 334.88 224.409C336.829 224.608 338.362 224.767 339.46 224.879C339.948 224.936 340.341 224.983 340.649 225.019C340.916 225.055 341.054 225.079 341.052 225.092Z" fill="#7C8EB5"/>
<path d="M274.615 133.893C274.699 133.94 274.29 135.248 273.743 137.401C273.196 139.554 272.553 142.573 272.145 145.977C271.743 149.385 271.657 152.51 271.68 154.771C271.702 157.032 271.788 158.434 271.696 158.449C271.627 158.46 271.392 157.073 271.261 154.79C271.131 152.511 271.151 149.329 271.56 145.866C271.973 142.406 272.694 139.357 273.349 137.226C274.003 135.092 274.55 133.855 274.615 133.893Z" fill="#7C8EB5"/>
<path d="M264.375 142.078C264.609 142.042 265.104 146.068 267.011 150.597C268.879 155.146 271.367 158.296 271.18 158.444C271.058 158.584 268.238 155.577 266.315 150.902C264.357 146.243 264.192 142.072 264.375 142.078Z" fill="#7C8EB5"/>
<path d="M414.338 242.644C414.505 242.722 413.035 247.177 412.682 253.056C412.285 258.933 413.169 263.652 412.994 263.691C412.931 263.713 412.629 262.566 412.373 260.635C412.117 258.709 411.953 255.986 412.142 252.995C412.335 250.007 412.842 247.36 413.34 245.518C413.835 243.671 414.279 242.609 414.338 242.644Z" fill="#7C8EB5"/>
<path d="M145.206 86.9545C145.223 86.9719 145.149 87.0817 144.989 87.2783C144.836 87.4807 144.577 87.7453 144.222 88.0647C143.51 88.6965 142.322 89.4366 140.72 89.9382C137.49 90.9791 132.842 90.729 127.906 89.9108C122.943 89.0593 118.599 87.5328 115.58 86.1739C114.063 85.5046 112.876 84.87 112.065 84.4161C111.26 83.9463 110.828 83.6658 110.85 83.6181C110.903 83.5068 112.715 84.4667 115.766 85.6795C118.808 86.9025 123.119 88.3264 128.02 89.1677C132.911 89.9787 137.463 90.2996 140.588 89.4236C143.754 88.6054 145.121 86.8157 145.206 86.9545Z" fill="#17282F"/>
<path d="M872.954 121.215C880.397 117.283 889.159 116.773 897.42 118.17C901.86 118.924 906.488 120.283 909.509 123.695C912.527 127.109 913.099 133.115 909.631 136.047C907.567 137.793 904.689 138.06 902.011 138.027C895.544 137.949 888.367 136.785 883.201 140.769C880.252 143.042 878.289 146.819 874.765 147.936C871.316 149.032 867.426 146.948 865.597 143.761C863.767 140.576 863.707 136.592 864.56 133.002C864.56 133.002 865.458 125.175 872.954 121.215Z" fill="#2477F4"/>
<path d="M855.906 87.5187C860.454 94.1719 869.301 91.9711 873.4 87.9089C877.501 83.8486 879.233 77.9622 880.813 72.3483C884.417 59.5217 888.052 46.0684 885.37 33.0075C884.57 29.1032 883.143 25.2098 880.465 22.3138C877.783 19.416 873.663 17.6937 869.895 18.7111C865.435 19.9175 862.662 24.3886 860.66 28.6435C854.772 41.1467 851.654 55.007 851.607 68.8873C851.586 75.3696 852.331 82.168 855.906 87.5187Z" fill="#2477F4"/>
<path d="M843.409 97.0662C848.349 91.0651 849.286 82.3064 847.087 74.7885C844.89 67.267 839.923 60.8682 834.198 55.645C827.486 49.5206 819.598 44.7551 811.115 41.7029C807.779 40.502 804.258 39.5536 800.735 39.897C797.214 40.2422 793.667 42.0862 792.025 45.2929C789.596 50.0365 791.924 55.7903 794.442 60.4831C798.881 68.7513 803.955 76.6616 809.603 84.1159C814.146 90.1149 819.353 96.0301 826.278 98.7411C833.203 101.45 840.397 101.133 844.069 96.2161" fill="#2477F4"/>
<path d="M855.597 187.89C855.682 187.895 855.821 186.817 856.007 184.866C856.218 182.666 856.481 179.903 856.793 176.614C857.169 173.142 857.663 169.013 858.605 164.513C859.546 160.025 861.015 155.162 862.901 150.229C864.857 145.325 867.24 140.869 870.028 137.304C872.793 133.724 876.011 131.131 879.035 129.637C882.048 128.111 884.753 127.492 886.62 127.217C888.506 127.021 889.562 126.869 889.562 126.783C889.564 126.696 888.506 126.684 886.57 126.734C884.651 126.867 881.837 127.363 878.658 128.844C875.471 130.29 872.059 132.922 869.159 136.576C866.232 140.215 863.762 144.77 861.771 149.76C859.851 154.78 858.403 159.694 857.505 164.278C856.61 168.857 856.202 173.035 855.932 176.535C855.679 180.039 855.581 182.876 855.535 184.837C855.49 186.8 855.514 187.885 855.597 187.89Z" fill="#17282F"/>
<path d="M856.15 181.539C856.195 181.538 856.221 181.056 856.23 180.137C856.227 179.083 856.223 177.755 856.221 176.126C856.213 172.645 856.214 167.604 856.395 161.386C856.695 148.941 857.742 135.549 859.764 116.669C861.678 98.917 864.248 78.2566 866.958 64.8232C867.538 61.7692 868.126 59.0186 868.676 56.6113C869.203 54.1986 869.652 52.1184 870.083 50.4342C870.456 48.85 870.759 47.5601 871.001 46.5354C871.196 45.6416 871.279 45.1637 871.238 45.151C871.199 45.1401 871.036 45.5925 870.763 46.4682C870.465 47.4765 870.089 48.7501 869.625 50.3107C869.121 51.9785 868.603 54.046 868.014 56.4496C867.398 58.846 866.752 61.5893 866.115 64.6397C863.434 76.8104 860.592 93.8229 858.552 112.747C856.525 131.667 855.614 148.894 855.533 161.368C855.462 167.604 855.59 172.655 855.746 176.138C855.843 177.768 855.923 179.094 855.985 180.147C856.055 181.064 856.11 181.543 856.15 181.539Z" fill="#17282F"/>
<path d="M856.232 148.316C856.318 148.312 856.303 146.824 856.206 144.126C856.055 141.432 855.693 137.54 854.951 132.771C854.165 128.013 853.068 122.366 851.343 116.228C850.598 113.422 848.841 106.7 844.587 96.6553C838.983 83.0439 831.368 71.916 824.743 65.0231C823.19 63.1936 821.46 61.8728 820.074 60.5792C819.359 59.9597 818.727 59.342 818.081 58.8515C817.433 58.3936 816.83 57.9685 816.271 57.5743C814.09 56.0463 812.869 55.2433 812.823 55.3142C812.627 55.5867 817.706 58.648 824.12 65.6317C830.507 72.601 837.909 83.6525 843.469 97.1491C846.568 104.469 848.731 111.001 850.264 116.543C852.035 122.622 853.212 128.213 854.101 132.922C854.947 137.642 855.435 141.495 855.732 144.164C855.975 146.837 856.149 148.317 856.232 148.316Z" fill="#17282F"/>
<path d="M824.865 206.925L828.116 252.536H885.354L888.605 206.925H824.865Z" fill="#17282F"/>
<path d="M819.335 188.948V206.925H895.434V188.948H819.335Z" fill="#17282F"/>
<path d="M819.335 250.791V255.775H894.176V250.791H819.335Z" fill="#7C8EB5"/>
<path d="M826.416 264.546L822.911 255.776H891.45L887.361 264.546H826.416Z" fill="#7C8EB5"/>
<path d="M887.542 221.832C887.555 221.843 887.464 221.985 887.276 222.252C887.049 222.559 886.765 222.941 886.419 223.411C885.606 224.477 884.49 225.94 883.084 227.78L882.937 227.975L882.793 227.772C880.697 224.804 877.897 220.84 874.602 216.173H875.074C872.637 219.705 869.922 223.64 867.01 227.862L866.756 228.231L866.474 227.886C863.496 224.259 860.264 220.323 856.908 216.235L857.46 216.227C857.293 216.442 857.112 216.673 856.933 216.905C853.966 220.713 851.096 224.396 848.381 227.882L848.095 228.247L847.833 227.866C844.928 223.66 842.216 219.732 839.763 216.178L840.234 216.2C836.257 220.839 832.883 224.774 830.296 227.791L830.118 227.999L829.983 227.768C828.674 225.513 827.63 223.717 826.872 222.414C826.548 221.834 826.283 221.364 826.074 220.989C825.9 220.664 825.816 220.492 825.831 220.482C825.845 220.472 825.96 220.626 826.164 220.933C826.397 221.294 826.688 221.745 827.048 222.305C827.841 223.584 828.938 225.348 830.313 227.559L830.003 227.533C832.549 224.477 835.868 220.497 839.781 215.802L840.028 215.506L840.25 215.823C842.725 219.361 845.462 223.273 848.39 227.459L847.843 227.444C850.552 223.954 853.416 220.265 856.374 216.451C856.555 216.219 856.736 215.988 856.901 215.773L857.174 215.425L857.455 215.766C860.802 219.863 864.023 223.807 866.992 227.441L866.456 227.462C869.398 223.259 872.14 219.345 874.602 215.83L874.841 215.49L875.074 215.83C878.3 220.548 881.04 224.554 883.091 227.555L882.8 227.546C884.261 225.751 885.425 224.325 886.27 223.288C886.646 222.842 886.951 222.481 887.2 222.186C887.413 221.943 887.528 221.822 887.542 221.832Z" fill="#D4DFF4"/>
<path d="M889.402 206.623C889.402 206.825 875.059 206.989 857.373 206.989C839.678 206.989 825.341 206.825 825.341 206.623C825.341 206.423 839.678 206.258 857.373 206.258C875.059 206.258 889.402 206.423 889.402 206.623Z" fill="#7C8EB5"/>
<path d="M892.293 256.265C892.293 256.467 876.704 256.629 857.483 256.629C838.253 256.629 822.67 256.467 822.67 256.265C822.67 256.063 838.253 255.899 857.483 255.899C876.704 255.899 892.293 256.063 892.293 256.265Z" fill="#17282F"/>
<path d="M612.255 183.865C612.255 183.865 613.908 183.367 616.969 183.613C619.968 183.859 624.555 185.143 628.549 189.135C630.505 191.114 632.3 193.728 633.322 196.905C634.322 200.063 634.731 203.741 633.916 207.425C633.561 209.272 632.891 211.099 631.964 212.823C631.06 214.562 629.865 216.194 628.414 217.607C625.569 220.499 621.661 222.458 617.456 223.08C613.239 223.629 608.961 222.807 605.464 220.795C603.698 219.829 602.121 218.583 600.796 217.153C599.454 215.744 598.332 214.165 597.509 212.483C595.764 209.152 595.202 205.497 595.344 202.179C595.502 198.837 596.553 195.829 597.922 193.388C600.734 188.451 604.82 185.963 607.646 184.908C610.533 183.836 612.255 183.865 612.255 183.865C612.283 184 610.578 184.141 607.805 185.312C605.085 186.467 601.208 188.99 598.595 193.779C597.323 196.148 596.361 199.038 596.249 202.226C596.154 205.39 596.721 208.862 598.402 212.004C599.192 213.593 600.265 215.081 601.545 216.407C602.804 217.755 604.303 218.927 605.977 219.832C609.291 221.723 613.324 222.487 617.308 221.97C621.282 221.378 624.969 219.544 627.669 216.818C629.047 215.489 630.185 213.95 631.048 212.308C631.936 210.682 632.582 208.955 632.931 207.207C633.733 203.721 633.376 200.221 632.461 197.196C631.525 194.155 629.846 191.632 628.003 189.695C624.238 185.79 619.843 184.417 616.922 184.046C613.944 183.671 612.263 184.003 612.255 183.865Z" fill="#D4DFF4"/>
<path d="M619.482 158.845C619.472 158.858 619.382 158.647 619.211 158.219C619.026 157.744 618.78 157.109 618.459 156.286C617.787 154.507 616.818 151.943 615.56 148.618L615.746 148.732C611.243 149.385 605.323 150.243 598.16 151.28L598.399 151.024C598.126 154.342 597.825 158.028 597.501 161.971L597.484 162.169L597.304 162.246C593.976 163.68 590.598 165.642 587.397 168.204L587.226 168.342L587.026 168.25C583.978 166.837 580.677 165.308 577.245 163.718L577.716 163.597C574.339 168.162 570.754 173.006 566.992 178.091L566.98 177.541C569.12 180.146 571.477 183.013 573.892 185.952L574.068 186.167L573.963 186.426C572.605 189.8 571.542 193.698 571.056 197.773L571.021 198.062L570.753 198.164C567.638 199.362 564.204 200.681 560.706 202.026L561.019 201.492C561.776 207.151 562.592 213.253 563.429 219.508L562.969 219.06C566.299 219.357 569.955 219.683 573.659 220.014L573.972 220.041L574.094 220.339C575.473 223.728 577.421 227.248 579.864 230.452L580.062 230.711L579.928 231.01C578.536 234.143 577.015 237.56 575.48 241.013L575.317 240.35C579.794 243.835 584.593 247.571 589.455 251.357L588.777 251.374C591.376 249.143 594.181 246.736 597.006 244.312L597.261 244.092L597.565 244.223C600.924 245.646 604.715 246.716 608.611 247.21L608.617 247.211H608.619C608.818 247.372 608.177 246.853 609.066 247.571L609.07 247.581L609.077 247.601L609.092 247.642L609.121 247.723L609.179 247.886L609.298 248.209L609.535 248.857L610.008 250.151L610.949 252.732C611.577 254.449 612.2 256.161 612.822 257.864L612.237 257.505C618.185 256.68 624.056 255.866 629.84 255.064L629.373 255.565C629.693 251.881 630.007 248.231 630.318 244.62L630.348 244.289L630.648 244.161C634.222 242.641 637.551 240.642 640.533 238.269L640.788 238.068L641.08 238.205C644.382 239.749 647.634 241.27 650.844 242.771L650.215 242.933C653.891 237.997 657.482 233.175 660.984 228.474L661 229.117C658.662 226.256 656.369 223.446 654.113 220.684L653.923 220.451L654.035 220.171C655.533 216.47 656.508 212.644 656.978 208.841L657.014 208.548L657.282 208.446C660.73 207.132 664.074 205.86 667.34 204.617L667.048 205.116C666.221 198.775 665.441 192.789 664.698 187.091L665.076 187.461C661.316 187.112 657.789 186.785 654.387 186.469L654.149 186.448L654.059 186.223C652.49 182.346 650.514 178.985 648.304 176.054L648.17 175.876L648.261 175.674C649.891 172.046 651.36 168.778 652.747 165.689L652.844 166.09C647.388 161.799 642.738 158.142 638.757 155.012L639.063 155.005C635.759 157.804 633.049 160.099 630.791 162.009L630.707 162.081L630.61 162.038C627.011 160.498 624.174 159.808 622.299 159.4C621.39 159.222 620.694 159.088 620.183 158.989C619.696 158.905 619.472 158.857 619.482 158.845C619.492 158.834 619.736 158.851 620.196 158.896C620.669 158.953 621.385 159.043 622.334 159.218C624.228 159.568 627.094 160.205 630.745 161.706L630.564 161.735C632.798 159.793 635.479 157.462 638.749 154.621L638.898 154.491L639.055 154.614C643.061 157.707 647.742 161.321 653.236 165.562L653.442 165.722L653.335 165.963C651.969 169.061 650.52 172.34 648.914 175.98L648.871 175.602C651.135 178.567 653.167 181.976 654.783 185.914L654.456 185.668C657.86 185.967 661.389 186.277 665.15 186.607L665.482 186.635L665.528 186.975C666.293 192.671 667.098 198.654 667.95 204.991L668 205.358L667.658 205.489C664.396 206.744 661.058 208.029 657.613 209.353L657.917 208.959C657.447 212.849 656.463 216.765 654.941 220.554L654.864 220.04C657.125 222.796 659.428 225.6 661.771 228.456L662.029 228.77L661.785 229.099C658.292 233.807 654.711 238.636 651.043 243.579L650.791 243.919L650.412 243.741C647.199 242.246 643.945 240.729 640.64 239.191L641.184 239.125C638.13 241.561 634.723 243.613 631.06 245.175L631.388 244.717C631.08 248.328 630.767 251.976 630.453 255.661L630.416 256.102L629.986 256.162C624.202 256.967 618.331 257.786 612.384 258.614L611.951 258.673L611.799 258.255C611.177 256.552 610.553 254.842 609.926 253.124L608.984 250.543L608.51 249.249L608.275 248.601L608.155 248.277L608.097 248.115L608.068 248.034L608.052 247.994L608.045 247.972L608.041 247.962C608.929 248.681 608.286 248.162 608.483 248.322H608.48L608.475 248.321C604.479 247.815 600.591 246.716 597.149 245.256L597.708 245.168C594.881 247.591 592.075 249.997 589.476 252.227L589.143 252.511L588.798 252.242C583.937 248.452 579.142 244.713 574.668 241.223L574.326 240.957L574.505 240.558C576.044 237.108 577.568 233.692 578.967 230.56L579.029 231.116C576.532 227.831 574.54 224.222 573.134 220.749L573.567 221.073C569.865 220.736 566.208 220.401 562.88 220.098L562.474 220.06L562.42 219.649C561.598 213.391 560.796 207.287 560.053 201.626L560 201.229L560.366 201.091C563.866 199.758 567.305 198.447 570.424 197.261L570.121 197.652C570.631 193.489 571.73 189.512 573.128 186.073L573.2 186.547C570.795 183.598 568.449 180.721 566.319 178.109L566.098 177.837L566.307 177.558C570.093 172.49 573.698 167.662 577.095 163.114L577.285 162.86L577.567 162.993C580.992 164.603 584.284 166.15 587.325 167.58L586.955 167.624C590.224 165.039 593.671 163.069 597.058 161.64L596.862 161.914C597.216 157.973 597.547 154.289 597.846 150.974L597.866 150.747L598.085 150.718C605.259 149.765 611.189 148.977 615.699 148.378L615.839 148.359L615.887 148.493C617.058 151.818 617.962 154.38 618.588 156.159C618.879 157.005 619.103 157.66 619.269 158.148C619.42 158.598 619.492 158.834 619.482 158.845Z" fill="#D4DFF4"/>
<path fill-rule="evenodd" clip-rule="evenodd" d="M519.561 65.1998C505.133 67.2022 495.021 80.7934 496.979 95.5576C498.937 110.32 512.223 120.664 526.651 118.663C541.081 116.659 551.19 103.066 549.232 88.3035C547.273 73.5407 533.991 63.196 519.561 65.1998ZM529.561 30.602C534.945 31.2936 540.148 32.7185 545.051 34.7878L556.437 25.0247L575.995 40.2551L569.833 54.0856C573.089 58.3674 575.82 63.1181 577.904 68.2473L592.698 69.5804L596 94.5L582.091 99.8185C581.418 105.33 580.022 110.653 577.998 115.67L587.54 127.321L572.657 147.328L559.138 141.025C554.954 144.356 550.309 147.146 545.296 149.281L543.994 164.416L519.637 167.799L514.439 153.567C509.052 152.878 503.851 151.45 498.948 149.38L487.559 159.144L468.002 143.914L474.166 130.082C470.911 125.799 468.184 121.048 466.095 115.92L451.305 114.586L448 89.6672L461.909 84.3502C462.582 78.8383 463.976 73.5129 466.002 68.4978L456.459 56.8464L471.342 36.8389L484.861 43.1439C489.047 39.8112 493.689 37.0198 498.704 34.8852L500.006 19.7522L524.359 16.3707L529.561 30.602Z" fill="#D4DFF4"/>
<path fill-rule="evenodd" clip-rule="evenodd" d="M662.915 76.8916C654.152 73.219 644.137 77.5095 640.548 86.477C636.958 95.4433 641.154 105.69 649.916 109.363C658.681 113.036 668.695 108.743 672.284 99.7767C675.873 90.81 671.679 80.5642 662.915 76.8916ZM679.544 60.732C682.356 62.9126 684.834 65.4465 686.938 68.2433L696.454 66.5328L702.629 81.6185L694.762 87.358C695.235 90.853 695.264 94.4375 694.808 98.0202L702.716 103.693L696.656 118.828L687.132 117.195C685.001 120.076 682.523 122.609 679.789 124.762L681.46 134.499L666.719 140.816L661.108 132.768C657.692 133.252 654.189 133.278 650.687 132.812L645.143 140.904L630.349 134.705L631.945 124.959C629.13 122.779 626.654 120.244 624.551 117.447L615.032 119.157L608.858 104.072L616.726 98.332C616.253 94.8365 616.227 91.2533 616.681 87.6701L608.774 81.9973L614.832 66.8628L624.357 68.4959C626.487 65.6151 628.965 63.0797 631.7 60.9288L630.028 51.1912L644.77 44.874L650.38 52.9232C653.797 52.4388 657.299 52.4113 660.802 52.8775L666.345 44.7872L681.137 50.9854L679.544 60.732Z" fill="#E9EEF9"/>
</svg>
