<svg width="34" height="34" viewBox="0 0 34 34" xmlns="http://www.w3.org/2000/svg">
<g clip-path="url(#clip0_279_1818)">
<rect x="2" y="2" width="30" height="30" rx="8" />
<path d="M14.1586 24C13.7584 24 13.3782 23.8437 13.098 23.5703L7.43522 18.0426C6.85493 17.4761 6.85493 16.5385 7.43522 15.9721C8.01551 15.4057 8.97599 15.4057 9.55628 15.9721L14.1586 20.4646L24.4437 10.4248C25.024 9.85839 25.9845 9.85839 26.5648 10.4248C27.1451 10.9913 27.1451 11.9288 26.5648 12.4953L15.2191 23.5703C14.939 23.8437 14.5588 24 14.1586 24Z" fill="white"/>
</g>
<rect x="1" y="1" width="32" height="32" rx="9" stroke="#2477F4" stroke-width="2"/>
<defs>
<clipPath id="clip0_279_1818">
<rect x="2" y="2" width="30" height="30" rx="8" fill="white"/>
</clipPath>
</defs>
</svg>
