<svg width="130" height="130" viewBox="0 0 130 130" fill="none" xmlns="http://www.w3.org/2000/svg">
<path d="M40.4842 76.3115L44.2167 72.1574L29.0573 69.7899C29.0573 69.7899 33.6987 86.0303 28.9447 94.2335L34.4454 95.7216L36.5311 98.0749L39.234 97.8295L38.8733 80.6558C38.8394 79.0537 39.4159 77.5016 40.4842 76.3115Z" fill="#ADB9D5"/>
<path d="M104.761 68.3575C101.842 87.3978 92.8661 101.801 84.7136 100.529C76.5613 99.2556 72.3192 82.7882 75.2394 63.7479C78.1587 44.7067 87.1344 30.303 95.2864 31.5755C103.439 32.8488 107.68 49.3163 104.761 68.3575Z" fill="#D4DFF4"/>
<mask id="mask0_1_2319" style="mask-type:luminance" maskUnits="userSpaceOnUse" x="74" y="31" width="32" height="70">
<path d="M104.761 68.3573C101.842 87.3976 92.8653 101.801 84.7134 100.528C76.561 99.2553 72.3189 82.7879 75.2391 63.7476C78.1584 44.7064 87.1341 30.3027 95.2861 31.5752C103.439 32.8486 107.68 49.316 104.761 68.3573Z" fill="white"/>
</mask>
<g mask="url(#mask0_1_2319)">
<path d="M112.538 63.4911C112.538 63.4911 89.1123 46.4063 69.7838 74.9203C69.7838 74.9203 63.0376 24.9202 84.9666 20.3343C106.896 15.7479 112.538 63.4911 112.538 63.4911Z" fill="#ADB9D5"/>
</g>
<path d="M26.3465 69.6475C26.3465 69.6475 30.9879 85.8878 26.2339 94.0911L36.5312 98.075L36.1623 80.5136C36.1285 78.9113 36.7046 77.3587 37.7736 76.1689L41.506 72.0148L26.3465 69.6475Z" fill="#D4DFF4"/>
<path d="M32.0013 62.6365L27.0175 63.9655C22.3514 65.2091 17.5493 62.4322 16.2924 57.7625C15.035 53.0933 17.7984 48.2997 22.4635 47.0553L27.447 45.7266L32.0013 62.6365Z" fill="#343B83"/>
<path d="M39.6034 75.0826L32.3293 73.9468C25.9873 72.9564 21.6346 67.0149 22.6062 60.6753L23.9639 51.8167C24.936 45.4776 30.8665 41.1414 37.2085 42.1318L44.9716 43.3438C48.6614 43.9198 49.0054 49.51 48.4395 53.1977L47.2227 66.4316C46.4086 71.7399 42.6758 75.5622 39.6034 75.0826Z" fill="#2477F4"/>
<path d="M49.7517 60.3785C48.4049 69.1643 44.0804 75.7815 40.0928 75.1589C36.1058 74.5364 33.966 66.9101 35.3128 58.1234C36.6602 49.3379 40.9845 42.7208 44.9713 43.3434C48.9587 43.9655 51.099 51.5931 49.7517 60.3785Z" fill="#1864D8"/>
<path d="M86.1341 65.1155C85.3135 70.4636 80.3116 74.1216 74.9621 73.2857C69.6116 72.4507 65.9391 67.4382 66.7588 62.0901C67.5789 56.7424 72.5812 53.084 77.9313 53.9194C83.2818 54.7554 86.9542 59.7679 86.1341 65.1155Z" fill="#343B83"/>
<path d="M44.2995 47.4164C44.2995 47.4164 70.3492 47.5727 85.7128 36.6662C85.7128 36.6662 70.3953 53.2438 76.9342 92.3059C76.9342 92.3059 62.0558 75.4687 40.7693 70.4341C40.7693 70.4341 36.3054 57.3827 44.2995 47.4164Z" fill="#D4DFF4"/>
<mask id="mask1_1_2319" style="mask-type:luminance" maskUnits="userSpaceOnUse" x="39" y="36" width="47" height="57">
<path d="M44.3011 47.4176C44.3011 47.4176 70.3507 47.5739 85.7144 36.6674C85.7144 36.6674 70.3969 53.245 76.9358 92.3071C76.9358 92.3071 62.0574 75.4698 40.7708 70.4353C40.7708 70.4353 36.307 57.3838 44.3011 47.4176Z" fill="white"/>
</mask>
<g mask="url(#mask1_1_2319)">
<path d="M90.897 53.6801C90.897 53.6801 67.0121 70.4668 23.3866 55.5968L47.9629 86.6464L79.6959 107.637L90.897 53.6801Z" fill="#ADB9D5"/>
</g>
<path d="M98.331 34.9847C102.893 39.5466 105.642 52.0249 103.174 68.1102C101.795 77.1094 99.0107 85.313 95.3369 91.2092C91.9608 96.6278 88.1771 99.4464 84.9569 98.9433C78.5945 97.9504 73.8076 83.6696 76.8249 63.9955C78.2052 54.9953 80.9885 46.7917 84.6628 40.8951C88.0389 35.4774 91.8226 32.6588 95.0428 33.1619C96.2035 33.3432 97.313 33.9668 98.331 34.9847ZM79.4614 99.4249C80.9295 100.893 82.6088 101.824 84.4695 102.115C89.0886 102.836 93.9148 99.5668 98.0622 92.9124C101.96 86.6568 104.903 78.0238 106.347 68.6056C109.448 48.3833 104.696 31.4228 95.5291 29.9906C90.9115 29.2698 86.0849 32.5374 81.9374 39.1928C78.0389 45.4489 75.097 54.0813 73.6522 63.5C71.182 79.6157 73.6979 93.6614 79.4614 99.4249Z" fill="#2477F4"/>
</svg>
