<svg width="32" height="33" viewBox="0 0 32 33" fill="none" xmlns="http://www.w3.org/2000/svg">
<path d="M19.24 25.5935C18.9866 25.5935 18.7333 25.5002 18.5333 25.3002C18.1466 24.9135 18.1466 24.2735 18.5333 23.8868L25.92 16.5002L18.5333 9.11349C18.1466 8.72682 18.1466 8.08682 18.5333 7.70016C18.92 7.31349 19.56 7.31349 19.9466 7.70016L28.04 15.7935C28.4266 16.1802 28.4266 16.8202 28.04 17.2068L19.9466 25.3002C19.7466 25.5002 19.4933 25.5935 19.24 25.5935Z" fill="white"/>
<path d="M27.1066 17.5H4.66663C4.11996 17.5 3.66663 17.0467 3.66663 16.5C3.66663 15.9533 4.11996 15.5 4.66663 15.5H27.1066C27.6533 15.5 28.1066 15.9533 28.1066 16.5C28.1066 17.0467 27.6533 17.5 27.1066 17.5Z" fill="white"/>
</svg>
