<svg width="32" height="33" viewBox="0 0 32 33" fill="none" xmlns="http://www.w3.org/2000/svg">
<path d="M12.76 25.5935C12.5067 25.5935 12.2533 25.5002 12.0533 25.3002L3.96 17.2068C3.57333 16.8202 3.57333 16.1802 3.96 15.7935L12.0533 7.70016C12.44 7.31349 13.08 7.31349 13.4667 7.70016C13.8533 8.08682 13.8533 8.72682 13.4667 9.11349L6.08 16.5002L13.4667 23.8868C13.8533 24.2735 13.8533 24.9135 13.4667 25.3002C13.28 25.5002 13.0133 25.5935 12.76 25.5935Z" fill="white"/>
<path d="M27.3333 17.5H4.89334C4.34667 17.5 3.89334 17.0467 3.89334 16.5C3.89334 15.9533 4.34667 15.5 4.89334 15.5H27.3333C27.88 15.5 28.3333 15.9533 28.3333 16.5C28.3333 17.0467 27.88 17.5 27.3333 17.5Z" fill="white"/>
</svg>
