<svg width="198" height="162" viewBox="0 0 198 162" fill="none" xmlns="http://www.w3.org/2000/svg">
<mask id="path-1-outside-1_1750_21465" maskUnits="userSpaceOnUse" x="0" y="0" width="198" height="162" fill="black">
<rect fill="white" width="198" height="162"/>
<path d="M8.21247 97.7255C14.7962 117.835 31.5002 129.033 49.7304 137.505C70.4295 147.119 92.139 150.368 114.859 147.252C115.028 147.228 115.198 147.259 115.343 147.34C122.535 151.442 130.132 154.458 138.136 156.387C144.428 157.907 148.856 158.628 154.679 157.317C155.556 157.12 157.778 156.519 159.653 155.692C156.394 153.485 153.829 151.328 152.741 147.356C150.548 139.354 156.632 131.331 163.159 127.607C163.94 127.161 165.712 126.2 168.477 124.724C182.43 117.255 190.999 99.7207 193.118 84.6676C195.936 64.6576 192.264 44.1567 178.243 29.464C168.43 19.1848 157.042 11.7801 144.079 7.24985C135.714 4.32488 127.313 4.04282 118.146 4.00104C113.006 3.98015 103.013 4.27438 88.1648 4.88375C78.2302 5.29116 68.3408 7.23244 58.4965 10.7076C38.7246 17.6857 18.661 27.3172 9.32712 46.8258C1.86317 62.4273 2.95698 81.6747 8.21247 97.7255Z"/>
</mask>
<path d="M8.21247 97.7255C14.7962 117.835 31.5002 129.033 49.7304 137.505C70.4295 147.119 92.139 150.368 114.859 147.252C115.028 147.228 115.198 147.259 115.343 147.34C122.535 151.442 130.132 154.458 138.136 156.387C144.428 157.907 148.856 158.628 154.679 157.317C155.556 157.12 157.778 156.519 159.653 155.692C156.394 153.485 153.829 151.328 152.741 147.356C150.548 139.354 156.632 131.331 163.159 127.607C163.94 127.161 165.712 126.2 168.477 124.724C182.43 117.255 190.999 99.7207 193.118 84.6676C195.936 64.6576 192.264 44.1567 178.243 29.464C168.43 19.1848 157.042 11.7801 144.079 7.24985C135.714 4.32488 127.313 4.04282 118.146 4.00104C113.006 3.98015 103.013 4.27438 88.1648 4.88375C78.2302 5.29116 68.3408 7.23244 58.4965 10.7076C38.7246 17.6857 18.661 27.3172 9.32712 46.8258C1.86317 62.4273 2.95698 81.6747 8.21247 97.7255Z" fill="white"/>
<path d="M8.23331 81.2725L10.2164 81.0129L10.2141 80.9955L10.2115 80.9781L8.23331 81.2725ZM39.1048 127.336L38.076 129.051L38.0762 129.051L39.1048 127.336ZM114.661 143.705L114.916 145.689L114.916 145.689L114.661 143.705ZM118.864 144.896L119.784 143.12L119.78 143.118L118.864 144.896ZM135.813 151.399L136.323 149.465L136.322 149.465L135.813 151.399ZM151.194 153.645L150.973 155.632L150.982 155.633L150.991 155.634L151.194 153.645ZM151.33 153.42L149.658 154.518L149.664 154.527L149.669 154.535L151.33 153.42ZM155.642 127.68L154.475 126.057L154.474 126.057L155.642 127.68ZM165.544 121.261L164.592 119.502L164.591 119.503L165.544 121.261ZM187.498 92.7635L185.588 92.1715L185.586 92.1794L185.583 92.1873L187.498 92.7635ZM190.129 73.9601L188.129 74.0043V74.0044L190.129 73.9601ZM180.837 37.6957L179.294 38.9691L179.295 38.9695L180.837 37.6957ZM149.34 13.502L150.125 11.6623L150.124 11.6622L149.34 13.502ZM89.0711 8.34671L89.1857 10.3434L89.1863 10.3434L89.0711 8.34671ZM60.981 13.6639L60.2965 11.7847L60.2955 11.785L60.981 13.6639ZM30.9794 27.2023L29.8982 25.5198L29.8981 25.5198L30.9794 27.2023ZM6.25023 81.5321C8.92945 102.001 20.6243 118.582 38.076 129.051L40.1337 125.621C23.6459 115.73 12.725 100.178 10.2164 81.0129L6.25023 81.5321ZM38.0762 129.051C60.9299 142.757 88.198 149.124 114.916 145.689L114.406 141.721C88.642 145.034 62.2717 138.897 40.1334 125.62L38.0762 129.051ZM114.916 145.689C115.96 145.554 116.252 145.8 117.949 146.674L119.78 143.118C118.435 142.425 116.935 141.396 114.406 141.721L114.916 145.689ZM117.944 146.672C123.422 149.509 129.21 151.729 135.304 153.333L136.322 149.465C130.506 147.934 124.995 145.819 119.784 143.12L117.944 146.672ZM135.303 153.333C140.301 154.651 145.885 155.066 150.973 155.632L151.416 151.657C146.096 151.064 140.951 150.685 136.323 149.465L135.303 153.333ZM150.991 155.634C151.14 155.65 151.417 155.667 151.74 155.597C152.059 155.528 152.689 155.31 153.095 154.637C153.501 153.962 153.4 153.302 153.31 152.986C153.22 152.667 153.074 152.429 152.99 152.305L149.669 154.535C149.643 154.496 149.534 154.332 149.461 154.075C149.389 153.82 149.285 153.209 149.669 152.572C150.052 151.936 150.64 151.743 150.896 151.687C151.156 151.631 151.351 151.65 151.397 151.655L150.991 155.634ZM153.001 152.322C147.829 144.449 149.148 134.818 156.811 129.304L154.474 126.057C144.907 132.942 143.424 145.029 149.658 154.518L153.001 152.322ZM156.81 129.304C160.733 126.482 163.957 124.397 166.497 123.019L164.591 119.503C161.839 120.995 158.462 123.189 154.475 126.057L156.81 129.304ZM166.496 123.02C178.467 116.541 185.594 106.037 189.414 93.3396L185.583 92.1873C181.996 104.112 175.435 113.634 164.592 119.502L166.496 123.02ZM189.409 93.3555C191.369 87.031 192.275 80.5483 192.128 73.9157L188.129 74.0044C188.267 80.2069 187.42 86.2598 185.588 92.1715L189.409 93.3555ZM192.128 73.9159C191.849 61.2855 191.239 47.1458 182.378 36.4218L179.295 38.9695C187.144 48.4697 187.846 61.177 188.129 74.0043L192.128 73.9159ZM182.379 36.4222C173.835 26.075 162.576 16.9736 150.125 11.6623L148.555 15.3416C160.324 20.3618 171.087 29.0296 179.294 38.9691L182.379 36.4222ZM150.124 11.6622C130.911 3.46992 108.55 5.21983 88.9559 6.35003L89.1863 10.3434C109.073 9.19629 130.382 7.59294 148.556 15.3417L150.124 11.6622ZM88.9565 6.34999C79.0881 6.91624 69.3513 8.48623 60.2965 11.7847L61.6656 15.5431C70.2471 12.4171 79.5739 10.8949 89.1857 10.3434L88.9565 6.34999ZM60.2955 11.785C50.2483 15.4507 39.178 19.5566 29.8982 25.5198L32.0606 28.8849C40.9068 23.2004 51.5564 19.2313 61.6665 15.5428L60.2955 11.785ZM29.8981 25.5198C11.042 37.6373 3.05554 60.0657 6.25509 81.5669L10.2115 80.9781C7.2024 60.7567 14.748 40.0105 32.0606 28.8849L29.8981 25.5198ZM49.7304 137.505L48.0446 141.133L48.0454 141.133L49.7304 137.505ZM8.21247 97.7255L12.0139 96.4809L12.0139 96.4808L8.21247 97.7255ZM9.32712 46.8258L5.71885 45.0994L5.71879 45.0995L9.32712 46.8258ZM58.4965 10.7076L59.8277 14.4796L59.828 14.4795L58.4965 10.7076ZM88.1648 4.88375L88.3287 8.88039L88.3288 8.88039L88.1648 4.88375ZM118.146 4.00104L118.164 0.00108004L118.162 0.00107193L118.146 4.00104ZM144.079 7.24985L142.759 11.0257L142.76 11.0259L144.079 7.24985ZM178.243 29.464L181.136 26.7024L181.136 26.7019L178.243 29.464ZM193.118 84.6676L197.079 85.2254V85.2253L193.118 84.6676ZM168.477 124.724L170.361 128.252L170.364 128.251L168.477 124.724ZM163.159 127.607L161.176 124.133L161.176 124.133L163.159 127.607ZM152.741 147.356L156.599 146.299L156.599 146.299L152.741 147.356ZM154.679 157.317L153.802 153.414L153.8 153.414L154.679 157.317ZM138.136 156.387L139.076 152.499L139.074 152.498L138.136 156.387ZM115.343 147.34L117.325 143.866L117.312 143.858L117.299 143.851L115.343 147.34ZM114.859 147.252L115.403 151.214L115.411 151.213L115.418 151.212L114.859 147.252ZM159.653 155.692L161.267 159.352L167.882 156.434L161.896 152.38L159.653 155.692ZM51.4161 133.878C33.4349 125.521 18.0591 114.945 12.0139 96.4809L4.41103 98.9701C11.5332 120.724 29.5655 132.545 48.0446 141.133L51.4161 133.878ZM12.0139 96.4808C6.95397 81.0273 6.06293 62.9174 12.9354 48.552L5.71879 45.0995C-2.33659 61.9373 -1.04002 82.3221 4.41106 98.9702L12.0139 96.4808ZM12.9354 48.5521C21.5099 30.6307 40.1098 21.4386 59.8277 14.4796L57.1652 6.93561C37.3393 13.9328 15.8121 24.0037 5.71885 45.0994L12.9354 48.5521ZM59.828 14.4795C69.3153 11.1303 78.8119 9.27067 88.3287 8.88039L88.0009 0.887113C77.6486 1.31165 67.3663 3.33454 57.165 6.9357L59.828 14.4795ZM88.3288 8.88039C103.189 8.27051 113.095 7.98054 118.129 8.00101L118.162 0.00107193C112.918 -0.0202451 102.836 0.278264 88.0008 0.887118L88.3288 8.88039ZM118.127 8.001C127.293 8.04278 135.089 8.34371 142.759 11.0257L145.4 3.47402C136.34 0.306046 127.332 0.0428722 118.164 0.00108051L118.127 8.001ZM142.76 11.0259C155.104 15.3399 165.958 22.388 175.349 32.226L181.136 26.7019C170.902 15.9815 158.98 8.22021 145.399 3.47381L142.76 11.0259ZM175.349 32.2255C188.258 45.7522 191.868 64.8659 189.158 84.1098L197.079 85.2253C200.005 64.4494 196.271 42.5612 181.136 26.7024L175.349 32.2255ZM189.158 84.1098C187.137 98.4548 179.001 114.554 166.589 121.197L170.364 128.251C185.86 119.956 194.86 100.987 197.079 85.2254L189.158 84.1098ZM166.592 121.196C163.841 122.665 162.016 123.654 161.176 124.133L165.141 131.082C165.864 130.669 167.583 129.736 170.361 128.252L166.592 121.196ZM161.176 124.133C157.359 126.311 153.685 129.722 151.241 133.834C148.786 137.967 147.426 143.094 148.883 148.413L156.599 146.299C155.864 143.616 156.449 140.731 158.119 137.921C159.801 135.09 162.431 132.628 165.141 131.081L161.176 124.133ZM153.8 153.414C148.896 154.518 145.204 153.979 139.076 152.499L137.197 160.275C143.652 161.834 148.815 162.737 155.557 161.219L153.8 153.414ZM139.074 152.498C131.438 150.658 124.191 147.782 117.325 143.866L113.362 150.815C120.878 155.102 128.827 158.258 137.199 160.275L139.074 152.498ZM117.299 143.851C116.37 143.33 115.313 143.148 114.3 143.291L115.418 151.212C114.743 151.308 114.026 151.188 113.387 150.829L117.299 143.851ZM114.315 143.289C92.3511 146.301 71.4155 143.167 51.4154 133.877L48.0454 141.133C69.4434 151.072 91.9268 154.435 115.403 151.214L114.315 143.289ZM148.883 148.413C150.367 153.829 153.974 156.677 157.41 159.004L161.896 152.38C158.815 150.293 157.291 148.826 156.599 146.299L148.883 148.413ZM155.556 161.219C156.581 160.989 159.074 160.319 161.267 159.352L158.039 152.032C156.482 152.718 154.53 153.25 153.802 153.414L155.556 161.219Z" fill="#2477F4" mask="url(#path-1-outside-1_1750_21465)"/>
<path d="M39.1049 127.335C22.1352 117.156 10.8273 101.089 8.23341 81.2724C5.12907 60.4111 12.8951 38.8238 30.9794 27.2022C40.0424 21.3784 50.9024 17.3409 60.9811 13.6638C69.7993 10.4515 79.3311 8.90547 89.0712 8.34659C108.812 7.20794 130.646 5.53131 149.34 13.5019C161.45 18.6676 172.461 27.5522 180.837 37.6955C189.191 47.8076 189.848 61.2311 190.129 73.96C190.271 80.3775 189.394 86.6453 187.498 92.7634C183.795 105.074 176.951 115.087 165.544 121.261C162.898 122.696 159.598 124.835 155.643 127.68C147.027 133.88 145.626 144.739 151.33 153.42C151.444 153.591 151.399 153.665 151.194 153.645C145.991 153.065 140.626 152.668 135.813 151.399C129.858 149.832 124.209 147.664 118.865 144.896C117.344 144.112 116.448 143.475 114.661 143.705C88.4201 147.079 61.6009 140.827 39.1049 127.335Z" fill="#2477F4"/>
<path d="M120.735 44.5292L117.247 42.5854C117.245 42.5839 117.242 42.5825 117.239 42.5811C109.916 38.5009 101.241 38.5015 93.9181 42.583L90.4261 44.5292C84.876 47.6226 78.3099 47.6226 72.7598 44.5292L68.7867 42.3148C61.7716 38.4049 53.4957 38.2311 46.347 41.8448L29.8499 50.1841L30.0755 50.6303L29.8499 50.1841C28.3022 50.9665 27.6681 52.9316 28.3588 54.5619C29.0577 56.2113 30.8896 56.9819 32.4655 56.1853L48.9626 47.8459C54.378 45.1084 60.6409 45.2393 65.9576 48.2025L69.9306 50.4169C77.2547 54.499 85.9313 54.499 93.2553 50.4169L96.7473 48.4707C102.297 45.3773 108.864 45.3773 114.414 48.4707L117.901 50.4146C117.904 50.416 117.906 50.4174 117.909 50.4188C125.232 54.499 133.907 54.4984 141.23 50.4169L154.97 42.7591C156.486 41.9143 157.052 39.9265 156.304 38.3243C155.546 36.7017 153.685 36.0105 152.141 36.8714L138.401 44.5292C132.851 47.6226 126.285 47.6226 120.735 44.5292Z" fill="#F35B60" stroke="#F35B60" stroke-linecap="round"/>
<path fill-rule="evenodd" clip-rule="evenodd" d="M14.1964 72.5201C13.51 74.1617 14.311 76.0313 15.9855 76.696L34.1346 83.9006C43.6092 87.6617 54.3713 86.7424 63.0761 81.4284L67.314 78.8414C74.2332 74.6175 82.7877 73.8868 90.3188 76.8763L94.9315 78.7074C104.406 82.4685 115.168 81.5492 123.873 76.2353L128.695 73.2918C135.322 69.2458 143.469 68.3956 150.791 70.9858L172.5 78.6654C174.199 79.2666 176.081 78.4035 176.703 76.7376C177.324 75.0717 176.451 73.2338 174.751 72.6326L153.042 64.953C143.83 61.6944 133.582 62.764 125.244 67.8541L120.422 70.7976C113.503 75.0215 104.948 75.7522 97.4171 72.7626L92.8044 70.9315C83.3298 67.1705 72.5677 68.0897 63.8629 73.4037L59.625 75.9907C52.7058 80.2146 44.1513 80.9454 36.6202 77.9558L18.4711 70.7512C16.7966 70.0865 14.8828 70.8785 14.1964 72.5201Z" fill="#F35B60"/>
<path d="M84.0905 105.762L86.8925 103.682C86.897 103.678 86.9016 103.675 86.9063 103.672C92.8278 99.2803 100.238 98.6488 106.813 101.976L109.933 103.554C114.858 106.046 120.387 105.574 124.821 102.282L128.018 99.9101C133.69 95.7002 140.746 94.9308 147.139 97.8293L161.81 104.482C163.226 105.124 163.899 106.938 163.449 108.501C162.99 110.094 161.457 111.034 159.967 110.358L145.295 103.705C140.514 101.537 135.251 102.109 131.002 105.263L127.806 107.635C121.883 112.031 114.471 112.664 107.893 109.336L104.773 107.757C99.8475 105.265 94.3191 105.738 89.8844 109.029L87.0824 111.109C87.0779 111.112 87.0733 111.115 87.0686 111.119C81.1471 115.51 73.7373 116.142 67.162 112.815L54.8856 106.604C53.497 105.901 52.8779 104.065 53.3794 102.521C53.8917 100.944 55.4618 100.081 56.9258 100.822L69.2022 107.033C74.1274 109.525 79.6558 109.053 84.0905 105.762Z" fill="#F35B60" stroke="#F35B60" stroke-linecap="round"/>
</svg>
