<svg width="224" height="241" viewBox="0 0 224 241" fill="none" xmlns="http://www.w3.org/2000/svg">
<ellipse cx="112" cy="105.455" rx="112" ry="104.81" fill="#2477F4"/>
<path d="M161.885 76.5791C164.338 35.7792 92.3268 28.6518 85.835 54.3506C85.3408 56.3069 85.1658 58.3439 84.7146 60.3105C78.3604 88.0067 71.8138 112.913 70.2547 117.607C69.529 119.792 69.3198 121.99 69.3705 123.917C69.465 127.514 70.1974 131.31 72.4297 134.131C75.9814 138.621 84.4646 144.129 102.038 146.974C122.631 150.307 134.842 144.497 140.301 139.419C142.27 137.587 143.328 135.051 144.169 132.497L160.618 82.5229C161.251 80.5994 161.764 78.6005 161.885 76.5791Z" fill="#2477F4"/>
<path d="M125.386 8.85796C124.087 17.45 122.798 25.9476 121.535 34.625C121.526 34.688 121.495 34.7455 121.447 34.7862C121.399 34.8269 121.338 34.8479 121.276 34.8452C116.138 34.6056 111.1 34.8243 106.162 35.5013C106.133 35.5051 106.105 35.503 106.077 35.4952C106.05 35.4873 106.024 35.4738 106.002 35.4556C105.98 35.4374 105.963 35.4149 105.95 35.3895C105.938 35.3641 105.931 35.3363 105.93 35.3081L104.395 8.29624C104.39 8.20875 104.42 8.12284 104.477 8.05721C104.535 7.99157 104.616 7.95151 104.703 7.94573C111.396 7.52032 118.222 7.73452 125.181 8.58833C125.212 8.59155 125.242 8.60116 125.269 8.61659C125.296 8.63201 125.32 8.65294 125.339 8.67811C125.358 8.70328 125.372 8.73218 125.38 8.76308C125.388 8.79398 125.39 8.82625 125.386 8.85796Z" fill="white"/>
<path d="M80.9585 56.7702C80.8038 57.3334 80.5985 57.3528 80.3427 56.8286L62.5422 20.2406C62.4786 20.1099 62.4686 19.9593 62.5146 19.8213C62.5605 19.6833 62.6586 19.5692 62.7877 19.5036C68.8297 16.4359 75.0116 13.9643 81.3333 12.0889C81.3734 12.0774 81.4155 12.0741 81.4569 12.0792C81.4983 12.0844 81.5383 12.0978 81.5745 12.1187C81.6107 12.1397 81.6424 12.1677 81.6676 12.2012C81.6929 12.2347 81.7112 12.2729 81.7215 12.3136L89.0711 41.6937C89.0875 41.759 89.0858 41.8281 89.0662 41.8937C89.0466 41.9592 89.0097 42.019 88.9595 42.0667C84.8229 46.0391 82.4355 51.4181 80.9585 56.7702Z" fill="white"/>
<path d="M29.4892 46.493C29.432 46.4413 29.3972 46.369 29.3922 46.2918C29.3872 46.2146 29.4124 46.1384 29.4624 46.0796C33.7552 41.0286 38.4957 36.3626 43.684 32.0816C43.7069 32.0629 43.7332 32.0489 43.7614 32.0404C43.7895 32.0318 43.819 32.0289 43.848 32.0319C43.8771 32.0348 43.9051 32.0435 43.9306 32.0574C43.9561 32.0714 43.9784 32.0903 43.9964 32.1131C45.7783 34.3839 47.5172 36.6877 49.2129 39.0244C57.9948 51.1216 66.8928 63.1513 75.6926 75.3428C75.7374 75.4046 75.7681 75.476 75.7827 75.552C75.7974 75.628 75.7956 75.7069 75.7774 75.7832C74.9772 79.0726 74.049 82.2677 72.9929 85.3683C72.985 85.3914 72.9716 85.4121 72.9539 85.4286C72.9362 85.4452 72.9147 85.4571 72.8913 85.4633C72.8679 85.4695 72.8434 85.4699 72.8199 85.4643C72.7963 85.4587 72.7745 85.4473 72.7564 85.4313C58.4098 72.3725 44.0588 59.79 29.4892 46.493Z" fill="white"/>
<path d="M164.521 25.5072C164.372 25.5252 164.243 25.5821 164.133 25.678C164.087 25.7162 164.03 25.7375 163.975 25.7375C163.919 25.7375 163.869 25.7162 163.834 25.678C162.766 24.5006 161.319 23.6663 159.492 23.175C148.876 20.3304 142.316 34.3059 151.611 40.5792C151.702 40.64 151.809 40.6717 151.917 40.6701C152.025 40.6685 152.131 40.6337 152.218 40.5702C153.503 39.6355 154.662 38.7487 155.694 37.9099C156.225 37.4785 156.872 36.6292 156.971 38.202L152.142 46.2098C152.118 46.2488 152.087 46.2822 152.049 46.3077C152.011 46.3333 151.968 46.3505 151.923 46.3581C151.878 46.3658 151.832 46.3637 151.787 46.3521C151.743 46.3405 151.701 46.3195 151.665 46.2907C147.75 43.2709 143.473 40.8293 138.835 38.9659C138.767 38.9376 138.713 38.8846 138.682 38.8179C138.651 38.7511 138.647 38.6755 138.67 38.6064L146.939 14.0931C146.953 14.0511 146.975 14.0123 147.004 13.9791C147.034 13.9459 147.069 13.9189 147.109 13.8996C147.149 13.8804 147.192 13.8693 147.237 13.867C147.281 13.8647 147.326 13.8713 147.368 13.8864C153.963 16.31 160.137 19.2055 165.891 22.5728C165.935 22.5986 165.973 22.6332 166.004 22.6743C166.034 22.7155 166.056 22.7625 166.069 22.8124C166.081 22.8623 166.083 22.9142 166.074 22.9649C166.066 23.0156 166.048 23.0641 166.02 23.1075L164.521 25.5072ZM160.786 21.2876C159.947 20.982 159.098 20.5731 158.238 20.0608C158.049 19.9487 157.84 19.8769 157.622 19.8498C157.405 19.8228 157.185 19.841 156.975 19.9035C156.169 20.1462 155.547 20.4218 155.11 20.7304C154.405 21.2337 154.677 21.6875 155.529 21.6021C156.508 21.5063 158.202 21.6276 160.612 21.9661C160.686 21.9758 160.759 21.9694 160.825 21.9474C160.892 21.9255 160.948 21.8887 160.991 21.8403C161.202 21.5976 161.134 21.4134 160.786 21.2876ZM147.443 24.3613C147.229 23.6363 146.753 23.1569 146.016 22.9233C145.921 22.8929 145.82 22.8832 145.721 22.8947C145.622 22.9062 145.527 22.9387 145.441 22.9901C145.356 23.0415 145.282 23.1106 145.225 23.1928C145.168 23.275 145.128 23.3684 145.11 23.467C144.937 24.3717 145.316 24.8646 146.248 24.9454C146.334 24.9532 146.416 24.9824 146.488 25.0305C146.56 25.0786 146.619 25.1441 146.659 25.2209C146.699 25.2977 146.72 25.3834 146.719 25.4703C146.718 25.5572 146.696 25.6425 146.654 25.7184C146.079 26.7549 145.8 27.6881 145.815 28.518C145.83 29.4107 146.054 29.4676 146.489 28.6887C147.568 26.7504 148.907 25.0218 150.505 23.503C150.817 23.2064 151.397 22.4289 150.505 22.3885C150.361 22.3797 150.218 22.4262 150.103 22.5188L147.667 24.4332C147.648 24.4472 147.627 24.4566 147.604 24.4606C147.582 24.4645 147.558 24.4629 147.536 24.4558C147.515 24.4488 147.495 24.4365 147.478 24.42C147.462 24.4036 147.45 24.3834 147.443 24.3613ZM145.056 33.3487C144.913 33.7425 144.881 34.1671 144.962 34.5755C145.498 37.1864 142.593 35.0878 142.981 37.0561C142.994 37.1226 143.027 37.1841 143.077 37.2328C143.126 37.2815 143.189 37.3154 143.258 37.3302C143.903 37.471 144.532 37.3976 145.145 37.11C145.207 37.0815 145.274 37.0667 145.342 37.0667C145.411 37.0667 145.478 37.0816 145.54 37.1101C145.601 37.1387 145.656 37.1804 145.701 37.2323C145.745 37.2843 145.778 37.3452 145.797 37.4111C145.904 37.7886 146.671 39.8107 147.354 38.9569C147.393 38.9082 147.416 38.8451 147.421 38.7745C147.426 38.7039 147.412 38.6286 147.381 38.557C146.7 36.9392 146.233 35.2631 145.98 33.5285C145.895 32.9578 145.458 32.2568 145.056 33.3487Z" fill="white"/>
<path d="M160.786 21.2876C161.134 21.4134 161.202 21.5976 160.991 21.8403C160.948 21.8887 160.892 21.9255 160.825 21.9474C160.759 21.9694 160.686 21.9758 160.612 21.9661C158.202 21.6276 156.508 21.5063 155.529 21.6021C154.677 21.6875 154.405 21.2337 155.11 20.7304C155.547 20.4218 156.169 20.1462 156.975 19.9035C157.185 19.841 157.405 19.8228 157.622 19.8498C157.84 19.8769 158.049 19.9487 158.238 20.0608C159.098 20.5731 159.947 20.982 160.786 21.2876Z" fill="white"/>
<path d="M147.667 24.4332L150.103 22.5188C150.218 22.4262 150.361 22.3797 150.505 22.3885C151.397 22.4289 150.817 23.2064 150.505 23.503C148.907 25.0218 147.568 26.7504 146.489 28.6887C146.054 29.4676 145.83 29.4107 145.815 28.518C145.8 27.6881 146.079 26.7549 146.654 25.7184C146.696 25.6425 146.718 25.5572 146.719 25.4703C146.72 25.3834 146.699 25.2977 146.659 25.2209C146.619 25.1441 146.56 25.0786 146.488 25.0305C146.416 24.9824 146.334 24.9532 146.248 24.9454C145.316 24.8646 144.937 24.3717 145.11 23.467C145.128 23.3684 145.168 23.275 145.225 23.1928C145.282 23.1106 145.356 23.0415 145.441 22.9901C145.527 22.9387 145.622 22.9062 145.721 22.8947C145.82 22.8832 145.921 22.8929 146.016 22.9233C146.753 23.1569 147.229 23.6363 147.443 24.3613C147.45 24.3834 147.462 24.4036 147.478 24.42C147.495 24.4365 147.515 24.4488 147.536 24.4558C147.558 24.4629 147.582 24.4645 147.604 24.4606C147.627 24.4566 147.648 24.4472 147.667 24.4332Z" fill="white"/>
<path d="M164.521 25.5072L156.971 38.202C156.872 36.6292 156.225 37.4785 155.694 37.9099C154.662 38.7487 153.503 39.6355 152.218 40.5702C152.131 40.6337 152.025 40.6685 151.917 40.6701C151.809 40.6717 151.702 40.64 151.611 40.5792C142.316 34.3059 148.876 20.3304 159.492 23.175C161.319 23.6663 162.766 24.5006 163.834 25.678C163.869 25.7162 163.919 25.7375 163.975 25.7375C164.03 25.7375 164.087 25.7162 164.133 25.678C164.243 25.5821 164.372 25.5252 164.521 25.5072ZM158.878 29.5264C159.365 29.262 159.72 28.797 159.864 28.2339C160.007 27.6707 159.928 27.0554 159.644 26.5234C159.359 25.9914 158.893 25.5862 158.347 25.3969C157.801 25.2077 157.22 25.25 156.733 25.5144C156.245 25.7788 155.89 26.2438 155.746 26.807C155.603 27.3701 155.682 27.9854 155.966 28.5174C156.251 29.0494 156.717 29.4546 157.263 29.6439C157.809 29.8331 158.39 29.7908 158.878 29.5264ZM152.011 36.3122C152.371 36.4174 152.748 36.447 153.123 36.3994C153.497 36.3517 153.86 36.2277 154.191 36.0344C154.523 35.8411 154.816 35.5823 155.055 35.2729C155.293 34.9634 155.472 34.6093 155.581 34.2307C155.69 33.8522 155.728 33.4566 155.691 33.0666C155.654 32.6766 155.544 32.2998 155.367 31.9577C155.19 31.6157 154.95 31.315 154.659 31.0729C154.369 30.8309 154.034 30.6521 153.675 30.5469C153.315 30.4417 152.937 30.4121 152.563 30.4598C152.189 30.5074 151.826 30.6315 151.495 30.8247C151.163 31.018 150.87 31.2768 150.631 31.5863C150.393 31.8957 150.214 32.2499 150.105 32.6284C149.995 33.007 149.958 33.4026 149.995 33.7926C150.032 34.1826 150.142 34.5593 150.319 34.9014C150.496 35.2435 150.736 35.5441 151.027 35.7862C151.317 36.0283 151.652 36.207 152.011 36.3122Z" fill="white"/>
<path d="M155.966 28.5174C156.559 29.6253 157.862 30.0771 158.878 29.5264C159.893 28.9758 160.236 27.6313 159.644 26.5234C159.052 25.4155 157.748 24.9637 156.733 25.5144C155.717 26.065 155.374 27.4095 155.966 28.5174Z" fill="white"/>
<path d="M150.105 32.6284C149.645 34.2205 150.499 35.8698 152.011 36.3122C153.524 36.7547 155.122 35.8227 155.581 34.2307C156.041 32.6387 155.187 30.9894 153.675 30.5469C152.162 30.1045 150.564 31.0364 150.105 32.6284Z" fill="white"/>
<path d="M145.056 33.3487C145.458 32.2568 145.895 32.9578 145.98 33.5285C146.233 35.2631 146.7 36.9392 147.381 38.557C147.412 38.6286 147.426 38.7039 147.421 38.7745C147.416 38.8451 147.393 38.9082 147.354 38.9569C146.671 39.8107 145.904 37.7886 145.797 37.4111C145.778 37.3452 145.745 37.2843 145.701 37.2323C145.656 37.1804 145.601 37.1387 145.54 37.1101C145.478 37.0816 145.411 37.0667 145.342 37.0667C145.274 37.0667 145.207 37.0815 145.145 37.11C144.532 37.3976 143.903 37.471 143.258 37.3302C143.189 37.3154 143.126 37.2815 143.077 37.2328C143.027 37.1841 142.994 37.1226 142.981 37.0561C142.593 35.0878 145.498 37.1864 144.962 34.5755C144.881 34.1671 144.913 33.7425 145.056 33.3487Z" fill="white"/>
<path d="M184.655 36.836C184.675 36.8141 184.7 36.7964 184.727 36.784C184.754 36.7716 184.783 36.7648 184.813 36.764C184.842 36.7632 184.872 36.7683 184.899 36.7791C184.926 36.79 184.951 36.8062 184.972 36.827C189.937 41.6922 194.426 46.8091 198.439 52.1776C198.476 52.2278 198.503 52.2847 198.518 52.3452C198.533 52.4056 198.536 52.4684 198.527 52.5299C198.518 52.5913 198.497 52.6502 198.465 52.7031C198.433 52.756 198.391 52.802 198.341 52.8382L166.855 76.2506C166.548 76.4812 166.405 76.4048 166.426 76.0214C166.715 70.7487 165.833 65.7038 163.78 60.8865C163.74 60.7937 163.727 60.6913 163.743 60.5911C163.759 60.4908 163.803 60.397 163.869 60.3203L184.655 36.836Z" fill="white"/>
<path d="M69.7401 97.2228C69.7965 97.2565 69.8404 97.308 69.8654 97.3696C69.8903 97.4312 69.8949 97.4995 69.8785 97.5644L68.1604 104.13C68.1509 104.168 68.1335 104.204 68.1095 104.235C68.0854 104.266 68.0552 104.291 68.0208 104.31C67.9864 104.328 67.9485 104.34 67.9095 104.343C67.8705 104.346 67.8314 104.34 67.7945 104.327L9.01612 84.0337C8.95727 84.0129 8.90858 83.9704 8.88029 83.9151C8.85199 83.8598 8.8463 83.796 8.8644 83.7371C10.8754 77.3411 13.3997 71.255 16.437 65.4791C16.4587 65.4384 16.4882 65.4024 16.5237 65.3734C16.5593 65.3444 16.6002 65.323 16.644 65.3104C16.6878 65.2978 16.7336 65.2943 16.7785 65.3001C16.8235 65.3059 16.8667 65.321 16.9056 65.3443L69.7401 97.2228Z" fill="white"/>
<path d="M160.804 96.3196C160.89 96.0943 161.058 95.911 161.273 95.8073L209.466 72.1298C209.513 72.1067 209.563 72.0933 209.615 72.0906C209.666 72.0879 209.718 72.0958 209.766 72.1139C209.815 72.132 209.859 72.1599 209.897 72.1958C209.934 72.2318 209.964 72.2751 209.984 72.323C212.694 78.6232 214.799 85.0298 216.298 91.5427C216.317 91.6268 216.303 91.715 216.259 91.7882C216.215 91.8614 216.144 91.9137 216.062 91.9337C196.655 96.8184 177.435 101.941 158.033 106.484C158.009 106.489 157.985 106.488 157.962 106.482C157.939 106.475 157.918 106.463 157.901 106.447C157.885 106.43 157.872 106.41 157.865 106.387C157.859 106.365 157.858 106.341 157.863 106.318C158.598 102.888 159.578 99.5551 160.804 96.3196Z" fill="white"/>
<path d="M146.372 77.1852L151.611 80.2859L156.395 83.3461L158.224 84.7302C158.736 85.1196 158.788 85.6634 158.38 86.3614C157.512 87.8503 156.329 89.0172 154.833 89.862L155.52 87.5567C155.716 86.9036 155.504 86.3869 154.882 86.0064L145.819 80.4117C145.729 80.3556 145.659 80.2739 145.619 80.179C145.58 80.0841 145.573 79.9812 145.6 79.8859L146.372 77.1852Z" fill="#FFB800"/>
<path d="M144.364 84.5999L149.59 87.8758L154.146 90.7787C155.596 91.8842 157.39 92.3965 155.85 94.6029C154.997 95.8252 153.908 96.7974 152.584 97.5193L153.32 95.0343C153.526 94.3453 153.317 93.809 152.696 93.4256L143.784 87.9432C143.687 87.8828 143.608 87.7965 143.559 87.6946C143.509 87.5926 143.489 87.4792 143.503 87.368C143.643 86.2086 143.93 85.2859 144.364 84.5999Z" fill="#FFB800"/>
<path d="M147.359 95.2905L151.915 98.1935L153.918 99.6944C154.406 100.06 154.481 100.521 154.141 101.078C153.228 102.573 152.008 103.74 150.482 104.579L151.143 102.058C151.283 101.534 151.098 101.114 150.589 100.8L141.424 95.1242C141.358 95.0829 141.307 95.0187 141.28 94.9411C141.253 94.8634 141.25 94.7764 141.272 94.6928L141.955 92.073L147.359 95.2905Z" fill="#FFB800"/>
<path d="M140.089 99.4292L145.221 102.575L149.906 105.608C151.236 106.601 153.378 107.495 151.459 109.513C150.18 110.858 149.074 111.797 148.139 112.331L148.974 109.873C149.173 109.282 148.989 108.811 148.421 108.457L139.201 102.723C139.144 102.688 139.098 102.635 139.071 102.573C139.044 102.512 139.036 102.443 139.05 102.377C139.282 101.26 139.628 100.277 140.089 99.4292Z" fill="#FFB800"/>
<path d="M18.4359 107.086C33.9739 109.471 49.5059 111.887 65.032 114.335C65.0598 114.34 65.0863 114.35 65.11 114.365C65.1337 114.381 65.1541 114.401 65.1699 114.424C65.1858 114.448 65.1967 114.474 65.2022 114.502C65.2076 114.53 65.2074 114.559 65.2016 114.587L63.7424 121.165C63.7139 121.293 63.6458 121.409 63.5485 121.494C63.4511 121.579 63.3297 121.629 63.2025 121.637L4.70073 125.075C4.64504 125.078 4.5893 125.07 4.53672 125.051C4.48413 125.032 4.43572 125.003 4.39427 124.966C4.35282 124.928 4.31913 124.883 4.29515 124.832C4.27116 124.782 4.25734 124.727 4.25449 124.67C3.92725 118.289 3.96741 111.892 4.37498 105.478C4.37819 105.427 4.39183 105.377 4.41504 105.331C4.43826 105.285 4.47055 105.245 4.50991 105.213C4.54926 105.18 4.59484 105.156 4.64379 105.142C4.69275 105.128 4.74403 105.125 4.79444 105.132C9.41746 105.749 13.9646 106.4 18.4359 107.086Z" fill="white"/>
<path d="M137.858 107.069L143.008 110.232L147.564 113.135C148.733 114.016 150.442 114.6 149.674 116.254C149.074 117.542 147.832 118.778 145.948 119.961L146.618 117.292C146.784 116.636 146.526 116.098 145.841 115.679L137.189 110.385C137.085 110.322 137.004 110.228 136.955 110.117C136.907 110.006 136.893 109.883 136.917 109.765C137.128 108.701 137.442 107.803 137.858 107.069Z" fill="#FFB800"/>
<path d="M135.551 114.483L140.553 117.535L145.35 120.644L147.301 122.141C147.771 122.497 147.852 122.958 147.546 123.525C146.686 125.106 145.459 126.33 143.864 127.196C144.886 125.421 144.819 123.871 142.994 122.72C140.281 121.013 137.54 119.311 134.77 117.615C134.714 117.582 134.672 117.53 134.649 117.469C134.626 117.408 134.625 117.34 134.645 117.278L135.551 114.483Z" fill="#FFB800"/>
<path d="M152.249 125.282C152.221 125.277 152.193 125.266 152.168 125.25C152.144 125.234 152.123 125.214 152.107 125.189C152.09 125.165 152.079 125.137 152.074 125.108C152.068 125.079 152.069 125.05 152.075 125.021C152.587 122.759 153.233 120.634 154.012 118.644C154.036 118.583 154.077 118.529 154.131 118.49C154.185 118.451 154.249 118.428 154.316 118.424L218.592 114.649C218.652 114.646 218.713 114.655 218.77 114.675C218.827 114.696 218.88 114.728 218.924 114.769C218.969 114.811 219.005 114.861 219.03 114.917C219.055 114.973 219.068 115.033 219.069 115.094C219.182 121.676 218.636 128.318 217.431 135.02C217.421 135.078 217.387 135.13 217.338 135.165C217.289 135.199 217.228 135.213 217.168 135.204L152.249 125.282Z" fill="white"/>
<path d="M133.431 122.01L138.656 125.174L143.342 128.171L145.015 129.389C145.548 129.778 145.652 130.265 145.328 130.849C144.474 132.386 143.274 133.567 141.727 134.39C142.203 133.405 142.436 132.586 142.427 131.932C142.418 131.306 142.139 130.821 141.588 130.476L132.73 124.913C132.67 124.875 132.624 124.82 132.598 124.758C132.572 124.696 132.568 124.631 132.588 124.572L133.431 122.01Z" fill="#FFB800"/>
<path d="M52.3273 146.951C51.6847 146.513 50.9395 146.288 50.0916 146.276C49.3062 146.264 48.5253 146.327 47.7489 146.465C46.6184 146.666 46.0695 146.079 46.1022 144.704C46.1439 142.84 46.1246 141.049 46.0442 139.329C46.0294 138.988 45.8851 138.917 45.6114 139.118C44.4869 139.945 43.8309 140.453 43.764 141.971C43.7045 143.263 43.6524 144.564 43.6078 145.877C43.587 146.41 43.3713 146.51 42.9607 146.178C41.0925 144.671 39.2376 142.851 37.3962 140.718C36.9916 140.25 36.4992 140.19 35.9191 140.538L34.1386 141.607C34.0956 141.633 34.0586 141.668 34.0304 141.71C34.0022 141.751 33.9835 141.798 33.9758 141.846C33.968 141.895 33.9714 141.944 33.9857 141.99C34 142.035 34.0248 142.077 34.0583 142.111L42.3048 150.411C42.3504 150.457 42.3783 150.518 42.3833 150.581C42.3882 150.644 42.3698 150.705 42.3315 150.752C41.9508 151.226 41.4867 151.407 40.9393 151.296C40.0066 151.112 38.0789 148.708 37.2757 147.939C37.2343 147.899 37.1848 147.868 37.1302 147.849C37.0756 147.829 37.0169 147.821 36.9575 147.825C36.8981 147.828 36.8393 147.844 36.7843 147.871C36.7294 147.897 36.6795 147.934 36.6376 147.98L35.1605 149.548C35.0849 149.628 35.0408 149.733 35.0367 149.842C35.0326 149.952 35.0687 150.058 35.1382 150.141L38.3065 153.952L36.5081 154.815C35.7466 153.404 34.6548 152.804 33.2328 153.017C29.8369 153.529 28.8864 156.5 26.4009 158.738C26.3369 158.795 26.2865 158.86 26.2544 158.926C26.2223 158.993 26.2098 159.058 26.2179 159.115L26.3161 159.852L15.7893 165.101C15.7349 165.127 15.6723 165.13 15.6154 165.11C15.5585 165.09 15.5119 165.048 15.4859 164.993C12.6895 159.133 10.3125 153.12 8.35501 146.955C8.34879 146.934 8.34677 146.912 8.34906 146.89C8.35135 146.868 8.35792 146.847 8.36835 146.829C8.37879 146.81 8.39288 146.793 8.40977 146.78C8.42665 146.767 8.44598 146.758 8.46657 146.753L64.398 132.584C64.5438 132.547 64.6988 132.563 64.8376 132.63C64.9763 132.697 65.0904 132.811 65.1611 132.953L67.7894 138.237C67.8473 138.351 67.9566 138.458 68.1018 138.543C68.545 138.803 68.4959 139.069 67.9545 139.338C60.9873 142.825 55.7782 145.363 52.3273 146.951ZM35.0807 145.717C35.0416 145.479 34.9529 145.251 34.8199 145.047C34.6868 144.844 34.5119 144.667 34.3052 144.529C34.0984 144.39 33.8639 144.292 33.615 144.24C33.366 144.188 33.1076 144.183 32.8543 144.225C32.6011 144.267 32.3581 144.356 32.1391 144.486C31.9201 144.616 31.7295 144.785 31.5781 144.983C31.4268 145.182 31.3176 145.405 31.2569 145.641C31.1961 145.878 31.185 146.122 31.2242 146.36C31.2633 146.598 31.3519 146.825 31.485 147.029C31.6181 147.233 31.793 147.409 31.9997 147.548C32.2065 147.686 32.441 147.784 32.6899 147.837C32.9388 147.889 33.1973 147.894 33.4505 147.852C33.7038 147.809 33.9468 147.721 34.1658 147.591C34.3847 147.46 34.5753 147.291 34.7267 147.093C34.8781 146.895 34.9873 146.671 35.048 146.435C35.1088 146.199 35.1199 145.955 35.0807 145.717Z" fill="white"/>
<path d="M147.265 141.365C147.208 141.332 147.163 141.28 147.139 141.219C147.115 141.158 147.112 141.09 147.131 141.028L148.992 134.93C149.002 134.897 149.019 134.866 149.042 134.839C149.065 134.813 149.093 134.791 149.124 134.776C149.156 134.76 149.191 134.751 149.226 134.749C149.262 134.747 149.297 134.752 149.331 134.764L211.104 156.145C211.146 156.159 211.185 156.182 211.218 156.212C211.251 156.242 211.277 156.278 211.296 156.319C211.315 156.359 211.325 156.402 211.327 156.447C211.328 156.491 211.321 156.535 211.305 156.576C208.871 162.771 205.892 168.637 202.366 174.174C202.335 174.224 202.284 174.26 202.226 174.273C202.168 174.287 202.106 174.277 202.054 174.245L147.265 141.365Z" fill="white"/>
<path d="M52.3275 146.95L38.3067 153.952L35.1384 150.141C35.0689 150.058 35.0328 149.952 35.0369 149.842C35.041 149.733 35.0851 149.628 35.1607 149.548L36.6378 147.98C36.6797 147.934 36.7296 147.897 36.7845 147.871C36.8395 147.844 36.8983 147.828 36.9577 147.825C37.0171 147.821 37.0758 147.829 37.1304 147.849C37.1851 147.868 37.2345 147.899 37.2759 147.939C38.0791 148.708 40.0069 151.112 40.9395 151.296C41.4869 151.407 41.951 151.226 42.3318 150.752C42.37 150.705 42.3884 150.644 42.3835 150.581C42.3786 150.518 42.3506 150.457 42.305 150.411L34.0585 142.111C34.0251 142.077 34.0002 142.035 33.9859 141.99C33.9716 141.944 33.9682 141.895 33.976 141.846C33.9837 141.798 34.0024 141.751 34.0306 141.71C34.0588 141.668 34.0958 141.633 34.1388 141.607L35.9193 140.538C36.4994 140.19 36.9918 140.25 37.3964 140.718C39.2378 142.851 41.0927 144.671 42.961 146.178C43.3715 146.51 43.5872 146.41 43.608 145.876C43.6526 144.564 43.7047 143.263 43.7642 141.971C43.8311 140.453 44.4871 139.945 45.6116 139.118C45.8853 138.917 46.0296 138.988 46.0445 139.329C46.1248 141.049 46.1441 142.84 46.1025 144.704C46.0697 146.079 46.6186 146.666 47.7491 146.465C48.5255 146.327 49.3064 146.264 50.0918 146.276C50.9397 146.288 51.6849 146.513 52.3275 146.95Z" fill="white"/>
<path d="M33.451 147.851C34.5159 147.674 35.2458 146.718 35.0812 145.717C34.9165 144.715 33.9197 144.047 32.8548 144.225C31.7898 144.402 31.06 145.358 31.2246 146.36C31.3892 147.361 32.386 148.029 33.451 147.851Z" fill="white"/>
<path d="M39.98 197.024C35.29 193.061 30.8455 188.032 27.0257 183.049C27.0077 183.024 26.9947 182.997 26.9872 182.968C26.9797 182.938 26.978 182.908 26.9822 182.878C26.9863 182.849 26.9963 182.82 27.0114 182.795C27.0265 182.769 27.0465 182.747 27.0703 182.73L75.8128 146.519C75.986 146.389 76.1938 146.31 76.4149 146.289C76.636 146.267 76.8625 146.305 77.0712 146.398L82.4305 148.775C82.4645 148.79 82.4946 148.814 82.5183 148.842C82.542 148.871 82.5587 148.905 82.567 148.941C82.5752 148.977 82.5749 149.014 82.5659 149.049C82.5569 149.084 82.5396 149.117 82.5153 149.143L40.3012 196.997C40.26 197.043 40.2035 197.071 40.1435 197.076C40.0836 197.081 40.0249 197.063 39.98 197.024Z" fill="white"/>
<path d="M188.06 191.645C188.096 191.678 188.125 191.719 188.146 191.763C188.166 191.808 188.178 191.857 188.179 191.906C188.181 191.955 188.173 192.003 188.156 192.049C188.138 192.095 188.112 192.136 188.078 192.171C183.609 196.784 178.734 200.982 173.45 204.762C173.401 204.797 173.341 204.811 173.283 204.802C173.224 204.793 173.172 204.761 173.138 204.713L134.44 151.912C134.409 151.869 134.388 151.82 134.379 151.767C134.371 151.715 134.374 151.661 134.389 151.608C134.403 151.556 134.43 151.507 134.466 151.465C134.502 151.422 134.546 151.388 134.596 151.363L139.835 148.824C139.929 148.779 140.031 148.76 140.128 148.77C140.225 148.779 140.313 148.817 140.379 148.878L188.06 191.645Z" fill="white"/>
<path d="M58.0212 210.011C57.9848 209.989 57.953 209.961 57.9276 209.926C57.9023 209.892 57.8839 209.853 57.8735 209.812C57.8632 209.771 57.861 209.728 57.8672 209.685C57.8734 209.643 57.8878 209.603 57.9096 209.566L91.9352 152.231C91.9731 152.168 92.0261 152.118 92.0869 152.087C92.1477 152.056 92.2132 152.047 92.2744 152.06L95.5051 152.761C95.5531 152.772 95.5947 152.803 95.6212 152.848C95.6478 152.894 95.6574 152.949 95.6479 153.004C94.9697 156.855 94.6796 160.913 93.4435 164.557C87.4074 182.313 81.3713 200.069 75.3352 217.826C75.3159 217.881 75.2756 217.927 75.223 217.953C75.1704 217.979 75.1097 217.984 75.0541 217.965C69.1578 215.943 63.4802 213.292 58.0212 210.011Z" fill="white"/>
<path d="M36.5085 154.814L26.3164 159.852L26.2182 159.115C26.2101 159.057 26.2227 158.992 26.2547 158.926C26.2868 158.86 26.3372 158.795 26.4012 158.737C28.8867 156.5 29.8372 153.529 33.2331 153.017C34.6551 152.804 35.7469 153.403 36.5085 154.814Z" fill="white"/>
<path d="M132.436 203.976C132.262 203.934 132.104 203.845 131.977 203.719C131.85 203.593 131.761 203.435 131.717 203.261L128.187 189.129C128.17 189.057 128.174 188.982 128.2 188.912C128.225 188.843 128.271 188.782 128.33 188.738C131.876 186.158 134.653 182.845 136.662 178.798C136.834 178.453 137.004 178.455 137.17 178.802L154.667 214.896C154.693 214.948 154.707 215.005 154.711 215.064C154.714 215.122 154.706 215.18 154.687 215.234C154.667 215.288 154.638 215.337 154.599 215.379C154.56 215.42 154.514 215.453 154.462 215.475L150.508 217.183C150.464 217.203 150.415 217.211 150.366 217.208C150.318 217.205 150.27 217.19 150.228 217.165C150.185 217.14 150.149 217.105 150.122 217.063C150.095 217.02 150.077 216.972 150.071 216.922C149.085 208.51 139.152 205.639 132.436 203.976Z" fill="white"/>
<path fill-rule="evenodd" clip-rule="evenodd" d="M114.141 43.2845C115.468 41.496 117.361 40.7755 119.821 41.123C121.074 41.0991 121.108 41.0017 119.924 40.8309C118.808 40.6722 117.688 40.5673 116.564 40.5164C111.86 40.3097 108.746 42.4861 107.22 47.0458C106.274 49.8633 102.048 49.5128 102.967 46.4032C103.785 43.629 105.598 41.9439 108.407 41.3477C108.529 41.2812 108.908 41.254 109.213 41.2322C109.444 41.2156 109.632 41.2021 109.634 41.177C109.637 41.1566 109.632 41.1355 109.619 41.1149C109.606 41.0942 109.585 41.0745 109.558 41.0569C109.531 41.0393 109.498 41.0241 109.461 41.0123C109.424 41.0005 109.384 40.9923 109.344 40.9882C105.113 40.5928 100.767 41.6937 98.8125 45.8415C98.1342 47.4053 97.032 49.778 94.89 48.4298C94.417 48.1303 94.2802 47.7183 94.4795 47.1941C94.8722 46.1455 95.5415 45.3262 96.4876 44.736C96.7821 44.6132 97.0126 44.4364 97.1792 44.2057C97.2744 44.0769 97.2387 44.0185 97.0721 44.0305C91.2711 44.4529 87.6298 53.6785 86.3803 58.3385C85.7288 60.7652 85.9564 62.5357 87.4468 64.4365C87.6134 64.6492 87.7131 64.6208 87.7458 64.3512C87.8678 63.2966 88.14 62.305 88.5624 61.3763C88.6407 61.205 88.7633 61.0582 88.9173 60.9514C89.0712 60.8446 89.2508 60.7818 89.437 60.7696C92.1293 60.5989 94.8885 60.6034 97.7147 60.7831C98.3722 60.8251 98.93 61.2685 99.3881 62.1133C100.642 66.1655 95.5666 65.869 92.5123 65.6905C91.9458 65.6574 91.4489 65.6284 91.0747 65.6319C89.1856 65.557 87.3442 65.557 85.5503 65.6319C82.2526 65.7667 84.3499 70.8087 85.1085 72.4668C85.171 72.6017 85.2245 72.5972 85.2692 72.4534L86.2107 69.4695C86.3952 68.8943 86.7983 68.5708 87.42 68.4989L87.4423 68.4964C89.4298 68.2776 96.1616 67.5362 97.2863 69.6583C98.7147 73.8645 93.2367 73.5004 90.2131 73.2994C89.7416 73.2681 89.3297 73.2407 89.0131 73.2353C87.1359 73.2083 85.2602 73.2398 83.386 73.3296C80.1463 73.4824 82.3597 78.0076 83.1718 79.2389L84.3142 76.3764C84.3791 76.2172 84.4987 76.0808 84.6577 75.9848C84.8167 75.8887 85.0078 75.8373 85.2067 75.8371C88.1161 75.8371 90.7609 75.8446 93.1408 75.8596C94.1761 75.8656 94.8826 76.3389 95.2604 77.2796C95.8227 79.152 95.1533 80.25 93.2523 80.5735L80.8693 80.7623C78.4462 81.0005 80.2311 85.5436 80.9987 86.8468L81.8733 84.1416C82.0667 83.5454 82.4549 83.2488 83.038 83.2518L89.9859 83.2743C90.1406 83.2773 90.1748 83.3432 90.0885 83.472L89.0354 85.0358L88.0403 87.8399C88.0179 87.9035 87.9789 87.9586 87.9287 87.9979C87.8785 88.0373 87.8193 88.059 87.7592 88.0601L84.5463 88.0961L81.2039 88.0646C80.791 88.0646 80.4363 88.0875 80.0396 88.1131C79.7333 88.1329 79.402 88.1543 78.9995 88.168C76.2998 88.2713 78.049 92.8909 78.8612 94.2794C79.0499 93.7191 79.1753 93.2397 79.2823 92.8309C79.7166 91.1711 79.8461 90.6764 82.6676 90.662C84.3008 90.656 85.9326 90.6575 87.5628 90.6665C87.6367 90.6665 87.7075 90.6874 87.7634 90.7258C87.8194 90.7642 87.8573 90.8177 87.8707 90.8777L88.2143 92.3516C88.5088 93.3343 88.9714 94.2705 89.6021 95.1602C89.7628 95.3879 89.7077 95.5002 89.437 95.4972L88.0091 95.4793L78.8746 95.641C76.6404 94.979 75.5204 95.6425 75.5144 97.6318C75.5114 99.0578 75.8833 100.562 76.63 102.143L77.5671 98.9979C77.7069 98.5365 78.058 98.3058 78.6202 98.3058H87.2281C88.0879 98.3058 88.7201 98.7867 89.1246 99.7483C90.194 103.616 85.566 103.362 82.2401 103.179C81.7909 103.154 81.3653 103.13 80.9808 103.119L74.0909 103.289C73.1746 105.306 73.246 107.352 74.3051 109.428L75.1797 106.723C75.3969 106.055 75.8238 105.72 76.4604 105.72H83.4262C85.8046 105.72 87.7413 106.013 87.2103 108.978C87.002 109.856 86.4502 110.337 85.5547 110.421L77.634 110.533L74.5193 110.655C73.0884 110.277 72.126 110.517 71.6321 111.374C70.9593 112.535 71.5949 114.649 72.0419 116.135C72.093 116.305 72.1416 116.467 72.1855 116.618L73.194 113.917C73.3873 113.396 73.7651 113.135 74.3274 113.135C77.2756 113.135 80.0883 113.138 82.7658 113.144C83.7594 113.144 84.5046 113.607 85.0014 114.533C85.6113 116.312 85.0148 117.419 83.212 117.854C82.4177 118.045 79.889 118.077 75.626 117.948L72.2792 118.06L70.7263 118.173C70.2354 118.209 69.9379 118.498 69.8338 119.04C68.5695 125.676 69.9141 131.637 73.8678 136.925C74.1742 137.335 74.6487 137.762 75.2913 138.206C73.4468 135.728 73.1523 133.072 74.4077 130.238C76.1183 129.942 76.9989 130.466 77.0495 131.811C77.2503 137.392 77.7277 142.057 83.8858 143.225C83.9602 143.237 84.0271 143.255 84.0866 143.279C85.8448 143.971 85.9043 143.904 84.2651 143.077C82.0875 141.399 81.0775 139.188 81.2352 136.444C81.2511 136.155 81.241 135.788 81.2298 135.384C81.1783 133.528 81.1047 130.875 83.4351 131.24C84.9032 131.308 85.2201 132.229 85.2201 133.591C85.2335 141.67 85.2513 144.762 94.069 146.425C94.2921 146.467 94.3144 146.428 94.1359 146.308C93.7878 146.077 93.4457 145.854 93.1095 145.638C90.7385 143.943 89.5977 141.672 89.6869 138.826C89.6979 138.492 89.6922 138.087 89.6858 137.643C89.6485 135.035 89.5917 131.057 92.8061 131.879C94.6088 132.509 94.4088 135.254 94.2619 137.271C94.2278 137.74 94.1964 138.17 94.1939 138.525C94.1493 143.848 96.7018 146.957 101.851 147.849C101.918 147.861 101.981 147.886 102.038 147.923C102.094 147.96 102.143 148.008 102.181 148.064C102.218 148.12 102.245 148.183 102.258 148.25C102.271 148.316 102.271 148.385 102.257 148.451C101.952 149.994 101.677 151.554 101.4 153.12C101.026 155.238 100.65 157.368 100.196 159.479C99.4651 162.853 101.297 164.119 102.979 165.282C104.317 166.207 105.561 167.067 105.345 168.871C105.22 169.916 104.587 170.42 103.961 170.919C103.276 171.465 102.599 172.004 102.601 173.239C102.616 178.482 102.623 183.882 102.623 189.439C102.623 189.53 102.6 189.619 102.557 189.7C102.513 189.78 102.45 189.848 102.373 189.897C94.4899 194.972 90.1495 202.168 89.3522 211.485C89.3431 211.591 89.3043 211.693 89.2404 211.778C89.1764 211.863 89.0899 211.928 88.9908 211.966C86.8548 212.772 85.0505 214.038 83.5779 215.763C83.4802 215.873 83.4261 216.011 83.4262 216.15L83.3325 224.894C83.3325 224.922 83.3294 224.949 83.3236 224.975V230.759H144.458V225.212C144.473 225.223 144.489 225.231 144.506 225.239C144.525 225.247 144.545 225.252 144.565 225.255C144.579 225.257 144.592 225.258 144.605 225.258C144.571 225.258 144.538 225.252 144.506 225.239C144.475 225.225 144.446 225.206 144.422 225.182C144.398 225.158 144.379 225.129 144.366 225.097C144.353 225.066 144.347 225.032 144.347 224.998V216.446C144.347 216.163 144.24 215.891 144.048 215.687C139.264 210.627 129.915 208.802 123.289 208.335C123.225 208.33 123.162 208.347 123.11 208.383C123.058 208.419 123.02 208.472 123.003 208.533C122.572 209.977 122.16 211.427 121.767 212.883C121.696 213.161 121.588 212.959 121.588 212.833V186.612C121.589 186.525 121.612 186.439 121.657 186.364C121.702 186.289 121.766 186.227 121.843 186.185C128.474 182.595 133.137 176.748 132.967 168.857C132.846 163.12 130.742 158.266 126.658 154.293C126.61 154.247 126.578 154.188 126.566 154.124C126.554 154.06 126.562 153.995 126.591 153.938L129.875 147.279C129.926 147.174 129.999 147.08 130.091 147.003C130.182 146.927 130.289 146.869 130.406 146.834C135.551 145.261 140.094 142.592 142.629 137.626C142.728 137.434 142.759 137.214 142.716 137.004C142.674 136.794 142.561 136.607 142.396 136.476L140.759 135.154L136.555 132.517L131.142 129.331C131.055 129.679 130.97 130.06 130.881 130.461C130.234 133.357 129.351 137.316 125.6 137.932C125.454 137.956 125.413 137.899 125.475 137.761C126.308 135.888 127.012 133.968 127.586 132C133.53 111.607 139.46 91.2102 145.377 70.8087C146.457 67.0848 147.147 63.7804 147.448 60.8955C147.457 60.8062 147.483 60.7235 147.523 60.6624C147.562 60.6013 147.611 60.566 147.662 60.5629C147.754 60.5569 147.83 60.6393 147.89 60.8101C149.172 64.6477 149.115 68.4674 147.72 72.2691C147.683 72.3695 147.682 72.4794 147.716 72.5802C147.75 72.681 147.818 72.7664 147.908 72.8218C150.606 74.4815 153.253 76.0963 155.851 77.6661C158.059 78.9988 157.888 79.5581 157.388 81.2015C157.288 81.5309 157.175 81.9037 157.064 82.3351C158.846 81.6311 159.925 80.2889 160.3 78.3087C163.642 60.6169 148.443 48.0479 133.748 43.1452C130.272 41.9836 128.487 45.1527 126.851 48.0572C126.651 48.4113 126.454 48.7615 126.256 49.0994C124.908 50.4805 123.65 50.443 122.481 48.9871C121.562 47.8412 122.195 46.5694 122.891 45.3382C124.18 43.0523 126.381 42.0053 129.496 42.197C128.208 41.469 127.013 41.0826 125.912 41.0376C121.581 40.8699 118.75 42.8726 117.421 47.0458C116.8 48.8253 114.734 50.6587 112.909 49.1354C111.169 47.6839 112.86 45.0146 114.141 43.2845ZM124.806 67.9731C119.978 66.7823 116.608 66.4497 110.919 65.9824C109.286 66.0678 107.322 65.8431 106.885 64.1444C106.381 62.1672 107.822 61.1022 109.625 61.1247C114.197 61.1816 118.706 61.6879 123.15 62.6435C127.075 63.4866 130.96 65.1954 134.782 66.8771C135.34 67.1226 135.897 67.3675 136.453 67.6091C139.184 68.7955 138.523 72.5522 135.694 72.3545C135.269 72.3245 134.586 72.1073 133.646 71.7029C130.704 70.4447 127.757 69.2014 124.806 67.9731ZM122.351 75.5001C117.877 74.4725 113.346 73.8299 108.759 73.5723C103.931 74.2778 103.163 68.6966 107.59 68.7685C114.217 68.8808 120.915 69.6043 127.305 72.2152C127.648 72.3552 128.121 72.5333 128.669 72.7401C131.115 73.6619 135.078 75.1555 135.913 76.4034C136.845 77.8054 135.596 80.1197 133.802 80.0343C133.433 80.0193 132.841 79.8351 132.026 79.4816C128.825 78.0915 125.6 76.7644 122.351 75.5001ZM120.584 83.0451C116.223 81.9636 111.798 81.315 107.309 81.0993C107.18 81.0959 107.044 81.0938 106.902 81.0915C105.73 81.0731 104.163 81.0485 103.395 80.259C101.963 78.7805 102.78 76.4123 104.725 76.1427C104.835 76.1277 105.665 76.1517 107.215 76.2146C112.35 76.4303 117.401 77.2032 122.369 78.5334C123.411 78.812 126.461 80.0822 131.522 82.3441C132.509 82.7845 133.176 83.2009 133.521 83.5933C135.176 85.4807 132.896 88.2444 130.652 87.2692C127.317 85.8132 123.961 84.4052 120.584 83.0451ZM118.13 90.3474C114.721 89.4996 111.262 88.9633 107.755 88.7387L105.328 88.5185C105.249 88.5106 105.174 88.4749 105.117 88.417C105.059 88.3591 105.022 88.2824 105.011 88.1994C104.794 86.5457 104.292 85.0912 103.507 83.836C103.376 83.6293 103.432 83.5334 103.676 83.5484C110.794 84.0157 117.702 84.555 124.279 87.4894C124.638 87.6493 125.133 87.8371 125.701 88.0529C128.836 89.2435 134.21 91.284 131.312 94.1716C130.488 94.9954 129.412 95.0913 128.086 94.4592C126.024 93.4736 122.706 92.103 118.13 90.3474ZM93.8101 84.919C93.9976 84.5086 94.3322 84.3213 94.8142 84.3573C95.4538 84.0547 96.086 84.0547 96.7107 84.3573C100.364 85.9211 101.148 88.5275 99.0624 92.1764C96.2689 95.6905 91.0613 94.1132 91.2443 89.4307C91.3186 87.5074 92.1739 86.0035 93.8101 84.919ZM116.457 97.9868C112.687 96.9862 108.857 96.3376 104.966 96.041L102.507 95.9781C102.35 95.9751 102.324 95.9077 102.431 95.7758C103.499 94.4936 104.294 93.0586 104.814 91.4708C104.835 91.4091 104.874 91.3558 104.927 91.3192C104.979 91.2827 105.042 91.2649 105.104 91.2686C108.308 91.4364 111.469 91.8693 114.587 92.5673C119.085 93.5694 124.123 95.8478 128.255 97.7711C130.232 98.6923 129.817 101.748 127.751 102.206C126.238 102.545 120.872 100.04 117.92 98.661C117.311 98.3767 116.805 98.1404 116.457 97.9868ZM114.002 105.514C109.489 104.399 104.916 103.737 100.281 103.528C98.6964 103.721 97.1257 103.343 96.5991 101.654C95.6142 98.4898 99.1342 98.6622 101.183 98.7625C101.334 98.7699 101.478 98.7769 101.61 98.7822C110.459 99.1327 118.161 101.317 126.189 105.357C129.032 106.786 127.215 110.969 123.855 109.567C120.58 108.198 117.296 106.847 114.002 105.514ZM111.883 112.928C107.444 111.868 102.945 111.219 98.3841 110.983C93.7387 111.585 92.9043 106.004 97.2953 106.102C101.859 106.201 106.357 106.745 110.789 107.734C114.505 108.559 118.174 110.192 121.779 111.796C122.236 111.999 122.691 112.202 123.146 112.403C127.336 114.254 124.77 118.483 121.771 117.162C118.49 115.715 115.194 114.304 111.883 112.928ZM110.415 120.55C106.074 119.375 101.655 118.695 97.1569 118.51C96.9459 118.496 96.7214 118.486 96.4896 118.475C95.4517 118.428 94.2682 118.374 93.5022 117.948C91.3603 116.748 92.342 113.432 95.1399 113.522C101.365 113.724 107.786 114.425 113.659 116.681C114.84 117.134 116.002 117.63 117.165 118.127C118.572 118.728 119.979 119.329 121.419 119.853C124.877 121.107 123.373 126.064 119.692 124.482C116.604 123.158 113.512 121.847 110.415 120.55ZM109.995 148.186L105.751 148.168C101.945 147.764 100.093 145.463 99.4015 141.711C98.9434 139.218 98.9389 136.883 99.3881 134.705C99.6053 133.648 100.331 133.143 101.566 133.191C102.94 133.37 103.627 134.175 103.627 135.604C103.627 136.151 103.61 136.751 103.592 137.372C103.535 139.363 103.472 141.584 103.944 143.077C104.743 145.607 107.768 147.229 110.04 147.854C110.861 148.078 110.846 148.189 109.995 148.186ZM104.202 149.673C104.253 149.635 104.316 149.614 104.382 149.615L106.184 149.642C106.224 149.643 106.264 149.652 106.3 149.67C106.336 149.687 106.367 149.711 106.392 149.741C106.417 149.771 106.435 149.806 106.445 149.843C106.455 149.881 106.455 149.919 106.448 149.957L103.739 162.795C103.726 162.853 103.699 162.907 103.66 162.951C103.621 162.995 103.571 163.029 103.516 163.048C103.46 163.067 103.401 163.072 103.343 163.062C103.285 163.051 103.231 163.026 103.186 162.989C102.182 162.153 102.101 161.007 102.311 159.672C102.826 156.422 103.424 153.14 104.105 149.827C104.117 149.766 104.152 149.712 104.202 149.673ZM120.62 166.75C112.82 167.842 111.704 155.749 120.361 155.65C120.593 155.65 120.7 155.695 120.683 155.785C120.676 155.824 120.647 155.864 120.598 155.898C120.549 155.931 120.483 155.958 120.41 155.974C114.284 157.322 114.292 165.55 120.62 166.485C121.233 166.575 121.233 166.663 120.62 166.75ZM129.349 177.742C131.084 171.85 131.102 166.256 128.951 160.423C128.943 160.401 128.925 160.373 128.906 160.343C128.849 160.256 128.78 160.15 128.92 160.126C128.951 160.121 128.985 160.127 129.016 160.145C129.047 160.162 129.074 160.19 129.094 160.225C132.378 166.01 132.477 171.855 129.389 177.76C129.32 177.894 129.307 177.888 129.349 177.742ZM119.545 168.943C122.656 168.646 124.98 167.008 126.515 164.027C126.714 163.637 126.876 163.652 127.001 164.072C128.992 170.642 127.308 175.964 121.95 180.038C121.709 180.221 121.588 180.159 121.588 179.854C121.588 179.266 121.61 178.671 121.632 178.073C121.74 175.108 121.851 172.075 119.326 169.554C118.963 169.195 119.036 168.991 119.545 168.943ZM105.225 174.69C105.158 173.94 106.515 173.998 107.059 174.16C107.131 174.181 107.194 174.224 107.239 174.284C107.284 174.344 107.309 174.417 107.309 174.493V186.891C107.309 187.005 107.283 187.115 107.233 187.207C107.183 187.299 107.112 187.371 107.028 187.412L105.435 188.208C105.412 188.219 105.386 188.223 105.361 188.22C105.335 188.217 105.311 188.206 105.289 188.19C105.267 188.173 105.249 188.151 105.236 188.125C105.224 188.099 105.217 188.07 105.216 188.041C105.148 183.763 105.164 179.487 105.265 175.212C105.265 175.188 105.252 175.014 105.225 174.69ZM93.3639 202.102C96.6928 194.103 105.118 189.506 112.798 187.017C113.018 186.945 113.025 186.955 112.82 187.048C105.112 190.475 98.6444 195.504 93.4174 202.134C93.3252 202.25 93.3074 202.24 93.3639 202.102ZM107.108 211.305C106.617 211.509 106.05 211.502 105.408 211.283C105.344 211.261 105.289 211.219 105.25 211.164C105.211 211.11 105.189 211.044 105.189 210.977L105.216 194.611C105.216 194.539 105.231 194.469 105.259 194.404C105.288 194.34 105.329 194.283 105.381 194.238C105.911 193.774 106.51 193.432 107.179 193.214C107.204 193.206 107.229 193.204 107.254 193.209C107.279 193.214 107.303 193.225 107.323 193.241C107.344 193.257 107.36 193.278 107.372 193.302C107.383 193.326 107.389 193.353 107.389 193.38L107.309 210.991C107.308 211.06 107.288 211.127 107.252 211.183C107.217 211.239 107.166 211.281 107.108 211.305ZM94.7472 209.71C95.6531 204.165 98.2145 199.608 102.414 196.125C102.553 196.009 102.623 196.042 102.623 196.224L102.597 208.151C102.597 208.211 102.575 208.271 102.534 208.318C102.493 208.366 102.437 208.399 102.373 208.411L94.9347 209.885C94.9096 209.891 94.8836 209.89 94.8589 209.883C94.8342 209.877 94.8116 209.864 94.7931 209.847C94.7746 209.829 94.7607 209.808 94.7527 209.784C94.7447 209.76 94.7428 209.735 94.7472 209.71ZM141.111 219.524C136.296 225.995 91.753 225.672 86.8265 219.542C86.5052 219.144 86.587 219.021 87.072 219.174C89.4906 219.929 91.9359 220.5 94.4081 220.886C107.548 222.935 120.694 222.974 133.847 221.003C136.221 220.649 138.531 220.044 140.777 219.187C141.321 218.981 141.433 219.093 141.111 219.524Z" fill="#FFB800"/>
<path fill-rule="evenodd" clip-rule="evenodd" d="M125.222 222.007C121.718 221.565 117.894 221.322 113.891 221.322C110.08 221.322 106.431 221.542 103.066 221.945C110.45 222.6 117.835 222.621 125.222 222.007ZM96.5931 223.017C88.5788 224.758 83.3237 227.677 83.3237 230.983C83.3237 236.319 97.0092 240.645 113.891 240.645C130.773 240.645 144.458 236.319 144.458 230.983C144.458 227.72 139.339 224.834 131.501 223.085C121.604 224.694 106.551 224.628 96.5931 223.017Z" fill="#FFB800"/>
</svg>
