<svg width="160" height="182" viewBox="0 0 160 182" fill="none" xmlns="http://www.w3.org/2000/svg">
<path d="M123.395 171.627C123.469 171.433 123.405 171.368 123.203 171.431C108.335 176.195 93.0516 171.235 79.0214 165.417C67.0322 160.449 57.776 153.029 54.33 140.167C51.885 131.039 52.4752 122.154 56.1006 113.512C67.7984 85.6213 101.537 79.6577 127.058 91.4835C130.932 93.2769 135.151 95.6465 138.547 97.7008C147.353 103.03 154.911 109.867 157.582 120.117C160.141 129.921 160.374 139.428 158.28 148.638C156.613 155.976 152.95 162.122 147.292 167.076C138.597 174.685 127.223 179.746 115.944 181.971C115.384 182.082 115.135 181.878 115.197 181.358C115.204 181.305 115.225 181.252 115.258 181.206C115.292 181.16 115.337 181.122 115.389 181.094C115.966 180.8 116.423 180.692 116.87 180.199C119.243 177.59 122.129 174.964 123.395 171.627ZM55.6076 125.269C53.5637 141.095 63.0037 154.681 77.1858 161.319C91.871 168.192 108.737 172.677 124.471 168.29C126.441 167.739 127.224 169.92 125.825 170.413C125.755 170.439 125.693 170.484 125.649 170.544C125.605 170.604 125.579 170.676 125.575 170.75C125.46 173.337 123.512 176.087 121.841 177.967C121.528 178.317 121.586 178.395 122.015 178.199C126.331 176.216 130.561 174.031 134.703 171.645C140.239 168.449 146.343 165.272 149.728 159.667C151.63 156.512 153.166 153.078 154.335 149.363C156.903 141.443 157.443 133.445 155.955 125.37C154.082 115.204 148.369 107.693 139.827 101.922C129.38 94.8639 117.03 89.6321 104.266 88.6865C91.0254 87.7046 78.2954 92.4581 68.6313 101.342C61.8962 107.534 56.6852 116.103 55.6076 125.269Z" fill="#2477F4"/>
<path d="M55.6073 125.269C53.5635 141.095 63.0034 154.681 77.1855 161.319C91.8707 168.192 108.736 172.677 124.471 168.29C126.44 167.739 127.224 169.92 125.825 170.413C125.754 170.439 125.693 170.484 125.649 170.544C125.604 170.604 125.578 170.675 125.574 170.75C125.46 173.337 123.512 176.087 121.841 177.967C121.528 178.317 121.586 178.394 122.014 178.199C126.331 176.216 130.56 174.031 134.703 171.645C140.239 168.449 146.342 165.272 149.728 159.667C151.63 156.512 153.166 153.077 154.334 149.363C156.903 141.442 157.443 133.445 155.954 125.37C154.082 115.204 148.369 107.693 139.827 101.922C129.379 94.8637 117.03 89.6319 104.265 88.6863C91.0251 87.7044 78.2951 92.458 68.631 101.342C61.8959 107.534 56.6849 116.102 55.6073 125.269Z" fill="white"/>
<path d="M80.1191 130.452C79.2616 132.895 75.5829 133.834 71.9025 132.549C68.2221 131.264 65.9337 128.242 66.7912 125.8C67.6486 123.357 71.3273 122.418 75.0078 123.703C78.6882 124.988 80.9766 128.01 80.1191 130.452Z" fill="#2477F4"/>
<path d="M83.7817 121.448C83.0711 123.175 80.4417 123.736 77.9089 122.701C75.3761 121.667 73.8989 119.429 74.6095 117.703C75.3201 115.976 77.9494 115.415 80.4823 116.45C83.0151 117.484 84.4923 119.722 83.7817 121.448Z" fill="#2477F4"/>
<path d="M83.3502 116.044C85.3525 117.098 87.5523 116.869 88.2636 115.533C88.9749 114.196 87.9284 112.259 85.9262 111.205C83.9239 110.151 81.7241 110.38 81.0128 111.716C80.3014 113.052 81.3479 114.99 83.3502 116.044Z" fill="#2477F4"/>
<path d="M92.3586 112.435C91.5723 113.378 89.8134 113.222 88.4299 112.087C87.0464 110.952 86.5623 109.267 87.3485 108.324C88.1348 107.381 89.8937 107.537 91.2772 108.672C92.6607 109.807 93.1448 111.491 92.3586 112.435Z" fill="#2477F4"/>
<path d="M94.3743 110.715C95.6787 111.359 97.0979 111.156 97.5442 110.261C97.9905 109.367 97.2949 108.119 95.9906 107.475C94.6862 106.831 93.267 107.035 92.8207 107.929C92.3744 108.824 93.07 110.071 94.3743 110.715Z" fill="#2477F4"/>
<path d="M103.314 136.462C104.228 136.226 105.198 136.011 106.138 135.967C107.733 135.892 109.27 136.144 110.746 136.724C113.307 137.73 115.255 139.341 116.544 141.77C117.176 142.962 117.687 144.275 118.187 145.56C118.647 146.744 119.098 147.904 119.627 148.923C121.412 152.366 124.782 154.779 128.636 155.442C134.284 156.413 139.08 152.287 139.729 146.81C140.178 143.03 138.477 139.57 135.33 137.423C134.863 137.104 134.294 136.765 133.623 136.404C131.484 135.253 129.519 133.824 127.729 132.117C125.647 130.132 123.941 127.789 122.234 125.444L122.234 125.443C121.097 123.881 119.96 122.319 118.71 120.861C116.402 118.167 113.554 116.015 110.33 114.469C100.761 109.881 91.9998 117.339 87.2002 124.799C85.7152 127.107 84.3461 129.698 84.4482 132.468C84.5247 134.54 85.5405 136.206 87.2156 137.42C90.2089 139.591 93.5243 139.836 96.9562 138.716C97.9316 138.398 98.8893 138.036 99.8471 137.674L99.8477 137.674L99.8479 137.674C100.776 137.323 101.703 136.973 102.647 136.662L103.314 136.462Z" fill="#2477F4"/>
<path d="M27.7995 119.478C27.7416 119.343 27.7847 119.296 27.9289 119.337C38.5419 122.411 49.1699 118.627 58.89 114.262C67.1962 110.536 73.5064 105.134 75.5669 96.0085C77.0287 89.5325 76.3588 83.285 73.557 77.2661C64.5165 57.8415 40.5719 54.2804 22.9265 63.0944C20.2479 64.4311 17.3432 66.1802 15.0087 67.6917C8.95547 71.6128 3.82564 76.572 2.23669 83.8426C0.713602 90.7972 0.821458 97.4984 2.56026 103.946C3.94474 109.083 6.70144 113.343 10.8304 116.726C17.175 121.92 25.3341 125.27 33.3454 126.623C33.7436 126.691 33.9133 126.542 33.8544 126.178C33.8483 126.14 33.8321 126.104 33.8072 126.072C33.7823 126.04 33.7494 126.014 33.7114 125.995C33.2968 125.799 32.9717 125.731 32.6426 125.393C30.8958 123.6 28.7873 121.805 27.7995 119.478ZM74.2406 85.5384C76.1333 96.6473 69.87 106.397 60.0663 111.341C49.9148 116.461 38.1585 119.94 26.9458 117.148C25.5422 116.797 25.0527 118.349 26.0524 118.669C26.1028 118.686 26.1472 118.717 26.1802 118.758C26.2133 118.8 26.2335 118.849 26.2385 118.902C26.3932 120.722 27.8443 122.622 29.0758 123.915C29.3061 124.156 29.2675 124.211 28.9601 124.081C25.8619 122.766 22.819 121.308 19.8315 119.705C15.8393 117.559 11.4476 115.437 8.90159 111.553C7.47099 109.367 6.29079 106.976 5.36099 104.382C3.32456 98.8516 2.71539 93.2284 3.53347 87.5123C4.56206 80.3155 8.37308 74.9167 14.2275 70.6892C21.3873 65.5195 29.94 61.6001 38.9073 60.692C48.2091 59.7494 57.3153 62.8564 64.3792 68.931C69.3021 73.1649 73.2191 79.1019 74.2406 85.5384Z" fill="#2477F4"/>
<path d="M74.2408 85.5381C76.1336 96.647 69.8702 106.397 60.0665 111.341C49.9151 116.461 38.1587 119.94 26.946 117.148C25.5424 116.797 25.0529 118.348 26.0527 118.669C26.103 118.686 26.1474 118.717 26.1805 118.758C26.2135 118.799 26.2337 118.849 26.2387 118.901C26.3935 120.722 27.8445 122.622 29.0761 123.915C29.3063 124.155 29.2677 124.211 28.9604 124.081C25.8621 122.766 22.8193 121.307 19.8317 119.705C15.8395 117.559 11.4478 115.436 8.90181 111.552C7.47121 109.366 6.29101 106.976 5.36121 104.382C3.32478 98.8513 2.71561 93.2281 3.53369 87.512C4.56228 80.3152 8.3733 74.9164 14.2277 70.6889C21.3875 65.5192 29.9402 61.5998 38.9075 60.6917C48.2093 59.7491 57.3155 62.8561 64.3794 68.9307C69.3023 73.1646 73.2193 79.1016 74.2408 85.5381Z" fill="#F35B60"/>
<path d="M57.1167 89.6545C57.7907 91.3589 60.4098 91.9503 62.9665 90.9755C65.5231 90.0007 67.0493 87.8288 66.3752 86.1244C65.7011 84.42 63.0821 83.8286 60.5254 84.8034C57.9687 85.7782 56.4426 87.9501 57.1167 89.6545Z" fill="#2477F4"/>
<path d="M54.2783 83.3815C54.8284 84.5841 56.6972 84.9294 58.4524 84.1528C60.2076 83.3761 61.1846 81.7717 60.6345 80.5691C60.0843 79.3665 58.2155 79.0212 56.4603 79.7979C54.7051 80.5745 53.7282 82.179 54.2783 83.3815Z" fill="#2477F4"/>
<path d="M54.4278 79.5663C53.047 80.3467 51.4904 80.2272 50.9509 79.2994C50.4115 78.3716 51.0935 76.9868 52.4743 76.2065C53.855 75.4261 55.4117 75.5456 55.9511 76.4734C56.4906 77.4012 55.8086 78.786 54.4278 79.5663Z" fill="#2477F4"/>
<path d="M47.9768 77.1947C48.5578 77.8441 49.7928 77.701 50.7352 76.8752C51.6777 76.0494 51.9706 74.8535 51.3896 74.2042C50.8086 73.5548 49.5736 73.6979 48.6312 74.5237C47.6888 75.3495 47.3958 76.5454 47.9768 77.1947Z" fill="#2477F4"/>
<path d="M46.5072 76.0218C45.6065 76.5001 44.6007 76.3839 44.2606 75.7622C43.9205 75.1404 44.375 74.2487 45.2757 73.7703C46.1764 73.292 47.1823 73.4083 47.5223 74.03C47.8624 74.6517 47.4079 75.5435 46.5072 76.0218Z" fill="#2477F4"/>
<path d="M40.944 94.3271C40.2935 94.1787 39.6037 94.0454 38.9402 94.0321C37.8136 94.0096 36.7383 94.2167 35.7143 94.6532C33.9387 95.4101 32.6122 96.582 31.7734 98.3175C31.362 99.1688 31.0397 100.103 30.7243 101.018C30.4336 101.861 30.1489 102.687 29.8057 103.414C28.6457 105.873 26.3401 107.637 23.6439 108.177C19.6917 108.968 16.1941 106.153 15.5799 102.307C15.1558 99.6531 16.2554 97.1833 18.411 95.6114C18.7311 95.3781 19.1224 95.1279 19.585 94.8609C21.0593 94.0098 22.4029 92.9661 23.616 91.7297C25.0262 90.2923 26.161 88.6092 27.2968 86.9249L27.2972 86.9242C28.0536 85.8026 28.8103 84.6804 29.649 83.6297C31.1986 81.6886 33.144 80.1186 35.3713 78.9686C41.9827 75.5553 48.3699 80.6424 51.9652 85.8062C53.0777 87.404 54.1165 89.2029 54.1238 91.1561C54.1291 92.6174 53.461 93.81 52.3153 94.6972C50.2681 96.2828 47.9389 96.5183 45.4886 95.7948C44.7922 95.5891 44.107 95.3524 43.4218 95.1156L43.4213 95.1155L43.4211 95.1154C42.7574 94.8861 42.0937 94.6567 41.4196 94.4556L40.944 94.3271Z" fill="#2477F4"/>
<path d="M101.394 70.5656C101.519 70.527 101.558 70.5671 101.512 70.6858C101.498 70.7225 101.484 70.7591 101.469 70.7956L101.422 70.6511L101.422 70.6506L101.394 70.5656ZM101.394 70.5656C101.36 70.5768 101.325 70.5879 101.29 70.5989C101.289 70.599 101.289 70.5992 101.288 70.5994C101.205 70.6257 101.121 70.6515 101.037 70.6769C101.049 70.7455 101.082 70.8344 101.161 70.9155C101.23 70.9863 101.306 71.0205 101.367 71.0369C101.402 70.9581 101.436 70.8788 101.468 70.7987L101.421 70.6508L101.421 70.6502L101.394 70.5656ZM97.0288 77.5309C104.035 76.1501 111.112 73.0075 116.535 68.2676L116.535 68.2675C120.094 65.1554 122.402 61.2877 123.452 56.6773C124.761 50.9359 124.616 45.0139 123.026 38.9188C121.338 32.4354 116.56 28.1453 111.102 24.844L111.102 24.8439C109.006 23.5767 106.396 22.1109 103.992 20.9984C88.1447 13.6595 67.0388 17.3066 59.6941 34.7885C57.4202 40.2 57.0478 45.7718 58.5772 51.486L59.0602 51.3595L58.5772 51.486C60.7481 59.5948 66.5943 64.2475 74.0449 67.3326C82.4009 70.7961 91.6262 73.8347 100.679 71.303C100.331 71.9505 99.8816 72.5636 99.377 73.1634C98.9186 73.7082 98.4362 74.2187 97.9508 74.7324C97.6762 75.023 97.4006 75.3146 97.1279 75.614L97.1275 75.6145C96.9944 75.761 96.896 75.8054 96.6999 75.8939C96.6108 75.9342 96.5014 75.9835 96.3593 76.0558L96.3593 76.0557L96.3528 76.0591C96.2567 76.1098 96.1699 76.1825 96.1025 76.275C96.035 76.3678 95.9884 76.4791 95.9736 76.6008L95.9736 76.6012C95.9471 76.8203 95.9625 77.1558 96.2405 77.3835C96.498 77.5945 96.8185 77.5725 97.0288 77.5309ZM97.0288 77.5309L96.9292 77.0404L97.0293 77.5308C97.0291 77.5309 97.029 77.5309 97.0288 77.5309ZM60.3452 42.2745L60.3452 42.2745L60.3459 42.2689C60.9936 36.7822 64.125 31.6209 68.2014 27.8775C74.0501 22.5069 81.7444 19.6399 89.7386 20.2323L89.7386 20.2323C97.4766 20.8052 104.985 23.9777 111.353 28.2782C116.513 31.7628 119.929 36.2682 121.049 42.357L121.049 42.3571C121.947 47.2343 121.619 52.0632 120.063 56.8513L120.062 56.8555C119.354 59.102 118.425 61.1756 117.276 63.0778C115.428 66.1324 112.208 67.9757 109.011 69.8055C108.744 69.9579 108.478 70.1103 108.213 70.2632C106.183 71.4311 104.12 72.5199 102.023 73.5297C102.19 73.2872 102.35 73.0353 102.497 72.7767C102.926 72.0261 103.267 71.1886 103.341 70.3405C103.601 70.2057 103.79 69.9914 103.882 69.7287C103.988 69.4242 103.95 69.099 103.815 68.8276C103.531 68.2566 102.848 67.9279 102.037 68.1543C92.5337 70.802 82.3011 68.1039 73.3158 63.9009C64.7537 59.8959 59.1185 51.7363 60.3452 42.2745Z" fill="#2477F4" stroke="#2477F4"/>
<path d="M59.8495 42.2073C58.5891 51.9294 64.3892 60.276 73.1064 64.3536C82.1329 68.5759 92.5006 71.3314 102.175 68.636C103.386 68.2977 103.867 69.6376 103.007 69.9403C102.963 69.9562 102.926 69.9842 102.898 70.021C102.871 70.0577 102.855 70.1016 102.853 70.1473C102.782 71.7365 101.584 73.4258 100.555 74.581C100.363 74.7962 100.399 74.8436 100.662 74.7234C103.316 73.5052 105.917 72.1631 108.465 70.697C111.869 68.7339 115.622 66.7819 117.705 63.3387C118.875 61.4008 119.82 59.2908 120.539 57.0086C122.12 52.1431 122.454 47.2301 121.541 42.2696C120.392 36.0241 116.882 31.4101 111.632 27.8645C105.211 23.5287 97.6196 20.3147 89.7726 19.7338C81.6329 19.1306 73.8056 22.0508 67.8621 27.5084C63.72 31.3122 60.5143 36.5761 59.8495 42.2073Z" fill="white"/>
<path d="M74.9175 45.3916C74.3897 46.8922 72.1279 47.4688 69.8656 46.6795C67.6032 45.8902 66.1971 44.0339 66.7249 42.5333C67.2526 41.0327 69.5145 40.4561 71.7768 41.2454C74.0391 42.0347 75.4453 43.891 74.9175 45.3916Z" fill="#2477F4"/>
<path d="M77.1714 39.8603C76.7341 40.9208 75.1175 41.2655 73.5606 40.63C72.0037 39.9946 71.0961 38.6197 71.5334 37.5592C71.9707 36.4986 73.5873 36.154 75.1442 36.7895C76.7011 37.4249 77.6087 38.7998 77.1714 39.8603Z" fill="#2477F4"/>
<path d="M76.9075 36.5401C78.1382 37.1876 79.4906 37.047 79.9283 36.2261C80.3659 35.4051 79.723 34.2148 78.4923 33.5673C77.2616 32.9199 75.9092 33.0605 75.4715 33.8814C75.0339 34.7023 75.6768 35.8927 76.9075 36.5401Z" fill="#2477F4"/>
<path d="M82.4465 34.3228C81.9629 34.9022 80.8816 34.8065 80.0313 34.1091C79.1811 33.4118 78.8838 32.3769 79.3675 31.7976C79.8511 31.2183 80.9324 31.3139 81.7826 32.0113C82.6329 32.7086 82.9301 33.7435 82.4465 34.3228Z" fill="#2477F4"/>
<path d="M83.6862 33.2666C84.4879 33.6622 85.3605 33.5373 85.6351 32.9877C85.9097 32.4381 85.4824 31.6719 84.6806 31.2763C83.8789 30.8807 83.0064 31.0056 82.7318 31.5552C82.4572 32.1048 82.8845 32.871 83.6862 33.2666Z" fill="#2477F4"/>
<path d="M89.1759 49.0832C89.7375 48.9387 90.3341 48.8063 90.9119 48.7792C91.8929 48.7332 92.8373 48.8884 93.745 49.2447C95.319 49.8624 96.5161 50.8523 97.3079 52.3446C97.6963 53.0765 98.0099 53.8832 98.3169 54.6726C98.5997 55.4 98.8768 56.1127 99.2014 56.7386C100.298 58.8536 102.37 60.3358 104.738 60.743C108.21 61.3399 111.16 58.8054 111.561 55.4402C111.837 53.1185 110.792 50.9927 108.859 49.6739C108.572 49.4781 108.222 49.2693 107.809 49.0476C106.495 48.3407 105.287 47.4629 104.186 46.4143C102.907 45.1951 101.859 43.7555 100.81 42.3147L100.81 42.3141C100.111 41.3548 99.4126 40.3948 98.6449 39.4992C97.2264 37.8445 95.476 36.5223 93.4946 35.5727C87.6131 32.7542 82.2247 37.3355 79.2722 41.9184C78.3587 43.3364 77.5163 44.9279 77.5784 46.6296C77.625 47.9028 78.249 48.9261 79.2786 49.6721C81.1183 51.0055 83.1564 51.1561 85.2666 50.4683C85.8663 50.2728 86.4552 50.0505 87.0441 49.8282L87.0444 49.828L87.0446 49.828C87.615 49.6126 88.1854 49.3973 88.7658 49.2062L89.1759 49.0832Z" fill="#2477F4"/>
<path d="M31.6383 44.1273C30.5775 43.5861 29.5277 43.0185 28.4887 42.4245C28.2876 42.3093 28.087 42.1951 27.8873 42.0814C25.3365 40.629 22.9377 39.2632 21.5492 37.0138C20.6589 35.569 19.9318 33.991 19.3698 32.2768L19.3671 32.2684L19.367 32.2684C18.1344 28.6166 17.8387 24.9409 18.4744 21.2264L18.4744 21.2262C19.256 16.6533 21.768 13.2608 25.6579 10.6089C30.5306 7.28736 36.2678 4.85593 42.1786 4.4176L42.1787 4.4176C48.245 3.96729 54.126 6.14547 58.6356 10.2411L59.3029 9.5055L31.6383 44.1273ZM31.6383 44.1273C31.5499 43.8798 31.4788 43.6235 31.4328 43.3613C31.2382 43.1976 31.0868 42.9863 30.9969 42.7382C30.8483 42.3277 30.899 41.9032 31.0641 41.5616C31.4213 40.8224 32.2686 40.4694 33.155 40.716L31.6383 44.1273ZM35.4989 44.7226C42.2998 46.0415 49.0752 43.738 55.1087 41.2219C61.0009 38.7673 65.7148 35.0121 67.3948 28.4159L67.3948 28.4158C68.5662 23.8155 68.2085 19.3184 66.3225 14.96C60.2218 0.859175 43.2436 -1.97439 30.7342 3.85771C28.8377 4.7411 26.7907 5.90041 25.1545 6.89812L25.1543 6.89823C20.8661 9.51431 17.0134 12.9804 15.7024 18.28C14.499 23.1363 14.4417 27.8686 15.5468 32.462L35.4989 44.7226ZM35.4989 44.7226C35.5282 44.7577 35.558 44.7929 35.588 44.8281C35.9424 45.2433 36.3019 45.6187 36.6768 46.0102C36.8969 46.24 37.1223 46.4754 37.3551 46.7276L37.356 46.7286L37.3572 46.7299C37.3651 46.7386 37.3712 46.7452 37.4109 46.7656C37.4416 46.7814 37.4771 46.7976 37.5452 46.8282L37.5496 46.8302C37.6108 46.8577 37.695 46.8955 37.786 46.9415L37.7926 46.9449L37.7992 46.9483C37.9528 47.0288 38.0943 47.1453 38.2057 47.2959C38.3177 47.4471 38.3973 47.6306 38.4246 47.8336L38.4248 47.8345C38.4573 48.0782 38.4683 48.6138 38.0107 48.9929C37.5934 49.3386 37.1034 49.2776 36.8915 49.2358L35.4989 44.7226ZM21.2658 41.8503L21.266 41.8505C25.6454 45.6388 31.3114 48.1379 36.8906 49.2356L21.2658 41.8503ZM21.2658 41.8503C18.3557 39.3316 16.4439 36.1936 15.5468 32.4622L21.2658 41.8503Z" fill="#2477F4" stroke="#2477F4" stroke-width="2"/>
<path d="M65.7177 21.0025C66.801 28.6087 62.3507 35.1388 55.5768 38.3289C48.5627 41.6322 40.4852 43.788 32.895 41.6792C31.9449 41.4146 31.5824 42.4628 32.2578 42.6997C32.2918 42.7121 32.3215 42.734 32.3433 42.7628C32.365 42.7915 32.3779 42.8259 32.3803 42.8616C32.4519 44.1049 33.4055 45.4266 34.2209 46.3304C34.3733 46.4987 34.346 46.5358 34.1389 46.4418C32.0517 45.4887 30.0049 44.4387 27.9986 43.2917C25.3175 41.7559 22.3638 40.2287 20.7008 37.5348C19.7665 36.0187 19.0066 34.3679 18.4211 32.5825C17.1361 28.7759 16.8255 24.9322 17.4895 21.0513C18.3244 16.1651 21.0224 12.5553 25.0912 9.78133C30.0673 6.3892 35.9694 3.8747 42.0981 3.42021C48.4554 2.94831 54.604 5.23295 59.3055 9.50272C62.582 12.4787 65.1412 16.5969 65.7177 21.0025Z" fill="white"/>
<path d="M53.9704 23.494C54.3981 24.668 56.1721 25.1191 57.9328 24.5016C59.6935 23.884 60.7741 22.4317 60.3464 21.2577C59.9186 20.0837 58.1446 19.6326 56.3839 20.2501C54.6232 20.8677 53.5426 22.32 53.9704 23.494Z" fill="#2477F4"/>
<path d="M52.1526 19.1665C52.5051 19.9962 53.7724 20.2658 54.9832 19.7687C56.1939 19.2715 56.8896 18.1959 56.537 17.3662C56.1845 16.5365 54.9172 16.2668 53.7065 16.764C52.4957 17.2611 51.8 18.3368 52.1526 19.1665Z" fill="#2477F4"/>
<path d="M52.3255 16.5689C51.3699 17.0755 50.3111 16.9654 49.9607 16.3232C49.6103 15.6809 50.1009 14.7497 51.0565 14.2431C52.0121 13.7366 53.0709 13.8466 53.4213 14.4888C53.7717 15.1311 53.2811 16.0624 52.3255 16.5689Z" fill="#2477F4"/>
<path d="M47.9728 14.8342C48.3567 15.2874 49.2011 15.2126 49.8588 14.667C50.5165 14.1215 50.7384 13.3118 50.3545 12.8585C49.9706 12.4053 49.1262 12.4802 48.4685 13.0257C47.8109 13.5713 47.5889 14.381 47.9728 14.8342Z" fill="#2477F4"/>
<path d="M46.993 14.0078C46.3702 14.3173 45.6869 14.2196 45.4666 13.7897C45.2464 13.3597 45.5728 12.7602 46.1956 12.4507C46.8184 12.1412 47.5017 12.2389 47.722 12.6689C47.9422 13.0989 47.6158 13.6983 46.993 14.0078Z" fill="#2477F4"/>
<path d="M42.8607 26.3821C42.4201 26.269 41.9525 26.1655 41.5005 26.1442C40.733 26.1083 39.9963 26.2297 39.2903 26.5084C38.066 26.9917 37.1401 27.7662 36.5361 28.9336C36.2399 29.5063 36.0028 30.1374 35.7708 30.755C35.557 31.3241 35.3476 31.8817 35.1001 32.3713C34.2638 34.0261 32.6595 35.1856 30.8119 35.5042C28.1034 35.9712 25.772 33.9883 25.4249 31.3556C25.1852 29.5391 25.9807 27.876 27.4791 26.8442C27.7016 26.691 27.973 26.5277 28.2933 26.3542C29.3139 25.8012 30.2491 25.1144 31.0989 24.294C32.0868 23.3402 32.8915 22.2139 33.697 21.0867L33.6973 21.0863C34.2337 20.3357 34.7703 19.5847 35.3615 18.8839C36.4538 17.5894 37.8089 16.555 39.3483 15.812C43.918 13.6069 48.1766 17.1912 50.531 20.7766C51.2594 21.886 51.934 23.1312 51.9026 24.4625C51.879 25.4586 51.4014 26.2592 50.6041 26.8428C49.1793 27.886 47.5874 28.0038 45.9308 27.4658C45.46 27.3128 44.9974 27.1389 44.5348 26.9649L44.5345 26.9648L44.5344 26.9648C44.0863 26.7963 43.6382 26.6278 43.1825 26.4783L42.8607 26.3821Z" fill="#2477F4"/>
</svg>
