<svg width="20" height="21" viewBox="0 0 20 21" fill="none" xmlns="http://www.w3.org/2000/svg">
<path d="M13.492 2.16669H6.50866C3.47533 2.16669 1.66699 3.97502 1.66699 7.00835V13.9834C1.66699 17.025 3.47533 18.8334 6.50866 18.8334H13.4837C16.517 18.8334 18.3253 17.025 18.3253 13.9917V7.00835C18.3337 3.97502 16.5253 2.16669 13.492 2.16669ZM12.8003 12.4167C13.042 12.6584 13.042 13.0584 12.8003 13.3C12.6753 13.425 12.517 13.4834 12.3587 13.4834C12.2003 13.4834 12.042 13.425 11.917 13.3L10.0003 11.3834L8.08366 13.3C7.95866 13.425 7.80033 13.4834 7.64199 13.4834C7.48366 13.4834 7.32533 13.425 7.20033 13.3C6.95866 13.0584 6.95866 12.6584 7.20033 12.4167L9.11699 10.5L7.20033 8.58335C6.95866 8.34169 6.95866 7.94169 7.20033 7.70002C7.44199 7.45835 7.84199 7.45835 8.08366 7.70002L10.0003 9.61669L11.917 7.70002C12.1587 7.45835 12.5587 7.45835 12.8003 7.70002C13.042 7.94169 13.042 8.34169 12.8003 8.58335L10.8837 10.5L12.8003 12.4167Z" fill="#F35B60"/>
</svg>
