<svg width="160" height="30" viewBox="0 0 160 30" fill="none" xmlns="http://www.w3.org/2000/svg">
<path d="M39.7026 25.0016C38.4944 25.0016 37.4351 24.8769 36.5248 24.6274C35.6146 24.3601 34.8532 23.9769 34.2409 23.4779C33.645 22.9789 33.1899 22.3818 32.8754 21.6868C32.5775 20.9739 32.412 20.1809 32.3789 19.3076H36.8476C36.9138 19.6462 37.0131 19.9403 37.1455 20.1898C37.2944 20.4393 37.4848 20.6442 37.7165 20.8046C37.9482 20.965 38.2213 21.0809 38.5357 21.1521C38.8668 21.2234 39.2557 21.2591 39.7026 21.2591C40.1825 21.2591 40.5963 21.2234 40.9439 21.1521C41.308 21.0809 41.6059 20.9739 41.8376 20.8314C42.0859 20.6888 42.2679 20.5106 42.3838 20.2967C42.4996 20.0828 42.5575 19.8333 42.5575 19.5482C42.5575 19.1739 42.4665 18.871 42.2845 18.6393C42.1024 18.3898 41.8376 18.1759 41.49 17.9977C41.1425 17.8017 40.7121 17.6323 40.1991 17.4898C39.686 17.3472 39.0902 17.1957 38.4116 17.0353C37.551 16.8215 36.7731 16.563 36.078 16.2601C35.3994 15.9571 34.8201 15.5828 34.3402 15.1373C33.8767 14.6739 33.5126 14.1215 33.2478 13.4799C32.9996 12.8205 32.8754 12.0363 32.8754 11.1274C32.8754 10.2541 33.0327 9.47889 33.3471 8.80167C33.6616 8.10662 34.1167 7.52741 34.7125 7.06405C35.3084 6.58286 36.0283 6.21751 36.8724 5.96801C37.7165 5.7185 38.6599 5.59375 39.7026 5.59375C40.8446 5.59375 41.8376 5.7185 42.6817 5.96801C43.5258 6.19969 44.2292 6.54721 44.7919 7.01058C45.3712 7.47395 45.8097 8.04424 46.1077 8.72147C46.4221 9.3987 46.6042 10.165 46.6538 11.0205H42.1852C42.1355 10.7353 42.0528 10.4858 41.9369 10.272C41.821 10.0581 41.6638 9.88879 41.4652 9.76404C41.2666 9.62147 41.0183 9.51454 40.7204 9.44325C40.4391 9.37196 40.0998 9.33632 39.7026 9.33632C39.2557 9.33632 38.8833 9.38087 38.5854 9.46998C38.2875 9.54127 38.0475 9.6482 37.8654 9.79077C37.6834 9.93335 37.551 10.1027 37.4682 10.2987C37.3855 10.4947 37.3441 10.7175 37.3441 10.967C37.3441 11.2878 37.4268 11.564 37.5924 11.7957C37.7579 12.0274 37.9978 12.2324 38.3123 12.4106C38.6268 12.571 39.0157 12.7135 39.4791 12.8383C39.9425 12.963 40.4722 13.0967 41.068 13.2393C41.9617 13.4353 42.7727 13.6759 43.5009 13.9611C44.2457 14.2284 44.8746 14.5937 45.3877 15.0571C45.9173 15.5026 46.3228 16.0551 46.6042 16.7145C46.8855 17.3561 47.0262 18.1492 47.0262 19.0937C47.0262 20.0205 46.8607 20.8492 46.5297 21.5799C46.1987 22.3106 45.7187 22.9343 45.0898 23.4512C44.4609 23.9502 43.6913 24.3333 42.781 24.6007C41.8707 24.868 40.8446 25.0016 39.7026 25.0016Z" fill="#7A8DA5"/>
<path d="M49.2586 30.0007V10.4858H52.7839V12.4106C52.9494 12.1254 53.1563 11.8492 53.4045 11.5819C53.6694 11.2967 53.9755 11.0472 54.3231 10.8333C54.6707 10.6195 55.0596 10.4502 55.4899 10.3254C55.9202 10.2007 56.3837 10.1383 56.8802 10.1383C57.807 10.1383 58.618 10.2898 59.3131 10.5928C60.0248 10.8779 60.6206 11.3145 61.1006 11.9027C61.5806 12.4908 61.9364 13.2215 62.1681 14.0947C62.4164 14.968 62.5405 15.9927 62.5405 17.169V17.7036C62.5405 18.8977 62.4081 19.9581 62.1433 20.8848C61.8785 21.7937 61.4978 22.5512 61.0013 23.1571C60.5048 23.763 59.9089 24.2264 59.2138 24.5472C58.5187 24.8502 57.7408 25.0016 56.8802 25.0016C56.1354 25.0016 55.4237 24.8234 54.7451 24.467C54.0831 24.0927 53.5287 23.5581 53.0818 22.863V30.0007H49.2586ZM55.9616 21.6066C56.3423 21.6066 56.6898 21.5264 57.0043 21.366C57.3353 21.1878 57.6167 20.9383 57.8484 20.6175C58.0966 20.2967 58.287 19.8957 58.4194 19.4145C58.5518 18.9155 58.618 18.3452 58.618 17.7036V17.169C58.618 16.5452 58.5518 16.0106 58.4194 15.565C58.3035 15.1017 58.1215 14.7274 57.8732 14.4423C57.6415 14.1393 57.3601 13.9165 57.0291 13.7739C56.7147 13.6135 56.3588 13.5333 55.9616 13.5333C55.5644 13.5333 55.1837 13.6046 54.8196 13.7472C54.4721 13.872 54.1659 14.0769 53.9011 14.3621C53.6528 14.6294 53.4542 14.968 53.3052 15.3779C53.1563 15.77 53.0818 16.2333 53.0818 16.768V18.1046C53.0818 18.6571 53.1563 19.1561 53.3052 19.6017C53.4542 20.0294 53.6528 20.3947 53.9011 20.6977C54.1659 21.0007 54.4721 21.2323 54.8196 21.3927C55.1837 21.5353 55.5644 21.6066 55.9616 21.6066Z" fill="#7A8DA5"/>
<path d="M70.863 25.0016C69.9031 25.0016 69.0011 24.8591 68.157 24.5739C67.3294 24.271 66.6095 23.8165 65.9971 23.2106C65.3847 22.6046 64.9048 21.8472 64.5572 20.9383C64.2097 20.0116 64.0359 18.9333 64.0359 17.7036V17.169C64.0359 15.9927 64.2014 14.968 64.5324 14.0947C64.88 13.2215 65.3434 12.4908 65.9226 11.9027C66.5185 11.3145 67.2136 10.8779 68.008 10.5928C68.819 10.2898 69.6879 10.1383 70.6147 10.1383C72.7829 10.1383 74.4214 10.7442 75.5303 11.9561C76.6392 13.1502 77.1936 14.8878 77.1936 17.169V18.6393H67.9584C67.9749 19.1918 68.0659 19.664 68.2315 20.0561C68.397 20.4304 68.6121 20.7422 68.8769 20.9918C69.1417 21.2413 69.4479 21.4284 69.7955 21.5531C70.1431 21.6601 70.4989 21.7135 70.863 21.7135C71.6078 21.7135 72.1871 21.5977 72.6008 21.366C73.0146 21.1165 73.2877 20.7868 73.4201 20.3769H76.9454C76.813 21.1432 76.5812 21.8205 76.2502 22.4086C75.9192 22.9789 75.4972 23.4601 74.9841 23.8521C74.471 24.2442 73.8669 24.5294 73.1718 24.7076C72.4767 24.9036 71.7071 25.0016 70.863 25.0016ZM67.9832 15.9393H73.4449C73.4449 15.4403 73.3704 15.0304 73.2215 14.7096C73.0891 14.3888 72.8987 14.1304 72.6505 13.9343C72.4022 13.7383 72.1126 13.6046 71.7816 13.5333C71.4506 13.4442 71.103 13.3997 70.7389 13.3997C70.3913 13.3997 70.052 13.4442 69.721 13.5333C69.4066 13.6225 69.1169 13.7739 68.8521 13.9878C68.6038 14.1838 68.397 14.4423 68.2315 14.763C68.0825 15.0838 67.9997 15.4759 67.9832 15.9393Z" fill="#7A8DA5"/>
<path d="M85.5064 25.0016C84.5465 25.0016 83.6445 24.8591 82.8004 24.5739C81.9729 24.271 81.2529 23.8165 80.6405 23.2106C80.0282 22.6046 79.5482 21.8472 79.2006 20.9383C78.8531 20.0116 78.6793 18.9333 78.6793 17.7036V17.169C78.6793 15.9927 78.8448 14.968 79.1758 14.0947C79.5234 13.2215 79.9868 12.4908 80.5661 11.9027C81.1619 11.3145 81.857 10.8779 82.6515 10.5928C83.4624 10.2898 84.3313 10.1383 85.2582 10.1383C87.4263 10.1383 89.0648 10.7442 90.1737 11.9561C91.2826 13.1502 91.8371 14.8878 91.8371 17.169V18.6393H82.6018C82.6184 19.1918 82.7094 19.664 82.8749 20.0561C83.0404 20.4304 83.2555 20.7422 83.5204 20.9918C83.7852 21.2413 84.0914 21.4284 84.4389 21.5531C84.7865 21.6601 85.1423 21.7135 85.5064 21.7135C86.2512 21.7135 86.8305 21.5977 87.2443 21.366C87.658 21.1165 87.9311 20.7868 88.0635 20.3769H91.5888C91.4564 21.1432 91.2247 21.8205 90.8937 22.4086C90.5627 22.9789 90.1406 23.4601 89.6275 23.8521C89.1145 24.2442 88.5104 24.5294 87.8153 24.7076C87.1201 24.9036 86.3505 25.0016 85.5064 25.0016ZM82.6266 15.9393H88.0883C88.0883 15.4403 88.0139 15.0304 87.8649 14.7096C87.7325 14.3888 87.5422 14.1304 87.2939 13.9343C87.0456 13.7383 86.756 13.6046 86.425 13.5333C86.094 13.4442 85.7464 13.3997 85.3823 13.3997C85.0347 13.3997 84.6955 13.4442 84.3644 13.5333C84.05 13.6225 83.7603 13.7739 83.4955 13.9878C83.2473 14.1838 83.0404 14.4423 82.8749 14.763C82.7259 15.0838 82.6432 15.4759 82.6266 15.9393Z" fill="#7A8DA5"/>
<path d="M100.026 25.0016C99.0492 25.0016 98.1472 24.8502 97.3197 24.5472C96.5087 24.2442 95.8053 23.7898 95.2095 23.1838C94.6137 22.5779 94.1503 21.8205 93.8192 20.9116C93.4882 20.0026 93.3227 18.9333 93.3227 17.7036V17.169C93.3227 16.0462 93.4965 15.0482 93.8441 14.1749C94.2082 13.3017 94.6882 12.571 95.284 11.9829C95.8964 11.3769 96.608 10.9225 97.419 10.6195C98.2465 10.2987 99.1154 10.1383 100.026 10.1383C101.019 10.1383 101.888 10.2809 102.632 10.566C103.394 10.8512 104.031 11.2432 104.544 11.7423C105.057 12.2234 105.454 12.7937 105.736 13.4531C106.017 14.1126 106.183 14.8165 106.232 15.565H102.31C102.244 15.2442 102.152 14.9591 102.037 14.7096C101.921 14.4601 101.764 14.2551 101.565 14.0947C101.383 13.9165 101.168 13.7828 100.919 13.6937C100.671 13.6046 100.373 13.5601 100.026 13.5601C99.6285 13.5601 99.2561 13.6403 98.9086 13.8007C98.5776 13.9432 98.2879 14.166 98.0397 14.469C97.7914 14.7541 97.5928 15.1284 97.4438 15.5918C97.3114 16.0373 97.2452 16.563 97.2452 17.169V17.7036C97.2452 18.363 97.3114 18.9333 97.4438 19.4145C97.5762 19.8957 97.7583 20.2967 97.99 20.6175C98.2383 20.9383 98.5362 21.1789 98.8837 21.3393C99.2313 21.4818 99.612 21.5531 100.026 21.5531C100.605 21.5531 101.093 21.3927 101.49 21.0719C101.904 20.7333 102.177 20.2343 102.31 19.5749H106.232C106.183 20.4125 106.001 21.17 105.686 21.8472C105.372 22.5066 104.941 23.0769 104.395 23.5581C103.865 24.0215 103.228 24.3779 102.484 24.6274C101.755 24.8769 100.936 25.0016 100.026 25.0016Z" fill="#7A8DA5"/>
<path d="M108.099 24.6541V5.94127H111.922V12.2769C112.055 12.0452 112.237 11.8046 112.468 11.5551C112.7 11.3056 112.981 11.0739 113.312 10.8601C113.66 10.6462 114.057 10.4769 114.504 10.3522C114.951 10.2096 115.448 10.1383 115.994 10.1383C117.583 10.1383 118.774 10.6017 119.569 11.5284C120.363 12.4373 120.76 13.7294 120.76 15.4046V24.6541H116.937V16.367C116.937 15.4403 116.747 14.7452 116.366 14.2819C116.002 13.8007 115.398 13.5601 114.554 13.5601C114.09 13.5601 113.693 13.6314 113.362 13.7739C113.031 13.9165 112.758 14.1126 112.543 14.3621C112.328 14.6116 112.17 14.9056 112.071 15.2442C111.972 15.5828 111.922 15.9571 111.922 16.367V24.6541H108.099Z" fill="#7A8DA5"/>
<path d="M136.405 25.0016C135.247 25.0016 134.196 24.8413 133.253 24.5205C132.326 24.1818 131.531 23.6917 130.869 23.0502C130.224 22.3908 129.719 21.571 129.355 20.5908C129.007 19.6106 128.834 18.47 128.834 17.169V5.94127H133.302V16.6076C133.302 17.3205 133.352 17.9531 133.451 18.5056C133.567 19.0581 133.749 19.5215 133.997 19.8957C134.246 20.2521 134.568 20.5284 134.966 20.7244C135.363 20.9026 135.843 20.9918 136.405 20.9918C137.001 20.9918 137.498 20.9026 137.895 20.7244C138.292 20.5284 138.607 20.2521 138.838 19.8957C139.087 19.5215 139.26 19.067 139.36 18.5323C139.459 17.9799 139.509 17.3472 139.509 16.6343V5.94127H143.977V17.169C143.977 18.47 143.804 19.6106 143.456 20.5908C143.108 21.571 142.604 22.3908 141.942 23.0502C141.296 23.6917 140.502 24.1818 139.558 24.5205C138.632 24.8413 137.581 25.0016 136.405 25.0016Z" fill="#7A8DA5"/>
<path d="M146.72 30.0007V10.4858H150.245V12.4106C150.411 12.1254 150.618 11.8492 150.866 11.5819C151.131 11.2967 151.437 11.0472 151.784 10.8333C152.132 10.6195 152.521 10.4502 152.951 10.3254C153.381 10.2007 153.845 10.1383 154.341 10.1383C155.268 10.1383 156.079 10.2898 156.774 10.5928C157.486 10.8779 158.082 11.3145 158.562 11.9027C159.042 12.4908 159.398 13.2215 159.629 14.0947C159.878 14.968 160.002 15.9927 160.002 17.169V17.7036C160.002 18.8977 159.869 19.9581 159.605 20.8848C159.34 21.7937 158.959 22.5512 158.463 23.1571C157.966 23.763 157.37 24.2264 156.675 24.5472C155.98 24.8502 155.202 25.0016 154.341 25.0016C153.597 25.0016 152.885 24.8234 152.206 24.467C151.544 24.0927 150.99 23.5581 150.543 22.863V30.0007H146.72ZM153.423 21.6066C153.804 21.6066 154.151 21.5264 154.466 21.366C154.797 21.1878 155.078 20.9383 155.31 20.6175C155.558 20.2967 155.748 19.8957 155.881 19.4145C156.013 18.9155 156.079 18.3452 156.079 17.7036V17.169C156.079 16.5452 156.013 16.0106 155.881 15.565C155.765 15.1017 155.583 14.7274 155.334 14.4423C155.103 14.1393 154.821 13.9165 154.49 13.7739C154.176 13.6135 153.82 13.5333 153.423 13.5333C153.026 13.5333 152.645 13.6046 152.281 13.7472C151.933 13.872 151.627 14.0769 151.362 14.3621C151.114 14.6294 150.915 14.968 150.766 15.3779C150.618 15.77 150.543 16.2333 150.543 16.768V18.1046C150.543 18.6571 150.618 19.1561 150.766 19.6017C150.915 20.0294 151.114 20.3947 151.362 20.6977C151.627 21.0007 151.933 21.2323 152.281 21.3927C152.645 21.5353 153.026 21.6066 153.423 21.6066Z" fill="#7A8DA5"/>
<path fill-rule="evenodd" clip-rule="evenodd" d="M21.0786 19.0175C24.1689 16.9201 24.1689 12.0687 21.0786 9.97136L7.61269 0.832073C4.30634 -1.41193 0 1.14666 0 5.35513V23.6337C0 27.8422 4.30634 30.4008 7.61269 28.1568L21.0786 19.0175ZM6.64333 6.79059C7.16768 6.79059 7.59275 7.21566 7.59275 7.74001V21.2785C7.59275 21.8029 7.16768 22.2279 6.64333 22.2279C6.11898 22.2279 5.69391 21.8029 5.69391 21.2785V7.74001C5.69391 7.21566 6.11898 6.79059 6.64333 6.79059ZM3.47255 12.2346C3.99691 12.2346 4.42198 12.6596 4.42198 13.184V15.8345C4.42198 16.3589 3.99691 16.784 3.47255 16.784C2.9482 16.784 2.52313 16.3589 2.52313 15.8345V13.184C2.52313 12.6596 2.9482 12.2346 3.47255 12.2346ZM10.7635 11.0116C10.7635 10.4872 10.3385 10.0621 9.81411 10.0621C9.28976 10.0621 8.86469 10.4872 8.86469 11.0116V18.0071C8.86469 18.5314 9.28976 18.9565 9.81411 18.9565C10.3385 18.9565 10.7635 18.5314 10.7635 18.0071V11.0116ZM12.9848 8.19629C13.5091 8.19629 13.9342 8.62136 13.9342 9.14571V19.8728C13.9342 20.3971 13.5091 20.8222 12.9848 20.8222C12.4604 20.8222 12.0353 20.3971 12.0353 19.8728V9.14571C12.0353 8.62136 12.4604 8.19629 12.9848 8.19629ZM17.0575 13.1602C17.0575 12.649 16.643 12.2346 16.1318 12.2346C15.6205 12.2346 15.2061 12.649 15.2061 13.1602V15.8583C15.2061 16.3695 15.6205 16.784 16.1318 16.784C16.643 16.784 17.0575 16.3695 17.0575 15.8583V13.1602Z" fill="url(#paint0_linear_42_917)"/>
<path fill-rule="evenodd" clip-rule="evenodd" d="M21.0786 19.0175C24.1689 16.9201 24.1689 12.0687 21.0786 9.97136L7.61269 0.832073C4.30634 -1.41193 0 1.14666 0 5.35513V23.6337C0 27.8422 4.30634 30.4008 7.61269 28.1568L21.0786 19.0175ZM6.64333 6.79059C7.16768 6.79059 7.59275 7.21566 7.59275 7.74001V21.2785C7.59275 21.8029 7.16768 22.2279 6.64333 22.2279C6.11898 22.2279 5.69391 21.8029 5.69391 21.2785V7.74001C5.69391 7.21566 6.11898 6.79059 6.64333 6.79059ZM3.47255 12.2346C3.99691 12.2346 4.42198 12.6596 4.42198 13.184V15.8345C4.42198 16.3589 3.99691 16.784 3.47255 16.784C2.9482 16.784 2.52313 16.3589 2.52313 15.8345V13.184C2.52313 12.6596 2.9482 12.2346 3.47255 12.2346ZM10.7635 11.0116C10.7635 10.4872 10.3385 10.0621 9.81411 10.0621C9.28976 10.0621 8.86469 10.4872 8.86469 11.0116V18.0071C8.86469 18.5314 9.28976 18.9565 9.81411 18.9565C10.3385 18.9565 10.7635 18.5314 10.7635 18.0071V11.0116ZM12.9848 8.19629C13.5091 8.19629 13.9342 8.62136 13.9342 9.14571V19.8728C13.9342 20.3971 13.5091 20.8222 12.9848 20.8222C12.4604 20.8222 12.0353 20.3971 12.0353 19.8728V9.14571C12.0353 8.62136 12.4604 8.19629 12.9848 8.19629ZM17.0575 13.1602C17.0575 12.649 16.643 12.2346 16.1318 12.2346C15.6205 12.2346 15.2061 12.649 15.2061 13.1602V15.8583C15.2061 16.3695 15.6205 16.784 16.1318 16.784C16.643 16.784 17.0575 16.3695 17.0575 15.8583V13.1602Z" fill="#7A8DA5"/>
<defs>
<linearGradient id="paint0_linear_42_917" x1="25.55" y1="26.048" x2="-12.4576" y2="1.71293" gradientUnits="userSpaceOnUse">
<stop stop-color="#51ACFF"/>
<stop offset="1" stop-color="#0055D5"/>
</linearGradient>
</defs>
</svg>
