<svg width="28" height="28" viewBox="0 0 28 28" xmlns="http://www.w3.org/2000/svg">
<path d="M25.6667 5.65862V19.5303C25.6667 20.662 24.745 21.7003 23.6133 21.8403L23.2517 21.887C21.3383 22.1436 18.6433 22.937 16.4733 23.847C15.715 24.162 14.875 23.5903 14.875 22.762V6.53362C14.875 6.10195 15.12 5.70529 15.505 5.49529C17.64 4.34029 20.8717 3.31362 23.065 3.12695H23.135C24.535 3.12695 25.6667 4.25862 25.6667 5.65862Z" />
<path d="M12.4936 5.49529C10.3586 4.34029 7.12698 3.31362 4.93365 3.12695H4.85198C3.45198 3.12695 2.32031 4.25862 2.32031 5.65862V19.5303C2.32031 20.662 3.24198 21.7003 4.37365 21.8403L4.73531 21.887C6.64865 22.1436 9.34365 22.937 11.5136 23.847C12.272 24.162 13.112 23.5903 13.112 22.762V6.53362C13.112 6.09029 12.8786 5.70529 12.4936 5.49529ZM5.83198 9.03029H8.45698C8.93531 9.03029 9.33198 9.42695 9.33198 9.90529C9.33198 10.3953 8.93531 10.7803 8.45698 10.7803H5.83198C5.35365 10.7803 4.95698 10.3953 4.95698 9.90529C4.95698 9.42695 5.35365 9.03029 5.83198 9.03029ZM9.33198 14.2803H5.83198C5.35365 14.2803 4.95698 13.8953 4.95698 13.4053C4.95698 12.927 5.35365 12.5303 5.83198 12.5303H9.33198C9.81031 12.5303 10.207 12.927 10.207 13.4053C10.207 13.8953 9.81031 14.2803 9.33198 14.2803Z" />
</svg>
