<svg width="24" height="24" viewBox="0 0 24 24" xmlns="http://www.w3.org/2000/svg">
<path d="M21.3786 5.95663L14.6586 1.25497C12.827 -0.0283654 10.0153 0.0416348 8.25365 1.40663L2.40865 5.9683C1.24198 6.8783 0.320312 8.74497 0.320312 10.215V18.265C0.320312 21.24 2.73531 23.6666 5.71031 23.6666H18.287C21.262 23.6666 23.677 21.2516 23.677 18.2766V10.3666C23.677 8.79164 22.662 6.85497 21.3786 5.95663ZM12.8736 19C12.8736 19.4783 12.477 19.875 11.9986 19.875C11.5203 19.875 11.1236 19.4783 11.1236 19V15.5C11.1236 15.0216 11.5203 14.625 11.9986 14.625C12.477 14.625 12.8736 15.0216 12.8736 15.5V19Z" />
</svg>
