<svg width="28" height="28" viewBox="0 0 28 28"  xmlns="http://www.w3.org/2000/svg">
<path d="M22.305 10.6406C21.85 10.6406 21.4883 11.0022 21.4883 11.4572V13.3006C21.4883 17.4306 18.1283 20.7906 13.9983 20.7906C9.86833 20.7906 6.50833 17.4306 6.50833 13.3006V11.4456C6.50833 10.9906 6.14667 10.6289 5.69167 10.6289C5.23667 10.6289 4.875 10.9906 4.875 11.4456V13.2889C4.875 18.0372 8.52667 21.9456 13.1817 22.3656V24.8506C13.1817 25.3056 13.5433 25.6672 13.9983 25.6672C14.4533 25.6672 14.815 25.3056 14.815 24.8506V22.3656C19.4583 21.9572 23.1217 18.0372 23.1217 13.2889V11.4456C23.11 11.0022 22.7483 10.6406 22.305 10.6406Z"/>
<path d="M14.0004 2.33398C11.1537 2.33398 8.84375 4.64398 8.84375 7.49065V13.464C8.84375 16.3107 11.1537 18.6207 14.0004 18.6207C16.8471 18.6207 19.1571 16.3107 19.1571 13.464V7.49065C19.1571 4.64398 16.8471 2.33398 14.0004 2.33398ZM15.5287 10.4423C15.4471 10.7457 15.1787 10.944 14.8754 10.944C14.8171 10.944 14.7587 10.9323 14.7004 10.9207C14.2454 10.7923 13.7671 10.7923 13.3121 10.9207C12.9387 11.0257 12.5771 10.804 12.4837 10.4423C12.3787 10.0807 12.6004 9.70732 12.9621 9.61398C13.6504 9.42732 14.3737 9.42732 15.0621 9.61398C15.4121 9.70732 15.6221 10.0807 15.5287 10.4423ZM16.1471 8.17898C16.0421 8.45898 15.7854 8.62232 15.5054 8.62232C15.4237 8.62232 15.3537 8.61065 15.2721 8.58732C14.4554 8.28398 13.5454 8.28398 12.7287 8.58732C12.3787 8.71565 11.9821 8.52898 11.8537 8.17898C11.7254 7.82898 11.9121 7.43232 12.2621 7.31565C13.3821 6.90732 14.6187 6.90732 15.7387 7.31565C16.0887 7.44398 16.2754 7.82898 16.1471 8.17898Z" />
</svg>
