<svg width="29" height="28" viewBox="0 0 29 28"  xmlns="http://www.w3.org/2000/svg">
<path d="M8.9 2.33398H11.9333C15.6667 2.33398 18 4.66732 18 8.40065V13.1257H10.7083C10.23 13.1257 9.83333 13.5223 9.83333 14.0007C9.83333 14.479 10.23 14.8757 10.7083 14.8757H18V19.6006C18 23.334 15.6667 25.6673 11.9333 25.6673H8.91167C5.17833 25.6673 2.845 23.334 2.845 19.6006V8.40065C2.83333 4.66732 5.16667 2.33398 8.9 2.33398Z" />
<path d="M23.1803 13.1242L20.7653 10.7092C20.5903 10.5342 20.5086 10.3125 20.5086 10.0908C20.5086 9.86917 20.5903 9.63583 20.7653 9.4725C21.1036 9.13417 21.6636 9.13417 22.002 9.4725L25.9103 13.3808C26.2486 13.7192 26.2486 14.2792 25.9103 14.6175L22.002 18.5258C21.6636 18.8642 21.1036 18.8642 20.7653 18.5258C20.427 18.1875 20.427 17.6275 20.7653 17.2892L23.1803 14.8742H18.0003V13.1242H23.1803Z" />
</svg>
