<svg width="182" height="46" viewBox="0 0 182 46" fill="none" xmlns="http://www.w3.org/2000/svg">
<path d="M36.0375 15.8227C41.3208 19.1508 41.3208 26.8492 36.0375 30.1773L13.0152 44.6797C7.36242 48.2405 -2.92075e-07 44.1804 0 37.5024L1.26857e-06 8.49761C1.56064e-06 1.81954 7.36242 -2.24048 13.0152 1.32035L36.0375 15.8227Z" fill="url(#paint0_linear_42_610)"/>
<rect width="3.2464" height="7.21909" rx="1.6232" transform="matrix(-1 0 0 1 7.55859 19.4141)" fill="white"/>
<rect width="3.2464" height="24.4962" rx="1.6232" transform="matrix(-1 0 0 1 12.9805 10.7754)" fill="white"/>
<rect width="3.2464" height="14.1137" rx="1.6232" transform="matrix(-1 0 0 1 18.4023 15.9668)" fill="white"/>
<rect width="3.2464" height="20.035" rx="1.6232" transform="matrix(-1 0 0 1 23.8242 13.0059)" fill="white"/>
<rect width="3.16524" height="7.21909" rx="1.58262" transform="matrix(-1 0 0 1 29.1641 19.4141)" fill="white"/>
<path d="M61.7026 33.4079C60.4944 33.4079 59.4351 33.2831 58.5248 33.0336C57.6146 32.7663 56.8532 32.3831 56.2409 31.8841C55.645 31.3851 55.1899 30.7881 54.8754 30.0931C54.5775 29.3802 54.412 28.5871 54.3789 27.7138H58.8476C58.9138 28.0525 59.0131 28.3465 59.1455 28.596C59.2944 28.8455 59.4848 29.0505 59.7165 29.2109C59.9482 29.3713 60.2213 29.4871 60.5357 29.5584C60.8668 29.6297 61.2557 29.6653 61.7026 29.6653C62.1825 29.6653 62.5963 29.6297 62.9439 29.5584C63.308 29.4871 63.6059 29.3802 63.8376 29.2376C64.0859 29.095 64.2679 28.9168 64.3838 28.703C64.4996 28.4891 64.5575 28.2396 64.5575 27.9544C64.5575 27.5802 64.4665 27.2772 64.2845 27.0455C64.1024 26.796 63.8376 26.5822 63.49 26.4039C63.1425 26.2079 62.7121 26.0386 62.1991 25.896C61.686 25.7535 61.0902 25.602 60.4116 25.4416C59.551 25.2277 58.7731 24.9693 58.078 24.6663C57.3994 24.3634 56.8201 23.9891 56.3402 23.5436C55.8767 23.0802 55.5126 22.5277 55.2478 21.8861C54.9996 21.2267 54.8754 20.4426 54.8754 19.5337C54.8754 18.6604 55.0327 17.8851 55.3471 17.2079C55.6616 16.5129 56.1167 15.9337 56.7125 15.4703C57.3084 14.9891 58.0283 14.6238 58.8724 14.3743C59.7165 14.1248 60.6599 14 61.7026 14C62.8446 14 63.8376 14.1248 64.6817 14.3743C65.5258 14.6059 66.2292 14.9535 66.7919 15.4168C67.3712 15.8802 67.8097 16.4505 68.1077 17.1277C68.4221 17.8049 68.6042 18.5713 68.6538 19.4267H64.1852C64.1355 19.1416 64.0528 18.8921 63.9369 18.6782C63.821 18.4644 63.6638 18.295 63.4652 18.1703C63.2666 18.0277 63.0183 17.9208 62.7204 17.8495C62.4391 17.7782 62.0998 17.7426 61.7026 17.7426C61.2557 17.7426 60.8833 17.7871 60.5854 17.8762C60.2875 17.9475 60.0475 18.0545 59.8654 18.197C59.6834 18.3396 59.551 18.5089 59.4682 18.7049C59.3855 18.901 59.3441 19.1238 59.3441 19.3733C59.3441 19.6941 59.4268 19.9703 59.5924 20.202C59.7579 20.4337 59.9978 20.6386 60.3123 20.8168C60.6268 20.9772 61.0157 21.1198 61.4791 21.2445C61.9425 21.3693 62.4722 21.503 63.068 21.6455C63.9617 21.8416 64.7727 22.0822 65.5009 22.3673C66.2457 22.6346 66.8746 23 67.3877 23.4634C67.9173 23.9089 68.3228 24.4614 68.6042 25.1208C68.8855 25.7624 69.0262 26.5554 69.0262 27.5C69.0262 28.4267 68.8607 29.2554 68.5297 29.9861C68.1987 30.7168 67.7187 31.3406 67.0898 31.8574C66.4609 32.3564 65.6913 32.7396 64.781 33.0069C63.8707 33.2742 62.8446 33.4079 61.7026 33.4079Z" fill="#293D67"/>
<path d="M71.2586 38.4069V18.8921H74.7839V20.8168C74.9494 20.5317 75.1563 20.2554 75.4045 19.9881C75.6694 19.703 75.9755 19.4535 76.3231 19.2396C76.6707 19.0257 77.0596 18.8564 77.4899 18.7317C77.9202 18.6069 78.3837 18.5445 78.8802 18.5445C79.807 18.5445 80.618 18.696 81.3131 18.999C82.0248 19.2842 82.6206 19.7208 83.1006 20.3089C83.5806 20.897 83.9364 21.6277 84.1681 22.501C84.4164 23.3742 84.5405 24.399 84.5405 25.5752V26.1099C84.5405 27.3039 84.4081 28.3643 84.1433 29.2911C83.8785 30.2 83.4978 30.9574 83.0013 31.5633C82.5048 32.1693 81.9089 32.6327 81.2138 32.9534C80.5187 33.2564 79.7408 33.4079 78.8802 33.4079C78.1354 33.4079 77.4237 33.2297 76.7451 32.8732C76.0831 32.499 75.5287 31.9643 75.0818 31.2693V38.4069H71.2586ZM77.9616 30.0129C78.3423 30.0129 78.6898 29.9327 79.0043 29.7723C79.3353 29.594 79.6167 29.3445 79.8484 29.0237C80.0966 28.703 80.287 28.302 80.4194 27.8208C80.5518 27.3218 80.618 26.7515 80.618 26.1099V25.5752C80.618 24.9515 80.5518 24.4168 80.4194 23.9713C80.3035 23.5079 80.1215 23.1337 79.8732 22.8485C79.6415 22.5455 79.3601 22.3228 79.0291 22.1802C78.7147 22.0198 78.3588 21.9396 77.9616 21.9396C77.5644 21.9396 77.1837 22.0109 76.8196 22.1535C76.4721 22.2782 76.1659 22.4832 75.9011 22.7683C75.6528 23.0356 75.4542 23.3742 75.3052 23.7841C75.1563 24.1762 75.0818 24.6396 75.0818 25.1742V26.5109C75.0818 27.0633 75.1563 27.5624 75.3052 28.0079C75.4542 28.4356 75.6528 28.801 75.9011 29.1039C76.1659 29.4069 76.4721 29.6386 76.8196 29.799C77.1837 29.9416 77.5644 30.0129 77.9616 30.0129Z" fill="#293D67"/>
<path d="M92.863 33.4079C91.9031 33.4079 91.0011 33.2653 90.157 32.9802C89.3294 32.6772 88.6095 32.2227 87.9971 31.6168C87.3847 31.0109 86.9048 30.2534 86.5572 29.3445C86.2097 28.4178 86.0359 27.3396 86.0359 26.1099V25.5752C86.0359 24.399 86.2014 23.3742 86.5324 22.501C86.88 21.6277 87.3434 20.897 87.9226 20.3089C88.5185 19.7208 89.2136 19.2842 90.008 18.999C90.819 18.696 91.6879 18.5445 92.6147 18.5445C94.7829 18.5445 96.4214 19.1505 97.5303 20.3624C98.6392 21.5564 99.1936 23.294 99.1936 25.5752V27.0455H89.9584C89.9749 27.598 90.0659 28.0703 90.2315 28.4624C90.397 28.8366 90.6121 29.1485 90.8769 29.398C91.1417 29.6475 91.4479 29.8346 91.7955 29.9594C92.1431 30.0663 92.4989 30.1198 92.863 30.1198C93.6078 30.1198 94.1871 30.0039 94.6008 29.7723C95.0146 29.5228 95.2877 29.1931 95.4201 28.7831H98.9454C98.813 29.5495 98.5812 30.2267 98.2502 30.8148C97.9192 31.3851 97.4972 31.8663 96.9841 32.2584C96.471 32.6505 95.8669 32.9356 95.1718 33.1138C94.4767 33.3099 93.7071 33.4079 92.863 33.4079ZM89.9832 24.3455H95.4449C95.4449 23.8465 95.3704 23.4366 95.2215 23.1158C95.0891 22.795 94.8987 22.5366 94.6505 22.3406C94.4022 22.1445 94.1126 22.0109 93.7816 21.9396C93.4506 21.8505 93.103 21.8059 92.7389 21.8059C92.3913 21.8059 92.052 21.8505 91.721 21.9396C91.4066 22.0287 91.1169 22.1802 90.8521 22.394C90.6038 22.5901 90.397 22.8485 90.2315 23.1693C90.0825 23.4901 89.9997 23.8822 89.9832 24.3455Z" fill="#293D67"/>
<path d="M107.506 33.4079C106.546 33.4079 105.644 33.2653 104.8 32.9802C103.973 32.6772 103.253 32.2227 102.641 31.6168C102.028 31.0109 101.548 30.2534 101.201 29.3445C100.853 28.4178 100.679 27.3396 100.679 26.1099V25.5752C100.679 24.399 100.845 23.3742 101.176 22.501C101.523 21.6277 101.987 20.897 102.566 20.3089C103.162 19.7208 103.857 19.2842 104.651 18.999C105.462 18.696 106.331 18.5445 107.258 18.5445C109.426 18.5445 111.065 19.1505 112.174 20.3624C113.283 21.5564 113.837 23.294 113.837 25.5752V27.0455H104.602C104.618 27.598 104.709 28.0703 104.875 28.4624C105.04 28.8366 105.256 29.1485 105.52 29.398C105.785 29.6475 106.091 29.8346 106.439 29.9594C106.786 30.0663 107.142 30.1198 107.506 30.1198C108.251 30.1198 108.83 30.0039 109.244 29.7723C109.658 29.5228 109.931 29.1931 110.064 28.7831H113.589C113.456 29.5495 113.225 30.2267 112.894 30.8148C112.563 31.3851 112.141 31.8663 111.628 32.2584C111.114 32.6505 110.51 32.9356 109.815 33.1138C109.12 33.3099 108.351 33.4079 107.506 33.4079ZM104.627 24.3455H110.088C110.088 23.8465 110.014 23.4366 109.865 23.1158C109.732 22.795 109.542 22.5366 109.294 22.3406C109.046 22.1445 108.756 22.0109 108.425 21.9396C108.094 21.8505 107.746 21.8059 107.382 21.8059C107.035 21.8059 106.695 21.8505 106.364 21.9396C106.05 22.0287 105.76 22.1802 105.496 22.394C105.247 22.5901 105.04 22.8485 104.875 23.1693C104.726 23.4901 104.643 23.8822 104.627 24.3455Z" fill="#293D67"/>
<path d="M122.026 33.4079C121.049 33.4079 120.147 33.2564 119.32 32.9534C118.509 32.6505 117.805 32.196 117.209 31.5901C116.614 30.9841 116.15 30.2267 115.819 29.3178C115.488 28.4089 115.323 27.3396 115.323 26.1099V25.5752C115.323 24.4525 115.497 23.4544 115.844 22.5812C116.208 21.7079 116.688 20.9772 117.284 20.3891C117.896 19.7832 118.608 19.3287 119.419 19.0257C120.247 18.7049 121.115 18.5445 122.026 18.5445C123.019 18.5445 123.888 18.6871 124.632 18.9723C125.394 19.2574 126.031 19.6495 126.544 20.1485C127.057 20.6297 127.454 21.2 127.736 21.8594C128.017 22.5188 128.183 23.2228 128.232 23.9713H124.31C124.244 23.6505 124.152 23.3653 124.037 23.1158C123.921 22.8663 123.764 22.6614 123.565 22.501C123.383 22.3228 123.168 22.1891 122.919 22.1C122.671 22.0109 122.373 21.9663 122.026 21.9663C121.629 21.9663 121.256 22.0465 120.909 22.2069C120.578 22.3495 120.288 22.5723 120.04 22.8752C119.791 23.1604 119.593 23.5346 119.444 23.998C119.311 24.4436 119.245 24.9693 119.245 25.5752V26.1099C119.245 26.7693 119.311 27.3396 119.444 27.8208C119.576 28.302 119.758 28.703 119.99 29.0237C120.238 29.3445 120.536 29.5851 120.884 29.7455C121.231 29.8881 121.612 29.9594 122.026 29.9594C122.605 29.9594 123.093 29.799 123.49 29.4782C123.904 29.1396 124.177 28.6406 124.31 27.9812H128.232C128.183 28.8188 128.001 29.5762 127.686 30.2534C127.372 30.9128 126.941 31.4831 126.395 31.9643C125.865 32.4277 125.228 32.7841 124.484 33.0336C123.755 33.2831 122.936 33.4079 122.026 33.4079Z" fill="#293D67"/>
<path d="M130.099 33.0604V14.3475H133.922V20.6832C134.055 20.4515 134.237 20.2109 134.468 19.9614C134.7 19.7119 134.981 19.4802 135.312 19.2663C135.66 19.0525 136.057 18.8832 136.504 18.7584C136.951 18.6158 137.448 18.5445 137.994 18.5445C139.583 18.5445 140.774 19.0079 141.569 19.9346C142.363 20.8436 142.76 22.1356 142.76 23.8109V33.0604H138.937V24.7733C138.937 23.8465 138.747 23.1515 138.366 22.6881C138.002 22.2069 137.398 21.9663 136.554 21.9663C136.09 21.9663 135.693 22.0376 135.362 22.1802C135.031 22.3228 134.758 22.5188 134.543 22.7683C134.328 23.0178 134.17 23.3119 134.071 23.6505C133.972 23.9891 133.922 24.3634 133.922 24.7733V33.0604H130.099Z" fill="#293D67"/>
<path d="M158.405 33.4079C157.247 33.4079 156.196 33.2475 155.253 32.9267C154.326 32.5881 153.531 32.098 152.869 31.4564C152.224 30.797 151.719 29.9772 151.355 28.997C151.007 28.0168 150.834 26.8762 150.834 25.5752V14.3475H155.302V25.0138C155.302 25.7267 155.352 26.3594 155.451 26.9119C155.567 27.4643 155.749 27.9277 155.997 28.302C156.246 28.6584 156.568 28.9346 156.966 29.1307C157.363 29.3089 157.843 29.398 158.405 29.398C159.001 29.398 159.498 29.3089 159.895 29.1307C160.292 28.9346 160.607 28.6584 160.838 28.302C161.087 27.9277 161.26 27.4733 161.36 26.9386C161.459 26.3861 161.509 25.7535 161.509 25.0406V14.3475H165.977V25.5752C165.977 26.8762 165.804 28.0168 165.456 28.997C165.108 29.9772 164.604 30.797 163.942 31.4564C163.296 32.098 162.502 32.5881 161.558 32.9267C160.632 33.2475 159.581 33.4079 158.405 33.4079Z" fill="#293D67"/>
<path d="M168.72 38.4069V18.8921H172.245V20.8168C172.411 20.5317 172.618 20.2554 172.866 19.9881C173.131 19.703 173.437 19.4535 173.784 19.2396C174.132 19.0257 174.521 18.8564 174.951 18.7317C175.381 18.6069 175.845 18.5445 176.341 18.5445C177.268 18.5445 178.079 18.696 178.774 18.999C179.486 19.2842 180.082 19.7208 180.562 20.3089C181.042 20.897 181.398 21.6277 181.629 22.501C181.878 23.3742 182.002 24.399 182.002 25.5752V26.1099C182.002 27.3039 181.869 28.3643 181.605 29.2911C181.34 30.2 180.959 30.9574 180.463 31.5633C179.966 32.1693 179.37 32.6327 178.675 32.9534C177.98 33.2564 177.202 33.4079 176.341 33.4079C175.597 33.4079 174.885 33.2297 174.206 32.8732C173.544 32.499 172.99 31.9643 172.543 31.2693V38.4069H168.72ZM175.423 30.0129C175.804 30.0129 176.151 29.9327 176.466 29.7723C176.797 29.594 177.078 29.3445 177.31 29.0237C177.558 28.703 177.748 28.302 177.881 27.8208C178.013 27.3218 178.079 26.7515 178.079 26.1099V25.5752C178.079 24.9515 178.013 24.4168 177.881 23.9713C177.765 23.5079 177.583 23.1337 177.334 22.8485C177.103 22.5455 176.821 22.3228 176.49 22.1802C176.176 22.0198 175.82 21.9396 175.423 21.9396C175.026 21.9396 174.645 22.0109 174.281 22.1535C173.933 22.2782 173.627 22.4832 173.362 22.7683C173.114 23.0356 172.915 23.3742 172.766 23.7841C172.618 24.1762 172.543 24.6396 172.543 25.1742V26.5109C172.543 27.0633 172.618 27.5624 172.766 28.0079C172.915 28.4356 173.114 28.801 173.362 29.1039C173.627 29.4069 173.933 29.6386 174.281 29.799C174.645 29.9416 175.026 30.0129 175.423 30.0129Z" fill="#293D67"/>
<defs>
<linearGradient id="paint0_linear_42_610" x1="43.6821" y1="41.3335" x2="-18.3954" y2="-1.49002" gradientUnits="userSpaceOnUse">
<stop stop-color="#51ACFF"/>
<stop offset="1" stop-color="#0055D5"/>
</linearGradient>
</defs>
</svg>
