<svg width="29" height="28" viewBox="0 0 29 28"  xmlns="http://www.w3.org/2000/svg">
<path d="M23.9487 10.757C21.837 10.757 20.9737 9.26367 22.0237 7.432C22.6304 6.37033 22.2687 5.017 21.207 4.41033L19.1887 3.25533C18.267 2.707 17.077 3.03367 16.5287 3.95533L16.4004 4.177C15.3504 6.00867 13.6237 6.00867 12.562 4.177L12.4337 3.95533C11.9087 3.03367 10.7187 2.707 9.79703 3.25533L7.7787 4.41033C6.71703 5.017 6.35536 6.382 6.96203 7.44367C8.0237 9.26367 7.16036 10.757 5.0487 10.757C3.83536 10.757 2.83203 11.7487 2.83203 12.9737V15.027C2.83203 16.2403 3.8237 17.2437 5.0487 17.2437C7.16036 17.2437 8.0237 18.737 6.96203 20.5687C6.35536 21.6303 6.71703 22.9837 7.7787 23.5903L9.79703 24.7453C10.7187 25.2937 11.9087 24.967 12.457 24.0453L12.5854 23.8237C13.6354 21.992 15.362 21.992 16.4237 23.8237L16.552 24.0453C17.1004 24.967 18.2904 25.2937 19.212 24.7453L21.2304 23.5903C22.292 22.9837 22.6537 21.6187 22.047 20.5687C20.9854 18.737 21.8487 17.2437 23.9604 17.2437C25.1737 17.2437 26.177 16.252 26.177 15.027V12.9737C26.1654 11.7603 25.1737 10.757 23.9487 10.757ZM14.4987 17.792C12.4104 17.792 10.707 16.0887 10.707 14.0003C10.707 11.912 12.4104 10.2087 14.4987 10.2087C16.587 10.2087 18.2904 11.912 18.2904 14.0003C18.2904 16.0887 16.587 17.792 14.4987 17.792Z" />
</svg>
