<svg  viewBox="0 0 600 534" fill="none" xmlns="http://www.w3.org/2000/svg">
<g clip-path="url(#clip0_1034_4827)">
<rect width="600" height="534" rx="28" fill="#F3F5F9"/>
<g clip-path="url(#clip1_1034_4827)">
<path d="M589.059 132.216C589.059 139.942 582.797 146.206 575.071 146.206C567.348 146.206 561.086 139.942 561.086 132.216C561.086 124.489 567.348 118.226 575.071 118.226C582.797 118.226 589.059 124.489 589.059 132.216Z" fill="#D4DFF4"/>
<path d="M559.951 107.466C559.951 115.667 553.304 122.316 545.105 122.316C536.905 122.316 530.259 115.667 530.259 107.466C530.259 99.2641 536.905 92.6153 545.105 92.6153C553.304 92.6153 559.951 99.2641 559.951 107.466Z" fill="#D4DFF4"/>
<path d="M554.528 69.412C554.528 77.9781 547.586 84.9218 539.023 84.9218C530.459 84.9218 523.517 77.9781 523.517 69.412C523.517 60.8459 530.459 53.9022 539.023 53.9022C547.586 53.9022 554.528 60.8459 554.528 69.412Z" fill="#D4DFF4"/>
<path d="M574.038 36.0993C574.038 44.9517 566.862 52.1282 558.011 52.1282C549.161 52.1282 541.986 44.9517 541.986 36.0993C541.986 27.247 549.161 20.0705 558.011 20.0705C566.862 20.0705 574.038 27.247 574.038 36.0993Z" fill="#D4DFF4"/>
<path d="M611.971 22.9373C611.971 32.5843 604.152 40.4059 594.507 40.4059C584.86 40.4059 577.041 32.5843 577.041 22.9373C577.041 13.2892 584.86 5.46865 594.507 5.46865C604.152 5.46865 611.971 13.2892 611.971 22.9373Z" fill="#D4DFF4"/>
<path d="M179.617 26.6489C179.617 26.6489 180.886 26.275 183.239 26.4598C185.543 26.6446 189.067 27.608 192.136 30.6051C193.639 32.0908 195.018 34.0529 195.803 36.4379C196.572 38.8091 196.886 41.5701 196.26 44.3354C195.987 45.7218 195.472 47.0932 194.76 48.3877C194.066 49.6929 193.147 50.918 192.033 51.9786C189.847 54.1501 186.844 55.6208 183.613 56.0876C180.373 56.4999 177.086 55.8825 174.399 54.3722C173.042 53.647 171.83 52.7113 170.812 51.6379C169.781 50.5805 168.919 49.3949 168.287 48.1324C166.946 45.632 166.514 42.8881 166.623 40.3973C166.745 37.8884 167.552 35.6304 168.604 33.7976C170.764 30.0913 173.904 28.2243 176.076 27.4318C178.294 26.6275 179.617 26.6489 179.617 26.6489C179.638 26.7503 178.328 26.8561 176.197 27.7351C174.108 28.6024 171.128 30.4961 169.121 34.0913C168.144 35.8697 167.405 38.039 167.318 40.4326C167.246 42.808 167.681 45.4142 168.972 47.7725C169.58 48.9656 170.404 50.0828 171.388 51.0782C172.355 52.0897 173.507 52.9698 174.793 53.6491C177.339 55.0686 180.438 55.6422 183.499 55.2545C186.552 54.8102 189.385 53.4334 191.46 51.3869C192.518 50.3893 193.393 49.2336 194.056 48.0011C194.738 46.7802 195.235 45.4836 195.503 44.172C196.119 41.5551 195.845 38.9276 195.142 36.6569C194.422 34.3733 193.132 32.4796 191.716 31.0259C188.824 28.094 185.447 27.0633 183.203 26.7845C180.914 26.5036 179.623 26.7525 179.617 26.6489Z" fill="#D4DFF4"/>
<path d="M185.17 7.86652C185.162 7.87613 185.093 7.71806 184.961 7.39656C184.819 7.03983 184.63 6.56345 184.384 5.94502C183.867 4.60991 183.123 2.68522 182.156 0.189087L182.299 0.274544C178.839 0.764793 174.29 1.40884 168.787 2.18748L168.97 1.99522C168.761 4.48601 168.529 7.25346 168.28 10.2131L168.268 10.3616L168.129 10.4193C165.572 11.4959 162.977 12.9688 160.517 14.8924L160.386 14.996L160.232 14.9266C157.89 13.866 155.354 12.7178 152.717 11.5247L153.079 11.434C150.484 14.8604 147.73 18.4972 144.839 22.3146L144.83 21.9012C146.474 23.8569 148.285 26.0091 150.141 28.2158L150.276 28.3771L150.195 28.5715C149.152 31.1039 148.335 34.0305 147.962 37.0895L147.935 37.3063L147.729 37.3832C145.336 38.2825 142.697 39.2727 140.009 40.282L140.25 39.8815C140.832 44.1293 141.458 48.7103 142.101 53.4056L141.748 53.0692C144.306 53.2924 147.116 53.537 149.962 53.7859L150.202 53.8062L150.296 54.0294C151.355 56.5736 152.852 59.216 154.73 61.6214L154.881 61.8158L154.779 62.0401C153.709 64.392 152.54 66.9576 151.36 69.5498L151.236 69.0521C154.675 71.6679 158.362 74.4727 162.099 77.3149L161.578 77.3277C163.574 75.6529 165.729 73.8457 167.9 72.0257L168.096 71.8612L168.33 71.9594C170.911 73.0275 173.824 73.8307 176.817 74.2014L176.821 74.2024H176.823C176.976 74.3231 176.484 73.9333 177.166 74.4727L177.169 74.4801L177.175 74.4951L177.186 74.5261L177.209 74.587L177.254 74.7087L177.344 74.9512L177.527 75.4382L177.89 76.4091L178.613 78.3466C179.096 79.6358 179.574 80.9207 180.052 82.1992L179.603 81.9301C184.173 81.3106 188.684 80.6996 193.128 80.0972L192.769 80.4732C193.015 77.7079 193.256 74.9683 193.496 72.2574L193.518 72.0086L193.749 71.9125C196.495 70.7717 199.053 69.2711 201.344 67.4895L201.54 67.3389L201.764 67.4414C204.301 68.6003 206.8 69.7421 209.267 70.8689L208.783 70.9907C211.607 67.2855 214.367 63.6657 217.058 60.1368L217.069 60.6195C215.273 58.4716 213.511 56.3621 211.778 54.289L211.632 54.1138L211.718 53.9034C212.87 51.1253 213.618 48.2532 213.979 45.3982L214.007 45.1781L214.213 45.1012C216.862 44.1154 219.431 43.1605 221.941 42.227L221.717 42.6019C221.081 37.8414 220.482 33.348 219.911 29.0703L220.201 29.348C217.313 29.0863 214.603 28.8406 211.989 28.6035L211.806 28.5875L211.737 28.4187C210.531 25.5082 209.012 22.9854 207.315 20.7851L207.212 20.6516L207.281 20.4999C208.534 17.7763 209.663 15.3229 210.728 13.004L210.803 13.3053C206.611 10.0839 203.038 7.33888 199.98 4.98908L200.214 4.98373C197.676 7.08467 195.594 8.8075 193.859 10.2419L193.795 10.2953L193.72 10.2633C190.954 9.10766 188.775 8.58963 187.334 8.28308C186.636 8.14957 186.101 8.04916 185.708 7.97439C185.334 7.91138 185.162 7.87506 185.17 7.86652C185.177 7.85797 185.365 7.8708 185.718 7.90498C186.082 7.9477 186.631 8.01499 187.361 8.14636C188.816 8.40912 191.018 8.88762 193.823 10.0145L193.685 10.0358C195.401 8.57787 197.46 6.82834 199.973 4.69536L200.087 4.59818L200.208 4.69001C203.287 7.01204 206.883 9.72501 211.104 12.909L211.262 13.0286L211.18 13.2102C210.13 15.5354 209.018 17.9974 207.783 20.7295L207.75 20.4454C209.49 22.6713 211.051 25.2305 212.293 28.1869L212.042 28.0022C214.657 28.2265 217.368 28.4593 220.258 28.7071L220.513 28.7285L220.548 28.9838C221.137 33.2593 221.755 37.7506 222.41 42.5079L222.448 42.7835L222.185 42.8817C219.679 43.8238 217.114 44.7883 214.467 45.7827L214.701 45.4868C214.34 48.407 213.584 51.3464 212.415 54.1907L212.355 53.8051C214.092 55.874 215.862 57.9792 217.662 60.1229L217.861 60.3589L217.673 60.6056C214.989 64.1399 212.237 67.765 209.419 71.4756L209.226 71.7309L208.934 71.5974C206.466 70.4748 203.966 69.3362 201.426 68.1816L201.844 68.1325C199.498 69.961 196.88 71.5012 194.066 72.674L194.318 72.3301C194.081 75.0409 193.84 77.7795 193.599 80.5458L193.57 80.8769L193.24 80.9218C188.796 81.5263 184.285 82.1405 179.716 82.7621L179.383 82.807L179.267 82.493C178.788 81.2145 178.309 79.9306 177.827 78.6414L177.103 76.7039L176.739 75.7319L176.558 75.246L176.467 75.0024L176.422 74.8807L176.399 74.8198L176.388 74.7899L176.382 74.7739L176.379 74.7664C177.061 75.3058 176.567 74.9159 176.719 75.0366H176.716L176.712 75.0355C173.642 74.6553 170.654 73.8307 168.01 72.7349L168.44 72.6687C166.268 74.4876 164.112 76.2938 162.115 77.9675L161.858 78.1811L161.594 77.9792C157.858 75.1338 154.174 72.3269 150.737 69.7068L150.474 69.5071L150.612 69.208C151.794 66.6179 152.965 64.0534 154.04 61.7026L154.088 62.1202C152.169 59.654 150.639 56.9442 149.558 54.337L149.891 54.5805C147.046 54.3274 144.237 54.0764 141.679 53.8489L141.368 53.82L141.326 53.5114C140.695 48.8139 140.079 44.2318 139.507 39.9819L139.467 39.6839L139.748 39.5803C142.438 38.5795 145.079 37.5957 147.476 36.705L147.243 36.9987C147.635 33.8735 148.479 30.8882 149.554 28.3066L149.609 28.6623C147.761 26.4481 145.958 24.2884 144.322 22.3274L144.153 22.1234L144.313 21.914C147.221 18.1095 149.991 14.4855 152.601 11.0708L152.748 10.8807L152.964 10.98C155.596 12.1891 158.125 13.3501 160.462 14.4235L160.178 14.4567C162.689 12.5159 165.338 11.0377 167.94 9.96426L167.789 10.1704C168.062 7.21178 168.316 4.4465 168.545 1.95786L168.561 1.78695L168.729 1.76559C174.241 1.04997 178.798 0.458252 182.263 0.0085907L182.371 -0.00531006L182.407 0.0950851C183.307 2.59121 184.001 4.51485 184.483 5.84997C184.706 6.48548 184.878 6.97681 185.006 7.34316C185.122 7.68068 185.177 7.85797 185.17 7.86652Z" fill="#D4DFF4"/>
<path fill-rule="evenodd" clip-rule="evenodd" d="M111.984 113.316C100.656 114.853 92.7158 125.285 94.2537 136.617C95.7904 147.949 106.223 155.888 117.55 154.352C128.88 152.814 136.817 142.381 135.28 131.049C133.742 119.718 123.313 111.778 111.984 113.316ZM119.835 86.76C124.062 87.2908 128.148 88.3845 131.997 89.9728L140.937 82.479L156.293 94.1693L151.454 104.785C154.011 108.072 156.155 111.718 157.792 115.655L169.407 116.678L172 135.806L161.079 139.888C160.55 144.119 159.455 148.204 157.866 152.055L165.358 160.998L153.672 176.355L143.058 171.516C139.772 174.073 136.125 176.215 132.189 177.853L131.167 189.471L112.043 192.067L107.962 181.143C103.733 180.614 99.6489 179.518 95.7996 177.929L86.8576 185.424L71.5023 173.734L76.3418 163.117C73.786 159.829 71.6449 156.183 70.0048 152.247L58.392 151.222L55.7974 132.096L66.7183 128.015C67.2463 123.784 68.3413 119.697 69.9314 115.847L62.439 106.904L74.1243 91.5472L84.7386 96.3867C88.0251 93.8286 91.6705 91.686 95.6077 90.0476L96.6301 78.4321L115.751 75.8366L119.835 86.76Z" fill="#D4DFF4"/>
<path d="M721 399.64C721 399.794 558.915 399.919 359.017 399.919C159.051 399.919 -3 399.794 -3 399.64C-3 399.487 159.051 399.361 359.017 399.361C558.915 399.361 721 399.487 721 399.64Z" fill="#17282F"/>
<path d="M590.834 392.64H154.965C146.375 392.64 139.41 385.673 139.41 377.08V99.3186C139.41 90.7247 146.375 83.7597 154.965 83.7597H590.834C599.426 83.7597 606.39 90.7247 606.39 99.3186V377.08C606.39 385.673 599.426 392.64 590.834 392.64Z" fill="#7C8EB5"/>
<path d="M608.091 399.717H140.164C129.668 399.717 121.16 391.206 121.16 380.708V372.691H627.097V380.708C627.097 391.206 618.587 399.717 608.091 399.717Z" fill="#7C8EB5"/>
<path d="M151.945 356.876H592.55V96.031H151.945V356.876Z" fill="#17282F"/>
<path d="M326.865 369.794L333.143 379.782H421.486L427.317 369.794H326.865Z" fill="#17282F"/>
<path d="M580.886 356.041H164.515C162.586 356.041 161.02 354.476 161.02 352.544V108.357C161.02 106.427 162.585 104.862 164.515 104.862H580.886C582.815 104.862 584.38 106.427 584.38 108.357V352.545C584.38 354.476 582.815 356.041 580.886 356.041Z" fill="#E7E8E5"/>
<path d="M583.927 356.409H160.566L161.02 123.634H583.927V356.409Z" fill="#FAFAF9"/>
<path d="M195.742 114.561C195.742 116.429 194.228 117.944 192.36 117.944C190.494 117.944 188.981 116.429 188.981 114.561C188.981 112.694 190.494 111.181 192.36 111.181C194.228 111.181 195.742 112.694 195.742 114.561Z" fill="#17282F"/>
<path d="M175.25 114.561C175.25 116.429 173.736 117.944 171.868 117.944C170.002 117.944 168.488 116.429 168.488 114.561C168.488 112.694 170.002 111.181 171.868 111.181C173.736 111.181 175.25 112.694 175.25 114.561Z" fill="#17282F"/>
<path d="M185.086 114.561C185.086 116.429 183.573 117.944 181.705 117.944C179.838 117.944 178.324 116.429 178.324 114.561C178.324 112.694 179.838 111.181 181.705 111.181C183.573 111.181 185.086 112.694 185.086 114.561Z" fill="#17282F"/>
<path d="M602.377 369.794C602.377 369.961 498.73 370.097 370.904 370.097C243.034 370.097 139.41 369.961 139.41 369.794C139.41 369.628 243.034 369.492 370.904 369.492C498.73 369.492 602.377 369.628 602.377 369.794Z" fill="#17282F"/>
<path d="M520.88 239.201H233.201C226.162 239.201 220.455 233.494 220.455 226.453C220.455 219.413 226.162 213.705 233.201 213.705H520.88C527.919 213.705 533.626 219.413 533.626 226.453C533.626 233.494 527.919 239.201 520.88 239.201Z" fill="#E7E8E5"/>
<path d="M381.837 239.201H366.419C359.312 239.201 353.55 233.439 353.55 226.33C353.55 219.219 359.063 213.705 366.169 213.705L381.845 213.771C388.953 213.771 394.707 219.783 394.707 226.892C394.707 234.001 388.946 239.201 381.837 239.201Z" fill="#D4DFF4"/>
<mask id="mask0_1034_4827" style="mask-type:luminance" maskUnits="userSpaceOnUse" x="220" y="213" width="167" height="27">
<path d="M377.484 239.201H233.201C226.162 239.201 220.455 233.494 220.455 226.453C220.455 219.413 226.162 213.705 233.201 213.705H377.484C382.527 213.705 386.613 217.792 386.613 222.836V230.07C386.613 235.113 382.527 239.201 377.484 239.201Z" fill="white"/>
</mask>
<g mask="url(#mask0_1034_4827)">
<path d="M373.868 239.201H233.201C226.162 239.201 220.455 233.494 220.455 226.453C220.455 219.413 226.162 213.705 233.201 213.705H373.868C380.907 213.705 386.613 219.413 386.613 226.453C386.613 233.494 380.907 239.201 373.868 239.201Z" fill="#2477F4"/>
<path d="M264.65 239.201H253.632L238.071 213.705H248.461L264.65 239.201Z" fill="#609FFF"/>
<path d="M241.093 239.201H233.201C232.021 239.201 230.879 239.041 229.795 238.741L220.718 223.87C221.412 220.497 223.439 217.61 226.223 215.783L241.093 239.201Z" fill="#609FFF"/>
<path d="M287.434 239.201H276.417L260.854 213.705H271.244L287.434 239.201Z" fill="#609FFF"/>
<path d="M310.218 239.201H299.201L283.639 213.705H294.028L310.218 239.201Z" fill="#609FFF"/>
<path d="M333.002 239.201H321.984L306.422 213.705H316.813L333.002 239.201Z" fill="#609FFF"/>
<path d="M355.786 239.201H344.769L329.206 213.705H339.596L355.786 239.201Z" fill="#609FFF"/>
<path d="M377.484 239.201H373.868C375.355 239.201 376.783 238.947 378.11 238.478L378.532 239.142C378.188 239.181 377.839 239.201 377.484 239.201Z" fill="#E2E2E0"/>
<path d="M373.868 239.201H367.552L351.991 213.705H362.381L378.11 238.478C376.783 238.947 375.355 239.201 373.868 239.201Z" fill="#609FFF"/>
<path d="M386.274 232.546L385.6 231.442C386.252 229.91 386.613 228.223 386.613 226.453V230.07C386.613 230.929 386.495 231.759 386.274 232.546Z" fill="#E2E2E0"/>
<path d="M378.459 213.756L374.837 213.741C374.822 213.74 374.808 213.739 374.794 213.738L374.774 213.705H377.484C377.814 213.705 378.139 213.723 378.459 213.756Z" fill="#ECECEA"/>
<path d="M386.613 226.453C386.613 219.738 381.423 214.237 374.837 213.741L378.459 213.756C383.044 214.243 386.613 218.122 386.613 222.836V226.453Z" fill="#E2E2E0"/>
<path d="M385.6 231.442L374.794 213.738C374.808 213.739 374.822 213.74 374.837 213.741C381.423 214.237 386.613 219.738 386.613 226.453C386.613 228.223 386.253 229.91 385.6 231.442Z" fill="#609FFF"/>
</g>
<path d="M285.359 399.174L325.475 398.746L322.3 384.397L286.453 381.732L285.359 399.174Z" fill="#C0776A"/>
<path d="M305.607 381.251L324.184 382.472C324.184 382.472 331.664 363.994 335.12 363.886L334.047 400L305.021 399.285L305.607 381.251Z" fill="#2477F4"/>
<path d="M322.287 393.593C322.458 394.297 323.229 394.804 323.94 394.662C324.652 394.521 325.173 393.741 325.015 393.034C324.857 392.327 323.949 391.69 323.259 391.909C322.568 392.129 322.007 393.08 322.329 393.728" fill="#D4DFF4"/>
<path d="M334.047 400L331.124 399.813L333.246 365.257C333.246 365.257 333.992 363.669 335.12 363.886L334.047 400Z" fill="#D4DFF4"/>
<path d="M324.017 381.881C324.194 381.892 324.248 382.776 324.789 383.66C325.306 384.56 326.057 385.03 325.982 385.19C325.944 385.351 324.897 385.058 324.261 383.974C323.615 382.898 323.857 381.837 324.017 381.881Z" fill="#17282F"/>
<path d="M325.697 378.139C325.869 378.104 326.147 378.877 326.874 379.498C327.583 380.14 328.385 380.315 328.372 380.492C328.394 380.658 327.359 380.748 326.468 379.958C325.571 379.178 325.528 378.138 325.697 378.139Z" fill="#17282F"/>
<path d="M330.293 376.123C330.326 376.284 329.438 376.503 328.485 376.023C327.53 375.547 327.174 374.704 327.323 374.634C327.471 374.539 327.973 375.09 328.761 375.472C329.539 375.874 330.281 375.948 330.293 376.123Z" fill="#17282F"/>
<path d="M319.753 382.072C319.911 382.151 319.645 382.953 319.682 383.952C319.7 384.951 320.012 385.737 319.857 385.824C319.727 385.922 319.097 385.146 319.069 383.968C319.032 382.793 319.617 381.981 319.753 382.072Z" fill="#17282F"/>
<path d="M316.001 381.896C316.074 381.896 316.161 382.596 315.937 383.703C315.825 384.255 315.624 384.902 315.299 385.579C315.137 385.917 314.945 386.261 314.717 386.601C314.606 386.765 314.492 386.958 314.276 387.134C314.087 387.325 313.617 387.422 313.336 387.187C313.064 386.994 312.954 386.664 312.956 386.403C312.956 386.137 313.015 385.922 313.07 385.727C313.179 385.328 313.324 384.955 313.489 384.614C313.823 383.934 314.237 383.385 314.633 382.98C315.434 382.164 316.1 381.898 316.133 381.96C316.189 382.041 315.625 382.432 314.959 383.265C314.628 383.682 314.283 384.215 314.002 384.852C313.864 385.171 313.744 385.516 313.652 385.88C313.54 386.26 313.528 386.586 313.694 386.688C313.759 386.726 313.784 386.731 313.898 386.655C314.004 386.575 314.11 386.424 314.221 386.263C314.439 385.949 314.629 385.633 314.795 385.323C315.126 384.703 315.357 384.107 315.517 383.595C315.837 382.569 315.905 381.89 316.001 381.896Z" fill="#17282F"/>
<path d="M316.247 382.133C316.271 382.196 315.629 382.527 314.486 382.557C313.919 382.571 313.234 382.492 312.513 382.251C312.154 382.131 311.787 381.968 311.428 381.758C311.078 381.537 310.608 381.263 310.551 380.578C310.548 380.221 310.836 379.932 311.077 379.838C311.325 379.725 311.535 379.708 311.746 379.671C312.17 379.617 312.583 379.638 312.963 379.706C313.729 379.843 314.359 380.177 314.808 380.535C315.723 381.268 315.912 382.01 315.851 382.023C315.762 382.079 315.439 381.455 314.556 380.889C314.121 380.609 313.544 380.355 312.874 380.266C312.541 380.22 312.186 380.214 311.828 380.268C311.442 380.313 311.129 380.446 311.164 380.592C311.156 380.771 311.436 381.085 311.737 381.243C312.055 381.438 312.382 381.595 312.705 381.72C313.351 381.965 313.972 382.083 314.499 382.123C315.557 382.205 316.222 382.036 316.247 382.133Z" fill="#17282F"/>
<path d="M35.9947 387.891L32.9284 399.64L-1.44623 399.325C-1.44623 399.325 3.25355 395.772 20.5268 396.03L22.2024 387.891H35.9947Z" fill="#C0776A"/>
<path d="M71.1953 228.816C70.2409 226.853 69.2807 224.872 68.7301 222.759C68.1794 220.646 68.0597 218.365 68.7827 216.304C69.5059 214.244 71.1652 212.445 73.283 211.915C74.5911 211.587 76.0123 211.737 77.2524 211.206C78.6874 210.593 79.5971 209.202 80.6812 208.079C82.3735 206.325 84.6489 205.145 87.057 204.77C88.3209 204.575 89.6561 204.603 90.8258 205.121C91.9958 205.638 92.9694 206.71 93.1266 207.98C94.592 207.404 96.0778 206.823 97.6421 206.647C99.2062 206.47 100.885 206.744 102.114 207.728C103.344 208.711 103.985 210.501 103.35 211.942C104.596 211.135 106.428 211.62 107.28 212.837C108.131 214.053 108.04 215.785 107.243 217.039C106.448 218.293 104.508 219.473 103.048 219.748C101.589 220.022 99.8874 220.252 98.4575 219.85" fill="#17282F"/>
<path d="M88.1878 275.16C94.3522 274.398 98.7496 268.804 98.0283 262.634C97.6258 259.186 97.2671 256.305 97.2671 256.305C97.2671 256.305 105.963 254.498 105.627 245.727C105.289 236.956 102.749 216.904 102.749 216.904C92.3821 213.06 80.7472 215.125 72.3391 222.307L71.0915 223.373L75.561 265.143C76.233 271.424 81.9205 275.937 88.1878 275.16Z" fill="#C0776A"/>
<path d="M97.2754 256.179C97.2754 256.179 91.7597 256.91 85.6851 253.511C85.6851 253.511 88.7063 259.683 97.411 258.449L97.2754 256.179Z" fill="#B85549"/>
<path d="M72.6324 232.397C72.4792 232.34 66.5201 230.921 67.0161 236.905C67.5113 242.887 73.4149 241.156 73.4111 240.984C73.4069 240.811 72.6324 232.397 72.6324 232.397Z" fill="#C0776A"/>
<path d="M71.3959 238.869C71.3685 238.851 71.2979 238.95 71.1286 239.045C70.963 239.138 70.6722 239.217 70.351 239.126C69.7 238.947 69.0847 237.988 68.9662 236.911C68.9057 236.367 68.9766 235.84 69.1339 235.394C69.2807 234.942 69.5381 234.613 69.8514 234.529C70.1621 234.43 70.4032 234.602 70.4904 234.764C70.5842 234.924 70.5558 235.047 70.5888 235.055C70.6063 235.069 70.7085 234.945 70.6405 234.701C70.6055 234.585 70.5237 234.449 70.374 234.346C70.2205 234.241 70.0044 234.199 69.7846 234.241C69.3266 234.311 68.9462 234.771 68.7731 235.259C68.5749 235.752 68.4823 236.346 68.5499 236.957C68.6884 238.16 69.3987 239.236 70.2843 239.414C70.714 239.489 71.0543 239.332 71.2245 239.178C71.3968 239.013 71.4173 238.877 71.3959 238.869Z" fill="#B85549"/>
<path d="M100.731 231.367C100.788 232.027 100.276 232.618 99.5884 232.691C98.9017 232.763 98.2982 232.288 98.2411 231.627C98.1843 230.968 98.6957 230.375 99.3827 230.303C100.07 230.231 100.674 230.707 100.731 231.367Z" fill="#17282F"/>
<path d="M101.716 229.319C101.569 229.49 100.585 228.837 99.2388 228.909C97.8927 228.961 96.9392 229.706 96.7848 229.547C96.7093 229.478 96.8529 229.176 97.2671 228.84C97.675 228.506 98.382 228.166 99.2209 228.127C100.06 228.089 100.781 228.362 101.203 228.658C101.633 228.955 101.789 229.243 101.716 229.319Z" fill="#17282F"/>
<path d="M87.9038 232.005C87.9606 232.665 87.4487 233.258 86.7613 233.33C86.0746 233.402 85.4707 232.926 85.4135 232.267C85.3568 231.607 85.8686 231.014 86.5552 230.942C87.2431 230.869 87.8466 231.346 87.9038 232.005Z" fill="#17282F"/>
<path d="M88.4907 230.244C88.3438 230.415 87.3591 229.76 86.0129 229.833C84.6673 229.886 83.7142 230.629 83.5595 230.47C83.4844 230.402 83.6258 230.1 84.0416 229.763C84.4496 229.43 85.1566 229.089 85.9954 229.051C86.8348 229.013 87.5559 229.286 87.9777 229.581C88.4068 229.879 88.5633 230.166 88.4907 230.244Z" fill="#17282F"/>
<path d="M93.8858 239.985C93.8754 239.908 94.7051 239.722 96.0528 239.479C96.3948 239.425 96.7172 239.341 96.7631 239.103C96.8312 238.851 96.6684 238.487 96.4815 238.096C96.1158 237.28 95.7333 236.425 95.3316 235.528C93.7298 231.871 92.5523 228.857 92.7003 228.793C92.8476 228.731 94.2658 231.643 95.8675 235.3C96.2542 236.203 96.6238 237.063 96.9759 237.886C97.1252 238.27 97.3721 238.702 97.2224 239.227C97.1432 239.488 96.8999 239.688 96.6826 239.759C96.4657 239.837 96.2721 239.85 96.1029 239.869C94.741 240.012 93.8946 240.061 93.8858 239.985Z" fill="#17282F"/>
<path d="M89.9694 241.118C90.188 241.095 90.2652 242.556 91.5687 243.53C92.8705 244.508 94.421 244.265 94.4423 244.469C94.4677 244.56 94.1094 244.77 93.4528 244.821C92.8092 244.877 91.8565 244.717 91.0581 244.122C90.263 243.524 89.8914 242.692 89.8109 242.093C89.7241 241.486 89.8689 241.114 89.9694 241.118Z" fill="#17282F"/>
<path d="M101.1 226.974C100.879 227.292 99.9354 227.022 98.8187 227.063C97.7008 227.066 96.7694 227.374 96.5349 227.064C96.4323 226.914 96.5654 226.6 96.9638 226.289C97.3554 225.98 98.0237 225.709 98.7916 225.694C99.5592 225.679 100.238 225.924 100.642 226.216C101.052 226.51 101.198 226.82 101.1 226.974Z" fill="#17282F"/>
<path d="M86.4918 225.463C86.3487 225.635 86.0004 225.586 85.5478 225.521C85.0932 225.45 84.5163 225.376 83.8743 225.383C83.2319 225.398 82.6579 225.494 82.2058 225.581C81.7557 225.662 81.4095 225.724 81.2606 225.557C81.1209 225.405 81.2306 225.013 81.6806 224.603C82.1211 224.195 82.9207 223.831 83.8459 223.814C84.7707 223.798 85.5829 224.135 86.0376 224.526C86.5022 224.917 86.6257 225.306 86.4918 225.463Z" fill="#17282F"/>
<path d="M103.32 219.574C103.32 219.574 97.5544 221.845 90.5033 219.574C85.8765 218.084 80.7041 217.8 79.731 218.833C78.7583 219.866 79.2008 224.333 75.1384 226.277C75.1384 226.277 76.721 234.687 73.3047 234.9C69.8884 235.112 69.9973 221.696 69.9973 221.696L77.6283 216.41L86.3663 213.337L94.7955 212.05L103 213.265L103.32 219.574Z" fill="#17282F"/>
<path d="M116.195 274.212L142.505 298.839L184.095 270.407L197.1 285.384L157.107 317.415C153.092 320.996 147.965 323.079 142.59 323.31C135.223 323.627 128.141 320.44 123.493 314.715L109.397 302.815L116.195 274.212Z" fill="#2477F4"/>
<path d="M91.7543 263.627L116.195 274.212L115.377 280.984L126.75 326.094L139.122 335.126L128.876 350.17C126.575 353.55 123.562 356.382 120.049 358.473L95.6661 372.976C90.9192 374.723 85.6329 372.476 83.5927 367.847L62.0314 318.919L40.3658 386.134C38.9635 390.483 34.6269 393.187 30.1049 392.531L21.5225 391.284C18.6039 390.86 16.698 387.998 17.4321 385.141L41.6572 290.918C42.9524 285.955 45.046 281.336 47.8132 277.163C53.0549 269.259 61.8883 264.48 71.3676 264.208L91.7543 263.627Z" fill="#2477F4"/>
<path d="M100.317 264.333L99.4094 259.43L73.5007 257.687L73.4821 264.206C73.6589 266.057 76.6772 265.508 79.5041 266.672L92.1873 269.203C95.3036 269.447 101.909 268.282 100.317 264.333Z" fill="#2477F4"/>
<path d="M127.01 326.316C126.974 326.326 126.737 325.714 126.341 324.597C125.942 323.481 125.398 321.853 124.751 319.833C123.457 315.797 121.792 310.177 120.183 303.91C118.574 297.639 117.328 291.913 116.518 287.751C116.113 285.67 115.806 283.982 115.619 282.811C115.427 281.642 115.34 280.991 115.377 280.984C115.415 280.977 115.575 281.613 115.83 282.771C116.103 284.018 116.465 285.67 116.903 287.671C117.81 291.808 119.116 297.511 120.721 303.771C122.328 310.029 123.93 315.656 125.127 319.719C125.707 321.684 126.186 323.305 126.547 324.531C126.88 325.668 127.047 326.303 127.01 326.316Z" fill="#17282F"/>
<path d="M69.8584 296.63C69.9302 296.657 69.5235 297.938 68.8227 299.995C68.0547 302.199 67.0933 304.957 66.03 308.007C64.9634 311.057 63.9986 313.813 63.2286 316.015C62.517 318.066 62.0752 319.336 61.9981 319.312C61.928 319.293 62.2371 317.982 62.854 315.895C63.473 313.809 64.4041 310.952 65.5053 307.822C66.6048 304.694 67.6573 301.882 68.4536 299.859C69.2495 297.837 69.7863 296.603 69.8584 296.63Z" fill="#17282F"/>
<path d="M69.088 334.932C68.7055 334.404 68.4352 333.793 68.1711 333.193C66.1297 328.547 64.0892 323.901 62.0477 319.254C62.0481 319.254 62.0481 319.254 62.0485 319.254L62.3406 319.91C62.3572 319.851 62.3735 319.792 62.3898 319.733L69.088 334.932Z" fill="#C3C5C2"/>
<path d="M71.2662 336.215C70.5821 336.215 69.9059 335.848 69.4262 335.342C69.3041 335.213 69.1918 335.075 69.0879 334.932L62.3898 319.733C62.9887 317.581 63.5877 315.428 64.1867 313.276C64.7474 311.674 65.3693 309.897 66.03 308.007C67.0566 305.062 67.9884 302.388 68.743 300.223C69.3879 300.273 69.8171 301.028 70.0557 301.675C73.6384 311.369 74.0151 321.938 73.651 332.268C73.5959 333.843 73.2071 335.823 71.67 336.17C71.5361 336.201 71.4009 336.215 71.2662 336.215Z" fill="#2477F4"/>
<path d="M62.0012 319.148C61.9925 319.129 61.9843 319.11 61.976 319.091V319.091L62.0012 319.147C62.0012 319.148 62.0012 319.148 62.0012 319.148Z" fill="#C3C5C2"/>
<path d="M61.976 319.091C61.9676 319.072 61.9588 319.052 61.9505 319.032L61.976 319.09V319.091ZM66.4079 305.295C66.7387 304.106 67.0695 302.917 67.4003 301.728C67.553 301.181 67.8007 300.547 68.2759 300.313C67.7357 301.698 67.0937 303.402 66.4079 305.295Z" fill="#2477F4"/>
<path d="M62.0476 319.254C62.0323 319.219 62.0164 319.183 62.0014 319.148C62.0014 319.148 62.0014 319.148 62.0014 319.147L62.0485 319.254C62.0481 319.254 62.0481 319.254 62.0476 319.254ZM64.1867 313.276C64.9271 310.616 65.6675 307.955 66.4079 305.295C67.0936 303.402 67.7356 301.698 68.2759 300.313C68.3643 300.269 68.4602 300.24 68.5653 300.227C68.6024 300.223 68.6391 300.221 68.675 300.221C68.698 300.221 68.7205 300.222 68.743 300.223C67.9884 302.388 67.0566 305.062 66.03 308.007C65.3693 309.897 64.7474 311.674 64.1867 313.276Z" fill="#111D23"/>
<path d="M129.172 320.001L128.234 319.127C128.608 319.389 128.988 319.638 129.375 319.876C129.31 319.922 129.243 319.962 129.172 320.001Z" fill="#C3C5C2"/>
<path d="M129.375 319.876C128.988 319.638 128.608 319.389 128.234 319.127L124 315.188L119.703 298.142C123.753 303.197 127.117 308.802 129.669 314.757C130.052 315.646 130.421 316.572 130.434 317.541C130.446 318.43 130.093 319.374 129.375 319.876Z" fill="#2477F4"/>
<path d="M124 315.188L123.749 314.955C122.816 311.668 121.769 307.854 120.721 303.771C120.161 301.588 119.638 299.471 119.154 297.467C119.339 297.691 119.521 297.915 119.703 298.142L124 315.188ZM118.425 296.687L118.386 296.547C118.39 296.55 118.393 296.554 118.396 296.559C118.406 296.601 118.415 296.644 118.425 296.687Z" fill="#2477F4"/>
<path d="M123.749 314.955L123.493 314.715L118.425 296.687C118.415 296.644 118.406 296.601 118.396 296.559C118.651 296.859 118.904 297.162 119.154 297.467C119.638 299.471 120.161 301.588 120.721 303.771C121.769 307.854 122.816 311.668 123.749 314.955Z" fill="#111D23"/>
<path d="M48.3334 311.865C48.2721 311.862 48.5278 305.688 48.9048 298.076C49.282 290.462 49.6374 284.295 49.6987 284.298C49.76 284.301 49.5039 290.474 49.1271 298.087C48.7501 305.698 48.3943 311.867 48.3334 311.865Z" fill="#D4DFF4"/>
<path d="M53.1407 290.452C53.1558 290.451 53.1755 290.633 53.1963 290.962C53.2217 291.292 53.2238 291.77 53.1946 292.362C53.1399 293.541 52.8897 295.175 52.2836 296.881C51.672 298.587 50.832 300.011 50.1275 300.959C49.7762 301.433 49.4709 301.804 49.2431 302.042C49.0179 302.285 48.8886 302.413 48.8774 302.402C48.8464 302.375 49.3349 301.833 49.9994 300.868C50.6647 299.904 51.4706 298.49 52.0738 296.807C52.6715 295.123 52.9431 293.518 53.0377 292.35C53.1346 291.182 53.0995 290.453 53.1407 290.452Z" fill="#D4DFF4"/>
<path d="M44.4041 291.313C44.4428 291.31 44.495 291.95 44.6919 292.961C44.8875 293.973 45.2638 295.352 45.9057 296.785C46.5523 298.217 47.3344 299.415 47.9605 300.232C48.5862 301.051 49.03 301.513 49.002 301.541C48.9908 301.552 48.8711 301.445 48.6634 301.241C48.4527 301.041 48.1687 300.731 47.8374 300.33C47.1733 299.53 46.3583 298.329 45.703 296.876C45.0518 295.423 44.6944 294.017 44.5371 292.989C44.4575 292.474 44.4137 292.057 44.4032 291.765C44.389 291.476 44.3886 291.314 44.4041 291.313Z" fill="#D4DFF4"/>
<path d="M52.0329 286.805C52.0483 286.805 52.058 286.947 52.0608 287.205C52.0667 287.464 52.0534 287.837 52.0179 288.297C51.9482 289.217 51.753 290.487 51.3513 291.84C50.9463 293.193 50.4153 294.362 49.9693 295.17C49.7475 295.575 49.5547 295.894 49.4087 296.108C49.264 296.321 49.1785 296.435 49.1656 296.426C49.1347 296.408 49.4246 295.919 49.83 295.098C50.2363 294.277 50.7377 293.114 51.1381 291.776C51.5348 290.438 51.7521 289.19 51.8615 288.281C51.9711 287.372 51.997 286.804 52.0329 286.805Z" fill="#D4DFF4"/>
<path d="M46.3958 287.541C46.4338 287.544 46.385 288.194 46.41 289.245C46.4334 290.295 46.5623 291.746 46.9239 293.306C47.2901 294.866 47.8161 296.223 48.2599 297.175C48.7026 298.127 49.0345 298.69 49.002 298.709C48.9886 298.717 48.8944 298.583 48.7343 298.335C48.572 298.087 48.3597 297.714 48.1185 297.243C47.6347 296.301 47.0778 294.935 46.707 293.355C46.3412 291.777 46.2356 290.305 46.2523 289.248C46.2603 288.718 46.2857 288.288 46.322 287.996C46.3553 287.701 46.3804 287.54 46.3958 287.541Z" fill="#D4DFF4"/>
<path d="M48.187 285.513C48.2225 285.525 48.0873 285.894 48.0122 286.51C47.9321 287.124 47.9472 287.991 48.1449 288.92C48.5716 290.772 49.2553 292.194 49.1656 292.226C49.1385 292.237 48.9595 291.89 48.7068 291.312C48.4577 290.733 48.1291 289.918 47.9267 288.964C47.724 288.012 47.7332 287.113 47.8571 286.487C47.9751 285.856 48.1657 285.503 48.187 285.513Z" fill="#D4DFF4"/>
<path d="M44.8921 299.511C44.9531 299.48 45.5737 300.675 46.6044 301.963C47.6276 303.258 48.6529 304.131 48.6083 304.183C48.5899 304.205 48.3101 304.014 47.8987 303.653C47.4871 303.293 46.9519 302.756 46.4304 302.102C45.9103 301.447 45.507 300.804 45.2487 300.323C44.9901 299.84 44.8671 299.525 44.8921 299.511Z" fill="#D4DFF4"/>
<path d="M53.2447 300.93C53.268 300.948 53.0682 301.274 52.6991 301.769C52.3307 302.264 51.7864 302.923 51.1306 303.601C50.4749 304.279 49.8334 304.845 49.3512 305.23C48.8685 305.615 48.5486 305.825 48.5311 305.803C48.5111 305.776 48.7956 305.523 49.249 305.11C49.7024 304.697 50.3206 304.118 50.9713 303.447C51.6204 302.775 52.1785 302.138 52.576 301.671C52.9744 301.204 53.2184 300.912 53.2447 300.93Z" fill="#D4DFF4"/>
<path d="M30.1991 380.913C30.1378 380.91 30.394 374.736 30.7706 367.125C31.1477 359.512 31.5035 353.344 31.5645 353.346C31.6258 353.349 31.37 359.523 30.993 367.137C30.6159 374.747 30.2605 380.916 30.1991 380.913Z" fill="#D4DFF4"/>
<path d="M35.0066 359.5C35.0224 359.499 35.0412 359.681 35.0621 360.011C35.0875 360.34 35.0895 360.82 35.0604 361.41C35.0057 362.59 34.7554 364.223 34.1494 365.93C33.5378 367.635 32.6978 369.058 31.9936 370.007C31.642 370.482 31.3376 370.852 31.1094 371.091C30.8841 371.333 30.7548 371.461 30.7431 371.451C30.7122 371.423 31.2011 370.881 31.8652 369.916C32.5304 368.953 33.3368 367.538 33.94 365.855C34.5381 364.171 34.8092 362.566 34.9035 361.399C35.0003 360.231 34.9657 359.501 35.0066 359.5Z" fill="#D4DFF4"/>
<path d="M26.2699 360.362C26.3086 360.359 26.3607 360.999 26.5585 362.01C26.7537 363.021 27.1299 364.4 27.7715 365.834C28.418 367.266 29.2001 368.463 29.8266 369.279C30.4524 370.099 30.8958 370.562 30.8678 370.589C30.857 370.601 30.7369 370.493 30.5295 370.291C30.3189 370.089 30.0343 369.778 29.7036 369.378C29.0391 368.578 28.224 367.377 27.5688 365.925C26.918 364.471 26.561 363.064 26.4033 362.037C26.3233 361.523 26.2794 361.104 26.269 360.814C26.2548 360.523 26.2544 360.363 26.2699 360.362Z" fill="#D4DFF4"/>
<path d="M33.8991 355.852C33.9145 355.854 33.9237 355.996 33.9271 356.253C33.9324 356.512 33.9195 356.885 33.8836 357.346C33.8144 358.266 33.6192 359.534 33.2171 360.889C32.8125 362.242 32.2814 363.41 31.8356 364.218C31.6133 364.623 31.4205 364.943 31.2746 365.156C31.1306 365.369 31.0447 365.484 31.0313 365.476C31.0009 365.456 31.2908 364.967 31.6963 364.146C32.1026 363.325 32.6039 362.162 33.0039 360.824C33.4015 359.486 33.6179 358.239 33.7273 357.33C33.8374 356.42 33.8628 355.852 33.8991 355.852Z" fill="#D4DFF4"/>
<path d="M28.2617 356.59C28.3 356.593 28.2512 357.244 28.2759 358.294C28.2991 359.344 28.4281 360.794 28.7901 362.354C29.156 363.914 29.6829 365.271 30.1262 366.223C30.5692 367.175 30.9008 367.738 30.8678 367.759C30.8549 367.765 30.7602 367.631 30.6009 367.383C30.4383 367.136 30.2259 366.763 29.9844 366.292C29.5005 365.35 28.9437 363.983 28.5737 362.404C28.207 360.824 28.1019 359.353 28.119 358.295C28.126 357.765 28.152 357.337 28.1882 357.044C28.2212 356.75 28.2466 356.588 28.2617 356.59Z" fill="#D4DFF4"/>
<path d="M30.0532 354.561C30.0882 354.574 29.954 354.942 29.878 355.559C29.798 356.173 29.8129 357.039 30.0107 357.968C30.4382 359.821 31.121 361.242 31.0313 361.274C31.0043 361.286 30.8258 360.939 30.5726 360.361C30.3239 359.782 29.9948 358.966 29.7925 358.013C29.5897 357.061 29.5993 356.161 29.7229 355.534C29.8413 354.904 30.0315 354.551 30.0532 354.561Z" fill="#D4DFF4"/>
<path d="M26.7579 368.561C26.8192 368.528 27.4395 369.723 28.4702 371.012C29.4934 372.306 30.5191 373.18 30.4741 373.231C30.4557 373.253 30.1758 373.062 29.7645 372.702C29.3533 372.342 28.8176 371.805 28.2962 371.15C27.7765 370.495 27.3732 369.853 27.1145 369.37C26.8559 368.889 26.7329 368.573 26.7579 368.561Z" fill="#D4DFF4"/>
<path d="M35.1105 369.979C35.1338 369.996 34.9344 370.322 34.5653 370.818C34.1965 371.313 33.6522 371.972 32.9969 372.651C32.3407 373.327 31.7 373.893 31.217 374.278C30.7344 374.663 30.4153 374.874 30.3974 374.851C30.3773 374.825 30.6614 374.572 31.1148 374.158C31.5687 373.745 32.1864 373.166 32.8372 372.495C33.4862 371.823 34.0447 371.187 34.4427 370.719C34.8406 370.252 35.0846 369.96 35.1105 369.979Z" fill="#D4DFF4"/>
<path d="M69.7074 292.334C69.6466 292.331 69.9022 286.158 70.2788 278.546C70.6564 270.933 71.0118 264.766 71.0731 264.769C71.134 264.771 70.8788 270.944 70.5016 278.558C70.1245 286.168 69.7692 292.338 69.7074 292.334Z" fill="#D4DFF4"/>
<path d="M74.5156 270.922C74.5307 270.921 74.5494 271.102 74.5707 271.432C74.5957 271.762 74.5978 272.241 74.569 272.832C74.5144 274.011 74.2641 275.644 73.6584 277.351C73.0465 279.057 72.2068 280.481 71.5019 281.428C71.1507 281.904 70.8457 282.273 70.6175 282.512C70.3927 282.755 70.2634 282.883 70.2518 282.872C70.2205 282.845 70.7094 282.303 71.3733 281.337C72.0387 280.374 72.8451 278.96 73.4486 277.277C74.0464 275.593 74.3179 273.988 74.4122 272.82C74.5094 271.653 74.4744 270.922 74.5156 270.922Z" fill="#D4DFF4"/>
<path d="M65.7781 271.783C65.8173 271.78 65.8691 272.42 66.0667 273.431C66.2619 274.442 66.6382 275.821 67.2805 277.255C67.9267 278.687 68.7092 279.885 69.3354 280.702C69.9611 281.521 70.4049 281.984 70.3766 282.01C70.3657 282.022 70.2455 281.915 70.0378 281.712C69.8276 281.511 69.5435 281.201 69.2119 280.8C68.5479 280 67.7324 278.799 67.0774 277.347C66.4263 275.893 66.0693 274.485 65.9116 273.459C65.8319 272.945 65.7881 272.525 65.7772 272.235C65.7635 271.946 65.763 271.784 65.7781 271.783Z" fill="#D4DFF4"/>
<path d="M73.4073 267.274C73.4232 267.275 73.432 267.417 73.4357 267.675C73.4416 267.934 73.4278 268.307 73.3924 268.767C73.3226 269.687 73.1274 270.956 72.7254 272.31C72.3208 273.663 71.7897 274.832 71.3442 275.64C71.1223 276.044 70.9287 276.364 70.7828 276.577C70.6389 276.791 70.5534 276.905 70.5405 276.897C70.5096 276.878 70.7994 276.389 71.2044 275.567C71.6108 274.747 72.1121 273.584 72.5126 272.247C72.9097 270.908 73.127 269.66 73.2359 268.751C73.346 267.842 73.3714 267.274 73.4073 267.274Z" fill="#D4DFF4"/>
<path d="M67.7698 268.011C67.8087 268.014 67.7595 268.665 67.7845 269.716C67.8074 270.765 67.9367 272.215 68.2984 273.775C68.6646 275.335 69.191 276.693 69.6344 277.644C70.0775 278.597 70.4094 279.159 70.3766 279.18C70.3635 279.187 70.2693 279.054 70.1092 278.804C69.9464 278.557 69.7341 278.184 69.493 277.713C69.0096 276.771 68.4527 275.405 68.0819 273.825C67.7153 272.248 67.6101 270.776 67.6272 269.717C67.6352 269.187 67.6606 268.758 67.6965 268.466C67.7294 268.171 67.7549 268.01 67.7698 268.011Z" fill="#D4DFF4"/>
<path d="M69.5615 265.982C69.5969 265.995 69.4617 266.364 69.3871 266.98C69.3066 267.595 69.3216 268.461 69.5188 269.39C69.9464 271.242 70.6302 272.663 70.5405 272.696C70.5125 272.707 70.3344 272.36 70.0816 271.782C69.8322 271.203 69.5039 270.388 69.3015 269.434C69.0984 268.482 69.1081 267.583 69.2315 266.956C69.3499 266.326 69.5402 265.973 69.5615 265.982Z" fill="#D4DFF4"/>
<path d="M66.2669 279.982C66.3275 279.95 66.9481 281.146 67.9792 282.433C69.002 283.728 70.0278 284.601 69.9827 284.653C69.9648 284.674 69.6845 284.484 69.2732 284.124C68.8619 283.763 68.3258 283.226 67.8049 282.572C67.2851 281.916 66.8814 281.274 66.6232 280.793C66.3641 280.311 66.2411 279.995 66.2669 279.982Z" fill="#D4DFF4"/>
<path d="M74.6191 281.4C74.6429 281.418 74.4427 281.743 74.0739 282.239C73.7051 282.734 73.1608 283.393 72.5055 284.072C71.849 284.749 71.2083 285.315 70.7252 285.699C70.243 286.085 69.9234 286.295 69.9055 286.273C69.8859 286.247 70.17 285.993 70.623 285.58C71.0772 285.166 71.695 284.587 72.3453 283.918C72.9952 283.245 73.5529 282.608 73.9508 282.14C74.3488 281.674 74.5932 281.381 74.6191 281.4Z" fill="#D4DFF4"/>
<path d="M92.8555 287.378C92.7938 287.375 93.0504 281.202 93.427 273.59C93.8041 265.977 94.1594 259.809 94.2208 259.812C94.2821 259.815 94.0259 265.987 93.6493 273.601C93.2723 281.212 92.9165 287.382 92.8555 287.378Z" fill="#D4DFF4"/>
<path d="M97.6629 265.965C97.6779 265.965 97.6975 266.146 97.7183 266.475C97.7438 266.805 97.7459 267.284 97.7167 267.875C97.6616 269.055 97.4113 270.688 96.8057 272.395C96.1942 274.101 95.3541 275.524 94.6495 276.472C94.2983 276.947 93.9934 277.317 93.7657 277.555C93.54 277.798 93.4107 277.926 93.3994 277.915C93.3685 277.888 93.857 277.346 94.5215 276.381C95.1868 275.419 95.9927 274.003 96.5963 272.32C97.1936 270.636 97.4651 269.031 97.5594 267.863C97.6566 266.696 97.6216 265.967 97.6629 265.965Z" fill="#D4DFF4"/>
<path d="M88.9261 266.827C88.9649 266.824 89.0171 267.463 89.2144 268.475C89.41 269.486 89.7858 270.866 90.4278 272.299C91.0744 273.731 91.8565 274.928 92.4825 275.745C93.1083 276.565 93.5521 277.028 93.5241 277.055C93.5129 277.066 93.3932 276.959 93.1854 276.755C92.9748 276.554 92.6907 276.244 92.36 275.843C91.6954 275.043 90.8803 273.842 90.2251 272.391C89.5744 270.936 89.2164 269.531 89.0596 268.502C88.9791 267.988 88.9357 267.57 88.9253 267.278C88.9111 266.989 88.9107 266.828 88.9261 266.827Z" fill="#D4DFF4"/>
<path d="M96.5554 262.318C96.5704 262.319 96.58 262.461 96.583 262.719C96.5887 262.977 96.5754 263.351 96.5395 263.81C96.4707 264.732 96.2755 265.999 95.8734 267.354C95.4688 268.706 94.9373 269.876 94.4919 270.683C94.2696 271.088 94.0768 271.408 93.9309 271.621C93.7869 271.834 93.7005 271.949 93.6876 271.941C93.6568 271.921 93.9467 271.432 94.3526 270.61C94.7589 269.791 95.2602 268.627 95.6602 267.29C96.057 265.951 96.2747 264.703 96.3835 263.795C96.4933 262.886 96.5191 262.318 96.5554 262.318Z" fill="#D4DFF4"/>
<path d="M90.9179 263.054C90.9558 263.057 90.9075 263.708 90.9321 264.759C90.9554 265.808 91.0843 267.259 91.446 268.819C91.8122 270.379 92.3387 271.736 92.7825 272.688C93.2246 273.641 93.5567 274.203 93.5241 274.223C93.5108 274.23 93.4165 274.097 93.2572 273.848C93.0945 273.6 92.8814 273.228 92.6407 272.756C92.1567 271.814 91.6 270.448 91.2291 268.871C90.8633 267.291 90.7577 265.819 90.7753 264.76C90.7823 264.231 90.8078 263.802 90.844 263.509C90.8775 263.215 90.9024 263.053 90.9179 263.054Z" fill="#D4DFF4"/>
<path d="M92.7095 261.026C92.7445 261.039 92.6099 261.407 92.5344 262.023C92.4543 262.639 92.4692 263.504 92.667 264.433C93.0946 266.286 93.7773 267.707 93.6876 267.739C93.6605 267.751 93.4817 267.404 93.2288 266.826C92.9802 266.247 92.6511 265.431 92.4488 264.478C92.246 263.527 92.2552 262.626 92.3791 261.999C92.4972 261.369 92.6874 261.017 92.7095 261.026Z" fill="#D4DFF4"/>
<path d="M89.4142 275.025C89.4751 274.993 90.0958 276.189 91.1265 277.476C92.1497 278.771 93.1751 279.645 93.1304 279.697C93.112 279.718 92.8322 279.527 92.4204 279.167C92.0092 278.807 91.474 278.269 90.9521 277.615C90.4324 276.96 90.0291 276.317 89.7709 275.836C89.5122 275.354 89.3891 275.038 89.4142 275.025Z" fill="#D4DFF4"/>
<path d="M97.7668 276.443C97.7901 276.461 97.5903 276.788 97.2211 277.283C96.8528 277.777 96.3085 278.437 95.6528 279.115C94.997 279.793 94.3555 280.358 93.8733 280.743C93.3907 281.128 93.0716 281.338 93.0537 281.316C93.0331 281.291 93.3176 281.037 93.7711 280.624C94.225 280.21 94.8427 279.633 95.4934 278.961C96.1425 278.288 96.7006 277.651 97.0981 277.185C97.4964 276.717 97.7404 276.425 97.7668 276.443Z" fill="#D4DFF4"/>
<path d="M102.374 308.997C102.313 308.993 102.569 302.82 102.946 295.209C103.323 287.595 103.678 281.427 103.74 281.43C103.801 281.433 103.545 287.606 103.168 295.22C102.791 302.83 102.435 309 102.374 308.997Z" fill="#D4DFF4"/>
<path d="M107.181 287.583C107.198 287.582 107.217 287.764 107.237 288.094C107.263 288.423 107.265 288.903 107.236 289.493C107.18 290.673 106.931 292.307 106.325 294.013C105.713 295.718 104.873 297.142 104.169 298.09C103.817 298.566 103.512 298.935 103.284 299.174C103.059 299.416 102.93 299.544 102.918 299.534C102.887 299.506 103.376 298.964 104.04 297.999C104.705 297.037 105.511 295.622 106.115 293.939C106.713 292.254 106.984 290.649 107.079 289.481C107.175 288.315 107.141 287.586 107.181 287.583Z" fill="#D4DFF4"/>
<path d="M98.445 288.445C98.4838 288.442 98.536 289.081 98.7328 290.093C98.9284 291.104 99.3047 292.483 99.9467 293.917C100.593 295.35 101.375 296.547 102.001 297.363C102.627 298.183 103.071 298.647 103.043 298.673C103.032 298.684 102.912 298.576 102.704 298.374C102.494 298.173 102.21 297.862 101.878 297.461C101.214 296.661 100.399 295.461 99.7439 294.009C99.0932 292.554 98.7362 291.148 98.578 290.12C98.4984 289.607 98.4546 289.188 98.4441 288.897C98.4299 288.607 98.4296 288.446 98.445 288.445Z" fill="#D4DFF4"/>
<path d="M106.074 283.936C106.089 283.937 106.099 284.079 106.102 284.338C106.107 284.595 106.094 284.969 106.059 285.429C105.99 286.35 105.793 287.618 105.393 288.972C104.987 290.325 104.456 291.494 104.011 292.301C103.789 292.706 103.596 293.026 103.45 293.239C103.306 293.452 103.219 293.568 103.207 293.559C103.176 293.539 103.466 293.05 103.871 292.23C104.278 291.409 104.779 290.245 105.179 288.908C105.575 287.57 105.793 286.321 105.902 285.413C106.012 284.504 106.038 283.936 106.074 283.936Z" fill="#D4DFF4"/>
<path d="M100.437 284.673C100.475 284.675 100.426 285.328 100.451 286.378C100.474 287.427 100.603 288.877 100.965 290.437C101.331 291.997 101.857 293.354 102.301 294.306C102.744 295.26 103.076 295.822 103.043 295.842C103.03 295.848 102.935 295.715 102.776 295.466C102.613 295.219 102.401 294.846 102.16 294.375C101.676 293.433 101.119 292.066 100.748 290.489C100.382 288.909 100.277 287.437 100.294 286.379C100.301 285.849 100.327 285.422 100.363 285.127C100.396 284.833 100.422 284.672 100.437 284.673Z" fill="#D4DFF4"/>
<path d="M102.228 282.645C102.263 282.657 102.128 283.026 102.053 283.642C101.973 284.257 101.988 285.123 102.186 286.052C102.612 287.904 103.296 289.325 103.207 289.358C103.179 289.369 103 289.022 102.748 288.444C102.499 287.865 102.17 287.049 101.968 286.098C101.765 285.145 101.774 284.245 101.898 283.618C102.016 282.987 102.207 282.634 102.228 282.645Z" fill="#D4DFF4"/>
<path d="M98.933 296.644C98.994 296.611 99.6146 297.807 100.645 299.094C101.669 300.389 102.694 301.263 102.649 301.316C102.631 301.336 102.351 301.145 101.94 300.785C101.528 300.426 100.993 299.888 100.471 299.233C99.9513 298.578 99.5478 297.936 99.2896 297.454C99.031 296.972 98.908 296.656 98.933 296.644Z" fill="#D4DFF4"/>
<path d="M107.285 298.062C107.309 298.08 107.109 298.405 106.74 298.901C106.372 299.397 105.827 300.056 105.172 300.734C104.516 301.411 103.874 301.977 103.392 302.361C102.91 302.746 102.59 302.958 102.572 302.934C102.552 302.909 102.837 302.655 103.29 302.242C103.744 301.829 104.361 301.25 105.013 300.579C105.661 299.906 106.219 299.27 106.617 298.803C107.016 298.336 107.259 298.043 107.285 298.062Z" fill="#D4DFF4"/>
<path d="M135.401 317.563C135.343 317.582 133.389 311.72 131.036 304.472C128.684 297.222 126.825 291.33 126.883 291.311C126.941 291.292 128.895 297.152 131.248 304.403C133.6 311.651 135.46 317.543 135.401 317.563Z" fill="#D4DFF4"/>
<path d="M132.287 295.84C132.3 295.833 132.383 295.996 132.519 296.296C132.66 296.596 132.832 297.044 133.016 297.605C133.383 298.728 133.73 300.343 133.77 302.154C133.804 303.965 133.525 305.594 133.203 306.731C133.044 307.301 132.89 307.755 132.762 308.059C132.637 308.364 132.562 308.53 132.548 308.525C132.509 308.511 132.773 307.83 133.051 306.691C133.331 305.554 133.581 303.946 133.548 302.159C133.508 300.372 133.191 298.775 132.865 297.65C132.541 296.525 132.248 295.855 132.287 295.84Z" fill="#D4DFF4"/>
<path d="M124.426 299.75C124.461 299.733 124.737 300.313 125.281 301.188C125.823 302.064 126.664 303.219 127.774 304.331C128.888 305.44 130.044 306.28 130.92 306.822C131.795 307.366 132.375 307.64 132.358 307.676C132.352 307.689 132.201 307.633 131.935 307.516C131.667 307.404 131.291 307.214 130.84 306.958C129.934 306.445 128.746 305.613 127.617 304.488C126.492 303.361 125.658 302.174 125.146 301.269C124.888 300.817 124.698 300.44 124.586 300.173C124.47 299.906 124.412 299.758 124.426 299.75Z" fill="#D4DFF4"/>
<path d="M129.954 292.823C129.969 292.818 130.029 292.948 130.124 293.188C130.22 293.428 130.341 293.782 130.471 294.225C130.733 295.109 131.001 296.364 131.107 297.772C131.209 299.182 131.128 300.462 130.999 301.376C130.935 301.834 130.867 302.201 130.808 302.452C130.749 302.702 130.709 302.84 130.694 302.837C130.658 302.83 130.755 302.27 130.843 301.359C130.931 300.448 130.986 299.182 130.886 297.789C130.781 296.397 130.541 295.153 130.32 294.265C130.1 293.377 129.921 292.835 129.954 292.823Z" fill="#D4DFF4"/>
<path d="M124.947 295.516C124.985 295.504 125.17 296.131 125.567 297.105C125.962 298.076 126.597 299.387 127.49 300.717C128.386 302.044 129.361 303.126 130.113 303.857C130.865 304.591 131.376 304.999 131.352 305.028C131.343 305.041 131.207 304.95 130.969 304.773C130.73 304.6 130.399 304.327 130.006 303.972C129.219 303.264 128.213 302.184 127.305 300.841C126.402 299.495 125.78 298.158 125.42 297.161C125.239 296.663 125.111 296.254 125.04 295.967C124.966 295.68 124.932 295.52 124.947 295.516Z" fill="#D4DFF4"/>
<path d="M125.902 292.984C125.939 292.983 125.944 293.375 126.092 293.977C126.236 294.582 126.558 295.385 127.072 296.183C128.129 297.761 129.273 298.848 129.202 298.911C129.179 298.931 128.89 298.67 128.448 298.219C128.01 297.767 127.412 297.122 126.884 296.302C126.357 295.485 126.046 294.641 125.938 294.011C125.825 293.38 125.877 292.982 125.902 292.984Z" fill="#D4DFF4"/>
<path d="M127.795 307.238C127.841 307.188 128.846 308.084 130.267 308.923C131.683 309.769 132.953 310.221 132.929 310.285C132.92 310.311 132.59 310.233 132.077 310.042C131.565 309.852 130.873 309.54 130.153 309.113C129.435 308.687 128.829 308.228 128.417 307.87C128.003 307.512 127.776 307.26 127.795 307.238Z" fill="#D4DFF4"/>
<path d="M136.107 305.597C136.135 305.604 136.063 305.98 135.895 306.574C135.726 307.168 135.452 307.979 135.08 308.845C134.707 309.711 134.31 310.469 133.995 310.999C133.681 311.531 133.457 311.841 133.432 311.826C133.405 311.81 133.58 311.471 133.857 310.925C134.135 310.376 134.507 309.616 134.876 308.756C135.244 307.898 135.539 307.104 135.745 306.526C135.951 305.948 136.075 305.588 136.107 305.597Z" fill="#D4DFF4"/>
<path d="M170.672 287.384C170.72 287.422 166.857 292.242 162.045 298.151C157.23 304.061 153.291 308.819 153.244 308.78C153.196 308.741 157.058 303.92 161.872 298.011C166.684 292.104 170.625 287.344 170.672 287.384Z" fill="#D4DFF4"/>
<path d="M154.115 301.783C154.103 301.774 154.196 301.617 154.374 301.339C154.548 301.058 154.83 300.671 155.204 300.212C155.947 299.295 157.116 298.127 158.615 297.112C160.118 296.1 161.637 295.451 162.767 295.105C163.331 294.93 163.795 294.813 164.121 294.755C164.446 294.694 164.626 294.668 164.629 294.683C164.638 294.724 163.924 294.87 162.816 295.254C161.71 295.636 160.222 296.298 158.74 297.296C157.26 298.297 156.091 299.43 155.323 300.314C154.553 301.197 154.15 301.807 154.115 301.783Z" fill="#D4DFF4"/>
<path d="M161.664 306.267C161.631 306.247 161.967 305.701 162.408 304.769C162.849 303.839 163.364 302.505 163.696 300.969C164.023 299.432 164.102 298.004 164.082 296.974C164.064 295.943 163.98 295.309 164.019 295.304C164.035 295.301 164.067 295.457 164.115 295.745C164.165 296.031 164.21 296.45 164.239 296.969C164.301 298.007 164.245 299.458 163.913 301.015C163.577 302.572 163.031 303.916 162.549 304.837C162.309 305.3 162.097 305.663 161.932 305.903C161.772 306.146 161.677 306.275 161.664 306.267Z" fill="#D4DFF4"/>
<path d="M152.847 305.378C152.835 305.368 152.912 305.247 153.063 305.038C153.211 304.828 153.443 304.534 153.744 304.185C154.345 303.484 155.254 302.577 156.379 301.725C157.507 300.875 158.628 300.249 159.465 299.861C159.884 299.668 160.229 299.525 160.472 299.439C160.716 299.353 160.853 299.311 160.858 299.325C160.871 299.359 160.347 299.582 159.535 300.003C158.721 300.423 157.629 301.063 156.514 301.902C155.401 302.745 154.487 303.623 153.86 304.29C153.233 304.957 152.876 305.4 152.847 305.378Z" fill="#D4DFF4"/>
<path d="M157.825 308.126C157.796 308.1 158.221 307.604 158.824 306.744C159.427 305.884 160.182 304.64 160.814 303.169C161.443 301.695 161.823 300.29 162.029 299.261C162.238 298.23 162.303 297.581 162.341 297.584C162.357 297.585 162.354 297.75 162.335 298.044C162.319 298.339 162.27 298.766 162.184 299.289C162.016 300.334 161.656 301.764 161.019 303.256C160.378 304.746 159.591 305.993 158.951 306.837C158.63 307.258 158.357 307.588 158.153 307.803C157.952 308.02 157.836 308.136 157.825 308.126Z" fill="#D4DFF4"/>
<path d="M155.181 308.697C155.16 308.665 155.487 308.45 155.913 307.997C156.341 307.549 156.842 306.843 157.232 305.979C157.985 304.233 158.277 302.683 158.369 302.71C158.398 302.717 158.337 303.102 158.197 303.718C158.055 304.331 157.837 305.184 157.435 306.071C157.034 306.958 156.494 307.677 156.024 308.109C155.555 308.547 155.192 308.718 155.181 308.697Z" fill="#D4DFF4"/>
<path d="M166.127 299.373C166.059 299.362 166.268 298.031 166.2 296.384C166.143 294.734 165.834 293.422 165.901 293.408C165.928 293.4 166.041 293.721 166.159 294.255C166.277 294.789 166.39 295.539 166.422 296.376C166.453 297.211 166.397 297.968 166.32 298.51C166.243 299.05 166.154 299.378 166.127 299.373Z" fill="#D4DFF4"/>
<path d="M160.24 293.279C160.231 293.253 160.586 293.108 161.175 292.928C161.767 292.748 162.594 292.539 163.524 292.381C164.454 292.224 165.305 292.148 165.923 292.124C166.54 292.1 166.922 292.12 166.922 292.15C166.923 292.182 166.544 292.217 165.934 292.282C165.325 292.345 164.483 292.445 163.562 292.6C162.64 292.757 161.814 292.94 161.217 293.08C160.619 293.22 160.249 293.311 160.24 293.279Z" fill="#D4DFF4"/>
<path d="M98.9364 362.93C98.8747 362.931 98.6661 356.756 98.4704 349.138C98.2744 341.517 98.166 335.34 98.2273 335.339C98.2886 335.337 98.4971 341.511 98.6927 349.132C98.8888 356.75 98.9977 362.928 98.9364 362.93Z" fill="#D4DFF4"/>
<path d="M102.122 341.217C102.137 341.215 102.17 341.394 102.215 341.722C102.265 342.048 102.303 342.526 102.319 343.116C102.353 344.298 102.226 345.945 101.749 347.692C101.269 349.439 100.538 350.921 99.9067 351.919C99.5916 352.42 99.3152 352.812 99.1058 353.067C98.8997 353.326 98.7804 353.463 98.7682 353.454C98.7349 353.429 99.1817 352.851 99.7715 351.837C100.363 350.828 101.06 349.357 101.536 347.634C102.005 345.91 102.155 344.287 102.162 343.117C102.17 341.946 102.081 341.221 102.122 341.217Z" fill="#D4DFF4"/>
<path d="M93.4745 342.732C93.513 342.726 93.6126 343.359 93.8859 344.354C94.1566 345.347 94.635 346.694 95.3833 348.076C96.1354 349.456 97.0051 350.589 97.6913 351.358C98.3763 352.128 98.8538 352.556 98.8275 352.585C98.8175 352.596 98.6903 352.499 98.4676 352.313C98.2428 352.128 97.9358 351.839 97.5754 351.465C96.8533 350.717 95.9502 349.581 95.1877 348.182C94.4294 346.781 93.9675 345.405 93.7332 344.393C93.6147 343.886 93.5397 343.471 93.5075 343.183C93.4721 342.893 93.4596 342.735 93.4745 342.732Z" fill="#D4DFF4"/>
<path d="M100.743 337.663C100.758 337.662 100.778 337.803 100.801 338.06C100.826 338.316 100.841 338.69 100.841 339.152C100.84 340.075 100.741 341.354 100.441 342.735C100.14 344.114 99.6977 345.32 99.3143 346.159C99.1229 346.58 98.9548 346.913 98.8246 347.136C98.6973 347.36 98.6202 347.48 98.6069 347.473C98.5747 347.456 98.8266 346.946 99.1691 346.096C99.5128 345.249 99.9258 344.05 100.224 342.687C100.52 341.323 100.642 340.062 100.683 339.148C100.725 338.233 100.707 337.664 100.743 337.663Z" fill="#D4DFF4"/>
<path d="M95.1773 338.82C95.2156 338.821 95.2161 339.473 95.3199 340.519C95.4213 341.564 95.659 343 96.1367 344.53C96.6192 346.056 97.2463 347.371 97.7597 348.286C98.2732 349.204 98.6465 349.739 98.6152 349.761C98.6027 349.771 98.4984 349.645 98.3203 349.408C98.1397 349.173 97.8999 348.817 97.6237 348.365C97.0706 347.463 96.4128 346.142 95.9248 344.596C95.4408 343.048 95.2252 341.589 95.1627 340.532C95.1305 340.003 95.1239 339.575 95.1376 339.279C95.1489 338.983 95.1618 338.82 95.1773 338.82Z" fill="#D4DFF4"/>
<path d="M96.8115 336.663C96.8474 336.673 96.7406 337.051 96.7119 337.671C96.678 338.29 96.7581 339.152 97.0247 340.064C97.5899 341.879 98.3783 343.245 98.2911 343.284C98.2649 343.297 98.0608 342.965 97.7651 342.407C97.4732 341.85 97.0844 341.059 96.8111 340.125C96.5375 339.191 96.4791 338.293 96.555 337.659C96.6259 337.021 96.789 336.655 96.8115 336.663Z" fill="#D4DFF4"/>
<path d="M94.5774 350.87C94.6349 350.834 95.3441 351.98 96.4691 353.185C97.5857 354.4 98.6745 355.194 98.6332 355.25C98.6172 355.272 98.3236 355.103 97.8861 354.774C97.4493 354.447 96.8741 353.95 96.3056 353.337C95.7379 352.723 95.2874 352.112 94.9937 351.652C94.6992 351.19 94.5528 350.885 94.5774 350.87Z" fill="#D4DFF4"/>
<path d="M103.013 351.657C103.037 351.673 102.862 352.013 102.531 352.535C102.201 353.056 101.708 353.754 101.105 354.48C100.502 355.205 99.9054 355.817 99.4528 356.237C99.0002 356.658 98.6978 356.892 98.6786 356.87C98.6561 356.846 98.9205 356.571 99.3419 356.126C99.7631 355.68 100.336 355.056 100.934 354.337C101.531 353.618 102.04 352.942 102.401 352.447C102.764 351.951 102.985 351.641 103.013 351.657Z" fill="#D4DFF4"/>
<path d="M122.435 341.076C122.377 341.095 120.423 335.232 118.07 327.984C115.718 320.734 113.859 314.843 113.916 314.824C113.975 314.804 115.929 320.665 118.282 327.916C120.634 335.164 122.493 341.056 122.435 341.076Z" fill="#D4DFF4"/>
<path d="M119.321 319.352C119.335 319.345 119.417 319.508 119.554 319.809C119.694 320.108 119.866 320.555 120.049 321.118C120.417 322.24 120.764 323.856 120.804 325.666C120.838 327.477 120.558 329.107 120.237 330.244C120.078 330.813 119.924 331.267 119.796 331.572C119.671 331.877 119.596 332.043 119.582 332.037C119.543 332.023 119.808 331.343 120.085 330.204C120.365 329.067 120.615 327.458 120.582 325.67C120.542 323.883 120.225 322.287 119.898 321.163C119.575 320.038 119.282 319.367 119.321 319.352Z" fill="#D4DFF4"/>
<path d="M111.46 323.262C111.496 323.246 111.771 323.826 112.315 324.701C112.857 325.575 113.699 326.731 114.808 327.843C115.922 328.953 117.078 329.793 117.954 330.335C118.83 330.877 119.408 331.153 119.392 331.188C119.386 331.202 119.235 331.144 118.969 331.029C118.701 330.916 118.326 330.727 117.874 330.469C116.968 329.958 115.78 329.126 114.651 328.001C113.527 326.873 112.693 325.686 112.18 324.781C111.923 324.329 111.733 323.953 111.619 323.686C111.504 323.419 111.446 323.269 111.46 323.262Z" fill="#D4DFF4"/>
<path d="M116.989 316.336C117.004 316.331 117.063 316.46 117.158 316.701C117.254 316.94 117.375 317.294 117.505 317.738C117.767 318.622 118.035 319.877 118.141 321.285C118.243 322.694 118.162 323.974 118.033 324.889C117.969 325.347 117.902 325.713 117.842 325.965C117.783 326.215 117.744 326.353 117.729 326.35C117.692 326.342 117.789 325.783 117.877 324.871C117.965 323.96 118.02 322.694 117.919 321.301C117.815 319.91 117.575 318.666 117.354 317.778C117.134 316.889 116.955 316.348 116.989 316.336Z" fill="#D4DFF4"/>
<path d="M111.981 319.028C112.019 319.017 112.204 319.644 112.601 320.617C112.996 321.589 113.631 322.9 114.524 324.23C115.42 325.557 116.395 326.639 117.147 327.37C117.899 328.104 118.41 328.512 118.386 328.541C118.377 328.553 118.241 328.462 118.003 328.286C117.763 328.112 117.432 327.84 117.039 327.485C116.252 326.776 115.246 325.697 114.339 324.354C113.436 323.008 112.814 321.669 112.455 320.674C112.273 320.176 112.145 319.767 112.074 319.479C112 319.193 111.967 319.032 111.981 319.028Z" fill="#D4DFF4"/>
<path d="M112.935 316.497C112.973 316.495 112.978 316.887 113.126 317.49C113.269 318.095 113.592 318.896 114.106 319.695C115.164 321.274 116.307 322.361 116.236 322.422C116.213 322.444 115.924 322.183 115.482 321.732C115.044 321.28 114.446 320.633 113.919 319.815C113.391 318.997 113.08 318.153 112.972 317.523C112.859 316.893 112.912 316.493 112.935 316.497Z" fill="#D4DFF4"/>
<path d="M114.829 330.751C114.874 330.7 115.88 331.597 117.301 332.435C118.717 333.281 119.986 333.732 119.963 333.799C119.954 333.824 119.624 333.746 119.111 333.554C118.599 333.364 117.907 333.052 117.187 332.626C116.47 332.2 115.863 331.742 115.451 331.383C115.038 331.024 114.81 330.773 114.829 330.751Z" fill="#D4DFF4"/>
<path d="M123.142 329.11C123.168 329.117 123.098 329.492 122.929 330.087C122.76 330.681 122.486 331.492 122.114 332.358C121.742 333.224 121.343 333.981 121.029 334.512C120.715 335.044 120.491 335.354 120.467 335.339C120.439 335.322 120.614 334.984 120.892 334.436C121.168 333.889 121.541 333.129 121.91 332.269C122.278 331.41 122.573 330.617 122.78 330.039C122.986 329.461 123.109 329.1 123.142 329.11Z" fill="#D4DFF4"/>
<path d="M49.4914 349.652C49.433 349.673 47.4783 343.811 45.1269 336.563C42.7735 329.312 40.9144 323.421 40.9728 323.401C41.0312 323.382 42.9855 329.243 45.338 336.493C47.6902 343.742 49.5497 349.634 49.4914 349.652Z" fill="#D4DFF4"/>
<path d="M46.3767 327.929C46.3908 327.924 46.473 328.087 46.6098 328.387C46.7504 328.687 46.9231 329.133 47.1054 329.695C47.4737 330.819 47.8199 332.434 47.8599 334.245C47.8945 336.056 47.6151 337.684 47.2931 338.822C47.1341 339.39 46.9802 339.844 46.8518 340.149C46.7275 340.455 46.6524 340.62 46.6378 340.615C46.5993 340.601 46.8634 339.92 47.1408 338.783C47.4212 337.645 47.6718 336.036 47.6376 334.249C47.5976 332.462 47.2814 330.866 46.9548 329.741C46.6306 328.614 46.3387 327.946 46.3767 327.929Z" fill="#D4DFF4"/>
<path d="M38.5163 331.841C38.5517 331.824 38.827 332.403 39.3714 333.278C39.9132 334.154 40.7546 335.31 41.8642 336.422C42.9778 337.53 44.1342 338.371 45.0102 338.913C45.8853 339.456 46.4651 339.731 46.448 339.766C46.4417 339.78 46.292 339.723 46.0258 339.607C45.7577 339.495 45.3814 339.304 44.9292 339.047C44.0244 338.536 42.8356 337.704 41.7073 336.579C40.5824 335.452 39.7485 334.263 39.2362 333.359C38.9789 332.908 38.7891 332.531 38.676 332.263C38.5596 331.997 38.5021 331.847 38.5163 331.841Z" fill="#D4DFF4"/>
<path d="M44.0454 324.913C44.0599 324.909 44.1187 325.039 44.2139 325.278C44.3106 325.518 44.4312 325.872 44.5617 326.315C44.8233 327.2 45.0919 328.455 45.1971 329.863C45.3001 331.272 45.2187 332.553 45.0894 333.466C45.0251 333.924 44.9584 334.292 44.8971 334.542C44.8391 334.793 44.7991 334.931 44.784 334.928C44.7486 334.92 44.8458 334.36 44.9325 333.449C45.021 332.537 45.0769 331.272 44.9755 329.88C44.8713 328.488 44.6301 327.244 44.4095 326.355C44.1892 325.466 44.0111 324.926 44.0454 324.913Z" fill="#D4DFF4"/>
<path d="M39.0377 327.606C39.0744 327.595 39.2604 328.222 39.6567 329.194C40.0513 330.167 40.687 331.478 41.5797 332.807C42.476 334.134 43.4504 335.217 44.2034 335.948C44.9559 336.681 45.4656 337.089 45.4423 337.119C45.4327 337.131 45.2971 337.04 45.0589 336.864C44.8191 336.691 44.4887 336.418 44.0953 336.063C43.3086 335.355 42.3021 334.275 41.3948 332.931C40.4918 331.585 39.8703 330.247 39.5103 329.252C39.3292 328.754 39.2007 328.345 39.1298 328.058C39.0565 327.77 39.023 327.61 39.0377 327.606Z" fill="#D4DFF4"/>
<path d="M39.9921 325.074C40.0288 325.073 40.0338 325.465 40.1828 326.068C40.3258 326.671 40.6478 327.475 41.1622 328.274C42.22 329.852 43.3638 330.939 43.2916 331.001C43.2699 331.021 42.9796 330.761 42.5378 330.31C42.0995 329.857 41.5025 329.212 40.9749 328.393C40.4468 327.576 40.136 326.73 40.0288 326.102C39.9158 325.471 39.9679 325.072 39.9921 325.074Z" fill="#D4DFF4"/>
<path d="M41.8859 339.329C41.9309 339.279 42.9362 340.175 44.3573 341.013C45.7735 341.86 47.0424 342.31 47.019 342.375C47.0103 342.402 46.6807 342.323 46.1677 342.132C45.6555 341.943 44.9634 341.631 44.2439 341.204C43.5251 340.778 42.9196 340.319 42.5074 339.96C42.0936 339.602 41.8662 339.35 41.8859 339.329Z" fill="#D4DFF4"/>
<path d="M50.1976 337.688C50.2251 337.695 50.1542 338.071 49.9853 338.665C49.8162 339.259 49.5422 340.068 49.1702 340.935C48.7981 341.802 48.3997 342.559 48.0853 343.09C47.7707 343.622 47.5471 343.932 47.5225 343.917C47.4945 343.901 47.6702 343.562 47.9472 343.015C48.2245 342.467 48.5967 341.707 48.9658 340.847C49.3345 339.989 49.6298 339.195 49.8355 338.617C50.0416 338.039 50.1659 337.678 50.1976 337.688Z" fill="#D4DFF4"/>
<path d="M80.5352 328.541C80.4735 328.538 80.7296 322.365 81.1067 314.753C81.4838 307.14 81.8391 300.972 81.9008 300.975C81.9618 300.978 81.7056 307.15 81.3286 314.764C80.952 322.375 80.5966 328.545 80.5352 328.541Z" fill="#D4DFF4"/>
<path d="M85.3426 307.128C85.358 307.128 85.3768 307.31 85.3977 307.639C85.4235 307.969 85.4256 308.448 85.3964 309.038C85.3413 310.219 85.091 311.852 84.4854 313.558C83.8743 315.264 83.0338 316.687 82.3292 317.635C81.978 318.11 81.6736 318.48 81.445 318.72C81.2198 318.961 81.0904 319.089 81.0795 319.078C81.0483 319.052 81.5367 318.51 82.2012 317.545C82.8665 316.582 83.6724 315.166 84.2756 313.483C84.8737 311.799 85.1448 310.194 85.24 309.027C85.3363 307.86 85.3013 307.131 85.3426 307.128Z" fill="#D4DFF4"/>
<path d="M76.6058 307.99C76.6443 307.987 76.6964 308.626 76.8942 309.638C77.0898 310.649 77.4656 312.029 78.1076 313.462C78.7541 314.894 79.5362 316.092 80.1627 316.909C80.7881 317.728 81.2319 318.191 81.2035 318.218C81.1927 318.229 81.0733 318.122 80.8652 317.919C80.6546 317.719 80.3704 317.407 80.0393 317.006C79.3752 316.206 78.5601 315.005 77.9049 313.554C77.2541 312.099 76.8966 310.694 76.7393 309.665C76.6589 309.151 76.615 308.733 76.6047 308.441C76.5909 308.152 76.5909 307.991 76.6058 307.99Z" fill="#D4DFF4"/>
<path d="M84.2352 303.482C84.2501 303.482 84.2597 303.624 84.2627 303.883C84.2685 304.14 84.2556 304.514 84.2193 304.974C84.1501 305.895 83.9553 307.162 83.5531 308.517C83.1485 309.869 82.6171 311.039 82.172 311.846C81.9497 312.251 81.7562 312.571 81.6102 312.784C81.4662 312.998 81.3803 313.112 81.3674 313.104C81.3365 313.085 81.6264 312.595 82.0323 311.774C82.4382 310.954 82.94 309.79 83.34 308.453C83.7371 307.114 83.954 305.867 84.0629 304.958C84.173 304.049 84.1984 303.481 84.2352 303.482Z" fill="#D4DFF4"/>
<path d="M78.5977 304.217C78.6356 304.22 78.5872 304.873 78.6119 305.922C78.6352 306.971 78.7641 308.423 79.1258 309.982C79.492 311.543 80.0185 312.899 80.4623 313.851C80.9048 314.804 81.2365 315.367 81.2035 315.386C81.1905 315.394 81.0963 315.26 80.9365 315.012C80.7739 314.763 80.5619 314.391 80.3205 313.919C79.8365 312.979 79.2797 311.611 78.9093 310.034C78.543 308.454 78.4375 306.982 78.4546 305.924C78.4621 305.394 78.4876 304.967 78.5242 304.672C78.5568 304.378 78.5827 304.216 78.5977 304.217Z" fill="#D4DFF4"/>
<path d="M80.3892 302.19C80.4243 302.202 80.2896 302.57 80.2141 303.187C80.1336 303.803 80.149 304.667 80.3463 305.596C80.7739 307.449 81.4571 308.871 81.3674 308.903C81.3403 308.914 81.1614 308.568 80.9085 307.989C80.6599 307.412 80.3308 306.594 80.1286 305.642C79.9258 304.69 79.935 303.79 80.0585 303.163C80.1769 302.533 80.3671 302.18 80.3892 302.19Z" fill="#D4DFF4"/>
<path d="M77.094 316.188C77.1548 316.156 77.7756 317.352 78.8062 318.639C79.829 319.934 80.8548 320.809 80.8102 320.86C80.7922 320.882 80.5119 320.691 80.1002 320.33C79.6889 319.97 79.1533 319.432 78.6327 318.778C78.1121 318.123 77.7092 317.48 77.4506 316.998C77.192 316.517 77.0689 316.201 77.094 316.188Z" fill="#D4DFF4"/>
<path d="M85.4465 317.608C85.4698 317.625 85.27 317.951 84.9008 318.446C84.5321 318.942 83.9877 319.6 83.3325 320.278C82.6763 320.956 82.0352 321.522 81.553 321.907C81.0699 322.291 80.7509 322.503 80.7333 322.479C80.7128 322.454 80.997 322.2 81.4508 321.788C81.9042 321.373 82.5224 320.796 83.173 320.124C83.8222 319.451 84.3798 318.814 84.7782 318.348C85.1761 317.881 85.4201 317.588 85.4465 317.608Z" fill="#D4DFF4"/>
<path d="M93.4165 273.083C93.2663 273.083 93.1158 273.08 92.9656 273.074C92.9072 272.954 92.8459 272.825 92.7825 272.688C92.3762 271.816 91.8998 270.604 91.5416 269.207C91.5937 269.208 91.6466 269.208 91.6996 269.208C91.8569 269.208 92.0191 269.206 92.1847 269.203H92.1873C92.4462 269.223 92.73 269.234 93.0307 269.234C93.2296 269.234 93.437 269.229 93.6493 269.22C93.5854 270.441 93.5191 271.737 93.4524 273.083C93.4403 273.083 93.4282 273.083 93.4165 273.083Z" fill="#0848A8"/>
<path d="M93.0307 269.234C92.73 269.234 92.4463 269.223 92.1873 269.203H92.1848C92.6528 269.192 93.1504 269.165 93.6543 269.123C93.6526 269.155 93.651 269.187 93.6493 269.22C93.437 269.229 93.2296 269.234 93.0307 269.234Z" fill="#0848A8"/>
<path d="M93.6747 273.08C93.6943 272.683 93.7136 272.288 93.7322 271.9C93.7736 271.849 93.8407 271.754 93.9309 271.621C94.0768 271.408 94.2696 271.088 94.4919 270.683C94.7355 270.241 95.0049 269.691 95.2657 269.062C96.0202 268.948 96.7848 268.777 97.4902 268.537C97.3563 269.613 97.0856 270.94 96.5963 272.32C96.5704 272.393 96.5441 272.465 96.5174 272.535C96.059 272.717 95.583 272.851 95.1038 272.938C94.6296 273.023 94.1528 273.068 93.6747 273.08Z" fill="#0848A8"/>
<path d="M95.2657 269.062C95.2857 269.013 95.3062 268.963 95.3266 268.912C96.1517 268.772 96.9196 268.578 97.5152 268.324C97.5077 268.393 97.4994 268.465 97.4902 268.537C96.7848 268.777 96.0202 268.948 95.2657 269.062Z" fill="#0848A8"/>
<path d="M92.8025 273.066C92.083 273.026 91.3639 272.922 90.651 272.773C90.5751 272.618 90.5005 272.46 90.4278 272.299C89.8961 271.111 89.5469 269.96 89.3316 269.025C89.6236 269.065 89.9198 269.102 90.2217 269.138C90.5254 269.173 90.8963 269.195 91.3113 269.204C91.6788 270.641 92.1915 271.881 92.6407 272.756C92.6962 272.865 92.7504 272.969 92.8025 273.066ZM90.3757 272.715C89.6954 272.563 89.0213 272.374 88.3593 272.17C83.7604 270.755 79.4036 268.556 75.5289 265.703C76.3835 265.882 77.4244 266.015 78.4892 266.322C78.8301 266.442 79.1679 266.558 79.5041 266.672C82.5608 267.707 85.4891 268.5 89.1464 269.001C89.3333 269.963 89.6741 271.159 90.2252 272.391C90.2743 272.5 90.3248 272.608 90.3757 272.715Z" fill="#0848A8"/>
<path d="M79.5041 266.672H79.5045H79.5041ZM78.4892 266.322C77.4243 266.015 76.3835 265.882 75.5289 265.703C75.1342 265.413 74.7455 265.116 74.3613 264.812C75.8213 265.355 77.1753 265.86 78.4892 266.322Z" fill="#0848A8"/>
<path d="M96.7977 272.418C96.8003 272.41 96.8032 272.403 96.8057 272.395C97.315 270.961 97.5728 269.578 97.675 268.472C98.4813 268.181 99.1984 267.796 99.7156 267.308C99.7419 267.317 99.7682 267.327 99.7944 267.34C100.307 267.581 100.324 268.307 100.166 268.85C99.6927 270.481 98.3691 271.722 96.7977 272.418Z" fill="#0848A8"/>
<path d="M97.675 268.472C97.6821 268.394 97.6883 268.317 97.6942 268.242C97.8881 268.15 98.0601 268.049 98.2052 267.941C98.5931 267.651 99.0391 267.269 99.4816 267.269C99.5601 267.269 99.638 267.281 99.7156 267.308C99.1984 267.796 98.4813 268.18 97.675 268.472Z" fill="#0848A8"/>
<path d="M93.7369 271.809C93.7803 270.912 93.822 270.042 93.8607 269.209C94.2383 269.187 94.6308 269.149 95.0283 269.096C94.7955 269.677 94.5616 270.19 94.3526 270.61C94.0648 271.194 93.8349 271.609 93.7369 271.809Z" fill="#0848A8"/>
<path d="M93.8607 269.209C93.8624 269.174 93.8641 269.139 93.8657 269.103C94.2745 269.064 94.6854 269.014 95.085 268.952C95.0662 269.001 95.0471 269.049 95.0283 269.096C94.6307 269.149 94.2383 269.187 93.8607 269.209Z" fill="#0848A8"/>
<path d="M93.4524 273.083C93.5191 271.737 93.5854 270.441 93.6493 269.22C93.651 269.187 93.6526 269.155 93.6543 269.123C93.7248 269.116 93.7953 269.11 93.8658 269.103C93.8642 269.139 93.8624 269.174 93.8607 269.209C93.822 270.042 93.7803 270.912 93.7369 271.809C93.6968 271.89 93.6789 271.935 93.6876 271.941C93.6881 271.941 93.6885 271.941 93.6893 271.941C93.6956 271.941 93.7102 271.927 93.7323 271.9C93.7136 272.288 93.6944 272.683 93.6747 273.08C93.6009 273.082 93.5263 273.083 93.4524 273.083Z" fill="#8F9192"/>
<path d="M96.5175 272.535C96.5442 272.465 96.5704 272.393 96.5964 272.32C97.0857 270.94 97.3564 269.613 97.4903 268.537C97.4994 268.465 97.5078 268.393 97.5153 268.324C97.577 268.297 97.6367 268.27 97.6942 268.242C97.6884 268.317 97.6822 268.394 97.675 268.472C97.5728 269.578 97.315 270.961 96.8058 272.395C96.8032 272.403 96.8003 272.41 96.7978 272.418C96.7052 272.459 96.6117 272.498 96.5175 272.535Z" fill="#8F9192"/>
<path d="M90.651 272.773C90.5592 272.754 90.4675 272.735 90.3757 272.715C90.3248 272.608 90.2743 272.5 90.2252 272.391C89.674 271.159 89.3333 269.963 89.1464 269.001C89.2077 269.009 89.2699 269.018 89.3316 269.025C89.5469 269.96 89.8961 271.111 90.4278 272.299C90.5005 272.46 90.5751 272.618 90.651 272.773Z" fill="#8F9192"/>
<path d="M93.6894 271.941C93.6885 271.941 93.6881 271.941 93.6877 271.941C93.6789 271.935 93.6968 271.89 93.7369 271.809C93.8349 271.609 94.0648 271.194 94.3526 270.61C94.5616 270.19 94.7956 269.677 95.0283 269.096C95.0471 269.049 95.0663 269.001 95.085 268.952C95.1664 268.939 95.2465 268.926 95.3266 268.912C95.3062 268.963 95.2857 269.013 95.2657 269.062C95.005 269.691 94.7355 270.241 94.492 270.683C94.2696 271.088 94.0769 271.408 93.9309 271.621C93.8408 271.754 93.7736 271.849 93.7323 271.9C93.7102 271.927 93.6957 271.941 93.6894 271.941Z" fill="#8F9192"/>
<path d="M92.9657 273.074C92.9115 273.072 92.8568 273.069 92.8025 273.066C92.7504 272.969 92.6962 272.865 92.6407 272.756C92.1915 271.881 91.6788 270.641 91.3113 269.204C91.3868 269.206 91.4636 269.207 91.5416 269.207C91.8999 270.604 92.3762 271.816 92.7826 272.688C92.846 272.825 92.9073 272.954 92.9657 273.074Z" fill="#8F9192"/>
<path d="M74.3618 264.812C74.3466 264.806 74.3311 264.8 74.3159 264.795L74.3071 264.769C74.3252 264.783 74.3433 264.798 74.3618 264.812Z" fill="#0848A8"/>
<path d="M114.437 308.108C114.456 308.102 114.516 308.282 114.615 308.628C114.704 308.976 114.871 309.485 115 310.158C115.303 311.493 115.613 313.461 115.714 315.913C115.944 320.783 115.01 327.769 111.361 334.385C107.707 341.001 102.293 345.514 98.0491 347.913C95.9202 349.134 94.0902 349.92 92.7992 350.376C92.1613 350.624 91.6433 350.754 91.3009 350.862C90.955 350.964 90.7711 351.009 90.7652 350.99C90.7506 350.945 91.4622 350.691 92.7208 350.174C93.9797 349.66 95.7687 348.826 97.8485 347.574C101.998 345.113 107.28 340.622 110.874 334.117C114.463 327.609 115.449 320.746 115.321 315.923C115.271 313.496 115.025 311.537 114.788 310.198C114.555 308.858 114.39 308.12 114.437 308.108Z" fill="#17282F"/>
<path d="M100.38 343.963C100.295 343.963 100.212 343.959 100.129 343.955C100.242 343.568 100.348 343.159 100.441 342.735C100.741 341.354 100.84 340.075 100.841 339.152C100.841 338.69 100.826 338.316 100.801 338.06C100.778 337.804 100.758 337.663 100.744 337.663C100.743 337.663 100.743 337.663 100.743 337.663C100.707 337.664 100.725 338.233 100.683 339.148C100.642 340.062 100.52 341.323 100.224 342.687C100.129 343.122 100.022 343.54 99.91 343.935C99.4023 343.873 98.9293 343.702 98.5351 343.383C98.4726 341.256 98.4133 339.421 98.3629 338.042C99.2709 335.874 100.698 333.925 102.495 332.409C104.785 330.478 107.615 329.274 109.915 327.356C110.785 326.63 111.566 325.802 112.246 324.897C112.617 325.535 113.139 326.3 113.802 327.079C113.117 329.397 112.163 331.779 110.874 334.117C108.972 337.56 106.596 340.439 104.167 342.752C103.725 342.995 103.268 343.217 102.799 343.416C102.645 343.481 102.486 343.542 102.324 343.598C102.325 343.431 102.323 343.269 102.319 343.116C102.303 342.526 102.265 342.048 102.215 341.722C102.17 341.396 102.137 341.217 102.122 341.217C102.122 341.217 102.122 341.217 102.122 341.217C102.081 341.221 102.17 341.946 102.162 343.117C102.161 343.288 102.157 343.468 102.149 343.657C101.574 343.843 100.964 343.963 100.38 343.963ZM98.3286 343.195C98.3203 343.186 98.3124 343.178 98.3045 343.169C98.2844 343.148 98.2649 343.126 98.2461 343.105C98.1447 342.859 97.9074 342.373 97.6383 341.731C97.5119 340.893 97.6859 339.956 97.9553 339.135C98.0417 338.873 98.1347 338.614 98.2352 338.356C98.2557 339.652 98.2874 341.304 98.3286 343.195ZM113.875 326.83C113.237 326.082 112.726 325.356 112.35 324.757C112.772 324.183 113.153 323.58 113.491 322.954C113.74 323.41 114.022 323.881 114.339 324.354C114.38 324.413 114.419 324.472 114.46 324.531C114.293 325.287 114.099 326.055 113.875 326.83ZM114.525 324.231L114.524 324.23C114.182 323.72 113.878 323.214 113.611 322.729C113.96 322.055 114.261 321.354 114.51 320.638C114.688 320.862 114.866 321.068 115.033 321.254C114.908 322.216 114.742 323.213 114.525 324.231ZM115.066 320.994C114.915 320.807 114.756 320.603 114.594 320.385C114.786 319.801 114.942 319.206 115.062 318.604C115.12 318.79 115.181 318.981 115.243 319.176C115.2 319.766 115.142 320.373 115.066 320.994ZM115.271 318.741C115.22 318.586 115.17 318.436 115.121 318.29C115.228 317.688 115.298 317.079 115.33 316.467C115.337 317.187 115.318 317.946 115.271 318.741Z" fill="#2477F4"/>
<path d="M98.5351 343.383C98.4638 343.325 98.3945 343.262 98.3286 343.195C98.2874 341.304 98.2557 339.652 98.2352 338.356C98.2769 338.251 98.319 338.147 98.3629 338.042C98.4133 339.421 98.4726 341.256 98.5351 343.383Z" fill="#CA9B24"/>
<path d="M102.149 343.657C102.157 343.468 102.161 343.288 102.162 343.117C102.17 341.946 102.081 341.221 102.122 341.217C102.122 341.217 102.122 341.217 102.122 341.217C102.137 341.217 102.17 341.396 102.215 341.722C102.265 342.048 102.303 342.526 102.319 343.116C102.323 343.269 102.325 343.431 102.324 343.598C102.266 343.619 102.207 343.639 102.149 343.657Z" fill="#CA9B24"/>
<path d="M100.129 343.955C100.055 343.95 99.9822 343.943 99.91 343.935C100.022 343.54 100.129 343.122 100.224 342.687C100.52 341.323 100.642 340.062 100.683 339.148C100.725 338.233 100.707 337.664 100.743 337.663C100.743 337.663 100.743 337.663 100.744 337.663C100.758 337.663 100.778 337.804 100.801 338.06C100.826 338.316 100.841 338.69 100.841 339.152C100.84 340.075 100.741 341.354 100.441 342.735C100.348 343.159 100.242 343.568 100.129 343.955Z" fill="#CA9B24"/>
<path d="M98.2461 343.105C97.9023 342.715 97.715 342.241 97.6382 341.731C97.9073 342.373 98.1447 342.859 98.2461 343.105Z" fill="#CA9B24"/>
<path d="M115.243 319.176C115.181 318.981 115.12 318.79 115.062 318.604C115.082 318.501 115.103 318.395 115.121 318.29C115.17 318.436 115.22 318.586 115.271 318.741C115.263 318.885 115.253 319.03 115.243 319.176Z" fill="#CA9B24"/>
<path d="M113.802 327.079C113.139 326.3 112.617 325.535 112.246 324.897C112.282 324.85 112.316 324.804 112.35 324.757C112.726 325.356 113.237 326.082 113.875 326.83C113.851 326.913 113.827 326.997 113.802 327.079Z" fill="#CA9B24"/>
<path d="M114.46 324.531C114.419 324.472 114.38 324.413 114.339 324.354C114.022 323.881 113.74 323.41 113.491 322.954C113.532 322.88 113.571 322.804 113.611 322.729C113.878 323.214 114.182 323.72 114.524 324.23L114.525 324.231C114.504 324.331 114.482 324.43 114.46 324.531Z" fill="#CA9B24"/>
<path d="M115.033 321.254C114.866 321.068 114.688 320.862 114.51 320.638C114.539 320.553 114.567 320.47 114.594 320.385C114.756 320.603 114.915 320.807 115.066 320.994C115.056 321.08 115.044 321.167 115.033 321.254Z" fill="#CA9B24"/>
<path d="M106.289 341.346C108.137 339.367 109.891 337.046 111.361 334.385C112.54 332.248 113.436 330.071 114.1 327.939C113.782 329.302 113.388 330.645 112.893 331.958C111.531 335.576 109.302 338.989 106.289 341.346Z" fill="#2477F4"/>
<path d="M104.167 342.752C106.596 340.439 108.972 337.56 110.874 334.117C112.163 331.779 113.117 329.397 113.802 327.079C113.827 326.997 113.851 326.913 113.875 326.83C114.099 326.055 114.293 325.287 114.46 324.531C114.482 324.43 114.504 324.331 114.525 324.231C114.742 323.213 114.908 322.216 115.033 321.254C115.044 321.167 115.056 321.08 115.066 320.994C115.142 320.373 115.2 319.766 115.243 319.176C115.253 319.03 115.263 318.885 115.271 318.741C115.318 317.946 115.337 317.187 115.33 316.467C115.354 316.023 115.356 315.577 115.339 315.131L115.506 316.54C115.273 320.361 114.969 324.223 114.1 327.939C113.436 330.071 112.54 332.248 111.361 334.385C109.891 337.046 108.137 339.367 106.289 341.346C105.62 341.869 104.912 342.341 104.167 342.752Z" fill="#111D23"/>
<path d="M142.355 311.179C142.238 311.243 141.085 308.378 141.143 304.635C141.171 300.889 142.392 298.054 142.508 298.119C142.677 298.168 141.723 301.007 141.7 304.642C141.639 308.274 142.526 311.135 142.355 311.179Z" fill="#17282F"/>
<path d="M145.584 309.88C145.487 309.973 143.723 307.638 142.954 304.184C142.155 300.736 142.736 297.867 142.864 297.91C143.039 297.921 142.72 300.728 143.497 304.061C144.236 307.4 145.737 309.794 145.584 309.88Z" fill="#17282F"/>
<path d="M198.38 279.707C198.34 279.749 198.058 279.46 197.467 279.175C196.889 278.897 195.938 278.65 194.914 278.942L194.433 279.078L194.676 278.637C194.992 278.061 195.231 277.37 195.342 276.621C195.586 275.017 195.194 273.534 194.718 272.589C194.258 271.621 193.753 271.149 193.816 271.092C193.837 271.059 194.436 271.458 194.998 272.439C195.573 273.392 196.049 274.968 195.785 276.689C195.668 277.491 195.397 278.233 195.039 278.844L194.802 278.539C195.975 278.243 197.004 278.588 197.588 278.951C198.188 279.324 198.409 279.686 198.38 279.707Z" fill="#B85549"/>
<path d="M205.548 275.047C206.539 272.612 216.497 268.318 215.192 266.792C213.49 264.804 204.999 271.744 204.239 272.277C203.5 272.795 202.71 271.708 203.422 271.265C204.444 270.626 215.025 263.653 213.372 261.683C212.457 260.592 210.681 262.477 210.681 262.477C210.681 262.477 201.244 269.745 200.494 268.788C199.733 267.817 205.136 263.36 207.06 261.988C208.961 260.632 209.113 259.16 207.836 258.801C206.964 258.556 200.976 262.616 199.103 264.018C197.231 265.419 192.161 269.359 193.138 265.347C194.114 261.335 193.392 257.888 192.563 257.101C191.734 256.314 190.352 257.22 190.583 258.476C190.771 259.492 190.57 261.288 190.365 262.633C190.196 263.74 189.743 264.766 189.331 265.805C188.892 266.914 187.614 269.431 184.665 271.631L195.184 284.017L196.532 283.104C201.728 279.572 206.612 278.213 209.428 276.587C214.669 273.563 214.416 273.08 213.974 272.518C212.785 271.008 204.561 277.482 205.548 275.047Z" fill="#C0776A"/>
<path d="M208.963 270.967L210.532 262.76C210.532 262.76 215.098 262.685 214.75 266.372C214.402 270.059 208.963 270.967 208.963 270.967ZM191.294 255.458L194.697 277.571L208.031 277.352L208.65 273.222C208.65 273.222 216.201 273.195 216.782 266.81C217.364 260.424 210.89 260.334 210.89 260.334L211.873 254.56L191.294 255.458Z" fill="#7C8EB5"/>
<path d="M201.258 225.694C201.272 225.68 201.354 225.748 201.5 225.892C201.645 226.038 201.833 226.281 202.016 226.632C202.381 227.331 202.597 228.515 202.338 229.898C202.135 231.3 201.351 232.806 200.587 234.418C200.213 235.231 199.858 236.1 199.679 237.032C199.497 237.961 199.553 238.949 199.908 239.886C200.626 241.781 202.095 243.181 203.286 244.54C204.496 245.892 205.475 247.327 205.739 248.746C206.024 250.144 205.714 251.329 205.304 251.999C205.106 252.342 204.887 252.562 204.736 252.7C204.574 252.828 204.485 252.888 204.473 252.873C204.43 252.831 204.791 252.571 205.113 251.895C205.44 251.237 205.667 250.127 205.355 248.83C205.066 247.533 204.118 246.195 202.904 244.882C201.716 243.557 200.174 242.139 199.386 240.078C198.996 239.057 198.937 237.93 199.144 236.929C199.346 235.923 199.731 235.023 200.124 234.201C200.931 232.561 201.71 231.153 201.952 229.823C202.247 228.512 202.102 227.406 201.819 226.722C201.53 226.033 201.215 225.729 201.258 225.694Z" fill="#17282F"/>
<path d="M197.717 225.752C197.731 225.739 197.813 225.806 197.96 225.95C198.104 226.097 198.293 226.339 198.476 226.689C198.841 227.39 199.057 228.574 198.797 229.957C198.596 231.359 197.81 232.864 197.047 234.476C196.672 235.29 196.318 236.159 196.138 237.091C195.957 238.02 196.012 239.008 196.367 239.944C197.085 241.839 198.555 243.238 199.746 244.599C200.955 245.95 201.935 247.385 202.198 248.804C202.482 250.201 202.173 251.387 201.764 252.056C201.565 252.401 201.347 252.621 201.196 252.757C201.033 252.887 200.945 252.945 200.932 252.931C200.889 252.889 201.251 252.63 201.573 251.954C201.899 251.296 202.127 250.184 201.814 248.889C201.525 247.592 200.577 246.253 199.363 244.94C198.176 243.615 196.634 242.198 195.846 240.136C195.455 239.115 195.396 237.989 195.603 236.988C195.805 235.982 196.19 235.081 196.583 234.258C197.391 232.619 198.171 231.212 198.411 229.882C198.706 228.57 198.561 227.465 198.278 226.778C197.989 226.091 197.675 225.788 197.717 225.752Z" fill="#17282F"/>
<path d="M192.6 264.542C192.574 264.537 192.632 264.22 193.053 263.876C193.467 263.544 194.273 263.274 195.219 263.516C196.167 263.762 197.038 264.525 197.89 265.333C198.73 266.112 199.79 267.006 201.06 266.834C202.319 266.667 203.376 265.792 204.49 265.301C205.047 265.046 205.632 264.869 206.203 264.846C206.772 264.836 207.293 264.961 207.726 265.156C208.596 265.551 209.113 266.161 209.359 266.614C209.61 267.073 209.64 267.364 209.613 267.372C209.568 267.388 209.467 267.125 209.178 266.732C208.894 266.342 208.373 265.83 207.575 265.519C207.178 265.366 206.713 265.281 206.224 265.307C205.738 265.346 205.224 265.513 204.708 265.764C203.668 266.235 202.631 267.166 201.123 267.387C200.374 267.485 199.62 267.264 199.039 266.911C198.446 266.561 197.969 266.121 197.538 265.706C196.696 264.867 195.92 264.153 195.109 263.893C194.303 263.638 193.573 263.813 193.176 264.054C192.768 264.302 192.641 264.568 192.6 264.542Z" fill="#FAFAF9"/>
<path d="M192.112 261.696C192.088 261.692 192.151 261.355 192.6 260.993C193.038 260.643 193.894 260.359 194.895 260.616C195.899 260.879 196.823 261.69 197.728 262.55C198.622 263.377 199.754 264.335 201.115 264.153C202.461 263.972 203.586 263.04 204.768 262.517C205.36 262.245 205.978 262.058 206.584 262.034C207.187 262.023 207.74 262.155 208.198 262.36C209.12 262.778 209.671 263.424 209.935 263.903C210.203 264.39 210.237 264.7 210.209 264.706C210.165 264.723 210.06 264.441 209.753 264.021C209.452 263.606 208.899 263.056 208.047 262.724C207.624 262.56 207.128 262.467 206.605 262.495C206.084 262.535 205.535 262.714 204.987 262.981C203.877 263.483 202.773 264.471 201.178 264.704C200.384 264.809 199.588 264.575 198.97 264.2C198.342 263.83 197.835 263.363 197.377 262.921C196.481 262.029 195.653 261.268 194.785 260.994C193.924 260.723 193.145 260.911 192.722 261.172C192.289 261.439 192.155 261.723 192.112 261.696Z" fill="#FAFAF9"/>
<path d="M92.304 373.563L110.706 399.542L312.683 399.443L312.572 376.514L210.429 366.789L125.569 354.17L92.304 373.563Z" fill="#17282F"/>
<path d="M124.782 354.932L139.122 335.126L179.523 285.223C185.17 279.135 193.357 276.065 201.613 276.941C211.725 278.014 220.316 284.812 223.687 294.408L250.344 375.837L215.002 370.29L197.035 319.914L168.724 359.466L124.782 354.932Z" fill="#17282F"/>
<path d="M250.344 370.589C250.343 370.6 250.237 370.6 250.029 370.591C249.791 370.577 249.487 370.561 249.109 370.539C248.261 370.479 247.078 370.395 245.574 370.288C242.466 370.041 238.039 369.691 232.583 369.259C221.584 368.334 206.454 367.062 189.741 365.657C181.377 364.929 173.41 364.237 166.159 363.607C162.534 363.273 159.093 363.015 155.869 362.663C152.648 362.292 149.663 361.8 146.975 361.163C144.294 360.529 141.883 359.758 139.955 358.678C138.026 357.611 136.543 356.382 135.517 355.222C134.479 354.068 133.869 353.015 133.523 352.281C133.172 351.547 133.065 351.129 133.065 351.129C133.153 351.073 133.587 352.817 135.677 355.076C136.712 356.197 138.19 357.379 140.102 358.403C142.011 359.441 144.392 360.173 147.064 360.779C149.737 361.387 152.711 361.855 155.919 362.205C159.129 362.535 162.585 362.778 166.206 363.096C173.458 363.713 181.426 364.391 189.791 365.102C206.498 366.571 221.622 367.901 232.617 368.868C238.065 369.372 242.487 369.784 245.593 370.072C247.093 370.223 248.273 370.343 249.119 370.428C249.494 370.471 249.797 370.507 250.034 370.534C250.24 370.561 250.346 370.58 250.344 370.589Z" fill="#7C8EB5"/>
<path d="M199.848 301.695C199.927 301.73 199.543 302.702 199.029 304.303C198.514 305.903 197.91 308.147 197.527 310.678C197.149 313.211 197.067 315.534 197.09 317.215C197.11 318.896 197.191 319.938 197.105 319.949C197.04 319.957 196.819 318.926 196.696 317.229C196.573 315.535 196.592 313.17 196.977 310.595C197.365 308.024 198.042 305.757 198.659 304.173C199.274 302.587 199.787 301.667 199.848 301.695Z" fill="#7C8EB5"/>
<path d="M192.097 308.49C192.269 308.465 192.633 311.348 194.035 314.593C195.408 317.852 197.237 320.109 197.1 320.215C197.01 320.315 194.937 318.161 193.523 314.811C192.084 311.474 191.962 308.486 192.097 308.49Z" fill="#7C8EB5"/>
<path d="M307.429 383.378C307.601 383.438 306.096 386.87 305.734 391.399C305.327 395.926 306.232 399.561 306.053 399.591C305.989 399.608 305.679 398.725 305.418 397.237C305.155 395.753 304.987 393.656 305.181 391.352C305.378 389.05 305.897 387.011 306.407 385.592C306.915 384.17 307.37 383.352 307.429 383.378Z" fill="#7C8EB5"/>
<path d="M100.382 266.671C100.395 266.684 100.337 266.765 100.212 266.911C100.093 267.06 99.8899 267.256 99.6113 267.492C99.054 267.958 98.1238 268.505 96.8695 268.876C94.341 269.645 90.7014 269.46 86.8368 268.856C82.9508 268.226 79.5496 267.099 77.1853 266.095C75.9977 265.6 75.0679 265.131 74.4331 264.796C73.8032 264.449 73.4649 264.241 73.4821 264.206C73.5237 264.124 74.9419 264.833 77.3312 265.729C79.7131 266.633 83.0881 267.685 86.926 268.307C90.7552 268.906 94.3192 269.143 96.766 268.496C99.2455 267.891 100.315 266.569 100.382 266.671Z" fill="#17282F"/>
</g>
<rect x="152" y="442" width="297" height="56" rx="28" fill="#F3F5F9"/>
<path d="M193.32 469.7C194.16 469.967 194.813 470.4 195.28 471C195.76 471.587 196 472.28 196 473.08C196 473.92 195.727 474.653 195.18 475.28C194.633 475.893 193.9 476.367 192.98 476.7C192.073 477.033 191.08 477.2 190 477.2C189.067 477.2 188.127 477.073 187.18 476.82C186.247 476.553 185.38 476.16 184.58 475.64L185.42 473.74C186.033 474.153 186.713 474.473 187.46 474.7C188.207 474.913 188.947 475.02 189.68 475.02C190.733 475.02 191.607 474.813 192.3 474.4C193.007 473.987 193.36 473.42 193.36 472.7C193.36 472.087 193.107 471.62 192.6 471.3C192.093 470.98 191.393 470.82 190.5 470.82H187.24V468.78H190.3C191.073 468.78 191.68 468.62 192.12 468.3C192.56 467.98 192.78 467.547 192.78 467C192.78 466.347 192.48 465.84 191.88 465.48C191.293 465.12 190.54 464.94 189.62 464.94C188.993 464.94 188.347 465.033 187.68 465.22C187.013 465.393 186.387 465.653 185.8 466L184.98 463.9C185.7 463.513 186.46 463.227 187.26 463.04C188.073 462.84 188.88 462.74 189.68 462.74C190.72 462.74 191.673 462.9 192.54 463.22C193.42 463.54 194.12 464 194.64 464.6C195.16 465.187 195.42 465.88 195.42 466.68C195.42 467.373 195.233 467.98 194.86 468.5C194.487 469.02 193.973 469.42 193.32 469.7ZM209.068 466.32V477H206.688V475.62C206.275 476.127 205.762 476.507 205.148 476.76C204.548 477.013 203.882 477.14 203.148 477.14C202.108 477.14 201.175 476.913 200.348 476.46C199.535 476.007 198.895 475.367 198.428 474.54C197.975 473.713 197.748 472.753 197.748 471.66C197.748 470.567 197.975 469.613 198.428 468.8C198.895 467.973 199.535 467.333 200.348 466.88C201.175 466.427 202.108 466.2 203.148 466.2C203.842 466.2 204.475 466.32 205.048 466.56C205.635 466.8 206.142 467.153 206.568 467.62V466.32H209.068ZM203.428 475C204.348 475 205.108 474.693 205.708 474.08C206.308 473.467 206.608 472.66 206.608 471.66C206.608 470.66 206.308 469.853 205.708 469.24C205.108 468.627 204.348 468.32 203.428 468.32C202.508 468.32 201.748 468.627 201.148 469.24C200.562 469.853 200.268 470.66 200.268 471.66C200.268 472.66 200.562 473.467 201.148 474.08C201.748 474.693 202.508 475 203.428 475ZM220.579 468.44H214.879V477H212.379V466.32H220.579V468.44ZM227.679 466.2C228.785 466.2 229.752 466.427 230.579 466.88C231.419 467.333 232.065 467.973 232.519 468.8C232.985 469.627 233.219 470.587 233.219 471.68C233.219 472.76 232.999 473.713 232.559 474.54C232.119 475.367 231.499 476.007 230.699 476.46C229.912 476.913 228.999 477.14 227.959 477.14C226.479 477.14 225.319 476.667 224.479 475.72V480.88H221.959V471.7C221.959 470.62 222.199 469.667 222.679 468.84C223.159 468 223.825 467.353 224.679 466.9C225.545 466.433 226.545 466.2 227.679 466.2ZM227.579 475.02C228.512 475.02 229.272 474.713 229.859 474.1C230.445 473.473 230.739 472.667 230.739 471.68C230.739 470.693 230.445 469.887 229.859 469.26C229.272 468.633 228.512 468.32 227.579 468.32C226.632 468.32 225.872 468.627 225.299 469.24C224.725 469.853 224.439 470.66 224.439 471.66C224.439 472.66 224.725 473.473 225.299 474.1C225.885 474.713 226.645 475.02 227.579 475.02ZM246.019 466.32V475.38C246.019 479.14 244.172 481.02 240.479 481.02C239.506 481.02 238.572 480.887 237.679 480.62C236.799 480.367 236.072 479.993 235.499 479.5L236.619 477.62C237.072 478.007 237.626 478.313 238.279 478.54C238.932 478.767 239.619 478.88 240.339 478.88C241.432 478.88 242.232 478.613 242.739 478.08C243.259 477.56 243.519 476.753 243.519 475.66V475.16C243.119 475.6 242.632 475.94 242.059 476.18C241.486 476.407 240.866 476.52 240.199 476.52C238.772 476.52 237.646 476.127 236.819 475.34C236.006 474.553 235.599 473.373 235.599 471.8V466.32H238.099V471.48C238.099 472.427 238.312 473.14 238.739 473.62C239.179 474.087 239.799 474.32 240.599 474.32C241.492 474.32 242.199 474.047 242.719 473.5C243.252 472.953 243.519 472.16 243.519 471.12V466.32H246.019ZM255.576 471.44C256.242 471.627 256.756 471.933 257.116 472.36C257.489 472.773 257.676 473.273 257.676 473.86C257.676 474.513 257.456 475.093 257.016 475.6C256.576 476.093 255.969 476.48 255.196 476.76C254.422 477.04 253.542 477.18 252.556 477.18C251.729 477.18 250.922 477.087 250.136 476.9C249.349 476.7 248.636 476.42 247.996 476.06L248.716 474.2C249.236 474.493 249.822 474.72 250.476 474.88C251.129 475.04 251.782 475.12 252.436 475.12C253.276 475.12 253.929 474.993 254.396 474.74C254.876 474.473 255.116 474.113 255.116 473.66C255.116 473.247 254.929 472.927 254.556 472.7C254.196 472.473 253.682 472.36 253.016 472.36H250.936V470.68H252.816C253.442 470.68 253.929 470.573 254.276 470.36C254.636 470.147 254.816 469.847 254.816 469.46C254.816 469.073 254.602 468.767 254.176 468.54C253.749 468.313 253.162 468.2 252.416 468.2C251.349 468.2 250.222 468.46 249.036 468.98L248.396 467.14C249.796 466.487 251.209 466.16 252.636 466.16C253.542 466.16 254.356 466.287 255.076 466.54C255.796 466.78 256.356 467.127 256.756 467.58C257.169 468.02 257.376 468.527 257.376 469.1C257.376 469.62 257.216 470.087 256.896 470.5C256.576 470.9 256.136 471.213 255.576 471.44ZM264.71 472.72H262.77V477H260.27V466.32H262.77V470.64H264.77L267.93 466.32H270.61L266.73 471.46L270.87 477H267.93L264.71 472.72ZM282.682 466.32V477H280.302V475.62C279.888 476.127 279.375 476.507 278.762 476.76C278.162 477.013 277.495 477.14 276.762 477.14C275.722 477.14 274.788 476.913 273.962 476.46C273.148 476.007 272.508 475.367 272.042 474.54C271.588 473.713 271.362 472.753 271.362 471.66C271.362 470.567 271.588 469.613 272.042 468.8C272.508 467.973 273.148 467.333 273.962 466.88C274.788 466.427 275.722 466.2 276.762 466.2C277.455 466.2 278.088 466.32 278.662 466.56C279.248 466.8 279.755 467.153 280.182 467.62V466.32H282.682ZM277.042 475C277.962 475 278.722 474.693 279.322 474.08C279.922 473.467 280.222 472.66 280.222 471.66C280.222 470.66 279.922 469.853 279.322 469.24C278.722 468.627 277.962 468.32 277.042 468.32C276.122 468.32 275.362 468.627 274.762 469.24C274.175 469.853 273.882 470.66 273.882 471.66C273.882 472.66 274.175 473.467 274.762 474.08C275.362 474.693 276.122 475 277.042 475ZM296.8 466.2C297.907 466.2 298.873 466.427 299.7 466.88C300.54 467.333 301.187 467.973 301.64 468.8C302.107 469.627 302.34 470.587 302.34 471.68C302.34 472.76 302.12 473.713 301.68 474.54C301.24 475.367 300.62 476.007 299.82 476.46C299.033 476.913 298.12 477.14 297.08 477.14C295.6 477.14 294.44 476.667 293.6 475.72V480.88H291.08V471.7C291.08 470.62 291.32 469.667 291.8 468.84C292.28 468 292.947 467.353 293.8 466.9C294.667 466.433 295.667 466.2 296.8 466.2ZM296.7 475.02C297.633 475.02 298.393 474.713 298.98 474.1C299.567 473.473 299.86 472.667 299.86 471.68C299.86 470.693 299.567 469.887 298.98 469.26C298.393 468.633 297.633 468.32 296.7 468.32C295.753 468.32 294.993 468.627 294.42 469.24C293.847 469.853 293.56 470.66 293.56 471.66C293.56 472.66 293.847 473.473 294.42 474.1C295.007 474.713 295.767 475.02 296.7 475.02ZM309.88 475.02C311.04 475.02 312.007 474.633 312.78 473.86L314.1 475.4C313.633 475.973 313.033 476.407 312.3 476.7C311.567 476.993 310.74 477.14 309.82 477.14C308.647 477.14 307.613 476.907 306.72 476.44C305.827 475.973 305.133 475.327 304.64 474.5C304.16 473.66 303.92 472.713 303.92 471.66C303.92 470.62 304.153 469.687 304.62 468.86C305.1 468.02 305.753 467.367 306.58 466.9C307.42 466.433 308.367 466.2 309.42 466.2C310.42 466.2 311.327 466.42 312.14 466.86C312.967 467.287 313.62 467.907 314.1 468.72C314.58 469.52 314.82 470.46 314.82 471.54L306.64 473.14C306.893 473.753 307.3 474.22 307.86 474.54C308.42 474.86 309.093 475.02 309.88 475.02ZM309.42 468.2C308.5 468.2 307.753 468.5 307.18 469.1C306.62 469.7 306.34 470.507 306.34 471.52V471.54L312.38 470.38C312.207 469.727 311.853 469.2 311.32 468.8C310.8 468.4 310.167 468.2 309.42 468.2ZM327.502 466.32V477H325.022V468.44H319.762V477H317.262V466.32H327.502ZM335.915 475.02C337.075 475.02 338.042 474.633 338.815 473.86L340.135 475.4C339.669 475.973 339.069 476.407 338.335 476.7C337.602 476.993 336.775 477.14 335.855 477.14C334.682 477.14 333.649 476.907 332.755 476.44C331.862 475.973 331.169 475.327 330.675 474.5C330.195 473.66 329.955 472.713 329.955 471.66C329.955 470.62 330.189 469.687 330.655 468.86C331.135 468.02 331.789 467.367 332.615 466.9C333.455 466.433 334.402 466.2 335.455 466.2C336.455 466.2 337.362 466.42 338.175 466.86C339.002 467.287 339.655 467.907 340.135 468.72C340.615 469.52 340.855 470.46 340.855 471.54L332.675 473.14C332.929 473.753 333.335 474.22 333.895 474.54C334.455 474.86 335.129 475.02 335.915 475.02ZM335.455 468.2C334.535 468.2 333.789 468.5 333.215 469.1C332.655 469.7 332.375 470.507 332.375 471.52V471.54L338.415 470.38C338.242 469.727 337.889 469.2 337.355 468.8C336.835 468.4 336.202 468.2 335.455 468.2ZM356.777 466.2C358.124 466.2 359.191 466.593 359.977 467.38C360.764 468.153 361.157 469.32 361.157 470.88V477H358.657V471.2C358.657 470.267 358.451 469.567 358.037 469.1C357.624 468.62 357.031 468.38 356.257 468.38C355.417 468.38 354.744 468.66 354.237 469.22C353.731 469.767 353.477 470.553 353.477 471.58V477H350.977V471.2C350.977 470.267 350.771 469.567 350.357 469.1C349.944 468.62 349.351 468.38 348.577 468.38C347.724 468.38 347.044 468.653 346.537 469.2C346.044 469.747 345.797 470.54 345.797 471.58V477H343.297V466.32H345.677V467.68C346.077 467.2 346.577 466.833 347.177 466.58C347.777 466.327 348.444 466.2 349.177 466.2C349.977 466.2 350.684 466.353 351.297 466.66C351.924 466.953 352.417 467.393 352.777 467.98C353.217 467.42 353.784 466.987 354.477 466.68C355.171 466.36 355.937 466.2 356.777 466.2ZM374.355 466.32V477H371.975V475.64C371.575 476.12 371.075 476.493 370.475 476.76C369.888 477.013 369.248 477.14 368.555 477.14C367.128 477.14 366.001 476.747 365.175 475.96C364.348 475.16 363.935 473.98 363.935 472.42V466.32H366.435V472.08C366.435 473.04 366.648 473.76 367.075 474.24C367.515 474.707 368.141 474.94 368.955 474.94C369.835 474.94 370.535 474.667 371.055 474.12C371.588 473.56 371.855 472.76 371.855 471.72V466.32H374.355ZM389.451 474.88V479.46H387.111V477H377.731V466.32H380.231V474.88H385.331V466.32H387.831V474.88H389.451ZM401.796 466.32V477H399.416V475.64C399.016 476.12 398.516 476.493 397.916 476.76C397.329 477.013 396.689 477.14 395.996 477.14C394.569 477.14 393.443 476.747 392.616 475.96C391.789 475.16 391.376 473.98 391.376 472.42V466.32H393.876V472.08C393.876 473.04 394.089 473.76 394.516 474.24C394.956 474.707 395.583 474.94 396.396 474.94C397.276 474.94 397.976 474.667 398.496 474.12C399.029 473.56 399.296 472.76 399.296 471.72V466.32H401.796ZM415.292 466.32V477H412.912V475.64C412.512 476.12 412.012 476.493 411.412 476.76C410.826 477.013 410.186 477.14 409.492 477.14C408.066 477.14 406.939 476.747 406.112 475.96C405.286 475.16 404.872 473.98 404.872 472.42V466.32H407.372V472.08C407.372 473.04 407.586 473.76 408.012 474.24C408.452 474.707 409.079 474.94 409.892 474.94C410.772 474.94 411.472 474.667 411.992 474.12C412.526 473.56 412.792 472.76 412.792 471.72V466.32H415.292Z" fill="#2477F4"/>
</g>
<defs>
<clipPath id="clip0_1034_4827">
<rect width="600" height="534" rx="28" fill="white"/>
</clipPath>
<clipPath id="clip1_1034_4827">
<rect width="724" height="400" fill="white" transform="translate(-3)"/>
</clipPath>
</defs>
</svg>
