<svg width="24" height="24" viewBox="0 0 24 24" fill="none" xmlns="http://www.w3.org/2000/svg">
<g id="music-playlist">
<g id="vuesax/bold/music-playlist">
<g id="music-playlist_2">
<path id="Vector" d="M18 5.25H6C5.59 5.25 5.25 4.91 5.25 4.5C5.25 4.09 5.59 3.75 6 3.75H18C18.41 3.75 18.75 4.09 18.75 4.5C18.75 4.91 18.41 5.25 18 5.25Z" fill="#37476A"/>
<path id="Vector_2" d="M15 2.75H9C8.59 2.75 8.25 2.41 8.25 2C8.25 1.59 8.59 1.25 9 1.25H15C15.41 1.25 15.75 1.59 15.75 2C15.75 2.41 15.41 2.75 15 2.75Z" fill="#37476A"/>
<path id="Vector_3" d="M13.91 16.21C13.57 16.21 13.29 16.49 13.29 16.83C13.29 17.17 13.57 17.45 13.91 17.45C14.25 17.45 14.53 17.17 14.53 16.83C14.53 16.49 14.25 16.21 13.91 16.21Z" fill="#37476A"/>
<path id="Vector_4" d="M9.51002 17.74C9.51002 17.4 9.23002 17.13 8.89002 17.13C8.55002 17.13 8.27002 17.41 8.27002 17.75C8.27002 18.09 8.55002 18.37 8.89002 18.37C9.23002 18.36 9.51002 18.08 9.51002 17.74Z" fill="#37476A"/>
<path id="Vector_5" d="M18 7H6C3.8 7 2 8.8 2 11V18C2 20.2 3.8 22 6 22H18C20.2 22 22 20.2 22 18V11C22 8.8 20.2 7 18 7Z" fill="#37476A"/>
<g id="Group 6">
<path id="Vector_6" d="M14.3023 13.872L9.80533 16.5837C9.54058 16.7426 9.2002 16.5535 9.2002 16.2433V13.2177C9.2002 11.8977 10.626 11.0732 11.772 11.7313L13.508 12.7298L14.2985 13.1836C14.5594 13.3387 14.5632 13.7169 14.3023 13.872Z" fill="white"/>
<path id="Vector_7" d="M14.5294 16.0883L12.9976 16.9733L11.4697 17.8545C10.9213 18.1684 10.301 18.1041 9.85092 17.7864C9.63156 17.6351 9.65803 17.2985 9.88874 17.1624L14.6958 14.2804C14.9227 14.1443 15.2215 14.2729 15.2631 14.5338C15.3577 15.12 15.1156 15.7517 14.5294 16.0883Z" fill="white"/>
</g>
</g>
</g>
</g>
</svg>
