<svg width="28" height="28" viewBox="0 0 28 28" fill="none" xmlns="http://www.w3.org/2000/svg">
<path d="M19.5867 0.666626H8.41334C3.56 0.666626 0.666672 3.55996 0.666672 8.41329V19.5733C0.666672 24.44 3.56 27.3333 8.41334 27.3333H19.5733C24.4267 27.3333 27.32 24.44 27.32 19.5866V8.41329C27.3333 3.55996 24.44 0.666626 19.5867 0.666626ZM18.48 17.0666C18.8667 17.4533 18.8667 18.0933 18.48 18.48C18.28 18.68 18.0267 18.7733 17.7733 18.7733C17.52 18.7733 17.2667 18.68 17.0667 18.48L14 15.4133L10.9333 18.48C10.7333 18.68 10.48 18.7733 10.2267 18.7733C9.97334 18.7733 9.72001 18.68 9.52001 18.48C9.13334 18.0933 9.13334 17.4533 9.52001 17.0666L12.5867 14L9.52001 10.9333C9.13334 10.5466 9.13334 9.90663 9.52001 9.51996C9.90667 9.13329 10.5467 9.13329 10.9333 9.51996L14 12.5866L17.0667 9.51996C17.4533 9.13329 18.0933 9.13329 18.48 9.51996C18.8667 9.90663 18.8667 10.5466 18.48 10.9333L15.4133 14L18.48 17.0666Z" fill="#7C8EB5"/>
</svg>
