<svg width="24" height="25" viewBox="0 0 24 25" fill="none" xmlns="http://www.w3.org/2000/svg">
<path d="M12.678 20.457C12.9528 20.5209 12.9779 20.8807 12.7103 20.9699L11.1303 21.4899C7.16034 22.7699 5.07034 21.6999 3.78034 17.7299L2.50034 13.7799C1.22034 9.80992 2.28034 7.70992 6.25034 6.42992L6.77434 6.25639C7.1772 6.12297 7.56927 6.52703 7.45487 6.93571C7.39817 7.13828 7.34362 7.34968 7.29034 7.56992L6.31034 11.7599C5.21034 16.4699 6.82034 19.0699 11.5303 20.1899L12.678 20.457Z" fill="#37476A"/>
<path d="M17.1702 3.71001L15.5002 3.32001C12.1602 2.53001 10.1702 3.18001 9.00018 5.60001C8.70018 6.21001 8.46018 6.95001 8.26018 7.80001L7.28018 11.99C6.30018 16.17 7.59018 18.23 11.7602 19.22L13.4402 19.62C14.0202 19.76 14.5602 19.85 15.0602 19.89C18.1802 20.19 19.8402 18.73 20.6802 15.12L21.6602 10.94C22.6402 6.76001 21.3602 4.69001 17.1702 3.71001ZM15.2902 13.83C15.2002 14.17 14.9002 14.39 14.5602 14.39C14.5002 14.39 14.4402 14.38 14.3702 14.37L11.4602 13.63C11.0602 13.53 10.8202 13.12 10.9202 12.72C11.0202 12.32 11.4302 12.08 11.8302 12.18L14.7402 12.92C15.1502 13.02 15.3902 13.43 15.2902 13.83ZM18.2202 10.45C18.1302 10.79 17.8302 11.01 17.4902 11.01C17.4302 11.01 17.3702 11 17.3002 10.99L12.4502 9.76001C12.0502 9.66001 11.8102 9.25001 11.9102 8.85001C12.0102 8.45001 12.4202 8.21001 12.8202 8.31001L17.6702 9.54001C18.0802 9.63001 18.3202 10.04 18.2202 10.45Z" fill="#37476A"/>
</svg>
