<svg width="718" height="753" viewBox="0 0 718 753" fill="none" xmlns="http://www.w3.org/2000/svg">
<rect width="718" height="753" fill="#F3F5F9"/>
<path d="M252.833 193.136L333.914 299.857L336.781 165.86L367.444 296.333L424.565 175.086L399.51 306.751L501.007 219.22L424.565 329.311L552.89 290.63L438.278 360.112L571.241 376.969L438.278 393.827L552.89 463.308L424.565 424.627L501.007 534.718L399.51 447.187L424.565 578.852L367.444 457.606L336.781 588.079L333.914 454.082L252.833 560.802L304.716 437.224L187.237 501.74L284.898 409.948L151.336 421.103L277.888 376.969L151.336 332.835L284.898 343.991L187.237 252.199L304.716 316.714L252.833 193.136Z" fill="#DBE7FF" fill-opacity="0.5"/>
<path d="M358.969 264.969L367.863 335.124L404.523 274.652L384.115 342.359L442.201 302.027L396.018 355.579L465.487 342.359L401.515 372.497L470.355 388.676L399.655 390.189L455.964 432.969L390.761 405.595L424.801 467.579L376.369 416.051L382.255 486.522L358.969 419.749L335.683 486.522L341.569 416.051L293.137 467.579L327.177 405.595L261.974 432.969L318.283 390.189L247.583 388.676L316.423 372.497L252.451 342.359L321.92 355.579L275.737 302.027L333.823 342.359L313.414 274.652L350.074 335.124L358.969 264.969Z" fill="#DBE7FF" fill-opacity="0.8"/>
</svg>
