<svg width="72" height="72" viewBox="0 0 72 72" fill="none" xmlns="http://www.w3.org/2000/svg">
<rect width="72" height="72" rx="36" fill="#D4DFF4" fill-opacity="0.5"/>
<path d="M42.9833 19.3334H29.0166C22.9499 19.3334 19.3333 22.95 19.3333 29.0167V42.9667C19.3333 49.05 22.9499 52.6667 29.0166 52.6667H42.9666C49.0333 52.6667 52.6499 49.05 52.6499 42.9834V29.0167C52.6666 22.95 49.0499 19.3334 42.9833 19.3334ZM26.7833 31.4667C26.2999 30.9834 26.2999 30.1834 26.7833 29.7C28.9333 27.55 32.4499 27.55 34.6166 29.7C35.0999 30.1834 35.0999 30.9834 34.6166 31.4667C34.3666 31.7167 34.0499 31.8334 33.7333 31.8334C33.4166 31.8334 33.0999 31.7167 32.8499 31.4667C31.6666 30.2834 29.7333 30.2834 28.5499 31.4667C28.0666 31.9667 27.2666 31.9667 26.7833 31.4667ZM41.9999 46.1334H29.9999C28.8333 46.1334 27.8833 45.1834 27.8833 44C27.8833 39.5167 31.5333 35.8667 36.0166 35.8667C40.4999 35.8667 44.1499 39.5167 44.1499 44C44.1333 45.1667 43.1666 46.1334 41.9999 46.1334ZM45.2166 31.4667C44.7333 31.95 43.9333 31.95 43.4499 31.4667C42.2666 30.2834 40.3333 30.2834 39.1499 31.4667C38.8999 31.7167 38.5833 31.8334 38.2666 31.8334C37.9499 31.8334 37.6333 31.7167 37.3833 31.4667C36.8999 30.9834 36.8999 30.1834 37.3833 29.7C39.5333 27.55 43.0499 27.55 45.2166 29.7C45.6999 30.2 45.6999 30.9834 45.2166 31.4667Z" fill="#031C3D"/>
</svg>
