<svg width="72" height="72" viewBox="0 0 72 72" fill="none" xmlns="http://www.w3.org/2000/svg">
<rect width="72" height="72" rx="36" fill="#D4DFF4" fill-opacity="0.5"/>
<path d="M44.3334 52.6666H27.6667C26.9834 52.6666 26.4167 52.1 26.4167 51.4166C26.4167 50.7333 26.9834 50.1666 27.6667 50.1666H44.3334C45.0167 50.1666 45.5834 50.7333 45.5834 51.4166C45.5834 52.1 45.0167 52.6666 44.3334 52.6666Z" fill="#031C3D"/>
<path d="M49.9168 25.2L43.2501 29.9667C42.3668 30.6 41.1001 30.2167 40.7168 29.2L37.5668 20.8C37.0335 19.35 34.9835 19.35 34.4501 20.8L31.2835 29.1834C30.9001 30.2167 29.6501 30.6 28.7668 29.95L22.1001 25.1834C20.7668 24.25 19.0001 25.5667 19.5501 27.1167L26.4835 46.5334C26.7168 47.2 27.3501 47.6334 28.0501 47.6334H43.9335C44.6335 47.6334 45.2668 47.1834 45.5001 46.5334L52.4335 27.1167C53.0001 25.5667 51.2335 24.25 49.9168 25.2ZM40.1668 40.5834H31.8335C31.1501 40.5834 30.5835 40.0167 30.5835 39.3334C30.5835 38.65 31.1501 38.0834 31.8335 38.0834H40.1668C40.8501 38.0834 41.4168 38.65 41.4168 39.3334C41.4168 40.0167 40.8501 40.5834 40.1668 40.5834Z" fill="#031C3D"/>
</svg>
