<svg width="72" height="72" viewBox="0 0 72 72" fill="none" xmlns="http://www.w3.org/2000/svg">
<rect width="72" height="72" rx="36" fill="#D4DFF4" fill-opacity="0.5"/>
<path d="M47.8667 31.2C47.2167 31.2 46.7 31.7167 46.7 32.3667V35C46.7 40.9 41.9 45.7 36 45.7C30.1 45.7 25.3 40.9 25.3 35V32.35C25.3 31.7 24.7833 31.1833 24.1333 31.1833C23.4833 31.1833 22.9667 31.7 22.9667 32.35V34.9834C22.9667 41.7667 28.1833 47.35 34.8333 47.95V51.5C34.8333 52.15 35.35 52.6667 36 52.6667C36.65 52.6667 37.1667 52.15 37.1667 51.5V47.95C43.8 47.3667 49.0333 41.7667 49.0333 34.9834V32.35C49.0167 31.7167 48.5 31.2 47.8667 31.2Z" fill="#031C3D"/>
<path d="M36 19.3334C31.9333 19.3334 28.6333 22.6334 28.6333 26.7V35.2334C28.6333 39.3 31.9333 42.6 36 42.6C40.0666 42.6 43.3666 39.3 43.3666 35.2334V26.7C43.3666 22.6334 40.0666 19.3334 36 19.3334ZM38.1833 30.9167C38.0666 31.35 37.6833 31.6334 37.25 31.6334C37.1666 31.6334 37.0833 31.6167 37 31.6C36.35 31.4167 35.6666 31.4167 35.0166 31.6C34.4833 31.75 33.9666 31.4334 33.8333 30.9167C33.6833 30.4 34 29.8667 34.5166 29.7334C35.5 29.4667 36.5333 29.4667 37.5166 29.7334C38.0166 29.8667 38.3166 30.4 38.1833 30.9167ZM39.0666 27.6834C38.9166 28.0834 38.55 28.3167 38.15 28.3167C38.0333 28.3167 37.9333 28.3 37.8166 28.2667C36.65 27.8334 35.35 27.8334 34.1833 28.2667C33.6833 28.45 33.1166 28.1834 32.9333 27.6834C32.75 27.1834 33.0166 26.6167 33.5166 26.45C35.1166 25.8667 36.8833 25.8667 38.4833 26.45C38.9833 26.6334 39.25 27.1834 39.0666 27.6834Z" fill="#031C3D"/>
</svg>
