<svg width="24" height="25" viewBox="0 0 24 25" fill="none" xmlns="http://www.w3.org/2000/svg">
<path d="M12.6777 20.4571C12.9524 20.521 12.9776 20.8808 12.71 20.97L11.13 21.49C7.15998 22.77 5.06997 21.7 3.77998 17.73L2.49997 13.78C1.21997 9.81004 2.27997 7.71004 6.24997 6.43004L6.77397 6.25651C7.17684 6.1231 7.5689 6.52716 7.45451 6.93583C7.3978 7.1384 7.34326 7.34981 7.28997 7.57004L6.30997 11.76C5.20997 16.47 6.81997 19.07 11.53 20.19L12.6777 20.4571Z" fill="#37476A"/>
<path d="M17.1701 3.71001L15.5001 3.32001C12.1601 2.53001 10.1701 3.18001 9.00006 5.60001C8.70006 6.21001 8.46006 6.95001 8.26006 7.80001L7.28006 11.99C6.30006 16.17 7.59006 18.23 11.7601 19.22L13.4401 19.62C14.0201 19.76 14.5601 19.85 15.0601 19.89C18.1801 20.19 19.8401 18.73 20.6801 15.12L21.6601 10.94C22.6401 6.76001 21.3601 4.69001 17.1701 3.71001ZM15.2901 13.83C15.2001 14.17 14.9001 14.39 14.5601 14.39C14.5001 14.39 14.4401 14.38 14.3701 14.37L11.4601 13.63C11.0601 13.53 10.8201 13.12 10.9201 12.72C11.0201 12.32 11.4301 12.08 11.8301 12.18L14.7401 12.92C15.1501 13.02 15.3901 13.43 15.2901 13.83ZM18.2201 10.45C18.1301 10.79 17.8301 11.01 17.4901 11.01C17.4301 11.01 17.3701 11 17.3001 10.99L12.4501 9.76001C12.0501 9.66001 11.8101 9.25001 11.9101 8.85001C12.0101 8.45001 12.4201 8.21001 12.8201 8.31001L17.6701 9.54001C18.0801 9.63001 18.3201 10.04 18.2201 10.45Z" fill="#37476A"/>
</svg>
