<svg width="72" height="72" viewBox="0 0 72 72" fill="none" xmlns="http://www.w3.org/2000/svg">
<rect width="72" height="72" rx="36" fill="#D4DFF4" fill-opacity="0.5"/>
<path d="M51.4166 46.7834L48.6666 47.4334C48.0499 47.5834 47.5666 48.05 47.4332 48.6667L46.8499 51.1167C46.5332 52.45 44.8332 52.8667 43.9499 51.8167L38.9666 46.0834C38.5666 45.6167 38.7832 44.8834 39.3832 44.7334C42.3332 44.0167 44.9832 42.3667 46.9332 40.0167C47.2499 39.6334 47.8166 39.5834 48.1666 39.9334L51.8666 43.6334C53.1332 44.9 52.6832 46.4834 51.4166 46.7834Z" fill="#031C3D"/>
<path d="M20.5 46.7834L23.25 47.4334C23.8667 47.5834 24.35 48.05 24.4834 48.6667L25.0667 51.1167C25.3834 52.45 27.0834 52.8667 27.9667 51.8167L32.95 46.0834C33.35 45.6167 33.1334 44.8834 32.5334 44.7334C29.5834 44.0167 26.9334 42.3667 24.9834 40.0167C24.6667 39.6334 24.1 39.5834 23.75 39.9334L20.05 43.6334C18.7834 44.9 19.2334 46.4834 20.5 46.7834Z" fill="#031C3D"/>
<path d="M35.9999 19.3334C29.5499 19.3334 24.3333 24.55 24.3333 31C24.3333 33.4167 25.0499 35.6334 26.2833 37.4834C28.0833 40.15 30.9333 42.0334 34.2499 42.5167C34.8166 42.6167 35.3999 42.6667 35.9999 42.6667C36.5999 42.6667 37.1833 42.6167 37.7499 42.5167C41.0666 42.0334 43.9166 40.15 45.7166 37.4834C46.9499 35.6334 47.6666 33.4167 47.6666 31C47.6666 24.55 42.4499 19.3334 35.9999 19.3334ZM41.0999 30.6334L39.7166 32.0167C39.4833 32.25 39.3499 32.7 39.4333 33.0334L39.8333 34.75C40.1499 36.1 39.4333 36.6334 38.2333 35.9167L36.5666 34.9334C36.2666 34.75 35.7666 34.75 35.4666 34.9334L33.7999 35.9167C32.5999 36.6167 31.8833 36.1 32.1999 34.75L32.5999 33.0334C32.6666 32.7167 32.5499 32.25 32.3166 32.0167L30.8999 30.6334C30.0833 29.8167 30.3499 29 31.4833 28.8167L33.2666 28.5167C33.5666 28.4667 33.9166 28.2 34.0499 27.9334L35.0333 25.9667C35.5666 24.9 36.4333 24.9 36.9666 25.9667L37.9499 27.9334C38.0833 28.2 38.4333 28.4667 38.7499 28.5167L40.5333 28.8167C41.6499 29 41.9166 29.8167 41.0999 30.6334Z" fill="#031C3D"/>
</svg>
