<svg width="72" height="72" viewBox="0 0 72 72" fill="none" xmlns="http://www.w3.org/2000/svg">
<rect width="72" height="72" rx="36" fill="#D4DFF4" fill-opacity="0.5"/>
<path d="M42.9833 19.3334H29.0166C22.9499 19.3334 19.3333 22.95 19.3333 29.0167V42.9667C19.3333 49.05 22.9499 52.6667 29.0166 52.6667H42.9666C49.0333 52.6667 52.6499 49.05 52.6499 42.9834V29.0167C52.6666 22.95 49.0499 19.3334 42.9833 19.3334ZM28.7166 46.25C28.7166 46.9334 28.1499 47.5 27.4666 47.5C26.7833 47.5 26.2166 46.9334 26.2166 46.25V42.8C26.2166 42.1167 26.7833 41.55 27.4666 41.55C28.1499 41.55 28.7166 42.1167 28.7166 42.8V46.25ZM37.2499 46.25C37.2499 46.9334 36.6833 47.5 35.9999 47.5C35.3166 47.5 34.7499 46.9334 34.7499 46.25V39.3334C34.7499 38.65 35.3166 38.0834 35.9999 38.0834C36.6833 38.0834 37.2499 38.65 37.2499 39.3334V46.25ZM45.7833 46.25C45.7833 46.9334 45.2166 47.5 44.5333 47.5C43.8499 47.5 43.2833 46.9334 43.2833 46.25V35.8834C43.2833 35.2 43.8499 34.6334 44.5333 34.6334C45.2166 34.6334 45.7833 35.2 45.7833 35.8834V46.25ZM45.7833 30.6167C45.7833 31.3 45.2166 31.8667 44.5333 31.8667C43.8499 31.8667 43.2833 31.3 43.2833 30.6167V29C39.0333 33.3667 33.7166 36.45 27.7666 37.9334C27.6666 37.9667 27.5666 37.9667 27.4666 37.9667C26.8999 37.9667 26.3999 37.5834 26.2499 37.0167C26.0833 36.35 26.4833 35.6667 27.1666 35.5C32.7833 34.1 37.7833 31.15 41.7499 26.9834H39.6666C38.9833 26.9834 38.4166 26.4167 38.4166 25.7334C38.4166 25.05 38.9833 24.4834 39.6666 24.4834H44.5499C44.6166 24.4834 44.6666 24.5167 44.7333 24.5167C44.8166 24.5334 44.8999 24.5334 44.9832 24.5667C45.0666 24.6 45.1333 24.65 45.2166 24.7C45.2666 24.7334 45.3166 24.75 45.3666 24.7834C45.3833 24.8 45.3833 24.8167 45.3999 24.8167C45.4666 24.8834 45.5166 24.95 45.5666 25.0167C45.6166 25.0834 45.6666 25.1334 45.6833 25.2C45.7166 25.2667 45.7166 25.3334 45.7333 25.4167C45.7499 25.5 45.7833 25.5834 45.7833 25.6834C45.7833 25.7 45.7999 25.7167 45.7999 25.7334V30.6167H45.7833Z" fill="#031C3D"/>
</svg>
