<svg width="20" height="20" viewBox="0 0 20 20" fill="none" xmlns="http://www.w3.org/2000/svg">
<g id="archive-add">
<g id="vuesax/bold/archive-add">
<g id="archive-add_2">
<path id="Subtract" fill-rule="evenodd" clip-rule="evenodd" d="M5.98333 1.66666H14.0167C15.7917 1.66666 17.2333 3.11666 17.2417 4.88332V16.625C17.2417 18.1333 16.1667 18.7667 14.85 18.0333L10.7833 15.775C10.3583 15.5333 9.65833 15.5333 9.225 15.775L5.15833 18.0333C3.84166 18.7583 2.76666 18.125 2.76666 16.625V4.88332C2.76666 3.11666 4.20833 1.66666 5.98333 1.66666ZM11.4132 11.4156L10.0468 10.0493L8.63365 11.4625C8.31353 11.7826 7.78261 11.7826 7.46249 11.4625C7.14237 11.1424 7.14237 10.6114 7.46249 10.2913L8.87569 8.87812L7.50934 7.51177C7.18922 7.19165 7.18922 6.66073 7.50934 6.34061C7.82945 6.02049 8.36038 6.02049 8.6805 6.34061L10.0468 7.70696L11.3664 6.38746C11.6865 6.06734 12.2174 6.06734 12.5375 6.38746C12.8576 6.70757 12.8576 7.2385 12.5375 7.55861L11.218 8.87812L12.5844 10.2445C12.9045 10.5646 12.9045 11.0955 12.5844 11.4156C12.2642 11.7357 11.7333 11.7357 11.4132 11.4156Z" fill="#7C8EB5"/>
</g>
</g>
</g>
</svg>
