<svg width="20" height="20" viewBox="0 0 20 20" fill="none" xmlns="http://www.w3.org/2000/svg">
<g id="archive-tick">
<g id="vuesax/bold/archive-tick">
<g id="archive-tick_2">
<path id="Subtract" fill-rule="evenodd" clip-rule="evenodd" d="M5.98333 1.59167H14.0167C15.7917 1.59167 17.2333 3.04167 17.2417 4.80834V16.55C17.2417 18.0583 16.1667 18.6917 14.85 17.9583L10.7833 15.7C10.3583 15.4583 9.65833 15.4583 9.225 15.7L5.15833 17.9583C3.84166 18.6833 2.76666 18.05 2.76666 16.55V4.80834C2.76666 3.04167 4.21666 1.59167 5.98333 1.59167ZM13.4567 6.77171L9.35096 10.8775C9.19699 11.0315 9.00197 11.1033 8.80694 11.1033C8.61192 11.1033 8.41689 11.0315 8.26292 10.8775L6.72325 9.33782C6.42558 9.04015 6.42558 8.54746 6.72325 8.24979C7.02092 7.95212 7.51362 7.95212 7.81129 8.24979L8.80694 9.24544L12.3687 5.68367C12.6664 5.386 13.1591 5.386 13.4567 5.68367C13.7544 5.98134 13.7544 6.47404 13.4567 6.77171Z" fill="white"/>
</g>
</g>
</g>
</svg>
