<svg width="32" height="32" viewBox="0 0 32 32" fill="none" xmlns="http://www.w3.org/2000/svg">
<path d="M27.9337 5.50699C27.547 4.94699 27.0537 4.45366 26.4937 4.06699C25.227 3.14699 23.5737 2.66699 21.587 2.66699H10.4137C10.147 2.66699 9.88033 2.68033 9.62699 2.70699C5.25366 2.98699 2.66699 5.82699 2.66699 10.4137V21.587C2.66699 23.5737 3.14699 25.227 4.06699 26.4937C4.45366 27.0537 4.94699 27.547 5.50699 27.9337C6.60033 28.7337 7.98699 29.2003 9.62699 29.307C9.88033 29.3203 10.147 29.3337 10.4137 29.3337H21.587C26.4403 29.3337 29.3337 26.4403 29.3337 21.587V10.4137C29.3337 8.42699 28.8537 6.77366 27.9337 5.50699ZM25.0003 11.867C25.0003 12.4137 24.547 12.867 24.0003 12.867C23.4537 12.867 23.0003 12.4137 23.0003 11.867V10.2937C23.0003 9.86699 22.6537 9.52033 22.227 9.52033H17.0003V22.4803H19.3737C19.9203 22.4803 20.3737 22.9337 20.3737 23.4803C20.3737 24.027 19.9203 24.4803 19.3737 24.4803H12.627C12.0803 24.4803 11.627 24.027 11.627 23.4803C11.627 22.9337 12.0803 22.4803 12.627 22.4803H15.0003V9.52033H9.77366C9.34699 9.52033 9.00033 9.86699 9.00033 10.2937V11.867C9.00033 12.4137 8.54699 12.867 8.00033 12.867C7.45366 12.867 7.00033 12.4137 7.00033 11.867V10.2937C7.00033 8.76033 8.24033 7.52033 9.77366 7.52033H22.2137C23.747 7.52033 24.987 8.76033 24.987 10.2937V11.867H25.0003Z" fill="#7C8EB5"/>
</svg>
