<svg width="32" height="32" viewBox="0 0 32 32" fill="none" xmlns="http://www.w3.org/2000/svg">
<path d="M24.0004 22.333C23.787 22.333 23.587 22.2664 23.4004 22.133C22.9604 21.7997 22.867 21.173 23.2004 20.733C25.2937 17.9464 25.2937 14.053 23.2004 11.2664C22.867 10.8264 22.9604 10.1997 23.4004 9.86638C23.8404 9.53305 24.467 9.62638 24.8004 10.0664C27.4137 13.5597 27.4137 18.4397 24.8004 21.933C24.6004 22.1997 24.307 22.333 24.0004 22.333Z" fill="#7C8EB5"/>
<path d="M26.4398 25.6667C26.2265 25.6667 26.0265 25.6 25.8398 25.4667C25.3998 25.1334 25.3065 24.5067 25.6398 24.0667C29.1998 19.32 29.1998 12.68 25.6398 7.93337C25.3065 7.49337 25.3998 6.8667 25.8398 6.53337C26.2798 6.20004 26.9065 6.29337 27.2398 6.73337C31.3332 12.1867 31.3332 19.8134 27.2398 25.2667C27.0532 25.5334 26.7465 25.6667 26.4398 25.6667Z" fill="#7C8EB5"/>
<path d="M18.6937 5.04028C17.2003 4.21362 15.2937 4.42695 13.347 5.64028L9.45366 8.08028C9.18699 8.24028 8.88033 8.33362 8.57366 8.33362H7.33366H6.66699C3.44033 8.33362 1.66699 10.1069 1.66699 13.3336V18.6669C1.66699 21.8936 3.44033 23.6669 6.66699 23.6669H7.33366H8.57366C8.88033 23.6669 9.18699 23.7603 9.45366 23.9203L13.347 26.3603C14.5203 27.0936 15.667 27.4536 16.7337 27.4536C17.427 27.4536 18.0937 27.2936 18.6937 26.9603C20.1737 26.1336 21.0003 24.4136 21.0003 22.1203V9.88028C21.0003 7.58695 20.1737 5.86695 18.6937 5.04028Z" fill="#7C8EB5"/>
</svg>
