<svg width="17" height="16" viewBox="0 0 17 16" fill="none" xmlns="http://www.w3.org/2000/svg">
<path d="M6.02686 4.1935C5.74686 4.1935 5.52686 3.96683 5.52686 3.6935V1.8335C5.52686 1.56016 5.74686 1.3335 6.02686 1.3335C6.30686 1.3335 6.52686 1.56016 6.52686 1.8335V3.68683C6.52686 3.96683 6.30686 4.1935 6.02686 4.1935Z" fill="currentColor"/>
<path d="M10.9731 4.1935C10.6931 4.1935 10.4731 3.96683 10.4731 3.6935V1.8335C10.4731 1.5535 10.6998 1.3335 10.9731 1.3335C11.2531 1.3335 11.4731 1.56016 11.4731 1.8335V3.68683C11.4731 3.96683 11.2531 4.1935 10.9731 4.1935Z" fill="currentColor"/>
<path d="M13.5465 3.00016C13.1065 2.6735 12.4732 2.98683 12.4732 3.54016V3.60683C12.4732 4.38683 11.9132 5.10683 11.1332 5.18683C10.2332 5.28016 9.47317 4.5735 9.47317 3.6935V3.00016C9.47317 2.6335 9.17317 2.3335 8.8065 2.3335H8.19317C7.8265 2.3335 7.5265 2.6335 7.5265 3.00016V3.6935C7.5265 4.22016 7.25317 4.68683 6.83984 4.94683C6.77984 4.98683 6.71317 5.02016 6.6465 5.0535C6.5865 5.08683 6.51984 5.1135 6.4465 5.1335C6.3665 5.16016 6.27984 5.18016 6.1865 5.18683C6.07984 5.20016 5.97317 5.20016 5.8665 5.18683C5.77317 5.18016 5.6865 5.16016 5.6065 5.1335C5.53984 5.1135 5.47317 5.08683 5.4065 5.0535C5.33984 5.02016 5.27317 4.98683 5.21317 4.94683C4.79317 4.6535 4.5265 4.14683 4.5265 3.60683V3.54016C4.5265 3.02683 3.97984 2.72016 3.5465 2.94016C3.53984 2.94683 3.53317 2.94683 3.5265 2.9535C3.49984 2.96683 3.47984 2.98016 3.45317 3.00016C3.43317 3.02016 3.4065 3.0335 3.3865 3.0535C3.19984 3.20016 3.03317 3.36683 2.89317 3.54683C2.81984 3.62683 2.75984 3.7135 2.7065 3.80016C2.69984 3.80683 2.69317 3.8135 2.6865 3.82683C2.6265 3.9135 2.57317 4.0135 2.5265 4.10683C2.51317 4.12016 2.5065 4.12683 2.5065 4.14016C2.4665 4.22016 2.4265 4.30016 2.39984 4.38683C2.37984 4.42016 2.37317 4.44683 2.35984 4.48016C2.31984 4.58016 2.29317 4.68016 2.2665 4.78016C2.23984 4.8735 2.21984 4.9735 2.2065 5.0735C2.19317 5.14683 2.1865 5.22016 2.17984 5.30016C2.17317 5.3935 2.1665 5.48683 2.1665 5.58016V11.4202C2.1665 13.2135 3.61984 14.6668 5.41317 14.6668H11.5865C13.3798 14.6668 14.8332 13.2135 14.8332 11.4202V5.58016C14.8332 4.52016 14.3265 3.5935 13.5465 3.00016ZM8.49984 11.6135H5.4065C5.13317 11.6135 4.9065 11.3868 4.9065 11.1135C4.9065 10.8335 5.13317 10.6068 5.4065 10.6068H8.49984C8.77984 10.6068 8.99984 10.8335 8.99984 11.1135C8.99984 11.3868 8.77984 11.6135 8.49984 11.6135ZM10.3532 9.14016H5.4065C5.13317 9.14016 4.9065 8.9135 4.9065 8.64016C4.9065 8.36016 5.13317 8.1335 5.4065 8.1335H10.3532C10.6332 8.1335 10.8598 8.36016 10.8598 8.64016C10.8598 8.9135 10.6332 9.14016 10.3532 9.14016Z" fill="currentColor"/>
</svg>
