<svg width="16" height="16" viewBox="0 0 16 16" fill="none" xmlns="http://www.w3.org/2000/svg">
<path d="M10.7935 1.3335H5.20683C2.78016 1.3335 1.3335 2.78016 1.3335 5.20683V10.7868C1.3335 13.2202 2.78016 14.6668 5.20683 14.6668H10.7868C13.2135 14.6668 14.6602 13.2202 14.6602 10.7935V5.20683C14.6668 2.78016 13.2202 1.3335 10.7935 1.3335ZM11.7802 6.14683C11.6535 6.3935 11.3602 6.4935 11.1068 6.3735C10.2868 5.96016 9.40016 5.7335 8.50016 5.66683V10.8602C8.50016 11.1335 8.2735 11.3602 8.00016 11.3602C7.72683 11.3602 7.50016 11.1335 7.50016 10.8602V5.66683C6.60016 5.7335 5.7135 5.96016 4.8935 6.3735C4.82016 6.40683 4.74016 6.42016 4.66683 6.42016C4.48683 6.42016 4.30683 6.32016 4.22016 6.14683C4.0935 5.90016 4.1935 5.60016 4.44016 5.4735C6.66683 4.36016 9.32683 4.36016 11.5535 5.4735C11.8068 5.60016 11.9068 5.90016 11.7802 6.14683Z" fill="currentColor"/>
</svg>
