<svg width="33" height="32" viewBox="0 0 33 32" fill="none" xmlns="http://www.w3.org/2000/svg">
<path d="M20.14 2.6665H12.86V8.47984H20.14V2.6665Z" fill="white"/>
<path d="M22.14 2.6665V8.47984H29.66C28.98 4.81317 26.2733 2.67984 22.14 2.6665Z" fill="white"/>
<path d="M3.16663 10.48V21.5866C3.16663 26.44 6.05996 29.3333 10.9133 29.3333H22.0866C26.94 29.3333 29.8333 26.44 29.8333 21.5866V10.48H3.16663ZM19.7533 21.5733L16.98 23.1733C16.3933 23.5066 15.82 23.68 15.2866 23.68C14.8866 23.68 14.5266 23.5866 14.1933 23.4C13.42 22.96 12.9933 22.0533 12.9933 20.88V17.68C12.9933 16.5066 13.42 15.6 14.1933 15.16C14.9666 14.7066 15.9533 14.7866 16.98 15.3866L19.7533 16.9866C20.78 17.5733 21.34 18.4 21.34 19.2933C21.34 20.1866 20.7666 20.9733 19.7533 21.5733Z" fill="white"/>
<path d="M10.86 2.6665C6.72663 2.67984 4.01997 4.81317 3.33997 8.47984H10.86V2.6665Z" fill="white"/>
</svg>
