<svg width="800" height="900" viewBox="0 0 800 900" fill="none" xmlns="http://www.w3.org/2000/svg">
<g clip-path="url(#clip0_120_1056)">
<path d="M0 48C0 21.4903 21.4903 0 48 0H800V900H48C21.4903 900 0 878.51 0 852V48Z" fill="#F3F5F9"/>
<path d="M88.3854 68.4703C86.9129 68.4703 85.622 68.3182 84.5126 68.0141C83.4032 67.6883 82.4753 67.2214 81.729 66.6132C81.0028 66.005 80.4481 65.2774 80.0648 64.4303C79.7018 63.5615 79.5001 62.5949 79.4597 61.5306H84.9059C84.9866 61.9433 85.1076 62.3017 85.269 62.6058C85.4505 62.9099 85.6825 63.1597 85.9649 63.3551C86.2473 63.5506 86.5801 63.6918 86.9634 63.7787C87.3668 63.8656 87.8408 63.909 88.3854 63.909C88.9704 63.909 89.4747 63.8656 89.8983 63.7787C90.342 63.6918 90.7051 63.5615 90.9875 63.3877C91.2901 63.214 91.5119 62.9968 91.6531 62.7361C91.7943 62.4755 91.8649 62.1714 91.8649 61.8239C91.8649 61.3677 91.754 60.9985 91.5321 60.7161C91.3102 60.412 90.9875 60.1514 90.5639 59.9342C90.1403 59.6953 89.6159 59.4889 88.9906 59.3152C88.3653 59.1414 87.6391 58.9568 86.8121 58.7613C85.7632 58.5007 84.8151 58.1857 83.968 57.8165C83.1409 57.4472 82.435 56.9911 81.85 56.4481C81.2852 55.8834 80.8414 55.21 80.5187 54.4281C80.2161 53.6245 80.0648 52.6688 80.0648 51.561C80.0648 50.4967 80.2565 49.5519 80.6397 48.7265C81.023 47.8795 81.5777 47.1735 82.3038 46.6088C83.03 46.0224 83.9074 45.5771 84.9362 45.273C85.9649 44.9689 87.1146 44.8169 88.3854 44.8169C89.7772 44.8169 90.9875 44.9689 92.0162 45.273C93.0449 45.5554 93.9022 45.9789 94.588 46.5437C95.294 47.1084 95.8286 47.8034 96.1916 48.6288C96.5749 49.4542 96.7968 50.3881 96.8573 51.4307H91.4111C91.3506 51.0832 91.2497 50.7791 91.1085 50.5185C90.9673 50.2578 90.7757 50.0515 90.5336 49.8994C90.2916 49.7257 89.989 49.5954 89.6259 49.5085C89.283 49.4216 88.8695 49.3782 88.3854 49.3782C87.8408 49.3782 87.387 49.4325 87.0239 49.5411C86.6608 49.6279 86.3683 49.7583 86.1464 49.932C85.9245 50.1058 85.7632 50.3121 85.6623 50.551C85.5615 50.79 85.511 51.0615 85.511 51.3656C85.511 51.7565 85.6119 52.0932 85.8136 52.3755C86.0153 52.6579 86.3078 52.9077 86.6911 53.1249C87.0743 53.3204 87.5483 53.4941 88.1131 53.6462C88.6779 53.7982 89.3234 53.9611 90.0495 54.1349C91.1388 54.3738 92.1272 54.667 93.0147 55.0146C93.9224 55.3404 94.6889 55.7856 95.3142 56.3504C95.9597 56.8934 96.4539 57.5667 96.7968 58.3703C97.1397 59.1523 97.3111 60.1188 97.3111 61.27C97.3111 62.3995 97.1094 63.4094 96.706 64.3C96.3026 65.1905 95.7176 65.9507 94.9511 66.5806C94.1846 67.1888 93.2467 67.6558 92.1372 67.9816C91.0278 68.3074 89.7772 68.4703 88.3854 68.4703Z" fill="#031C3D"/>
<path d="M100.032 74.5628V50.7791H104.328V53.1249C104.53 52.7774 104.782 52.4407 105.085 52.1149C105.407 51.7674 105.781 51.4633 106.204 51.2027C106.628 50.942 107.102 50.7357 107.626 50.5836C108.151 50.4316 108.716 50.3556 109.321 50.3556C110.45 50.3556 111.439 50.5402 112.286 50.9094C113.153 51.257 113.879 51.7891 114.464 52.5059C115.049 53.2226 115.483 54.1132 115.765 55.1775C116.068 56.2418 116.219 57.4907 116.219 58.9242V59.5758C116.219 61.0311 116.058 62.3234 115.735 63.4529C115.412 64.5606 114.948 65.4837 114.343 66.2222C113.738 66.9607 113.012 67.5254 112.165 67.9164C111.318 68.2856 110.37 68.4703 109.321 68.4703C108.413 68.4703 107.546 68.2531 106.719 67.8187C105.912 67.3625 105.236 66.7109 104.691 65.8638V74.5628H100.032ZM108.201 64.3326C108.665 64.3326 109.089 64.2348 109.472 64.0393C109.875 63.8221 110.218 63.518 110.501 63.1271C110.803 62.7361 111.035 62.2474 111.197 61.661C111.358 61.0528 111.439 60.3577 111.439 59.5758V58.9242C111.439 58.164 111.358 57.5124 111.197 56.9694C111.055 56.4047 110.833 55.9485 110.531 55.601C110.249 55.2318 109.906 54.9603 109.502 54.7865C109.119 54.591 108.685 54.4933 108.201 54.4933C107.717 54.4933 107.253 54.5802 106.809 54.7539C106.386 54.906 106.013 55.1557 105.69 55.5033C105.387 55.8291 105.145 56.2418 104.964 56.7413C104.782 57.2192 104.691 57.7839 104.691 58.4355V60.0645C104.691 60.7379 104.782 61.346 104.964 61.889C105.145 62.4103 105.387 62.8556 105.69 63.2248C106.013 63.5941 106.386 63.8764 106.809 64.0719C107.253 64.2457 107.717 64.3326 108.201 64.3326Z" fill="#031C3D"/>
<path d="M126.362 68.4703C125.192 68.4703 124.093 68.2965 123.064 67.949C122.056 67.5797 121.178 67.0259 120.432 66.2874C119.686 65.5489 119.101 64.6258 118.677 63.518C118.253 62.3886 118.042 61.0745 118.042 59.5758V58.9242C118.042 57.4907 118.243 56.2418 118.647 55.1775C119.07 54.1132 119.635 53.2226 120.341 52.5059C121.067 51.7891 121.914 51.257 122.883 50.9094C123.871 50.5402 124.93 50.3556 126.06 50.3556C128.702 50.3556 130.699 51.0941 132.05 52.571C133.402 54.0263 134.078 56.144 134.078 58.9242V60.7161H122.822C122.842 61.3895 122.953 61.965 123.155 62.4429C123.357 62.899 123.619 63.2791 123.942 63.5832C124.264 63.8873 124.638 64.1154 125.061 64.2674C125.485 64.3977 125.918 64.4629 126.362 64.4629C127.27 64.4629 127.976 64.3217 128.48 64.0393C128.984 63.7352 129.317 63.3334 129.479 62.8339H133.775C133.614 63.7678 133.331 64.5932 132.928 65.31C132.524 66.005 132.01 66.5915 131.385 67.0693C130.76 67.5472 130.023 67.8947 129.176 68.1119C128.329 68.3508 127.391 68.4703 126.362 68.4703ZM122.852 57.4255H129.509C129.509 56.8173 129.418 56.3178 129.237 55.9268C129.075 55.5358 128.843 55.2209 128.541 54.982C128.238 54.7431 127.885 54.5802 127.482 54.4933C127.078 54.3847 126.655 54.3304 126.211 54.3304C125.787 54.3304 125.374 54.3847 124.97 54.4933C124.587 54.6019 124.234 54.7865 123.911 55.0471C123.609 55.2861 123.357 55.601 123.155 55.992C122.973 56.3829 122.873 56.8608 122.852 57.4255Z" fill="#031C3D"/>
<path d="M144.209 68.4703C143.039 68.4703 141.94 68.2965 140.911 67.949C139.902 67.5797 139.025 67.0259 138.279 66.2874C137.532 65.5489 136.947 64.6258 136.524 63.518C136.1 62.3886 135.888 61.0745 135.888 59.5758V58.9242C135.888 57.4907 136.09 56.2418 136.493 55.1775C136.917 54.1132 137.482 53.2226 138.188 52.5059C138.914 51.7891 139.761 51.257 140.729 50.9094C141.718 50.5402 142.777 50.3556 143.906 50.3556C146.549 50.3556 148.546 51.0941 149.897 52.571C151.249 54.0263 151.924 56.144 151.924 58.9242V60.7161H140.669C140.689 61.3895 140.8 61.965 141.002 62.4429C141.203 62.899 141.466 63.2791 141.788 63.5832C142.111 63.8873 142.484 64.1154 142.908 64.2674C143.331 64.3977 143.765 64.4629 144.209 64.4629C145.117 64.4629 145.823 64.3217 146.327 64.0393C146.831 63.7352 147.164 63.3334 147.325 62.8339H151.622C151.46 63.7678 151.178 64.5932 150.775 65.31C150.371 66.005 149.857 66.5915 149.231 67.0693C148.606 67.5472 147.87 67.8947 147.023 68.1119C146.176 68.3508 145.238 68.4703 144.209 68.4703ZM140.699 57.4255H147.356C147.356 56.8173 147.265 56.3178 147.083 55.9268C146.922 55.5358 146.69 55.2209 146.387 54.982C146.085 54.7431 145.732 54.5802 145.328 54.4933C144.925 54.3847 144.501 54.3304 144.058 54.3304C143.634 54.3304 143.221 54.3847 142.817 54.4933C142.434 54.6019 142.081 54.7865 141.758 55.0471C141.456 55.2861 141.203 55.601 141.002 55.992C140.82 56.3829 140.719 56.8608 140.699 57.4255Z" fill="#031C3D"/>
<path d="M161.904 68.4703C160.714 68.4703 159.615 68.2856 158.606 67.9164C157.618 67.5472 156.761 66.9933 156.035 66.2548C155.308 65.5163 154.744 64.5932 154.34 63.4855C153.937 62.3777 153.735 61.0745 153.735 59.5758V58.9242C153.735 57.5558 153.947 56.3395 154.37 55.2752C154.814 54.2109 155.399 53.3204 156.125 52.6036C156.872 51.8651 157.739 51.3113 158.727 50.942C159.736 50.551 160.795 50.3556 161.904 50.3556C163.115 50.3556 164.174 50.5293 165.081 50.8769C166.009 51.2244 166.786 51.7022 167.411 52.3104C168.036 52.8968 168.52 53.5919 168.863 54.3955C169.206 55.1992 169.408 56.0571 169.468 56.9694H164.688C164.607 56.5784 164.496 56.2309 164.355 55.9268C164.214 55.6227 164.022 55.3729 163.78 55.1775C163.558 54.9603 163.296 54.7974 162.994 54.6888C162.691 54.5802 162.328 54.5259 161.904 54.5259C161.42 54.5259 160.966 54.6236 160.543 54.8191C160.139 54.9928 159.786 55.2643 159.484 55.6336C159.181 55.9811 158.939 56.4372 158.758 57.002C158.596 57.545 158.516 58.1857 158.516 58.9242V59.5758C158.516 60.3795 158.596 61.0745 158.758 61.661C158.919 62.2474 159.141 62.7361 159.423 63.1271C159.726 63.518 160.089 63.8113 160.512 64.0068C160.936 64.1805 161.4 64.2674 161.904 64.2674C162.61 64.2674 163.205 64.0719 163.689 63.6809C164.194 63.2683 164.527 62.6601 164.688 61.8564H169.468C169.408 62.8773 169.186 63.8004 168.803 64.6258C168.42 65.4294 167.895 66.1245 167.229 66.7109C166.584 67.2757 165.807 67.7101 164.9 68.0141C164.012 68.3182 163.014 68.4703 161.904 68.4703Z" fill="#031C3D"/>
<path d="M171.744 68.0467V45.2404H176.403V52.962C176.564 52.6796 176.786 52.3864 177.069 52.0823C177.351 51.7782 177.694 51.4959 178.097 51.2352C178.521 50.9746 179.005 50.7682 179.55 50.6162C180.094 50.4424 180.7 50.3556 181.365 50.3556C183.302 50.3556 184.754 50.9203 185.722 52.0497C186.69 53.1575 187.174 54.7322 187.174 56.7739V68.0467H182.515V57.9468C182.515 56.8173 182.283 55.9703 181.819 55.4055C181.375 54.8191 180.639 54.5259 179.61 54.5259C179.046 54.5259 178.561 54.6127 178.158 54.7865C177.755 54.9603 177.422 55.1992 177.16 55.5033C176.897 55.8074 176.706 56.1657 176.585 56.5784C176.464 56.9911 176.403 57.4472 176.403 57.9468V68.0467H171.744Z" fill="#031C3D"/>
<path d="M206.242 68.4703C204.83 68.4703 203.549 68.2748 202.399 67.8838C201.27 67.4711 200.302 66.8738 199.495 66.0919C198.708 65.2882 198.093 64.2891 197.649 63.0945C197.226 61.8999 197.014 60.5098 197.014 58.9242V45.2404H202.46V58.24C202.46 59.1088 202.521 59.8799 202.642 60.5532C202.783 61.2266 203.005 61.7913 203.307 62.2474C203.61 62.6818 204.003 63.0185 204.487 63.2574C204.971 63.4746 205.556 63.5832 206.242 63.5832C206.968 63.5832 207.573 63.4746 208.057 63.2574C208.542 63.0185 208.925 62.6818 209.207 62.2474C209.51 61.7913 209.722 61.2374 209.843 60.5858C209.964 59.9125 210.024 59.1414 210.024 58.2726V45.2404H215.47V58.9242C215.47 60.5098 215.259 61.8999 214.835 63.0945C214.411 64.2891 213.796 65.2882 212.989 66.0919C212.203 66.8738 211.234 67.4711 210.085 67.8838C208.955 68.2748 207.674 68.4703 206.242 68.4703Z" fill="#031C3D"/>
<path d="M218.813 74.5628V50.7791H223.109V53.1249C223.311 52.7774 223.563 52.4407 223.866 52.1149C224.188 51.7674 224.562 51.4633 224.985 51.2027C225.409 50.942 225.883 50.7357 226.407 50.5836C226.932 50.4316 227.496 50.3556 228.102 50.3556C229.231 50.3556 230.219 50.5402 231.067 50.9094C231.934 51.257 232.66 51.7891 233.245 52.5059C233.83 53.2226 234.264 54.1132 234.546 55.1775C234.849 56.2418 235 57.4907 235 58.9242V59.5758C235 61.0311 234.839 62.3234 234.516 63.4529C234.193 64.5606 233.729 65.4837 233.124 66.2222C232.519 66.9607 231.793 67.5254 230.946 67.9164C230.098 68.2856 229.15 68.4703 228.102 68.4703C227.194 68.4703 226.326 68.2531 225.499 67.8187C224.693 67.3625 224.017 66.7109 223.472 65.8638V74.5628H218.813ZM226.982 64.3326C227.446 64.3326 227.87 64.2348 228.253 64.0393C228.656 63.8221 228.999 63.518 229.282 63.1271C229.584 62.7361 229.816 62.2474 229.977 61.661C230.139 61.0528 230.219 60.3577 230.219 59.5758V58.9242C230.219 58.164 230.139 57.5124 229.977 56.9694C229.836 56.4047 229.614 55.9485 229.312 55.601C229.029 55.2318 228.686 54.9603 228.283 54.7865C227.9 54.591 227.466 54.4933 226.982 54.4933C226.498 54.4933 226.034 54.5802 225.59 54.7539C225.167 54.906 224.793 55.1557 224.471 55.5033C224.168 55.8291 223.926 56.2418 223.745 56.7413C223.563 57.2192 223.472 57.7839 223.472 58.4355V60.0645C223.472 60.7379 223.563 61.346 223.745 61.889C223.926 62.4103 224.168 62.8556 224.471 63.2248C224.793 63.5941 225.167 63.8764 225.59 64.0719C226.034 64.2457 226.498 64.3326 226.982 64.3326Z" fill="#031C3D"/>
<path d="M65.6896 50.1526C69.4558 52.7087 69.4558 58.6214 65.6896 61.1776L49.278 72.3161C45.2483 75.0509 40 71.9326 40 66.8036L40 44.5266C40 39.3975 45.2484 36.2792 49.278 39.0141L65.6896 50.1526Z" fill="url(#paint0_linear_120_1056)"/>
<rect width="2.31422" height="5.5446" rx="1.15711" transform="matrix(-1 0 0 1 45.3892 52.9111)" fill="white"/>
<rect width="2.31422" height="18.8143" rx="1.15711" transform="matrix(-1 0 0 1 49.2537 46.2759)" fill="white"/>
<rect width="2.31422" height="10.84" rx="1.15711" transform="matrix(-1 0 0 1 53.1183 50.2632)" fill="white"/>
<rect width="2.31422" height="15.3878" rx="1.15711" transform="matrix(-1 0 0 1 56.9822 47.9893)" fill="white"/>
<rect width="2.25636" height="5.5446" rx="1.12818" transform="matrix(-1 0 0 1 60.7889 52.9111)" fill="white"/>
<path d="M303.198 289.547C297.233 293.829 290.631 296.712 283.332 296.385C257.195 295.211 235.074 285.367 220.415 263.118C210.427 247.958 207.637 230.68 210.572 212.466C212.448 200.837 216.195 190.207 222.927 180.518C224.863 177.731 226.33 174.406 227.19 171.114C231.363 155.163 240.244 143.463 256.177 137.851C262.874 135.492 269.664 133.382 276.292 130.85C284.98 127.534 293.793 124.411 302.106 120.302C312.754 115.032 321.035 106.449 329.638 98.4366C335.867 92.6339 342.809 87.8731 350.953 85.4949C355.298 84.2256 360.219 83.6235 364.666 84.2495C379.772 86.3743 392.36 93.5068 402.222 105.231C404.693 108.168 407.002 111.251 409.313 114.318C418.621 126.67 418.168 140.409 415.571 154.735C412.755 170.275 403.093 181.649 393.183 192.752C385.921 200.891 377.697 208.193 369.689 215.644C353.947 230.297 340.163 246.656 326.963 263.575C321.955 269.995 316.549 276.111 311.125 282.191C308.739 284.868 305.858 287.108 303.198 289.547Z" fill="#FFB800"/>
<path d="M592.624 707.796C535.254 672.916 469.805 635.786 412.972 586.11C398.375 573.354 383.032 568.243 365.405 571.706C344.727 575.767 323.376 579.82 304.394 588.445C245.399 615.251 194.111 602.578 145.99 563.319C120.468 542.498 94.537 522.209 82.0848 490.335C76.5052 476.052 71.1834 461.317 68.5431 446.296C59.6388 395.593 49.2573 344.916 44.6915 293.76C40.8295 250.449 52.9373 209.503 85.5135 177.531C124.835 138.945 190.089 133.038 240.911 163.329C276.03 184.259 309.711 208.074 346.303 225.952C409.509 256.832 477.109 273.785 547.343 280.909C598.581 286.107 649.886 292.3 698.835 309.896C798.158 345.602 866.96 409.865 889.146 516.365C897.559 556.761 896.405 598.824 880.476 635.96C860.568 682.368 825.205 716.924 773.317 729.549C713.332 744.146 655.724 736.385 592.624 707.796Z" fill="#D4DFF4"/>
<path d="M788.25 728.217C795.994 721.687 803.527 714.89 811.528 708.695C821.871 700.683 832.698 693.304 843.108 685.376C857.395 674.499 871.511 663.392 885.631 652.293C887.294 650.987 888.555 649.153 889.941 647.511C891.16 646.064 892.399 644.478 894.528 645.533C896.651 646.586 896.333 648.6 895.698 650.372C889.7 667.111 882.921 683.381 871.627 697.497C857.258 715.46 841.317 731.663 821.901 744.157C817.026 747.293 811.686 749.717 806.518 752.389C800.564 755.472 794.679 758.733 788.547 761.415C782.641 763.997 776.483 766.028 770.377 768.138C766.472 769.488 763.156 768.4 759.662 766.013C747.901 757.964 742.564 745.913 738.336 733.108C736.91 728.793 735.923 724.336 734.734 719.943C730.044 702.654 732.925 685.849 738.262 669.298C739.791 664.553 742.304 660.125 744.353 655.549C744.771 654.613 745.204 653.679 745.509 652.703C746.246 650.346 748.401 649.46 750.054 651.21C751.461 652.7 752.822 654.626 753.277 656.573C757.678 675.463 761.884 694.398 766.145 713.32C766.37 714.316 766.589 715.314 766.911 716.781C767.364 716.025 767.654 715.698 767.773 715.321C773.626 696.672 783.544 680.237 795.777 665.215C802.52 656.935 809.967 649.213 817.305 641.437C819.687 638.912 822.69 636.952 825.503 634.859C827.084 633.683 828.917 632.994 830.879 634.032C832.872 635.087 833.366 637.047 833.069 638.97C832.612 641.946 832.166 645.039 830.979 647.766C819.217 674.817 806.709 701.485 789.611 725.709C789.067 726.482 788.565 727.281 788.043 728.068L788.25 728.217Z" fill="#FFB800"/>
<path d="M736.86 159.662C749.248 146.339 762.713 134.112 779.651 127.138C790.154 122.812 801.508 120.102 812.732 118.099C824.286 116.037 836.151 115.706 847.88 114.64C848.843 114.551 849.942 114.382 850.771 114.735C852.047 115.275 853.836 116.041 854.126 117.07C854.432 118.16 853.281 119.691 852.668 120.984C852.508 121.318 851.993 121.506 851.614 121.712C835.072 130.644 819.661 141.764 801.809 148.171C788.579 152.917 775.146 157.091 761.845 161.652C755.1 163.968 748.418 166.48 741.779 169.09C738.348 170.44 735.842 170.258 733.967 167.682C731.985 164.964 734.051 163.073 735.591 161.137C735.996 160.63 736.436 160.151 736.86 159.662Z" fill="#2477F4"/>
<path d="M756.861 195.628C751.578 203.423 744.106 208.455 735.663 212.172C731.311 214.086 729.059 212.91 728.281 208.182C727.14 201.24 729.914 195.145 733.482 189.537C740.259 178.883 750.805 172.859 761.854 167.667C763.049 167.106 765.529 167.336 766.251 168.187C767.245 169.361 767.765 171.627 767.392 173.158C765.399 181.322 761.893 188.85 756.861 195.628Z" fill="#2477F4"/>
<path d="M765.126 202.145C774.57 189.455 785.904 180.67 800.336 176.11C801.157 175.853 802.041 175.352 802.818 175.469C804.111 175.666 805.926 175.926 806.448 176.801C807.072 177.845 807.092 179.892 806.442 180.919C805.261 182.788 803.572 184.456 801.787 185.803C789.98 194.727 778.096 203.545 766.231 212.39C765.8 212.713 765.33 213.213 764.87 213.222C763.564 213.252 761.797 213.54 761.076 212.839C760.363 212.146 760.181 210.099 760.683 209.115C762.05 206.436 763.902 204.006 765.126 202.145Z" fill="#2477F4"/>
<path d="M755.938 378.54C755.354 376.692 754.271 375.094 754.684 374.163C755.392 372.568 756.907 371.232 758.312 370.069C783.286 349.427 808.29 328.824 833.296 308.224C834.929 306.879 836.51 305.397 838.343 304.401C839.263 303.901 840.702 304.349 841.906 304.368C841.704 305.655 841.849 307.154 841.213 308.168C840.481 309.337 839.06 310.074 837.938 311.003C811.775 332.695 785.612 354.389 759.441 376.073C758.648 376.727 757.753 377.266 755.938 378.54Z" fill="#FFB800"/>
<path d="M780.451 397.01C779.989 394.95 779.136 393.399 779.519 392.262C779.981 390.893 781.378 389.741 782.565 388.725C804.839 369.673 827.123 350.625 849.489 331.677C851.165 330.254 853.39 327.034 855.718 330.014C857.832 332.719 854.362 334.021 852.725 335.433C829.835 355.185 806.901 374.889 783.964 394.588C783.195 395.251 782.287 395.754 780.451 397.01Z" fill="#FFB800"/>
<path d="M749.388 366.428C748.922 364.262 748.101 362.724 748.467 361.556C748.903 360.166 750.209 358.923 751.387 357.905C772.889 339.377 794.416 320.884 815.974 302.428C817.469 301.152 819.147 299.958 820.945 299.233C821.866 298.86 823.479 299.309 824.3 299.978C824.694 300.296 824.064 302.018 823.711 303.043C823.564 303.463 822.938 303.729 822.516 304.043C797.865 322.331 775.161 342.881 752.856 363.898C752.126 364.587 751.229 365.096 749.388 366.428Z" fill="#FFB800"/>
<path d="M768.795 385.041C767.933 384.549 766.885 384.302 766.711 383.769C766.423 382.888 766.315 381.514 766.809 380.891C768.028 379.364 769.553 378.044 771.1 376.823C792.954 359.543 814.815 342.269 836.77 325.115C837.803 324.307 839.722 324.629 841.227 324.424C840.712 325.985 840.681 328.136 839.605 329.013C828.054 338.455 816.347 347.708 804.664 356.987C793.699 365.692 782.718 374.367 771.732 383.039C770.824 383.756 769.817 384.35 768.795 385.041Z" fill="#FFB800"/>
<path d="M807.17 298.126C806.025 299.309 805.052 300.483 803.913 301.46C787.681 315.402 771.358 329.239 755.224 343.296C751.769 346.306 749.081 350.183 745.83 353.458C744.916 354.379 743.263 354.57 741.953 355.094C741.864 353.558 741.271 351.808 741.808 350.539C742.551 348.782 744.021 347.266 745.395 345.856C762.679 328.119 781.564 312.205 801.236 297.212C802.338 296.374 804.041 296.201 805.498 296.032C805.884 295.989 806.404 297.128 807.17 298.126Z" fill="#FFB800"/>
<path d="M20.8459 749.596C18.9962 750.178 17.3999 751.261 16.4664 750.85C14.8744 750.141 13.538 748.627 12.3749 747.219C-8.26904 722.248 -28.8696 697.241 -49.4702 672.235C-50.8153 670.602 -52.299 669.023 -53.2953 667.191C-53.7935 666.268 -53.3451 664.832 -53.3257 663.626C-52.0412 663.827 -50.5402 663.684 -49.5287 664.321C-48.3569 665.053 -47.6226 666.476 -46.6934 667.594C-24.999 693.756 -3.30681 719.921 18.3768 746.093C19.0352 746.886 19.5724 747.778 20.8459 749.596Z" fill="#FFB800"/>
<path d="M39.3133 725.081C37.2556 725.542 35.7026 726.396 34.5676 726.014C33.1987 725.551 32.0486 724.158 31.0306 722.969C11.9765 700.694 -7.07102 678.411 -26.019 656.043C-27.4398 654.366 -30.6628 652.144 -27.6825 649.813C-24.9772 647.699 -23.6754 651.169 -22.2632 652.807C-2.50951 675.699 17.1922 698.632 36.8939 721.568C37.5567 722.339 38.0592 723.246 39.3133 725.081Z" fill="#FFB800"/>
<path d="M8.73438 756.143C6.5684 756.609 5.03061 757.43 3.86316 757.063C2.47043 756.629 1.22714 755.325 0.209133 754.145C-18.3164 732.645 -36.8096 711.117 -55.268 689.557C-56.5437 688.067 -57.7372 686.384 -58.4628 684.586C-58.8332 683.666 -58.3848 682.052 -57.7177 681.231C-57.3971 680.839 -55.673 681.469 -54.6528 681.822C-54.2305 681.967 -53.964 682.593 -53.6521 683.016C-35.3626 707.667 -14.8119 730.373 6.20458 752.677C6.8912 753.408 7.4023 754.304 8.73438 756.143Z" fill="#FFB800"/>
<path d="M27.3464 736.736C26.8526 737.6 26.6078 738.646 26.075 738.82C25.1934 739.108 23.8202 739.22 23.1964 738.722C21.6694 737.505 20.3482 735.98 19.1287 734.434C1.84644 712.577 -15.4251 690.716 -32.5796 668.761C-33.3875 667.728 -33.0669 665.809 -33.2727 664.306C-31.711 664.819 -29.5602 664.852 -28.6808 665.926C-19.2393 677.479 -9.98846 689.184 -0.707268 700.872C7.99562 711.832 16.6725 722.815 25.345 733.801C26.062 734.711 26.6533 735.716 27.3464 736.736Z" fill="#FFB800"/>
<path d="M922.914 876.26C922.914 889.23 692.06 899.741 407.287 899.741C122.511 899.741 -108.343 889.23 -108.343 876.26C-108.343 863.292 122.511 852.778 407.287 852.778C692.06 852.778 922.914 863.292 922.914 876.26Z" fill="#7C8EB5"/>
<path d="M743.043 871.371C743.656 871.371 744.275 871.263 744.879 871.022C747.457 870.01 748.722 867.097 747.708 864.52L647.415 609.702C646.399 607.122 643.49 605.855 640.913 606.871C638.335 607.884 637.068 610.798 638.082 613.373L738.375 868.193C739.155 870.169 741.043 871.371 743.043 871.371Z" fill="#19336C"/>
<path d="M477.299 871.371C479.3 871.371 481.189 870.169 481.967 868.193L582.26 613.373C583.276 610.798 582.009 607.884 579.429 606.871C576.856 605.857 573.942 607.122 572.927 609.702L472.635 864.52C471.62 867.097 472.887 870.01 475.464 871.022C476.066 871.26 476.688 871.371 477.299 871.371Z" fill="#19336C"/>
<path d="M523.705 753.472C524.256 753.472 524.814 753.381 525.362 753.189L677.334 699.927C679.948 699.009 681.323 696.15 680.407 693.535C679.493 690.923 676.63 689.546 674.015 690.462L522.046 743.723C519.432 744.639 518.057 747.501 518.973 750.115C519.696 752.179 521.635 753.472 523.705 753.472Z" fill="#19336C"/>
<path d="M696.648 753.472C698.718 753.472 700.655 752.179 701.38 750.115C702.296 747.501 700.919 744.639 698.304 743.723L546.336 690.462C543.721 689.546 540.862 690.923 539.946 693.535C539.03 696.15 540.405 699.009 543.019 699.927L694.988 753.189C695.536 753.381 696.097 753.472 696.648 753.472Z" fill="#19336C"/>
<path d="M555.599 871.371C556.212 871.371 556.833 871.263 557.435 871.022C560.011 870.01 561.278 867.097 560.266 864.52L459.971 609.702C458.955 607.122 456.044 605.855 453.469 606.871C450.893 607.884 449.624 610.798 450.638 613.373L550.933 868.193C551.709 870.169 553.602 871.371 555.599 871.371Z" fill="#19336C"/>
<path d="M289.858 871.371C291.857 871.371 293.748 870.169 294.524 868.193L394.819 613.373C395.833 610.798 394.566 607.884 391.988 606.871C389.411 605.857 386.499 607.122 385.486 609.702L285.193 864.52C284.179 867.097 285.446 870.01 288.021 871.022C288.626 871.26 289.247 871.371 289.858 871.371Z" fill="#19336C"/>
<path d="M336.262 753.472C336.814 753.472 337.371 753.381 337.921 753.189L489.89 699.927C492.504 699.009 493.88 696.15 492.963 693.535C492.049 690.923 489.186 689.546 486.572 690.462L334.603 743.723C331.99 744.641 330.613 747.501 331.529 750.115C332.252 752.179 334.191 753.472 336.262 753.472Z" fill="#19336C"/>
<path d="M509.202 753.472C511.275 753.472 513.213 752.179 513.937 750.115C514.853 747.501 513.475 744.639 510.863 743.723L358.892 690.462C356.278 689.546 353.418 690.923 352.502 693.535C351.586 696.15 352.962 699.009 355.576 699.927L507.545 753.189C508.095 753.381 508.654 753.472 509.202 753.472Z" fill="#19336C"/>
<path d="M330.325 580.504C315.817 599.98 323.219 627.926 345.487 637.612C413.563 667.227 552.5 712.238 650.356 640.867C655.698 636.973 660.92 632.736 665.997 628.116C667.747 626.535 669.478 624.906 671.189 623.232C769.541 527.11 675.542 381.085 647.211 341.976C642.942 336.085 635.136 333.942 628.489 336.901L628.376 336.951C627.046 337.534 625.716 338.123 624.395 338.716C473.795 406.628 374.199 521.596 330.325 580.504Z" fill="#2477F4"/>
<path d="M665.113 404.116C682.566 439.079 701.726 491.396 693.918 542.034C687.115 586.148 671.199 618.025 650.356 640.867C655.697 636.973 660.919 632.736 665.996 628.116C682.265 604.93 693.065 576.382 698.254 542.697C701.791 519.785 700.284 494.686 693.797 468.09C688.618 446.872 680.277 424.662 668.994 402.071C650.683 365.41 630.388 339.489 628.376 336.951C627.046 337.534 625.716 338.123 624.395 338.716C624.468 338.993 624.607 339.262 624.802 339.502C625.008 339.765 646.132 366.092 665.113 404.116Z" fill="#19336C"/>
<path d="M594.879 411.407C594.879 411.407 639.81 551.136 600.959 601.28C565.732 646.751 497.159 649.85 386.071 597.288C370.047 589.708 362.661 584.063 371.782 569.872C444.825 484.318 518.678 414.439 594.879 411.407Z" fill="#19336C"/>
<path d="M291.396 476.793C292.375 488.267 301.989 496.928 313.302 496.928C313.933 496.928 314.558 496.902 315.197 496.852C331.33 495.475 346.398 493.614 360.36 491.271C361.068 491.156 361.779 491.037 362.474 490.909C382.988 487.378 401.055 482.815 416.485 477.233C440.016 468.725 455.282 458.736 461.858 447.531C489.162 400.969 514.32 338.446 515.377 335.806C519.899 324.523 514.419 311.705 503.135 307.182C491.846 302.666 479.036 308.146 474.511 319.431C474.39 319.736 468.221 335.052 458.912 355.746C453.608 367.524 447.281 381.051 440.477 394.543C440.116 395.247 439.76 395.948 439.405 396.652C434.575 406.137 429.526 415.57 424.43 424.31C422.229 426.335 414.063 431.739 396.922 437.418C394.002 438.384 390.95 439.322 387.768 440.217C386.766 440.5 385.75 440.784 384.73 441.055C370.49 444.895 353.897 448.049 335.568 450.414C334.81 450.52 334.041 450.613 333.268 450.713C326.233 451.584 318.955 452.344 311.457 452.983C299.343 454.02 290.358 464.679 291.396 476.793Z" fill="#FFB800"/>
<path d="M439.405 396.652C446.237 406.052 450.922 416.804 453.224 428.271C453.486 429.614 455.546 429.04 455.275 427.703C452.854 415.617 447.807 404.356 440.477 394.542C440.116 395.246 439.76 395.948 439.405 396.652Z" fill="#E3A70C"/>
<path d="M333.268 450.712C340.165 461.553 356.574 461.674 367.595 457.371C376.252 453.992 383.222 447.862 387.768 440.216C386.766 440.5 385.75 440.784 384.73 441.054C380.852 446.814 375.427 451.533 368.853 454.544C358.989 459.06 342.549 460.262 335.568 450.413C334.81 450.52 334.041 450.613 333.268 450.712Z" fill="#E3A70C"/>
<path d="M331.195 463.102C344.46 467.86 355.103 478.389 360.36 491.27C361.068 491.155 361.779 491.036 362.474 490.908C357.037 477.239 345.881 466.106 331.765 461.042C330.465 460.58 329.911 462.638 331.195 463.102Z" fill="#E3A70C"/>
<path d="M425.455 424.442C430.237 426.742 434.199 430.199 437.192 434.572C437.97 435.709 436.124 436.775 435.355 435.648C432.563 431.572 428.827 428.423 424.378 426.281C423.144 425.687 424.224 423.848 425.455 424.442Z" fill="#0E0D0D"/>
<path d="M429.79 548.816C429.79 548.816 447.792 583.474 488.146 575.949C488.7 575.85 489.259 575.741 489.82 575.627C503.604 572.98 519.039 569.018 535.685 563.172C536.202 562.988 536.722 562.804 537.248 562.62C549.66 558.191 562.725 552.713 576.279 545.953C576.279 545.953 573.518 539.57 571.005 529.673C570.856 529.082 570.706 528.48 570.559 527.869C568.577 519.589 566.866 509.151 566.979 498.031C566.985 497.491 566.992 496.952 567.013 496.41C567.128 491.868 567.568 487.216 568.426 482.566C568.911 479.958 569.641 477.183 570.591 474.266C570.763 473.746 570.932 473.228 571.118 472.702C571.579 471.324 572.099 469.927 572.658 468.504C576.678 458.237 582.829 446.656 589.773 434.983C590.057 434.498 590.347 434.017 590.631 433.541C596.2 424.281 602.228 415 608.05 406.323C608.362 405.862 608.674 405.401 608.973 404.946C613.419 398.365 617.721 392.145 621.598 386.567C622.012 385.987 622.415 385.404 622.813 384.835C623.708 383.552 624.572 382.303 625.412 381.094C626.298 379.823 627.165 378.603 627.996 377.436C628.323 376.976 628.648 376.515 628.967 376.075C633.385 369.911 636.795 365.358 637.468 362.718C638.023 360.539 638.54 358.28 638.902 355.971C638.986 355.412 639.067 354.842 639.138 354.281C639.294 352.895 639.394 351.492 639.385 350.079C639.385 349.363 639.357 348.65 639.301 347.933C639.194 346.499 638.967 345.05 638.59 343.594C638.406 342.865 638.179 342.132 637.908 341.4C637.704 340.833 637.468 340.257 637.213 339.689C637.007 339.243 636.788 338.795 636.543 338.349C634.607 334.675 631.488 331.047 626.703 327.56C626.261 327.241 625.809 326.921 625.341 326.602C624.717 326.176 624.063 325.758 623.387 325.34C622.683 324.9 621.953 324.465 621.186 324.038C619.454 323.059 617.571 322.095 615.518 321.149C612.912 319.949 610.521 318.757 608.327 317.577L608.078 317.443L607.66 317.215C603.787 315.099 600.564 313.039 597.874 311.101C597.263 310.674 596.696 310.243 596.141 309.816C593.99 308.161 592.243 306.613 590.815 305.179C590.412 304.787 590.035 304.399 589.68 304.016C585.489 299.521 584.688 296.608 584.688 296.608L553.181 297.383L551.13 297.433L533.2 297.873C533.2 297.873 525.63 301.709 517.259 303.773C516.392 303.985 515.519 304.178 514.644 304.347C513.544 304.555 512.45 304.733 511.372 304.845C510.726 304.923 510.087 304.98 509.455 305.01C508.725 305.057 507.999 305.073 507.282 305.053C499.812 304.839 493.472 304.299 488.785 307.665C488.202 308.092 487.628 308.579 487.093 309.134C485.547 310.732 484.232 312.905 483.16 315.874C482.926 316.507 482.727 317.137 482.551 317.789L482.393 318.359C482.302 318.692 482.222 319.035 482.144 319.366C482.059 319.73 481.988 320.098 481.91 320.468C480.838 325.979 481.024 331.822 480.866 336.999C480.788 339.453 480.647 341.764 480.249 343.822C480.149 344.37 480.03 344.901 479.887 345.412C479.397 347.16 478.672 348.672 477.58 349.88C474.483 353.287 469.01 357.292 464.394 362.945C464.201 363.177 464.017 363.407 463.831 363.647C463.521 364.052 463.213 364.457 462.914 364.869L462.553 365.365C460.218 368.687 458.279 372.532 457.242 377.074C457.179 377.345 457.123 377.613 457.071 377.891C456.993 378.267 456.923 378.644 456.858 379.036L456.796 379.504C456.637 380.54 456.531 381.612 456.49 382.705C456.326 386.165 456.646 389.637 457.285 393.124C457.393 393.813 457.534 394.488 457.675 395.184C458.13 397.356 458.691 399.529 459.299 401.71C459.536 402.537 459.776 403.369 460.016 404.201C460.757 406.678 461.546 409.156 462.306 411.628C462.475 412.161 462.637 412.7 462.804 413.233C462.995 413.857 463.185 414.489 463.376 415.121H463.369C463.64 416.001 463.896 416.882 464.138 417.755V417.764C464.903 420.489 465.563 423.194 466.04 425.886C466.168 426.575 466.274 427.27 466.373 427.968C466.601 429.586 466.744 431.197 466.785 432.796C466.943 438.256 465.778 445.543 463.839 453.565C463.731 453.983 463.631 454.404 463.527 454.822L463.443 455.155C462.512 458.839 461.424 462.675 460.239 466.553C459.975 467.425 459.7 468.294 459.423 469.173V469.18C457.64 474.811 455.658 480.478 453.648 485.882C453.423 486.477 453.196 487.075 452.975 487.664C451.142 492.512 449.282 497.114 447.521 501.241C446.358 503.974 445.242 506.645 444.177 509.244V509.25V509.266C443.41 511.139 442.671 512.956 441.954 514.761L441.796 515.157V515.163V515.172V515.179V515.185C441.627 515.592 441.471 515.974 441.322 516.372C424.932 557.92 429.79 548.816 429.79 548.816Z" fill="#FFB800"/>
<path d="M497.614 513.292C504.952 510.446 513.148 510.933 520.744 512.372C528.943 513.918 536.881 516.714 544.267 520.602C548.436 522.805 553.115 525.816 556.842 528.673C556.165 528.764 555.478 528.937 554.839 529.171C546.281 522.838 535.848 517.68 525.488 515.023C518.1 513.125 510.07 511.936 502.509 513.493C494.436 515.15 488.326 520.509 484.854 527.876C483.481 530.793 482.556 533.832 481.93 536.938C481.462 536.912 480.992 536.884 480.52 536.858C482.513 526.66 487.096 517.368 497.614 513.292Z" fill="#E3A70C"/>
<path d="M442.49 513.422C449.69 515.423 455.891 520.283 459.322 527.217C460.4 529.4 461.382 532.034 461.83 534.709C462.361 534.804 462.885 534.895 463.413 534.979C463.106 532.818 462.482 530.702 461.745 528.806C458.475 520.424 451.44 514.336 443.083 511.947C442.884 512.44 442.689 512.932 442.49 513.422Z" fill="#E3A70C"/>
<path d="M552.671 299.651C551.634 299.558 551.781 297.947 552.816 298.042C553.854 298.137 553.706 299.747 552.671 299.651Z" fill="#E3A70C"/>
<path d="M579.505 167.886C579.505 167.886 581.922 132.748 604.138 132.373C626.355 131.998 621.631 157.73 621.631 157.73C621.631 157.73 634.549 150.461 630.968 166.905C627.392 183.349 596.159 180.839 596.159 180.839L579.505 167.886Z" fill="#0E0D0D"/>
<path d="M580.948 160.011C580.948 160.011 599.584 164.93 605.525 181.016C605.525 181.016 602.88 184.404 596.566 185.301C596.566 185.301 593.876 174.54 579.505 167.886C579.505 167.886 577.491 162.74 580.948 160.011Z" fill="#FFB800"/>
<path d="M498.844 286.852C514.428 291.203 567.338 296.181 608.485 278.548C608.34 271.452 608.88 263.349 610.443 254.033C614.128 232.085 616.963 170.123 571.66 163.201C526.354 156.281 491.399 186.039 501.131 226.995C505.125 243.801 502.392 266.08 498.844 286.852Z" fill="#0E0D0D"/>
<path d="M512.767 245.786C509.115 245.801 506.161 248.785 506.176 252.435C506.193 256.085 509.176 259.041 512.826 259.024C516.478 259.011 519.434 256.026 519.417 252.377C519.402 248.727 516.417 245.768 512.767 245.786ZM512.839 261.76C507.679 261.783 503.464 257.605 503.441 252.446C503.419 247.289 507.597 243.074 512.754 243.05C517.914 243.028 522.128 247.204 522.152 252.364C522.176 257.523 517.996 261.738 512.839 261.76Z" fill="white"/>
<path d="M585.372 300.843C585.372 300.843 575.381 317.913 555.419 319.957C530.062 322.552 527.634 311.568 527.634 311.568C528.842 308.194 529.622 304.83 530.073 301.209C530.242 299.835 530.367 298.425 530.445 296.961C530.668 292.969 530.577 288.596 530.266 283.534C530.194 282.35 530.11 281.117 530.01 279.848L530.001 279.696C547.63 276.28 562.235 269.126 572.541 256.648L575.225 255.195L577.033 254.209L577.317 255.24L576.849 258.472C574.605 273.657 577.523 286.437 585.372 300.843Z" fill="#F8AC97"/>
<path d="M559.894 269.57C555.861 277.749 546.697 292.133 530.446 296.961C530.669 292.969 530.578 288.596 530.266 283.534C530.194 282.349 530.11 281.117 530.01 279.848C530.355 279.902 530.706 279.945 531.056 279.982C540.541 281.004 551.079 276.527 559.894 269.57Z" fill="#0E0D0D"/>
<path d="M599.298 229.935C599.503 239.42 591.727 251.211 579.327 251.824L579.262 251.829H579.258L578.996 251.846C578.808 252.396 578.589 252.936 578.357 253.488C578.259 253.726 578.153 253.969 578.052 254.205L578.017 254.272C570.644 270.556 547.888 280.539 535.477 281.147C531.046 281.362 528.041 280.428 527.082 280.242C513.854 277.673 511.002 259.94 512.769 246.299C513.031 244.319 513.386 242.431 513.817 240.683L513.911 240.323C513.911 240.323 509.083 221.399 507.867 213.127C505.522 197.092 514.389 180.551 549.582 176.568C584.779 172.58 593.707 194.285 596.441 205.843C596.9 207.766 596.761 219.302 594.875 221.204C598.256 222.835 599.228 226.747 599.298 229.935Z" fill="#F8AC97"/>
<path d="M516.706 234.809C517.174 237.427 518.656 239.353 520.016 239.11C521.376 238.868 522.102 236.55 521.634 233.931C521.168 231.313 519.687 229.385 518.327 229.628C516.966 229.87 516.241 232.19 516.706 234.809Z" fill="#0E0D0D"/>
<path d="M526.109 231.928L526.43 231.631C526.618 231.293 526.495 230.864 526.155 230.676C525.871 230.516 519.135 226.853 513.921 231.332C513.627 231.588 513.594 232.032 513.846 232.324C514.099 232.621 514.543 232.653 514.84 232.402C519.312 228.553 525.41 231.869 525.47 231.904C525.676 232.019 525.91 232.019 526.109 231.928Z" fill="#0E0D0D"/>
<path d="M539.599 231.133C540.064 233.751 541.544 235.677 542.904 235.434C544.264 235.192 544.99 232.872 544.522 230.253C544.056 227.635 542.577 225.711 541.217 225.954C539.856 226.194 539.133 228.514 539.599 231.133Z" fill="#0E0D0D"/>
<path d="M550.208 229.031L550.563 228.78C550.793 228.464 550.725 228.024 550.411 227.794C550.151 227.602 543.933 223.114 538.193 226.9C537.868 227.114 537.779 227.552 537.992 227.877C538.208 228.202 538.642 228.29 538.971 228.076C543.898 224.823 549.523 228.886 549.577 228.927C549.766 229.066 550 229.096 550.208 229.031Z" fill="#0E0D0D"/>
<path d="M529.692 260.014C530.091 259.983 530.504 259.925 530.942 259.836C535.163 258.961 537.769 254.655 537.877 254.473C538.254 253.841 538.046 253.022 537.414 252.645C536.781 252.268 535.965 252.474 535.588 253.106C535.555 253.158 533.452 256.591 530.403 257.222C527.245 257.876 525.767 256.119 525.707 256.043C525.245 255.478 524.409 255.381 523.837 255.833C523.268 256.286 523.16 257.107 523.606 257.683C523.697 257.802 525.685 260.315 529.692 260.014Z" fill="#671A25"/>
<path d="M577.993 244.451C578.506 244.354 578.929 243.951 579.02 243.405C580.534 234.445 591.095 230.347 591.203 230.308C591.864 230.056 592.197 229.318 591.948 228.657C591.697 227.994 590.963 227.661 590.3 227.91C589.808 228.094 578.253 232.552 576.496 242.979C576.377 243.676 576.847 244.337 577.545 244.454L577.993 244.451Z" fill="#671A25"/>
<path d="M589.016 239.225L589.475 239.043C590.068 238.66 590.242 237.869 589.858 237.273C589.754 237.109 587.242 233.299 582.044 233.621C581.342 233.667 580.802 234.273 580.848 234.98C580.891 235.684 581.498 236.221 582.206 236.18C585.914 235.946 587.686 238.631 587.705 238.657C587.993 239.108 588.522 239.318 589.016 239.225Z" fill="#671A25"/>
<path d="M512.769 246.299C513.031 244.319 513.387 242.43 513.818 240.682C517.361 241.055 519.924 242.134 519.926 243.418C519.93 244.828 516.859 246.015 512.769 246.299Z" fill="#953539"/>
<path d="M550.673 245.998C545.791 245.998 541.847 244.717 541.843 243.123C541.836 241.516 545.834 240.195 550.773 240.175C550.812 240.175 550.851 240.175 550.89 240.175C555.772 240.175 559.718 241.455 559.727 243.05C559.733 244.659 555.733 245.978 550.795 245.998C550.753 245.998 550.712 245.998 550.673 245.998Z" fill="#953539"/>
<path d="M579.325 251.827L579.262 251.829L579.256 251.831L578.994 251.846C578.807 252.396 578.589 252.938 578.357 253.488C578.257 253.726 578.153 253.971 578.052 254.207L578.017 254.272C576.6 254.079 574.811 253.59 573.185 252.483C572.229 251.829 571.326 250.965 570.594 249.797C570.213 249.201 570.393 248.409 570.995 248.034C571.588 247.651 572.379 247.828 572.76 248.428C573.581 249.719 574.722 250.529 575.873 251.034C576.652 251.374 577.432 251.575 578.125 251.684C578.576 251.764 578.987 251.805 579.325 251.827Z" fill="#671A25"/>
<path d="M576.184 251.597C577.066 251.857 578.084 251.944 578.911 251.976L578.903 252.113C578.92 255.764 581.903 258.719 585.552 258.704C589.202 258.686 592.158 255.704 592.141 252.054C592.13 248.76 589.7 246.041 586.544 245.55C585.736 244.612 585.699 243.689 586.533 242.786C591.201 243.291 594.855 247.237 594.879 252.041C594.903 257.201 590.722 261.416 585.563 261.439C580.406 261.463 576.191 257.283 576.167 252.123L576.184 251.597Z" fill="white"/>
<path d="M533.067 265.828C534.875 265.444 535.839 264.169 535.898 264.091C536.173 263.72 536.093 263.192 535.72 262.919C535.348 262.644 534.826 262.722 534.548 263.09C534.485 263.172 533.234 264.753 530.877 264.086C530.431 263.961 529.967 264.223 529.844 264.667C529.716 265.113 529.976 265.579 530.422 265.704C531.442 265.99 532.326 265.984 533.067 265.828Z" fill="#671A25"/>
<path d="M586.098 186.195C578.338 178.528 567.659 172.48 554.999 173.503C537.238 174.937 520.935 181.521 512.057 191.348C507.774 196.072 505.216 201.539 505.039 207.554C504.484 226.058 508.383 222.363 508.383 222.363C508.383 222.363 508.268 221.936 508.734 217.998H508.74C509.016 215.622 509.501 211.973 510.359 206.374C512.403 193.016 554.735 190.538 552.181 199.187C552.181 199.187 552.071 200.261 552.229 201.907C552.389 203.673 552.87 206.092 554.122 208.531C554.462 208.574 554.789 208.624 555.097 208.67C559.359 209.352 562.881 210.489 565.794 211.901L565.81 211.914C566.18 212.168 572.7 216.705 571.931 223.47C571.151 230.431 568.799 239.55 573.479 237.728C578.158 235.902 579.609 230.232 579.609 230.232L579.616 230.225C582.05 227.069 585.085 223.898 589.661 222.272C590.965 210.054 591.13 197.614 586.098 186.195Z" fill="#0E0D0D"/>
<path d="M588.747 194.036C575.968 189.964 555.772 199.799 552.229 201.907C552.389 203.672 552.87 206.092 554.122 208.53C554.462 208.574 554.789 208.624 555.096 208.669C559.359 209.351 562.881 210.488 565.794 211.901L565.809 211.914C566.18 212.167 572.699 216.705 571.93 223.469C571.151 230.431 565.439 267.601 572.723 273.222C587.497 284.623 581.506 230.143 581.506 230.143C583.943 226.987 585.084 223.898 589.661 222.271C594.233 212.356 592.321 203.029 588.747 194.036Z" fill="#0E0D0D"/>
<path d="M585.888 193.365C585.888 193.365 593.796 204.247 589.661 222.272C589.661 222.272 595.759 220.593 598.691 221.588C601.62 222.582 604.422 211.873 601.275 202.131C598.128 192.388 583.995 180.724 583.995 180.724C583.995 180.724 583.198 190.205 585.888 193.365Z" fill="#0E0D0D"/>
<path d="M528.319 247.692C528.122 247.705 527.918 247.661 527.734 247.56L522.837 244.837C522.505 244.653 522.293 244.306 522.286 243.925C522.278 243.544 522.468 243.186 522.793 242.985C526.551 240.654 528.776 237.143 529.791 231.936C529.904 231.354 530.467 230.97 531.052 231.087C531.635 231.2 532.016 231.765 531.901 232.348C530.898 237.486 528.813 241.17 525.392 243.799L528.78 245.679C529.296 245.97 529.484 246.624 529.194 247.141C529.01 247.475 528.674 247.67 528.319 247.692Z" fill="#671A25"/>
<path d="M533.528 234.601C533.976 240.537 539.172 245.004 545.114 244.553C551.051 244.105 555.515 238.906 555.064 232.967C554.614 227.03 549.42 222.566 543.481 223.015C537.541 223.465 533.077 228.661 533.528 234.601ZM531.518 234.752C530.985 227.708 536.283 221.54 543.327 221.007C550.373 220.474 556.541 225.77 557.074 232.816C557.607 239.862 552.309 246.03 545.265 246.563C538.219 247.096 532.053 241.796 531.518 234.752Z" fill="white"/>
<path d="M503.226 236.897C503.674 242.834 508.87 247.298 514.809 246.847C520.749 246.399 525.213 241.203 524.762 235.263C524.314 229.327 519.118 224.86 513.176 225.311C507.239 225.759 502.775 230.958 503.226 236.897ZM501.216 237.048C500.683 230.002 505.979 223.834 513.025 223.301C520.071 222.768 526.239 228.068 526.772 235.112C527.305 242.156 522.009 248.324 514.961 248.857C507.915 249.39 501.749 244.094 501.216 237.048Z" fill="white"/>
<path d="M582.834 228.337L583.865 226.812C583.337 226.461 569.672 217.858 553.646 225.3L554.495 227.128C569.513 220.152 582.713 228.257 582.834 228.337Z" fill="white"/>
<path d="M531.951 234.559L533.036 232.861C531.513 231.882 527.877 230.758 524.998 233.494L526.389 234.954C528.825 232.634 531.825 234.479 531.951 234.559Z" fill="white"/>
<path d="M539.229 219.721C536.944 221.453 533.898 218.748 535.404 216.309C536.192 215.036 537.505 213.838 539.658 213.127C549.006 210.039 556.301 215.757 556.301 215.757C556.301 215.757 546.249 215.995 541.722 218.194C540.678 218.701 539.877 219.229 539.229 219.721Z" fill="#0E0D0D"/>
<path d="M523.595 222.224C526.263 223.271 528.46 219.837 526.348 217.901C525.243 216.89 523.656 216.095 521.388 215.995C511.552 215.566 509.248 222.081 509.248 222.081C509.248 222.081 515.828 220.546 520.779 221.432C521.925 221.637 522.837 221.93 523.595 222.224Z" fill="#0E0D0D"/>
<path d="M592.193 305.378C592.193 305.378 591.832 281.299 576.863 276.982C576.863 276.982 564.469 293.849 530.262 290.455C530.262 290.455 521.526 291.49 519.001 308.393C519.001 308.393 520.378 327.341 550.373 324.972C580.371 322.602 592.193 305.378 592.193 305.378Z" fill="#FFB800"/>
<path d="M573.317 282.13C579.743 290.801 582.213 301.249 583.67 311.767C583.859 313.108 581.799 313.658 581.613 312.305C580.179 301.96 577.79 291.713 571.465 283.179C570.648 282.078 572.511 281.043 573.317 282.13Z" fill="#E3A70C"/>
<path d="M561.352 288.165C565.719 297.986 566.962 308.521 566.735 319.188C566.704 320.557 564.577 320.531 564.608 319.158C564.824 308.891 563.709 298.674 559.498 289.214C558.946 287.97 560.793 286.913 561.352 288.165Z" fill="#E3A70C"/>
<path d="M549.287 291.198C549.655 301.748 550.331 312.294 549.809 322.853C549.74 324.22 547.613 324.196 547.68 322.827C548.2 312.268 547.528 301.72 547.16 291.167C547.11 289.801 549.242 289.831 549.287 291.198Z" fill="#E3A70C"/>
<path d="M535.36 291.813C532.029 300.578 530.337 309.715 530.337 319.093C530.337 320.464 528.208 320.434 528.21 319.063C528.21 309.504 529.917 300.158 533.316 291.221C533.799 289.95 535.848 290.528 535.36 291.813Z" fill="#E3A70C"/>
<path d="M588.234 310.525C574.967 318.13 561.486 325.104 545.764 324.543C535.094 324.162 521.912 320.744 518.065 309.49C517.621 308.192 519.683 307.664 520.125 308.95C523.941 320.116 538.345 322.589 548.614 322.446C562.853 322.245 575.143 315.574 587.184 308.671C588.375 307.991 589.423 309.843 588.234 310.525Z" fill="#E3A70C"/>
<path d="M584.454 383.173C586.932 391.41 590.278 399.264 594.168 406.86C594.534 406.436 594.905 406.013 595.282 405.589C586.072 387.356 579.862 367.123 581.998 346.56C583.362 333.449 588.559 320.512 597.194 310.617C596.835 310.349 596.486 310.085 596.142 309.816L595.94 309.66C593.233 312.762 590.85 316.152 588.816 319.767C577.895 339.178 578.16 362.295 584.454 383.173Z" fill="#E3A70C"/>
<path d="M562.58 321.934C563.617 328.049 564.638 334.674 561.681 340.436C559.448 344.787 555.233 347.612 550.26 347.235C537.645 346.28 534.381 332.268 533.573 322.021C533.495 321.018 535.044 320.732 535.124 321.741C535.852 330.994 538.115 343.31 548.993 345.474C554.061 346.481 558.512 343.704 560.587 339.097C562.991 333.763 561.973 327.767 561.031 322.214C560.862 321.213 562.411 320.938 562.58 321.934Z" fill="#E3A70C"/>
<path d="M478.185 349.12C480.375 350.519 482.608 351.834 484.886 353.068C488.705 355.146 492.829 357.03 497.211 357.405C506.251 358.18 511.11 351.019 511.619 342.763C512.197 333.404 509.665 323.492 506.392 314.8C505.112 311.399 503.607 308.092 501.9 304.891C501.289 304.882 500.696 304.88 500.105 304.884C502.171 308.662 503.945 312.599 505.409 316.667C508.383 324.924 510.772 334.532 509.994 343.367C509.622 347.66 508.14 352.28 504.157 354.539C499.992 356.907 494.91 355.793 490.706 354.13C486.639 352.518 482.701 350.361 478.923 347.916C478.703 348.342 478.462 348.741 478.185 349.12Z" fill="#E3A70C"/>
<path d="M593.185 308.061C578.604 323.258 570.915 345.002 551.315 355.08C542.662 359.531 532.321 361.336 522.823 358.808C518.567 357.675 514.329 355.57 511.348 352.254C508.355 348.918 507.4 344.666 507.647 340.278C508.346 327.776 512.702 314.891 517.744 303.543C518.353 302.176 520.545 302.986 519.932 304.366C515.654 313.987 512.496 324.081 510.744 334.471C509.962 339.119 509.089 344.311 511.558 348.621C513.952 352.791 518.747 355.273 523.226 356.503C532.664 359.1 542.978 357.032 551.434 352.373C559.883 347.714 566.407 340.358 572.004 332.639C578.457 323.734 584.038 314.243 591.691 306.266C592.73 305.183 594.216 306.987 593.185 308.061Z" fill="white"/>
<path d="M460.062 369.45C464.319 371.854 469.114 373.433 473.959 374.113C488.688 376.192 503.079 371.366 517.164 367.775C524.647 365.869 532.794 363.877 540.416 366.222C547.037 368.26 552.238 373.188 556.567 378.404C567.382 391.436 575.994 406.533 582.366 422.468C582.689 421.972 583.02 421.478 583.354 420.991V420.985C581.898 417.443 580.322 413.952 578.643 410.506C572.838 398.614 565.81 386.857 557.23 376.747C553.37 372.2 548.848 367.972 543.305 365.607C536.996 362.917 530.088 363.35 523.504 364.674C508.509 367.686 494.008 373.773 478.445 372.958C472.387 372.642 466.153 371.024 460.827 368.053C460.563 368.51 460.305 368.975 460.062 369.45Z" fill="#E3A70C"/>
<path d="M528.421 420.946C537.256 439.029 548.016 456.13 560.436 471.933C560.598 471.3 560.761 470.672 560.941 470.046C558.292 466.654 555.721 463.202 553.232 459.688C544.739 447.704 537.18 435.057 530.645 421.903C528.293 417.164 521.981 406.386 529.27 402.929C535.298 400.07 542.656 407.025 546.806 410.579C556.797 419.131 565.008 429.3 572.171 440.242C572.429 439.709 572.693 439.183 572.962 438.659C571.968 437.158 570.95 435.668 569.916 434.195C565.584 428.03 560.852 422.141 555.606 416.726C550.869 411.838 545.588 406.613 539.638 403.221C535.395 400.8 528.973 399.1 525.713 403.999C522.267 409.182 526.088 416.165 528.421 420.946Z" fill="#E3A70C"/>
<path d="M456.527 387.05C456.558 387.574 456.599 388.101 456.653 388.623C462.859 388.636 469.073 389.385 475.135 390.878C485.146 393.347 496.206 397.648 503.239 405.522C506.706 409.399 508.929 414.357 508.164 419.639C507.307 425.553 503.263 430.433 498.482 433.755C489.292 440.151 477.169 443.01 466.146 443.775L465.856 443.79C465.772 444.314 465.681 444.849 465.579 445.384C467.946 445.241 470.301 444.994 472.651 444.639C483.58 442.987 496.496 439.287 504.218 430.872C507.846 426.919 510.231 421.686 509.845 416.241C509.505 411.43 506.973 407.107 503.685 403.689C495.851 395.56 484.04 391.176 473.236 388.839C467.736 387.65 462.129 387.059 456.527 387.05Z" fill="#E3A70C"/>
<path d="M458.219 472.884C466.989 470.924 474.899 466.033 482.857 461.811C488.181 458.991 493.737 456.373 499.719 455.35C506.785 454.144 513.857 455.588 520.331 458.502C533.467 464.413 544.878 475.121 554.781 485.366C555.575 486.185 556.364 487.01 557.139 487.851C557.241 487.203 557.349 486.553 557.462 485.908C555.95 484.303 554.408 482.726 552.838 481.175C543.275 471.738 532.538 462.015 520.056 456.667C514.021 454.074 507.471 452.757 500.911 453.581C495.147 454.306 489.702 456.557 484.555 459.16C476.162 463.405 467.929 468.885 458.789 471.151C458.605 471.729 458.414 472.305 458.219 472.884Z" fill="#E3A70C"/>
<path d="M445.132 506.933C454.389 504.468 462.709 499.382 471.178 494.94C480.953 489.811 491.023 486.293 502.184 486.373C513.222 486.447 524.121 489.445 533.967 494.351C541.78 498.247 548.815 503.32 555.218 509.135C555.235 508.475 555.252 507.812 555.278 507.145C539.824 493.538 520.244 483.999 499.26 484.857C488.469 485.301 478.832 489.089 469.4 494.104C461.765 498.165 454.197 502.659 445.901 505.085C445.641 505.705 445.383 506.318 445.132 506.933Z" fill="#E3A70C"/>
<path d="M558.747 550.987C547.912 507.059 556.726 460.176 581.301 422.469C586.844 413.963 593.309 405.762 600.565 398.379C601.527 397.4 603.034 398.907 602.07 399.886C563.83 438.783 547.685 497.249 560.802 550.421C561.129 551.751 559.076 552.321 558.747 550.987Z" fill="#0E0D0D"/>
<path d="M603.192 332.147C603.223 332.455 603.264 332.754 603.316 333.057C604.323 339.368 609.435 344.071 615.514 345.741C623.992 348.069 631.2 344.937 637.213 339.689C637.007 339.243 636.789 338.794 636.544 338.348C631.404 342.89 625.313 345.788 618.036 344.673C611.302 343.651 605.408 338.781 604.763 331.829C604.741 331.601 604.719 331.359 604.713 331.127C604.514 326.262 606.424 321.917 609.023 317.953C608.789 317.832 608.555 317.704 608.328 317.577L608.079 317.442L607.661 317.208V317.215C604.75 321.709 602.668 326.63 603.192 332.147Z" fill="#E3A70C"/>
<path d="M483.331 335.861C482.499 341.575 480.944 347.081 477.329 351.684C473.736 356.256 468.654 359.042 464.697 363.19C454.3 374.091 456.698 392.913 461.595 405.734C462.087 407.016 460.025 407.57 459.542 406.301C454.831 393.964 452.869 377.79 459.964 365.923C463.246 360.441 468.903 357.419 473.316 352.99C478.217 348.073 480.294 342.056 481.278 335.296C481.475 333.945 483.526 334.519 483.331 335.861Z" fill="#0E0D0D"/>
<path d="M461.641 406.756C459.172 419.213 454.535 431.225 450.294 443.16C449.837 444.444 447.779 443.89 448.24 442.592C452.481 430.66 457.116 418.645 459.586 406.189C459.852 404.846 461.908 405.413 461.641 406.756Z" fill="#0E0D0D"/>
<path d="M376.718 469.734C377.701 481.209 387.32 489.873 398.627 489.873C399.257 489.873 399.889 489.843 400.528 489.793C420.758 488.069 438.019 486.576 452.819 485.227C453.67 485.149 454.515 485.071 455.353 485.002C463.229 484.27 470.381 483.587 476.905 482.92C477.905 482.821 478.893 482.715 479.866 482.615C484.843 482.097 489.437 481.59 493.678 481.088C494.421 481.003 495.147 480.917 495.864 480.826C499.819 480.349 503.462 479.866 506.828 479.383C507.538 479.284 508.24 479.177 508.924 479.078C518.73 477.614 526.072 476.089 531.901 474.313C532.702 474.066 533.478 473.817 534.221 473.559H534.23C538.25 472.192 541.501 470.663 544.386 468.911C551.3 464.7 558.103 459.63 564.694 454.02C565.424 453.402 566.154 452.77 566.877 452.131C570.629 448.856 574.306 445.412 577.885 441.864C578.786 440.974 579.669 440.079 580.555 439.178L580.562 439.17C590.946 428.6 600.495 417.231 608.739 406.559C609.144 406.033 609.543 405.513 609.939 405.002C627.037 382.664 638.235 363.753 639.145 362.198C639.933 360.863 640.557 359.473 641.034 358.058C641.281 357.32 641.495 356.575 641.658 355.821C643.674 346.748 639.756 337.025 631.311 332.069C620.832 325.913 607.346 329.42 601.191 339.895C600.991 340.222 591.37 356.44 576.906 375.733L576.535 376.222L576.529 376.231L576.167 376.712C561.291 396.431 541.479 419.113 521.541 431.275C520.725 431.708 518.674 432.509 513.588 433.59C512.778 433.759 511.898 433.937 510.924 434.121C506.26 435.011 499.648 436.04 490.282 437.177C480.355 438.375 468.392 439.59 453.486 440.968H453.48C451.669 441.132 449.802 441.301 447.898 441.479H447.892C440.876 442.111 433.241 442.785 424.906 443.502H424.9C423.429 443.638 421.937 443.766 420.416 443.894C413.076 444.533 405.215 445.2 396.779 445.925C384.671 446.961 375.689 457.62 376.718 469.734Z" fill="#FFB800"/>
<path d="M608.115 406.095C608.284 406.351 608.505 406.5 608.739 406.559C609.556 406.758 610.528 405.918 609.952 405.023L609.939 405.001C602.051 392.809 606.759 377.45 617.182 368.468C624.011 362.574 632.335 359.499 641.034 358.058C641.281 357.32 641.495 356.575 641.658 355.821C631.469 357.385 621.726 361.047 614.091 368.399C604.024 378.096 600.181 393.881 608.115 406.095Z" fill="#E3A70C"/>
<path d="M576.509 376.827C581.677 398.199 582.119 420.396 577.885 441.865C578.786 440.975 579.669 440.08 580.555 439.179L580.562 439.17C584.211 418.353 583.553 396.908 578.56 376.26C578.355 375.415 577.451 375.328 576.906 375.733C576.734 375.846 576.6 376.017 576.535 376.223L576.529 376.231C576.464 376.409 576.457 376.608 576.509 376.827Z" fill="#E3A70C"/>
<path d="M531.901 474.313C532.703 474.066 533.478 473.817 534.221 473.559H534.23C535.778 462.931 537.81 452.387 540.862 442.075C542.261 437.359 543.702 432.477 545.833 428.03C548.369 422.754 554.971 418.052 559.117 424.836C564.14 433.036 565.119 444.669 564.694 454.02C565.424 453.403 566.154 452.77 566.878 452.131C566.992 446.636 566.475 441.167 565.225 435.8C564.196 431.375 562.925 425.936 559.97 422.306C557.668 419.494 554.289 418.552 550.875 419.821C546.721 421.379 544.57 425.403 542.993 429.287C537.156 443.638 534.044 458.913 531.901 474.313Z" fill="#E3A70C"/>
<path d="M506.827 479.384C507.538 479.284 508.24 479.178 508.924 479.078C504.802 464.053 506.351 447.771 513.587 433.591C512.777 433.76 511.898 433.937 510.923 434.121C504.107 448.339 502.788 464.449 506.827 479.384Z" fill="#E3A70C"/>
<path d="M451.528 442.523C470.145 448.426 485.902 462.258 493.678 481.089C493.769 481.303 493.86 481.513 493.947 481.734C494.451 482.993 496.518 482.438 496.007 481.167L495.864 480.827C488.352 462.37 473.617 448.573 455.923 441.85C454.452 442.069 452.988 442.296 451.528 442.523Z" fill="#E3A70C"/>
<path d="M394.343 456.233C402.504 460.232 410.683 464.209 419.019 467.824C421.575 468.933 424.146 470.011 426.737 471.04C432.561 473.362 448.375 481.606 451.845 471.607C453.24 467.596 450.489 463.528 447.998 460.63C444.725 456.825 440.855 453.465 436.806 450.504C434.64 448.928 432.399 447.479 430.081 446.172C428.968 446.38 427.874 446.59 426.789 446.805C428.548 447.715 430.274 448.709 431.948 449.772C435.736 452.179 439.278 454.942 442.522 458.031C445.618 460.97 451.022 465.658 449.802 470.401C448.069 477.118 439.122 473.355 434.846 471.835C430.075 470.137 425.374 468.263 420.724 466.26C420.154 466.013 419.58 465.764 419.013 465.51C411.592 462.27 404.291 458.742 397.015 455.176C396.14 455.516 395.252 455.865 394.343 456.233Z" fill="#E3A70C"/>
<path d="M452.819 485.228C453.67 485.15 454.515 485.072 455.353 485.002C457.398 481.366 460.608 478.773 465.791 478.795C470.004 478.816 473.651 480.512 476.904 482.921C477.905 482.821 478.893 482.715 479.865 482.615C475.185 478.73 469.781 475.918 463.406 476.834C458.011 477.614 454.799 480.967 452.819 485.228Z" fill="#E3A70C"/>
<path d="M344.517 491.417H395.168C395.168 491.417 405.045 489.161 414.629 479.576C417.726 476.479 418.877 472.197 419.02 467.824C419.054 467.055 419.046 466.275 419.013 465.51C418.664 457.102 415.192 449.049 415.192 449.049C415.192 449.049 407.488 451.13 397.015 455.176C396.14 455.517 395.252 455.865 394.343 456.233C377.076 463.171 353.91 475.045 344.517 491.417Z" fill="#F8AC97"/>
<path d="M592.119 362.41C570.475 385.72 548.83 409.029 527.185 432.339C526.252 433.346 524.747 431.838 525.68 430.833C547.322 407.523 568.967 384.213 590.612 360.905C591.547 359.898 593.051 361.407 592.119 362.41Z" fill="#0E0D0D"/>
<path d="M526.404 432.361C490.013 439.766 452.722 441.832 416.455 450.078C415.121 450.379 414.549 448.326 415.887 448.021C452.159 439.779 489.448 437.713 525.836 430.307C527.175 430.034 527.749 432.086 526.404 432.361Z" fill="#0E0D0D"/>
<path d="M597.79 423.35C582.676 439.404 566.318 455.181 548.302 467.975C539.495 474.231 530.006 477.906 519.334 479.509C509.202 481.032 498.917 481.656 488.737 482.815C477.492 484.095 466.246 485.243 454.94 485.869C453.571 485.944 453.575 483.815 454.94 483.739C467.138 483.062 479.255 481.751 491.391 480.382C504.59 478.892 518.491 478.821 531.188 474.616C544.518 470.202 555.499 460.063 565.922 451.029C576.535 441.828 586.655 432.07 596.285 421.842C597.225 420.844 598.728 422.351 597.79 423.35Z" fill="#0E0D0D"/>
<path d="M527.177 430.948C530.342 433.5 532.49 436.978 533.391 440.94C533.697 442.274 531.643 442.846 531.338 441.507C530.511 437.866 528.574 434.795 525.672 432.453C524.606 431.591 526.12 430.093 527.177 430.948Z" fill="#0E0D0D"/>
<path d="M567.538 510.191C567.538 510.191 587.874 549.787 577.194 581.079C566.513 612.371 486.775 631.678 442.498 613.566C398.219 595.454 447.521 501.241 447.521 501.241C447.521 501.241 479.898 529.312 567.538 510.191Z" fill="#6F83B0"/>
<path d="M414.757 853.045C420.73 844.413 472.644 799.403 472.644 799.403C472.644 799.403 482.37 807.846 481.438 816.561C480.552 824.859 478.698 868.672 478.345 873.282L472.337 872.981L469.954 852.826C469.954 852.826 455.161 874.044 444.504 881.025C433.847 888.011 399.183 884.916 390.903 883.384C382.624 881.853 408.783 861.679 414.757 853.045Z" fill="#FFB800"/>
<path d="M458.134 776.938L472.107 797.232C472.107 797.232 474.563 803.762 471.308 813.064C468.054 822.372 456.785 836.832 446.185 847.452C437.042 856.611 417.995 865.249 412.564 862.47C407.134 859.691 424.211 841.333 429.437 831.568C434.662 821.806 435.931 813.61 438.595 805.44C441.666 796.029 428.385 779.009 428.385 779.009L458.134 776.938Z" fill="#F8AC97"/>
<path d="M419.015 526.792C419.015 526.792 315.648 562.316 321.364 608.486C327.078 654.661 427.616 791.912 427.616 791.912L468.122 784.721L448.13 709.566C436.472 667.73 431.517 644.381 416.069 625.957L501.003 612.942C501.003 612.942 481.421 527.919 419.015 526.792Z" fill="#6F83B0"/>
<path d="M455.932 774.56L456.354 774.47C457.166 774.177 457.587 773.28 457.296 772.468C457.099 771.925 437.569 717.684 427.826 678.45C419.816 646.179 399.513 624.827 391.947 617.766C401.51 616.873 417.289 613.546 418.053 613.384C418.9 613.204 419.44 612.375 419.26 611.53C419.082 610.685 418.253 610.142 417.406 610.324C417.193 610.367 396.014 614.833 388.067 614.861C387.411 614.857 386.813 615.281 386.595 615.907C386.376 616.533 386.577 617.231 387.095 617.647C387.374 617.868 415.168 640.441 424.792 679.204C434.571 718.596 454.156 772.986 454.353 773.532C454.595 774.203 455.252 774.608 455.932 774.56Z" fill="#41547D"/>
<path d="M420.98 783.006L421.194 782.975L464.306 773.963C465.15 773.787 465.694 772.957 465.516 772.111C465.341 771.268 464.509 770.722 463.667 770.902L420.553 779.914C419.708 780.092 419.165 780.919 419.342 781.764C419.503 782.539 420.213 783.06 420.98 783.006Z" fill="#41547D"/>
<path d="M146.607 749.331C157.038 748.142 225.097 757.577 225.097 757.577C225.097 757.577 225.143 770.458 217.971 775.496C211.144 780.293 176.948 807.745 173.246 810.515L169.516 805.792L183.118 790.732C183.118 790.732 157.408 793.567 145.136 790.144C132.864 786.723 112.367 758.593 108.067 751.354C103.768 744.116 136.178 750.521 146.607 749.331Z" fill="#FFB800"/>
<path d="M239.328 738.705L226.376 755.744C226.376 755.744 223.079 761.894 213.932 765.571C204.79 769.25 186.481 770.287 171.509 769.301C158.596 768.452 139.553 759.805 138.071 753.888C136.585 747.971 161.648 748.736 172.436 746.24C183.225 743.745 190.23 739.303 198.131 735.928C207.237 732.042 218.537 718.033 218.537 718.033L239.328 738.705Z" fill="#F8AC97"/>
<path d="M207.053 725.794L242.523 748.467C242.523 748.467 270.375 722.67 304.769 692.199C339.162 661.724 371.223 625.799 384.645 598.616C384.645 598.616 486.104 642.41 541.113 631.476C564.008 626.93 574.324 611.24 578.567 594.479C579.198 591.986 579.698 589.456 580.07 586.94C583.293 565.83 578.507 545.396 578.507 545.396C578.507 545.396 449.51 521.657 382.863 523.96C378.213 524.12 373.87 524.406 369.893 524.837C363.603 525.519 358.227 526.563 354.036 528.023C345.563 530.997 335.029 539.916 323.532 552.427C323.117 552.875 322.709 553.326 322.296 553.781C273.113 608.053 207.053 725.794 207.053 725.794Z" fill="#6F83B0"/>
<path d="M323.532 552.427C359.849 558.847 376.356 537.09 382.863 523.96C378.213 524.12 373.87 524.406 369.893 524.837C363.603 525.519 358.227 526.563 354.036 528.023C345.563 530.997 335.029 539.916 323.532 552.427Z" fill="#787EC7"/>
<path d="M343.459 656.055C343.758 656.034 344.053 655.93 344.308 655.733C369.312 636.356 382.763 608.103 385.919 600.877C399.008 608.462 439.087 620.261 440.863 620.783C441.693 621.023 442.561 620.551 442.804 619.721C443.049 618.892 442.574 618.025 441.745 617.781C441.294 617.648 396.649 604.507 386.07 597.288C385.678 597.02 385.185 596.944 384.728 597.089C384.273 597.228 383.907 597.568 383.733 598.012C383.601 598.345 370.419 631.541 342.391 653.259C341.709 653.788 341.586 654.771 342.114 655.453C342.446 655.882 342.957 656.092 343.459 656.055Z" fill="#41547D"/>
<path d="M250.19 740.759C250.66 740.726 251.111 740.481 251.39 740.057C251.864 739.333 251.663 738.365 250.942 737.891L214.846 714.158C214.124 713.686 213.156 713.883 212.68 714.604C212.205 715.326 212.407 716.298 213.128 716.77L249.224 740.505C249.521 740.7 249.861 740.78 250.19 740.759Z" fill="#41547D"/>
<path d="M241.481 734.811C241.817 735.146 242.269 735.298 242.7 735.261C243.066 735.242 243.415 735.088 243.69 734.819C244.288 734.222 303.326 675.753 331.804 650.559C357.516 627.807 373.07 592.495 376.213 584.891C386.766 589.054 452.551 614.081 513.703 617.437C541.375 618.966 558.753 610.882 568.452 603.836C572.951 600.579 576.239 597.252 578.565 594.482C579.197 591.984 579.698 589.457 580.072 586.937C579.641 587.709 578.697 589.246 577.159 591.235C574.939 594.07 571.471 597.8 566.453 601.426C557.178 608.112 540.52 615.784 513.865 614.324C448.032 610.7 376.655 581.709 375.942 581.421C375.548 581.258 375.115 581.258 374.732 581.429C374.337 581.594 374.041 581.912 373.887 582.304C373.733 582.71 357.95 623.252 329.729 648.215C301.19 673.464 242.085 732.004 241.492 732.588C240.876 733.204 240.877 734.193 241.481 734.811Z" fill="#41547D"/>
<path d="M184.823 506.229H441.831C442.405 506.229 442.869 505.765 442.869 505.193C442.869 497.214 436.401 490.746 428.424 490.746H184.823C184.252 490.746 183.786 491.212 183.786 491.784V505.191C183.786 505.765 184.252 506.229 184.823 506.229Z" fill="#4B4740"/>
<path d="M99.0163 364.221L131.092 499.895C131.95 503.51 135.175 506.062 138.892 506.062H336.502C341.672 506.062 345.491 501.238 344.302 496.206L312.224 360.534C311.368 356.919 308.141 354.365 304.426 354.365H106.814C101.644 354.365 97.825 359.193 99.0163 364.221Z" fill="#0E0D0D"/>
<path d="M139.375 492.549H316.183C316.807 492.549 317.316 492.042 317.316 491.418C317.316 490.792 316.807 490.285 316.183 490.285H139.375C138.751 490.285 138.246 490.792 138.246 491.418C138.246 492.042 138.751 492.549 139.375 492.549Z" fill="#4B4740"/>
<path d="M259.337 425.423C261.237 435.28 280.057 447.624 280.057 447.624C280.057 447.624 297.337 435.28 298.002 425.423C298.725 414.736 285.957 411.457 278.3 419.514C269.638 411.457 257.277 414.736 259.337 425.423Z" fill="#2477F4"/>
<path d="M269.799 386.262L274.846 386.26L273.503 379.755L268.456 379.757L269.799 386.262ZM253.164 379.764L252.473 372.018L258.642 372.016L257.145 364.942L265.302 364.938L266.797 372.012L271.846 372.01L270.349 364.936L278.506 364.931L280.001 372.005L287.138 372.003L287.826 379.746L281.66 379.751L283.003 386.255L290.142 386.253L290.828 393.996L284.662 394.001L286.156 401.075L277.999 401.079L276.505 394.005L271.458 394.007L272.953 401.079L264.798 401.083L263.301 394.009L256.164 394.014L255.475 386.268L261.644 386.266L260.299 379.759L253.164 379.764Z" fill="#FFB800"/>
<path d="M296.594 354.365L330.75 506.062H336.503C341.673 506.062 345.491 501.238 344.302 496.206L312.224 360.534C311.369 356.919 308.141 354.365 304.427 354.365H296.594Z" fill="#4B4740"/>
<path d="M196.656 435.523C197.651 443.818 205.182 450.542 213.477 450.542C221.773 450.542 227.693 443.818 226.696 435.523C225.7 427.227 218.169 420.502 209.873 420.502C201.577 420.502 195.66 427.227 196.656 435.523Z" fill="#4B4740"/>
<path d="M225.069 530.674V855.059H244.472V530.674H225.069Z" fill="#2477F4"/>
<path d="M96.9436 859.213V881.637H374.05V859.213L244.475 844.66L235.494 845.533L226.519 844.66L96.9436 859.213Z" fill="#2477F4"/>
<path d="M96.9436 868.068V881.637H374.05V868.068H96.9436Z" fill="#19336C"/>
<path d="M225.069 564.405V580.143L244.472 586.206V564.405H225.069Z" fill="#19336C"/>
<path d="M-5.46163 564.404H472.599C475.755 564.404 478.313 561.846 478.313 558.69V537.732H-11.1732V558.69C-11.1732 561.846 -8.61745 564.404 -5.46163 564.404Z" fill="#19336C"/>
<path d="M-23.03 516.771V527.098C-23.03 533.041 -19.8266 537.856 -15.8672 537.856H482.435C486.39 537.856 489.595 533.041 489.595 527.098V516.771C489.595 510.829 486.39 506.017 482.435 506.017H-15.8672C-19.8266 506.017 -23.03 510.829 -23.03 516.771Z" fill="#2477F4"/>
<path d="M48.6313 506.207H65.8941C67.7611 506.207 69.2752 504.691 69.2752 502.824V407.114C69.2752 405.244 67.7611 403.73 65.8941 403.73H48.6313C46.7643 403.73 45.248 405.244 45.248 407.114V502.824C45.248 504.691 46.7643 506.207 48.6313 506.207Z" fill="#FFB800"/>
<path d="M51.9841 458.478H62.541C64.2456 458.478 65.6275 457.096 65.6275 455.391V454.546C65.6275 452.842 64.2456 451.46 62.541 451.46H51.9841C50.2795 451.46 48.8976 452.842 48.8976 454.546V455.391C48.8976 457.096 50.2795 458.478 51.9841 458.478Z" fill="#445C8F"/>
<path d="M45.248 415.964H69.2752V412.005H45.248V415.964Z" fill="#445C8F"/>
<path d="M45.248 424.238H69.2752V420.281H45.248V424.238Z" fill="#445C8F"/>
<path d="M45.248 485.31H69.2752V481.353H45.248V485.31Z" fill="#445C8F"/>
<path d="M45.248 493.584H69.2752V489.627H45.248V493.584Z" fill="#445C8F"/>
<path d="M72.6582 506.207H89.921C91.7903 506.207 93.3043 504.691 93.3043 502.824V407.114C93.3043 405.244 91.7903 403.73 89.921 403.73H72.6604C70.789 403.73 69.275 405.244 69.275 407.114V502.824C69.275 504.691 70.789 506.207 72.6582 506.207Z" fill="#FFB800"/>
<path d="M76.009 458.478H86.5681C88.2727 458.478 89.6525 457.096 89.6525 455.391V454.546C89.6525 452.842 88.2727 451.46 86.5681 451.46H76.009C74.3043 451.46 72.9246 452.842 72.9246 454.546V455.391C72.9246 457.096 74.3043 458.478 76.009 458.478Z" fill="#445C8F"/>
<path d="M69.275 415.964H93.3043V412.005H69.275V415.964Z" fill="#445C8F"/>
<path d="M69.275 424.238H93.3043V420.281H69.275V424.238Z" fill="#445C8F"/>
<path d="M69.275 485.31H93.3043V481.353H69.275V485.31Z" fill="#445C8F"/>
<path d="M69.275 493.584H93.3043V489.627H69.275V493.584Z" fill="#445C8F"/>
<path d="M8.83581 503.008L25.8798 505.756C27.7231 506.053 29.458 504.799 29.7569 502.956L44.9902 408.465C45.287 406.62 44.0329 404.883 42.1875 404.586L25.1455 401.837C23.3023 401.54 21.5674 402.792 21.2685 404.638L6.03516 499.131C5.73843 500.976 6.99256 502.711 8.83581 503.008Z" fill="#2D54AD"/>
<path d="M17.3327 456.033L32.5768 458.489C32.9277 458.547 33.257 458.307 33.3155 457.956L34.2251 452.303C34.2836 451.95 34.0432 451.618 33.6923 451.562L18.4482 449.104C18.0973 449.049 17.768 449.288 17.7096 449.639L16.7999 455.294C16.7414 455.645 16.9818 455.974 17.3327 456.033Z" fill="#C1D2F2"/>
<path d="M19.8608 413.376L43.5826 417.201L44.2129 413.293L20.4912 409.47L19.8608 413.376Z" fill="#C1D2F2"/>
<path d="M18.5417 421.545L42.2635 425.368L42.8937 421.463L19.172 417.638L18.5417 421.545Z" fill="#C1D2F2"/>
<path d="M8.82263 481.84L32.5444 485.663L33.1747 481.758L9.45296 477.933L8.82263 481.84Z" fill="#C1D2F2"/>
<path d="M7.50586 490.008L31.2276 493.833L31.8579 489.926L8.13619 486.1L7.50586 490.008Z" fill="#C1D2F2"/>
<path d="M-23.03 521.934V526.66H489.595V521.934H-23.03Z" fill="#19336C"/>
</g>
<defs>
<linearGradient id="paint0_linear_120_1056" x1="71.1391" y1="69.7461" x2="24.8173" y2="40.0876" gradientUnits="userSpaceOnUse">
<stop stop-color="#51ACFF"/>
<stop offset="1" stop-color="#0055D5"/>
</linearGradient>
<clipPath id="clip0_120_1056">
<path d="M0 48C0 21.4903 21.4903 0 48 0H800V900H48C21.4903 900 0 878.51 0 852V48Z" fill="white"/>
</clipPath>
</defs>
</svg>
