<svg width="526" height="314" viewBox="0 0 526 314" fill="none" xmlns="http://www.w3.org/2000/svg">
<path d="M221.469 10.1705H253.04C253.868 10.1705 254.54 9.49846 254.54 8.67046V1.54346C254.54 0.715457 253.868 0.043457 253.04 0.043457H221.469C220.641 0.043457 219.969 0.715457 219.969 1.54346V8.67046C219.969 9.49846 220.64 10.1705 221.469 10.1705Z" fill="#D4DFF4"/>
<path d="M202.613 23.0855H234.184C235.012 23.0855 235.684 22.4135 235.684 21.5855V14.4585C235.684 13.6305 235.012 12.9585 234.184 12.9585H202.613C201.785 12.9585 201.113 13.6305 201.113 14.4585V21.5855C201.113 22.4145 201.784 23.0855 202.613 23.0855Z" fill="#D4DFF4"/>
<path d="M385.911 165.705H354.34C353.512 165.705 352.84 165.033 352.84 164.205V157.078C352.84 156.25 353.512 155.578 354.34 155.578H385.911C386.739 155.578 387.411 156.25 387.411 157.078V164.205C387.411 165.034 386.739 165.705 385.911 165.705Z" fill="#D4DFF4"/>
<path d="M404.768 178.621H373.197C372.369 178.621 371.697 177.949 371.697 177.121V169.994C371.697 169.166 372.369 168.494 373.197 168.494H404.768C405.596 168.494 406.268 169.166 406.268 169.994V177.121C406.268 177.949 405.596 178.621 404.768 178.621Z" fill="#D4DFF4"/>
<path d="M94.4536 241.547H62.8826C62.0536 241.547 61.3826 240.875 61.3826 240.047V232.92C61.3826 232.092 62.0536 231.42 62.8826 231.42H94.4536C95.2816 231.42 95.9536 232.092 95.9536 232.92V240.047C95.9536 240.876 95.2816 241.547 94.4536 241.547Z" fill="#D4DFF4"/>
<path d="M132.168 241.547H100.597C99.7686 241.547 99.0966 240.875 99.0966 240.047V232.92C99.0966 232.092 99.7686 231.42 100.597 231.42H132.168C132.996 231.42 133.668 232.092 133.668 232.92V240.047C133.668 240.876 132.996 241.547 132.168 241.547Z" fill="#D4DFF4"/>
<path d="M113.311 254.463H81.7396C80.9116 254.463 80.2396 253.791 80.2396 252.963V245.836C80.2396 245.008 80.9116 244.336 81.7396 244.336H113.311C114.139 244.336 114.811 245.008 114.811 245.836V252.963C114.811 253.791 114.139 254.463 113.311 254.463Z" fill="#D4DFF4"/>
<path d="M263 314C407.975 314 525.5 311.314 525.5 308C525.5 304.686 407.975 302 263 302C118.025 302 0.5 304.686 0.5 308C0.5 311.314 118.025 314 263 314Z" fill="#D4DFF4"/>
<path d="M400.579 300.396L406.238 269.745H367.752L373.411 300.396C373.769 302.337 375.462 303.745 377.435 303.745H396.554C398.528 303.745 400.221 302.337 400.579 300.396Z" fill="#2F4574"/>
<path opacity="0.4" d="M400.579 300.396L406.238 269.745H367.752L373.411 300.396C373.769 302.337 375.462 303.745 377.435 303.745H396.554C398.528 303.745 400.221 302.337 400.579 300.396Z" fill="white"/>
<path d="M402.16 242.005C397.094 240.67 389.352 251.187 387.001 261.44V246.501C388.183 244.405 390.436 241.252 394.527 237.92C400.889 232.738 406.745 226.089 401.67 224.752C396.913 223.499 389.8 232.692 387.001 242.305V223.121C387.821 221.848 389.164 220.179 391.31 218.431C395.32 215.166 399.01 210.975 395.812 210.132C393.036 209.401 388.986 214.315 387.001 219.857V213.639C387.329 211.716 387.793 208.969 389.065 206.16C392.014 199.653 393.607 192.948 389.719 193.447C385.827 193.946 383.304 205.536 385.432 214.434V217.634C383.995 211.123 379.062 204.379 375.843 205.227C372.644 206.069 376.335 210.26 380.344 213.526C383.396 216.012 384.824 218.338 385.431 219.59V234.703C383.125 224.398 375.329 213.762 370.236 215.104C365.16 216.441 371.017 223.091 377.379 228.272C382.187 232.187 384.457 235.856 385.432 237.852V255.974C382.968 245.858 375.371 235.649 370.374 236.965C365.298 238.302 369.651 243.161 376.801 249.039C381.66 253.034 384.262 257.249 385.432 259.541V269.746H387.001V264.681C387.996 262.669 390.268 259.043 395.017 255.175C401.379 249.991 407.236 243.342 402.16 242.005Z" fill="#2F4574"/>
<path opacity="0.2" d="M402.16 242.005C397.094 240.67 389.352 251.187 387.001 261.44V246.501C388.183 244.405 390.436 241.252 394.527 237.92C400.889 232.738 406.745 226.089 401.67 224.752C396.913 223.499 389.8 232.692 387.001 242.305V223.121C387.821 221.848 389.164 220.179 391.31 218.431C395.32 215.166 399.01 210.975 395.812 210.132C393.036 209.401 388.986 214.315 387.001 219.857V213.639C387.329 211.716 387.793 208.969 389.065 206.16C392.014 199.653 393.607 192.948 389.719 193.447C385.827 193.946 383.304 205.536 385.432 214.434V217.634C383.995 211.123 379.062 204.379 375.843 205.227C372.644 206.069 376.335 210.26 380.344 213.526C383.396 216.012 384.824 218.338 385.431 219.59V234.703C383.125 224.398 375.329 213.762 370.236 215.104C365.16 216.441 371.017 223.091 377.379 228.272C382.187 232.187 384.457 235.856 385.432 237.852V255.974C382.968 245.858 375.371 235.649 370.374 236.965C365.298 238.302 369.651 243.161 376.801 249.039C381.66 253.034 384.262 257.249 385.432 259.541V269.746H387.001V264.681C387.996 262.669 390.268 259.043 395.017 255.175C401.379 249.991 407.236 243.342 402.16 242.005Z" fill="white"/>
<path d="M408.608 268.301H365.383V272.509H408.608V268.301Z" fill="#2F4574"/>
<path opacity="0.6" d="M408.608 268.301H365.383V272.509H408.608V268.301Z" fill="white"/>
<path d="M347.313 36.8794H216.695V304.634H347.313V36.8794Z" fill="#FFB800"/>
<path opacity="0.2" d="M347.313 36.8794H216.695V304.634H347.313V36.8794Z" fill="black"/>
<path d="M343.49 300.811L343.49 40.7019L220.518 40.7019L220.518 300.811H343.49Z" fill="#FFB800"/>
<path opacity="0.9" d="M343.491 40.7024H220.521V304.632H343.491V40.7024Z" fill="white"/>
<path opacity="0.1" d="M343.491 40.7024H244.371V304.632H343.491V40.7024Z" fill="black"/>
<path d="M174.767 23.4324V304.634H216.695V36.8794L174.767 23.4324Z" fill="#FFB800"/>
<path opacity="0.2" d="M174.767 23.4324V304.634H216.695V36.8794L174.767 23.4324Z" fill="white"/>
<path d="M185.734 167.75C185.734 171.511 184.318 174.56 182.571 174.56C180.824 174.56 179.407 171.511 179.407 167.75C179.407 163.989 180.823 160.94 182.571 160.94C184.317 160.941 185.734 163.989 185.734 167.75Z" fill="#FFB800"/>
<path d="M174.767 23.4324H170.971V304.634H174.767V23.4324Z" fill="#FFB800"/>
<path opacity="0.2" d="M174.767 23.4324H170.971V304.634H174.767V23.4324Z" fill="black"/>
<path d="M494.939 76.0122C497.716 79.9832 500.301 83.9902 502.74 88.1732C503.964 90.2592 505.147 92.3772 506.296 94.5602C506.862 95.6592 507.421 96.7682 507.966 97.9232C508.513 99.0912 509.045 100.26 509.546 101.694C509.677 102.109 509.796 102.418 509.926 102.937L510.018 103.296L510.066 103.496L510.138 103.874C510.232 104.39 510.244 104.864 510.23 105.318C510.12 107.12 509.552 108.2 509.075 109.09C508.07 110.798 507.034 111.822 506.011 112.809C503.967 114.714 501.917 116.182 499.823 117.56C495.639 120.297 491.387 122.555 486.915 124.606L484.173 119.9C487.853 117.093 491.565 114.157 494.95 111.165C496.621 109.66 498.256 108.111 499.507 106.597C500.111 105.863 500.635 105.067 500.764 104.685C500.83 104.527 500.713 104.474 500.64 105.082C500.625 105.241 500.634 105.416 500.662 105.641L500.694 105.801C500.7 105.83 500.681 105.788 500.681 105.788L500.646 105.72L500.441 105.284C500.057 104.516 499.529 103.558 498.983 102.621C498.428 101.674 497.83 100.71 497.221 99.7482C496.013 97.8112 494.739 95.8682 493.466 93.9182C490.9 90.0372 488.321 86.0772 485.818 82.1612L494.939 76.0122Z" fill="#F8AC97"/>
<path d="M499.178 292.335L497.179 301.691H492.223L491.708 292.335H499.178Z" fill="#F8AC97"/>
<path d="M478.034 308.309C478.208 305.26 479.527 304.35 481.188 304.246C482.915 304.138 489.029 302.082 489.029 302.082C489.029 302.082 490.26 300.146 491.385 299.753C492.51 299.36 493.646 300.511 493.646 300.511L496.746 300.134C496.746 300.134 497.636 298.742 498.315 299.961C499.368 301.851 499.41 307.082 499.355 308.309H478.034Z" fill="#2F4574"/>
<path d="M478.413 307.513C479.703 307.507 480.988 307.501 482.278 307.495C487.914 307.468 493.549 307.435 499.186 307.407C499.401 307.408 499.347 307.08 499.133 307.085C498.754 307.089 498.367 307.087 497.988 307.092C497.986 307.079 497.977 307.061 497.968 307.049C496.868 305.292 497.51 303.508 498.984 302.618C499.158 302.52 498.94 302.234 498.773 302.339C497.178 303.302 496.531 305.21 497.646 307.091C496.85 307.099 496.059 307.101 495.261 307.104C489.631 307.131 483.996 307.164 478.36 307.192C478.145 307.19 478.199 307.518 478.413 307.513Z" fill="#407BFF"/>
<path d="M504.029 169.771C504.227 179.199 503.805 191.397 502.225 207.094C501.766 211.655 501.209 216.514 500.537 221.687C508.018 251.637 499.275 294.905 499.275 294.905L491.605 294.735C491.605 294.735 484.458 246.381 482.119 221.066C478.286 179.59 478.313 140.08 478.313 140.08L499.228 138.292C499.228 138.292 503.53 146.234 504.029 169.771Z" fill="#407BFF"/>
<path opacity="0.6" d="M504.029 169.771C504.227 179.199 503.805 191.397 502.225 207.094C501.766 211.655 501.209 216.514 500.537 221.687C508.018 251.637 499.275 294.905 499.275 294.905L491.605 294.735C491.605 294.735 484.458 246.381 482.119 221.066C478.286 179.59 478.313 140.08 478.313 140.08L499.228 138.292C499.228 138.292 503.53 146.234 504.029 169.771Z" fill="white"/>
<path opacity="0.2" d="M480.275 197.18C485.365 184.15 482.215 161.17 482.215 161.17L479.355 179.98L480.275 197.18Z" fill="black"/>
<path d="M490.957 296.524L490.298 293.268H500.501L500.341 296.524H490.957Z" fill="#2F4574"/>
<path d="M465.467 292.23L463.497 301.648H458.541L457.998 292.23H465.467Z" fill="#F8AC97"/>
<path d="M444.372 308.309C444.537 305.24 445.854 304.324 447.514 304.22C449.241 304.111 455.349 302.041 455.349 302.041C455.349 302.041 456.574 300.093 457.698 299.697C458.822 299.301 459.961 300.46 459.961 300.46L463.06 300.08C463.06 300.08 463.945 298.679 464.629 299.907C465.687 301.809 465.745 307.075 465.694 308.309H444.372Z" fill="#2F4574"/>
<path d="M444.749 307.507C446.039 307.501 447.324 307.495 448.614 307.489C454.25 307.462 459.885 307.428 465.521 307.401C465.736 307.402 465.681 307.072 465.467 307.077C465.088 307.081 464.701 307.08 464.322 307.084C464.32 307.071 464.311 307.053 464.302 307.04C463.196 305.272 463.833 303.476 465.304 302.58C465.477 302.481 465.258 302.194 465.092 302.299C463.5 303.269 462.859 305.189 463.979 307.082C463.183 307.09 462.392 307.092 461.594 307.095C455.964 307.122 450.329 307.156 444.693 307.183C444.479 307.182 444.534 307.512 444.749 307.507Z" fill="#407BFF"/>
<path d="M455.086 220.495C455.59 245.972 457.638 294.649 457.638 294.649L465.295 294.812C465.295 294.812 478.105 251.26 473.443 221.116C474.597 215.913 475.611 211.021 476.502 206.432C477.05 203.61 477.549 200.902 477.999 198.301C479.553 189.434 480.584 181.826 481.247 175.306C481.484 173.024 481.672 170.88 481.82 168.86C483.53 145.17 479.169 139.958 479.169 139.958L455.086 140.053C455.086 140.053 454.207 176.091 455.086 220.495Z" fill="#407BFF"/>
<path opacity="0.6" d="M455.086 220.495C455.59 245.972 457.638 294.649 457.638 294.649L465.295 294.812C465.295 294.812 478.105 251.26 473.443 221.116C474.597 215.913 475.611 211.021 476.502 206.432C477.05 203.61 477.549 200.902 477.999 198.301C479.553 189.434 480.584 181.826 481.247 175.306C481.484 173.024 481.672 170.88 481.82 168.86C483.53 145.17 479.169 139.958 479.169 139.958L455.086 140.053C455.086 140.053 454.207 176.091 455.086 220.495Z" fill="white"/>
<path d="M456.824 296.447L456.472 293.169H466.675L466.208 296.447H456.824Z" fill="#2F4574"/>
<path d="M453.354 49.6742C453.226 49.7122 453.081 49.6842 452.975 49.5862C452.816 49.4392 452.806 49.1902 452.953 49.0312C454.427 47.4352 456.22 47.7172 456.295 47.7302C456.509 47.7662 456.653 47.9692 456.617 48.1832C456.581 48.3962 456.379 48.5402 456.166 48.5052C456.107 48.4962 454.708 48.2902 453.531 49.5642C453.48 49.6172 453.419 49.6542 453.354 49.6742Z" fill="#16274C"/>
<path d="M454.018 51.4124C454.018 51.4124 453.301 54.3474 452.276 55.8564C453.239 56.5364 454.641 55.9743 454.641 55.9743L454.018 51.4124Z" fill="#ED847E"/>
<path d="M454.999 51.6062C455.156 52.2562 454.939 52.8672 454.514 52.9692C454.089 53.0722 453.617 52.6282 453.46 51.9782C453.303 51.3282 453.519 50.7172 453.945 50.6142C454.37 50.5122 454.841 50.9552 454.999 51.6062Z" fill="#16274C"/>
<path d="M454.141 50.6054L452.47 50.5334C452.47 50.5334 453.567 51.5594 454.141 50.6054Z" fill="#16274C"/>
<path d="M454.648 40.9414C454.648 40.9414 450.926 41.7214 453.704 47.3774L456.699 41.8484L454.648 40.9414Z" fill="#16274C"/>
<path d="M470.588 35.7683C470.588 35.7683 467.993 23.3913 477.93 24.7373C487.867 26.0823 485.746 34.4293 485.746 34.4293C485.746 34.4293 491.751 34.9063 488.722 41.6753C485.692 48.4443 475.17 43.5873 475.17 43.5873C472.694 41.7893 471.31 39.0613 470.588 35.7683Z" fill="#16274C"/>
<path d="M473.304 72.3513C470.634 71.9633 468.631 72.4373 467.19 73.1343C468.539 70.8403 467.616 68.1313 466.322 65.6413L473.684 55.5483C473.889 60.6153 475.057 69.7143 479.213 72.1393C479.213 72.1393 480.56 73.4103 473.304 72.3513Z" fill="#F8AC97"/>
<g opacity="0.2">
<path d="M470.682 59.6633L466.325 65.6343C466.763 66.4713 467.154 67.3333 467.426 68.1963C469.419 67.4063 471.713 64.4643 471.417 62.2523C471.27 61.1483 470.978 60.1233 470.682 59.6633Z" fill="black"/>
</g>
<path d="M475.948 45.9174C476.546 53.9294 476.97 57.3084 473.514 61.9344C468.316 68.8934 458.344 67.8754 455.365 60.2034C452.683 53.2974 452.157 41.3554 459.502 37.1304C466.739 32.9684 475.351 37.9054 475.948 45.9174Z" fill="#F8AC97"/>
<path d="M463.973 33.8423C463.973 33.8423 471.317 32.1383 476.146 36.9183C480.975 41.6973 481.788 53.7163 473.887 61.4163C474.019 63.8473 463.468 64.6083 460.495 57.6663C459.416 55.1463 457.806 53.4743 457.387 44.9063C457.387 44.9063 457.387 44.9063 454.378 44.0513C451.9 42.8503 452.596 32.6363 463.973 33.8423Z" fill="#16274C"/>
<path d="M464.463 51.7813C464.11 53.4093 463.038 54.7223 461.875 55.4443C460.126 56.5303 458.678 55.1043 458.685 53.1533C458.69 51.3973 459.608 48.7163 461.594 48.4193C463.551 48.1263 464.867 49.9193 464.463 51.7813Z" fill="#F8AC97"/>
<path d="M459.287 55.7262C459.432 56.4472 460.134 56.9133 460.854 56.7683C461.574 56.6233 462.041 55.9213 461.896 55.2013C461.751 54.4803 461.049 54.0142 460.329 54.1592C459.608 54.3042 459.142 55.0062 459.287 55.7262Z" fill="white"/>
<path d="M479.083 45.0085C479.076 45.0085 479.069 45.0075 479.062 45.0065C469.46 43.6965 469.987 33.7545 469.993 33.6535C470.002 33.5325 470.099 33.4344 470.227 33.4474C470.348 33.4554 470.441 33.5605 470.433 33.6815C470.408 34.0745 469.929 43.3145 479.122 44.5685C479.242 44.5845 479.327 44.6965 479.31 44.8165C479.296 44.9315 479.196 45.0125 479.083 45.0085Z" fill="#407BFF"/>
<path d="M501.416 135.958C504.336 148.093 456.542 144.05 454.611 141.641C452.689 139.232 458.219 110.377 458.505 103.404L458.506 103.377C458.763 96.4483 452.099 88.2413 454.897 83.2233C455.927 81.3773 457.913 79.4183 460.016 77.6733C461.884 76.1263 463.844 74.7553 465.288 73.7953C465.409 73.7103 465.521 73.6423 465.623 73.5743L465.642 73.5573C465.977 73.3373 466.285 73.1423 466.545 72.9813C467.178 72.5833 467.549 72.3643 467.549 72.3643C467.549 72.3643 473.874 71.1113 480.377 70.9513C480.766 70.9413 481.147 70.9393 481.536 70.9383C484.179 70.9263 486.776 71.1213 488.941 71.6773C496.762 73.6743 497.748 80.7383 497.705 88.5813C497.662 96.4253 500.168 130.769 501.416 135.958Z" fill="#2F4574"/>
<g opacity="0.2">
<path d="M481.536 70.9395C481.526 70.9665 481.525 70.9845 481.515 71.0105C481.082 72.4395 476.09 76.1035 471.663 75.7565C467.677 75.4465 465.656 74.0745 465.288 73.7955C465.409 73.7105 465.521 73.6425 465.623 73.5745L465.642 73.5574C465.977 73.3374 466.285 73.1425 466.545 72.9815C467.524 73.3495 469.819 74.0565 473.093 74.0815C477.533 74.1305 480.368 70.9604 480.368 70.9604C480.368 70.9604 480.368 70.9605 480.377 70.9515C480.767 70.9415 481.147 70.9405 481.536 70.9395Z" fill="black"/>
</g>
<path d="M470.267 89.7203C469.212 98.9853 462.081 102.311 458.505 103.404L458.506 103.377C458.763 96.4483 452.099 88.2413 454.897 83.2233C455.927 81.3773 457.913 79.4183 460.016 77.6733C464.763 78.7853 471.174 81.7703 470.267 89.7203Z" fill="#F8AC97"/>
<path opacity="0.2" d="M462.874 93.8374C462.874 93.8374 463.595 98.0904 462.025 101.94C460.715 102.64 459.475 103.11 458.505 103.4V103.38C458.525 102.9 458.505 102.41 458.465 101.92L462.874 93.8374Z" fill="black"/>
<path d="M466.599 73.1094C466.599 73.1094 466.345 71.1444 467.501 70.5724C468.657 70.0004 473.57 66.6504 475.462 66.5074C477.354 66.3644 479.066 70.9744 480.369 70.9574C481.673 70.9394 469.773 74.2404 466.599 73.1094Z" fill="#2F4574"/>
<path d="M477.484 132.483H480.612C480.612 132.483 482.029 141.233 477.029 145.4C472.029 149.567 460.598 148.729 460.598 148.729L477.484 132.483Z" fill="#407BFF"/>
<path d="M449.112 132.483H477.484C477.484 132.483 478.362 145.566 470.097 147.733C462.625 149.692 447.695 150.983 449.112 132.483Z" fill="#407BFF"/>
<path opacity="0.4" d="M477.002 138.78C476.942 139.06 476.882 139.35 476.812 139.64C475.952 143.08 474.102 146.69 470.102 147.73C463.822 149.38 452.282 150.55 449.592 139.91C449.522 139.63 449.452 139.33 449.402 139.02C449.032 137.18 448.922 135.02 449.112 132.48H477.482C477.482 132.48 477.682 135.44 477.002 138.78Z" fill="white"/>
<path d="M462.43 137.108C462.43 137.573 462.053 137.95 461.588 137.95C461.123 137.95 460.746 137.573 460.746 137.108C460.746 136.643 461.123 136.266 461.588 136.266C462.053 136.265 462.43 136.642 462.43 137.108Z" fill="#407BFF"/>
<path d="M477.002 138.78C476.942 139.06 476.882 139.35 476.812 139.64C474.332 140.54 468.382 142.43 462.492 142.43C462.282 142.43 462.072 142.42 461.862 142.42C456.472 142.29 451.932 140.83 449.592 139.91C449.522 139.63 449.452 139.33 449.402 139.02C451.502 139.89 456.202 141.54 461.882 141.67C468.222 141.82 474.842 139.58 477.002 138.78Z" fill="#407BFF"/>
<path d="M455.925 93.0803C452.605 108.64 450.755 129.36 450.485 132.48H449.485C449.745 129.29 451.665 107.25 455.305 91.3203C455.495 91.9003 455.715 92.4803 455.925 93.0803Z" fill="#407BFF"/>
<path opacity="0.4" d="M455.925 93.0803C452.605 108.64 450.755 129.36 450.485 132.48H449.485C449.745 129.29 451.665 107.25 455.305 91.3203C455.495 91.9003 455.715 92.4803 455.925 93.0803Z" fill="white"/>
<path d="M480.225 132.48H479.215C477.165 113.41 471.545 78.0704 464.295 75.6404C463.735 75.4604 463.185 75.5404 462.615 75.9204C462.005 76.3204 461.425 76.9904 460.865 77.8904C460.575 77.8104 460.295 77.7404 460.015 77.6704C459.925 77.7504 459.835 77.8204 459.745 77.8904C460.475 76.5804 461.255 75.6204 462.065 75.0804C462.895 74.5404 463.755 74.4104 464.615 74.7004C473.895 77.8104 479.475 125.7 480.225 132.48Z" fill="#407BFF"/>
<path opacity="0.4" d="M480.225 132.48H479.215C477.165 113.41 471.545 78.0704 464.295 75.6404C463.735 75.4604 463.185 75.5404 462.615 75.9204C462.005 76.3204 461.425 76.9904 460.865 77.8904C460.575 77.8104 460.295 77.7404 460.015 77.6704C459.925 77.7504 459.835 77.8204 459.745 77.8904C460.475 76.5804 461.255 75.6204 462.065 75.0804C462.895 74.5404 463.755 74.4104 464.615 74.7004C473.895 77.8104 479.475 125.7 480.225 132.48Z" fill="white"/>
<path d="M464.983 87.7444C463.249 93.4284 461.373 99.0074 459.294 104.571C458.276 107.358 457.179 110.121 456.053 112.903C454.88 115.688 453.747 118.412 452.23 121.339L451.565 122.515L451.397 122.807L451.313 122.953L451.271 123.026L451.164 123.195C451.01 123.429 450.865 123.641 450.68 123.875C450.459 124.139 450.227 124.389 449.973 124.629C449.651 124.908 449.329 125.157 448.947 125.387C448.52 125.623 448.092 125.833 447.608 125.968C447.125 126.105 446.613 126.2 446.162 126.205C445.929 126.213 445.695 126.21 445.464 126.196C445.254 126.178 445.067 126.149 444.869 126.115C443.315 125.803 442.54 125.228 441.903 124.785C440.716 123.866 440.102 123.081 439.511 122.33C438.935 121.58 438.467 120.857 438.031 120.142C436.328 117.296 435.046 114.549 433.848 111.751C431.462 106.177 429.521 100.583 427.803 94.8354L432.871 92.8414C435.528 97.9894 438.267 103.177 441.11 108.119C442.55 110.563 444.021 113.017 445.576 115.06C445.961 115.561 446.351 116.031 446.705 116.417C447.045 116.798 447.432 117.104 447.433 117.053C447.394 117.029 447.273 116.827 446.445 116.643C446.337 116.623 446.24 116.614 446.122 116.604C445.983 116.588 445.84 116.583 445.699 116.589C445.434 116.607 445.097 116.639 444.793 116.737C444.489 116.835 444.215 116.933 443.956 117.098C443.728 117.229 443.544 117.356 443.369 117.525C443.24 117.631 443.129 117.742 443.032 117.871C442.956 117.958 442.907 118.013 442.857 118.096L442.825 118.149L442.847 118.1L442.89 118.002L442.977 117.806L443.329 117.029C444.336 114.653 445.306 111.886 446.221 109.186C447.176 106.478 448.059 103.712 448.983 100.958C450.784 95.4384 452.633 89.8804 454.51 84.3904L464.983 87.7444Z" fill="#F8AC97"/>
<path d="M432.898 92.9404C432.898 92.9404 433.773 89.2954 433.773 88.2324C433.773 87.1694 431.92 86.0654 431.92 86.0654C431.92 86.0654 431.772 83.4194 430.335 82.9824C428.898 82.5454 424.523 83.7324 424.013 86.7764C423.739 88.4124 427.898 94.8574 427.898 94.8574L432.898 92.9404Z" fill="#F8AC97"/>
<path d="M58.1996 80.1105L49.0696 98.7105C48.2396 100.42 47.4096 102.14 46.5796 103.85C45.8396 105.38 45.1096 106.91 44.3996 108.43C43.0196 111.37 41.7096 114.29 40.5296 117.16C39.9496 118.63 39.3896 120.15 39.0796 121.25C38.7696 122.38 38.5396 123.91 38.3896 125.47C38.0796 128.62 37.9696 132.01 37.9196 135.4C37.8696 142.19 37.9796 149.17 38.1396 156.07L31.2796 157.04C29.5796 150.09 28.2396 143.16 27.3496 136.01C26.9096 132.42 26.5696 128.82 26.5196 124.99C26.5096 123.05 26.5496 121.09 26.8996 118.79C27.3196 116.47 27.8696 114.67 28.4496 112.85C29.6196 109.27 30.8696 105.91 32.2296 102.59C33.5796 99.2705 34.9696 96.0005 36.4296 92.7805C39.3396 86.3105 42.4196 80.0105 45.7396 73.7305L58.1996 80.1105Z" fill="#407BFF"/>
<path opacity="0.2" d="M46.5795 79.3005V103.851C45.8395 105.381 45.1095 106.911 44.3995 108.431L46.5795 79.3005Z" fill="black"/>
<path d="M24.4575 168.618V162.354C24.4575 162.137 24.6345 161.961 24.8515 161.961H28.2505V160.95H24.8515C24.0765 160.95 23.4465 161.58 23.4465 162.355V168.619H24.4575V168.618Z" fill="#2F4574"/>
<path d="M47.9706 162.354V168.618H48.9816V162.354C48.9816 161.579 48.3516 160.949 47.5766 160.949H44.1776V161.96H47.5766C47.7936 161.96 47.9706 162.137 47.9706 162.354Z" fill="#2F4574"/>
<path d="M62.3136 171.268V202.872C62.3136 204.338 61.1206 205.532 59.6536 205.532H14.0426C12.5766 205.532 11.3826 204.339 11.3826 202.872V171.268C11.3826 169.802 12.5756 168.618 14.0426 168.618H59.6536C61.1206 168.618 62.3136 169.801 62.3136 171.268Z" fill="#2F4574"/>
<g opacity="0.5">
<path d="M62.3136 171.268V202.872C62.3136 204.338 61.1206 205.532 59.6536 205.532H14.0426C12.5766 205.532 11.3826 204.339 11.3826 202.872V171.268C11.3826 169.802 12.5756 168.618 14.0426 168.618H59.6536C61.1206 168.618 62.3136 169.801 62.3136 171.268Z" fill="white"/>
</g>
<path d="M55.6196 168.618H53.5966V205.531H55.6196V168.618Z" fill="#2F4574"/>
<path d="M20.1016 168.618H18.0786V205.531H20.1016V168.618Z" fill="#2F4574"/>
<path d="M45.2186 159.769H26.8466V163.14H45.2186V159.769Z" fill="#2F4574"/>
<path opacity="0.3" d="M45.2186 159.769H26.8466V163.14H45.2186V159.769Z" fill="white"/>
<path d="M38.2016 155.13C38.2016 155.13 42.2886 158.271 42.7636 159.535C43.2386 160.799 41.3236 163.802 40.3896 163.747C39.0796 163.669 40.7686 160.343 40.7686 160.343L32.7326 160.155C32.7326 160.155 31.2626 159.606 31.2796 157.039C33.3106 155.29 35.5036 154.685 38.2016 155.13Z" fill="#F8AC97"/>
<path d="M41.8915 162.664C41.8915 162.664 42.7705 164.587 41.6405 165.127C40.5105 165.668 33.9075 165.398 32.3355 164.58C30.7635 163.762 31.6155 161.491 32.8145 161.199C34.0125 160.909 40.4425 160.179 41.8915 162.664Z" fill="#F8AC97"/>
<path d="M24.9125 283.419L21.9155 297.312L27.4295 298.97L32.9835 286.555L24.9125 283.419Z" fill="#F8AC97"/>
<path d="M26.0816 297.309C26.0816 297.309 28.5766 294.303 29.5396 294.889C30.5026 295.475 30.0406 299.675 30.0406 299.675C30.0406 299.675 35.2875 302.787 36.8465 303.227C38.4046 303.667 39.4905 304.839 39.0275 307.969L19.7166 303.802C19.7166 303.802 21.3506 296.862 21.6436 295.676C21.9366 294.489 23.3146 296.349 23.3146 296.349L26.0816 297.309Z" fill="#2F4574"/>
<path d="M71.9996 143.46C71.1866 147.748 70.7736 158.064 70.2386 170.082C69.8676 178.327 69.4466 187.37 68.7996 195.814C67.9936 206.622 66.8236 216.446 64.9556 222.337C58.3916 243.102 32.4786 289.618 32.4786 289.618L23.4126 287.657C23.4126 287.657 37.8536 237.798 39.4426 232.201C41.0316 226.604 44.4516 206.53 44.4376 184.787C44.4156 150.61 44.4376 142.586 44.4376 142.586L71.9996 143.46Z" fill="#2F4574"/>
<path opacity="0.2" d="M71.5285 172.03C70.6775 180.24 69.7315 189.243 68.5945 197.634C66.0235 181.539 65.1925 157.617 65.1925 157.617L71.5285 172.03Z" fill="black"/>
<path d="M22.5555 287.811L33.1985 290.107L34.7115 286.881L23.0425 284.215L22.5555 287.811Z" fill="#407BFF"/>
<path d="M73.3055 287.289V301.501L79.0455 301.958L81.8555 288.652L73.3055 287.289Z" fill="#F8AC97"/>
<path d="M77.3775 300.62C77.3775 300.62 79.1825 297.155 80.2475 297.525C81.3125 297.895 81.7465 302.098 81.7465 302.098C81.7465 302.098 87.5315 304.033 89.1485 304.135C90.7645 304.237 92.0735 305.153 92.2805 308.31H72.5255C72.5255 308.31 72.6585 301.182 72.6945 299.96C72.7305 298.738 74.4695 300.265 74.4695 300.265L77.3775 300.62Z" fill="#2F4574"/>
<path d="M66.4685 144.084C64.2485 145.555 65.5275 155.247 65.8715 159.428C66.5175 167.396 71.5325 179.24 72.2195 189.589C73.0215 201.574 73.5935 213.575 73.3075 221.903C72.5715 243.287 72.7345 291.75 72.7345 291.75H82.0115C82.0115 291.75 92.9085 243.582 94.9455 221.903C96.6475 203.93 95.2315 152.196 94.9445 141.005L66.4685 144.084Z" fill="#2F4574"/>
<path d="M71.9275 292.079H82.8145L83.6135 288.606L71.6445 288.461L71.9275 292.079Z" fill="#407BFF"/>
<path d="M89.7035 47.6375C89.8115 48.2975 89.5485 48.8895 89.1165 48.9605C88.6845 49.0305 88.2475 48.5525 88.1405 47.8925C88.0325 47.2325 88.2954 46.6395 88.7274 46.5695C89.1584 46.4995 89.5965 46.9775 89.7035 47.6375Z" fill="#16274C"/>
<path d="M88.7886 48.4175C88.7886 48.4175 90.2166 51.7755 91.7326 53.3735C90.7176 54.3725 88.9366 53.9755 88.9366 53.9755L88.7886 48.4175Z" fill="#F79489"/>
<path d="M86.2615 44.1504C86.1785 44.1364 86.1005 44.0914 86.0465 44.0194C85.9305 43.8674 85.9605 43.6504 86.1125 43.5354C87.6335 42.3764 89.1405 42.8954 89.2055 42.9174C89.3855 42.9814 89.4785 43.1794 89.4145 43.3594C89.3505 43.5384 89.1505 43.6314 88.9745 43.5694C88.9255 43.5524 87.7435 43.1614 86.5305 44.0854C86.4515 44.1464 86.3535 44.1674 86.2615 44.1504Z" fill="#16274C"/>
<path d="M77.7295 64.2344L69.3235 51.9514C68.3805 57.9104 65.9895 66.9584 63.7245 70.3954C63.7245 70.3954 65.8765 76.0614 76.5755 72.4484C76.5755 72.4484 75.1215 67.8394 77.7295 64.2344Z" fill="#F8AC97"/>
<path d="M62.8445 67.7334C62.8445 67.7334 63.8675 64.3133 66.6175 63.4543C66.6175 63.4543 74.1865 65.6693 76.9445 65.5943C76.9445 65.5943 78.1565 66.6193 78.0295 68.2283C78.0295 68.2283 65.8585 68.5994 62.8445 67.7334Z" fill="#407BFF"/>
<path d="M68.8515 46.6354C69.4875 53.8474 69.4935 58.1004 73.2405 61.7114C78.8775 67.1424 87.7055 63.5964 89.2365 56.3404C90.6155 49.8084 89.3435 39.1124 82.1955 36.4264C75.1545 33.7794 68.2155 39.4234 68.8515 46.6354Z" fill="#F8AC97"/>
<path d="M88.9685 39.4714C85.1365 44.8074 87.9065 46.6434 86.8755 48.9144C85.8445 51.1854 83.8315 46.1684 81.7855 51.7584C79.7395 57.3484 72.1925 58.8494 72.1925 58.8494C70.5055 57.2604 68.5715 57.4674 68.5715 57.4674C53.0005 40.5404 67.2295 36.9684 67.2295 36.9684C67.2295 36.9684 67.8735 34.1084 72.1385 32.8294C75.5515 31.8064 76.2575 32.5704 81.1195 31.8734C85.9815 31.1764 88.3245 30.5024 90.6655 32.5744C92.5115 34.2074 88.9685 39.4714 88.9685 39.4714Z" fill="#16274C"/>
<path d="M80.5195 48.9825C80.6705 50.8725 81.5855 52.6355 82.6655 53.7795C84.2905 55.4985 85.9275 54.3755 86.1665 52.2355C86.3815 50.3105 85.7945 47.0955 83.8315 46.1685C81.8975 45.2555 80.3465 46.8215 80.5195 48.9825Z" fill="#F8AC97"/>
<path d="M98.6595 127.1C98.5695 131.51 98.3495 136.08 97.9695 140.81C97.8295 142.62 97.6595 144.45 97.4695 146.31C74.2595 154.48 42.1495 145.51 42.1495 145.51C43.2095 140.96 45.0995 127.34 45.8995 117.39C46.8995 105 47.0495 95.3804 45.1595 81.9404C44.2395 75.4104 45.6995 69.3104 51.9395 68.5004L54.6995 68.1904C65.1795 66.8404 77.2795 67.2704 87.1395 69.0804C92.1695 70.0004 95.9295 74.4004 96.3495 79.7304C97.2795 91.7204 99.0995 107.86 98.6595 127.1Z" fill="#407BFF"/>
<path opacity="0.2" d="M62.8446 67.7334C62.8446 67.7334 64.5646 70.6704 69.7516 70.6704C74.9386 70.6704 78.0386 67.8594 78.0386 67.8594L79.8216 68.0334C79.8216 68.0334 74.2436 72.6704 68.8096 71.9824C63.3776 71.2954 62.8446 67.7334 62.8446 67.7334Z" fill="black"/>
<path opacity="0.2" d="M98.6595 127.1C98.5695 131.51 98.3495 136.08 97.9695 140.81C94.8895 138.15 90.4495 133.62 88.7895 128.3C86.1395 119.8 83.7695 92.8203 83.7695 92.8203L98.6595 127.1Z" fill="black"/>
<path d="M95.7916 77.6465C96.8096 84.2395 97.7866 90.9275 98.7096 97.5495C99.1866 100.864 99.6516 104.169 100.17 107.445C100.649 110.724 101.222 113.974 101.832 117.06C102.157 118.616 102.45 120.016 102.883 121.269L103.21 122.226L103.639 123.261C103.9 123.947 104.231 124.668 104.557 125.386C105.871 128.262 107.41 131.19 108.963 134.121C112.126 139.96 115.368 145.971 118.691 151.804L114.424 156.006C109.129 151.717 104.333 145.206 100.27 139.57C98.2336 136.749 96.2776 133.862 94.4066 130.752C93.9406 129.971 93.4696 129.198 93.0266 128.341L92.3616 127.081C92.1436 126.636 91.9326 126.152 91.7206 125.687C90.8666 123.804 90.2716 121.919 89.7336 120.201C87.6746 113.256 86.2856 106.581 85.0046 99.8105C83.7226 93.0525 82.7146 86.3255 81.9136 79.4805L95.7916 77.6465Z" fill="#407BFF"/>
<path d="M114.423 156.006C114.423 156.006 115.386 166.6 117.319 166.753C117.826 166.793 118.031 165.633 117.777 162.835C117.777 162.835 120.525 168.941 121.288 169.603C124.985 172.807 124.799 163.446 123.374 159.691C122.022 156.128 118.69 151.804 118.69 151.804L114.423 156.006Z" fill="#F8AC97"/>
</svg>
