<svg width="24" height="25" viewBox="0 0 24 25" fill="none" xmlns="http://www.w3.org/2000/svg">
<path d="M7.2 2.04346H9.8C13 2.04346 15 4.04346 15 7.24346V11.2935H8.75C8.34 11.2935 8 11.6335 8 12.0435C8 12.4535 8.34 12.7935 8.75 12.7935H15V16.8435C15 20.0435 13 22.0435 9.8 22.0435H7.21C4.01 22.0435 2.01 20.0435 2.01 16.8435V7.24346C2 4.04346 4 2.04346 7.2 2.04346Z" fill="#37476A"/>
<path d="M19.4401 11.2935L17.3701 9.22355C17.2201 9.07355 17.1501 8.88354 17.1501 8.69354C17.1501 8.50354 17.2201 8.30354 17.3701 8.16354C17.6601 7.87354 18.1401 7.87354 18.4301 8.16354L21.7801 11.5135C22.0701 11.8035 22.0701 12.2835 21.7801 12.5735L18.4301 15.9235C18.1401 16.2135 17.6601 16.2135 17.3701 15.9235C17.0801 15.6335 17.0801 15.1535 17.3701 14.8635L19.4401 12.7935H15.0001V11.2935H19.4401V11.2935Z" fill="#37476A"/>
</svg>
