<svg width="16" height="16" viewBox="0 0 16 16" fill="none" xmlns="http://www.w3.org/2000/svg">
<path d="M10.1738 14.6667C10.1338 14.6667 10.0871 14.66 10.0471 14.6467C8.70709 14.2667 7.30043 14.2667 5.96043 14.6467C5.71376 14.7133 5.45376 14.5733 5.38709 14.3267C5.31376 14.08 5.46043 13.82 5.70709 13.7533C7.21376 13.3267 8.80043 13.3267 10.3071 13.7533C10.5538 13.8267 10.7004 14.08 10.6271 14.3267C10.5604 14.5333 10.3738 14.6667 10.1738 14.6667Z" fill="#37476A"/>
<path d="M12.8065 4.24001C12.1131 2.84001 10.7732 1.80667 9.21982 1.46667C7.59315 1.10667 5.92648 1.49334 4.65315 2.52001C3.37315 3.54001 2.64648 5.06667 2.64648 6.70001C2.64648 8.42667 3.67982 10.2333 5.23982 11.28V11.8333C5.23315 12.02 5.22648 12.3067 5.45315 12.54C5.68648 12.78 6.03315 12.8067 6.30648 12.8067H9.72648C10.0865 12.8067 10.3598 12.7067 10.5465 12.52C10.7998 12.26 10.7932 11.9267 10.7865 11.7467V11.28C12.8532 9.88667 14.1531 6.94667 12.8065 4.24001ZM9.14648 7.74667L8.43315 8.98667C8.33982 9.14667 8.17315 9.24001 7.99982 9.24001C7.91315 9.24001 7.82648 9.22001 7.75315 9.17334C7.51315 9.03334 7.43315 8.72667 7.56648 8.49334L8.13315 7.50667H7.57315C7.23982 7.50667 6.96648 7.36001 6.81982 7.11334C6.67315 6.86001 6.68648 6.55334 6.85315 6.26001L7.56648 5.02001C7.70648 4.78001 8.01315 4.70001 8.24648 4.83334C8.48648 4.97334 8.56648 5.28001 8.43315 5.51334L7.86648 6.50001H8.42648C8.75982 6.50001 9.03315 6.64667 9.17982 6.89334C9.32648 7.14667 9.31315 7.46001 9.14648 7.74667Z" fill="#37476A"/>
</svg>
