<svg width="549" height="846" viewBox="0 0 549 846" fill="none" xmlns="http://www.w3.org/2000/svg">
<path d="M457.587 505.021C474.857 496.111 495.193 494.953 514.365 498.123C524.666 499.824 535.404 502.908 542.413 510.643C549.422 518.381 550.75 531.998 542.703 538.645C537.912 542.6 531.232 543.204 525.019 543.132C510.008 542.957 493.355 540.315 481.364 549.345C474.523 554.497 469.969 563.064 461.788 565.597C453.787 568.077 444.756 563.354 440.514 556.131C436.271 548.908 436.13 539.881 438.107 531.742C438.107 531.742 440.189 513.998 457.587 505.021Z" fill="#7C8EB5"/>
<path d="M418.02 428.643C428.581 443.724 449.105 438.73 458.622 429.522C468.138 420.317 472.161 406.976 475.823 394.25C484.187 365.18 492.621 334.682 486.402 305.074C484.543 296.225 481.233 287.399 475.014 280.83C468.793 274.264 459.229 270.359 450.485 272.669C440.136 275.402 433.706 285.54 429.056 295.182C415.391 323.52 408.157 354.942 408.049 386.407C407.999 401.098 409.73 416.512 418.02 428.643Z" fill="#7C8EB5"/>
<path d="M389.02 450.282C400.487 436.676 402.662 416.827 397.56 399.781C392.458 382.733 380.931 368.231 367.649 356.39C352.073 342.509 333.764 331.706 314.083 324.784C306.337 322.062 298.167 319.91 289.994 320.692C281.82 321.472 273.59 325.652 269.777 332.923C264.141 343.675 269.545 356.716 275.392 367.354C285.69 386.098 297.465 404.029 310.573 420.927C321.118 434.522 333.198 447.935 349.268 454.078C365.339 460.221 382.033 459.498 390.552 448.353" fill="#7C8EB5"/>
<path d="M417.305 656.16C417.503 656.171 417.824 653.728 418.26 649.307C418.746 644.319 419.356 638.057 420.081 630.605C420.953 622.733 422.102 613.368 424.288 603.168C426.468 592.995 429.879 581.97 434.259 570.788C438.797 559.674 444.33 549.57 450.795 541.49C457.214 533.376 464.681 527.503 471.698 524.113C478.694 520.658 484.967 519.255 489.302 518.629C493.677 518.181 496.124 517.836 496.126 517.644C496.129 517.446 493.674 517.416 489.183 517.535C484.731 517.833 478.199 518.96 470.825 522.312C463.429 525.593 455.51 531.558 448.775 539.842C441.987 548.092 436.252 558.416 431.637 569.728C427.179 581.107 423.818 592.246 421.736 602.64C419.661 613.016 418.71 622.485 418.088 630.422C417.494 638.365 417.27 644.796 417.161 649.24C417.062 653.685 417.113 656.149 417.305 656.16Z" fill="#17282F"/>
<path d="M418.594 641.77C418.691 641.764 418.752 640.67 418.778 638.588C418.771 636.197 418.764 633.188 418.753 629.494C418.731 621.604 418.736 610.183 419.159 596.079C419.857 567.871 422.286 537.515 426.976 494.719C431.419 454.476 437.382 407.642 443.672 377.193C445.021 370.268 446.38 364.036 447.66 358.58C448.88 353.108 449.921 348.396 450.926 344.58C451.789 340.989 452.492 338.061 453.051 335.739C453.507 333.708 453.701 332.63 453.608 332.602C453.514 332.575 453.136 333.602 452.503 335.584C451.809 337.874 450.936 340.758 449.862 344.299C448.691 348.079 447.49 352.763 446.121 358.21C444.694 363.644 443.194 369.862 441.715 376.776C435.491 404.366 428.899 442.93 424.164 485.829C419.463 528.714 417.346 567.763 417.159 596.043C416.992 610.179 417.292 621.626 417.653 629.523C417.878 633.216 418.062 636.222 418.208 638.61C418.366 640.687 418.496 641.772 418.594 641.77Z" fill="#17282F"/>
<path d="M418.782 566.455C418.98 566.449 418.945 563.073 418.716 556.955C418.367 550.848 417.528 542.024 415.807 531.216C413.985 520.433 411.438 507.632 407.437 493.72C405.704 487.36 401.628 472.121 391.756 449.346C378.75 418.492 361.081 393.268 345.707 377.644C342.101 373.497 338.086 370.505 334.874 367.574C333.211 366.171 331.742 364.768 330.246 363.658C328.741 362.619 327.341 361.656 326.044 360.76C320.983 357.3 318.151 355.477 318.045 355.638C317.591 356.256 329.377 363.193 344.261 379.028C359.082 394.824 376.26 419.875 389.161 450.474C396.354 467.066 401.371 481.868 404.931 494.436C409.042 508.214 411.773 520.887 413.837 531.561C415.798 542.258 416.935 550.995 417.62 557.044C418.183 563.104 418.589 566.463 418.782 566.455Z" fill="#17282F"/>
<path d="M345.987 699.309L368.444 813.871H474.467L493.906 699.309H345.987Z" fill="#2477F4"/>
<path d="M333.157 658.556V699.309H509.754V658.556H333.157Z" fill="#2477F4"/>
<path d="M488.482 733.103C488.512 733.126 488.311 733.448 487.889 734.052C487.383 734.751 486.756 735.617 485.984 736.682C484.173 739.096 481.685 742.411 478.554 746.583L478.224 747.026L477.905 746.567C473.236 739.839 467 730.851 459.656 720.271H460.706C455.278 728.28 449.23 737.198 442.738 746.776L442.175 747.605L441.545 746.822C434.914 738.603 427.712 729.679 420.235 720.413L421.464 720.397C421.094 720.884 420.693 721.407 420.292 721.933C413.682 730.564 407.287 738.918 401.237 746.815L400.602 747.643L400.017 746.781C393.548 737.244 387.504 728.341 382.04 720.285L383.085 720.338C374.227 730.851 366.711 739.767 360.947 746.611L360.552 747.079L360.253 746.556C357.335 741.448 355.007 737.373 353.321 734.422C352.596 733.106 352.01 732.043 351.543 731.19C351.151 730.457 350.965 730.064 350.999 730.039C351.033 730.019 351.286 730.367 351.743 731.063C352.259 731.881 352.907 732.905 353.711 734.175C355.48 737.073 357.924 741.07 360.988 746.082L360.294 746.024C365.969 739.098 373.36 730.072 382.078 719.43L382.627 718.757L383.124 719.48C388.638 727.497 394.735 736.368 401.262 745.857L400.041 745.821C406.076 737.91 412.457 729.545 419.051 720.903C419.452 720.377 419.852 719.854 420.222 719.37L420.828 718.576L421.451 719.353C428.908 728.635 436.089 737.579 442.701 745.812L441.508 745.862C448.066 736.334 454.172 727.461 459.655 719.494L460.186 718.723L460.706 719.494C467.894 730.189 474 739.274 478.57 746.071L477.921 746.051C481.176 741.985 483.764 738.753 485.649 736.402C486.488 735.391 487.169 734.57 487.718 733.907C488.194 733.351 488.454 733.076 488.482 733.103Z" fill="white"/>
<path d="M495.754 698.627C495.754 699.084 462.473 699.453 421.427 699.453C380.367 699.453 347.092 699.084 347.092 698.627C347.092 698.171 380.367 697.801 421.427 697.801C462.473 697.801 495.754 698.171 495.754 698.627Z" fill="#17282F"/>
<path d="M289.547 627.126L243.212 814.479H255.408L302.886 627.126H289.547Z" fill="#F3F2F1"/>
<path d="M376.823 627.126L420.177 814.479H407.98L363.483 627.126H376.823Z" fill="#B2C2E4"/>
<path d="M340.598 811.727H326.399L324.285 596.694H338.482L340.598 811.727Z" fill="#F3F2F1"/>
<path d="M431.555 598.765H231.211V470.409H431.555V598.765Z" fill="#B2C2E4"/>
<path d="M381.72 637.553H281.162V625.158H381.72V637.553Z" fill="#B2C2E4"/>
<path d="M244.524 582.02C244.573 582.02 244.62 582.758 244.662 584.368H244.388C244.182 578.092 244.031 557.294 244.031 532.647C244.088 517.774 244.138 504.317 244.176 494.41C244.24 489.619 244.293 485.694 244.333 482.823C244.371 481.544 244.402 480.501 244.425 479.673C244.458 478.952 244.492 478.574 244.524 478.574C244.56 478.574 244.592 478.952 244.625 479.673C244.65 480.501 244.679 481.544 244.718 482.823C244.756 485.694 244.809 489.619 244.874 494.41C244.912 504.317 244.964 517.774 245.019 532.647C245.019 557.294 244.869 578.092 244.662 584.368H244.388C244.432 582.758 244.477 582.02 244.524 582.02Z" fill="#F3F2F1"/>
<path d="M259.436 582.02C259.483 582.02 259.531 582.758 259.574 584.368H259.3C259.093 578.092 258.943 557.294 258.943 532.647C258.999 517.774 259.049 504.317 259.088 494.41C259.151 489.619 259.204 485.694 259.245 482.823C259.282 481.544 259.312 480.501 259.338 479.673C259.369 478.952 259.403 478.574 259.436 478.574C259.471 478.574 259.504 478.952 259.535 479.673C259.561 480.501 259.591 481.544 259.629 482.823C259.667 485.694 259.721 489.619 259.785 494.41C259.822 504.317 259.873 517.774 259.929 532.647C259.929 557.294 259.78 578.092 259.574 584.368H259.3C259.343 582.758 259.389 582.02 259.436 582.02Z" fill="#F3F2F1"/>
<path d="M274.348 582.02C274.394 582.02 274.441 582.758 274.485 584.368H274.209C274.004 578.092 273.855 557.294 273.855 532.647C273.91 517.774 273.961 504.317 273.999 494.41C274.064 489.619 274.117 485.694 274.155 482.823C274.193 481.544 274.223 480.501 274.249 479.673C274.28 478.952 274.314 478.574 274.348 478.574C274.381 478.574 274.415 478.952 274.447 479.673C274.472 480.501 274.502 481.544 274.54 482.823C274.579 485.694 274.632 489.619 274.698 494.41C274.734 504.317 274.785 517.774 274.84 532.647C274.84 557.294 274.691 578.092 274.485 584.368H274.209C274.254 582.758 274.301 582.02 274.348 582.02Z" fill="#F3F2F1"/>
<path d="M289.259 582.02C289.306 582.02 289.351 582.758 289.395 584.368H289.12C288.915 578.092 288.765 557.294 288.765 532.647C288.821 517.774 288.873 504.317 288.909 494.41C288.975 489.619 289.028 485.694 289.066 482.823C289.104 481.544 289.135 480.501 289.16 479.673C289.191 478.952 289.224 478.574 289.259 478.574C289.292 478.574 289.326 478.952 289.358 479.673C289.383 480.501 289.413 481.544 289.449 482.823C289.49 485.694 289.543 489.619 289.608 494.41C289.645 504.317 289.695 517.774 289.752 532.647C289.752 557.294 289.602 578.092 289.395 584.368H289.12C289.164 582.758 289.211 582.02 289.259 582.02Z" fill="#F3F2F1"/>
<path d="M304.17 582.02C304.217 582.02 304.262 582.758 304.306 584.368H304.033C303.827 578.092 303.675 557.294 303.675 532.647C303.732 517.774 303.782 504.317 303.82 494.41C303.886 489.619 303.939 485.694 303.977 482.823C304.015 481.544 304.046 480.501 304.069 479.673C304.102 478.952 304.134 478.574 304.17 478.574C304.204 478.574 304.236 478.952 304.269 479.673C304.292 480.501 304.325 481.544 304.362 482.823C304.401 485.694 304.454 489.619 304.518 494.41C304.556 504.317 304.606 517.774 304.663 532.647C304.663 557.294 304.512 578.092 304.306 584.368H304.033C304.076 582.758 304.121 582.02 304.17 582.02Z" fill="#F3F2F1"/>
<path d="M319.079 582.02C319.128 582.02 319.175 582.758 319.218 584.368H318.943C318.738 578.092 318.587 557.294 318.587 532.647C318.643 517.774 318.693 504.317 318.731 494.41C318.795 489.619 318.85 485.694 318.889 482.823C318.926 481.544 318.957 480.501 318.981 479.673C319.013 478.952 319.047 478.574 319.079 478.574C319.115 478.574 319.147 478.952 319.18 479.673C319.204 480.501 319.236 481.544 319.272 482.823C319.311 485.694 319.364 489.619 319.429 494.41C319.467 504.317 319.519 517.774 319.574 532.647C319.574 557.294 319.423 578.092 319.218 584.368H318.943C318.987 582.758 319.032 582.02 319.079 582.02Z" fill="#F3F2F1"/>
<path d="M333.991 582.02C334.038 582.02 334.086 582.758 334.13 584.368H333.855C333.648 578.092 333.499 557.294 333.499 532.647C333.554 517.774 333.605 504.317 333.643 494.41C333.707 489.619 333.76 485.694 333.801 482.823C333.837 481.544 333.867 480.501 333.893 479.673C333.924 478.952 333.958 478.574 333.992 478.574C334.026 478.574 334.059 478.952 334.092 479.673C334.116 480.501 334.147 481.544 334.184 482.823C334.223 485.694 334.275 489.619 334.34 494.41C334.378 504.317 334.43 517.774 334.486 532.647C334.486 557.294 334.335 578.092 334.13 584.368H333.855C333.898 582.758 333.945 582.02 333.991 582.02Z" fill="#F3F2F1"/>
<path d="M348.903 582.02C348.949 582.02 348.996 582.758 349.041 584.368H348.766C348.559 578.092 348.41 557.294 348.41 532.647C348.465 517.774 348.517 504.317 348.554 494.41C348.619 489.619 348.672 485.694 348.71 482.823C348.748 481.544 348.778 480.501 348.804 479.673C348.835 478.952 348.869 478.574 348.903 478.574C348.936 478.574 348.971 478.952 349.003 479.673C349.027 480.501 349.057 481.544 349.095 482.823C349.134 485.694 349.187 489.619 349.251 494.41C349.289 504.317 349.34 517.774 349.397 532.647C349.397 557.294 349.246 578.092 349.041 584.368H348.766C348.809 582.758 348.856 582.02 348.903 582.02Z" fill="#F3F2F1"/>
<path d="M363.814 582.02C363.862 582.02 363.907 582.758 363.95 584.368H363.677C363.47 578.092 363.321 557.294 363.321 532.647C363.377 517.774 363.428 504.317 363.465 494.41C363.53 489.619 363.583 485.694 363.621 482.823C363.659 481.544 363.691 480.501 363.715 479.673C363.746 478.952 363.78 478.574 363.814 478.574C363.848 478.574 363.882 478.952 363.914 479.673C363.938 480.501 363.968 481.544 364.007 482.823C364.046 485.694 364.099 489.619 364.164 494.41C364.201 504.317 364.251 517.774 364.308 532.647C364.308 557.294 364.157 578.092 363.95 584.368H363.677C363.721 582.758 363.767 582.02 363.814 582.02Z" fill="#F3F2F1"/>
<path d="M378.725 582.02C378.773 582.02 378.819 582.758 378.861 584.368H378.588C378.383 578.092 378.23 557.294 378.23 532.647C378.288 517.774 378.339 504.317 378.376 494.41C378.441 489.619 378.494 485.694 378.532 482.823C378.57 481.544 378.602 480.501 378.625 479.673C378.659 478.952 378.691 478.574 378.725 478.574C378.759 478.574 378.793 478.952 378.825 479.673C378.849 480.501 378.88 481.544 378.917 482.823C378.957 485.694 379.01 489.619 379.075 494.41C379.112 504.317 379.163 517.774 379.219 532.647C379.219 557.294 379.068 578.092 378.861 584.368H378.588C378.632 582.758 378.678 582.02 378.725 582.02Z" fill="#F3F2F1"/>
<path d="M393.636 582.02C393.684 582.02 393.73 582.758 393.774 584.368H393.499C393.294 578.092 393.143 557.294 393.143 532.647C393.198 517.774 393.249 504.317 393.287 494.41C393.352 489.619 393.405 485.694 393.445 482.823C393.481 481.544 393.513 480.501 393.536 479.673C393.57 478.952 393.602 478.574 393.636 478.574C393.67 478.574 393.703 478.952 393.736 479.673C393.76 480.501 393.791 481.544 393.828 482.823C393.866 485.694 393.92 489.619 393.984 494.41C394.022 504.317 394.074 517.774 394.13 532.647C394.13 557.294 393.979 578.092 393.774 584.368H393.499C393.542 582.758 393.587 582.02 393.636 582.02Z" fill="#F3F2F1"/>
<path d="M408.546 582.02C408.595 582.02 408.641 582.758 408.685 584.368H408.41C408.203 578.092 408.054 557.294 408.054 532.647C408.109 517.774 408.161 504.317 408.199 494.41C408.263 489.619 408.316 485.694 408.356 482.823C408.392 481.544 408.424 480.501 408.448 479.673C408.481 478.952 408.513 478.574 408.547 478.574C408.581 478.574 408.614 478.952 408.647 479.673C408.671 480.501 408.702 481.544 408.739 482.823C408.778 485.694 408.831 489.619 408.897 494.41C408.935 504.317 408.985 517.774 409.041 532.647C409.041 557.294 408.89 578.092 408.685 584.368H408.41C408.453 582.758 408.5 582.02 408.546 582.02Z" fill="#F3F2F1"/>
<path d="M423.458 582.02C423.506 582.02 423.552 582.758 423.595 584.368H423.321C423.114 578.092 422.965 557.294 422.965 532.647C423.02 517.774 423.072 504.317 423.109 494.41C423.174 489.619 423.227 485.694 423.266 482.823C423.303 481.544 423.333 480.501 423.359 479.673C423.39 478.952 423.424 478.574 423.458 478.574C423.492 478.574 423.526 478.952 423.557 479.673C423.582 480.501 423.612 481.544 423.651 482.823C423.689 485.694 423.742 489.619 423.808 494.41C423.844 504.317 423.895 517.774 423.952 532.647C423.952 557.294 423.801 578.092 423.595 584.368H423.321C423.364 582.758 423.411 582.02 423.458 582.02Z" fill="#F3F2F1"/>
<path d="M107.834 582.398L118.364 593.699C118.364 593.699 162.406 667.558 168.698 672.301C174.991 677.043 185.496 682.507 191.801 681.667C198.106 680.825 214.833 669.479 214.833 669.479L200.226 624.6L183.607 620.049L138.741 568.055L107.834 582.398Z" fill="#F8AC97"/>
<path d="M116.262 591.3C112.52 586.795 102.876 577.535 102.876 577.535L98.8145 573.198C98.6255 573.547 98.4855 573.932 98.3604 574.309C98.1238 575.029 97.8845 575.788 97.327 576.302C96.2745 577.276 94.5598 576.96 93.3089 576.257C90.6913 574.789 88.9672 571.846 88.9658 568.844C88.9645 565.958 90.5635 563.142 93.0111 561.619C93.2191 560.888 93.5645 560.148 94.1274 559.426C97.5771 554.999 105.658 555.594 105.658 555.594L104.449 553.874C104.449 553.874 98.941 550.442 89.7776 556.251C88.4097 557.119 86.7603 557.528 85.1626 557.257C84.185 557.093 83.2358 556.677 82.7001 555.764C81.3621 553.495 82.624 551.956 88.2955 548.249C93.9657 544.544 100.657 542.851 104.908 544.427C109.157 546.004 110.716 546.895 110.716 546.895C110.716 546.895 100.71 530.743 100.117 529.696C98.4039 526.666 98.3236 523.357 100.233 522.012C101.458 521.152 103.634 520.971 105.737 524.438C107.558 527.438 130.113 555.797 130.113 555.797L139.357 568.929L116.262 591.3Z" fill="#F8AC97"/>
<path d="M136.012 569.435C134.594 570.936 132.092 570.753 130.256 569.806C128.423 568.86 126.963 567.319 125.201 566.243C119.933 563.024 112.734 564.339 107.627 560.873C106.915 560.389 106.189 559.569 106.51 558.771C106.807 558.031 107.773 557.884 108.57 557.853C115.379 557.573 122.19 557.293 128.998 557.011" fill="#F8AC97"/>
<path d="M128.998 557.011C128.996 556.931 128.206 556.886 126.781 556.875C125.356 556.863 123.294 556.886 120.749 556.938C118.1 557.011 115.092 557.091 111.808 557.181C110.964 557.21 110.102 557.24 109.224 557.268C108.408 557.359 107.301 557.113 106.271 558.085C105.779 558.595 105.76 559.472 106.061 560.008C106.34 560.562 106.741 560.938 107.172 561.26C108.019 561.826 108.888 562.309 109.835 562.672C113.625 564.132 117.405 564.198 120.602 565.004C122.204 565.381 123.674 565.903 124.912 566.634C126.15 567.363 127.205 568.28 128.266 569.023C130.335 570.624 132.687 571.091 134.133 570.677C135.622 570.285 136.062 569.435 136.012 569.435C135.94 569.341 135.4 570.021 134.044 570.231C132.692 570.456 130.684 569.967 128.756 568.358C127.761 567.604 126.734 566.641 125.413 565.806C124.091 564.974 122.523 564.382 120.859 563.96C117.544 563.077 113.766 562.953 110.268 561.588C109.398 561.26 108.586 560.801 107.856 560.322C107.161 559.835 106.788 559.137 107.132 558.836C107.457 558.449 108.395 558.409 109.271 558.382C110.148 558.338 111.009 558.296 111.852 558.255C115.132 558.075 118.137 557.909 120.781 557.762C123.324 557.604 125.379 557.457 126.798 557.328C128.219 557.2 129.003 557.091 128.998 557.011Z" fill="#F79489"/>
<path d="M105.929 555.547C105.819 555.653 105.162 554.084 102.963 553.069C101.885 552.578 100.44 552.398 98.8963 552.74C97.3475 553.063 95.7484 553.838 94.1276 554.776C92.5013 555.711 90.9145 556.644 89.3032 557.164C87.7028 557.678 86.1432 557.837 84.8596 557.536C83.5556 557.252 82.7533 556.349 82.4855 555.695C82.204 555.026 82.2216 554.622 82.2515 554.618C82.3209 554.598 82.4079 554.983 82.7451 555.558C83.0783 556.125 83.8044 556.824 84.9724 557.017C86.12 557.223 87.5845 557.026 89.0816 556.508C90.5855 555.985 92.1125 555.067 93.7551 554.123C95.3949 553.173 97.0864 552.369 98.7617 552.06C100.43 551.726 102.05 551.986 103.192 552.589C104.349 553.177 105.064 553.974 105.461 554.554C105.858 555.146 105.967 555.528 105.929 555.547Z" fill="#F79489"/>
<path d="M99.4753 528.518C99.5705 528.469 100.306 529.71 101.486 531.716C102.809 533.943 104.385 536.599 106.127 539.533C107.915 542.442 109.531 545.071 110.886 547.28C112.114 549.258 112.87 550.486 112.782 550.547C112.7 550.605 111.788 549.482 110.443 547.573C109.096 545.667 107.327 542.97 105.483 539.922C103.644 536.873 102.081 534.052 101.019 531.971C99.9553 529.894 99.3855 528.563 99.4753 528.518Z" fill="#F79489"/>
<path d="M104.492 561.432C104.496 561.489 104.069 561.53 103.328 561.638C102.622 561.757 101.438 561.977 100.762 563.036C100.431 563.548 100.421 564.225 100.741 564.896C101.041 565.57 101.597 566.19 102.171 566.901C102.731 567.594 103.374 568.517 103.33 569.675C103.273 570.799 102.606 571.843 101.64 572.462C100.652 573.098 99.4456 573.169 98.4326 572.908C97.4087 572.638 96.5167 572.125 95.86 571.381C94.6634 569.934 93.9413 568.463 93.3988 567.19C92.8767 565.911 92.621 564.8 92.5979 564.018C92.5761 563.231 92.7434 562.815 92.7774 562.826C92.8454 562.839 92.7815 563.257 92.8889 563.99C92.999 564.724 93.3186 565.763 93.8856 566.976C94.4635 568.171 95.2467 569.613 96.3767 570.917C97.459 572.095 99.636 572.836 101.234 571.828C102.016 571.334 102.547 570.48 102.595 569.641C102.641 568.795 102.161 568.016 101.624 567.328C101.091 566.63 100.497 565.95 100.168 565.14C99.8046 564.362 99.8468 563.369 100.313 562.748C101.235 561.485 102.577 561.39 103.298 561.348C104.071 561.327 104.489 561.386 104.492 561.432Z" fill="#F79489"/>
<path d="M98.3998 572.254C98.4256 572.23 98.7248 572.521 98.8662 573.226C98.9994 573.903 98.907 575.058 97.9973 576.037C97.1053 576.993 95.4464 577.533 93.7766 577.102C92.1095 576.684 90.5907 575.43 89.5926 573.796C88.5905 572.152 88.2016 570.277 88.343 568.621C88.4722 566.952 89.1168 565.549 89.8252 564.537C90.5404 563.516 91.3263 562.868 91.8974 562.491C92.4753 562.116 92.8384 561.991 92.8588 562.029C92.9499 562.144 91.5317 562.832 90.2699 564.831C89.6593 565.818 89.1154 567.141 89.0352 568.668C88.94 570.187 89.3194 571.902 90.2359 573.403C91.1469 574.899 92.5161 576.04 93.952 576.431C95.3825 576.838 96.8266 576.424 97.622 575.659C98.4324 574.887 98.6146 573.882 98.5752 573.26C98.5357 572.617 98.3413 572.283 98.3998 572.254Z" fill="#F79489"/>
<path d="M116.172 576.301C116.133 576.245 116.644 575.773 117.734 575.38C118.805 574.99 120.521 574.747 122.358 575.368L121.909 575.859C121.565 575.135 121.234 574.331 120.95 573.478C119.35 568.728 119.993 564.611 120.174 564.672C120.405 564.668 120.117 568.671 121.665 573.24C121.939 574.065 122.249 574.847 122.563 575.556L122.91 576.34L122.114 576.047C120.481 575.446 118.904 575.565 117.862 575.814C116.806 576.063 116.221 576.388 116.172 576.301Z" fill="#F79489"/>
<path d="M99.0619 548.87C99.2591 548.854 99.3421 550.397 98.2869 551.876C97.2467 553.363 95.7632 553.801 95.7129 553.609C95.6191 553.411 96.7735 552.742 97.6723 551.442C98.5983 550.161 98.8444 548.849 99.0619 548.87Z" fill="#F79489"/>
<path d="M81.5974 807.767C81.5974 807.767 63.8717 811.597 48.0455 809.225C33.2079 807 -0.0122344 809.302 3.38023e-06 828.857C0.0122412 850.668 44.3116 845.279 61.5968 841.821C78.8806 838.364 96.091 835.232 96.091 835.232L81.5974 807.767Z" fill="#4B5F8A"/>
<path d="M41.8122 835.708C41.5838 835.759 40.6251 832.362 39.6719 828.118C38.7187 823.874 38.13 820.393 38.3598 820.341C38.5882 820.289 39.5468 823.687 40.5 827.931C41.4546 832.173 42.042 835.657 41.8122 835.708Z" fill="#17282F"/>
<path d="M47.8608 835.996C47.6283 836.027 46.9566 832.544 46.3637 828.213C45.7682 823.881 45.4772 820.346 45.7097 820.314C45.9408 820.282 46.6112 823.766 47.204 828.097C47.7996 832.428 48.092 835.963 47.8608 835.996Z" fill="#17282F"/>
<path d="M53.6979 833.715C53.4654 833.743 52.9052 830.698 52.4511 826.916C51.9942 823.131 51.8119 820.04 52.0458 820.013C52.2783 819.985 52.8372 823.028 53.2941 826.814C53.7496 830.596 53.9305 833.687 53.6979 833.715Z" fill="#17282F"/>
<path d="M62.8681 831.427C62.6614 831.517 61.4036 828.974 60.5878 825.588C59.7597 822.205 59.712 819.367 59.935 819.353C60.1798 819.331 60.6027 822.076 61.4131 825.388C62.2099 828.701 63.0952 831.336 62.8681 831.427Z" fill="#17282F"/>
<path d="M64.8328 823.455C64.8287 823.407 65.65 823.267 67.1485 823.301C68.6415 823.344 70.8347 823.587 73.372 824.519C74.0111 824.759 74.676 825.066 75.2879 825.552C75.893 826.018 76.4655 826.778 76.4886 827.712C76.509 829.642 74.3891 831.033 72.4746 830.629C70.5383 830.26 69.0657 828.842 67.8487 827.334C66.6141 825.792 65.7234 823.908 65.2298 821.883C64.2576 817.813 64.9796 813.606 67.1811 810.589C67.502 810.226 67.9425 809.88 68.4973 809.798C69.0344 809.705 69.6164 809.914 69.9713 810.257C70.6974 810.947 70.9516 811.817 71.0822 812.637C71.2875 814.237 71.1746 815.752 70.8469 817.072C70.2106 819.734 68.8808 821.58 67.8569 822.665C67.3347 823.209 66.8847 823.584 66.5624 823.813C66.2388 824.039 66.062 824.147 66.0443 824.123C65.9954 824.061 66.663 823.568 67.6094 822.446C68.5313 821.324 69.7292 819.495 70.2609 816.941C70.5369 815.673 70.6076 814.237 70.3846 812.74C70.2718 812.037 69.9889 811.272 69.479 810.819C68.9773 810.356 68.2593 810.487 67.7684 811.104C65.8553 813.798 65.1115 817.872 66.0552 821.682C66.5216 823.594 67.3538 825.37 68.5028 826.822C69.6341 828.256 71.0305 829.556 72.6146 829.859C74.1294 830.231 75.8169 829.05 75.7856 827.729C75.7829 827.071 75.3899 826.481 74.8732 826.057C74.3578 825.628 73.7514 825.321 73.1558 825.078C70.7205 824.102 68.5911 823.772 67.128 823.632C65.6581 823.497 64.8355 823.524 64.8328 823.455Z" fill="#17282F"/>
<path d="M94.3382 832.346C94.3409 832.361 94.1899 832.409 93.8921 832.489C93.5467 832.574 93.1089 832.683 92.5623 832.819C91.329 833.101 89.6103 833.492 87.4238 833.99C82.9516 834.973 76.4669 836.354 68.409 837.91C60.3498 839.453 50.7254 841.222 39.933 842.691C34.5539 843.415 28.7912 844.069 22.826 843.544C19.8481 843.326 16.8172 842.813 13.8639 841.83C12.4021 841.306 10.9336 840.733 9.56567 839.92C8.19232 839.108 6.87199 838.222 5.78691 836.877L5.85217 836.952C5.30419 836.422 4.73176 835.815 4.31023 835.1C2.49904 832.205 2.44056 828.61 3.4087 825.557C4.40268 822.438 6.6218 819.954 9.09248 818.129C11.5944 816.305 14.3778 815.037 17.1694 814.125C18.5822 813.724 19.9596 813.238 21.3602 812.922C22.7675 812.642 24.1436 812.267 25.5332 812.075C36.6411 810.321 46.7468 811.213 55.1419 811.216C59.3517 811.293 63.1535 811.18 66.4849 810.975C69.8136 810.725 72.6664 810.346 74.9726 809.902C76.1148 809.662 77.1346 809.448 78.0293 809.261C78.8846 809.017 79.6161 808.806 80.2307 808.634C80.7896 808.477 81.2383 808.355 81.5905 808.257C81.8991 808.178 82.0596 808.144 82.0637 808.158C82.0691 808.171 81.9182 808.234 81.619 808.34C81.2723 808.458 80.833 808.608 80.281 808.797C79.6704 808.992 78.943 809.229 78.0932 809.504C77.1984 809.715 76.1787 809.956 75.0378 810.226C72.729 810.723 69.8639 811.15 66.5216 811.449C63.1766 811.698 59.3558 811.856 55.1378 811.815C52.9894 811.834 50.7308 811.795 48.3771 811.754C41.5103 811.638 33.8264 811.523 25.6624 812.847C24.2918 813.042 22.9375 813.416 21.5506 813.696C20.1704 814.014 18.8202 814.496 17.4305 814.894C14.6906 815.794 11.9874 817.042 9.58608 818.798C7.21603 820.554 5.13017 822.917 4.2137 825.816C3.30538 828.674 3.38561 832.036 5.02819 834.648C5.40892 835.297 5.92834 835.838 6.41785 836.318L6.4464 836.344L6.48448 836.391C7.38328 837.508 8.69272 838.434 9.9872 839.186C11.2953 839.965 12.7176 840.52 14.1331 841.033C16.9995 841.991 19.9664 842.5 22.8953 842.72C28.7667 843.247 34.4505 842.623 39.8324 841.922C50.603 840.499 60.2328 838.793 68.3002 837.326C76.3649 835.846 82.8673 834.556 87.3558 833.672C89.5573 833.238 91.2855 832.898 92.5269 832.655C93.0803 832.552 93.525 832.47 93.8731 832.404C94.1777 832.353 94.3341 832.333 94.3382 832.346Z" fill="#17282F"/>
<path d="M29.5205 842.849C29.3941 842.85 29.2921 841.113 29.0909 838.318C28.8896 835.523 28.5565 831.668 27.9922 827.433C27.4224 823.198 26.7303 819.392 26.1878 816.641C25.6479 813.892 25.289 812.189 25.41 812.157C25.5161 812.129 26.0804 813.779 26.7738 816.511C27.4673 819.238 28.26 823.056 28.8338 827.321C29.4022 831.583 29.6429 835.475 29.6905 838.29C29.7394 841.107 29.6293 842.848 29.5205 842.849Z" fill="#17282F"/>
<path d="M87.5817 836.806C92.7706 835.835 96.091 835.232 96.091 835.232L87.5817 836.806ZM76.1435 808.712L76.1421 808.711L79.3973 807.767L79.6272 808.147C78.7284 808.307 77.5481 808.506 76.1435 808.712Z" fill="#8C8F8F"/>
<path d="M87.3749 836.845L86.3306 834.23C86.7072 834.148 87.0716 834.068 87.4238 833.99C89.6103 833.492 91.329 833.101 92.5623 832.819C93.109 832.683 93.5468 832.574 93.8921 832.489C94.1804 832.411 94.3314 832.364 94.3382 832.348L96.0909 835.232C96.0909 835.232 92.7704 835.835 87.5816 836.806L87.3749 836.845ZM86.1986 833.899L76.6002 809.857C77.1305 809.731 77.6281 809.614 78.0932 809.504C78.8451 809.261 79.5005 809.048 80.0648 808.866L94.3355 832.343C94.3327 832.342 94.3272 832.342 94.3177 832.342C94.2661 832.342 94.1165 832.364 93.8732 832.404C93.5251 832.47 93.0804 832.552 92.5269 832.655C91.2855 832.898 89.5573 833.238 87.3558 833.672C86.9846 833.744 86.5984 833.82 86.1986 833.899ZM76.49 809.582L76.1433 808.712C77.5479 808.506 78.7282 808.307 79.627 808.147L79.9683 808.707C79.4108 808.866 78.7663 809.051 78.0293 809.261C77.552 809.36 77.0394 809.468 76.49 809.582Z" fill="#1A2C33"/>
<path d="M86.3305 834.229L86.1986 833.899C86.5984 833.82 86.9846 833.744 87.3558 833.672C89.5572 833.238 91.2855 832.898 92.5269 832.655C93.0803 832.552 93.525 832.47 93.8731 832.404C94.1165 832.364 94.266 832.342 94.3177 832.342C94.3272 832.342 94.3327 832.342 94.3354 832.343L94.3381 832.348C94.3313 832.364 94.1804 832.411 93.8921 832.489C93.5467 832.574 93.1089 832.683 92.5623 832.819C91.329 833.101 89.6103 833.492 87.4238 833.99C87.0716 834.067 86.7072 834.148 86.3305 834.229ZM76.6001 809.857L76.49 809.582C77.0393 809.468 77.552 809.36 78.0293 809.261C78.7663 809.051 79.4108 808.866 79.9682 808.707L80.0648 808.866C79.5005 809.048 78.8451 809.261 78.0931 809.504C77.6281 809.614 77.1304 809.731 76.6001 809.857Z" fill="#0C1418"/>
<path d="M190.099 743.066L216.484 684.204L201.208 633.695C196.575 618.378 197.658 601.898 204.257 587.32L230.008 537.402L253.004 529.206L306.963 522.013C307.917 522.332 310.626 522.491 326.607 527.805C340.037 532.27 351.413 541.416 358.659 553.574L315.067 680.72C315.067 680.72 344.632 745.413 340.925 775.072L190.099 743.066Z" fill="#FFB800"/>
<path d="M234.329 536.091C234.329 536.091 204.146 542.775 193.141 583.96L179.602 627.818L204.372 629.343L234.329 536.091Z" fill="#FFB800"/>
<path d="M202.129 630.77C202.108 630.778 202.014 630.566 201.854 630.158C201.703 629.746 201.448 629.148 201.201 628.349C200.724 626.75 200.148 624.386 199.925 621.394C199.439 615.44 200.622 606.992 204.567 598.723C205.547 596.666 206.65 594.705 207.755 592.884C208.843 591.043 209.885 589.262 210.818 587.538C212.712 584.102 214.035 580.827 214.966 578.01C215.898 575.191 216.568 572.878 217.057 571.287C217.29 570.549 217.479 569.943 217.63 569.459C217.767 569.041 217.85 568.826 217.871 568.832C217.891 568.838 217.85 569.066 217.752 569.493C217.63 569.986 217.479 570.602 217.293 571.354C216.874 572.965 216.269 575.296 215.389 578.147C214.508 580.993 213.205 584.334 211.326 587.811C210.401 589.554 209.368 591.346 208.286 593.196C207.176 595.04 206.107 596.95 205.132 598.991C201.235 607.164 200.001 615.479 200.366 621.367C200.531 624.323 201.035 626.676 201.435 628.283C201.892 629.874 202.178 630.751 202.129 630.77Z" fill="#17282F"/>
<path d="M127.212 767.216C127.071 767.402 112.913 757.078 95.5924 744.161C78.265 731.238 64.3371 720.613 64.4771 720.424C64.6172 720.238 78.7722 730.558 96.0996 743.481C113.42 756.399 127.352 767.026 127.212 767.216Z" fill="#4B5F8A"/>
<path d="M338.485 769.158L295.651 733.95C290.927 707.718 266.759 688.116 238.739 690.668C228.18 691.631 218.153 695.739 209.955 702.463L185.126 721.925C146.528 711.399 87.8549 694.946 57.7024 686.469C45.3722 683.002 32.1513 685.003 21.3997 691.963L20.8341 692.328C5.05006 702.544 -2.62982 721.562 1.63028 739.874C4.33755 751.501 11.5809 761.551 21.76 767.786C36.9906 777.118 60.5796 791.512 80.8617 803.64L78.1708 805.748L96.091 835.232L132.993 823.855C157.938 820.296 210.6 813.447 210.6 813.447L195.541 804.57L198.988 803.509C227.668 827.943 262.738 839.193 306.157 820.238C327.588 810.193 340.964 786.052 338.485 769.158Z" fill="#17282F"/>
<path d="M265.091 765.232C265.102 765.241 264.983 765.351 264.744 765.555C264.464 765.785 264.11 766.077 263.667 766.441C262.659 767.247 261.255 768.367 259.471 769.792C258.55 770.518 257.533 771.322 256.422 772.198C255.31 773.08 253.999 773.898 252.646 774.853C251.277 775.791 249.817 776.794 248.268 777.856C247.49 778.38 246.703 778.943 245.871 779.48C245.019 779.993 244.148 780.518 243.254 781.055C239.673 783.194 235.807 785.642 231.426 787.854C229.253 788.991 227.037 790.231 224.695 791.389C222.333 792.508 219.903 793.66 217.412 794.842C207.38 799.415 196.143 804.014 184.097 808.112C160.027 816.405 137.771 822.376 121.832 827.209C117.836 828.384 114.234 829.484 111.081 830.482C107.919 831.458 105.197 832.3 102.992 833.05C100.822 833.755 99.1151 834.31 97.8899 834.707C97.3419 834.877 96.9028 835.011 96.5561 835.119C96.2528 835.207 96.0964 835.245 96.091 835.232C96.0855 835.217 96.2351 835.153 96.5274 835.036C96.866 834.909 97.2971 834.749 97.8328 834.547C99.0457 834.113 100.737 833.508 102.886 832.736C105.078 831.938 107.786 831.051 110.935 830.031C114.079 828.988 117.67 827.845 121.658 826.634C137.562 821.652 159.789 815.59 183.818 807.309C195.845 803.219 207.062 798.653 217.086 794.129C219.576 792.963 222.004 791.824 224.365 790.72C226.706 789.576 228.921 788.353 231.094 787.233C235.479 785.053 239.349 782.642 242.94 780.543C243.835 780.016 244.711 779.501 245.565 778.999C246.399 778.47 247.191 777.918 247.973 777.402C249.53 776.362 251 775.381 252.377 774.463C253.739 773.529 255.06 772.732 256.183 771.87C257.307 771.017 258.337 770.236 259.27 769.53C261.094 768.159 262.53 767.082 263.558 766.308C264.023 765.971 264.396 765.701 264.688 765.489C264.945 765.307 265.081 765.219 265.091 765.232Z" fill="#4B5F8A"/>
<path d="M268.289 779.016C268.31 779.07 267.837 779.315 266.959 779.711C266.084 780.114 264.794 780.639 263.179 781.239C259.953 782.442 255.398 783.868 250.255 784.977C245.109 786.079 240.37 786.65 236.934 786.878C235.218 786.993 233.824 787.046 232.86 787.038C231.897 787.038 231.366 787.008 231.363 786.949C231.358 786.82 233.476 786.662 236.88 786.279C240.284 785.9 244.969 785.239 250.076 784.146C255.181 783.046 259.723 781.723 262.984 780.67C266.243 779.622 268.241 778.894 268.289 779.016Z" fill="#4B5F8A"/>
<path d="M204.683 707.419C204.825 707.605 176.62 729.768 141.689 756.917C106.749 784.075 78.3152 805.933 78.1724 805.747C78.0283 805.563 106.227 783.404 141.17 756.245C176.099 729.096 204.538 707.234 204.683 707.419Z" fill="#4B5F8A"/>
<path d="M306.11 802.533C306.078 802.533 306.048 802.218 306.022 801.616C306.003 800.906 305.981 800.039 305.954 798.987C305.931 796.706 305.832 793.404 305.633 789.333C305.244 781.191 304.212 769.957 301.933 757.73C299.634 745.501 296.53 734.654 293.946 726.923C292.658 723.056 291.557 719.942 290.752 717.807C290.398 716.817 290.105 716.002 289.865 715.333C289.671 714.761 289.585 714.457 289.615 714.445C289.645 714.433 289.791 714.713 290.042 715.262C290.326 715.912 290.674 716.709 291.095 717.673C292.006 719.77 293.205 722.855 294.578 726.707C297.33 734.406 300.55 745.274 302.862 757.556C305.15 769.836 306.082 781.134 306.299 789.307C306.414 793.395 306.412 796.705 306.323 798.99C306.278 800.041 306.242 800.91 306.212 801.619C306.177 802.221 306.143 802.535 306.11 802.533Z" fill="#4B5F8A"/>
<path d="M197.327 802.088C197.338 802.076 197.463 802.168 197.694 802.357C197.964 802.587 198.295 802.871 198.703 803.218C199.597 803.965 200.834 805.157 202.547 806.551C205.985 809.317 211.103 813.183 218.032 816.966C224.949 820.739 233.706 824.349 243.867 826.679C245.127 827.016 246.425 827.244 247.74 827.472C249.052 827.698 250.377 827.961 251.724 828.168C254.434 828.448 257.188 828.905 260.024 828.98C265.677 829.396 271.564 829.155 277.524 828.457C279.012 828.249 280.491 828.044 281.96 827.84C283.413 827.542 284.856 827.249 286.289 826.956C289.157 826.379 291.933 825.578 294.631 824.719C300.012 822.953 305.037 820.746 309.544 818.151C318.61 813.005 325.417 806.234 329.759 799.687C334.173 793.149 336.234 786.992 337.223 782.718C337.704 780.568 337.96 778.871 338.098 777.717C338.164 777.186 338.215 776.754 338.257 776.402C338.298 776.107 338.328 775.955 338.344 775.956C338.361 775.957 338.364 776.11 338.354 776.409C338.336 776.764 338.315 777.2 338.287 777.736C338.21 778.9 338.011 780.616 337.583 782.797C336.696 787.128 334.711 793.389 330.315 800.058C325.994 806.731 319.131 813.656 309.979 818.903C305.429 821.553 300.353 823.801 294.918 825.599C292.193 826.472 289.391 827.285 286.494 827.873C285.046 828.169 283.589 828.467 282.12 828.769C280.635 828.975 279.141 829.185 277.64 829.394C271.619 830.101 265.671 830.335 259.967 829.904C257.105 829.821 254.327 829.354 251.594 829.06C250.234 828.848 248.9 828.579 247.576 828.343C246.25 828.109 244.942 827.873 243.672 827.528C233.434 825.129 224.632 821.426 217.711 817.551C210.775 813.669 205.688 809.697 202.309 806.832C200.627 805.389 199.425 804.15 198.573 803.358C198.191 802.981 197.881 802.675 197.626 802.426C197.418 802.214 197.316 802.099 197.327 802.088Z" fill="#4B5F8A"/>
<path d="M217.581 810.812C210.146 806.847 201.801 809.191 194.688 811.588C189.955 813.183 185.034 815.711 180.225 814.357C176.748 813.379 174.163 810.562 171.506 808.112C160.795 798.232 146.025 792.844 131.446 793.758C127.304 794.018 123.259 795.683 120.443 798.731C113.143 806.64 118.649 816.932 125.175 823.583C136.695 835.322 152.38 842.89 168.739 844.598C182.335 846.018 201.032 844.138 214.821 838.234C223.323 834.594 227.685 824.565 223.224 816.465C221.923 814.104 220.025 812.116 217.581 810.812Z" fill="#4B5F8A"/>
<path d="M177.885 845.049C174.667 845.049 171.582 844.896 168.723 844.598C153.333 842.99 138.539 836.198 127.249 825.625L127.262 825.621C138.552 836.197 153.347 842.99 168.739 844.598C171.596 844.896 174.68 845.047 177.893 845.049C177.89 845.049 177.887 845.049 177.885 845.049Z" fill="#8C8F8F"/>
<path d="M127.249 825.625C127.239 825.617 127.231 825.607 127.221 825.599C127.226 825.598 127.23 825.597 127.234 825.595C127.243 825.605 127.253 825.613 127.262 825.621L127.249 825.625ZM126.68 825.087C126.165 824.592 125.658 824.091 125.157 823.583C122.692 821.07 120.383 818.036 118.851 814.809C120.389 818.037 122.71 821.07 125.175 823.583C125.673 824.09 126.179 824.59 126.693 825.082C126.688 825.084 126.684 825.085 126.68 825.087Z" fill="#0C1418"/>
<path d="M127.221 825.599C127.041 825.429 126.858 825.258 126.68 825.087C126.684 825.085 126.688 825.084 126.692 825.083C126.872 825.254 127.053 825.425 127.234 825.595C127.23 825.597 127.226 825.598 127.221 825.599Z" fill="#1A2C33"/>
<path d="M177.893 845.049C174.68 845.047 171.596 844.896 168.739 844.598C153.346 842.99 138.552 836.197 127.262 825.621C127.253 825.613 127.243 825.605 127.234 825.595C127.053 825.425 126.872 825.254 126.693 825.082C126.179 824.59 125.673 824.09 125.175 823.583C122.71 821.07 120.389 818.037 118.851 814.809C118.198 813.435 117.686 812.025 117.363 810.605C117.851 808.685 118.81 806.813 120.428 805.061C123.243 802.011 127.289 800.346 131.429 800.086C132.497 800.019 133.566 799.987 134.635 799.987C148.151 799.987 161.563 805.286 171.49 814.441C174.145 816.89 176.731 819.707 180.21 820.686C181.166 820.955 182.127 821.071 183.091 821.071C186.969 821.071 190.88 819.196 194.672 817.918C199.015 816.453 203.818 815.011 208.592 815.011C211.636 815.011 214.67 815.597 217.563 817.14C220.008 818.444 221.908 820.432 223.206 822.794C223.877 824.01 224.326 825.272 224.614 826.545C223.511 831.544 219.917 836.046 214.806 838.234C203.917 842.895 189.973 845.047 177.893 845.049Z" fill="#1A2C33"/>
<path d="M224.614 826.545C224.476 826.592 224.514 824.729 222.79 822.141C221.927 820.877 220.64 819.454 218.813 818.251C217.014 817.034 214.683 815.983 211.98 815.635C206.459 814.986 200.065 817.31 192.958 819.231C189.448 820.161 185.612 821.584 181.413 821.057C179.361 820.791 177.305 820.111 175.473 819.002C173.646 817.907 171.987 816.555 170.369 815.156C164.246 809.18 156.982 805.438 150.039 803.077C146.565 801.911 143.153 801.144 139.924 800.729C136.692 800.304 133.649 800.251 130.925 800.677C128.206 801.099 125.844 801.993 123.966 803.103C122.096 804.237 120.709 805.548 119.703 806.718C117.73 809.108 117.064 810.741 116.958 810.68C116.958 810.68 117.483 808.989 119.403 806.471C120.383 805.237 121.77 803.844 123.674 802.629C125.585 801.433 128.015 800.46 130.811 799.979C133.608 799.493 136.742 799.511 140.025 799.908C143.314 800.293 146.789 801.044 150.327 802.203C153.868 803.356 157.465 804.929 161 806.913C162.748 807.931 164.529 808.987 166.194 810.294C167.849 811.591 169.414 813.015 171.022 814.401C172.623 815.787 174.246 817.103 175.981 818.148C177.705 819.196 179.604 819.826 181.537 820.086C185.427 820.6 189.157 819.272 192.719 818.344C199.79 816.493 206.298 814.177 212.067 814.933C217.794 815.846 221.483 819.287 223.116 821.931C223.954 823.282 224.328 824.476 224.494 825.288C224.631 826.108 224.638 826.543 224.614 826.545Z" fill="#17282F"/>
<path d="M224.614 826.545C224.476 826.592 224.514 824.729 222.79 822.141C221.927 820.877 220.64 819.454 218.813 818.251C217.014 817.034 214.683 815.983 211.98 815.635C206.459 814.986 200.065 817.31 192.958 819.231C189.448 820.161 185.612 821.584 181.413 821.057C179.361 820.791 177.305 820.111 175.473 819.002C173.646 817.907 171.987 816.555 170.369 815.156C164.246 809.18 156.982 805.438 150.039 803.077C146.565 801.911 143.153 801.144 139.924 800.729C136.692 800.304 133.649 800.251 130.925 800.677C128.206 801.099 125.844 801.993 123.966 803.103C122.096 804.237 120.709 805.548 119.703 806.718C117.73 809.108 117.064 810.741 116.958 810.68C116.958 810.68 117.483 808.989 119.403 806.471C120.383 805.237 121.77 803.844 123.674 802.629C125.585 801.433 128.015 800.46 130.811 799.979C133.608 799.493 136.742 799.511 140.025 799.908C143.314 800.293 146.789 801.044 150.327 802.203C153.868 803.356 157.465 804.929 161 806.913C162.748 807.931 164.529 808.987 166.194 810.294C167.849 811.591 169.414 813.015 171.022 814.401C172.623 815.787 174.246 817.103 175.981 818.148C177.705 819.196 179.604 819.826 181.537 820.086C185.427 820.6 189.157 819.272 192.719 818.344C199.79 816.493 206.298 814.177 212.067 814.933C217.794 815.846 221.483 819.287 223.116 821.931C223.954 823.282 224.328 824.476 224.494 825.288C224.631 826.108 224.638 826.543 224.614 826.545Z" fill="#17282F"/>
<path d="M132.415 824.756C132.346 824.643 133.781 823.606 136.221 822.118C138.661 820.631 142.123 818.719 146.07 816.86C150.02 815.006 153.701 813.56 156.404 812.63C159.106 811.699 160.821 811.258 160.863 811.382C160.91 811.519 159.28 812.196 156.656 813.29C154.03 814.384 150.419 815.922 146.496 817.764C142.574 819.61 139.086 821.41 136.57 822.735C134.051 824.056 132.49 824.88 132.415 824.756Z" fill="#17282F"/>
<path d="M134.969 832.191C134.848 831.942 141.349 828.551 149.487 824.616C157.628 820.681 164.322 817.694 164.443 817.941C164.563 818.19 158.062 821.581 149.922 825.516C141.784 829.45 135.089 832.438 134.969 832.191Z" fill="#17282F"/>
<path d="M165.766 835.415C165.619 835.649 157.697 830.922 148.076 824.86C138.45 818.795 130.767 813.69 130.916 813.457C131.061 813.224 138.982 817.949 148.607 824.014C158.229 830.077 165.913 835.181 165.766 835.415Z" fill="#17282F"/>
<path d="M170.225 827.701C170.135 827.813 168.676 826.789 166.345 825.11C164.015 823.429 160.8 821.108 157.204 818.611C153.602 816.118 150.3 813.921 147.91 812.328C145.519 810.734 144.049 809.728 144.121 809.606C144.189 809.492 145.789 810.284 148.282 811.73C150.776 813.172 154.155 815.285 157.772 817.791C161.386 820.299 164.549 822.72 166.776 824.549C169.004 826.377 170.308 827.598 170.225 827.701Z" fill="#17282F"/>
<path d="M227.042 522.012C226.879 521.97 227.737 520.694 227.334 518.273C227.126 517.087 226.603 515.669 225.633 514.251C224.664 512.833 223.225 511.447 221.588 509.931C219.951 508.43 218.124 506.625 216.742 504.283C215.352 501.96 214.328 499.19 213.926 496.162C213.512 493.145 213.795 489.842 214.85 486.708C215.869 483.556 217.488 480.577 219.078 477.573C220.681 474.577 222.143 471.624 222.973 468.61C223.829 465.602 223.903 462.575 223.156 459.816C221.646 454.27 218.338 449.895 216.661 445.676C214.822 441.496 214.652 437.581 215.292 435.109C215.59 433.861 216.024 432.954 216.372 432.384C216.718 431.812 216.967 431.558 217.001 431.581C217.136 431.65 216.272 432.805 215.858 435.224C215.425 437.625 215.73 441.269 217.624 445.256C219.35 449.294 222.764 453.557 224.479 459.468C225.327 462.416 225.273 465.808 224.378 468.99C223.514 472.197 222 475.259 220.39 478.269C218.792 481.281 217.212 484.184 216.233 487.162C215.219 490.122 214.936 493.149 215.283 495.992C215.624 498.83 216.542 501.449 217.805 503.66C219.061 505.889 220.715 507.614 222.317 509.175C223.906 510.74 225.356 512.23 226.328 513.798C227.297 515.361 227.775 516.909 227.908 518.196C228.033 519.491 227.81 520.502 227.56 521.127C227.315 521.76 227.069 522.029 227.042 522.012Z" fill="#17282F"/>
<path d="M304.577 495.107C306.483 499.965 311.674 503.194 316.893 503.207C322.112 503.221 327.131 500.246 330.034 495.909C332.938 491.573 333.806 486.035 332.858 480.903C332.43 478.581 331.648 476.261 331.917 473.914C332.301 470.588 334.721 467.84 335.552 464.596C337.045 458.753 332.775 452.581 327.215 450.243C321.655 447.906 315.275 448.629 309.466 450.25" fill="#17282F"/>
<path d="M219.906 427.525C214.549 432.912 216.594 439.98 219.094 444.768C221.595 449.555 224.594 454.408 224.652 459.808C224.71 465.33 221.676 470.35 220.162 475.661C218.251 482.355 218.826 489.729 221.753 496.047C223.955 500.806 227.402 504.905 229.631 509.654C231.862 514.402 232.686 520.378 229.653 524.657C232.545 524.194 234.954 521.996 236.252 519.371C237.549 516.743 237.866 513.737 237.804 510.808C237.575 499.688 232.247 488.886 233.58 477.845C234.355 471.424 237.368 465.263 236.941 458.811C236.515 452.337 232.719 446.663 229.972 440.786C227.228 434.907 225.601 427.578 229.261 422.219" fill="#17282F"/>
<path d="M233.07 406.435C226.507 407.283 220.001 410.717 216.829 416.523C213.656 422.329 214.748 430.547 220.17 434.34C225.281 437.917 232.531 436.737 237.781 433.368C241.656 430.882 244.882 427.22 246.288 422.836C247.692 418.452 247.101 413.344 244.252 409.726C241.405 406.109 236.215 404.333 231.907 405.956" fill="#17282F"/>
<path d="M227.714 405.763C230.606 397.78 237.704 391.754 245.7 388.901C253.697 386.049 262.5 386.104 270.844 387.673C279.188 389.242 287.178 392.265 295.118 395.271C300.898 397.46 306.806 399.723 311.504 403.738C316.153 407.712 319.327 413.185 321.44 418.924C325.408 429.711 325.572 437.61 320.923 448.121C318.9 452.695 320.548 457.816 318.734 462.478C316.922 467.141 308.509 472.689 311.122 476.954" fill="#17282F"/>
<path d="M306.963 522.013L303.494 419.684C303.335 415.101 299.698 411.399 295.115 411.163L247.661 401.863C232.583 401.088 223.613 420.088 223.478 435.185C223.329 451.959 223.809 472.444 226.464 484.81C231.804 509.674 251.199 511.827 251.199 511.827C251.201 511.778 251.747 521.53 252.255 530.291L251.444 568.832L306.963 522.013Z" fill="#F8AC97"/>
<path d="M229.949 453.227C229.981 454.928 231.446 456.304 233.225 456.304C234.999 456.302 236.415 454.926 236.384 453.224C236.352 451.523 234.884 450.144 233.111 450.144C231.332 450.144 229.915 451.524 229.949 453.227Z" fill="#17282F"/>
<path d="M228.399 443.96C228.821 444.358 231.16 442.422 234.622 442.244C238.077 442.017 240.715 443.659 241.066 443.216C241.241 443.019 240.792 442.283 239.643 441.538C238.512 440.794 236.612 440.115 234.457 440.241C232.302 440.369 230.53 441.261 229.532 442.13C228.512 443.004 228.193 443.782 228.399 443.96Z" fill="#17282F"/>
<path d="M261.99 452.728C262.021 454.429 263.49 455.806 265.267 455.806C267.042 455.805 268.458 454.427 268.424 452.725C268.395 451.024 266.926 449.645 265.152 449.646C263.374 449.646 261.959 451.027 261.99 452.728Z" fill="#17282F"/>
<path d="M262.548 444.391C262.971 444.788 265.312 442.853 268.771 442.675C272.226 442.447 274.864 444.091 275.217 443.647C275.391 443.449 274.946 442.714 273.793 441.968C272.662 441.226 270.762 440.546 268.605 440.671C266.45 440.8 264.681 441.692 263.682 442.561C262.663 443.435 262.342 444.213 262.548 444.391Z" fill="#17282F"/>
<path d="M251.374 470.738C251.38 470.54 249.209 470.285 245.698 470.029C244.809 469.984 243.963 469.854 243.781 469.26C243.54 468.631 243.857 467.659 244.231 466.608C244.946 464.424 245.694 462.134 246.48 459.736C249.591 449.958 251.794 441.937 251.398 441.814C251.004 441.693 248.16 449.52 245.049 459.298C244.303 461.709 243.59 464.007 242.912 466.204C242.632 467.227 242.118 468.397 242.641 469.697C242.914 470.345 243.589 470.789 244.164 470.912C244.741 471.053 245.238 471.037 245.676 471.039C249.195 471.038 251.372 470.936 251.374 470.738Z" fill="#17282F"/>
<path d="M251.199 511.827C251.199 511.827 268.131 512.002 284.304 501.051C284.304 501.051 276.763 518.753 251.534 517.765L251.199 511.827Z" fill="#F79489"/>
<path d="M260.46 434.341C260.852 435.264 264.285 434.631 268.371 434.901C272.465 435.089 275.803 436.099 276.297 435.226C276.516 434.81 275.897 433.955 274.523 433.116C273.161 432.277 271.021 431.526 268.568 431.386C266.116 431.252 263.904 431.759 262.458 432.44C261.001 433.123 260.29 433.903 260.46 434.341Z" fill="#17282F"/>
<path d="M229.221 435.498C229.873 436.252 232.213 435.307 235.078 435.113C237.937 434.818 240.402 435.355 240.917 434.503C241.14 434.09 240.714 433.323 239.613 432.636C238.528 431.952 236.747 431.439 234.779 431.605C232.813 431.775 231.145 432.58 230.19 433.438C229.221 434.302 228.932 435.128 229.221 435.498Z" fill="#17282F"/>
<path d="M253.292 478.616C254.37 477.02 256.357 476.066 258.39 476.174C259.798 476.249 261.249 476.848 262.162 477.943C263.074 479.038 263.34 480.647 262.625 481.776C261.82 483.049 260.016 483.43 258.452 483.075C256.887 482.72 255.507 481.779 254.193 480.836C253.83 480.575 253.459 480.303 253.221 479.931C252.982 479.561 252.907 479.062 253.16 478.73" fill="#F79489"/>
<path d="M261.126 472.63C260.6 472.628 260.782 476.132 257.918 478.781C255.059 481.439 251.303 481.246 251.303 481.738C251.265 481.96 252.171 482.373 253.751 482.331C255.298 482.3 257.529 481.681 259.282 480.06C261.029 478.438 261.707 476.359 261.747 474.916C261.802 473.444 261.364 472.598 261.126 472.63Z" fill="#17282F"/>
<path d="M227.29 412.494C228.931 420.364 241.545 420.956 249.339 418.988C254.901 425.469 263.939 428.773 272.37 427.404C273.516 427.219 274.718 426.958 275.81 427.35C276.968 427.768 277.745 428.826 278.535 429.768C282.063 433.982 287.209 436.808 292.658 437.526C294.165 445.39 300.945 451.962 308.852 453.224C308.852 453.224 311.355 451.806 309.878 441.72C308.4 431.635 308.313 410.49 308.313 410.49L280.156 399.567L246.984 395.294C246.984 395.294 224.514 399.178 227.29 412.494Z" fill="#17282F"/>
<path d="M320.525 449.281C320.306 449.326 320.467 446.504 318.423 442.328C317.391 440.281 315.732 437.939 313.163 436.03C310.621 434.125 307.157 432.658 303.237 432.488L302.799 432.467L302.665 432.039C301.442 428.104 299.302 423.842 295.526 420.904C291.883 418.019 286.137 416.802 281.665 419.358L280.926 419.78L280.591 418.966C280.475 418.684 280.349 418.379 280.222 418.072C277.213 410.991 269.919 406.748 263.365 406.468C261.701 406.406 260.133 406.578 258.518 406.875C256.917 407.143 255.205 407.389 253.549 406.926C251.878 406.45 250.681 405.309 249.678 404.315C248.673 403.283 247.755 402.375 246.706 401.703C242.439 398.967 237.886 399.338 235.255 400.156C232.522 401.011 231.312 402.163 231.223 402.031C231.191 401.991 231.483 401.712 232.079 401.213C232.714 400.78 233.667 400.107 235.07 399.608C237.764 398.593 242.55 397.973 247.273 400.819C249.679 402.154 251.214 404.999 253.876 405.739C256.545 406.434 259.815 404.874 263.422 405.101C270.486 405.339 278.295 409.795 281.59 417.494C281.727 417.827 281.863 418.16 281.99 418.467L280.916 418.076C286.119 415.144 292.415 416.598 296.399 419.782C300.489 423.028 302.659 427.567 303.87 431.68L303.299 431.231C307.508 431.484 311.148 433.13 313.786 435.217C316.451 437.314 318.109 439.84 319.08 442.016C320.066 444.207 320.401 446.077 320.531 447.338C320.65 448.604 320.58 449.279 320.525 449.281Z" fill="#4B5F8A"/>
<path d="M275.698 425.201C275.725 425.282 275.024 425.617 273.671 425.998C272.322 426.38 270.288 426.712 267.75 426.66C262.763 426.622 255.381 424.483 250.135 418.416L251.06 418.584C250.805 418.716 250.531 418.859 250.255 419.003C246.576 420.805 242.549 421.226 239.08 420.677C235.581 420.13 232.695 418.591 230.643 416.954C228.575 415.303 227.294 413.561 226.555 412.309C225.818 411.046 225.582 410.269 225.661 410.231C225.897 410.063 227.209 413.138 231.277 416.116C233.3 417.56 236.032 418.889 239.279 419.323C242.505 419.76 246.221 419.325 249.602 417.669C249.855 417.537 250.106 417.407 250.34 417.284L250.88 417.006L251.265 417.453C256.142 423.118 263.032 425.33 267.804 425.626C272.677 425.988 275.637 424.919 275.698 425.201Z" fill="#4B5F8A"/>
<path d="M260.742 411.164C260.71 411.603 257.066 411.492 252.857 412.737C248.631 413.93 245.608 415.967 245.347 415.613C245.078 415.341 247.898 412.604 252.445 411.311C256.98 409.98 260.825 410.791 260.742 411.164Z" fill="#4B5F8A"/>
<path d="M251.199 410.879C250.888 411.161 249.547 410.171 247.862 409.099C246.187 408.012 244.731 407.202 244.859 406.802C244.97 406.419 246.803 406.646 248.666 407.849C250.534 409.044 251.501 410.618 251.199 410.879Z" fill="#4B5F8A"/>
<path d="M290.994 423.26C290.859 423.678 287.63 422.827 283.64 423.187C279.645 423.49 276.601 424.865 276.401 424.476C276.174 424.165 279.156 422.052 283.518 421.708C287.875 421.327 291.165 422.916 290.994 423.26Z" fill="#4B5F8A"/>
<path d="M298.697 436.299C298.734 436.677 293.994 437.145 288.441 435.52C282.874 433.933 279.115 431.01 279.348 430.709C279.579 430.334 283.533 432.583 288.853 434.094C294.157 435.652 298.701 435.859 298.697 436.299Z" fill="#4B5F8A"/>
<path d="M316.364 444.932C316.049 445.238 313.586 442.765 309.623 441.644C305.682 440.444 302.275 441.192 302.174 440.766C301.98 440.423 305.617 438.895 310.041 440.221C314.48 441.498 316.712 444.75 316.364 444.932Z" fill="#4B5F8A"/>
<path d="M313.837 408.937C313.716 408.984 313.391 408.12 312.426 406.833C311.455 405.56 309.715 403.964 307.122 402.698C301.955 400.185 293.814 398.619 284.958 399.015C276.059 399.41 268.181 401.567 262.586 403.273C256.981 405.022 253.562 406.299 253.478 406.087C253.441 405.996 254.246 405.555 255.753 404.878C257.261 404.199 259.469 403.279 262.252 402.277C267.807 400.302 275.774 397.939 284.894 397.532C293.989 397.135 302.289 398.881 307.611 401.769C310.271 403.218 312.032 405.057 312.902 406.507C313.771 407.971 313.91 408.919 313.837 408.937Z" fill="#4B5F8A"/>
<path d="M316.643 422.413C316.367 422.528 315.593 419.38 312.384 415.562C309.257 411.749 303.389 407.615 295.984 405.936C288.554 404.276 281.524 404.923 276.557 405.536C271.562 406.186 268.479 406.784 268.43 406.56C268.391 406.385 271.386 405.423 276.4 404.497C281.375 403.615 288.573 402.762 296.315 404.488C304.069 406.242 310.15 410.743 313.203 414.905C314.758 416.977 315.687 418.875 316.144 420.239C316.612 421.6 316.726 422.39 316.643 422.413Z" fill="#4B5F8A"/>
<path d="M223.297 438.185C223.273 438.32 220.975 437.691 218.462 434.981C215.997 432.39 213.533 427.299 214.68 421.61C215.918 415.938 220.22 412.267 223.522 410.887C226.911 409.415 229.268 409.765 229.235 409.898C229.271 410.169 227.016 410.22 223.981 411.832C221.002 413.356 217.231 416.853 216.133 421.916C215.103 426.99 217.15 431.707 219.263 434.302C221.395 436.998 223.439 437.953 223.297 438.185Z" fill="#4B5F8A"/>
<path d="M327.854 471.8C327.713 471.571 330.253 470.229 333.842 467.535C335.596 466.162 337.557 464.309 338.899 461.754C340.258 459.238 340.7 455.933 339.33 452.919C338.04 449.906 335.514 447.667 332.878 446.658C330.2 445.646 327.488 445.725 325.348 446.178C320.995 447.154 318.869 449.252 318.715 449.009C318.658 448.946 319.107 448.377 320.135 447.573C321.171 446.799 322.813 445.775 325.099 445.158C327.356 444.539 330.318 444.315 333.352 445.374C336.366 446.447 339.226 448.915 340.696 452.335C342.27 455.75 341.69 459.695 340.104 462.401C338.554 465.182 336.362 467.065 334.467 468.381C332.548 469.697 330.881 470.534 329.726 471.09C328.568 471.638 327.902 471.888 327.854 471.8Z" fill="#17282F"/>
<path d="M329.022 471.942C329.115 471.906 329.535 472.671 330.18 474.107C330.82 475.544 331.704 477.651 332.536 480.361C333.352 483.064 334.136 486.411 334.113 490.227C334.094 493.999 333.255 498.322 330.734 502.054C328.194 505.773 324.229 508.142 320.342 508.639C316.407 509.231 312.824 507.527 310.855 505.405C308.793 503.289 308.003 500.9 307.915 499.292C307.81 497.663 308.164 496.81 308.228 496.829C308.364 496.846 308.218 497.722 308.489 499.216C308.74 500.694 309.62 502.818 311.588 504.653C313.508 506.502 316.647 507.874 320.153 507.284C323.612 506.777 327.21 504.586 329.505 501.218C331.811 497.813 332.656 493.794 332.745 490.204C332.842 486.587 332.196 483.326 331.526 480.642C330.092 475.274 328.783 472.031 329.022 471.942Z" fill="#17282F"/>
<path d="M290.183 425.002C287.055 431.235 289.448 438.788 292.655 444.981C295.86 451.175 299.952 457.31 300.221 464.28C300.671 475.954 290.24 486.276 291.682 497.869C292.538 504.765 298.054 510.837 304.836 512.352C299.313 508.638 298.811 500.518 300.923 494.206C303.033 487.895 313.248 471.261 314.728 464.772C319.702 442.978 317.58 440.445 309.961 432.783" fill="#17282F"/>
<path d="M311.196 440.539C311.211 440.718 309.662 441.075 307.149 440.712C304.665 440.369 301.208 439.123 298.316 436.457C295.425 433.786 293.908 430.441 293.367 427.992C292.804 425.516 293.035 423.943 293.214 423.944C293.454 423.929 293.615 425.444 294.404 427.691C295.172 429.926 296.717 432.901 299.352 435.335C301.987 437.764 305.077 439.066 307.365 439.655C309.669 440.26 311.193 440.3 311.196 440.539Z" fill="#4B5F8A"/>
<path d="M302.12 505.419C302.086 505.462 301.822 505.292 301.342 504.923C300.869 504.551 300.219 503.931 299.509 503.02C298.13 501.217 296.505 498.044 296.56 493.822C296.568 491.735 297.068 489.418 298.255 487.221C299.452 485.031 301.281 483.137 303.105 481.219C304.952 479.304 306.714 477.241 307.82 474.669C308.951 472.122 309.508 469.207 309.379 466.255C309.247 463.29 308.404 460.478 306.99 458.048C305.606 455.597 303.818 453.467 302.121 451.418C298.622 447.384 295.846 443.271 294.217 439.514C292.544 435.761 291.962 432.428 291.863 430.152C291.769 427.863 292.041 426.616 292.116 426.626C292.433 426.573 291.679 431.823 295.197 439.061C296.917 442.664 299.649 446.534 303.197 450.51C304.925 452.541 306.793 454.703 308.29 457.307C309.819 459.887 310.77 462.992 310.904 466.185C311.045 469.381 310.43 472.526 309.188 475.278C307.971 478.063 305.995 480.312 304.12 482.194C302.249 484.1 300.492 485.873 299.358 487.845C298.24 489.804 297.711 491.914 297.639 493.855C297.45 497.779 298.818 500.848 299.994 502.678C301.221 504.522 302.216 505.312 302.12 505.419Z" fill="#4B5F8A"/>
<path d="M313.741 439.719C313.802 439.655 314.414 440.089 315.342 441.07C316.277 442.044 317.444 443.655 318.46 445.868C320.531 450.254 321.455 457.328 319.255 464.472C317.035 471.586 312.915 477.009 309.836 480.605C306.702 484.214 304.495 486.169 304.358 486.042C304.185 485.884 306.116 483.661 308.996 479.925C311.832 476.196 315.679 470.818 317.795 464.024C319.879 457.243 319.18 450.556 317.464 446.285C315.78 441.938 313.51 439.915 313.741 439.719Z" fill="#4B5F8A"/>
<path d="M209.447 626.085L195.404 600.179C194.473 598.459 192.673 597.389 190.717 597.389H90.7509C88.7725 597.389 86.9572 598.485 86.0339 600.237L185.13 666.832L228.977 671.867C229.919 670.078 229.95 667.945 229.06 666.13L209.447 626.085Z" fill="#17282F"/>
<mask id="mask0_789_6642" style="mask-type:luminance" maskUnits="userSpaceOnUse" x="317" y="686" width="8" height="14">
<path d="M322.997 699.606C320.922 694.348 319.054 689.88 317.652 686.609C321.381 688.694 324.709 691.797 324.441 695.876C324.349 697.26 323.817 698.523 322.997 699.606Z" fill="white"/>
</mask>
<g mask="url(#mask0_789_6642)">
<path d="M317.652 699.606H324.709V686.609H317.652V699.606Z" fill="#A7A9A8"/>
</g>
<path d="M314.297 703.542C311.061 703.542 307.836 702.527 304.74 701.48C288.627 696.039 272.889 689.489 257.673 681.89C251.376 678.745 244.714 675.332 237.792 675.332C236.951 675.332 236.105 675.382 235.255 675.489C231.607 675.953 228.141 677.464 224.476 677.776C224.31 677.791 224.138 677.798 223.96 677.798C220.237 677.798 214.293 674.728 213.001 671.464C212.736 670.982 212.519 670.477 212.349 669.958L228.977 671.867C229.919 670.077 229.951 667.945 229.06 666.13L222.086 651.888C224.113 651.178 226.224 650.864 228.354 650.864C233.224 650.864 238.202 652.507 242.551 654.84C249.006 658.302 254.596 663.182 260.908 666.897C277.418 676.615 297.602 677.726 315.165 685.38C315.99 685.74 316.831 686.15 317.652 686.609C319.054 689.88 320.922 694.348 322.997 699.606C321.469 701.621 318.938 703.009 316.383 703.391C315.689 703.495 314.992 703.542 314.297 703.542Z" fill="#F79489"/>
<path d="M228.977 671.867L212.348 669.958C210.254 663.552 215.144 654.617 221.445 652.127C221.657 652.043 221.871 651.964 222.085 651.888L229.06 666.13C229.95 667.945 229.919 670.078 228.977 671.867Z" fill="#0F191D"/>
<path d="M228.977 671.867L193.918 603.221C192.981 601.388 191.097 600.236 189.041 600.236H85.5527L124.109 669.679L228.977 671.867Z" fill="#4B5F8A"/>
<path d="M147.854 624.931C149.298 626.088 151.409 625.855 152.564 624.41C153.723 622.966 153.49 620.857 152.046 619.698C150.601 618.543 148.491 618.775 147.335 620.219C146.176 621.663 146.409 623.772 147.854 624.931Z" fill="#7C8EB5"/>
<path d="M238.919 636.051L228.505 628.009C224.229 622.701 217.778 619.617 210.963 619.617H205.29L201.419 623.971C201.419 623.971 173.648 625.181 172.625 628.605L172.601 629.712L172.586 630.358L196.339 631.955C196.339 631.955 176.131 631.892 174.924 631.936C173.593 631.985 169.285 631.598 169.373 633.968C169.447 635.918 171.752 637.456 175.243 637.966C176.681 638.175 194.182 639.697 194.182 639.697C194.182 639.697 175.805 639.52 174.917 639.516C172.758 639.506 173.031 642.969 174.315 643.403C175.329 643.746 200.003 650.947 200.003 650.947C200.003 650.947 195.855 653.729 192.467 653.487C189.08 653.245 183.273 648.89 182.065 650.947C180.854 653.002 181.097 654.212 181.822 654.697C182.548 655.18 190.531 659.292 193.192 660.019C195.855 660.746 217.581 664.183 217.581 664.183L235.601 661.875L238.919 636.051Z" fill="#F8AC97"/>
<path d="M191.966 624.305C191.964 624.137 196.328 623.978 201.71 623.949C207.093 623.921 211.458 624.035 211.458 624.203C211.459 624.371 207.097 624.53 201.712 624.558C196.331 624.587 191.967 624.473 191.966 624.305Z" fill="#F79489"/>
<path d="M238.92 636.051L315.37 650.602L323.039 554.484C323.039 554.484 343.657 537.144 354.562 548.977C365.47 560.808 366.275 574.81 365.578 581.786C364.878 588.764 357.933 670.904 352.168 684.804C344.11 704.239 323.472 703.194 317.709 701.782C311.944 700.367 229.706 661.476 229.706 661.476L238.92 636.051Z" fill="#F8AC97"/>
<path d="M320.223 553.986C317.531 575.69 312.237 608.901 311.94 630.77C311.94 631.656 364.517 636.051 364.517 636.051C364.517 636.051 367.259 586.537 365.279 571.479C363.031 554.394 350.243 542.615 350.243 542.615H333.745L320.223 553.986Z" fill="#FFB800"/>
<path d="M364.517 636.051C364.517 636.074 364.149 636.061 363.451 636.013C362.691 635.953 361.677 635.874 360.403 635.774C357.685 635.528 353.869 635.182 349.173 634.757C339.62 633.825 326.5 632.546 311.904 631.122L311.563 631.088L311.588 630.744C311.632 630.069 311.681 629.343 311.73 628.613C312.792 613.497 313.752 599.815 314.454 589.829C314.833 584.92 315.142 580.927 315.361 578.081C315.479 576.745 315.573 575.682 315.644 574.888C315.716 574.159 315.766 573.777 315.789 573.778C315.814 573.781 315.812 574.166 315.787 574.897C315.748 575.694 315.698 576.759 315.636 578.098C315.471 580.947 315.239 584.947 314.954 589.862C314.307 599.853 313.418 613.539 312.437 628.662C312.389 629.392 312.338 630.118 312.292 630.793L311.975 630.418C326.563 631.924 339.675 633.281 349.222 634.267C353.91 634.785 357.719 635.207 360.43 635.504C361.697 635.661 362.708 635.782 363.466 635.876C364.158 635.967 364.52 636.028 364.517 636.051Z" fill="#17282F"/>
<path d="M319.48 171.657H423.036V-1.52588e-05H319.48V171.657Z" fill="#7C8EB5"/>
<path d="M316.036 171.657H419.592V-1.52588e-05H316.036V171.657Z" fill="#D4DFF4"/>
<path d="M320.446 168.176H415.183V3.48151H320.446V168.176Z" fill="white"/>
<path d="M396.737 146.775H338.482V24.8817H396.737V146.775Z" fill="#D4DFF4"/>
<path d="M338.482 103.641C338.347 92.2551 348.571 81.1391 359.83 79.5493C365.2 78.7912 370.905 79.8582 375.921 77.7979C384.876 74.1208 387.725 62.2063 396.737 58.6726L397.148 146.775H338.482V103.641Z" fill="#7C8EB5"/>
<path d="M245.012 292.351H101.781V143.044H245.012V292.351Z" fill="#D4DFF4"/>
<path d="M235.313 292.351H92.0808V143.044H235.313V292.351Z" fill="#A8BBE2"/>
<path d="M92.1249 292.307H235.268V143.088H92.1249V292.307ZM235.356 292.396H92.0364V143H235.356V292.396Z" fill="#D4DFF4"/>
<path d="M216.058 272.28H111.335V163.115H216.058V272.28Z" fill="white"/>
<path d="M111.335 273.005C111.417 273.104 110.423 274.245 108.75 276.011C107.079 277.776 104.729 280.164 102.094 282.76C99.4583 285.355 97.0374 287.667 95.2525 289.308C93.4666 290.949 92.3155 291.92 92.226 291.829C92.1353 291.737 93.1233 290.601 94.7963 288.837C96.4687 287.072 98.8249 284.677 101.468 282.075C104.11 279.473 106.536 277.155 108.321 275.515C110.108 273.873 111.253 272.908 111.335 273.005Z" fill="#D4DFF4"/>
<path d="M215.772 163.407C215.689 163.309 216.683 162.167 218.356 160.403C220.029 158.637 222.379 156.248 225.013 153.653C227.647 151.057 230.068 148.747 231.855 147.104C233.64 145.464 234.79 144.493 234.882 144.584C234.971 144.675 233.983 145.811 232.311 147.576C230.639 149.341 228.282 151.735 225.639 154.337C222.997 156.94 220.57 159.257 218.784 160.899C216.999 162.539 215.855 163.505 215.772 163.407Z" fill="#D4DFF4"/>
<path d="M111.048 163.675C110.95 163.757 109.808 162.763 108.044 161.091C106.279 159.419 103.89 157.067 101.295 154.433C98.6988 151.797 96.3873 149.377 94.7467 147.592C93.105 145.807 92.1347 144.656 92.2259 144.565C92.316 144.475 93.4524 145.463 95.217 147.136C96.9826 148.808 99.3769 151.165 101.979 153.808C104.582 156.449 106.899 158.877 108.539 160.661C110.182 162.448 111.146 163.591 111.048 163.675Z" fill="#D4DFF4"/>
<path d="M215.937 272.601C215.93 272.595 215.922 272.415 215.915 272.071C215.909 271.699 215.901 271.197 215.892 270.548C215.881 269.179 215.865 267.211 215.845 264.655C215.82 259.483 215.784 251.96 215.738 242.407C215.689 223.287 215.619 196.049 215.533 163.436L215.937 163.84C185.451 163.857 149.648 163.879 111.511 163.9H111.501L111.965 163.436C111.94 203.504 111.918 240.989 111.899 272.601L111.501 272.204C142.795 272.288 168.851 272.357 187.119 272.407C196.246 272.452 203.427 272.487 208.36 272.511C210.797 272.532 212.673 272.545 213.979 272.557C214.597 272.567 215.075 272.575 215.432 272.579C215.76 272.587 215.93 272.595 215.937 272.601C215.945 272.609 215.789 272.616 215.476 272.624C215.131 272.631 214.667 272.636 214.067 272.647C212.778 272.657 210.927 272.672 208.523 272.693C203.611 272.717 196.462 272.752 187.373 272.797C169.044 272.845 142.9 272.916 111.501 273H111.103L111.103 272.601C111.083 240.989 111.061 203.504 111.036 163.436V162.973H111.501H111.511C149.648 162.995 185.451 163.015 215.937 163.032H216.343L216.342 163.436C216.257 196.156 216.186 223.483 216.136 242.665C216.09 252.179 216.055 259.672 216.03 264.821C216.01 267.344 215.994 269.287 215.983 270.636C215.973 271.268 215.966 271.755 215.96 272.116C215.952 272.445 215.945 272.609 215.937 272.601Z" fill="#D4DFF4"/>
<path d="M185.818 209.238C192.09 213.495 192.09 223.341 185.818 227.598L158.487 246.148C151.777 250.702 143.036 245.509 143.036 236.967L143.036 199.869C143.036 191.327 151.777 186.134 158.487 190.689L185.818 209.238Z" fill="url(#paint0_linear_789_6642)"/>
<rect width="3.85394" height="9.23359" rx="1.92697" transform="matrix(-1 0 0 1 152.011 213.832)" fill="white"/>
<rect width="3.85394" height="31.332" rx="1.92697" transform="matrix(-1 0 0 1 158.447 202.782)" fill="white"/>
<rect width="3.85394" height="18.0522" rx="1.92697" transform="matrix(-1 0 0 1 164.883 209.422)" fill="white"/>
<rect width="3.85394" height="25.6258" rx="1.92697" transform="matrix(-1 0 0 1 171.317 205.636)" fill="white"/>
<rect width="3.75759" height="9.23359" rx="1.87879" transform="matrix(-1 0 0 1 177.657 213.832)" fill="white"/>
<defs>
<linearGradient id="paint0_linear_789_6642" x1="194.893" y1="241.868" x2="117.752" y2="192.477" gradientUnits="userSpaceOnUse">
<stop stop-color="#51ACFF"/>
<stop offset="1" stop-color="#0055D5"/>
</linearGradient>
</defs>
</svg>
