<svg width="28" height="28" viewBox="0 0 28 28" fill="none" xmlns="http://www.w3.org/2000/svg">
<path d="M14.0013 0.666016C6.6413 0.666016 0.667969 6.63935 0.667969 13.9993C0.667969 21.3594 6.6413 27.3327 14.0013 27.3327C21.3613 27.3327 27.3346 21.3594 27.3346 13.9993C27.3346 6.63935 21.3613 0.666016 14.0013 0.666016ZM19.3746 14.706L15.3746 18.706C15.1746 18.906 14.9213 18.9993 14.668 18.9993C14.4146 18.9993 14.1613 18.906 13.9613 18.706C13.5746 18.3193 13.5746 17.6793 13.9613 17.2927L16.2546 14.9993H9.33464C8.78797 14.9993 8.33464 14.546 8.33464 13.9993C8.33464 13.4527 8.78797 12.9993 9.33464 12.9993H16.2546L13.9613 10.706C13.5746 10.3193 13.5746 9.67935 13.9613 9.29268C14.348 8.90602 14.988 8.90602 15.3746 9.29268L19.3746 13.2927C19.7613 13.6793 19.7613 14.3193 19.3746 14.706Z" fill="#37476A"/>
</svg>
