<svg width="21" height="20" viewBox="0 0 21 20" fill="none" xmlns="http://www.w3.org/2000/svg">
<path d="M14.69 0H6.31C2.67 0 0.5 2.17 0.5 5.81V14.18C0.5 17.83 2.67 20 6.31 20H14.68C18.32 20 20.49 17.83 20.49 14.19V5.81C20.5 2.17 18.33 0 14.69 0ZM10.5 16.25C8.71 16.25 7.31 15.36 6.36 14.48V15.19C6.36 15.6 6.02 15.94 5.61 15.94C5.2 15.94 4.86 15.6 4.86 15.19V12.44C4.86 12.03 5.2 11.69 5.61 11.69H8.09C8.5 11.69 8.84 12.03 8.84 12.44C8.84 12.85 8.5 13.19 8.09 13.19H7.19C7.93 13.93 9.08 14.75 10.5 14.75C13.12 14.75 15.25 12.62 15.25 10C15.25 9.59 15.59 9.25 16 9.25C16.41 9.25 16.75 9.59 16.75 10C16.75 13.45 13.95 16.25 10.5 16.25ZM16.75 7.54C16.75 7.57 16.75 7.6 16.75 7.62C16.74 7.73 16.71 7.83 16.66 7.92C16.61 8.01 16.54 8.09 16.45 8.16C16.38 8.21 16.3 8.25 16.21 8.28C16.14 8.3 16.07 8.31 16 8.31H13.57C13.16 8.31 12.82 7.97 12.82 7.56C12.82 7.15 13.16 6.81 13.57 6.81H14.4C13.6 6.07 12.31 5.25 10.52 5.25C7.9 5.25 5.77 7.38 5.77 10C5.77 10.41 5.43 10.75 5.02 10.75C4.61 10.75 4.25 10.41 4.25 10C4.25 6.55 7.05 3.75 10.5 3.75C12.65 3.75 14.23 4.68 15.25 5.57V4.81C15.25 4.4 15.59 4.06 16 4.06C16.41 4.06 16.75 4.4 16.75 4.81V7.54Z" fill="#2477F4"/>
</svg>
