<svg width="20" height="20" viewBox="0 0 20 20" fill="none" xmlns="http://www.w3.org/2000/svg">
<path d="M12.5 5.89166C12.5 5.33333 12.225 4.81666 11.7583 4.50833L8.425 2.28333C7.86667 1.90833 7.13333 1.90833 6.575 2.28333L3.24167 4.50833C2.78333 4.81666 2.5 5.33333 2.5 5.89166V10.625C2.5 10.8583 2.68333 11.0417 2.91667 11.0417H12.0833C12.3167 11.0417 12.5 10.8583 12.5 10.625V5.89166ZM7.5 8.95832C6.7 8.95832 6.04167 8.29999 6.04167 7.49999C6.04167 6.69999 6.7 6.04166 7.5 6.04166C8.3 6.04166 8.95833 6.69999 8.95833 7.49999C8.95833 8.29999 8.3 8.95832 7.5 8.95832Z" fill="#7C8EB5"/>
<path d="M18.3334 17.7084H17.275V15.2083C18.0667 14.95 18.6417 14.2083 18.6417 13.3333V11.6667C18.6417 10.575 17.75 9.68335 16.6584 9.68335C15.5667 9.68335 14.675 10.575 14.675 11.6667V13.3333C14.675 14.2 15.2417 14.9333 16.0167 15.2V17.7084H12.5V12.7083C12.5 12.475 12.3167 12.2917 12.0834 12.2917H2.91669C2.68335 12.2917 2.50002 12.475 2.50002 12.7083V17.7084H1.66669C1.32502 17.7084 1.04169 17.9917 1.04169 18.3334C1.04169 18.675 1.32502 18.9584 1.66669 18.9584H16.6084C16.625 18.9584 16.6334 18.9667 16.65 18.9667C16.6667 18.9667 16.675 18.9584 16.6917 18.9584H18.3334C18.675 18.9584 18.9584 18.675 18.9584 18.3334C18.9584 17.9917 18.675 17.7084 18.3334 17.7084ZM6.87502 15.2083C6.87502 14.8667 7.15835 14.5833 7.50002 14.5833C7.84169 14.5833 8.12502 14.8667 8.12502 15.2083V17.7084H6.87502V15.2083Z" fill="#7C8EB5"/>
</svg>
