<svg width="20" height="20" viewBox="0 0 20 20" fill="none" xmlns="http://www.w3.org/2000/svg">
<path d="M17.4083 10.8334V11.6667H16.6833C16.0667 11.6667 15.5667 12.1667 15.5667 12.7917V13.0417C15.5667 13.6667 15.0667 14.1667 14.4417 14.1667C13.825 14.1667 13.325 13.6667 13.325 13.0417V12.7917C13.325 12.1667 12.8167 11.6667 12.2 11.6667C11.5833 11.6667 11.0833 12.1667 11.0833 12.7917V13.0417C11.0833 13.6667 10.575 14.1667 9.95834 14.1667C9.34167 14.1667 8.83334 13.6667 8.83334 13.0417V12.7917C8.83334 12.1667 8.33334 11.6667 7.71668 11.6667C7.10001 11.6667 6.59167 12.1667 6.59167 12.7917V13.0417C6.59167 13.6667 6.09167 14.1667 5.47501 14.1667C4.85001 14.1667 4.35001 13.6667 4.35001 13.0417V12.775C4.35001 12.1584 3.85834 11.6584 3.25001 11.65H2.59167V10.8334C2.59167 9.68337 3.45834 8.70837 4.63334 8.42504C4.86667 8.36671 5.10834 8.33337 5.36667 8.33337H14.6333C14.8917 8.33337 15.1333 8.36671 15.3667 8.42504C16.5417 8.70837 17.4083 9.68337 17.4083 10.8334Z" fill="#7C8EB5"/>
<path d="M15.3667 5.97496V7.14996C15.125 7.09996 14.8834 7.08329 14.6334 7.08329H5.3667C5.1167 7.08329 4.87503 7.10829 4.63336 7.15829V5.97496C4.63336 4.97496 5.53336 4.16663 6.65003 4.16663H13.35C14.4667 4.16663 15.3667 4.97496 15.3667 5.97496Z" fill="#7C8EB5"/>
<path d="M7.29169 2.95829V4.17496H6.65002C6.43335 4.17496 6.23335 4.19996 6.04169 4.24996V2.95829C6.04169 2.66663 6.32502 2.41663 6.66669 2.41663C7.00835 2.41663 7.29169 2.66663 7.29169 2.95829Z" fill="#7C8EB5"/>
<path d="M13.9583 2.77502V4.25002C13.7666 4.19169 13.5666 4.16669 13.35 4.16669H12.7083V2.77502C12.7083 2.43336 12.9916 2.15002 13.3333 2.15002C13.675 2.15002 13.9583 2.43336 13.9583 2.77502Z" fill="#7C8EB5"/>
<path d="M10.625 2.34996V4.16663H9.375V2.34996C9.375 1.97496 9.65833 1.66663 10 1.66663C10.3417 1.66663 10.625 1.97496 10.625 2.34996Z" fill="#7C8EB5"/>
<path d="M18.3334 17.7084C18.3334 18.05 18.05 18.3334 17.7084 18.3334H2.29169C1.95002 18.3334 1.66669 18.05 1.66669 17.7084C1.66669 17.3667 1.95002 17.0834 2.29169 17.0834H2.59169V12.9H3.10002V12.9584C3.10002 14.075 3.83335 15.1084 4.92502 15.35C5.77502 15.55 6.58335 15.275 7.13335 14.7334C7.45002 14.4167 7.96669 14.4084 8.28335 14.725C8.71669 15.15 9.30835 15.4167 9.95835 15.4167C10.6084 15.4167 11.2 15.1584 11.6334 14.725C11.95 14.4167 12.4584 14.4167 12.7834 14.7334C13.325 15.275 14.1334 15.55 14.9917 15.35C16.0834 15.1084 16.8167 14.075 16.8167 12.9584V12.9167H17.4084V17.0834H17.7084C18.05 17.0834 18.3334 17.3667 18.3334 17.7084Z" fill="#7C8EB5"/>
</svg>
