<svg width="20" height="20" viewBox="0 0 20 20" fill="none" xmlns="http://www.w3.org/2000/svg">
<path d="M17.475 0.833374H15.025C13.9667 0.833374 13.3333 1.46671 13.3333 2.52504V4.97504C13.3333 6.03337 13.9667 6.66671 15.025 6.66671H17.475C18.5333 6.66671 19.1667 6.03337 19.1667 4.97504V2.52504C19.1667 1.46671 18.5333 0.833374 17.475 0.833374ZM15.8417 5.47504C15.8167 5.50004 15.7583 5.53337 15.7167 5.53337L14.85 5.65837C14.825 5.66671 14.7917 5.66671 14.7667 5.66671C14.6417 5.66671 14.5333 5.62504 14.4583 5.54171C14.3583 5.44171 14.3167 5.30004 14.3417 5.15004L14.4667 4.28337C14.475 4.24171 14.5 4.18337 14.525 4.15837L15.9417 2.74171C15.9667 2.80004 15.9917 2.86671 16.0167 2.93337C16.05 3.00004 16.0833 3.05837 16.1167 3.11671C16.1417 3.16671 16.175 3.21671 16.2083 3.25004C16.2417 3.30004 16.275 3.35004 16.3 3.37504C16.3167 3.40004 16.325 3.40837 16.3333 3.41671C16.4083 3.50837 16.4917 3.59171 16.5667 3.65004C16.5833 3.66671 16.6 3.68337 16.6083 3.68337C16.65 3.71671 16.7 3.75837 16.7333 3.78337C16.7833 3.81671 16.825 3.85004 16.875 3.87504C16.9333 3.90837 17 3.94171 17.0667 3.97504C17.1333 4.00837 17.2 4.03337 17.2583 4.05004L15.8417 5.47504ZM17.8333 3.48337L17.5667 3.75004C17.55 3.77504 17.525 3.78337 17.5 3.78337C17.4917 3.78337 17.4833 3.78337 17.475 3.78337C16.875 3.60837 16.4 3.13337 16.225 2.53337C16.2167 2.50004 16.225 2.46671 16.25 2.44171L16.525 2.16671C16.975 1.71671 17.4 1.72504 17.8417 2.16671C18.0667 2.39171 18.175 2.60837 18.175 2.82504C18.1667 3.04171 18.0583 3.25837 17.8333 3.48337Z" fill="white"/>
<path d="M7.5 8.65002C8.59536 8.65002 9.48333 7.76205 9.48333 6.66668C9.48333 5.57132 8.59536 4.68335 7.5 4.68335C6.40463 4.68335 5.51666 5.57132 5.51666 6.66668C5.51666 7.76205 6.40463 8.65002 7.5 8.65002Z" fill="white"/>
<path d="M17.475 6.66663H17.0833V10.5083L16.975 10.4166C16.325 9.85829 15.275 9.85829 14.625 10.4166L11.1583 13.3916C10.5083 13.95 9.45832 13.95 8.80832 13.3916L8.52499 13.1583C7.93332 12.6416 6.99166 12.5916 6.32499 13.0416L3.20832 15.1333C3.02499 14.6666 2.91666 14.125 2.91666 13.4916V6.50829C2.91666 4.15829 4.15832 2.91663 6.50832 2.91663H13.3333V2.52496C13.3333 2.19163 13.3917 1.90829 13.525 1.66663H6.50832C3.47499 1.66663 1.66666 3.47496 1.66666 6.50829V13.4916C1.66666 14.4 1.82499 15.1916 2.13332 15.8583C2.84999 17.4416 4.38332 18.3333 6.50832 18.3333H13.4917C16.525 18.3333 18.3333 16.525 18.3333 13.4916V6.47496C18.0917 6.60829 17.8083 6.66663 17.475 6.66663Z" fill="white"/>
</svg>
