<svg width="120" height="120" viewBox="0 0 120 120" fill="none" xmlns="http://www.w3.org/2000/svg">
<path d="M60 120C93.1371 120 120 93.1371 120 60C120 26.8629 93.1371 0 60 0C26.8629 0 0 26.8629 0 60C0 93.1371 26.8629 120 60 120Z" fill="white" fill-opacity="0.2"/>
<path d="M77.2318 53.3739C79.8596 51.6533 80.3822 47.8034 78.3992 44.7749C76.4162 41.7465 72.6785 40.6863 70.0507 42.4069C67.423 44.1275 66.9004 47.9774 68.8834 51.0058C70.8664 54.0343 74.6041 55.0945 77.2318 53.3739Z" fill="white" fill-opacity="0.2"/>
<path d="M98.3118 27.8581C97.2785 32.5411 93.883 36.9742 89.0502 37.9868C87.5152 38.3083 88.1664 40.6531 89.6969 40.3324C95.3108 39.1561 99.452 33.9671 100.657 28.5048C100.995 26.9761 98.6498 26.3263 98.3118 27.8581Z" fill="white" fill-opacity="0.1"/>
<path d="M80.6532 34.2502C80.7369 34.1103 80.8296 33.9756 80.9222 33.8415C81.04 33.6711 81.1633 33.5048 81.2883 33.3399C81.0978 33.5911 81.3724 33.2367 81.4067 33.1939C81.5021 33.0756 81.6 32.9597 81.6982 32.844C82.7744 31.5772 84.0248 30.4617 85.4026 29.5332C90.0649 26.3914 95.7199 26.0052 101.065 27.3945C102.584 27.7895 103.229 25.4432 101.712 25.0488C95.7945 23.5108 89.5529 23.9658 84.3386 27.3248C82.1158 28.7569 79.9256 30.7276 78.5528 33.0224C77.7452 34.3721 79.8488 35.5945 80.6532 34.2502Z" fill="white" fill-opacity="0.1"/>
<path d="M81.1747 42.7468C84.2499 43.5212 87.7273 43.3449 90.7592 42.5161C97.6843 40.6231 100.857 34.3317 103.046 27.7984C104.055 24.7875 100.563 24.9159 100.104 26.9562C99.3618 30.2578 98.099 33.4662 95.732 35.9465C94.0043 37.7568 91.8946 38.8664 89.5736 39.4751C87.7774 39.9463 86.2243 40.0522 84.1889 39.9225C83.8473 39.9006 83.5065 39.8673 83.1666 39.8273C82.703 39.7729 83.521 39.8803 83.0916 39.8172C82.9735 39.7999 82.8559 39.7804 82.738 39.7605C82.5034 39.7207 82.2678 39.6775 82.0368 39.6193C80.0077 39.1084 79.1474 42.2363 81.1747 42.7468Z" fill="white"/>
<path d="M91.1618 56.7616L90.4714 38.2439C90.3086 33.8791 86.6042 30.4409 82.2394 30.6037L63.7217 31.2941C59.357 31.4569 53.3545 34.2093 50.3831 37.411L20.4402 69.6734C17.469 72.8748 17.6574 77.9252 20.8586 80.8966L44.8888 103.199C48.0903 106.171 53.1407 105.982 56.1121 102.781L86.0548 70.5188C89.0266 67.3171 91.3244 61.1265 91.1618 56.7616ZM75.3018 53.4606C71.5139 53.6018 68.3291 50.6458 68.1879 46.8581C68.0467 43.0705 71.0028 39.8855 74.7904 39.7443C78.5781 39.6031 81.7631 42.5591 81.9043 46.3468C82.0455 50.1344 79.0897 53.3194 75.3018 53.4606Z" fill="#FFB800"/>
<path d="M45.0413 94.3888L29.8053 80.2404C27.278 77.8937 27.1305 73.9058 29.4772 71.3785L45.8973 53.6964C48.2442 51.1691 52.2319 51.0216 54.7592 53.3683L69.9952 67.5167C72.5224 69.8634 72.6699 73.8513 70.3232 76.3786L53.9031 94.0608C51.5562 96.588 47.5685 96.7357 45.0413 94.3888Z" fill="white" fill-opacity="0.1"/>
<path d="M61.3681 76.8309L45.837 62.4499C45.2117 61.8708 45.1736 60.8853 45.7529 60.2599L46.4199 59.5397C46.999 58.9144 47.9845 58.8763 48.6099 59.4556L64.141 73.8366C64.7664 74.4157 64.8044 75.4012 64.2252 76.0266L63.5581 76.7468C62.979 77.3719 61.9935 77.41 61.3681 76.8309Z" fill="white"/>
<path d="M56.1223 82.4961L40.5911 68.115C39.9658 67.536 39.9277 66.5504 40.507 65.9251L41.1741 65.2048C41.7531 64.5795 42.7387 64.5415 43.364 65.1207L58.8952 79.5018C59.5205 80.0808 59.5586 81.0664 58.9793 81.6917L58.3122 82.4122C57.7332 83.0373 56.7476 83.0752 56.1223 82.4961Z" fill="white"/>
<path d="M51.0336 88.2317L35.5024 73.8506C34.8771 73.2716 34.839 72.286 35.4183 71.6607L36.0853 70.9404C36.6644 70.3151 37.65 70.2771 38.2753 70.8563L53.8065 85.2374C54.4318 85.8164 54.4698 86.802 53.8906 87.4273L53.2235 88.1476C52.6444 88.7729 51.6589 88.8107 51.0336 88.2317Z" fill="white"/>
<path d="M81.6396 46.4298C81.5732 50.1184 78.6611 53.0304 74.9727 53.0967C71.2839 53.1631 68.3702 50.0185 68.3058 46.4298C68.2394 42.741 71.384 39.8273 74.9727 39.7629C78.6613 39.6965 81.575 42.8411 81.6396 46.4298C81.6773 48.5188 84.9207 48.5225 84.883 46.4298C84.7864 41.0572 80.6201 36.8138 75.2765 36.5249C69.8899 36.2338 65.55 40.6596 65.084 45.8248C64.5968 51.2247 68.9436 55.643 74.0695 56.2915C79.3396 56.9583 84.1507 52.7376 84.7972 47.6279C84.8478 47.2279 84.8759 46.8329 84.8833 46.4298C84.9207 44.3372 81.677 44.3408 81.6396 46.4298Z" fill="#FFE296"/>
<path d="M81.2247 41.183C81.2582 40.8652 81.1546 41.6806 81.194 41.4057C81.219 41.2308 81.2497 41.0568 81.2822 40.8831C81.3964 40.2742 81.5507 39.6731 81.728 39.0796C81.8476 38.6796 81.9834 38.2845 82.1285 37.8931C82.2011 37.697 82.2788 37.5029 82.3577 37.3091C82.2117 37.667 82.5177 36.9554 82.57 36.8431C83.0542 35.8037 83.6451 34.8167 84.3197 33.8901C85.613 32.1136 87.769 30.3488 90.0595 29.387C93.7053 27.8561 97.7284 27.7882 101.599 28.2656C102.478 28.3742 103.221 27.4459 103.221 26.6439C103.221 25.678 102.476 25.1303 101.599 25.0222C94.1464 24.103 86.4312 25.7712 81.7129 31.9949C79.7316 34.6084 78.327 37.9011 77.981 41.1828C77.8883 42.0637 78.7891 42.8045 79.6027 42.8045C80.557 42.8047 81.1319 42.0618 81.2247 41.183Z" fill="white"/>
</svg>
