<svg width="32" height="32" viewBox="0 0 32 32" fill="none" xmlns="http://www.w3.org/2000/svg">
<path d="M28.1997 8.22634C27.653 7.93301 26.5063 7.62634 24.9463 8.71967L22.9863 10.1063C22.8397 5.95967 21.0397 4.33301 16.6663 4.33301H8.66634C4.10634 4.33301 2.33301 6.10634 2.33301 10.6663V21.333C2.33301 24.3997 3.99967 27.6663 8.66634 27.6663H16.6663C21.0397 27.6663 22.8397 26.0397 22.9863 21.893L24.9463 23.2797C25.773 23.8663 26.493 24.053 27.0663 24.053C27.5597 24.053 27.9463 23.9063 28.1997 23.773C28.7463 23.493 29.6663 22.733 29.6663 20.8263V11.173C29.6663 9.26634 28.7463 8.50634 28.1997 8.22634ZM14.6663 15.173C13.293 15.173 12.1597 14.053 12.1597 12.6663C12.1597 11.2797 13.293 10.1597 14.6663 10.1597C16.0397 10.1597 17.173 11.2797 17.173 12.6663C17.173 14.053 16.0397 15.173 14.6663 15.173Z" fill="#7C8EB5"/>
</svg>
