<svg width="96" height="102" viewBox="0 0 96 102" fill="none" xmlns="http://www.w3.org/2000/svg">
<path d="M39.4515 95.5956C39.1734 95.1166 38.9621 94.6817 38.8176 94.2909C37.195 89.8997 36.6591 85.2625 36.4795 80.4486C36.2761 74.9971 36.5745 69.8416 37.1668 64.5933C37.1685 64.5778 37.1669 64.5622 37.162 64.5474C37.1572 64.5326 37.1492 64.519 37.1387 64.5075C37.1282 64.4959 37.1154 64.4867 37.101 64.4805C37.0867 64.4742 37.0712 64.471 37.0555 64.4711C27.8999 64.4887 18.8254 64.4765 9.83204 64.4343C5.86091 64.4151 2.26982 61.7924 0.785281 58.2038C-1.58256 52.4739 1.61662 46.2464 7.49836 44.4748C7.63295 44.4346 7.6379 44.3816 7.5132 44.3158C5.00631 42.9895 3.42032 41.0599 2.75525 38.5271C1.40729 33.3922 4.63913 27.8317 10.1067 27.2647C10.2442 27.251 10.3818 27.251 10.5194 27.2647C11.0776 27.3187 11.2488 27.2363 11.033 27.0173C9.75832 25.7205 8.96013 24.1787 8.63848 22.3919C8.71766 21.8834 8.69291 21.3803 8.56425 20.8825C8.5405 18.0797 9.59155 15.782 11.7174 13.9894C11.8599 13.8686 11.9683 13.6949 12.1049 13.5918C13.5132 12.5394 15.1036 11.9494 16.8762 11.8217C16.9385 11.8168 16.9504 11.7938 16.9118 11.7525C16.8881 11.727 16.8569 11.7118 16.8183 11.7069C16.7916 11.7031 16.767 11.6961 16.746 11.6862C16.7251 11.6764 16.7083 11.6638 16.6965 11.6494C15.9365 10.7492 15.4268 9.81705 15.1675 8.853C14.0392 4.66202 16.8079 0.475468 21.1902 0.0336928C21.3506 0.0170035 22.3403 0.00865236 24.1593 0.00865236C35.4908 0.00717977 46.8238 -0.0222806 58.1537 0.0366228C61.8725 0.057239 65.0791 0.945215 68.0868 3.14526C69.9543 4.51182 71.7001 6.05509 71.7001 8.55701C71.7001 25.05 71.7001 41.5434 71.7001 58.0374C71.7001 59.0564 71.764 59.6925 70.8837 60.1638C65.9505 62.8071 62.2793 67.4693 59.6071 72.239C58.7342 73.6625 57.988 75.1473 57.3684 76.6935C56.4035 78.9039 56.1363 81.3425 56.0338 83.7266C55.9319 86.1063 55.8468 88.4865 55.7785 90.8672C55.6746 94.4779 54.8655 99.5598 51.1734 101.392C50.6034 101.577 49.726 101.763 48.5414 101.948C47.7887 102.066 47.2439 101.953 46.6619 101.9C45.7846 101.819 44.7083 101.169 43.9497 100.698C43.3687 100.337 42.8298 99.8971 42.333 99.3787C41.2315 98.2321 40.271 96.971 39.4515 95.5956Z" fill="#F35B60"/>
<path d="M80.4104 64.3239H98.8186C100.576 64.3239 102 62.911 102 61.1681V3.16886C102 1.42599 100.576 0.0131073 98.8186 0.0131073H80.4104C78.6534 0.0131073 77.229 1.42599 77.229 3.16886V61.1681C77.229 62.911 78.6534 64.3239 80.4104 64.3239Z" fill="#F35B60"/>
</svg>
