<svg width="96" height="102" viewBox="0 0 96 102" fill="none" xmlns="http://www.w3.org/2000/svg">
<path d="M39.4515 6.40436C39.1734 6.88344 38.9621 7.31834 38.8176 7.70907C37.195 12.1003 36.6591 16.7375 36.4795 21.5514C36.2761 27.0029 36.5745 32.1584 37.1668 37.4067C37.1685 37.4222 37.1669 37.4378 37.162 37.4526C37.1572 37.4674 37.1492 37.481 37.1387 37.4925C37.1282 37.5041 37.1154 37.5133 37.101 37.5195C37.0867 37.5258 37.0712 37.529 37.0555 37.5289C27.8999 37.5113 18.8254 37.5235 9.83204 37.5657C5.86091 37.5849 2.26982 40.2076 0.785281 43.7962C-1.58256 49.5261 1.61662 55.7536 7.49836 57.5252C7.63295 57.5654 7.6379 57.6184 7.5132 57.6842C5.00631 59.0105 3.42032 60.9401 2.75525 63.4729C1.40729 68.6078 4.63913 74.1683 10.1067 74.7353C10.2442 74.749 10.3818 74.749 10.5194 74.7353C11.0776 74.6813 11.2488 74.7637 11.033 74.9827C9.75832 76.2795 8.96013 77.8213 8.63848 79.6081C8.71766 80.1166 8.69291 80.6197 8.56425 81.1175C8.5405 83.9203 9.59155 86.218 11.7174 88.0106C11.8599 88.1314 11.9683 88.3051 12.1049 88.4082C13.5132 89.4606 15.1036 90.0506 16.8762 90.1783C16.9385 90.1832 16.9504 90.2062 16.9118 90.2475C16.8881 90.273 16.8569 90.2882 16.8183 90.2931C16.7916 90.2969 16.767 90.3039 16.746 90.3138C16.7251 90.3236 16.7083 90.3362 16.6965 90.3506C15.9365 91.2508 15.4268 92.1829 15.1675 93.147C14.0392 97.338 16.8079 101.525 21.1902 101.966C21.3506 101.983 22.3403 101.991 24.1593 101.991C35.4908 101.993 46.8238 102.022 58.1537 101.963C61.8725 101.943 65.0791 101.055 68.0868 98.8547C69.9543 97.4882 71.7001 95.9449 71.7001 93.443C71.7001 76.95 71.7001 60.4566 71.7001 43.9626C71.7001 42.9436 71.764 42.3075 70.8837 41.8362C65.9505 39.1929 62.2793 34.5307 59.6071 29.761C58.7342 28.3375 57.988 26.8527 57.3684 25.3065C56.4035 23.0961 56.1363 20.6575 56.0338 18.2734C55.9319 15.8937 55.8468 13.5135 55.7785 11.1328C55.6746 7.52205 54.8655 2.44016 51.1734 0.608263C50.6034 0.422718 49.726 0.237172 48.5414 0.0516264C47.7887 -0.0661805 47.2439 0.0472066 46.6619 0.10022C45.7846 0.181212 44.7083 0.830623 43.9497 1.30185C43.3687 1.66312 42.8298 2.10294 42.333 2.62129C41.2315 3.76794 40.271 5.02897 39.4515 6.40436Z" fill="#16BF3B"/>
<path d="M80.4104 37.6761H98.8186C100.576 37.6761 102 39.089 102 40.8319V98.8311C102 100.574 100.576 101.987 98.8186 101.987H80.4104C78.6534 101.987 77.229 100.574 77.229 98.8311V40.8319C77.229 39.089 78.6534 37.6761 80.4104 37.6761Z" fill="#16BF3B"/>
</svg>
