<svg width="134" height="176" viewBox="0 0 134 176" fill="none" xmlns="http://www.w3.org/2000/svg">
<path d="M61.0416 13.2302L62.2325 14.3106L63.5905 15.5522L64.7478 16.6348L66.2596 18.0347L67.4915 19.1546L69.0034 20.5545L70.1919 21.643L74.2482 25.3887L75.4614 26.49L80.7563 31.3788L82.1435 32.6555L83.562 33.962L85.0589 35.3649L86.1751 36.3825L87.5399 37.6592L88.8158 38.8336L90.038 39.9603L94.0517 43.6619L95.4643 44.9745L112.231 60.6099C112.556 60.9145 112.56 60.8979 112.244 60.5599L93.1309 39.4685L91.9736 38.1993L90.6096 36.6815L89.5845 35.5489L88.2033 34.0557L87.1394 32.9171C84.5202 29.8248 82.9866 26.1591 84.7063 22.1787C84.9745 21.583 85.289 21.0027 85.6498 20.4378L86.597 19.1934C86.9499 18.7022 87.3853 18.3041 87.9034 17.999C88.4538 17.7124 89.0219 17.6709 89.6078 17.8745C89.993 18.1194 90.3103 18.4347 90.5597 18.8204L91.8229 20.3942L92.8802 21.7351L94.0688 23.2253L95.1992 24.6513L96.3213 26.0437L97.5122 27.56L98.6358 28.9554L100.695 31.5685L101.93 33.1109L103.047 34.5175L104.223 35.992L105.37 37.4337L106.494 38.835L107.68 40.3394L112.131 45.9276L113.238 47.3215L114.451 48.8334L115.534 50.2145L116.71 51.6891L117.849 53.1262L118.813 54.3268L119.472 55.1577L122.42 58.8698L123.447 60.1517L124.637 61.6434L125.695 62.9835L126.924 64.5259L128.008 65.8937L130.274 68.736L131.474 70.2605L132.557 71.6044L133.658 73.0042L134.871 74.5161L135.893 75.8674L136.94 77.3882L138.941 80.3021L139.959 81.7848L141 83.2936L142.114 84.8936L144.204 87.9172L147.396 92.4901L148.441 93.9459L150.526 96.9009L151.484 98.2574L152.716 99.9746L153.713 101.375L154.75 102.793L156.897 105.761L157.991 107.232L159.305 108.99L160.213 110.171L161.406 111.721L162.493 113.091L164.208 115.13C165.172 116.302 166.061 117.233 166.71 118.667C166.997 119.303 166.976 119.967 166.646 120.658C166.142 121.716 165.539 122.596 164.837 123.299C155.251 132.898 145.663 142.494 136.072 152.088C135.193 152.967 133.728 153.96 132.414 153.675C131.965 153.576 131.553 153.174 131.146 153.05C129.446 152.536 127.721 152.134 125.969 151.845L125.204 151.708C122.141 151.155 119.068 150.67 115.984 150.251L115.171 150.131C111.366 149.578 107.556 149.07 103.74 148.608L99.1677 148.029L98.401 147.933L96.8781 147.749L87.6313 146.637L86.9057 146.554L78.1337 145.545L74.0336 145.06L73.1445 144.945C73.1244 144.943 73.1053 144.936 73.0889 144.925C73.0724 144.914 73.059 144.9 73.0497 144.883C72.3488 143.617 71.6813 142.334 71.0471 141.034L70.6305 140.138L67.6625 133.923L66.9218 132.355L62.7965 123.452C62.444 122.651 62.0839 121.853 61.716 121.058C61.5811 120.767 61.5119 120.462 61.5084 120.143C61.5572 119.758 61.6689 119.4 61.8435 119.072C62.1297 118.659 62.4763 118.319 62.8834 118.053C66.4069 115.356 70.3583 115.201 74.1621 117.388L75.276 118.134C76.2929 118.928 77.2323 119.805 78.0944 120.766L79.015 121.899C79.8507 122.983 80.6016 124.124 81.2676 125.32C81.5513 125.931 81.9184 126.484 82.3689 126.977C82.7616 127.427 83.1672 127.834 83.5858 128.197C83.7705 128.392 83.9713 128.531 84.1883 128.613C84.2227 128.626 84.2582 128.627 84.2891 128.618L85.7657 128.17L87.0535 127.747L87.5574 127.579L91.4207 126.291L93.4363 125.576L97.3368 124.108C98.4959 123.669 99.6406 123.194 100.771 122.684L102.562 121.863L103.216 121.552C104.743 120.869 106.137 119.973 107.396 118.865C107.94 117.604 108.328 116.298 108.559 114.945L108.82 113.527L108.988 112.569C109.559 109.159 110.004 105.734 110.326 102.292C110.349 102.043 110.406 101.673 110.285 101.485C110.17 101.306 109.833 100.905 109.274 100.279L108.044 98.8095L105.594 95.906L104.483 94.6017L100.907 90.3707L99.779 89.0395L99.1377 88.2549C99.1262 88.2406 99.111 88.2294 99.0934 88.2222C99.0759 88.2151 99.0564 88.2122 99.0369 88.2138C95.134 88.4932 91.2266 88.6113 87.3147 88.5682C86.5776 88.5597 85.7547 88.4569 84.8459 88.2597C84.8281 88.256 84.8102 88.2568 84.7945 88.262C84.7789 88.2672 84.7664 88.2766 84.7585 88.2888L84.5741 88.5718L83.5739 89.9916L82.54 91.5018L81.3584 93.1941L78.3397 97.5208C78.3207 97.5486 78.3101 97.582 78.3091 97.6171C78.2947 98.3174 78.3222 99.0162 78.3914 99.7134L78.4288 100.678L78.4102 102.158L78.3543 103.067C78.2196 104.521 77.9352 105.947 77.5014 107.347C77.1551 108.485 76.7075 109.587 76.1586 110.65C75.8257 111.179 75.3979 111.625 74.8754 111.987C74.429 112.287 73.945 112.554 73.4234 112.787C71.5377 113.563 69.4467 113.938 67.4139 114.206C66.6449 114.307 66.189 114.351 66.0462 114.339C65.1608 114.261 64.5658 113.735 64.4395 112.799C63.582 106.432 62.7185 100.065 61.849 93.6995C61.7863 93.2386 61.8708 92.8051 62.1027 92.399C62.8183 91.1469 63.5249 89.8957 64.2226 88.6456L65.2258 86.9152C67.6062 82.7071 69.9963 78.4774 72.5895 74.397C72.7079 74.2118 72.8428 74.0406 72.9941 73.8834C73.0174 73.8591 73.0488 73.8429 73.0837 73.8371L76.6909 73.1983L77.6271 73.0192L78.7685 72.8379L83.1858 72.0671C87.2554 71.3562 91.3252 70.6455 95.3953 69.9351C95.672 69.8864 95.9771 69.9028 96.3106 69.9845C98.9673 70.6317 101.624 71.2767 104.282 71.9194L108.612 72.9709C112.118 73.8207 115.625 74.6718 119.131 75.5242C119.624 75.6436 119.979 75.6753 120.195 75.619C120.827 75.4563 121.406 74.4336 120.812 73.8804C120.581 73.6639 120.135 73.5877 119.81 73.5093C112.169 71.6632 104.53 69.8127 96.892 67.9577C96.7148 67.9149 96.5369 67.9091 96.3582 67.9405C93.8155 68.3912 91.2101 69.024 88.0941 69.7345C87.5178 69.8559 86.9775 69.7481 86.4733 69.4111C86.0159 69.105 85.401 68.715 84.6285 68.2411L78.4095 64.2944L76.9014 63.3507L75.2156 62.274L73.7635 61.3609C73.3679 61.0981 73.014 60.8502 72.5586 60.6919C69.1931 59.5161 65.8283 58.333 62.4643 57.1428L60.9995 56.6305L60.5269 56.4625L58.9674 55.8988L52.464 53.5131L51.3688 53.0837L49.7577 52.343C49.2336 52.0319 48.7359 51.6835 48.2646 51.2977C43.9642 47.4422 43.3815 42.197 46.2105 37.2939L47.1995 35.7449C47.5772 35.3274 48.0617 35.0385 48.653 34.8783L49.454 34.891L56.0148 37.394L56.7427 37.668L58.7734 38.4476L60.115 38.962L65.9628 41.2148L69.8203 42.6955C73.6452 44.1715 77.4731 45.641 81.304 47.104C82.942 47.7297 84.5546 48.4391 86.1761 49.1171L88.0739 49.9384L106.148 57.7084C106.403 57.8174 106.408 57.8067 106.164 57.6763C98.9371 53.8166 91.6334 49.9218 84.2528 45.9919C83.993 45.8535 83.7257 45.7315 83.451 45.626C79.9366 44.2745 76.4205 42.9282 72.9027 41.5871L69.4065 40.2453C69.1358 40.1378 68.8695 40.0313 68.6077 39.9257C68.2972 39.8018 68.0903 39.586 67.8231 39.3919L66.4023 38.1742C63.8385 35.9159 61.3468 33.591 58.9274 31.1994C57.904 30.188 56.9252 29.1355 55.9909 28.042C55.0756 26.9699 54.3992 25.9307 54.1728 24.513C53.5985 20.9183 55.9736 16.7229 57.9652 13.928C58.6572 12.9568 60.0129 12.4239 61.0416 13.2302Z" fill="#FFB800"/>
</svg>
