<svg width="470" height="474" viewBox="0 0 470 474" fill="none" xmlns="http://www.w3.org/2000/svg">
<path d="M110.71 198.625C110.71 198.625 95.8197 193.728 88.6824 228.108C81.5466 262.489 80.4734 281.484 80.4734 281.484C80.4734 281.484 78.1351 288.917 72.6646 285.971C67.1942 283.024 58.0459 272.923 51.2426 277.051C44.1863 281.33 43.9994 290.565 48.8861 302.724C53.7744 314.883 63.5048 341.913 64.3763 344.361C65.2312 346.763 64.8129 350.762 60.7646 349.352C56.7164 347.943 31.1419 331.453 24.0459 344.06C16.9515 356.668 36.1294 388.302 38.1602 391.8C40.1909 395.299 39.8932 397.111 38.357 398.533C36.8207 399.956 28.7473 393.604 21.2809 389.211C13.8144 384.819 4.38834 381.036 0.903999 388.654C-2.58035 396.272 2.79251 422.47 38.7026 457.599L56.4071 472.787L78.6296 465.369C125.218 446.598 140.172 424.428 139.856 416.058C139.539 407.687 129.383 407.588 120.807 408.798C112.231 410.009 102.345 412.802 101.467 410.901C100.589 409 101.006 407.21 104.216 404.752C107.425 402.292 137.217 380.369 135.464 366.006C133.713 351.644 103.784 357.129 99.5042 356.889C95.2244 356.648 96.3621 352.793 98.0688 350.898C99.8068 348.967 119.107 327.693 128.262 318.318C137.415 308.943 140.762 300.335 135.871 293.686C131.154 287.276 118.847 293.122 112.668 293.759C106.488 294.396 107.161 286.632 107.161 286.632C107.161 286.632 113.41 268.662 119.921 234.158C126.431 199.654 110.4 198.549 110.4 198.549" fill="#EBEBEB"/>
<path d="M56.2866 467.882C61.1601 442.56 68.1933 407.632 76.0914 369.077C83.9861 330.533 91.1053 295.632 96.121 270.339C98.6114 257.717 100.631 247.49 102.033 240.38C102.729 236.871 103.273 234.135 103.65 232.235C103.839 231.332 103.984 230.631 104.09 230.121C104.194 229.646 104.267 229.406 104.267 229.406C104.267 229.406 104.247 229.656 104.17 230.136C104.082 230.649 103.961 231.357 103.807 232.265C103.465 234.171 102.971 236.917 102.337 240.437C101.052 247.533 99.1158 257.786 96.6733 270.448C91.7982 295.771 84.7666 330.695 76.8719 369.237C68.9755 407.794 61.8547 442.699 56.839 467.991" fill="#E0E0E0"/>
<path d="M63.4716 291.698C63.5179 291.67 63.8717 292.156 64.4687 293.061C65.0707 293.964 65.8992 295.296 66.9063 296.954C68.9139 300.271 71.5648 304.924 74.3943 310.115C77.1526 315.231 79.648 319.856 81.5763 323.434C82.4362 325.012 83.1688 326.356 83.7691 327.459C84.29 328.407 84.5563 328.948 84.51 328.976C84.4636 329.006 84.1081 328.521 83.5028 327.62C82.9042 326.715 82.074 325.381 81.0851 323.714C79.1106 320.375 76.5209 315.689 73.6931 310.499C70.8983 305.407 68.3731 300.8 66.4185 297.238C65.5503 295.663 64.811 294.323 64.2041 293.223C63.6865 292.269 63.4253 291.728 63.4716 291.698Z" fill="#E0E0E0"/>
<path d="M86.6846 328.812C86.5705 328.624 95.9155 322.726 107.558 315.642C119.203 308.555 128.733 302.965 128.847 303.154C128.961 303.343 119.618 309.239 107.973 316.326C96.3323 323.409 86.7987 328.999 86.6846 328.812Z" fill="#E0E0E0"/>
<path d="M71.8908 387.465C71.8792 387.412 72.4613 387.22 73.5263 386.92C74.7583 386.584 76.2665 386.174 78.0426 385.691C81.8543 384.65 87.1115 383.198 92.8564 381.385C98.608 379.585 103.756 377.78 107.475 376.445C109.208 375.826 110.68 375.302 111.884 374.872C112.927 374.508 113.516 374.331 113.536 374.381C113.556 374.432 113.008 374.706 111.998 375.16C110.988 375.613 109.514 376.24 107.675 376.971C104.001 378.444 98.8659 380.339 93.0962 382.144C87.333 383.962 82.0346 385.334 78.1814 386.235C76.2532 386.679 74.6872 387.018 73.599 387.22C72.5109 387.43 71.9024 387.517 71.8908 387.465Z" fill="#E0E0E0"/>
<path d="M43.5081 358.517C43.5461 358.478 43.9844 358.84 44.7434 359.525C45.5008 360.211 46.5806 361.224 47.9019 362.486C50.5445 365.011 54.1546 368.538 58.1086 372.468C62.0626 376.4 65.6114 379.99 68.1515 382.617C69.4216 383.931 70.4402 385.005 71.1298 385.757C71.8211 386.512 72.1849 386.947 72.1452 386.986C72.1055 387.026 71.6689 386.665 70.9099 385.979C70.1509 385.292 69.0726 384.282 67.7513 383.019C65.1087 380.495 61.497 376.968 57.543 373.036C53.589 369.105 50.0419 365.515 47.5018 362.888C46.2317 361.575 45.2131 360.503 44.5218 359.748C43.8339 358.992 43.47 358.557 43.5081 358.517Z" fill="#E0E0E0"/>
<path d="M23.8722 408.638C23.9102 408.598 24.4659 409.067 25.4366 409.947C26.5115 410.948 27.8708 412.215 29.4948 413.728C32.8981 416.946 37.5599 421.431 42.6748 426.42C47.7913 431.411 52.3919 435.961 55.6943 439.281C57.2472 440.866 58.5486 442.196 59.5756 443.245C60.4802 444.193 60.9614 444.737 60.9234 444.777C60.8853 444.816 60.3297 444.348 59.3589 443.468C58.284 442.467 56.9247 441.2 55.3007 439.686C51.8974 436.469 47.2357 431.984 42.1191 426.993C37.0042 422.003 32.4036 417.456 29.1029 414.134C27.55 412.549 26.2485 411.22 25.2216 410.17C24.3154 409.22 23.8342 408.676 23.8722 408.638Z" fill="#E0E0E0"/>
<path d="M60.282 443.66C60.2671 443.607 60.9996 443.347 62.3375 442.922C63.8225 442.46 65.7259 441.868 68.008 441.16C72.7955 439.67 79.3987 437.593 86.6271 435.097C93.8603 432.612 100.348 430.194 105.036 428.414C107.272 427.568 109.137 426.864 110.591 426.313C111.906 425.823 112.643 425.576 112.665 425.628C112.686 425.679 111.988 426.023 110.71 426.6C109.43 427.179 107.566 427.983 105.244 428.938C100.606 430.855 94.1348 433.362 86.8883 435.851C79.6468 438.351 73.0022 440.348 68.1701 441.701C65.7524 442.371 63.7878 442.892 62.4235 443.221C61.0575 443.554 60.2952 443.713 60.282 443.66Z" fill="#E0E0E0"/>
<path d="M428.924 218.437L367.045 188.886C362.769 186.845 360.958 181.721 362.999 177.443L403.887 91.7631C405.927 87.4851 411.049 85.6736 415.325 87.715L454.569 106.457L470 152.286L440.364 214.389C438.322 218.667 433.2 220.479 428.924 218.437Z" fill="#EBEBEB"/>
<path d="M454.569 106.457L443.061 130.57C441.163 134.549 442.846 139.313 446.823 141.212L469.998 152.285L454.569 106.457Z" fill="#F5F5F5"/>
<path d="M442.369 132.838C442.369 132.838 439.273 138.54 445.011 143.642C445.226 143.834 445.458 144.009 445.691 144.178C448.459 146.165 466.689 159.224 466.908 158.766C467.144 158.271 470 152.286 470 152.286L446.822 141.217C446.822 141.217 441.13 138.254 442.369 132.838Z" fill="#E0E0E0"/>
<path d="M438.342 127.108C438.194 127.417 431.666 124.608 423.761 120.833C415.855 117.058 409.567 113.746 409.714 113.436C409.862 113.127 416.39 115.936 424.297 119.711C432.201 123.486 438.49 126.798 438.342 127.108Z" fill="#FAFAFA"/>
<path d="M450.324 149.571C450.177 149.881 439.509 145.095 426.499 138.883C413.486 132.668 403.06 127.38 403.207 127.071C403.354 126.762 414.021 131.546 427.034 137.761C440.045 143.973 450.473 149.262 450.324 149.571Z" fill="#FAFAFA"/>
<path d="M449.135 162.983C448.986 163.292 437.369 158.053 423.188 151.28C409.003 144.506 397.627 138.765 397.774 138.454C397.922 138.145 409.537 143.384 423.723 150.159C437.905 156.93 449.282 162.674 449.135 162.983Z" fill="#FAFAFA"/>
<path d="M444.009 173.724C443.86 174.035 432.242 168.795 418.062 162.022C403.877 155.247 392.501 149.507 392.648 149.196C392.795 148.887 404.411 154.124 418.596 160.9C432.778 167.671 444.157 173.415 444.009 173.724Z" fill="#FAFAFA"/>
<path d="M438.882 184.466C438.735 184.775 427.116 179.536 412.936 172.763C398.75 165.989 387.375 160.248 387.523 159.937C387.671 159.628 399.286 164.867 413.472 171.642C427.652 178.413 439.031 184.155 438.882 184.466Z" fill="#FAFAFA"/>
<path d="M433.758 195.207C433.61 195.517 421.991 190.277 407.811 183.505C393.626 176.73 382.25 170.99 382.397 170.679C382.544 170.369 394.16 175.607 408.345 182.383C422.527 189.154 433.905 194.896 433.758 195.207Z" fill="#FAFAFA"/>
<path d="M258.077 78.6247L297.644 77.912L284.314 66.2604L309.066 37.9427L300.82 30.7346L299.819 29.8596L291.574 22.6527L266.822 50.9704L253.49 39.3176L258.077 78.6247Z" fill="#EBEBEB"/>
<path d="M56.6701 411.287C53.8439 415.325 48.3504 413.988 45.8037 411.523C43.257 409.058 42.1804 405.487 41.1998 402.079C38.9607 394.295 36.7034 386.129 38.3686 378.202C38.8664 375.831 39.7528 373.469 41.4164 371.71C43.0817 369.952 45.6416 368.906 47.9816 369.525C50.7515 370.256 52.4731 372.971 53.7166 375.553C57.3746 383.142 59.3111 391.554 59.3392 399.979C59.3524 403.913 58.8894 408.039 56.6701 411.287Z" fill="#68A5FF"/>
<g opacity="0.2">
<path d="M56.6701 411.287C53.8439 415.325 48.3504 413.988 45.8037 411.523C43.257 409.058 42.1804 405.487 41.1998 402.079C38.9607 394.295 36.7034 386.129 38.3686 378.202C38.8664 375.831 39.7528 373.469 41.4164 371.71C43.0817 369.952 45.6416 368.906 47.9816 369.525C50.7515 370.256 52.4731 372.971 53.7166 375.553C57.3746 383.142 59.3111 391.554 59.3392 399.979C59.3524 403.913 58.8894 408.039 56.6701 411.287Z" fill="black"/>
</g>
<path d="M46.0815 431.737C41.4594 429.352 36.0171 429.041 30.8857 429.889C28.129 430.346 25.2548 431.17 23.3795 433.243C21.5043 435.314 21.1487 438.96 23.3018 440.74C24.5834 441.799 26.3727 441.961 28.0347 441.941C32.0532 441.895 36.5099 441.187 39.7181 443.605C41.5488 444.985 42.7675 447.278 44.957 447.956C47.0986 448.619 49.5163 447.356 50.6507 445.422C51.7868 443.488 51.8248 441.071 51.294 438.892C51.294 438.892 50.7367 434.141 46.0815 431.737Z" fill="#68A5FF"/>
<path d="M64.4327 417.082C61.3635 413.439 60.7814 408.124 62.1473 403.559C63.5133 398.995 66.5975 395.112 70.1529 391.943C74.3219 388.226 79.2218 385.334 84.4888 383.481C86.5626 382.751 88.7488 382.177 90.9366 382.386C93.1244 382.594 95.3272 383.714 96.3475 385.661C97.8557 388.54 96.4104 392.032 94.8443 394.879C92.0876 399.898 88.9356 404.699 85.4281 409.224C82.6053 412.863 79.3723 416.455 75.071 418.099C70.7697 419.743 66.3014 419.55 64.021 416.567" fill="#68A5FF"/>
<path d="M56.8619 472.205C56.8089 472.208 56.7229 471.555 56.6055 470.37C56.4749 469.035 56.3129 467.358 56.1177 465.363C55.8845 463.255 55.577 460.747 54.9916 458.018C54.4078 455.295 53.4949 452.342 52.3225 449.347C51.1086 446.371 49.6269 443.667 47.8972 441.503C46.179 439.329 44.1813 437.757 42.3027 436.849C40.4307 435.924 38.7522 435.549 37.5913 435.382C36.4205 435.263 35.7656 435.17 35.7656 435.117C35.7656 435.064 36.4221 435.056 37.6244 435.089C38.815 435.168 40.5647 435.469 42.5375 436.368C44.517 437.246 46.6371 438.843 48.4396 441.061C50.2553 443.27 51.7916 446.034 53.0269 449.063C54.2192 452.11 55.1189 455.091 55.6762 457.874C56.2318 460.651 56.4865 463.187 56.6519 465.312C56.8106 467.439 56.8718 469.16 56.8999 470.351C56.928 471.542 56.9131 472.202 56.8619 472.205Z" fill="#263238"/>
<path d="M56.5166 468.352C56.4901 468.35 56.4753 468.058 56.467 467.5C56.4686 466.86 56.4703 466.054 56.4736 465.065C56.4802 462.952 56.4786 459.894 56.3661 456.118C56.1792 448.566 55.5293 438.141 54.2742 426.683C53.0091 415.22 51.3339 404.911 49.8059 397.513C49.4454 395.658 49.0816 393.989 48.7392 392.528C48.4118 391.064 48.134 389.802 47.8645 388.78C47.6329 387.818 47.4444 387.034 47.2956 386.412C47.1732 385.868 47.1219 385.58 47.1467 385.572C47.1715 385.565 47.2724 385.84 47.4427 386.371C47.628 386.985 47.8628 387.756 48.1489 388.704C48.4614 389.716 48.7839 390.97 49.1493 392.427C49.5313 393.883 49.9332 395.547 50.3284 397.399C51.9954 404.787 53.7582 415.111 55.0266 426.597C56.2851 438.08 56.8506 448.535 56.9019 456.107C56.9466 459.892 56.8655 462.957 56.7696 465.072C56.7101 466.061 56.6605 466.866 56.6208 467.505C56.5778 468.061 56.5431 468.352 56.5166 468.352Z" fill="#263238"/>
<path d="M56.467 448.186C56.414 448.184 56.4239 447.281 56.4851 445.642C56.5794 444.007 56.8027 441.645 57.264 438.751C57.7519 435.865 58.4332 432.435 59.5048 428.711C60.5235 424.973 61.9225 420.936 63.7019 416.832C67.1829 408.57 71.9125 401.817 76.0269 397.634C76.991 396.523 78.0659 395.723 78.9259 394.937C79.3707 394.562 79.7643 394.186 80.1645 393.888C80.568 393.61 80.9417 393.352 81.289 393.112C82.6434 392.186 83.4008 391.698 83.4289 391.741C83.5512 391.906 80.396 393.762 76.4122 398.002C72.445 402.233 67.8477 408.941 64.3948 417.131C62.632 421.201 61.223 425.199 60.1746 428.902C59.0749 432.591 58.3423 435.984 57.7916 438.842C57.2673 441.708 56.9631 444.045 56.7795 445.665C56.6274 447.289 56.5199 448.188 56.467 448.186Z" fill="#263238"/>
<path d="M131.931 106.551L63.7823 122.201C59.0725 123.282 54.3793 120.339 53.2978 115.628L31.6443 21.266C30.5627 16.5545 33.5047 11.8596 38.2144 10.7777L81.4355 0.851807L122.808 27.6649L138.503 96.0624C139.583 100.774 136.641 105.469 131.931 106.551Z" fill="#FFB800"/>
<path d="M81.4341 0.853516L87.528 27.4102C88.5334 31.7908 92.8992 34.5287 97.2782 33.5229L122.806 27.665L81.4341 0.853516Z" fill="#FFB800"/>
<g opacity="0.2">
<path d="M88.4106 29.6599C88.4106 29.6599 89.5534 36.1779 97.3687 36.613C97.6614 36.6295 97.9575 36.6245 98.2518 36.6097C101.721 36.4409 124.559 35.3061 124.443 34.8015C124.317 34.2556 122.806 27.6648 122.806 27.6648L97.2794 33.526C97.2794 33.526 90.8565 34.7734 88.4106 29.6599Z" fill="black"/>
</g>
<g opacity="0.3">
<path d="M81.4341 0.853516L87.528 27.4102C88.5334 31.7908 92.8992 34.5287 97.2782 33.5229L122.806 27.665L81.4341 0.853516Z" fill="white"/>
</g>
<path d="M81.5643 27.6385C81.642 27.9793 74.6468 29.8768 65.9418 31.8769C57.2334 33.8769 50.1125 35.2202 50.0348 34.8795C49.9571 34.5387 56.9506 32.6412 65.659 30.6411C74.3641 28.641 81.4865 27.2977 81.5643 27.6385Z" fill="#FAFAFA"/>
<path d="M105.373 37.9779C105.451 38.3187 93.8978 41.2634 79.5701 44.5538C65.2375 47.8459 53.5591 50.2364 53.4813 49.8939C53.4036 49.5531 64.9547 46.6084 79.2857 43.318C93.6133 40.0276 105.295 37.6371 105.373 37.9779Z" fill="#FAFAFA"/>
<path d="M112.924 49.444C113.001 49.7848 100.402 52.9693 84.7842 56.5559C69.1617 60.1441 56.4365 62.7744 56.3588 62.4337C56.281 62.0929 68.8773 58.9083 84.4998 55.3218C100.119 51.7336 112.846 49.1032 112.924 49.444Z" fill="#FAFAFA"/>
<path d="M115.637 61.2739C115.715 61.6147 103.116 64.8008 87.4981 68.3857C71.8756 71.9739 59.1503 74.6043 59.0726 74.2635C58.9949 73.9227 71.5911 70.7382 87.2153 67.15C102.833 63.5634 115.56 60.9314 115.637 61.2739Z" fill="#FAFAFA"/>
<path d="M118.353 73.1039C118.43 73.4447 105.831 76.6309 90.2134 80.2158C74.5909 83.804 61.8657 86.4344 61.788 86.0936C61.7102 85.7528 74.3065 82.5682 89.9306 78.98C105.548 75.3935 118.275 72.7615 118.353 73.1039Z" fill="#FAFAFA"/>
<path d="M121.068 84.9338C121.146 85.2746 108.546 88.4591 92.9287 92.0457C77.3062 95.6339 64.581 98.2642 64.5033 97.9234C64.4256 97.5826 77.0218 94.3981 92.6443 90.8099C108.262 87.2233 120.989 84.5913 121.068 84.9338Z" fill="#FAFAFA"/>
<path d="M236.792 186.166C233.383 175.233 234.804 156.878 242.335 147.838C249.864 138.797 262.905 133.556 274.58 132.125C276.532 131.885 278.617 131.794 280.352 132.717C282.086 133.64 283.241 135.917 282.305 137.647C284.736 136.416 287.223 135.169 289.922 134.798C292.62 134.429 295.617 135.094 297.391 137.162C299.166 139.23 299.151 142.832 296.93 144.411C300.231 143.533 303.996 144.785 306.113 147.467C308.23 150.147 308.577 154.102 306.96 157.112C305.412 159.993 302.391 163.094 299.791 165.079C297.191 167.064 296.591 169.314 296.695 172.583" fill="#263238"/>
<path d="M241.28 167.081L232.439 231.354C230.936 242.284 238.882 252.248 249.867 253.211C260.12 254.109 269.274 246.787 270.666 236.587C271.326 231.748 271.886 227.714 271.987 227.221C271.987 227.221 288.554 227.934 291.964 211.902C293.611 204.155 295.705 187.922 297.429 173.213C299.282 157.418 288.676 142.852 273.087 139.736L271.537 139.427C254.628 137.06 243.175 150.106 241.28 167.081Z" fill="#FFBE9D"/>
<path d="M272.063 226.993C272.063 226.993 261.746 225.79 252.308 216.852C252.308 216.852 254.949 229.408 271.268 231.165L272.063 226.993Z" fill="#EB996E"/>
<path d="M290.6 183.04C290.401 184.261 289.204 185.098 287.926 184.912C286.651 184.727 285.774 183.591 285.974 182.37C286.174 181.149 287.372 180.31 288.647 180.494C289.925 180.681 290.8 181.82 290.6 183.04Z" fill="#263238"/>
<path d="M292.404 180.409C292.06 180.651 290.578 179.018 288.108 178.53C285.647 178.009 283.581 178.917 283.375 178.56C283.27 178.399 283.667 177.918 284.57 177.501C285.462 177.084 286.897 176.793 288.433 177.107C289.97 177.423 291.15 178.247 291.777 178.977C292.422 179.71 292.571 180.302 292.404 180.409Z" fill="#263238"/>
<path d="M266.219 179.039C266.021 180.26 264.822 181.097 263.545 180.912C262.27 180.729 261.394 179.592 261.594 178.371C261.794 177.15 262.991 176.312 264.266 176.497C265.545 176.679 266.419 177.819 266.219 179.039Z" fill="#263238"/>
<path d="M268.045 176.019C267.701 176.26 266.218 174.628 263.749 174.141C261.288 173.62 259.223 174.528 259.016 174.171C258.912 174.01 259.307 173.529 260.213 173.112C261.104 172.695 262.54 172.404 264.076 172.717C265.612 173.033 266.793 173.858 267.422 174.586C268.06 175.319 268.21 175.913 268.045 176.019Z" fill="#263238"/>
<path d="M273.347 196.125C273.363 195.983 274.951 196.024 277.501 196.203C278.144 196.264 278.766 196.258 278.958 195.849C279.198 195.424 279.069 194.691 278.91 193.895C278.622 192.251 278.321 190.527 278.004 188.721C276.78 181.365 276.029 175.37 276.325 175.322C276.621 175.276 277.855 181.198 279.077 188.554C279.363 190.363 279.639 192.09 279.899 193.741C279.993 194.506 280.243 195.401 279.732 196.282C279.467 196.719 278.936 196.969 278.511 196.997C278.083 197.04 277.726 196.976 277.412 196.933C274.881 196.567 273.327 196.268 273.347 196.125Z" fill="#263238"/>
<path d="M265.74 196.382C266.146 196.438 265.616 199.12 267.529 201.482C269.437 203.849 272.354 204.119 272.3 204.498C272.303 204.673 271.559 204.892 270.347 204.683C269.156 204.488 267.504 203.762 266.333 202.318C265.167 200.872 264.876 199.194 265.005 198.076C265.128 196.934 265.559 196.329 265.74 196.382Z" fill="#263238"/>
<path d="M270.615 166.468C270.238 167.09 267.835 166.28 264.87 166.05C261.908 165.76 259.403 166.142 259.14 165.463C259.026 165.14 259.56 164.589 260.633 164.127C261.698 163.666 263.315 163.347 265.093 163.501C266.869 163.658 268.407 164.253 269.376 164.892C270.353 165.535 270.783 166.169 270.615 166.468Z" fill="#263238"/>
<path d="M292.923 173.079C292.377 173.554 290.793 172.631 288.752 172.194C286.728 171.686 284.901 171.817 284.62 171.15C284.502 170.831 284.886 170.323 285.749 169.943C286.601 169.562 287.934 169.38 289.331 169.703C290.727 170.029 291.843 170.78 292.44 171.498C293.049 172.219 293.169 172.844 292.923 173.079Z" fill="#263238"/>
<path d="M240.215 179.243C239.965 179.069 229.828 173.77 227.986 184.828C226.142 195.885 237.62 195.455 237.691 195.142C237.764 194.828 240.215 179.243 240.215 179.243Z" fill="#FFBE9D"/>
<path d="M235.014 190.39C234.971 190.347 234.799 190.492 234.448 190.588C234.108 190.681 233.544 190.689 233.005 190.378C231.908 189.754 231.235 187.736 231.513 185.734C231.652 184.724 232.024 183.801 232.512 183.066C232.985 182.313 233.602 181.835 234.207 181.829C234.814 181.791 235.173 182.212 235.255 182.547C235.351 182.881 235.246 183.089 235.3 183.117C235.327 183.15 235.568 182.972 235.555 182.5C235.547 182.274 235.461 181.991 235.236 181.734C235.006 181.475 234.635 181.299 234.219 181.276C233.357 181.193 232.459 181.849 231.922 182.654C231.336 183.457 230.896 184.489 230.741 185.625C230.44 187.865 231.232 190.14 232.753 190.869C233.498 191.202 234.186 191.076 234.563 190.871C234.95 190.653 235.049 190.416 235.014 190.39Z" fill="#EB996E"/>
<path d="M307.977 153.527C306.865 168.078 288.217 171.102 281.814 161.788C278.853 157.482 276.504 152.324 271.908 149.838C268.814 148.163 265.009 148.144 261.657 149.209C261.624 149.219 261.589 149.23 261.556 149.242C256.608 150.847 253.034 155.669 251.476 160.635C249.305 167.559 249.391 173.999 246.462 180.197C246.042 181.088 245.561 182.042 244.678 182.477C243.18 183.217 241.391 182.047 240.494 180.636C239.06 178.376 238.892 175.552 238.945 172.875C239.065 166.778 240.135 160.648 242.611 155.075C245.087 149.502 249.019 144.501 254.167 141.233C260.598 137.149 268.703 135.983 276.15 137.592C283.596 139.2 290.358 143.47 295.422 149.164C297.77 151.806 299.814 154.842 300.614 158.284" fill="#263238"/>
<path d="M297.595 143.682C297.598 143.651 298.167 143.642 299.113 144.003C300.052 144.355 301.337 145.182 302.424 146.65C303.494 148.104 304.349 150.231 304.233 152.678C304.119 155.123 302.872 157.666 300.899 159.608C298.916 161.555 296.46 162.758 294.137 163.271C291.812 163.807 289.65 163.779 287.884 163.598C286.113 163.401 284.716 163.061 283.768 162.778C282.821 162.495 282.318 162.275 282.333 162.224C282.369 162.068 284.466 162.741 287.936 162.991C289.664 163.09 291.747 163.051 293.952 162.498C296.15 161.97 298.437 160.816 300.295 158.994C302.138 157.18 303.298 154.844 303.442 152.627C303.591 150.404 302.865 148.399 301.926 146.997C300.972 145.585 299.829 144.736 298.976 144.307C298.117 143.872 297.577 143.765 297.595 143.682Z" fill="#455A64"/>
<path d="M291.048 137.377C291.051 137.334 291.474 137.321 292.07 137.74C292.645 138.152 293.318 139.073 293.398 140.388C293.477 141.71 292.829 143.186 291.847 144.479C290.861 145.775 289.622 147.085 288.111 148.202C285.101 150.473 281.777 151.556 279.368 151.887C276.942 152.256 275.429 151.977 275.439 151.897C275.439 151.742 276.938 151.798 279.26 151.288C281.572 150.815 284.714 149.685 287.595 147.513C289.042 146.446 290.242 145.206 291.216 143.998C292.182 142.797 292.784 141.518 292.791 140.403C292.797 139.285 292.3 138.43 291.855 137.996C291.397 137.554 291.025 137.447 291.048 137.377Z" fill="#455A64"/>
<path d="M365.648 339.979C355.552 351.248 337.905 351.232 327.829 339.946L298.594 307.201L298.246 353.859L308.561 383.785L206.051 401.573L201.703 320.66L194.325 258.519C193.42 250.905 197.763 243.639 204.893 240.83L233.104 229.716L272.836 237.007L288.819 243.085C295.529 245.635 301.511 249.798 306.237 255.204L351.066 306.488" fill="#68A5FF"/>
<path d="M299.188 351.874C299.428 351.872 299.489 335.708 299.327 315.775C299.163 295.836 298.837 279.678 298.597 279.68C298.357 279.681 298.296 295.842 298.458 315.782C298.622 335.715 298.95 351.876 299.188 351.874Z" fill="#263238"/>
<path d="M295.434 363.733L233.494 338.79C228.498 336.778 225.077 332.105 224.667 326.733L220.134 267.327C220.134 267.327 220.67 242.06 204.895 240.831L195.921 244.367C184.322 250.529 181.449 267.423 183.027 280.465C185.269 298.999 186.205 325.226 188.715 341.311C190.769 354.468 198.304 366.043 211.176 369.433L287.466 385.954L295.434 363.733Z" fill="#68A5FF"/>
<path d="M221.022 276.389C221.05 276.388 221.116 276.856 221.217 277.751C221.316 278.718 221.449 280.024 221.616 281.665C221.932 285.147 222.378 290.049 222.925 296.072C223.45 302.182 224.071 309.419 224.761 317.446C224.93 319.458 225.103 321.519 225.28 323.625C225.464 325.731 225.593 327.888 226.071 329.981C226.526 332.082 227.533 334.049 229.15 335.547C230.756 337.051 232.767 338.151 234.865 339.104C251.945 346.497 267.686 352.602 279.112 356.883C284.784 358.974 289.399 360.675 292.677 361.882C294.225 362.453 295.453 362.906 296.366 363.244C297.206 363.561 297.645 363.742 297.635 363.77C297.625 363.796 297.17 363.669 296.312 363.401C295.387 363.1 294.14 362.696 292.571 362.187C289.33 361.111 284.656 359.502 278.91 357.434C267.417 353.288 251.652 347.275 234.521 339.858C232.391 338.889 230.299 337.754 228.583 336.146C226.851 334.548 225.74 332.358 225.28 330.164C224.786 327.966 224.668 325.794 224.491 323.693C224.324 321.587 224.161 319.524 224 317.51C223.377 309.475 222.815 302.231 222.34 296.117C221.902 290.084 221.546 285.175 221.293 281.688C221.192 280.042 221.11 278.733 221.05 277.762C221.004 276.864 220.994 276.391 221.022 276.389Z" fill="#263238"/>
<path d="M185.535 308.685C185.565 308.683 185.603 308.958 185.658 309.482C185.714 310.101 185.78 310.858 185.863 311.775C186.046 313.892 186.294 316.741 186.597 320.205C186.936 323.76 187.368 327.992 187.984 332.669C188.621 337.337 189.374 342.489 190.781 347.718C191.447 350.358 192.383 352.798 193.804 354.893C195.224 357.004 196.8 358.901 198.431 360.58C201.707 363.93 205.203 366.389 208.343 368.02C214.68 371.315 219.287 371.363 219.221 371.583C219.22 371.611 218.942 371.605 218.416 371.565C217.888 371.529 217.109 371.467 216.124 371.271C214.149 370.921 211.31 370.147 208.075 368.544C204.847 366.953 201.252 364.503 197.887 361.12C196.212 359.424 194.591 357.502 193.131 355.351C191.649 353.194 190.644 350.585 189.982 347.943C188.553 342.634 187.826 337.466 187.227 332.771C186.65 328.071 186.278 323.826 186.013 320.258C185.752 316.69 185.615 313.798 185.54 311.798C185.52 310.877 185.504 310.116 185.491 309.494C185.491 308.964 185.507 308.686 185.535 308.685Z" fill="#263238"/>
<path d="M212.021 350.254C211.937 350.231 212.2 348.906 213.149 346.952C214.087 345.003 215.823 342.484 218.35 340.315C220.885 338.156 223.645 336.836 225.717 336.214C227.794 335.582 229.144 335.531 229.153 335.617C229.178 335.756 227.878 336.014 225.909 336.768C223.941 337.514 221.333 338.866 218.887 340.945C216.451 343.035 214.71 345.4 213.665 347.228C212.613 349.056 212.155 350.302 212.021 350.254Z" fill="#263238"/>
<g opacity="0.3">
<path d="M277.633 356.653C271.01 352.911 264.529 350.036 257.605 346.886C250.679 343.738 243.896 339.696 239.365 333.585C230.817 322.06 231.791 305.426 223.041 294.052C223.612 301.7 224.184 309.348 224.754 316.996C225.278 324.005 224.204 330.937 228.718 335.7C232.52 339.713 239.934 342.79 245.182 344.522C255.728 348.003 267.086 353.172 277.633 356.653Z" fill="black"/>
</g>
<path d="M230.676 232.537L233.704 221.177L272.193 230.229C274.351 230.737 275.641 232.954 275.014 235.083L272.062 245.114L258.171 262.946L242.409 260.131L230.675 251.121L230.676 232.537Z" fill="#68A5FF"/>
<path d="M272.914 237.693C272.922 237.753 272.439 237.862 271.556 238.007C270.674 238.166 269.383 238.299 267.782 238.375C264.584 238.537 260.112 238.3 255.336 237.162C250.562 236.009 246.469 234.191 243.693 232.595C242.3 231.799 241.21 231.096 240.496 230.555C239.775 230.022 239.395 229.706 239.429 229.658C239.51 229.537 241.159 230.623 243.98 232.059C246.797 233.498 250.847 235.192 255.536 236.325C260.228 237.443 264.605 237.771 267.769 237.766C270.934 237.768 272.895 237.548 272.914 237.693Z" fill="#263238"/>
<path d="M244.257 232.571C244.179 232.634 243.717 232.26 243.324 231.403C242.927 230.558 242.705 229.213 243.031 227.805C243.362 226.399 244.157 225.291 244.887 224.708C245.619 224.114 246.198 223.984 246.239 224.075C246.304 224.194 245.856 224.512 245.312 225.145C244.763 225.772 244.162 226.771 243.87 228.001C243.587 229.233 243.683 230.394 243.898 231.2C244.106 232.009 244.367 232.492 244.257 232.571Z" fill="#F5F5F5"/>
<path d="M260.803 238.204C260.561 238.11 261.608 235.713 261.241 232.644C260.935 229.569 259.391 227.456 259.608 227.311C259.691 227.245 260.2 227.681 260.77 228.593C261.34 229.498 261.914 230.907 262.098 232.55C262.275 234.193 262.02 235.693 261.66 236.701C261.301 237.715 260.897 238.251 260.803 238.204Z" fill="#F5F5F5"/>
<path d="M262.143 350.148C262.113 350.143 262.133 349.743 262.198 348.985C262.241 348.226 262.418 347.119 262.472 345.678C262.699 342.807 262.767 338.629 262.449 333.491C262.146 328.349 261.311 322.265 260.159 315.547C258.999 308.827 257.488 301.474 256.266 293.675C253.822 278.067 253.276 263.732 253.491 253.403C253.589 248.233 253.83 244.056 254.062 241.175C254.166 239.735 254.291 238.618 254.367 237.862C254.45 237.106 254.508 236.711 254.538 236.712C254.568 236.714 254.568 237.114 254.541 237.875C254.505 238.721 254.457 239.824 254.397 241.195C254.268 244.079 254.121 248.251 254.101 253.407C254.042 263.716 254.683 277.991 257.118 293.541C258.336 301.31 259.823 308.67 260.943 315.411C262.056 322.154 262.833 328.278 263.059 333.453C263.301 338.626 263.139 342.826 262.808 345.703C262.702 347.146 262.471 348.252 262.371 349.005C262.249 349.76 262.173 350.152 262.143 350.148Z" fill="#F5F5F5"/>
<path d="M281.083 239.94C281.098 239.936 281.136 240.035 281.199 240.234C281.265 240.433 281.346 240.73 281.437 241.126C281.619 241.916 281.814 243.104 281.897 244.648C282.082 247.741 281.66 252.178 281.416 257.656C281.143 263.133 280.867 269.663 281.072 276.902C281.27 284.138 282.062 292.077 284.043 300.198C285.963 308.326 288.194 316.049 289.019 323.314C289.924 330.553 289.906 337.135 289.659 342.626C289.386 348.122 288.887 352.545 288.488 355.591C288.287 357.115 288.116 358.294 287.981 359.091C287.85 359.889 287.767 360.307 287.738 360.302C287.708 360.299 287.733 359.874 287.809 359.068C287.896 358.182 288.012 357.012 288.156 355.551C288.45 352.497 288.856 348.075 289.051 342.6C289.219 337.129 289.173 330.586 288.232 323.413C287.372 316.225 285.135 308.56 283.205 300.391C281.21 292.221 280.433 284.187 280.279 276.922C280.116 269.644 280.458 263.1 280.809 257.619C281.133 252.135 281.645 247.712 281.563 244.659C281.533 243.132 281.392 241.953 281.268 241.157C281.146 240.363 281.047 239.949 281.083 239.94Z" fill="#F5F5F5"/>
<path d="M316.366 306.125C316.292 306.208 315.114 305.326 313.355 303.728C311.595 302.132 309.275 299.798 306.935 297.023C304.597 294.246 302.688 291.564 301.413 289.559C300.137 287.554 299.465 286.244 299.56 286.186C299.781 286.047 302.943 290.975 307.593 296.468C312.219 301.98 316.541 305.932 316.366 306.125Z" fill="#F5F5F5"/>
<path d="M337.553 301.093C337.509 301.133 336.869 300.491 335.751 299.298C334.63 298.107 333.044 296.348 331.116 294.148C327.257 289.749 322.073 283.542 316.619 276.472C311.169 269.395 306.485 262.799 303.214 257.949C301.577 255.523 300.281 253.543 299.414 252.154C298.544 250.767 298.088 249.986 298.137 249.953C298.187 249.92 298.738 250.64 299.692 251.967C300.732 253.424 302.085 255.318 303.714 257.599C307.109 262.356 311.86 268.88 317.3 275.944C322.743 283.001 327.843 289.258 331.577 293.751C333.368 295.907 334.856 297.698 336.001 299.075C337.042 300.337 337.598 301.053 337.553 301.093Z" fill="#F5F5F5"/>
<path d="M232.758 339.147C232.735 339.162 232.507 338.849 232.115 338.226C231.743 337.59 231.222 336.628 230.731 335.311C229.727 332.692 228.948 328.608 229.266 323.588C229.504 318.563 230.949 312.753 231.759 306.256C232.552 299.745 232.494 292.502 231.993 284.934C231.503 277.357 230.756 270.144 230.484 263.543C230.185 256.948 230.37 250.974 230.992 246.009C231.591 241.038 232.624 237.101 233.509 234.452C233.952 233.126 234.338 232.113 234.64 231.442C234.926 230.765 235.09 230.414 235.116 230.426C235.206 230.461 234.602 231.883 233.83 234.552C233.049 237.215 232.117 241.139 231.599 246.077C231.058 251.012 230.938 256.939 231.278 263.505C231.591 270.073 232.363 277.276 232.854 284.877C233.357 292.471 233.393 299.778 232.55 306.352C231.683 312.921 230.185 318.675 229.876 323.628C229.486 328.57 230.159 332.586 231.048 335.198C231.935 337.824 232.839 339.103 232.758 339.147Z" fill="#F5F5F5"/>
<path d="M214.581 344.798C214.581 344.798 212.936 344.319 210.521 342.449C208.157 340.565 205.233 337.038 203.46 331.863C202.599 329.287 201.95 326.344 201.806 323.145C201.628 319.954 201.848 316.536 202.317 312.992C203.258 305.895 205.154 298.287 205.769 290.11C206.483 281.944 206.296 274.113 205.567 267.047C205.215 263.509 204.858 260.122 204.856 256.928C204.846 253.738 205.183 250.741 206.004 248.127C207.642 242.878 210.898 239.458 213.53 237.959C214.846 237.177 216.003 236.861 216.767 236.648C217.556 236.507 217.968 236.452 217.973 236.481C218.013 236.596 216.258 236.676 213.705 238.246C211.196 239.792 208.109 243.179 206.587 248.304C205.828 250.847 205.531 253.786 205.57 256.923C205.603 260.068 205.982 263.423 206.357 266.966C207.133 274.063 207.348 281.961 206.629 290.183C206.005 298.426 204.077 306.082 203.105 313.097C202.618 316.607 202.377 319.972 202.521 323.11C202.63 326.245 203.23 329.13 204.037 331.668C205.703 336.762 208.479 340.26 210.735 342.191C213.038 344.105 214.636 344.701 214.581 344.798Z" fill="#F5F5F5"/>
<path d="M285.526 369.773C285.5 369.828 284.528 369.431 282.791 368.671C280.924 367.859 278.44 366.779 275.432 365.469C269.209 362.79 260.544 359.249 250.819 355.755C241.087 352.269 232.143 349.498 225.638 347.61C222.482 346.709 219.878 345.966 217.921 345.407C216.097 344.891 215.095 344.578 215.109 344.52C215.123 344.462 216.152 344.666 218.004 345.083C219.856 345.493 222.522 346.153 225.801 347.025C232.36 348.765 241.354 351.45 251.11 354.944C260.86 358.445 269.509 362.087 275.679 364.911C278.764 366.322 281.243 367.507 282.935 368.367C284.627 369.222 285.551 369.72 285.526 369.773Z" fill="#F5F5F5"/>
<path d="M205.565 366.4C205.557 366.413 205.463 366.37 205.284 366.274C205.109 366.174 204.834 366.04 204.508 365.815C203.85 365.373 202.921 364.653 201.836 363.606C199.734 361.479 196.771 358.148 194.674 353.114C194.151 351.872 193.857 350.388 193.743 348.952C193.581 347.498 193.414 345.986 193.238 344.423C192.896 341.288 192.529 337.946 192.145 334.432C191.342 327.401 190.335 319.696 188.565 311.727C186.88 303.69 186.243 295.867 186.088 288.777C185.918 281.678 186.209 275.292 186.536 269.944C186.873 264.594 187.254 260.276 187.536 257.293C187.682 255.871 187.799 254.731 187.889 253.862C187.98 253.078 188.041 252.668 188.071 252.671C188.1 252.673 188.095 253.088 188.062 253.877C188.014 254.749 187.952 255.894 187.872 257.321C187.692 260.311 187.404 264.635 187.145 269.98C186.895 275.324 186.668 281.696 186.882 288.758C187.08 295.816 187.737 303.584 189.408 311.553C191.185 319.545 192.175 327.309 192.936 334.346C193.293 337.865 193.632 341.213 193.951 344.351C194.108 345.916 194.259 347.428 194.406 348.884C194.51 350.363 194.755 351.66 195.246 352.904C197.209 357.824 200.077 361.212 202.077 363.374C203.113 364.445 203.994 365.196 204.613 365.677C205.238 366.139 205.583 366.369 205.565 366.4Z" fill="#F5F5F5"/>
<path d="M385.261 443.966C385.261 443.966 437.086 458.316 439.167 459.047C442.289 460.147 441.765 471.59 436.906 471.411C434.607 471.327 397.098 472.809 392.359 472.513C387.619 472.217 373.321 466.58 373.321 466.58L385.261 443.966Z" fill="#FFB800"/>
<path d="M406.85 463.748C407.112 463.785 407.46 461.042 409.134 458.182C410.766 455.297 412.961 453.617 412.799 453.409C412.708 453.209 410.134 454.67 408.383 457.748C406.602 460.809 406.632 463.77 406.85 463.748Z" fill="#263238"/>
<path d="M401.446 461.297C401.701 461.341 402.225 458.89 403.604 456.182C404.957 453.459 406.612 451.578 406.427 451.401C406.285 451.23 404.259 452.926 402.83 455.791C401.381 458.647 401.224 461.284 401.446 461.297Z" fill="#263238"/>
<path d="M396.377 459.939C396.638 459.922 396.44 457.333 397.589 454.461C398.691 451.569 400.592 449.803 400.412 449.612C400.308 449.416 397.984 451.019 396.782 454.145C395.547 457.259 396.167 460.013 396.377 459.939Z" fill="#263238"/>
<path d="M397.298 453.242C397.391 453.265 397.851 451.818 397.854 449.384C397.851 448.173 397.712 446.722 397.33 445.156C397.14 444.373 396.883 443.564 396.559 442.749C396.392 442.337 396.2 441.864 395.729 441.478C395.246 441.045 394.366 441.134 393.95 441.566C393.475 441.979 393.325 442.563 393.258 443.031C393.206 443.508 393.179 443.951 393.191 444.401C393.204 445.293 393.318 446.15 393.51 446.939C393.893 448.522 394.51 449.849 395.106 450.903C396.313 453.007 397.36 454.082 397.434 454.024C397.553 453.942 396.685 452.734 395.65 450.62C395.14 449.563 394.61 448.264 394.29 446.765C394.13 446.017 394.041 445.22 394.041 444.396C394.064 443.601 394.052 442.603 394.519 442.221C394.765 442.016 394.988 442.002 395.203 442.163C395.431 442.338 395.623 442.692 395.772 443.07C396.093 443.844 396.354 444.611 396.558 445.357C396.966 446.848 397.163 448.234 397.244 449.406C397.393 451.755 397.156 453.222 397.298 453.242Z" fill="#263238"/>
<path d="M397.232 452.714C397.255 452.62 396.005 452.19 393.89 452.175C392.836 452.173 391.573 452.284 390.212 452.626C389.541 452.808 388.82 452.982 388.094 453.407C387.384 453.768 386.642 454.754 386.923 455.776C387.144 456.741 387.971 457.416 388.79 457.627C389.615 457.857 390.414 457.776 391.115 457.621C392.537 457.293 393.643 456.593 394.482 455.965C396.142 454.661 396.954 453.664 396.891 453.591C396.8 453.48 395.818 454.334 394.131 455.462C393.281 456.005 392.218 456.592 390.953 456.838C390.323 456.959 389.645 456.997 389.031 456.812C388.421 456.645 387.915 456.178 387.769 455.579C387.621 455 387.973 454.469 388.54 454.132C389.096 453.788 389.782 453.589 390.42 453.399C391.702 453.033 392.901 452.865 393.913 452.789C395.939 452.646 397.21 452.855 397.232 452.714Z" fill="#263238"/>
<path d="M414.813 464.303C415.069 464.273 414.814 462.058 415.835 459.626C416.806 457.174 418.535 455.768 418.372 455.568C418.286 455.356 416.119 456.585 415.031 459.298C413.913 462 414.604 464.395 414.813 464.303Z" fill="#263238"/>
<path d="M378.651 466.696C378.628 466.751 379.341 467.083 380.655 467.639C381.986 468.142 383.936 468.847 386.423 469.428C391.379 470.677 398.446 471.386 406.21 471.304C413.977 471.218 420.976 470.864 426.051 470.662C428.454 470.534 430.466 470.429 432.057 470.344C433.474 470.25 434.258 470.169 434.255 470.109C434.253 470.05 433.466 470.015 432.046 470.007C430.453 470.018 428.437 470.033 426.031 470.05C420.782 470.152 413.86 470.288 406.205 470.437C398.477 470.518 391.495 469.912 386.559 468.83C381.603 467.811 378.71 466.536 378.651 466.696Z" fill="#263238"/>
<path d="M377.118 467.877C377.188 467.997 378.607 467.168 381.001 466.117C383.368 465.102 386.915 463.884 390.808 464.486C394.714 465.085 397.482 467.709 399.284 469.53C401.102 471.418 402.165 472.67 402.271 472.582C402.349 472.518 401.466 471.14 399.734 469.115C398.859 468.114 397.75 466.953 396.298 465.901C394.862 464.845 393.014 463.947 390.943 463.631C386.766 462.991 383.085 464.387 380.741 465.561C378.365 466.779 377.065 467.793 377.118 467.877Z" fill="#263238"/>
<path d="M330.249 429.651C330.249 429.651 281.207 461.773 279.449 463.102C276.808 465.098 279.838 474.604 284.412 472.958C286.576 472.179 327.727 460.728 332.154 459.006C336.579 457.283 348.491 447.569 348.491 447.569L330.249 429.651Z" fill="#FFB800"/>
<path d="M315.685 455.058C315.9 455.014 315.03 452.183 312.404 449.808C309.801 447.407 306.905 446.797 306.879 447.015C306.788 447.262 309.387 448.196 311.818 450.448C314.282 452.666 315.448 455.172 315.685 455.058Z" fill="#263238"/>
<path d="M320.09 451.081C320.297 451 319.348 448.535 317.1 446.256C314.868 443.96 312.425 442.959 312.339 443.165C312.215 443.39 314.363 444.681 316.48 446.863C318.617 449.025 319.862 451.2 320.09 451.081Z" fill="#263238"/>
<path d="M324.507 448.247C324.73 448.254 324.486 445.442 322.364 442.851C320.269 440.237 317.568 439.417 317.529 439.635C317.413 439.87 319.763 440.977 321.689 443.397C323.656 445.784 324.252 448.312 324.507 448.247Z" fill="#263238"/>
<path d="M321.597 442.148C321.726 442.085 321.054 440.758 320.487 438.476C320.209 437.336 319.974 435.954 319.912 434.411C319.879 433.64 319.895 432.828 319.965 431.992C319.991 431.589 320.065 431.193 320.231 430.957C320.388 430.738 320.604 430.684 320.902 430.803C321.463 431.026 321.754 431.979 322.017 432.73C322.266 433.514 322.424 434.302 322.498 435.063C322.65 436.586 322.538 437.986 322.372 439.147C322.028 441.476 321.569 442.891 321.706 442.934C321.793 442.967 322.463 441.624 322.976 439.253C323.222 438.07 323.408 436.618 323.292 434.992C323.234 434.181 323.085 433.331 322.825 432.477C322.7 432.045 322.539 431.63 322.346 431.193C322.142 430.766 321.822 430.257 321.243 430.005C320.715 429.721 319.849 429.901 319.52 430.462C319.187 430.973 319.149 431.481 319.115 431.924C319.052 432.8 319.053 433.648 319.11 434.452C319.22 436.06 319.528 437.485 319.893 438.639C320.639 440.957 321.516 442.198 321.597 442.148Z" fill="#263238"/>
<path d="M321.499 441.625C321.562 441.751 322.711 441.167 324.686 440.686C325.672 440.449 326.866 440.246 328.199 440.206C328.863 440.194 329.579 440.174 330.213 440.333C330.856 440.482 331.352 440.881 331.385 441.478C331.428 442.092 331.086 442.691 330.557 443.035C330.029 443.397 329.371 443.567 328.733 443.644C327.451 443.794 326.26 443.558 325.286 443.298C323.335 442.737 322.141 442.223 322.088 442.355C322.052 442.443 323.127 443.147 325.104 443.883C326.095 444.228 327.362 444.558 328.815 444.438C329.53 444.371 330.315 444.208 331.033 443.738C331.749 443.288 332.331 442.393 332.25 441.407C332.207 440.347 331.2 439.633 330.416 439.506C329.596 439.321 328.857 439.375 328.16 439.405C326.761 439.493 325.523 439.771 324.521 440.093C322.508 440.752 321.448 441.543 321.499 441.625Z" fill="#263238"/>
<path d="M290.661 471.166C290.717 471.242 291.486 470.67 291.862 469.266C292.272 467.894 292.014 465.787 290.944 463.942C290.431 463.011 289.844 462.203 289.3 461.492C288.764 460.779 288.209 460.135 287.635 459.705C287.068 459.264 286.476 459.065 286.067 459.049C285.657 459.03 285.449 459.131 285.454 459.183C285.455 459.318 286.33 459.252 287.236 460.173C287.698 460.612 288.154 461.227 288.652 461.963C289.155 462.693 289.702 463.487 290.18 464.359C291.174 466.089 291.47 467.878 291.258 469.143C291.083 470.412 290.547 471.082 290.661 471.166Z" fill="#263238"/>
<path d="M308.266 458.006C308.493 458.029 308.425 455.538 306.54 453.305C304.68 451.05 302.242 450.537 302.224 450.765C302.13 451.005 304.205 451.821 305.874 453.861C307.583 455.869 308.013 458.058 308.266 458.006Z" fill="#263238"/>
<path d="M343.447 449.301C343.404 449.25 342.653 449.803 341.292 450.782C339.913 451.737 337.886 453.075 335.247 454.488C332.609 455.904 329.353 457.374 325.642 458.764C321.928 460.149 317.764 461.456 313.358 462.733C304.536 465.274 296.548 467.596 290.785 469.332C288.022 470.18 285.728 470.885 283.97 471.424C282.366 471.937 281.488 472.248 281.505 472.306C281.521 472.364 282.431 472.162 284.063 471.75C285.839 471.279 288.159 470.664 290.954 469.922C296.762 468.339 304.769 466.111 313.601 463.566C318.015 462.286 322.197 460.949 325.925 459.512C329.65 458.069 332.915 456.526 335.541 455.025C338.17 453.528 340.166 452.097 341.493 451.053C342.804 449.983 343.482 449.341 343.447 449.301Z" fill="#263238"/>
<path d="M345.266 449.961C345.291 449.864 343.745 449.293 341.111 448.856C338.521 448.449 334.59 448.237 330.805 450.115C328.929 451.047 327.44 452.463 326.393 453.905C325.328 455.348 324.623 456.792 324.094 458.011C323.06 460.468 322.636 462.048 322.731 462.086C322.859 462.139 323.492 460.622 324.65 458.271C325.814 455.988 327.656 452.646 331.195 450.889C334.722 449.132 338.471 449.215 341.035 449.463C343.634 449.736 345.237 450.097 345.266 449.961Z" fill="#263238"/>
<path d="M432.165 351.313C432.165 351.313 446.876 356.569 446.939 373.072C447.058 404.683 383.091 439.528 383.091 439.528L297.969 383.106L292.634 380.947C292.634 380.947 407.541 337.766 432.165 351.313Z" fill="#263238"/>
<path d="M341.089 411.603C341.125 411.651 341.912 411.113 343.306 410.099C344.702 409.088 346.692 407.586 349.129 405.702C354.003 401.933 360.634 396.592 367.766 390.469C374.899 384.34 381.181 378.589 385.641 374.339C387.872 372.215 389.656 370.475 390.867 369.247C392.079 368.023 392.731 367.327 392.689 367.282C392.648 367.239 391.919 367.853 390.635 369.001C389.245 370.257 387.422 371.903 385.224 373.888C380.662 378.019 374.325 383.688 367.201 389.809C360.077 395.925 353.518 401.333 348.747 405.221C346.453 407.093 344.552 408.647 343.1 409.833C341.77 410.926 341.051 411.555 341.089 411.603Z" fill="#455A64"/>
<path d="M408.135 363.128C408.166 362.917 404.369 362.544 399.932 363.873C395.484 365.168 392.497 367.542 392.64 367.702C392.782 367.927 395.884 365.951 400.179 364.705C404.459 363.419 408.138 363.395 408.135 363.128Z" fill="#455A64"/>
<path d="M400.802 358.147C400.726 357.942 397.997 359.143 395.755 361.944C393.488 364.726 392.891 367.648 393.106 367.679C393.354 367.765 394.283 365.113 396.43 362.49C398.542 359.839 400.938 358.37 400.802 358.147Z" fill="#455A64"/>
<path d="M436.845 458.238C436.889 458.139 435.829 457.934 434.65 458.903C433.491 459.829 432.507 461.684 432.189 463.846C431.869 466.025 432.353 468.025 432.965 469.295C433.567 470.589 434.23 471.196 434.305 471.135C434.422 471.054 433.956 470.336 433.534 469.067C433.101 467.813 432.753 465.965 433.048 463.969C433.339 461.982 434.152 460.266 435.06 459.36C435.965 458.412 436.863 458.375 436.845 458.238Z" fill="#263238"/>
<path d="M412.587 299.67L382.269 376.551L251.728 378.679L249.312 371.615L295.062 369.954L317.049 301.753L412.587 299.67Z" fill="#455A64"/>
<path d="M351.623 332.953C353.299 331.819 356.394 332.273 357.901 333.623C359.407 334.975 359.895 337.313 359.129 339.187C358.364 341.061 356.434 342.375 354.413 342.482C352.267 342.598 350.027 341.253 349.427 339.189C348.829 337.124 349.495 334.042 351.623 332.953Z" fill="#EBEBEB"/>
<path d="M391.151 443.366C391.151 443.366 270.884 364.45 265.96 362.807C261.035 361.164 249.133 353.364 237.233 356.65C225.332 359.934 214.662 370.609 209.327 386.209C206.279 395.121 204.839 410.329 204.164 421.732C203.357 435.369 207.576 448.962 216.493 459.308C220.549 464.015 225.553 468.111 231.488 469.959C232.74 470.349 234.04 470.685 235.375 470.974C258.113 475.906 281.481 465.695 294.258 446.242L297.064 441.969C297.064 441.969 375.739 470.883 376.971 470.473L391.151 443.366Z" fill="#263238"/>
<path d="M242.361 421.644C242.361 421.644 242.58 421.755 243.021 421.935C243.496 422.124 244.149 422.384 244.989 422.718C246.763 423.401 249.323 424.387 252.614 425.654C259.303 428.176 268.953 431.812 280.95 436.333C292.988 440.826 307.405 446.166 323.581 452.056C339.759 457.937 357.687 464.395 376.832 470.88L377.179 470.997L377.35 470.672C380.356 464.929 383.528 458.87 386.746 452.721C388.386 449.584 390.015 446.472 391.535 443.567L391.72 443.213L391.388 443.001C355.274 420.068 322.964 399.549 299.647 384.743C288.005 377.396 278.609 371.469 272.09 367.355C268.862 365.34 266.347 363.77 264.605 362.683C263.77 362.172 263.122 361.775 262.651 361.487C262.209 361.222 261.971 361.105 261.971 361.105C261.971 361.105 262.178 361.27 262.606 361.56C263.066 361.864 263.699 362.284 264.516 362.825C266.237 363.944 268.725 365.558 271.916 367.631C278.4 371.798 287.747 377.803 299.328 385.246C322.605 400.11 354.863 420.706 390.917 443.729L390.768 443.165C389.246 446.07 387.617 449.184 385.977 452.319C382.76 458.468 379.59 464.529 376.587 470.271L377.105 470.063C357.968 463.596 340.032 457.169 323.841 451.333C307.674 445.447 293.232 440.189 281.149 435.79C269.113 431.373 259.434 427.821 252.723 425.358C249.411 424.152 246.833 423.214 245.045 422.564C244.194 422.263 243.53 422.028 243.049 421.858C242.598 421.704 242.361 421.644 242.361 421.644Z" fill="#455A64"/>
</svg>
