<svg width="800" height="900" viewBox="0 0 800 900" fill="none" xmlns="http://www.w3.org/2000/svg">
<g clip-path="url(#clip0_120_851)">
<path d="M0 48C0 21.4903 21.4903 0 48 0H800V900H48C21.4903 900 0 878.51 0 852V48Z" fill="#F3F5F9"/>
<path d="M100.831 526.435H51.3438C47.6855 526.435 44.72 523.47 44.72 519.811V511.856C44.72 508.2 47.6855 505.233 51.3438 505.233H100.831C104.489 505.233 107.454 508.2 107.454 511.856V519.811C107.454 523.47 104.489 526.435 100.831 526.435Z" fill="#D4DFF4"/>
<path d="M171.055 526.435H121.567C117.91 526.435 114.945 523.47 114.945 519.811V511.856C114.945 508.2 117.91 505.233 121.567 505.233H171.055C174.713 505.233 177.678 508.2 177.678 511.856V519.811C177.678 523.47 174.713 526.435 171.055 526.435Z" fill="#D4DFF4"/>
<path d="M771.15 203.838H721.662C718.003 203.838 715.038 200.871 715.038 197.215V189.26C715.038 185.603 718.003 182.636 721.662 182.636H771.15C774.808 182.636 777.773 185.603 777.773 189.26V197.215C777.773 200.871 774.808 203.838 771.15 203.838Z" fill="#D4DFF4"/>
<path d="M136.456 499.468H86.9688C83.3105 499.468 80.345 496.501 80.345 492.844V484.888C80.345 481.231 83.3105 478.266 86.9688 478.266H136.456C140.114 478.266 143.079 481.231 143.079 484.888V492.844C143.079 496.501 140.114 499.468 136.456 499.468Z" fill="#D4DFF4"/>
<path d="M447.658 162.167H398.17C394.512 162.167 391.547 159.202 391.547 155.545V147.59C391.547 143.932 394.512 140.967 398.17 140.967H447.658C451.317 140.967 454.282 143.932 454.282 147.59V155.545C454.282 159.202 451.317 162.167 447.658 162.167Z" fill="#D4DFF4"/>
<path d="M483.283 135.2H433.795C430.137 135.2 427.172 132.235 427.172 128.579V120.622C427.172 116.965 430.137 114 433.795 114H483.283C486.942 114 489.907 116.965 489.907 120.622V128.579C489.907 132.235 486.942 135.2 483.283 135.2Z" fill="#D4DFF4"/>
<path d="M540.802 686.875H491.313C487.657 686.875 484.69 683.91 484.69 680.251V672.296C484.69 668.638 487.657 665.673 491.313 665.673H540.802C544.46 665.673 547.425 668.638 547.425 672.296V680.251C547.425 683.91 544.46 686.875 540.802 686.875Z" fill="#D4DFF4"/>
<path d="M506.203 659.906H456.715C453.837 659.906 451.387 658.07 450.473 655.505C450.482 654.552 450.485 653.595 450.485 652.633V652.095C450.478 649.193 450.405 646.428 450.27 643.792C450.965 640.875 453.587 638.707 456.715 638.707H506.203C509.86 638.707 512.825 641.671 512.825 645.33V653.285C512.825 656.941 509.86 659.906 506.203 659.906Z" fill="#D4DFF4"/>
<path d="M-16.3334 899.852H817V733.772H-16.3334V899.852Z" fill="#7C8EB5"/>
<path d="M-16.3334 732.25H817V715.323H-16.3334V732.25Z" fill="white"/>
<path d="M404.193 772.301C363.58 772.301 330.657 767.881 330.657 762.43C330.657 758.402 348.622 754.936 374.387 753.402C376.782 760.281 378.475 763.963 378.475 763.963H387.57H402.24H430.952C430.952 763.963 432.547 760.271 434.827 753.452C460.147 755.012 477.73 758.445 477.73 762.43C477.73 767.881 444.807 772.301 404.193 772.301Z" fill="#7387B4"/>
<path d="M405.435 607.766C405.18 606.511 380.612 481.696 436.178 428.046L437.335 429.246C382.418 482.268 406.815 606.189 407.068 607.434L405.435 607.766Z" fill="white"/>
<path d="M394.233 602.109L392.568 602.029C392.603 601.324 395.56 530.919 353.547 476.628L354.865 475.608C397.265 530.398 394.268 601.401 394.233 602.109Z" fill="white"/>
<path d="M414.812 602.206C414.655 601.261 399.8 506.996 458.98 452.704L460.107 453.933C401.6 507.608 416.3 600.998 416.455 601.933L414.812 602.206Z" fill="white"/>
<path d="M411.305 468.711C411.205 468.548 401.28 452.028 402.767 433.956L404.428 434.093C402.985 451.613 412.632 467.684 412.728 467.844L411.305 468.711Z" fill="white"/>
<path d="M405.118 494.268L404.968 492.608C405.103 492.594 418.588 491.141 427.123 472.963L428.633 473.671C419.665 492.766 405.708 494.216 405.118 494.268Z" fill="white"/>
<path d="M422.493 445.623C422.417 445.449 414.857 428.058 422.488 410.198L424.022 410.853C416.672 428.051 423.942 444.778 424.017 444.946L422.493 445.623Z" fill="white"/>
<path d="M399.972 523.378C399.743 523.19 394.297 518.63 388.627 509.533C383.403 501.155 377.042 487.201 376.38 468.308L378.045 468.25C379.285 503.686 400.818 521.915 401.035 522.096L399.972 523.378Z" fill="white"/>
<path d="M374.25 510.473C372.61 510.473 352.475 510.281 340.4 501.12L341.407 499.791C353.168 508.715 373.725 508.806 374.31 508.806H374.32L374.328 510.473H374.25Z" fill="white"/>
<path d="M416.718 548.958L416.205 547.373C416.443 547.294 440.167 539.456 452.105 522.261L453.473 523.213C441.21 540.874 416.962 548.879 416.718 548.958Z" fill="white"/>
<path d="M423.535 511.975L422.975 510.406C423.123 510.353 437.918 504.935 444.44 491.563L445.937 492.293C439.112 506.288 424.168 511.751 423.535 511.975Z" fill="white"/>
<path d="M446.642 466.381C446.493 465.873 443.13 453.728 452.055 437.151L453.523 437.941C444.942 453.878 448.208 465.801 448.243 465.92L446.642 466.381Z" fill="white"/>
<path d="M426.412 410.524C426.412 408.783 424.998 407.37 423.255 407.37C421.512 407.37 420.1 408.783 420.1 410.524C420.1 412.268 421.512 413.681 423.255 413.681C424.998 413.681 426.412 412.268 426.412 410.524Z" fill="#E8A700"/>
<path d="M457.575 437.18C457.575 435.438 456.163 434.025 454.42 434.025C452.677 434.025 451.263 435.438 451.263 437.18C451.263 438.923 452.677 440.336 454.42 440.336C456.163 440.336 457.575 438.923 457.575 437.18Z" fill="#E8A700"/>
<path d="M431.035 473.318C431.035 471.575 429.62 470.161 427.878 470.161C426.135 470.161 424.722 471.575 424.722 473.318C424.722 475.06 426.135 476.473 427.878 476.473C429.62 476.473 431.035 475.06 431.035 473.318Z" fill="#E8A700"/>
<path d="M455.943 522.736C455.943 520.995 454.532 519.581 452.788 519.581C451.045 519.581 449.633 520.995 449.633 522.736C449.633 524.48 451.045 525.893 452.788 525.893C454.532 525.893 455.943 524.48 455.943 522.736Z" fill="#E8A700"/>
<path d="M355.957 476.118C355.957 474.374 354.545 472.963 352.802 472.963C351.058 472.963 349.645 474.374 349.645 476.118C349.645 477.861 351.058 479.274 352.802 479.274C354.545 479.274 355.957 477.861 355.957 476.118Z" fill="#E8A700"/>
<path d="M406.602 434.025C406.602 432.281 405.188 430.87 403.445 430.87C401.703 430.87 400.29 432.281 400.29 434.025C400.29 435.768 401.703 437.18 403.445 437.18C405.188 437.18 406.602 435.768 406.602 434.025Z" fill="#E8A700"/>
<path d="M380.368 468.278C380.368 466.536 378.955 465.123 377.213 465.123C375.47 465.123 374.058 466.536 374.058 468.278C374.058 470.021 375.47 471.435 377.213 471.435C378.955 471.435 380.368 470.021 380.368 468.278Z" fill="#E8A700"/>
<path d="M440.937 428.646C440.937 426.903 439.523 425.49 437.78 425.49C436.038 425.49 434.625 426.903 434.625 428.646C434.625 430.388 436.038 431.801 437.78 431.801C439.523 431.801 440.937 430.388 440.937 428.646Z" fill="#E8A700"/>
<path d="M447.248 491.928C447.248 490.186 445.835 488.774 444.093 488.774C442.35 488.774 440.937 490.186 440.937 491.928C440.937 493.671 442.35 495.084 444.093 495.084C445.835 495.084 447.248 493.671 447.248 491.928Z" fill="#E8A700"/>
<path d="M463.887 453.32C463.887 451.576 462.473 450.163 460.732 450.163C458.988 450.163 457.575 451.576 457.575 453.32C457.575 455.061 458.988 456.475 460.732 456.475C462.473 456.475 463.887 455.061 463.887 453.32Z" fill="#E8A700"/>
<path d="M344.06 501.56C344.06 499.816 342.645 498.405 340.903 498.405C339.16 498.405 337.747 499.816 337.747 501.56C337.747 503.303 339.16 504.716 340.903 504.716C342.645 504.716 344.06 503.303 344.06 501.56Z" fill="#E8A700"/>
<path d="M388.858 594.66C388.858 594.66 375.558 584.031 373.832 570.02C372.103 556.006 386.597 572.435 386.597 572.435C386.597 572.435 386.343 551.14 393.442 549.958C400.542 548.778 406.602 572.31 406.602 572.31C406.602 572.31 412.093 556.973 421.572 559.39C431.048 561.805 421.572 579.681 421.572 579.681C421.572 579.681 427.637 573.885 431.035 578.231C434.43 582.581 421.572 594.66 421.572 594.66" fill="#8AA5D9"/>
<path d="M450.485 652.094V652.633C450.485 655.773 450.438 658.876 450.367 661.919C450.235 666.223 450.042 670.418 449.778 674.516C449.478 679.118 449.095 683.586 448.64 687.913C447.538 698.363 446.04 707.961 444.373 716.554C443.32 722.008 442.205 727.064 441.067 731.679C436.068 752.123 430.952 763.962 430.952 763.962H378.475C378.475 763.962 375.707 757.946 372.243 746.921C371.56 744.801 370.865 742.5 370.158 740.008C367.45 730.504 364.575 718.399 362.333 704.104C361.973 701.778 361.627 699.404 361.303 696.961C360.32 689.639 359.528 681.801 359.025 673.496C358.87 671.136 358.75 668.728 358.653 666.281C358.475 661.848 358.378 657.294 358.378 652.633C358.378 585.044 391.658 589.239 391.658 589.239H416.572C416.572 589.239 438.73 587.441 447.227 621.691C447.85 624.219 448.4 626.939 448.868 629.876C449.875 636.239 450.462 643.584 450.485 652.094Z" fill="#445C8F"/>
<path d="M359.025 673.496C358.87 671.136 358.75 668.728 358.653 666.281C363.675 665.551 369.02 664.353 374.808 662.688C401.52 655.006 426.602 640.673 447.227 621.691C447.85 624.219 448.4 626.939 448.868 629.876C428.052 648.163 403.187 662.004 376.785 669.591C370.447 671.411 364.562 672.718 359.025 673.496Z" fill="#2F4574"/>
<path d="M362.333 704.105C361.973 701.778 361.627 699.405 361.303 696.962C373.07 696.158 384.983 691.545 395.66 686.703C418.405 676.385 434.367 666.583 447.442 654.898C448.437 654.012 449.455 653.078 450.485 652.095V652.633C450.485 653.595 450.482 654.552 450.473 655.505C450.455 657.668 450.415 659.808 450.367 661.92C437.088 673.365 420.993 683.097 398.632 693.247C387.463 698.315 374.977 703.133 362.333 704.105Z" fill="#2F4574"/>
<path d="M372.243 746.921C371.56 744.801 370.865 742.5 370.158 740.008C373.395 738.905 376.533 737.466 379.338 735.993C407.368 721.276 431.517 700.078 449.778 674.516C449.478 679.118 449.095 683.586 448.64 687.913C430.725 710.275 408.267 728.921 382.682 742.356C379.027 744.273 375.552 745.795 372.243 746.921Z" fill="#2F4574"/>
<path d="M402.24 763.962H387.57C409.622 752.673 429.143 736.231 444.373 716.554C443.32 722.008 442.205 727.064 441.067 731.679C429.718 744.212 416.597 755.154 402.24 763.962Z" fill="#2F4574"/>
<path d="M104.691 333.401C104.691 333.401 100.205 304.813 99.0164 298.993C97.8289 293.171 95.4909 272.428 98.3269 271.47C101.163 270.513 107.882 275.583 106.173 285.785C111.697 283.141 132.492 272.688 130.31 285.178C136.065 286.656 133.8 290.673 132.897 293.256C138.059 294.485 135.723 300.808 132.589 301.398C135.29 303.158 136.391 308.438 126.665 311.786C127.63 316.516 130.2 332.963 130.2 332.963" fill="#F8AC97"/>
<path d="M359.403 332.586C359.403 332.586 364.913 304.176 366.308 298.403C367.705 292.628 370.787 271.983 367.985 270.923C365.187 269.865 358.29 274.691 359.63 284.946C354.205 282.106 333.798 270.913 335.532 283.475C329.727 284.745 331.845 288.841 332.657 291.455C327.453 292.496 329.56 298.898 332.672 299.601C329.908 301.263 328.618 306.5 338.218 310.196C337.083 314.888 333.925 331.233 333.925 331.233" fill="#F8AC97"/>
<path d="M208.405 850.03C123.515 850.03 54.698 839.911 54.698 827.43C54.698 814.95 123.515 804.831 208.405 804.831C293.297 804.831 362.113 814.95 362.113 827.43C362.113 839.911 293.297 850.03 208.405 850.03Z" fill="#7387B4"/>
<path d="M120.229 787.318H161.378L230.345 524.783L246.365 520.964L234.597 787.318H275.538C275.538 787.318 297.12 536.834 300.163 513.029C303.222 489.226 297.955 464.094 297.955 464.094L183.87 448.059C167.508 482.276 171.968 541.801 163.035 580.491C154.115 619.166 120.229 787.318 120.229 787.318Z" fill="#F8AC97"/>
<path d="M246.365 520.964L234.597 787.318H247.275L281.158 530.856L246.365 520.964Z" fill="#F79489"/>
<path d="M151.103 787.318H161.378L230.345 524.783L183.35 592.854L151.103 787.318Z" fill="#F79489"/>
<path d="M298.792 466.786C298.792 466.786 302.197 479.845 300.068 483.32C297.942 486.793 266.015 494.668 231.535 493.816C197.055 492.965 170.452 491.688 173.005 476.79C227.067 464.87 298.792 466.786 298.792 466.786Z" fill="#361A32"/>
<path d="M235.007 484.383C235.007 477.15 239.933 471.286 246.01 471.286C252.087 471.286 257.013 477.15 257.013 484.383C257.013 491.616 252.087 497.481 246.01 497.481C239.933 497.481 235.007 491.616 235.007 484.383Z" fill="#F8A440"/>
<path d="M240.105 484.383C240.105 480.502 242.748 477.355 246.01 477.355C249.27 477.355 251.915 480.502 251.915 484.383C251.915 488.265 249.27 491.412 246.01 491.412C242.748 491.412 240.105 488.265 240.105 484.383Z" fill="#361A32"/>
<path d="M238.192 483.561C238.192 482.353 239.477 481.373 241.063 481.373C242.648 481.373 243.935 482.353 243.935 483.561C243.935 484.768 242.648 485.748 241.063 485.748C239.477 485.748 238.192 484.768 238.192 483.561Z" fill="#F8A440"/>
<path d="M310.632 828.736H228.853L229.525 820.086L234.595 755.028H281.265L277.402 800.235C287.962 808.646 295.837 815.328 301.237 820.086C307.65 825.753 310.632 828.736 310.632 828.736Z" fill="#2477F4"/>
<path d="M172.847 755.028L159.185 820.086L157.365 828.736H90.5905L98.5559 820.086L112.799 804.62L122.301 755.028H172.847Z" fill="#2477F4"/>
<path d="M361.672 325.399C361.672 325.399 354.065 365.922 348.77 386.684C346.503 395.559 342.655 401.927 337.733 405.477C331.142 410.236 322.61 409.952 313.377 403.852C300.625 395.411 282.877 369.234 282.877 369.234L278.013 422.794C278.013 422.794 297.193 439.336 300.505 476.086C303.802 512.836 299.178 571.601 303.145 656.781C192.713 713.533 105.954 656.051 105.954 656.051C105.954 656.051 145.628 603.163 151.595 532.404C157.56 461.648 192.968 427.821 192.968 427.821L181.663 382.956C181.663 382.956 172.833 393.919 156.738 408.356C136.485 426.522 115.618 428.237 112.978 410.341C112.501 407.087 111.816 402.346 111.04 396.752V396.737C107.519 371.516 101.837 329.052 101.837 329.052L131.458 324.832L137.26 364.626C137.26 364.626 160.185 331.364 172.087 320.791C183.99 310.201 213.447 297.776 213.447 297.776H247.393C247.393 297.776 274.405 306.919 282.34 310.156C290.275 313.392 323.49 358.764 323.49 358.764L333.9 318.761L361.672 325.399Z" fill="#FFB800"/>
<path d="M226.65 181.911C202.567 186.153 174.895 209.778 185.477 248.42C196.058 287.061 258.267 271.52 258.267 271.52C258.267 271.52 276.505 247.791 277.778 223.283C279.053 198.775 258.567 176.29 226.65 181.911Z" fill="#4B5F8A"/>
<path d="M271.375 224.726C271.375 224.726 275.318 219.901 281.305 222.428C287.288 224.954 284.123 247.938 273.34 244.329" fill="#F8AC97"/>
<path d="M277.835 239.87C271.48 239.87 266.31 245.041 266.31 251.395C266.31 257.75 271.48 262.921 277.835 262.921C284.19 262.921 289.362 257.75 289.362 251.395C289.362 245.041 284.19 239.87 277.835 239.87ZM277.835 264.588C270.56 264.588 264.643 258.67 264.643 251.395C264.643 244.121 270.56 238.203 277.835 238.203C285.11 238.203 291.028 244.121 291.028 251.395C291.028 258.67 285.11 264.588 277.835 264.588Z" fill="white"/>
<path d="M191.215 231.379C194.02 229.463 196.667 229.633 198.563 230.226C198.775 232.933 200.027 237.103 200.027 237.103C206.862 234.613 209.283 225.166 208.737 213.324C226.307 219.133 241.652 208.929 241.652 208.929C241.652 208.929 259.727 219.709 271.943 211.671C271.943 211.671 279.185 247.958 275.958 265.853C275.1 270.704 273.525 274.616 270.97 276.728C266.76 280.186 259.113 282.838 250.498 284.084C235.805 286.241 218.322 284.314 210.348 275.409C209.638 274.621 209.008 273.783 208.457 272.883C206.797 270.164 205.443 266.906 204.335 263.363L204.317 263.351C203.192 259.776 202.317 255.906 201.635 251.986C192.652 254.389 186.172 234.824 191.215 231.379Z" fill="#F8AC97"/>
<path d="M221.102 237.936C220.88 237.936 220.658 237.848 220.493 237.674C220.178 237.338 220.197 236.809 220.532 236.494C225.733 231.614 231.888 235.313 231.95 235.351C232.342 235.591 232.462 236.103 232.222 236.494C231.982 236.886 231.47 237.011 231.077 236.771C230.868 236.644 225.93 233.714 221.672 237.711C221.512 237.861 221.307 237.936 221.102 237.936Z" fill="#361A32"/>
<path d="M240.27 247.555C239.85 247.555 239.49 247.238 239.442 246.813C239.392 246.355 239.722 245.943 240.18 245.893L245.448 245.313L242.613 230.413C242.528 229.961 242.825 229.526 243.277 229.44C243.725 229.356 244.165 229.651 244.252 230.103L247.422 246.771L240.362 247.55L240.27 247.555Z" fill="#361A32"/>
<path d="M258.308 246.636C258.748 251.031 262.667 254.234 267.06 253.793C271.453 253.353 274.657 249.434 274.217 245.041C273.777 240.649 269.858 237.444 265.465 237.884C261.072 238.326 257.868 242.244 258.308 246.636Z" fill="#F35B60"/>
<path d="M208.777 252.193C209.217 256.586 213.135 259.791 217.528 259.349C221.922 258.909 225.127 254.991 224.685 250.598C224.245 246.204 220.327 242.999 215.933 243.441C211.54 243.881 208.337 247.799 208.777 252.193Z" fill="#F35B60"/>
<path d="M251.828 221.579C252.498 222.004 263.938 226.711 263.975 225.786C264.15 221.344 248.295 219.348 251.828 221.579Z" fill="#4B5F8A"/>
<path d="M229.052 223.071C228.382 223.496 216.942 228.203 216.905 227.278C216.73 222.838 232.585 220.839 229.052 223.071Z" fill="#4B5F8A"/>
<path d="M251.607 234.038C251.43 234.038 251.253 233.981 251.103 233.866C250.737 233.586 250.667 233.066 250.945 232.701C251.032 232.588 253.09 229.926 256.367 229.486C258.367 229.218 260.357 229.828 262.283 231.303C262.648 231.583 262.717 232.106 262.437 232.473C262.157 232.838 261.635 232.908 261.268 232.626C256.19 228.736 252.428 233.506 252.27 233.711C252.105 233.926 251.858 234.038 251.607 234.038Z" fill="#361A32"/>
<path d="M252.478 253.36C252.478 253.36 251.465 254.987 249.63 256.745C247.153 259.133 243.157 261.773 238.175 260.877C233.76 260.072 231.21 257.193 229.793 254.568C228.407 252.033 228.063 249.735 228.063 249.735L231.598 250.258L249.123 252.868L252.478 253.36Z" fill="white"/>
<path d="M231.598 250.258L232.388 252.182L229.793 254.568C228.407 252.033 228.063 249.735 228.063 249.735L231.598 250.258Z" fill="#2A192C"/>
<path d="M252.478 253.36C252.478 253.36 251.465 254.986 249.63 256.745L247.885 254.405L249.123 252.868L252.478 253.36Z" fill="#2A192C"/>
<path d="M164.837 200.901C162.668 197.005 162.775 192.2 163.877 187.878C166.275 178.478 173.315 170.383 182.292 166.703C191.27 163.025 201.967 163.85 210.273 168.863C215.675 172.125 220.363 178.423 218.307 184.388C217.577 186.503 216.093 188.26 214.59 189.916C208.775 196.321 201.97 203.818 193.365 206.233C184.183 208.811 170.467 211.016 164.837 200.901Z" fill="#4B5F8A"/>
<path d="M197.318 206.801C190.785 211.458 182.52 213.625 174.542 212.771C172.395 212.541 170.22 212.08 168.398 210.926C165.678 209.203 164.06 206.095 163.507 202.923C162.39 196.516 165.525 189.576 171.072 186.178C169.262 190.391 167.437 194.651 166.668 199.173C166.27 201.526 166.202 204.098 167.447 206.136C168.508 207.88 170.38 208.971 172.285 209.706C178.438 212.083 185.46 211.36 191.613 208.98C197.765 206.601 203.19 202.685 208.387 198.623" fill="#4B5F8A"/>
<path d="M206.362 195.426C213.313 192.314 217.962 184.674 217.532 177.071C217.302 173.044 215.647 168.974 212.488 166.468C208.548 163.343 202.907 163.124 198.117 164.653C193.327 166.181 189.183 169.216 185.137 172.201C188.78 168.599 192.49 164.949 197 162.519C201.51 160.091 207.012 159.009 211.803 160.824C217.823 163.106 221.53 169.698 221.61 176.136C221.692 182.574 218.658 188.741 214.485 193.644C210.312 198.548 205.042 202.373 199.825 206.149" fill="#4B5F8A"/>
<path d="M194.515 202.42C194.515 202.42 189.333 193.637 199.025 186.415C208.717 179.195 215.663 186.178 215.663 186.178C215.663 186.178 200.975 191.968 194.515 202.42Z" fill="#FFB800"/>
<path d="M213.315 274.608V300.228C213.315 300.228 201.377 308.906 200.82 311.23C200.265 313.555 240.272 338.821 240.272 338.821L266.262 311.23L247.885 299.95L243.353 279.96" fill="#F8AC97"/>
<path d="M193.132 247.864C186.777 247.864 181.605 253.034 181.605 259.389C181.605 265.744 186.777 270.916 193.132 270.916C199.487 270.916 204.657 265.744 204.657 259.389C204.657 253.034 199.487 247.864 193.132 247.864ZM193.132 272.583C185.857 272.583 179.938 266.664 179.938 259.389C179.938 252.116 185.857 246.198 193.132 246.198C200.407 246.198 206.323 252.116 206.323 259.389C206.323 266.664 200.407 272.583 193.132 272.583Z" fill="white"/>
<path d="M101.836 329.058C101.836 329.058 95.9765 324.671 98.4955 321.351C101.014 318.031 105.04 320.32 105.04 320.32C105.04 320.32 106.35 313.866 111.617 314.623C116.884 315.38 117.506 320.181 117.506 320.181C117.506 320.181 120.19 313.525 124.037 314.776C127.885 316.03 127.24 320.305 127.24 320.305C127.24 320.305 132.273 313.91 134.255 316.271C136.236 318.635 131.456 324.83 131.456 324.83L101.836 329.058Z" fill="#E3A70C"/>
<path d="M333.897 318.759C333.897 318.759 330.75 313.223 332.88 312.331C335.008 311.441 338.143 316.551 338.143 316.551C338.143 316.551 342.22 311.718 345.617 313.964C349.015 316.211 347.147 318.759 347.147 318.759C347.147 318.759 352.242 315.193 355.638 316.721C359.037 318.249 357.337 321.816 357.337 321.816C357.337 321.816 362.093 317.571 364.472 319.948C366.85 322.326 361.665 325.393 361.665 325.393L333.897 318.759Z" fill="#E3A70C"/>
<path d="M192.963 427.822C192.963 427.822 214.515 444.085 241.48 440.332C268.445 436.578 278.017 422.8 278.017 422.8L278.768 414.505C278.768 414.505 273.538 423.895 243.935 426.963C214.33 430.032 190.725 418.927 190.725 418.927L192.963 427.822Z" fill="#0A55C6"/>
<path d="M235.785 431.448C235.345 436.57 236.548 441.748 235.923 446.85C234.577 457.838 225.205 466.18 222.045 476.788C221.02 480.225 220.705 484.055 222.21 487.308C223.905 484.706 226.222 482.511 228.913 480.96C228.923 482.563 228.933 484.166 228.945 485.768C228.947 486.058 228.963 486.385 229.177 486.581C229.387 486.775 229.71 486.77 229.995 486.74C234.788 486.245 238.838 482.61 240.963 478.285C243.087 473.958 243.568 469.015 243.632 464.195C243.778 452.895 241.845 441.308 245.02 430.461" fill="#2477F4"/>
<path d="M243.027 433.671C242.14 437.79 243.123 442.111 244.777 445.986C246.43 449.863 248.735 453.42 250.663 457.166C254.332 464.295 256.625 472.125 257.383 480.106C258.797 477.503 259.87 474.715 260.568 471.836C262.537 473.426 264.615 474.88 266.783 476.185C267.755 473.853 267.66 471.203 267.138 468.731C265.582 461.368 260.583 455.305 256.158 449.216C251.733 443.128 247.585 436.123 248.165 428.62" fill="#2477F4"/>
<path d="M235.57 425.546C235.57 425.546 227.658 413.164 220.452 411.684C213.247 410.204 217.663 425.546 217.663 425.546C217.663 425.546 212.085 428.101 213.015 431.821C213.945 435.539 218.593 434.843 218.593 434.843C218.593 434.843 210.457 446.929 216.733 450.416C223.01 453.903 235.235 435.773 235.235 435.773C235.235 435.773 236.938 442.978 242.642 442.049C248.345 441.118 249.687 434.611 249.687 434.611C249.687 434.611 260.083 448.571 265.313 445.541C270.543 442.513 263.803 432.351 263.803 432.351C263.803 432.351 267.143 430.426 267.173 426.939C267.203 423.453 263.803 422.291 263.803 422.291C263.803 422.291 265.552 417.506 265.748 412.988C265.893 409.664 261.445 408.386 257.262 413.414C253.078 418.443 248.578 423.686 248.578 423.686C248.578 423.686 242.552 414.621 235.57 425.546Z" fill="#2477F4"/>
<path d="M181.663 382.956C181.663 382.956 172.833 393.92 156.738 408.356C136.485 426.523 115.619 428.238 112.979 410.341C112.501 407.088 111.816 402.346 111.04 396.753C115.007 404.435 121.257 411.19 130.981 411.19C153.428 411.19 180.767 360.941 180.767 360.941L181.663 382.956Z" fill="#E3A70C"/>
<path d="M337.733 405.478C331.142 410.236 322.61 409.953 313.377 403.853C300.625 395.411 282.877 369.234 282.877 369.234L280.832 351.574C280.832 351.574 306.517 406.909 337.733 405.478Z" fill="#E3A70C"/>
<path d="M213.315 298.174L213.452 298.141L213.378 298.188L213.123 298.423C212.94 298.639 212.762 298.884 212.592 299.153C212.253 299.691 211.962 300.281 211.7 300.889C211.172 302.103 210.74 303.376 210.373 304.668C209.62 307.253 209.232 309.943 209.057 312.633C208.752 318.013 209.548 323.499 211.722 328.399C212.812 330.839 214.203 333.143 215.918 335.164C217.63 337.174 219.79 338.773 222.158 339.819C224.513 340.899 227.053 341.421 229.528 341.649C232.012 341.859 234.438 341.871 236.825 341.719C239.212 341.566 241.555 341.288 243.902 340.923C246.233 340.536 248.677 340.171 250.978 339.231C253.292 338.341 255.465 336.808 256.795 334.616C258.123 332.444 258.55 329.724 258.755 327.099C259.037 321.759 257.77 316.361 255.818 311.338C254.808 308.828 253.637 306.374 252.207 304.089C251.493 302.946 250.732 301.833 249.895 300.804C249.47 300.303 249.05 299.784 248.572 299.373C248.342 299.161 248.095 298.963 247.863 298.823C247.638 298.653 247.393 298.609 247.393 298.609V296.943C248.085 297.016 248.453 297.301 248.77 297.539C249.097 297.789 249.36 298.053 249.608 298.324C250.112 298.863 250.543 299.416 250.965 299.983C251.792 301.119 252.512 302.304 253.182 303.514C254.512 305.938 255.69 308.428 256.692 310.994C258.673 316.116 260.09 321.531 260.11 327.141C260.082 329.946 259.658 332.748 258.555 335.489C257.452 338.189 255.788 340.784 253.622 342.991C251.473 345.224 248.818 347.029 245.91 348.138C243.002 349.254 239.873 349.626 236.807 349.491C230.627 349.233 224.8 346.343 220.415 342.513C216.033 338.656 212.54 334.116 210.555 328.884C208.517 323.691 207.828 318.081 208.122 312.581C208.237 309.823 208.655 307.086 209.255 304.383C209.568 303.031 209.945 301.693 210.442 300.378C210.682 299.716 210.982 299.071 211.303 298.416C211.47 298.093 211.663 297.764 211.895 297.439C212.033 297.271 212.153 297.109 212.347 296.938L212.688 296.684C212.86 296.598 213.105 296.531 213.315 296.508V298.174Z" fill="white"/>
<path d="M200.815 380.173C200.815 380.173 221.18 393.041 257.645 393.92C245.845 398.346 210.438 395.356 200.815 380.173Z" fill="#E3A70C"/>
<path d="M98.5559 820.086H159.185L157.365 828.736H90.5905L98.5559 820.086Z" fill="white"/>
<path d="M310.632 828.736H228.853L229.525 820.086H301.237C307.65 825.753 310.632 828.736 310.632 828.736Z" fill="white"/>
<path d="M131.719 755.028L126.697 787.318H141.661L147.54 755.028H131.719Z" fill="#0A55C6"/>
<path d="M264.588 755.028L261.383 787.318H273.14L278.332 755.028H264.588Z" fill="#0A55C6"/>
<path d="M280.703 550.083C278.453 557.848 273.578 564.553 268.625 570.941C254.218 589.53 238.222 607.128 219.173 620.921C211.967 626.14 204.327 630.778 196.313 634.653C190.118 637.648 180.942 642.853 174.052 642.576C174.75 636.2 185.865 632.133 190.562 629.273C198.842 624.226 206.91 618.831 214.738 613.111C230.682 601.461 245.635 588.456 259.373 574.275C263.177 570.348 266.887 566.333 270.498 562.231C273.192 559.173 279.573 553.986 280.703 550.083Z" fill="#E3A70C"/>
<path d="M621.928 835.265C552.933 835.265 497 823.898 497 809.878C497 796.606 547.142 785.711 611.033 784.589V809.729H627.765V784.521C637.638 784.613 647.217 784.938 656.362 785.47L660.865 813.78L677.32 810.74L673.502 786.752C716.767 790.741 746.857 799.597 746.857 809.878C746.857 823.898 690.925 835.265 621.928 835.265Z" fill="#7387B4"/>
<path d="M741.212 430.152C741.212 583.218 687.807 707.303 621.927 707.303C556.048 707.303 502.643 583.218 502.643 430.152C502.643 277.085 556.048 153 621.927 153C687.807 153 741.212 277.085 741.212 430.152Z" fill="#7C8EB5"/>
<path d="M611.033 809.73H627.765V635.128H611.033V809.73Z" fill="#2F4574"/>
<path d="M677.32 810.74L660.865 813.78L633.48 641.687L649.933 638.647L677.32 810.74Z" fill="#2F4574"/>
<path d="M681.44 816.824H559.043C554.702 816.824 551.183 813.305 551.183 808.964C551.183 804.624 554.702 801.104 559.043 801.104H681.44C685.78 801.104 689.3 804.624 689.3 808.964C689.3 813.305 685.78 816.824 681.44 816.824Z" fill="#2F4574"/>
<mask id="mask0_120_851" style="mask-type:alpha" maskUnits="userSpaceOnUse" x="502" y="153" width="240" height="555">
<path d="M741.212 430.152C741.212 583.218 687.807 707.303 621.927 707.303C556.048 707.303 502.643 583.218 502.643 430.152C502.643 277.085 556.048 153 621.927 153C687.807 153 741.212 277.085 741.212 430.152Z" fill="#2F4574"/>
</mask>
<g mask="url(#mask0_120_851)">
<path d="M746.884 345.934C746.884 345.934 751.37 317.345 752.558 311.525C753.746 305.704 756.084 284.96 753.248 284.002C750.412 283.045 743.693 288.115 745.401 298.317C739.877 295.674 719.083 285.22 721.265 297.71C715.51 299.189 717.774 303.205 718.677 305.789C713.515 307.017 715.851 313.34 718.986 313.93C716.284 315.69 715.183 320.97 724.91 324.319C723.944 329.049 721.375 345.495 721.375 345.495" fill="#F8AC97"/>
<path d="M492.171 345.119C492.171 345.119 486.661 316.709 485.266 310.935C483.869 305.16 480.788 284.515 483.589 283.455C486.388 282.397 493.284 287.224 491.944 297.479C497.369 294.639 517.776 283.445 516.043 296.007C521.848 297.277 519.729 301.374 518.918 303.987C524.121 305.029 522.014 311.43 518.903 312.134C521.666 313.795 522.956 319.032 513.356 322.729C514.491 327.42 517.649 343.765 517.649 343.765" fill="#F8AC97"/>
<path d="M731.346 799.85H690.196L621.229 537.315L605.209 533.497L616.978 799.85H576.036C576.036 799.85 554.454 549.367 551.411 525.562C548.353 501.758 553.619 476.627 553.619 476.627L667.704 460.592C684.066 494.808 679.606 554.333 688.539 593.023C697.459 631.698 731.346 799.85 731.346 799.85Z" fill="#F8AC97"/>
<path d="M605.209 533.497L616.978 799.85H604.299L570.416 543.388L605.209 533.497Z" fill="#F79489"/>
<path d="M700.471 799.85H690.196L621.23 537.315L668.225 605.387L700.471 799.85Z" fill="#F79489"/>
<path d="M552.783 479.319C552.783 479.319 549.378 492.377 551.506 495.852C553.633 499.325 585.559 507.2 620.039 506.349C654.519 505.497 681.123 504.22 678.569 489.322C624.508 477.402 552.783 479.319 552.783 479.319Z" fill="#361A32"/>
<path d="M616.568 496.915C616.568 489.682 611.641 483.819 605.565 483.819C599.488 483.819 594.561 489.682 594.561 496.915C594.561 504.149 599.488 510.014 605.565 510.014C611.641 510.014 616.568 504.149 616.568 496.915Z" fill="#F8A440"/>
<path d="M611.469 496.915C611.469 493.034 608.826 489.887 605.564 489.887C602.304 489.887 599.659 493.034 599.659 496.915C599.659 500.797 602.304 503.944 605.564 503.944C608.826 503.944 611.469 500.797 611.469 496.915Z" fill="#361A32"/>
<path d="M613.383 496.094C613.383 494.885 612.098 493.905 610.511 493.905C608.926 493.905 607.639 494.885 607.639 496.094C607.639 497.3 608.926 498.28 610.511 498.28C612.098 498.28 613.383 497.3 613.383 496.094Z" fill="#F8A440"/>
<path d="M489.903 337.931C489.903 337.931 497.509 378.455 502.804 399.216C505.071 408.091 508.919 414.46 513.841 418.01C520.433 422.768 528.964 422.485 538.198 416.385C550.949 407.943 568.698 381.766 568.698 381.766L573.561 435.326C573.561 435.326 554.381 451.868 551.069 488.618C547.773 525.368 552.396 584.133 548.429 669.313C658.861 726.065 745.621 668.583 745.621 668.583C745.621 668.583 705.946 615.695 699.979 544.936C694.014 474.18 658.606 440.353 658.606 440.353L669.911 395.488C669.911 395.488 678.741 406.451 694.836 420.888C715.089 439.055 735.956 440.77 738.596 422.873C739.073 419.62 739.759 414.878 740.535 409.285V409.27C744.055 384.048 749.737 341.585 749.737 341.585L720.116 337.365L714.314 377.158C714.314 377.158 691.389 343.896 679.488 333.323C667.584 322.733 638.128 310.308 638.128 310.308H604.181C604.181 310.308 577.169 319.451 569.234 322.688C561.299 325.925 528.084 371.296 528.084 371.296L517.674 331.293L489.903 337.931Z" fill="#FFB800"/>
<path d="M624.924 194.444C649.008 198.685 676.679 222.31 666.098 260.952C655.516 299.594 593.308 284.052 593.308 284.052C593.308 284.052 575.069 260.324 573.796 235.815C572.521 211.307 593.008 188.822 624.924 194.444Z" fill="#4B5F8A"/>
<path d="M580.199 237.258C580.199 237.258 576.256 232.433 570.269 234.96C564.286 237.487 567.451 260.47 578.234 256.862" fill="#F8AC97"/>
<path d="M573.739 252.402C580.094 252.402 585.264 257.573 585.264 263.927C585.264 270.282 580.094 275.453 573.739 275.453C567.384 275.453 562.213 270.282 562.213 263.927C562.213 257.573 567.384 252.402 573.739 252.402ZM573.739 277.12C581.014 277.12 586.931 271.202 586.931 263.927C586.931 256.653 581.014 250.735 573.739 250.735C566.464 250.735 560.546 256.653 560.546 263.927C560.546 271.202 566.464 277.12 573.739 277.12Z" fill="white"/>
<path d="M660.36 243.912C657.555 241.995 654.908 242.165 653.011 242.758C652.8 245.465 651.548 249.635 651.548 249.635C644.713 247.145 642.291 237.698 642.838 225.856C625.268 231.665 609.923 221.462 609.923 221.462C609.923 221.462 591.848 232.242 579.631 224.203C579.631 224.203 572.39 260.49 575.616 278.385C576.475 283.237 578.05 287.148 580.605 289.26C584.815 292.718 592.461 295.37 601.076 296.617C615.77 298.773 633.253 296.847 641.226 287.942C641.936 287.153 642.566 286.315 643.118 285.415C644.778 282.697 646.131 279.438 647.24 275.895L647.258 275.883C648.383 272.308 649.258 268.438 649.94 264.518C658.923 266.922 665.403 247.357 660.36 243.912Z" fill="#F8AC97"/>
<path d="M630.473 250.468C630.694 250.468 630.916 250.38 631.081 250.207C631.396 249.87 631.378 249.342 631.043 249.027C625.841 244.147 619.686 247.845 619.624 247.883C619.233 248.123 619.113 248.635 619.353 249.027C619.593 249.418 620.104 249.543 620.498 249.303C620.706 249.177 625.644 246.247 629.903 250.243C630.063 250.393 630.268 250.468 630.473 250.468Z" fill="#361A32"/>
<path d="M611.305 260.087C611.725 260.087 612.085 259.77 612.133 259.345C612.183 258.887 611.853 258.475 611.395 258.425L606.126 257.845L608.961 242.945C609.046 242.494 608.75 242.059 608.298 241.972C607.85 241.889 607.41 242.184 607.323 242.635L604.153 259.304L611.213 260.082L611.305 260.087Z" fill="#361A32"/>
<path d="M593.266 259.168C592.826 263.563 588.908 266.767 584.514 266.325C580.121 265.885 576.918 261.967 577.358 257.573C577.798 253.182 581.716 249.977 586.109 250.417C590.503 250.858 593.706 254.777 593.266 259.168Z" fill="#F35B60"/>
<path d="M642.798 264.725C642.358 269.118 638.439 272.323 634.046 271.882C629.653 271.442 626.448 267.523 626.889 263.13C627.329 258.737 631.248 255.532 635.641 255.973C640.034 256.413 643.238 260.332 642.798 264.725Z" fill="#F35B60"/>
<path d="M599.746 234.112C599.076 234.537 587.636 239.243 587.6 238.318C587.425 233.877 603.28 231.88 599.746 234.112Z" fill="#4B5F8A"/>
<path d="M622.523 235.603C623.193 236.028 634.633 240.735 634.669 239.81C634.844 235.37 618.989 233.372 622.523 235.603Z" fill="#4B5F8A"/>
<path d="M599.968 246.57C600.144 246.57 600.321 246.513 600.471 246.398C600.838 246.118 600.908 245.598 600.629 245.233C600.543 245.12 598.484 242.458 595.208 242.018C593.208 241.75 591.218 242.36 589.291 243.835C588.926 244.115 588.858 244.638 589.138 245.005C589.418 245.37 589.939 245.44 590.306 245.158C595.384 241.268 599.146 246.038 599.304 246.243C599.469 246.458 599.716 246.57 599.968 246.57Z" fill="#361A32"/>
<path d="M599.096 265.892C599.096 265.892 600.11 267.519 601.945 269.277C604.421 271.665 608.418 274.305 613.4 273.409C617.815 272.604 620.365 269.725 621.781 267.1C623.168 264.565 623.511 262.267 623.511 262.267L619.976 262.79L602.451 265.4L599.096 265.892Z" fill="white"/>
<path d="M619.976 262.791L619.186 264.714L621.781 267.101C623.168 264.566 623.511 262.267 623.511 262.267L619.976 262.791Z" fill="#2A192C"/>
<path d="M599.096 265.892C599.096 265.892 600.109 267.519 601.944 269.277L603.689 266.937L602.451 265.4L599.096 265.892Z" fill="#2A192C"/>
<path d="M686.738 213.433C688.906 209.537 688.8 204.732 687.698 200.41C685.3 191.01 678.26 182.915 669.283 179.235C660.305 175.557 649.608 176.382 641.301 181.395C635.899 184.657 631.211 190.955 633.268 196.92C633.998 199.035 635.481 200.792 636.984 202.448C642.799 208.854 649.605 216.35 658.21 218.765C667.391 221.343 681.108 223.548 686.738 213.433Z" fill="#4B5F8A"/>
<path d="M654.256 219.334C660.79 223.99 669.055 226.157 677.033 225.303C679.18 225.073 681.355 224.612 683.176 223.459C685.896 221.735 687.515 218.627 688.068 215.455C689.185 209.049 686.05 202.108 680.503 198.71C682.313 202.923 684.138 207.184 684.906 211.705C685.305 214.059 685.373 216.63 684.128 218.668C683.066 220.412 681.195 221.503 679.29 222.238C673.136 224.615 666.115 223.892 659.961 221.512C653.81 219.133 648.385 215.217 643.188 211.155" fill="#4B5F8A"/>
<path d="M645.213 207.958C638.261 204.847 633.613 197.207 634.043 189.603C634.273 185.577 635.928 181.507 639.086 179C643.026 175.875 648.668 175.657 653.458 177.185C658.248 178.713 662.391 181.748 666.438 184.733C662.794 181.132 659.084 177.482 654.574 175.052C650.064 172.623 644.563 171.542 639.771 173.357C633.751 175.638 630.044 182.23 629.964 188.668C629.883 195.107 632.916 201.273 637.089 206.177C641.263 211.08 646.533 214.905 651.749 218.682" fill="#4B5F8A"/>
<path d="M657.059 214.952C657.059 214.952 662.241 206.169 652.549 198.947C642.858 191.727 635.911 198.71 635.911 198.71C635.911 198.71 650.599 204.5 657.059 214.952Z" fill="#FFB800"/>
<path d="M638.259 287.14V312.76C638.259 312.76 650.198 321.439 650.754 323.762C651.309 326.087 611.303 351.354 611.303 351.354L585.313 323.762L603.689 312.482L608.221 292.492" fill="#F8AC97"/>
<path d="M658.443 260.396C664.798 260.396 669.97 265.566 669.97 271.921C669.97 278.276 664.798 283.448 658.443 283.448C652.088 283.448 646.918 278.276 646.918 271.921C646.918 265.566 652.088 260.396 658.443 260.396ZM658.443 285.115C665.718 285.115 671.636 279.196 671.636 271.921C671.636 264.648 665.718 258.73 658.443 258.73C651.168 258.73 645.251 264.648 645.251 271.921C645.251 279.196 651.168 285.115 658.443 285.115Z" fill="white"/>
<path d="M749.738 341.59C749.738 341.59 755.598 337.204 753.079 333.884C750.56 330.564 746.534 332.852 746.534 332.852C746.534 332.852 745.224 326.399 739.957 327.155C734.69 327.912 734.069 332.714 734.069 332.714C734.069 332.714 731.384 326.057 727.537 327.309C723.69 328.562 724.334 332.837 724.334 332.837C724.334 332.837 719.302 326.442 717.32 328.804C715.338 331.167 720.119 337.362 720.119 337.362L749.738 341.59Z" fill="#E3A70C"/>
<path d="M517.678 331.291C517.678 331.291 520.825 325.755 518.695 324.863C516.566 323.973 513.431 329.083 513.431 329.083C513.431 329.083 509.355 324.25 505.958 326.496C502.56 328.743 504.428 331.291 504.428 331.291C504.428 331.291 499.333 327.725 495.936 329.253C492.538 330.781 494.238 334.348 494.238 334.348C494.238 334.348 489.481 330.103 487.103 332.48C484.724 334.858 489.91 337.925 489.91 337.925L517.678 331.291Z" fill="#E3A70C"/>
<path d="M658.611 440.354C658.611 440.354 637.059 456.617 610.094 452.864C583.129 449.111 573.558 435.332 573.558 435.332L572.806 427.037C572.806 427.037 578.036 436.427 607.639 439.496C637.244 442.564 660.849 431.459 660.849 431.459L658.611 440.354Z" fill="#0A55C6"/>
<path d="M615.789 443.98C616.229 449.102 615.026 454.28 615.651 459.382C616.998 470.37 626.369 478.712 629.529 489.32C630.554 492.757 630.869 496.587 629.364 499.84C627.669 497.239 625.353 495.044 622.661 493.492C622.651 495.095 622.641 496.699 622.629 498.3C622.628 498.59 622.611 498.917 622.398 499.114C622.188 499.307 621.864 499.302 621.579 499.272C616.786 498.777 612.736 495.142 610.611 490.817C608.488 486.49 608.006 481.547 607.943 476.727C607.796 465.427 609.729 453.84 606.554 442.994" fill="#2477F4"/>
<path d="M608.548 446.204C609.435 450.322 608.451 454.644 606.798 458.519C605.145 462.395 602.84 465.952 600.911 469.699C597.243 476.827 594.95 484.657 594.191 492.639C592.778 490.035 591.705 487.247 591.006 484.369C589.038 485.959 586.96 487.412 584.791 488.717C583.82 486.385 583.915 483.735 584.436 481.264C585.993 473.9 590.991 467.837 595.416 461.749C599.841 455.66 603.99 448.655 603.41 441.152" fill="#2477F4"/>
<path d="M616.004 438.078C616.004 438.078 623.916 425.697 631.123 424.217C638.328 422.737 633.911 438.078 633.911 438.078C633.911 438.078 639.489 440.633 638.559 444.353C637.629 448.072 632.981 447.375 632.981 447.375C632.981 447.375 641.118 459.462 634.841 462.948C628.564 466.435 616.339 448.305 616.339 448.305C616.339 448.305 614.636 455.51 608.933 454.582C603.229 453.65 601.888 447.143 601.888 447.143C601.888 447.143 591.491 461.103 586.261 458.073C581.031 455.045 587.771 444.883 587.771 444.883C587.771 444.883 584.431 442.958 584.401 439.472C584.371 435.985 587.771 434.823 587.771 434.823C587.771 434.823 586.023 430.038 585.826 425.52C585.681 422.197 590.129 420.918 594.313 425.947C598.496 430.975 602.996 436.218 602.996 436.218C602.996 436.218 609.023 427.153 616.004 438.078Z" fill="#2477F4"/>
<path d="M669.911 395.489C669.911 395.489 678.741 406.452 694.836 420.889C715.089 439.055 735.956 440.77 738.596 422.874C739.073 419.62 739.759 414.879 740.535 409.285C736.567 416.967 730.318 423.722 720.593 423.722C698.146 423.722 670.808 373.474 670.808 373.474L669.911 395.489Z" fill="#E3A70C"/>
<path d="M513.841 418.01C520.433 422.768 528.965 422.485 538.198 416.385C550.95 407.943 568.698 381.767 568.698 381.767L570.743 364.107C570.743 364.107 545.058 419.442 513.841 418.01Z" fill="#E3A70C"/>
<path d="M638.259 310.707L638.123 310.673L638.196 310.72L638.451 310.955C638.634 311.172 638.813 311.417 638.983 311.685C639.321 312.223 639.613 312.813 639.874 313.422C640.403 314.635 640.834 315.908 641.201 317.2C641.954 319.785 642.343 322.475 642.518 325.165C642.823 330.545 642.026 336.032 639.853 340.932C638.763 343.372 637.371 345.675 635.656 347.697C633.944 349.707 631.784 351.305 629.416 352.352C627.061 353.432 624.521 353.953 622.046 354.182C619.563 354.392 617.136 354.403 614.749 354.252C612.363 354.098 610.019 353.82 607.673 353.455C605.341 353.068 602.898 352.703 600.596 351.763C598.283 350.873 596.109 349.34 594.779 347.148C593.451 344.977 593.024 342.257 592.819 339.632C592.538 334.292 593.804 328.893 595.756 323.87C596.766 321.36 597.938 318.907 599.368 316.622C600.081 315.478 600.843 314.365 601.679 313.337C602.104 312.835 602.524 312.317 603.003 311.905C603.233 311.693 603.479 311.495 603.711 311.355C603.936 311.185 604.181 311.142 604.181 311.142V309.475C603.489 309.548 603.121 309.833 602.804 310.072C602.478 310.322 602.214 310.585 601.966 310.857C601.463 311.395 601.031 311.948 600.609 312.515C599.783 313.652 599.063 314.837 598.393 316.047C597.063 318.47 595.884 320.96 594.883 323.527C592.901 328.648 591.484 334.063 591.464 339.673C591.493 342.478 591.916 345.28 593.019 348.022C594.123 350.722 595.786 353.317 597.953 355.523C600.101 357.757 602.756 359.562 605.664 360.67C608.573 361.787 611.701 362.158 614.768 362.023C620.948 361.765 626.774 358.875 631.159 355.045C635.541 351.188 639.034 346.648 641.019 341.417C643.058 336.223 643.746 330.613 643.453 325.113C643.338 322.355 642.919 319.618 642.319 316.915C642.006 315.563 641.629 314.225 641.133 312.91C640.893 312.248 640.593 311.603 640.271 310.948C640.104 310.625 639.911 310.297 639.679 309.972C639.541 309.803 639.421 309.642 639.228 309.47L638.886 309.217C638.714 309.13 638.469 309.063 638.259 309.04V310.707Z" fill="white"/>
<path d="M650.76 392.705C650.76 392.705 630.395 405.573 593.93 406.452C605.73 410.878 641.136 407.888 650.76 392.705Z" fill="#E3A70C"/>
<path d="M570.871 562.615C573.121 570.38 577.996 577.085 582.95 583.474C597.356 602.062 613.353 619.66 632.401 633.454C639.608 638.672 647.248 643.31 655.261 647.185C661.456 650.18 670.633 655.385 677.523 655.109C676.825 648.732 665.71 644.665 661.013 641.805C652.733 636.759 644.665 631.364 636.836 625.644C620.893 613.994 605.94 600.989 592.201 586.807C588.398 582.88 584.688 578.865 581.076 574.764C578.383 571.705 572.001 566.519 570.871 562.615Z" fill="#E3A70C"/>
<g opacity="0.3">
<rect x="397" y="143" width="450" height="574" fill="#2477F4" style="mix-blend-mode:lighten"/>
</g>
<g style="mix-blend-mode:soft-light">
<rect x="291.426" y="534.437" width="856" height="53" transform="rotate(-43.1089 291.426 534.437)" fill="white"/>
</g>
<g style="mix-blend-mode:soft-light">
<rect x="361.426" y="744.438" width="856" height="53" transform="rotate(-43.1089 361.426 744.438)" fill="white"/>
</g>
<g style="mix-blend-mode:soft-light">
<rect x="351.426" y="844.438" width="856" height="19.3068" transform="rotate(-43.1089 351.426 844.438)" fill="white"/>
</g>
</g>
<path d="M621.927 161.824C560.328 161.824 510.215 282.195 510.215 430.152C510.215 578.11 560.328 698.48 621.927 698.48C683.525 698.48 733.638 578.11 733.638 430.152C733.638 282.195 683.525 161.824 621.927 161.824ZM621.927 700.147C559.41 700.147 508.548 579.027 508.548 430.152C508.548 281.275 559.41 160.157 621.927 160.157C684.443 160.157 735.307 281.275 735.307 430.152C735.307 579.027 684.443 700.147 621.927 700.147Z" fill="#8AA5D9"/>
<path d="M88.3854 68.4703C86.9129 68.4703 85.622 68.3182 84.5126 68.0141C83.4032 67.6883 82.4753 67.2214 81.729 66.6132C81.0028 66.005 80.4481 65.2774 80.0648 64.4303C79.7018 63.5615 79.5001 62.5949 79.4597 61.5306H84.9059C84.9866 61.9433 85.1076 62.3017 85.269 62.6058C85.4505 62.9099 85.6825 63.1597 85.9649 63.3551C86.2473 63.5506 86.5801 63.6918 86.9634 63.7787C87.3668 63.8656 87.8408 63.909 88.3854 63.909C88.9704 63.909 89.4747 63.8656 89.8983 63.7787C90.342 63.6918 90.7051 63.5615 90.9875 63.3877C91.2901 63.214 91.5119 62.9968 91.6531 62.7361C91.7943 62.4755 91.8649 62.1714 91.8649 61.8239C91.8649 61.3677 91.754 60.9985 91.5321 60.7161C91.3102 60.412 90.9875 60.1514 90.5639 59.9342C90.1403 59.6953 89.6159 59.4889 88.9906 59.3152C88.3653 59.1414 87.6391 58.9568 86.8121 58.7613C85.7632 58.5007 84.8151 58.1857 83.968 57.8165C83.1409 57.4472 82.435 56.9911 81.85 56.4481C81.2852 55.8834 80.8414 55.21 80.5187 54.4281C80.2161 53.6245 80.0648 52.6688 80.0648 51.561C80.0648 50.4967 80.2565 49.5519 80.6397 48.7265C81.023 47.8795 81.5777 47.1735 82.3038 46.6088C83.03 46.0224 83.9074 45.5771 84.9362 45.273C85.9649 44.9689 87.1146 44.8169 88.3854 44.8169C89.7772 44.8169 90.9875 44.9689 92.0162 45.273C93.0449 45.5554 93.9022 45.9789 94.588 46.5437C95.294 47.1084 95.8286 47.8034 96.1916 48.6288C96.5749 49.4542 96.7968 50.3881 96.8573 51.4307H91.4111C91.3506 51.0832 91.2497 50.7791 91.1085 50.5185C90.9673 50.2578 90.7757 50.0515 90.5336 49.8994C90.2916 49.7257 89.989 49.5954 89.6259 49.5085C89.283 49.4216 88.8695 49.3782 88.3854 49.3782C87.8408 49.3782 87.387 49.4325 87.0239 49.5411C86.6608 49.6279 86.3683 49.7583 86.1464 49.932C85.9245 50.1058 85.7632 50.3121 85.6623 50.551C85.5615 50.79 85.511 51.0615 85.511 51.3656C85.511 51.7565 85.6119 52.0932 85.8136 52.3755C86.0153 52.6579 86.3078 52.9077 86.6911 53.1249C87.0743 53.3204 87.5483 53.4941 88.1131 53.6462C88.6779 53.7982 89.3234 53.9611 90.0495 54.1349C91.1388 54.3738 92.1272 54.667 93.0147 55.0146C93.9224 55.3404 94.6889 55.7856 95.3142 56.3504C95.9597 56.8934 96.4539 57.5667 96.7968 58.3703C97.1397 59.1523 97.3111 60.1188 97.3111 61.27C97.3111 62.3995 97.1094 63.4094 96.706 64.3C96.3026 65.1905 95.7176 65.9507 94.9511 66.5806C94.1846 67.1888 93.2467 67.6558 92.1372 67.9816C91.0278 68.3074 89.7772 68.4703 88.3854 68.4703Z" fill="#031C3D"/>
<path d="M100.032 74.5628V50.7791H104.328V53.1249C104.53 52.7774 104.782 52.4407 105.085 52.1149C105.407 51.7674 105.781 51.4633 106.204 51.2027C106.628 50.942 107.102 50.7357 107.626 50.5836C108.151 50.4316 108.716 50.3556 109.321 50.3556C110.45 50.3556 111.439 50.5402 112.286 50.9094C113.153 51.257 113.879 51.7891 114.464 52.5059C115.049 53.2226 115.483 54.1132 115.765 55.1775C116.068 56.2418 116.219 57.4907 116.219 58.9242V59.5758C116.219 61.0311 116.058 62.3234 115.735 63.4529C115.412 64.5606 114.948 65.4837 114.343 66.2222C113.738 66.9607 113.012 67.5254 112.165 67.9164C111.318 68.2856 110.37 68.4703 109.321 68.4703C108.413 68.4703 107.546 68.2531 106.719 67.8187C105.912 67.3625 105.236 66.7109 104.691 65.8638V74.5628H100.032ZM108.201 64.3326C108.665 64.3326 109.089 64.2348 109.472 64.0393C109.875 63.8221 110.218 63.518 110.501 63.1271C110.803 62.7361 111.035 62.2474 111.197 61.661C111.358 61.0528 111.439 60.3577 111.439 59.5758V58.9242C111.439 58.164 111.358 57.5124 111.197 56.9694C111.055 56.4047 110.833 55.9485 110.531 55.601C110.249 55.2318 109.906 54.9603 109.502 54.7865C109.119 54.591 108.685 54.4933 108.201 54.4933C107.717 54.4933 107.253 54.5802 106.809 54.7539C106.386 54.906 106.013 55.1557 105.69 55.5033C105.387 55.8291 105.145 56.2418 104.964 56.7413C104.782 57.2192 104.691 57.7839 104.691 58.4355V60.0645C104.691 60.7379 104.782 61.346 104.964 61.889C105.145 62.4103 105.387 62.8556 105.69 63.2248C106.013 63.5941 106.386 63.8764 106.809 64.0719C107.253 64.2457 107.717 64.3326 108.201 64.3326Z" fill="#031C3D"/>
<path d="M126.362 68.4703C125.192 68.4703 124.093 68.2965 123.064 67.949C122.056 67.5797 121.178 67.0259 120.432 66.2874C119.686 65.5489 119.101 64.6258 118.677 63.518C118.253 62.3886 118.042 61.0745 118.042 59.5758V58.9242C118.042 57.4907 118.243 56.2418 118.647 55.1775C119.07 54.1132 119.635 53.2226 120.341 52.5059C121.067 51.7891 121.914 51.257 122.883 50.9094C123.871 50.5402 124.93 50.3556 126.06 50.3556C128.702 50.3556 130.699 51.0941 132.05 52.571C133.402 54.0263 134.078 56.144 134.078 58.9242V60.7161H122.822C122.842 61.3895 122.953 61.965 123.155 62.4429C123.357 62.899 123.619 63.2791 123.942 63.5832C124.264 63.8873 124.638 64.1154 125.061 64.2674C125.485 64.3977 125.918 64.4629 126.362 64.4629C127.27 64.4629 127.976 64.3217 128.48 64.0393C128.984 63.7352 129.317 63.3334 129.479 62.8339H133.775C133.614 63.7678 133.331 64.5932 132.928 65.31C132.524 66.005 132.01 66.5915 131.385 67.0693C130.76 67.5472 130.023 67.8947 129.176 68.1119C128.329 68.3508 127.391 68.4703 126.362 68.4703ZM122.852 57.4255H129.509C129.509 56.8173 129.418 56.3178 129.237 55.9268C129.075 55.5358 128.843 55.2209 128.541 54.982C128.238 54.7431 127.885 54.5802 127.482 54.4933C127.078 54.3847 126.655 54.3304 126.211 54.3304C125.787 54.3304 125.374 54.3847 124.97 54.4933C124.587 54.6019 124.234 54.7865 123.911 55.0471C123.609 55.2861 123.357 55.601 123.155 55.992C122.973 56.3829 122.873 56.8608 122.852 57.4255Z" fill="#031C3D"/>
<path d="M144.209 68.4703C143.039 68.4703 141.94 68.2965 140.911 67.949C139.902 67.5797 139.025 67.0259 138.279 66.2874C137.532 65.5489 136.947 64.6258 136.524 63.518C136.1 62.3886 135.888 61.0745 135.888 59.5758V58.9242C135.888 57.4907 136.09 56.2418 136.493 55.1775C136.917 54.1132 137.482 53.2226 138.188 52.5059C138.914 51.7891 139.761 51.257 140.729 50.9094C141.718 50.5402 142.777 50.3556 143.906 50.3556C146.549 50.3556 148.546 51.0941 149.897 52.571C151.249 54.0263 151.924 56.144 151.924 58.9242V60.7161H140.669C140.689 61.3895 140.8 61.965 141.002 62.4429C141.203 62.899 141.466 63.2791 141.788 63.5832C142.111 63.8873 142.484 64.1154 142.908 64.2674C143.331 64.3977 143.765 64.4629 144.209 64.4629C145.117 64.4629 145.823 64.3217 146.327 64.0393C146.831 63.7352 147.164 63.3334 147.325 62.8339H151.622C151.46 63.7678 151.178 64.5932 150.775 65.31C150.371 66.005 149.857 66.5915 149.231 67.0693C148.606 67.5472 147.87 67.8947 147.023 68.1119C146.176 68.3508 145.238 68.4703 144.209 68.4703ZM140.699 57.4255H147.356C147.356 56.8173 147.265 56.3178 147.083 55.9268C146.922 55.5358 146.69 55.2209 146.387 54.982C146.085 54.7431 145.732 54.5802 145.328 54.4933C144.925 54.3847 144.501 54.3304 144.058 54.3304C143.634 54.3304 143.221 54.3847 142.817 54.4933C142.434 54.6019 142.081 54.7865 141.758 55.0471C141.456 55.2861 141.203 55.601 141.002 55.992C140.82 56.3829 140.719 56.8608 140.699 57.4255Z" fill="#031C3D"/>
<path d="M161.904 68.4703C160.714 68.4703 159.615 68.2856 158.606 67.9164C157.618 67.5472 156.761 66.9933 156.035 66.2548C155.308 65.5163 154.744 64.5932 154.34 63.4855C153.937 62.3777 153.735 61.0745 153.735 59.5758V58.9242C153.735 57.5558 153.947 56.3395 154.37 55.2752C154.814 54.2109 155.399 53.3204 156.125 52.6036C156.872 51.8651 157.739 51.3113 158.727 50.942C159.736 50.551 160.795 50.3556 161.904 50.3556C163.115 50.3556 164.174 50.5293 165.081 50.8769C166.009 51.2244 166.786 51.7022 167.411 52.3104C168.036 52.8968 168.52 53.5919 168.863 54.3955C169.206 55.1992 169.408 56.0571 169.468 56.9694H164.688C164.607 56.5784 164.496 56.2309 164.355 55.9268C164.214 55.6227 164.022 55.3729 163.78 55.1775C163.558 54.9603 163.296 54.7974 162.994 54.6888C162.691 54.5802 162.328 54.5259 161.904 54.5259C161.42 54.5259 160.966 54.6236 160.543 54.8191C160.139 54.9928 159.786 55.2643 159.484 55.6336C159.181 55.9811 158.939 56.4372 158.758 57.002C158.596 57.545 158.516 58.1857 158.516 58.9242V59.5758C158.516 60.3795 158.596 61.0745 158.758 61.661C158.919 62.2474 159.141 62.7361 159.423 63.1271C159.726 63.518 160.089 63.8113 160.512 64.0068C160.936 64.1805 161.4 64.2674 161.904 64.2674C162.61 64.2674 163.205 64.0719 163.689 63.6809C164.194 63.2683 164.527 62.6601 164.688 61.8564H169.468C169.408 62.8773 169.186 63.8004 168.803 64.6258C168.42 65.4294 167.895 66.1245 167.229 66.7109C166.584 67.2757 165.807 67.7101 164.9 68.0141C164.012 68.3182 163.014 68.4703 161.904 68.4703Z" fill="#031C3D"/>
<path d="M171.744 68.0467V45.2404H176.403V52.962C176.564 52.6796 176.786 52.3864 177.069 52.0823C177.351 51.7782 177.694 51.4959 178.097 51.2352C178.521 50.9746 179.005 50.7682 179.55 50.6162C180.094 50.4424 180.7 50.3556 181.365 50.3556C183.302 50.3556 184.754 50.9203 185.722 52.0497C186.69 53.1575 187.174 54.7322 187.174 56.7739V68.0467H182.515V57.9468C182.515 56.8173 182.283 55.9703 181.819 55.4055C181.375 54.8191 180.639 54.5259 179.61 54.5259C179.046 54.5259 178.561 54.6127 178.158 54.7865C177.755 54.9603 177.422 55.1992 177.16 55.5033C176.897 55.8074 176.706 56.1657 176.585 56.5784C176.464 56.9911 176.403 57.4472 176.403 57.9468V68.0467H171.744Z" fill="#031C3D"/>
<path d="M206.242 68.4703C204.83 68.4703 203.549 68.2748 202.399 67.8838C201.27 67.4711 200.302 66.8738 199.495 66.0919C198.708 65.2882 198.093 64.2891 197.649 63.0945C197.226 61.8999 197.014 60.5098 197.014 58.9242V45.2404H202.46V58.24C202.46 59.1088 202.521 59.8799 202.642 60.5532C202.783 61.2266 203.005 61.7913 203.307 62.2474C203.61 62.6818 204.003 63.0185 204.487 63.2574C204.971 63.4746 205.556 63.5832 206.242 63.5832C206.968 63.5832 207.573 63.4746 208.057 63.2574C208.542 63.0185 208.925 62.6818 209.207 62.2474C209.51 61.7913 209.722 61.2374 209.843 60.5858C209.964 59.9125 210.024 59.1414 210.024 58.2726V45.2404H215.47V58.9242C215.47 60.5098 215.259 61.8999 214.835 63.0945C214.411 64.2891 213.796 65.2882 212.989 66.0919C212.203 66.8738 211.234 67.4711 210.085 67.8838C208.955 68.2748 207.674 68.4703 206.242 68.4703Z" fill="#031C3D"/>
<path d="M218.813 74.5628V50.7791H223.109V53.1249C223.311 52.7774 223.563 52.4407 223.866 52.1149C224.188 51.7674 224.562 51.4633 224.985 51.2027C225.409 50.942 225.883 50.7357 226.407 50.5836C226.932 50.4316 227.496 50.3556 228.102 50.3556C229.231 50.3556 230.219 50.5402 231.067 50.9094C231.934 51.257 232.66 51.7891 233.245 52.5059C233.83 53.2226 234.264 54.1132 234.546 55.1775C234.849 56.2418 235 57.4907 235 58.9242V59.5758C235 61.0311 234.839 62.3234 234.516 63.4529C234.193 64.5606 233.729 65.4837 233.124 66.2222C232.519 66.9607 231.793 67.5254 230.946 67.9164C230.098 68.2856 229.15 68.4703 228.102 68.4703C227.194 68.4703 226.326 68.2531 225.499 67.8187C224.693 67.3625 224.017 66.7109 223.472 65.8638V74.5628H218.813ZM226.982 64.3326C227.446 64.3326 227.87 64.2348 228.253 64.0393C228.656 63.8221 228.999 63.518 229.282 63.1271C229.584 62.7361 229.816 62.2474 229.977 61.661C230.139 61.0528 230.219 60.3577 230.219 59.5758V58.9242C230.219 58.164 230.139 57.5124 229.977 56.9694C229.836 56.4047 229.614 55.9485 229.312 55.601C229.029 55.2318 228.686 54.9603 228.283 54.7865C227.9 54.591 227.466 54.4933 226.982 54.4933C226.498 54.4933 226.034 54.5802 225.59 54.7539C225.167 54.906 224.793 55.1557 224.471 55.5033C224.168 55.8291 223.926 56.2418 223.745 56.7413C223.563 57.2192 223.472 57.7839 223.472 58.4355V60.0645C223.472 60.7379 223.563 61.346 223.745 61.889C223.926 62.4103 224.168 62.8556 224.471 63.2248C224.793 63.5941 225.167 63.8764 225.59 64.0719C226.034 64.2457 226.498 64.3326 226.982 64.3326Z" fill="#031C3D"/>
<path d="M65.6896 50.1526C69.4558 52.7087 69.4558 58.6214 65.6896 61.1776L49.278 72.3161C45.2483 75.0509 40 71.9326 40 66.8036L40 44.5266C40 39.3975 45.2484 36.2792 49.278 39.0141L65.6896 50.1526Z" fill="url(#paint0_linear_120_851)"/>
<rect width="2.31422" height="5.5446" rx="1.15711" transform="matrix(-1 0 0 1 45.3892 52.9111)" fill="white"/>
<rect width="2.31422" height="18.8143" rx="1.15711" transform="matrix(-1 0 0 1 49.2537 46.2759)" fill="white"/>
<rect width="2.31422" height="10.84" rx="1.15711" transform="matrix(-1 0 0 1 53.1183 50.2632)" fill="white"/>
<rect width="2.31422" height="15.3878" rx="1.15711" transform="matrix(-1 0 0 1 56.9822 47.9893)" fill="white"/>
<rect width="2.25636" height="5.5446" rx="1.12818" transform="matrix(-1 0 0 1 60.7889 52.9111)" fill="white"/>
</g>
<defs>
<linearGradient id="paint0_linear_120_851" x1="71.1391" y1="69.7461" x2="24.8173" y2="40.0876" gradientUnits="userSpaceOnUse">
<stop stop-color="#51ACFF"/>
<stop offset="1" stop-color="#0055D5"/>
</linearGradient>
<clipPath id="clip0_120_851">
<path d="M0 48C0 21.4903 21.4903 0 48 0H800V900H48C21.4903 900 0 878.51 0 852V48Z" fill="white"/>
</clipPath>
</defs>
</svg>
