<svg width="16" height="16" viewBox="0 0 16 16" fill="none" xmlns="http://www.w3.org/2000/svg">
<path d="M13.9663 2.7535C13.773 2.4735 13.5263 2.22683 13.2463 2.0335C12.613 1.5735 11.7863 1.3335 10.793 1.3335H5.20634C5.07301 1.3335 4.93967 1.34016 4.81301 1.3535C2.62634 1.4935 1.33301 2.9135 1.33301 5.20683V10.7935C1.33301 11.7868 1.57301 12.6135 2.03301 13.2468C2.22634 13.5268 2.47301 13.7735 2.75301 13.9668C3.29967 14.3668 3.99301 14.6002 4.81301 14.6535C4.93967 14.6602 5.07301 14.6668 5.20634 14.6668H10.793C13.2197 14.6668 14.6663 13.2202 14.6663 10.7935V5.20683C14.6663 4.2135 14.4263 3.38683 13.9663 2.7535ZM12.4997 5.9335C12.4997 6.20683 12.273 6.4335 11.9997 6.4335C11.7263 6.4335 11.4997 6.20683 11.4997 5.9335V5.14683C11.4997 4.9335 11.3263 4.76016 11.113 4.76016H8.49967V11.2402H9.68634C9.95967 11.2402 10.1863 11.4668 10.1863 11.7402C10.1863 12.0135 9.95967 12.2402 9.68634 12.2402H6.31301C6.03967 12.2402 5.81301 12.0135 5.81301 11.7402C5.81301 11.4668 6.03967 11.2402 6.31301 11.2402H7.49967V4.76016H4.88634C4.67301 4.76016 4.49967 4.9335 4.49967 5.14683V5.9335C4.49967 6.20683 4.27301 6.4335 3.99967 6.4335C3.72634 6.4335 3.49967 6.20683 3.49967 5.9335V5.14683C3.49967 4.38016 4.11967 3.76016 4.88634 3.76016H11.1063C11.873 3.76016 12.493 4.38016 12.493 5.14683V5.9335H12.4997Z" fill="#7C8EB5"/>
</svg>
