<svg width="16" height="16" viewBox="0 0 16 16" fill="none" xmlns="http://www.w3.org/2000/svg">
<path d="M14.1003 4.11317C13.827 3.9665 13.2537 3.81317 12.4737 4.35984L11.4937 5.05317C11.4203 2.97984 10.5203 2.1665 8.33366 2.1665H4.33366C2.05366 2.1665 1.16699 3.05317 1.16699 5.33317V10.6665C1.16699 12.1998 2.00033 13.8332 4.33366 13.8332H8.33366C10.5203 13.8332 11.4203 13.0198 11.4937 10.9465L12.4737 11.6398C12.887 11.9332 13.247 12.0265 13.5337 12.0265C13.7803 12.0265 13.9737 11.9532 14.1003 11.8865C14.3737 11.7465 14.8337 11.3665 14.8337 10.4132V5.5865C14.8337 4.63317 14.3737 4.25317 14.1003 4.11317ZM7.33366 7.5865C6.64699 7.5865 6.08033 7.0265 6.08033 6.33317C6.08033 5.63984 6.64699 5.07984 7.33366 5.07984C8.02033 5.07984 8.58699 5.63984 8.58699 6.33317C8.58699 7.0265 8.02033 7.5865 7.33366 7.5865Z" fill="#7C8EB5"/>
</svg>
