<svg width="20" height="20" viewBox="0 0 20 20" fill="none" xmlns="http://www.w3.org/2000/svg">
<path d="M14.1411 0.959066L5.11109 3.95907C-0.958906 5.98907 -0.958906 9.29907 5.11109 11.3191L7.79109 12.2091L8.68109 14.8891C10.7011 20.9591 14.0211 20.9591 16.0411 14.8891L19.0511 5.86907C20.3911 1.81907 18.1911 -0.390934 14.1411 0.959066ZM14.4611 6.33907L10.6611 10.1591C10.5111 10.3091 10.3211 10.3791 10.1311 10.3791C9.94109 10.3791 9.75109 10.3091 9.60109 10.1591C9.31109 9.86907 9.31109 9.38907 9.60109 9.09907L13.4011 5.27907C13.6911 4.98907 14.1711 4.98907 14.4611 5.27907C14.7511 5.56907 14.7511 6.04907 14.4611 6.33907Z" fill="#7C8EB5" fill-opacity="0.5"/>
</svg>
